<svg width="100%" height="100%" viewBox="0 0 6200 9442" version="1.1" xmlns="http://www.w3.org/2000/svg" xmlns:xlink="http://www.w3.org/1999/xlink" xml:space="preserve" style="fill-rule:evenodd;clip-rule:evenodd;stroke-linejoin:round;stroke-miterlimit:2;"><g><path id="cyclist-path" d="M2855.187,8942.978c-348.658,-70.956 -704.966,-676.883 -459.644,-986.284c104.809,-151.56 272.335,-237.571 424.22,-333.77c181.282,-124.141 392.997,-222.7 517.268,-411.268c-163.644,110.191 -338.874,228.49 -542.628,235.418c-200.554,6.916 -389.956,-99.185 -522.499,-244.27c-168.891,-186.64 -178.119,-484.336 -69.72,-703.606c159.095,-290.905 436.186,-219.556 705.715,-257.911c166.265,-30.435 362.312,-141.555 370.135,-328.852c-143.872,-44.822 -309.73,-18.411 -442.282,-96.432c-212.656,-154.423 -4.44,-542.011 96.185,-717.48c29.398,-45.464 69.256,-83.525 98.232,-128.994c-5.26,-134.169 -180.804,-165.725 -288.355,-176.899c-147.444,-5.133 -305.144,21.264 -442.157,-47.31c-246.736,-138.91 -175.847,-482.535 -76.278,-696.045c58.429,-144.071 187.414,-236.663 320.784,-306.401c226.938,-130.234 914.002,-433.138 907.193,-725.178c0.432,2.095 0.862,4.187 1.29,6.278c0.002,0.025 0.003,0.05 1.064,5.229c-8.293,-74.095 -72.535,-117.09 -141.039,-129.254c-114.069,-23.704 -227.898,18.362 -329.215,68.085c-98.978,48.121 -194.929,105.447 -303.133,130.412c-161.643,30.773 -358.44,10.605 -474.186,-117.714c-56.428,-64.313 -98.262,-144.703 -107.3,-230.489c-5.396,-192.229 119.917,-378.741 276.781,-481.854c129.128,-76.749 278.915,-108.608 417.89,-163.177c111.279,-41.867 231.64,-65.145 331.097,-133.281c93.011,-58.086 191.042,-173.58 134.025,-287.214c-31.66,-45.727 -79.3,-76.207 -121.154,-111.67c-112.845,-78.489 -120.218,-222.36 -128.1,-347.312c-5.38,-73.298 -20.115,-145.629 -23.92,-219.035c-5.081,-192.024 124.981,-280.835 300.344,-308.41c19.141,-73.11 -194.03,-0.757 -229.157,0.575c-73.786,14.45 -147.218,31.637 -221.708,41.995c-267.742,7.183 -329.717,-288.463 -174.887,-469.644c91.775,-116.712 241.773,-146.212 379.538,-172.922c81.647,-20.15 162.197,-46.149 237.935,-83.034c61.997,-34.893 140.292,-71.114 162.201,-144.421c7.24,-78.256 -33.625,-150.9 -47.584,-226.5c62.973,96.169 174.296,207.809 101.309,328.145c-86.935,149.152 -249.713,237.762 -406.578,297.332c-120.262,41.564 -308.57,72.694 -304.09,235.13c10.263,54.374 68.93,38.519 107.613,31.357c42.36,-8.74 84.709,-17.606 126.636,-28.261c100.647,-24.13 205.445,-62.684 309.55,-38.054c237.001,60.021 216.912,408.242 -31.047,431.471c-159.75,13.821 -112.395,152.45 -97.179,264.073c15.572,76.492 5.793,161.753 40.978,232.681c63.188,64.89 146.686,112.127 190.13,194.87c93.193,175.403 -9.496,388.992 -162.663,493.228c-107.535,86.276 -241.123,122.981 -370.588,162.404c-82.62,29.312 -164.755,59.792 -247.18,89.607c-110.052,36.095 -221.633,85.95 -285.554,187.733c-43.836,73.86 -100.744,163.288 -69.698,251.548c40.226,114.423 139.977,151.787 252.761,158.311c217.617,17.292 377.756,-176.655 585.822,-211.318c158.516,-36.818 359.112,-5.212 450.881,142.397c276.088,491.73 -865.606,911.139 -1140.185,1168.978c-96.089,127.168 -156.349,346.399 -97.473,498.47c68.545,115.329 285.718,56.759 399.896,66.39c138.575,4.979 286.122,40.472 390.74,136.087c79.092,76.682 130.895,205.887 77.295,310.076c-35.061,66.653 -100.065,111 -141.062,173.729c-69.098,117.674 -118.951,256.761 -130.949,392.027c-32.827,152.69 678.884,-77.436 514.338,400.74c-84.812,215.842 -279.065,365.346 -504.962,408.217c-188.252,55.469 -442.869,-30.788 -576.303,149.034c-80.168,131.215 -82.393,301.899 -26.387,442.724c50.166,95.427 139.254,165.371 232.255,216.59c269.708,155.348 511.039,-85.884 720.91,-232.089c57.973,-38.318 120.533,-79.848 192.199,-81.609c168.153,17.572 141.943,170.82 70.251,278.974c-169.578,294.98 -493.259,453.742 -759.942,643.23c-99.486,66.098 -200.355,136.163 -267.862,236.795c-48.277,64.474 -55.885,136.336 -35.686,214.61c32.447,170.114 116.202,326.818 228.359,457.75c103.38,120.538 163.528,137.51 313.746,164.509c7.357,6.006 3.646,19.027 -6.413,18.783c-3.37,-0.27 -6.693,0.2 -10.033,0.58c-55.823,12.529 -113.868,20.99 -170.785,11.388Zm424.112,-8231.06c1.538,-2.779 2.972,-5.606 4.306,-8.48c-0.037,0.036 -0.073,0.073 -0.11,0.11c-1.398,2.79 -2.797,5.585 -4.196,8.37Zm9.391,-15.218c-0.06,-1.691 -0.153,-3.378 -0.277,-5.061c-0.017,0.049 -0.034,0.098 -0.05,0.145c0.109,1.64 0.218,3.28 0.327,4.916Zm4.573,-14.665c-2.255,-2.17 -4.588,-4.248 -6.994,-6.231c-0.19,-0.958 -0.391,-1.915 -0.617,-2.874c0.196,0.95 0.392,1.9 0.586,2.849c-0.255,-0.211 -0.511,-0.418 -0.768,-0.626c0.003,0.008 0.005,0.015 0.008,0.023c0.259,0.228 0.517,0.455 0.776,0.683c0.054,0.261 0.107,0.524 0.16,0.785c0.008,0.008 0.015,0.017 0.023,0.025c-0.05,-0.261 -0.1,-0.522 -0.152,-0.783c2.33,2.05 4.658,4.104 6.977,6.149Zm-8.04,-10.661c-2.231,-0.527 -4.468,-1.014 -6.711,-1.463c-1.572,-1.099 -3.17,-2.164 -4.796,-3.192c1.56,1.054 3.121,2.111 3.409,2.918c0.809,-0.124 4.375,2.305 1.574,0.403c2.176,0.445 4.352,0.89 6.525,1.334Z" style="fill-rule:nonzero;"></path><path d="M1607.115,3867.709c-103.782,-27.378 -167.54,-154.485 -145.241,-256.023c26.727,-111.897 148.106,-213.507 264.871,-165.239c215.353,95.226 134.653,485.212 -119.63,421.262Z" style="fill:#ff0062;fill-rule:nonzero;"></path><path d="M3886.109,6145.197c-184.979,5.89 -240.546,-211.969 -158.37,-349.265c38.694,-147.659 183.423,-201.556 294.95,-87.425c59.818,58.085 90.614,145.861 79.592,228.569c-15.66,102.32 -103.922,216.7 -216.171,208.122Z" style="fill:#a9d622;fill-rule:nonzero;"></path><path d="M2037.766,607.659c-167.74,10.087 -276.276,-190.337 -175.743,-324.485c23.794,-65.629 79.089,-124.189 149.948,-134.888c84.76,-102.994 251.394,-94.932 312.982,28.019c97.001,182.281 -47.358,530.083 -287.187,431.354Z" style="fill:#a9d622;fill-rule:nonzero;"></path><path d="M1580.352,3874.666c-290.065,-112.441 -212.43,-543.406 110.52,-509.567c111.899,11.328 212.309,102.819 202.445,220.286c32.203,183.281 -120.97,373.505 -312.965,289.281Zm73.472,-194.165c69.233,-54.107 34.625,-142.933 -45.5,-73.031c0.001,0.001 0.001,0.003 0.001,0.004c-8.53,32.698 14.89,63.358 45.499,73.027Z" style="fill:#ff0062;fill-rule:nonzero;"></path><path d="M1875.145,6307.055c-54.689,-11.199 -98.613,-48.538 -127.247,-94.838c-83.273,-86.927 -53.435,-230.812 26.757,-309.482c118.568,-133.323 351.879,-61.528 346.252,124.765c58.432,144.712 -94.251,319.391 -245.762,279.554Z" style="fill:#ff0062;fill-rule:nonzero;"></path><path d="M3827.471,1960.219c-105.829,3.584 -185.495,-96.658 -186.439,-197.257c-4.326,-97.91 56.097,-212.32 152.56,-242.756c71.994,-14.841 150.534,12.997 206.259,58.891c181.465,149.199 76.967,458.035 -172.38,381.123Z" style="fill:#056766;fill-rule:nonzero;"></path><path d="M1515.692,4726.084c-39.374,-24.24 -68.169,-61.671 -87.903,-102.909c-107.431,-102.042 -60.731,-283.57 44.622,-369.352c163.017,-141.963 387.255,-10.228 413.309,186.483c40.008,196.614 -187.895,395.846 -370.028,285.778Zm90.181,-198.285c19.722,-2.376 39.143,-8.571 55.887,-19.387c3.359,-13.202 0.973,-27.12 -2.07,-40.169c-12.005,-1.363 -25.339,0.807 -36.251,3.457c-10.465,16.452 -20.548,36.065 -17.565,56.099Z" style="fill:#056766;fill-rule:nonzero;"></path><path d="M1617.652,4594.114c-66.338,-35.341 -40.971,-141.443 16.488,-174.562c18.72,-10.549 40.744,-7.377 60.434,-2.424c-18.206,7.97 -39.529,15.267 -45.311,36.188c44.46,-20.775 61.204,26.663 53.351,62.542c-2.984,9.177 -10.331,18.617 -6.394,28.487c6.474,3.78 -6.349,1.029 -7.3,-3.607c-20.082,23.463 -30.482,69.677 -71.269,53.377Z" style="fill:#056766;fill-rule:nonzero;"></path><path d="M3813.035,3062.413c-213.89,-101.673 -47.625,-522.562 179.411,-402.88c95.595,56.892 122.612,189.01 83.901,288.361c-35.671,101.868 -164.205,178.923 -263.312,114.519Zm93.752,-172.549c4.652,-7.272 10.797,-15.538 8.133,-24.499c-1.392,3.237 -2.718,6.504 -3.978,9.802c-1.524,4.864 -2.911,9.756 -4.155,14.697Z" style="fill:#ded491;fill-rule:nonzero;"></path><path d="M1740.8,8046.965c-136.764,-55.391 -172.79,-268.6 -49.161,-356.797c78.389,-201.008 390.029,-122.625 400.774,80.678c14.525,170.946 -187.162,339.693 -351.613,276.119Zm133.21,-223.979c1.503,-1.462 2.99,-2.94 4.463,-4.432c-2.692,-2.495 -6.01,-3.18 -9.573,-2.781c0.514,0.866 1.038,1.727 1.57,2.583c1.15,1.568 2.326,3.11 3.539,4.63Z" style="fill:#ded491;fill-rule:nonzero;"></path><path d="M2995.282,6392.935c-18.883,-19.475 -39.397,-36.657 -59.635,-54.606c-21.672,-18.797 -42.183,-39.094 -65.577,-55.778c-33.236,-25.181 -71.036,-43.154 -107.454,-63.103c-6.426,-3.1 -9.777,-10.395 -7.129,-17.171c1.22,-3.565 4.736,-6.543 8.658,-5.826c31.855,20.191 67.311,35.257 99.48,57.372c52.722,36.44 99.782,83.427 131.657,139.111Z" style="fill:#e73c1e;fill-rule:nonzero;"></path><path d="M2854.917,6459.226c4.367,-46.603 20.457,-90.53 33.023,-135.27c8.776,-30.825 17.31,-61.771 24.056,-93.115c5.577,-24.002 10.27,-48.237 13.476,-72.672c1.625,-7.465 0.115,-16.309 5.567,-22.331c10.049,-9.459 19.663,10.258 11.884,17.643c-7.7,63.342 -24.421,125.132 -41.831,186.394c-12.645,40.993 -20.783,84.062 -46.139,119.405c-0.021,0 -0.036,-0.03 -0.035,-0.053Z" style="fill:#e73c1e;fill-rule:nonzero;"></path><path d="M3249.264,6027.511c27.428,-39.584 62.798,-72.219 97.037,-105.713c56.786,-56.823 112.372,-114.842 171.105,-169.701c5.053,-4.012 9.488,-11.455 16.558,-11.077c7.963,1.736 9.522,14.423 3.304,19.043c-4.376,3.106 -8.086,7.075 -12.043,10.693c-51.082,48.093 -100.216,98.088 -149.318,148.177c-39.607,38.936 -77.583,81.699 -126.643,108.578Z" style="fill:#e73c1e;fill-rule:nonzero;"></path><path d="M3448.258,5935.219c-21.094,-9.749 -43.457,-16.455 -64.86,-25.457c-48.834,-21.001 -129.375,-54.919 -182.033,-41.788c-9.223,21.899 -32.116,-13.456 -1.04,-21.2c40.275,-8.851 81.407,4.855 119.84,16.163c46.514,15.587 94.536,35.404 128.093,72.282Z" style="fill:#e73c1e;fill-rule:nonzero;"></path><path d="M2111.978,4548.508c-25.278,-27.92 85.532,-131.36 106.642,-154.101c40.328,-39.557 81.619,-79.273 130.81,-107.715c0.065,-0.033 0.081,0.065 0.049,0.081c-15.967,16.618 -31.038,34.082 -46.76,50.929c-47.965,50.382 -100.892,96.029 -145.443,149.657c-9.32,11.249 -17.149,21.587 -24.704,33.815c-5.955,8.931 -8.215,19.865 -15.801,27.676c-0.552,2.182 -3.723,0.866 -4.793,-0.342Z" style="fill:#e73c1e;fill-rule:nonzero;"></path><path d="M2352.565,4504.863c-13.194,-10.476 -21.381,-26.104 -32.063,-38.982c-14.29,-19.173 -28.548,-38.379 -43.001,-57.438c-26.778,-34.956 -55.189,-68.758 -87.099,-99.173c-16.966,-14.738 -33.331,-31.233 -53.802,-41.045c-9.865,-3.568 -6.57,-23.269 4.818,-19.955c24.411,11.452 44.167,30.962 63.769,49.09c16.758,16.271 32.83,33.272 47.754,51.253c29.91,35.213 57.02,72.628 84.652,109.618c8.088,12.112 19.36,22.398 25.13,35.889c1.765,4.71 3.049,9.711 3.288,14.698c-4.786,0.163 -9.41,-1.382 -13.445,-3.954Z" style="fill:#e73c1e;fill-rule:nonzero;"></path><path d="M2454.347,3769.618c-9.467,0.375 -13.722,-12.511 -7.52,-18.912c4.199,-4.519 9.882,-7.001 15.69,-8.757c14.812,-4.916 29.869,-8.936 45.133,-12.207c44.866,-10.342 90.483,-17.183 136.312,-21.533c58.185,-6.185 116.704,-5.278 175.114,-4.053c24.017,0.594 48.565,1.229 72.298,1.905c-23.096,3.906 -46.338,6.836 -69.613,9.407c-61.585,7.444 -123.66,8.383 -185.38,14.234c-58.834,7.061 -118.304,15.115 -174.611,34.227c-1.178,2.927 -4.029,5.883 -7.424,5.69Z" style="fill:#e73c1e;fill-rule:nonzero;"></path><path d="M2832.888,3858.93c-36.82,-28.666 -69.398,-62.506 -101.154,-96.6c-27.322,-27.388 -82.31,-98.128 -124.187,-86.441c-5.29,0.586 -8.887,-3.809 -9.473,-8.757c-0.575,-4.809 1.886,-10.925 7.017,-11.844c6.485,-0.799 12.976,-2.605 19.562,-1.552c65.839,10.8 165.473,152.183 208.235,205.194Z" style="fill:#e73c1e;fill-rule:nonzero;"></path><path d="M3441.226,3074.185c19.907,-50.907 49.808,-95.295 77.098,-141.913c19.512,-30.127 58.838,-107.567 98.715,-105.922c8.505,0.706 15.325,6.234 19.906,13.134c2.906,4.507 6.65,9.195 5.713,14.908c-1.525,10.108 -11.948,11.624 -16.101,2.172c-27.52,-50.641 -113.446,125 -129.07,145.528c-15.158,26.454 -33.514,51.942 -56.26,72.093Z" style="fill:#e73c1e;fill-rule:nonzero;"></path><path d="M3703.024,3014.432c-73.832,-22.749 -147.311,-46.628 -221.947,-66.635c-29.312,-8.116 -58.575,-16.453 -87.855,-24.636c-13.71,-3.722 -27.404,-7.933 -41.635,-9.144c-4.107,-0.237 -8.548,-0.365 -12.095,2.035c-1.977,1.949 -3.673,4.165 -5.983,5.77c-6.27,3.769 -10.588,-6.23 -9.538,-11.361c1.061,-13.806 17.14,-18.852 29.004,-17.155c24.603,2.51 48.057,11.082 71.826,17.417c95.938,25.05 188.936,61.437 278.223,103.71Z" style="fill:#e73c1e;fill-rule:nonzero;"></path><path d="M3189.948,1900.438c19.629,-35.089 43.753,-67.666 70.085,-97.998c35.184,-37.916 74.525,-71.646 111.166,-108.122c20.94,-20.32 41.675,-40.818 62.223,-61.524c8.262,-6.888 13.367,-17.651 23.535,-21.955c8.052,-2.506 15.154,3.365 14.014,11.8c-3.037,19.407 2.702,39.054 -2.604,58.253c-15.219,-5.765 -14.517,-27.564 -15.081,-41.685c-85.435,89.261 -181.193,169.187 -263.337,261.231Z" style="fill:#e73c1e;fill-rule:nonzero;"></path><path d="M3525.019,1829.702c-58.663,-31.672 -117.735,-62.901 -177.405,-92.61c-38.847,-18.08 -79.635,-34.016 -122.532,-38.456c-8.275,-0.27 -16.945,-1.191 -24.9,1.492c-1.099,0.642 -2.005,1.622 -3.095,2.259c-6.729,4.035 -12.139,-4.182 -11.23,-10.316c2.204,-20.511 39.226,-14.2 53.386,-12.629c71.036,10.94 132.913,50.567 192.643,88.2c31.383,20.011 63.22,40.297 93.132,62.06Z" style="fill:#e73c1e;fill-rule:nonzero;"></path><path d="M2489.001,616.971c41.276,-30.022 78.783,-64.837 118.132,-97.282c54.129,-45.822 108.91,-90.842 165.966,-132.992c16.838,-12.407 34.158,-24.17 51.888,-35.27c12.793,-7.975 25.911,-15.804 39.893,-21.533c5.664,-2.328 11.654,-2.214 17.301,0.098c2.387,0.99 4.368,2.566 6.299,4.134c-1.22,2.702 -3.711,5.111 -5.778,7.112c-5.369,5.73 -12.563,8.422 -19.571,11.496c-35.797,18.257 -68.529,41.951 -100.903,65.605c-92.187,64.412 -178.533,138.483 -273.227,198.632Z" style="fill:#e73c1e;fill-rule:nonzero;"></path><path d="M2859.165,507.487c-81.578,-19.29 -140.426,-40.995 -205.194,-96.254c-18.334,-15.818 -85.458,-72.97 -85.301,-94.369c-0.221,-5.974 5.514,-10.93 11.133,-7.358c4.934,2.973 6.864,8.915 10.545,13.13c6.832,8.486 14.299,16.404 21.877,24.225c38.734,39.175 79.16,75.201 125.928,103.336c34.851,20.541 73.36,33.454 111.328,46.892c26.037,8.745 51.957,18.157 79.053,22.998c-23.142,-1.145 -46.617,-7.28 -69.368,-12.6Z" style="fill:#e73c1e;fill-rule:nonzero;"></path></g></svg>