<svg id="Layer_4" xmlns="http://www.w3.org/2000/svg" viewBox="0 0 270.75 339.23" width="270.75" height="339.23"><defs><style>
      .cls-1 {
        fill: #a9d622;
      }
    </style></defs><path class="cls-1" d="M55.69,13.49c-14.93,8.58-25.18,23.47-30.99,39.39-5.9,16.17-6.74,36.01,2.94,50.95,23.37,36.03,109.34,38.57,110.71-28.38.72-35.07-34.45-89.66-82.66-61.96Z"></path><path class="cls-1" d="M221.42,86.51c-39.22-12.53-56.93,15.04-63.92,55.29-6.61,38.05,8.28,77.04,47.15,79.69,35.42,2.42,62.94-29.68,65.85-62.76,2.82-32.01-18.77-62.54-49.08-72.23Z"></path><path class="cls-1" d="M210.43,10.53c-30.43-21.68-73.27-7.19-95.88,19.07-11.7,13.58-19.04,30.45-19.34,48.52-1.24,75.86,94.44,83.61,132.66,21.98,18.66-30.08,11.52-68.94-17.44-89.57Z"></path><path class="cls-1" d="M.27,181.58c-3.35,32.23,24.53,65.03,55.38,71.36,31.49,6.46,64.65-13.91,67.15-47.19C128.13,135.08,7.56,111.57.27,181.58Z"></path><path d="M228.76,185.4c-12.37-2.17-24.82-2.31-37.2-.16-4.73.82-9.32,2.05-13.88,3.44.66-1,1.32-2,1.96-3.02,13.82-22.02,22.73-47.01,23.88-73.09.14-3.14-4.85-3.86-5.52-.75-5.19,23.93-13.86,47.16-27.13,67.81-6.55,10.19-14.2,19.74-22.68,28.39-3.74,3.81-7.67,7.44-11.75,10.88.16-5.69.25-11.38.22-17.08-.02-3.8-.1-7.62-.23-11.45,1.08-5.64,2.34-11.25,3.81-16.81,3.5-13.23,7.75-25.97,13.53-38.39,11.47-24.62,26.52-47.33,45.15-67.11,2.79-2.96-1.59-7.38-4.47-4.47-14.81,14.92-27.84,31.67-38.5,49.81-.49-3.72-1.21-7.38-2.01-10.83-1.93-8.23-4.58-17.45-10.11-24.01-1.13-1.35-2.8.17-2.61,1.52,1.1,7.97,4.2,15.57,5.57,23.53,1.33,7.69,1.31,15.28,1.98,22.95-.86,1.71-1.71,3.42-2.53,5.15-4.52,9.52-8.72,19.38-12.23,29.39-3.06-22.46-9.15-44.49-20.22-64.25-9.43-16.85-22.9-31-38.91-41.76-2.98-2-6.75,2.75-3.88,5.03,26.36,20.94,40,54.34,46.51,86.55,4.91,24.3,5.14,49.02,4.06,73.72-.27-.11-.55-.22-.82-.33-3.28-1.42-6.51-2.97-9.67-4.64-3.61-1.91-7.15-4-10.59-6.24-.56-4.22-2.67-8.87-3.6-12.28-1.97-7.24-4.53-14.23-6.64-21.41-.57-1.92-3.23-1.09-2.94.81,1.16,7.46,1.84,14.93,3.16,22.38.2,1.14.35,2.43.49,3.77-12.5-9.58-23.7-21.59-32.22-34.83-1.27-1.97-4.08-.26-3.1,1.81,7.24,15.46,17.18,29.01,30.08,40.23,6.29,5.46,13.1,10.23,20.37,14.3,4.21,2.35,9.59,5.69,14.92,7.4-.64,11.42-1.45,22.82-2.1,34.15-.71,12.38-1.22,24.77-1.17,37.18.02,6.19.18,12.37.53,18.55.18,3.16-.02,6.82.82,9.88.73,2.64,3.03,5.06,5,6.86,2.22,2.03,5.19,1.46,6.87-.89,3.56-4.98,3.34-9.03,2.97-14.88-.39-6.17-.58-12.36-.64-18.55-.1-11.09.28-22.18.75-33.26.54-12.51,1.3-25.02,1.87-37.54,1.72-1.35,3.35-2.84,4.84-4.01,5.06-3.97,9.89-8.2,14.47-12.71,4.22-4.16,8.2-8.55,11.94-13.13,2.97-1.35,5.82-3.25,8.65-4.57,5.37-2.5,11.27-4.08,17.05-5.31,11.53-2.45,23.37-2.76,35.03-1.22,3.68.49,4.56-5.88.88-6.52Z"></path></svg>