<svg width="311" height="219" viewBox="0 0 311 219" fill="none" xmlns="http://www.w3.org/2000/svg">
<path d="M140.161 39.0071L3.47108 83.3205L21.2266 164.32L104.227 184.32L290.227 141.32L297.727 68.3196L264.749 28.0577L140.161 39.0071Z" fill="#C6F9E6"/>
<path d="M27.9543 94.8127C26.2144 94.9875 24.8371 94.6476 23.8224 93.793C22.4722 92.7551 21.6873 91.1433 21.4677 88.9573C21.2436 86.7273 21.6921 84.9915 22.8131 83.7498C23.6375 82.7104 24.9196 82.1032 26.6595 81.9284C28.3995 81.7535 29.7768 82.0934 30.7915 82.9481C32.1317 83.9424 32.9138 85.5546 33.1379 87.7846C33.3576 89.9705 32.9118 91.7061 31.8007 92.9912C30.9764 94.0307 29.6942 94.6378 27.9543 94.8127ZM30.0291 91.3005C30.5435 90.498 30.7319 89.4112 30.5941 88.0402C30.4569 86.6747 30.0536 85.6501 29.3842 84.9666C28.7198 84.2769 27.8838 83.9828 26.8762 84.084C25.8686 84.1853 25.102 84.6377 24.5765 85.4414C24.0511 86.245 23.8572 87.3323 23.995 88.7033C24.1328 90.0744 24.5391 91.1014 25.214 91.7844C25.8888 92.4674 26.7301 92.7583 27.7377 92.657C28.7453 92.5558 29.5091 92.1036 30.0291 91.3005ZM41.1558 91.8593C41.1366 91.889 41.0898 91.9771 41.0155 92.1236C40.9413 92.2701 40.8488 92.4018 40.7382 92.5186C40.4025 92.886 40.0673 93.1477 39.7326 93.3037C39.4034 93.4592 39.0075 93.5601 38.545 93.6066C37.2125 93.7405 36.2669 93.3517 35.7081 92.4401C35.3962 91.9375 35.1885 91.1714 35.085 90.1417L34.5397 84.7155L36.9514 84.4731L37.4967 89.8994C37.5482 90.4115 37.6474 90.7908 37.7946 91.0374C38.0553 91.4728 38.4994 91.659 39.1271 91.5959C39.931 91.5152 40.449 91.135 40.681 90.4554C40.7998 90.0875 40.8301 89.6145 40.772 89.0363L40.2799 84.1386L42.6668 83.8988L43.5714 92.9013L41.2836 93.1312L41.1558 91.8593ZM56.204 90.3471C56.1848 90.3768 56.138 90.4649 56.0638 90.6114C55.9895 90.7579 55.8971 90.8896 55.7864 91.0064C55.4507 91.3738 55.1155 91.6355 54.7808 91.7915C54.4516 91.947 54.0557 92.0479 53.5932 92.0944C52.2607 92.2283 51.3151 91.8395 50.7563 90.9279C50.4444 90.4253 50.2367 89.6592 50.1332 88.6295L49.588 83.2033L51.9996 82.9609L52.5449 88.3872C52.5964 88.8993 52.6957 89.2786 52.8428 89.5252C53.1035 89.9606 53.5477 90.1468 54.1754 90.0837C54.9793 90.003 55.4972 89.6228 55.7293 88.9432C55.848 88.5753 55.8784 88.1023 55.8203 87.5241L55.3281 82.6264L57.715 82.3866L58.6197 91.3891L56.3319 91.619L56.204 90.3471ZM64.4066 83.4744C63.6082 83.5546 63.0944 83.9483 62.8651 84.6555C62.7469 85.0288 62.7158 85.4936 62.7716 86.0497L63.2613 90.9226L60.9157 91.1583L60.0127 82.1724L62.284 81.9441L62.4159 83.2573C62.6723 82.7644 62.9251 82.4025 63.1745 82.1716C63.6225 81.7595 64.2182 81.5162 64.9615 81.4415C65.892 81.3479 66.6765 81.5166 67.3149 81.9475C67.9582 82.3722 68.3366 83.149 68.4501 84.2778L69.0593 90.34L66.6476 90.5823L66.0973 85.1065C66.0497 84.633 65.9499 84.2759 65.7978 84.0354C65.5201 83.5961 65.0563 83.4091 64.4066 83.4744ZM81.2869 80.4349C82.0371 80.8156 82.5198 81.5513 82.7351 82.642L80.3812 82.8786C80.3177 82.5791 80.2083 82.3481 80.0529 82.1858C79.7621 81.8924 79.3055 81.777 78.6833 81.8395C78.1713 81.891 77.8131 82.0076 77.6089 82.1894C77.4102 82.3707 77.3217 82.5687 77.3433 82.7834C77.3704 83.0532 77.5056 83.2371 77.7491 83.335C77.9931 83.4384 78.8326 83.5737 80.2676 83.7409C81.2258 83.8671 81.9613 84.1297 82.4741 84.5286C82.982 84.9337 83.27 85.4748 83.3381 86.1521C83.4277 87.0441 83.1679 87.8071 82.5586 88.4412C81.9543 89.0692 80.9584 89.4529 79.5709 89.5924C78.1558 89.7346 77.0798 89.5424 76.3428 89.0158C75.6107 88.4831 75.1982 87.7542 75.1052 86.8292L77.4921 86.5894C77.5837 87.0028 77.721 87.2894 77.9039 87.449C78.2272 87.7335 78.7826 87.8362 79.57 87.7571C80.0325 87.7106 80.3917 87.605 80.6477 87.4402C80.9092 87.2749 81.0261 87.0546 80.9984 86.7793C80.9719 86.515 80.8415 86.3251 80.6075 86.2096C80.3734 86.094 79.5319 85.9394 78.0831 85.7458C77.039 85.5948 76.2887 85.3504 75.832 85.0126C75.3759 84.6802 75.1125 84.1616 75.0416 83.4569C74.9581 82.6254 75.2113 81.8797 75.8013 81.2198C76.3962 80.5538 77.2856 80.1613 78.4694 80.0423C79.5926 79.9295 80.5318 80.0603 81.2869 80.4349ZM88.7843 85.9718L89.9754 79.1447L92.4779 78.8932L90.2787 88.0575C89.8556 89.8241 89.491 90.9286 89.1851 91.3709C88.8797 91.8188 88.2067 92.0949 87.166 92.1995C86.9568 92.2205 86.7886 92.2347 86.6614 92.2419C86.5347 92.2546 86.3439 92.2654 86.089 92.2744L85.8998 90.3913L86.1988 90.3779C86.4311 90.3657 86.6505 90.3353 86.857 90.2868C87.0635 90.2382 87.2333 90.1572 87.3665 90.0437C87.4947 89.9362 87.6017 89.728 87.6875 89.4191C87.7787 89.1096 87.81 88.9229 87.7814 88.859L83.5332 79.7921L86.1514 79.529L88.7843 85.9718ZM100.118 78.5426C100.868 78.9233 101.351 79.659 101.566 80.7497L99.2121 80.9862C99.1487 80.6867 99.0392 80.4558 98.8839 80.2934C98.593 80.0001 98.1365 79.8847 97.5143 79.9472C97.0022 79.9986 96.6441 80.1153 96.4399 80.2971C96.2412 80.4783 96.1526 80.6763 96.1742 80.8911C96.2013 81.1609 96.3366 81.3447 96.58 81.4426C96.824 81.546 97.6635 81.6814 99.0986 81.8486C100.057 81.9748 100.792 82.2374 101.305 82.6363C101.813 83.0413 102.101 83.5825 102.169 84.2597C102.259 85.1517 101.999 85.9148 101.39 86.5488C100.785 87.1769 99.7894 87.5606 98.4018 87.7C96.9867 87.8422 95.9107 87.65 95.1737 87.1234C94.4416 86.5908 94.0291 85.8619 93.9362 84.9369L96.3231 84.697C96.4147 85.1105 96.5519 85.3971 96.7348 85.5566C97.0582 85.8412 97.6136 85.9439 98.4009 85.8647C98.8634 85.8183 99.2227 85.7126 99.4786 85.5479C99.7401 85.3826 99.857 85.1623 99.8294 84.8869C99.8028 84.6227 99.6725 84.4327 99.4384 84.3172C99.2043 84.2017 98.3629 84.0471 96.9141 83.8534C95.87 83.7025 95.1196 83.4581 94.663 83.1203C94.2069 82.7879 93.9434 82.2693 93.8726 81.5645C93.789 80.7331 94.0422 79.9874 94.6322 79.3275C95.2271 78.6615 96.1165 78.269 97.3003 78.15C98.4236 78.0371 99.3627 78.168 100.118 78.5426ZM108.147 84.7185L108.323 86.4777L107.213 86.6311C106.104 86.7814 105.325 86.665 104.875 86.282C104.584 86.0388 104.41 85.6363 104.353 85.0747L103.796 79.5328L102.541 79.659L102.372 77.9823L103.628 77.8562L103.376 75.3454L105.705 75.1113L105.957 77.6221L107.419 77.4752L107.587 79.1519L106.125 79.2988L106.603 84.056C106.641 84.425 106.711 84.6515 106.814 84.7357C106.916 84.8144 107.207 84.8297 107.686 84.7815C107.757 84.7743 107.832 84.7669 107.909 84.7591C107.991 84.7453 108.07 84.7318 108.147 84.7185ZM117.267 82.826C117.26 83.3662 117.036 83.9364 116.596 84.5369C115.913 85.4898 114.878 86.036 113.491 86.1754C112.345 86.2905 111.298 86.0231 110.348 85.3733C109.399 84.7234 108.84 83.5671 108.673 81.9042C108.517 80.346 108.79 79.1116 109.494 78.2011C110.203 77.29 111.188 76.7711 112.449 76.6444C113.198 76.5691 113.887 76.6417 114.515 76.8622C115.144 77.0827 115.684 77.4762 116.135 78.0426C116.541 78.5413 116.832 79.1377 117.008 79.832C117.11 80.2389 117.194 80.831 117.261 81.6085L111.1 82.2277C111.224 83.1274 111.571 83.7321 112.142 84.0418C112.489 84.2349 112.891 84.3085 113.348 84.2626C113.833 84.2139 114.213 84.0367 114.488 83.7309C114.638 83.5657 114.763 83.3445 114.863 83.0675L117.267 82.826ZM114.661 80.3015C114.559 79.6831 114.322 79.2315 113.949 78.9464C113.58 78.6553 113.145 78.5349 112.644 78.5853C112.099 78.64 111.692 78.8533 111.424 79.2252C111.161 79.5964 111.02 80.0777 111.002 80.6691L114.661 80.3015ZM109.46 73.4659L112.078 73.2028L113.912 75.5129L112.211 75.6839L109.46 73.4659ZM123.641 78.2644C123.399 77.8493 122.989 77.6709 122.411 77.729C121.739 77.7965 121.31 78.0593 121.122 78.5176C121.02 78.7781 120.994 79.1533 121.043 79.6434L121.588 85.0614L119.201 85.3013L118.298 76.3153L120.586 76.0854L120.718 77.3986C120.962 76.9012 121.204 76.5404 121.443 76.3162C121.865 75.9179 122.439 75.6822 123.166 75.6092C123.854 75.54 124.425 75.6356 124.88 75.8958C125.249 76.1423 125.544 76.4769 125.765 76.8997C126.02 76.3401 126.364 75.9135 126.796 75.6198C127.255 75.3233 127.783 75.1452 128.377 75.0855C128.774 75.0456 129.172 75.0834 129.573 75.1989C129.974 75.3143 130.351 75.549 130.703 75.9029C130.988 76.1913 131.198 76.5595 131.332 77.0077C131.417 77.305 131.489 77.7455 131.548 78.3291L132.102 84.0048L129.69 84.2472L129.114 78.5153C129.08 78.1739 128.996 77.8987 128.864 77.6895C128.613 77.292 128.206 77.1215 127.645 77.178C126.995 77.2433 126.573 77.5582 126.38 78.1227C126.282 78.4217 126.253 78.7722 126.294 79.1742L126.832 84.5344L124.462 84.7726L123.923 79.4124C123.87 78.8783 123.775 78.4956 123.641 78.2644ZM141.731 80.3676C141.724 80.9078 141.5 81.4781 141.06 82.0785C140.377 83.0314 139.342 83.5776 137.954 83.717C136.809 83.8321 135.762 83.5648 134.812 82.9149C133.862 82.2651 133.304 81.1087 133.137 79.4459C132.98 77.8876 133.254 76.6533 133.958 75.7427C134.667 74.8316 135.652 74.3127 136.913 74.186C137.662 74.1107 138.35 74.1834 138.979 74.4039C139.607 74.6244 140.147 75.0178 140.599 75.5842C141.005 76.0829 141.296 76.6794 141.471 77.3736C141.573 77.7805 141.658 78.3727 141.725 79.1501L135.564 79.7693C135.687 80.669 136.035 81.2737 136.605 81.5834C136.953 81.7765 137.355 81.8501 137.812 81.8042C138.297 81.7555 138.676 81.5783 138.952 81.2726C139.102 81.1073 139.227 80.8861 139.327 80.6091L141.731 80.3676ZM139.124 77.8431C139.023 77.2248 138.786 76.7731 138.412 76.488C138.044 76.1969 137.609 76.0765 137.108 76.1269C136.563 76.1817 136.156 76.395 135.888 76.7668C135.625 77.138 135.484 77.6194 135.465 78.2108L139.124 77.8431ZM154.578 85.3502L154.108 80.6672C153.968 81.0483 153.698 81.4036 153.297 81.7331C152.901 82.0565 152.335 82.2553 151.597 82.3294C150.556 82.434 149.628 82.1074 148.812 81.3495C147.996 80.5917 147.518 79.519 147.379 78.1315C147.228 76.6338 147.474 75.3994 148.116 74.4283C148.764 73.4567 149.627 72.9167 150.707 72.8082C151.456 72.733 152.08 72.8565 152.579 73.179C152.87 73.3611 153.18 73.6776 153.509 74.1284L153.375 72.7904L155.646 72.5621L156.907 85.1161L154.578 85.3502ZM150.223 79.2889C150.607 80.0123 151.218 80.3319 152.055 80.2478C152.864 80.1664 153.405 79.7617 153.677 79.0337C153.851 78.5545 153.903 77.9653 153.833 77.266C153.777 76.7154 153.634 76.232 153.403 75.8159C152.989 75.0677 152.36 74.736 151.518 74.8207C150.923 74.8804 150.467 75.1571 150.15 75.6506C149.838 76.1436 149.729 76.8553 149.822 77.7859C149.885 78.4081 150.018 78.9091 150.223 79.2889ZM164.399 79.4745C164.38 79.5042 164.333 79.5923 164.259 79.7389C164.185 79.8854 164.092 80.017 163.982 80.1338C163.646 80.5012 163.311 80.7629 162.976 80.9189C162.647 81.0744 162.251 81.1753 161.789 81.2218C160.456 81.3557 159.51 80.9669 158.952 80.0553C158.64 79.5527 158.432 78.7866 158.329 77.757L157.783 72.3307L160.195 72.0883L160.74 77.5146C160.792 78.0267 160.891 78.406 161.038 78.6526C161.299 79.0881 161.743 79.2742 162.371 79.2112C163.175 79.1304 163.693 78.7502 163.925 78.0706C164.043 77.7027 164.074 77.2297 164.016 76.6515L163.523 71.7538L165.91 71.514L166.815 80.5165L164.527 80.7464L164.399 79.4745ZM170.61 71.0417L171.514 80.0442L169.128 80.2841L168.223 71.2816L170.61 71.0417ZM170.284 67.7959L170.502 69.968L168.115 70.2079L167.897 68.0357L170.284 67.7959ZM181.5 66.6688L181.692 68.5849C181.558 68.5817 181.334 68.5931 181.02 68.6191C180.71 68.6391 180.503 68.7295 180.396 68.8903C180.295 69.0451 180.253 69.2106 180.271 69.3868L180.347 70.1466L181.892 69.9914L182.059 71.6515L180.514 71.8067L181.244 79.0665L178.898 79.3022L178.169 72.0424L176.855 72.1744L176.689 70.5143L177.977 70.3848L177.919 69.8067C177.822 68.8431 177.918 68.1633 178.206 67.7672C178.493 67.1933 179.289 66.8408 180.594 66.7097C180.743 66.6947 180.878 66.6867 181.001 66.6855C181.122 66.6789 181.289 66.6733 181.5 66.6688ZM183.675 70.7133C184.217 69.8579 185.245 69.3541 186.76 69.2019C187.745 69.1029 188.64 69.2104 189.445 69.5244C190.25 69.8384 190.706 70.5378 190.815 71.6225L191.23 75.7521C191.259 76.0384 191.3 76.3847 191.352 76.7911C191.399 77.0977 191.467 77.3023 191.555 77.4047C191.643 77.507 191.768 77.5863 191.929 77.6423L191.964 77.9892L189.404 78.2465C189.314 78.072 189.247 77.9063 189.204 77.7494C189.16 77.5925 189.12 77.413 189.083 77.2109C188.793 77.596 188.449 77.9337 188.05 78.2241C187.573 78.5668 187.015 78.7702 186.376 78.8344C185.561 78.9163 184.864 78.7528 184.283 78.344C183.707 77.9291 183.377 77.2949 183.291 76.4415C183.18 75.3347 183.526 74.4907 184.33 73.9094C184.77 73.5926 185.439 73.3307 186.336 73.1238L187.127 72.9441C187.557 72.8454 187.861 72.7453 188.04 72.6439C188.361 72.467 188.507 72.2271 188.477 71.9243C188.439 71.5554 188.285 71.3151 188.012 71.2034C187.744 71.0857 187.363 71.0518 186.867 71.1016C186.311 71.1574 185.931 71.3347 185.728 71.6332C185.583 71.8535 185.5 72.1399 185.48 72.4923L183.209 72.7206C183.179 71.9282 183.335 71.2591 183.675 70.7133ZM186.061 76.8638C186.3 77.0234 186.579 77.0871 186.898 77.0551C187.405 77.0042 187.855 76.8087 188.249 76.4688C188.649 76.1283 188.817 75.5635 188.755 74.7745L188.667 73.899C188.527 74.0076 188.384 74.0999 188.236 74.1759C188.092 74.2459 187.891 74.319 187.632 74.3951L187.113 74.5473C186.627 74.6852 186.282 74.8283 186.08 74.9765C185.738 75.2278 185.59 75.5792 185.636 76.0307C185.676 76.4326 185.818 76.7103 186.061 76.8638ZM198.472 77.5772C197.728 77.6519 197.116 77.5633 196.635 77.3113C196.347 77.1622 196.024 76.8832 195.666 76.4743L195.78 77.6058L193.476 77.8374L192.254 65.6798L194.6 65.4441L195.034 69.7719C195.29 69.3236 195.585 68.9713 195.921 68.7151C196.317 68.3972 196.843 68.2053 197.498 68.1395C198.682 68.0205 199.65 68.3543 200.402 69.1408C201.16 69.9267 201.606 70.9942 201.742 72.3432C201.882 73.7417 201.668 74.934 201.1 75.9199C200.532 76.9058 199.656 77.4583 198.472 77.5772ZM199.297 72.8391C199.233 72.2004 199.097 71.6801 198.89 71.2783C198.496 70.5169 197.878 70.1786 197.036 70.2632C196.182 70.349 195.635 70.7961 195.394 71.6046C195.27 72.0341 195.241 72.5765 195.307 73.2317C195.384 74.0026 195.619 74.6242 196.012 75.0964C196.404 75.5687 196.95 75.7697 197.649 75.6994C198.255 75.6385 198.701 75.3462 198.987 74.8224C199.274 74.2986 199.377 73.6375 199.297 72.8391ZM207.738 69.5048C206.791 69.5999 206.186 69.9722 205.923 70.6215C205.777 70.9867 205.739 71.5299 205.812 72.2512L206.244 76.5542L203.874 76.7924L202.969 67.7899L205.216 67.5642L205.373 69.1334C205.677 68.4967 205.952 68.0547 206.2 67.8073C206.603 67.3942 207.157 67.1522 207.862 67.0813C207.906 67.0769 207.942 67.0761 207.97 67.0788C208.003 67.0755 208.072 67.0713 208.177 67.0663L208.42 69.478C208.269 69.4764 208.136 69.4787 208.02 69.4848C207.904 69.4909 207.81 69.4976 207.738 69.5048ZM212.005 66.8819L212.909 75.8844L210.523 76.1243L209.618 67.1218L212.005 66.8819ZM211.679 63.6361L211.897 65.8082L209.51 66.0481L209.292 63.8759L211.679 63.6361ZM221.362 78.639L220.891 73.9561C220.752 74.3372 220.482 74.6925 220.081 75.022C219.685 75.3454 219.118 75.5442 218.38 75.6183C217.34 75.7229 216.412 75.3962 215.596 74.6384C214.78 73.8806 214.302 72.8079 214.163 71.4203C214.012 69.9227 214.258 68.6883 214.9 67.7172C215.548 66.7456 216.411 66.2055 217.49 66.0971C218.239 66.0218 218.863 66.1454 219.363 66.4679C219.654 66.65 219.964 66.9664 220.293 67.4173L220.158 66.0793L222.43 65.851L223.691 78.405L221.362 78.639ZM217.007 72.5778C217.391 73.3011 218.002 73.6208 218.839 73.5367C219.648 73.4553 220.189 73.0506 220.46 72.3225C220.635 71.8434 220.687 71.2542 220.616 70.5549C220.561 70.0043 220.418 69.5209 220.187 69.1047C219.773 68.3566 219.144 68.0249 218.302 68.1095C217.707 68.1693 217.251 68.4459 216.933 68.9395C216.622 69.4324 216.512 70.1442 216.606 71.0747C216.668 71.6969 216.802 72.1979 217.007 72.5778ZM231.183 72.7634C231.164 72.7931 231.117 72.8812 231.043 73.0277C230.969 73.1742 230.876 73.3059 230.766 73.4227C230.43 73.7901 230.095 74.0518 229.76 74.2078C229.431 74.3633 229.035 74.4642 228.572 74.5107C227.24 74.6446 226.294 74.2558 225.735 73.3442C225.423 72.8416 225.216 72.0755 225.112 71.0458L224.567 65.6195L226.979 65.3772L227.524 70.8035C227.575 71.3155 227.675 71.6949 227.822 71.9415C228.083 72.3769 228.527 72.5631 229.154 72.5C229.958 72.4192 230.476 72.0391 230.708 71.3595C230.827 70.9916 230.857 70.5186 230.799 69.9404L230.307 65.0427L232.694 64.8029L233.599 73.8054L231.311 74.0353L231.183 72.7634ZM243.318 70.159C243.312 70.6992 243.088 71.2695 242.648 71.8699C241.965 72.8228 240.93 73.369 239.542 73.5084C238.397 73.6235 237.349 73.3561 236.4 72.7063C235.45 72.0565 234.892 70.9001 234.725 69.2373C234.568 67.679 234.842 66.4446 235.546 65.5341C236.255 64.623 237.24 64.1041 238.501 63.9774C239.25 63.9021 239.938 63.9748 240.567 64.1953C241.195 64.4158 241.735 64.8092 242.187 65.3756C242.593 65.8743 242.884 66.4707 243.059 67.165C243.161 67.5719 243.246 68.1641 243.313 68.9415L237.152 69.5607C237.275 70.4604 237.623 71.0651 238.193 71.3748C238.541 71.5679 238.943 71.6415 239.4 71.5956C239.885 71.5469 240.264 71.3697 240.54 71.0639C240.69 70.8987 240.815 70.6775 240.915 70.4005L243.318 70.159ZM240.712 67.6345C240.611 67.0162 240.374 66.5645 240 66.2794C239.632 65.9883 239.197 65.8679 238.696 65.9183C238.151 65.9731 237.744 66.1864 237.476 66.5582C237.213 66.9294 237.072 67.4108 237.053 68.0022L240.712 67.6345ZM256.735 63.3631C257.539 64.0664 258.017 65.1697 258.168 66.6728C258.328 68.2586 258.091 69.5032 257.459 70.4065C256.832 71.3093 255.957 71.8172 254.834 71.93C254.118 72.002 253.506 71.8828 252.996 71.5725C252.717 71.4003 252.435 71.1366 252.149 70.7816L252.621 75.4728L250.291 75.7069L249.031 63.1612L251.285 62.9346L251.419 64.2643C251.633 63.8479 251.872 63.5125 252.136 63.258C252.618 62.8034 253.22 62.5399 253.942 62.4675C254.993 62.3618 255.924 62.6603 256.735 63.3631ZM255.752 67.0325C255.682 66.3387 255.461 65.7408 255.088 65.2388C254.72 64.7363 254.181 64.5207 253.471 64.5921C252.618 64.6778 252.072 65.1414 251.834 65.9829C251.712 66.429 251.684 66.9824 251.75 67.6432C251.855 68.6893 252.207 69.3964 252.806 69.7645C253.161 69.9791 253.565 70.0637 254.016 70.0183C254.671 69.9525 255.144 69.6491 255.435 69.1083C255.731 68.5669 255.836 67.8749 255.752 67.0325ZM259.168 58.9389L261.522 58.7024L262.745 70.8764L260.392 71.1129L259.168 58.9389ZM270.695 68.7928C270.676 68.8225 270.629 68.9107 270.555 69.0572C270.481 69.2037 270.388 69.3353 270.277 69.4521C269.942 69.8195 269.607 70.0813 269.272 70.2372C268.943 70.3927 268.547 70.4936 268.084 70.5401C266.752 70.674 265.806 70.2852 265.247 69.3736C264.935 68.871 264.728 68.1049 264.624 67.0753L264.079 61.649L266.491 61.4066L267.036 66.8329C267.087 67.345 267.187 67.7243 267.334 67.9709C267.594 68.4064 268.039 68.5925 268.666 68.5295C269.47 68.4487 269.988 68.0685 270.22 67.3889C270.339 67.021 270.369 66.548 270.311 65.9698L269.819 61.0721L272.206 60.8323L273.111 69.8348L270.823 70.0647L270.695 68.7928ZM280.73 60.3929C281.48 60.7735 281.963 61.5092 282.178 62.6L279.824 62.8365C279.76 62.537 279.651 62.306 279.496 62.1437C279.205 61.8503 278.748 61.7349 278.126 61.7974C277.614 61.8489 277.256 61.9655 277.052 62.1473C276.853 62.3286 276.764 62.5266 276.786 62.7413C276.813 63.0111 276.948 63.195 277.192 63.2929C277.436 63.3963 278.275 63.5316 279.71 63.6988C280.669 63.825 281.404 64.0876 281.917 64.4866C282.425 64.8916 282.713 65.4327 282.781 66.11C282.87 67.002 282.611 67.765 282.001 68.3991C281.397 69.0271 280.401 69.4108 279.014 69.5503C277.599 69.6925 276.523 69.5003 275.786 68.9737C275.053 68.441 274.641 67.7122 274.548 66.7871L276.935 66.5473C277.027 66.9608 277.164 67.2473 277.347 67.4069C277.67 67.6914 278.225 67.7941 279.013 67.715C279.475 67.6685 279.835 67.5629 280.09 67.3981C280.352 67.2328 280.469 67.0125 280.441 66.7372C280.415 66.4729 280.284 66.283 280.05 66.1675C279.816 66.052 278.975 65.8974 277.526 65.7037C276.482 65.5528 275.731 65.3084 275.275 64.9705C274.819 64.6381 274.555 64.1196 274.484 63.4148C274.401 62.5834 274.654 61.8377 275.244 61.1777C275.839 60.5117 276.728 60.1192 277.912 60.0003C279.035 59.8874 279.975 60.0182 280.73 60.3929ZM26.0893 104.397L26.2818 106.313C26.148 106.31 25.9239 106.321 25.6095 106.347C25.3001 106.367 25.0922 106.458 24.986 106.618C24.8848 106.773 24.843 106.939 24.8607 107.115L24.9371 107.875L26.4816 107.719L26.6484 109.38L25.1039 109.535L25.8335 116.795L23.4879 117.03L22.7583 109.77L21.4451 109.902L21.2783 108.242L22.5667 108.113L22.5086 107.535C22.4118 106.571 22.5075 105.891 22.7959 105.495C23.083 104.921 23.8791 104.569 25.184 104.438C25.3327 104.423 25.4682 104.415 25.5904 104.414C25.7121 104.407 25.8784 104.401 26.0893 104.397ZM28.2643 108.441C28.8068 107.586 29.8352 107.082 31.3494 106.93C32.335 106.831 33.2301 106.938 34.0347 107.252C34.8394 107.566 35.2962 108.266 35.4052 109.351L35.8202 113.48C35.8489 113.766 35.8893 114.113 35.9413 114.519C35.9888 114.826 36.0566 115.03 36.1448 115.133C36.2329 115.235 36.3577 115.314 36.519 115.37L36.5539 115.717L33.9935 115.975C33.9037 115.8 33.837 115.634 33.7934 115.477C33.7498 115.321 33.7096 115.141 33.6726 114.939C33.3831 115.324 33.0389 115.662 32.6398 115.952C32.1625 116.295 31.6046 116.498 30.9659 116.562C30.151 116.644 29.4532 116.481 28.8726 116.072C28.297 115.657 27.9663 115.023 27.8806 114.17C27.7694 113.063 28.1156 112.219 28.9192 111.637C29.3601 111.321 30.029 111.059 30.9259 110.852L31.7171 110.672C32.1465 110.573 32.4507 110.473 32.6296 110.372C32.9511 110.195 33.0967 109.955 33.0662 109.652C33.0291 109.283 32.8743 109.043 32.6017 108.931C32.334 108.814 31.9524 108.78 31.4569 108.83C30.9007 108.885 30.5209 109.063 30.3173 109.361C30.1726 109.582 30.0901 109.868 30.0699 110.22L27.7986 110.449C27.7691 109.656 27.9243 108.987 28.2643 108.441ZM30.651 114.592C30.8895 114.751 31.1685 114.815 31.4878 114.783C31.9944 114.732 32.4447 114.537 32.8388 114.197C33.2384 113.856 33.4069 113.292 33.3443 112.503L33.2563 111.627C33.1171 111.736 32.9734 111.828 32.8253 111.904C32.6822 111.974 32.481 112.047 32.2216 112.123L31.703 112.275C31.2163 112.413 30.872 112.556 30.6699 112.705C30.3281 112.956 30.1799 113.307 30.2253 113.759C30.2657 114.161 30.4076 114.438 30.651 114.592ZM45.3562 109.001L42.9445 109.244C42.8667 108.912 42.7234 108.621 42.5146 108.369C42.2138 108.032 41.7853 107.892 41.2292 107.948C40.4363 108.027 39.9335 108.476 39.7208 109.292C39.6087 109.726 39.5875 110.29 39.6572 110.984C39.7236 111.645 39.8541 112.168 40.0486 112.555C40.4047 113.275 40.9709 113.597 41.7473 113.519C42.2979 113.463 42.6739 113.275 42.8753 112.955C43.0766 112.634 43.1783 112.235 43.1803 111.756L45.5837 111.515C45.6006 112.236 45.4098 112.939 45.0115 113.624C44.3772 114.728 43.3359 115.353 41.8878 115.498C40.4397 115.644 39.3311 115.321 38.562 114.531C37.793 113.741 37.3395 112.66 37.2018 111.289C37.0463 109.742 37.3026 108.501 37.9706 107.566C38.6386 106.631 39.6361 106.097 40.9631 105.964C42.0918 105.85 43.0396 106.011 43.8063 106.446C44.5785 106.88 45.0951 107.732 45.3562 109.001ZM49.0787 105.365L49.9833 114.368L47.5964 114.608L46.6917 105.605L49.0787 105.365ZM48.7525 102.119L48.9708 104.292L46.5839 104.531L46.3656 102.359L48.7525 102.119ZM51.0973 101.959L53.4512 101.722L54.6745 113.896L52.3207 114.133L51.0973 101.959ZM64.4191 110.247C64.4122 110.788 64.1886 111.358 63.7484 111.958C63.0655 112.911 62.0303 113.457 60.6428 113.597C59.4975 113.712 58.45 113.445 57.5004 112.795C56.5508 112.145 55.9925 110.989 55.8254 109.326C55.6688 107.768 55.9424 106.533 56.6462 105.623C57.3555 104.711 58.3407 104.193 59.6016 104.066C60.3504 103.991 61.039 104.063 61.6674 104.284C62.2958 104.504 62.8359 104.898 63.2877 105.464C63.6937 105.963 63.9845 106.559 64.1599 107.253C64.262 107.66 64.3465 108.253 64.4135 109.03L58.2522 109.649C58.376 110.549 58.7232 111.154 59.2938 111.463C59.6413 111.656 60.0436 111.73 60.5006 111.684C60.9851 111.635 61.365 111.458 61.6402 111.152C61.7904 110.987 61.9156 110.766 62.0157 110.489L64.4191 110.247ZM61.8128 107.723C61.7117 107.105 61.4744 106.653 61.101 106.368C60.7324 106.077 60.2977 105.956 59.7966 106.007C59.2515 106.062 58.8447 106.275 58.5761 106.647C58.3131 107.018 58.1724 107.499 58.154 108.091L61.8128 107.723ZM70.7933 105.686C70.5513 105.271 70.1413 105.092 69.5631 105.15C68.8914 105.218 68.4618 105.481 68.2742 105.939C68.1725 106.2 68.1462 106.575 68.1955 107.065L68.7399 112.483L66.353 112.723L65.45 103.737L67.7378 103.507L67.8698 104.82C68.1146 104.323 68.3564 103.962 68.5953 103.738C69.0169 103.339 69.5911 103.104 70.3179 103.031C71.0061 102.962 71.5775 103.057 72.0319 103.317C72.4015 103.564 72.6965 103.898 72.917 104.321C73.1722 103.762 73.5159 103.335 73.948 103.041C74.4076 102.745 74.9348 102.567 75.5294 102.507C75.9259 102.467 76.3245 102.505 76.7255 102.62C77.1264 102.736 77.5031 102.97 77.8557 103.324C78.1405 103.613 78.35 103.981 78.484 104.429C78.5695 104.726 78.6415 105.167 78.7002 105.751L79.2539 111.426L76.8422 111.669L76.2662 105.937C76.2319 105.595 76.1486 105.32 76.0163 105.111C75.7651 104.714 75.3586 104.543 74.797 104.599C74.1473 104.665 73.7256 104.98 73.5321 105.544C73.4342 105.843 73.4055 106.194 73.4459 106.596L73.9845 111.956L71.6141 112.194L71.0755 106.834C71.0218 106.3 70.9277 105.917 70.7933 105.686ZM88.8828 107.789C88.8759 108.329 88.6523 108.9 88.2121 109.5C87.5292 110.453 86.494 110.999 85.1065 111.139C83.9612 111.254 82.9137 110.986 81.9641 110.336C81.0145 109.687 80.4562 108.53 80.2891 106.867C80.1325 105.309 80.4061 104.075 81.1099 103.164C81.8192 102.253 82.8044 101.734 84.0653 101.607C84.8141 101.532 85.5027 101.605 86.1311 101.825C86.7595 102.046 87.2996 102.439 87.7514 103.006C88.1574 103.504 88.4482 104.101 88.6236 104.795C88.7257 105.202 88.8102 105.794 88.8772 106.572L82.7159 107.191C82.8397 108.09 83.1869 108.695 83.7575 109.005C84.105 109.198 84.5073 109.272 84.9643 109.226C85.4488 109.177 85.8287 109 86.1039 108.694C86.2541 108.529 86.3793 108.308 86.4794 108.031L88.8828 107.789ZM86.2765 105.265C86.1754 104.646 85.9381 104.195 85.5647 103.91C85.1962 103.618 84.7614 103.498 84.2603 103.548C83.7152 103.603 83.3084 103.816 83.0398 104.188C82.7768 104.56 82.6361 105.041 82.6177 105.632L86.2765 105.265ZM94.3654 102.575C93.567 102.655 93.0532 103.049 92.8239 103.756C92.7057 104.129 92.6746 104.594 92.7305 105.15L93.2201 110.023L90.8745 110.259L89.9715 101.273L92.2428 101.044L92.3748 102.358C92.6311 101.865 92.884 101.503 93.1333 101.272C93.5813 100.86 94.177 100.616 94.9203 100.542C95.8509 100.448 96.6353 100.617 97.2737 101.048C97.9171 101.472 98.2955 102.249 98.4089 103.378L99.0181 109.44L96.6064 109.683L96.0561 104.207C96.0086 103.733 95.9087 103.376 95.7566 103.136C95.4789 102.696 95.0152 102.509 94.3654 102.575ZM105.151 107.13L105.328 108.89L104.217 109.043C103.109 109.193 102.33 109.077 101.88 108.694C101.588 108.451 101.414 108.048 101.358 107.487L100.801 101.945L99.5456 102.071L99.3771 100.394L100.633 100.268L100.38 97.7572L102.709 97.5232L102.962 100.034L104.423 99.887L104.592 101.564L103.13 101.711L103.608 106.468C103.645 106.837 103.715 107.063 103.818 107.148C103.921 107.226 104.211 107.241 104.691 107.193C104.762 107.186 104.836 107.179 104.914 107.171C104.996 107.157 105.075 107.144 105.151 107.13ZM118.51 95.2011L119.732 107.359L117.444 107.589L117.319 106.341C117.037 106.909 116.693 107.336 116.288 107.621C115.883 107.907 115.361 108.082 114.722 108.146C113.671 108.251 112.741 107.917 111.935 107.141C111.133 106.36 110.666 105.303 110.532 103.97C110.377 102.434 110.608 101.19 111.225 100.238C111.846 99.2857 112.749 98.7501 113.933 98.6311C114.478 98.5763 114.975 98.6488 115.423 98.8484C115.871 99.0426 116.248 99.3384 116.555 99.7358L116.124 95.441L118.51 95.2011ZM112.943 103.553C113.026 104.384 113.258 105.031 113.638 105.493C114.013 105.962 114.534 106.162 115.2 106.095C115.867 106.029 116.348 105.73 116.645 105.199C116.942 104.669 117.051 104.01 116.972 103.223C116.862 102.122 116.504 101.362 115.901 100.944C115.531 100.692 115.12 100.589 114.668 100.635C113.98 100.704 113.5 101.016 113.227 101.572C112.96 102.122 112.865 102.782 112.943 103.553ZM129.32 103.726C129.313 104.266 129.089 104.836 128.649 105.436C127.966 106.389 126.931 106.936 125.543 107.075C124.398 107.19 123.351 106.923 122.401 106.273C121.451 105.623 120.893 104.467 120.726 102.804C120.569 101.246 120.843 100.011 121.547 99.1007C122.256 98.1896 123.241 97.6707 124.502 97.544C125.251 97.4687 125.94 97.5413 126.568 97.7618C127.196 97.9823 127.737 98.3758 128.188 98.9422C128.594 99.4409 128.885 100.037 129.061 100.732C129.163 101.138 129.247 101.731 129.314 102.508L123.153 103.127C123.277 104.027 123.624 104.632 124.194 104.941C124.542 105.134 124.944 105.208 125.401 105.162C125.886 105.113 126.266 104.936 126.541 104.631C126.691 104.465 126.816 104.244 126.916 103.967L129.32 103.726ZM126.713 101.201C126.612 100.583 126.375 100.131 126.002 99.846C125.633 99.5549 125.198 99.4345 124.697 99.4849C124.152 99.5396 123.745 99.7529 123.477 100.125C123.214 100.496 123.073 100.977 123.055 101.569L126.713 101.201ZM136.634 96.9838C137.385 97.3645 137.867 98.1002 138.083 99.1909L135.729 99.4275C135.665 99.128 135.556 98.897 135.401 98.7347C135.11 98.4413 134.653 98.3259 134.031 98.3884C133.519 98.4399 133.161 98.5565 132.956 98.7383C132.758 98.9196 132.669 99.1176 132.691 99.3323C132.718 99.6021 132.853 99.786 133.097 99.8839C133.341 99.9873 134.18 100.123 135.615 100.29C136.573 100.416 137.309 100.679 137.822 101.078C138.33 101.483 138.618 102.024 138.686 102.701C138.775 103.593 138.515 104.356 137.906 104.99C137.302 105.618 136.306 106.002 134.918 106.141C133.503 106.283 132.427 106.091 131.69 105.565C130.958 105.032 130.546 104.303 130.453 103.378L132.84 103.138C132.931 103.552 133.069 103.838 133.251 103.998C133.575 104.282 134.13 104.385 134.918 104.306C135.38 104.26 135.739 104.154 135.995 103.989C136.257 103.824 136.374 103.603 136.346 103.328C136.319 103.064 136.189 102.874 135.955 102.758C135.721 102.643 134.879 102.488 133.431 102.295C132.387 102.144 131.636 101.899 131.18 101.561C130.723 101.229 130.46 100.711 130.389 100.006C130.306 99.1743 130.559 98.4286 131.149 97.7687C131.744 97.1027 132.633 96.7102 133.817 96.5912C134.94 96.4784 135.879 96.6092 136.634 96.9838ZM149.817 97.7448C149.575 97.3297 149.165 97.1512 148.587 97.2093C147.915 97.2768 147.486 97.5397 147.298 97.9979C147.196 98.2584 147.17 98.6337 147.219 99.1237L147.764 104.542L145.377 104.782L144.474 95.7956L146.762 95.5657L146.894 96.8789C147.138 96.3816 147.38 96.0208 147.619 95.7966C148.041 95.3983 148.615 95.1626 149.342 95.0895C150.03 95.0204 150.601 95.1159 151.056 95.3761C151.425 95.6226 151.72 95.9573 151.941 96.3801C152.196 95.8205 152.54 95.3939 152.972 95.1002C153.431 94.8037 153.959 94.6256 154.553 94.5658C154.95 94.526 155.348 94.5638 155.749 94.6792C156.15 94.7947 156.527 95.0293 156.88 95.3832C157.164 95.6716 157.374 96.0399 157.508 96.4881C157.593 96.7854 157.665 97.2258 157.724 97.8095L158.278 103.485L155.866 103.728L155.29 97.9957C155.256 97.6543 155.172 97.379 155.04 97.1698C154.789 96.7724 154.382 96.6019 153.821 96.6583C153.171 96.7236 152.749 97.0385 152.556 97.603C152.458 97.9021 152.429 98.2526 152.47 98.6545L153.008 104.015L150.638 104.253L150.099 98.8927C150.046 98.3586 149.952 97.976 149.817 97.7448ZM159.998 95.2033C160.541 94.3479 161.569 93.8441 163.083 93.692C164.069 93.5929 164.964 93.7004 165.769 94.0144C166.573 94.3284 167.03 95.0278 167.139 96.1125L167.554 100.242C167.583 100.528 167.623 100.875 167.675 101.281C167.723 101.588 167.791 101.792 167.879 101.895C167.967 101.997 168.092 102.076 168.253 102.132L168.288 102.479L165.728 102.737C165.638 102.562 165.571 102.396 165.527 102.239C165.484 102.083 165.444 101.903 165.407 101.701C165.117 102.086 164.773 102.424 164.374 102.714C163.897 103.057 163.339 103.26 162.7 103.324C161.885 103.406 161.187 103.243 160.607 102.834C160.031 102.419 159.7 101.785 159.615 100.932C159.503 99.8248 159.85 98.9808 160.653 98.3994C161.094 98.0826 161.763 97.8207 162.66 97.6138L163.451 97.4342C163.881 97.3354 164.185 97.2353 164.364 97.1339C164.685 96.957 164.831 96.7171 164.8 96.4143C164.763 96.0454 164.608 95.8051 164.336 95.6935C164.068 95.5758 163.686 95.5418 163.191 95.5916C162.635 95.6475 162.255 95.8247 162.051 96.1233C161.907 96.3436 161.824 96.6299 161.804 96.9824L159.533 97.2106C159.503 96.4183 159.658 95.7492 159.998 95.2033ZM162.385 101.354C162.624 101.513 162.902 101.577 163.222 101.545C163.728 101.494 164.179 101.299 164.573 100.959C164.972 100.618 165.141 100.054 165.078 99.2646L164.99 98.3891C164.851 98.4976 164.707 98.5899 164.559 98.666C164.416 98.736 164.215 98.809 163.956 98.8852L163.437 99.0374C162.95 99.1753 162.606 99.3183 162.404 99.4666C162.062 99.7178 161.914 100.069 161.959 100.521C162 100.923 162.142 101.2 162.385 101.354ZM169.089 93.3471L171.443 93.1105L172.44 103.038C172.532 103.947 172.42 104.636 172.106 105.107C171.792 105.578 171.112 105.866 170.065 105.971C169.994 105.979 169.886 105.987 169.742 105.996C169.604 106.004 169.43 106.016 169.22 106.031L169.031 104.148C169.164 104.146 169.259 104.142 169.314 104.136C169.369 104.136 169.419 104.134 169.463 104.13C169.694 104.107 169.862 104.031 169.966 103.904C170.076 103.782 170.115 103.558 170.082 103.233L169.089 93.3471ZM168.758 90.0599L171.112 89.8234L171.331 91.9956L168.977 92.2321L168.758 90.0599ZM181.307 93.2288C182.163 94.105 182.656 95.1929 182.786 96.4923C182.919 97.8138 182.653 98.9835 181.988 100.001C181.322 101.014 180.215 101.598 178.668 101.753C177.121 101.909 175.92 101.557 175.066 100.697C174.212 99.8317 173.718 98.7384 173.586 97.4169C173.455 96.1174 173.722 94.9533 174.386 93.9243C175.05 92.8954 176.156 92.3032 177.703 92.1477C179.25 91.9923 180.452 92.3526 181.307 93.2288ZM177.895 94.139C177.206 94.2082 176.7 94.5066 176.375 95.0343C176.054 95.5559 175.94 96.2682 176.03 97.1712C176.121 98.0742 176.375 98.7522 176.794 99.2052C177.217 99.6576 177.773 99.8492 178.462 99.7801C179.15 99.7109 179.654 99.4128 179.973 98.8856C180.293 98.3585 180.408 97.6435 180.317 96.7405C180.226 95.8375 179.972 95.1622 179.554 94.7148C179.136 94.2618 178.583 94.0699 177.895 94.139ZM188.77 93.5217C187.823 93.6169 187.218 93.9891 186.955 94.6385C186.808 95.0036 186.771 95.5468 186.843 96.2681L187.276 100.571L184.905 100.809L184.001 91.8069L186.247 91.5811L186.405 93.1504C186.708 92.5137 186.983 92.0717 187.231 91.8243C187.634 91.4111 188.189 91.1691 188.893 91.0983C188.937 91.0939 188.973 91.093 189.002 91.0958C189.035 91.0925 189.104 91.0883 189.209 91.0833L189.451 93.495C189.301 93.4934 189.168 93.4957 189.051 93.5018C188.935 93.5079 188.841 93.5145 188.77 93.5217ZM193.036 90.8989L193.941 99.9014L191.554 100.141L190.649 91.1387L193.036 90.8989ZM192.71 87.653L192.928 89.8252L190.541 90.0651L190.323 87.8929L192.71 87.653ZM200.182 97.5807L200.358 99.3399L199.247 99.4933C198.139 99.6436 197.36 99.5272 196.91 99.1442C196.618 98.901 196.445 98.4985 196.388 97.9369L195.831 92.395L194.576 92.5211L194.407 90.8445L195.663 90.7184L195.41 88.2076L197.739 87.9735L197.992 90.4843L199.454 90.3374L199.622 92.014L198.16 92.1609L198.638 96.9182C198.675 97.2871 198.745 97.5137 198.848 97.5979C198.951 97.6766 199.242 97.6919 199.721 97.6437C199.792 97.6365 199.867 97.6291 199.944 97.6213C200.026 97.6075 200.105 97.594 200.182 97.5807ZM209.302 95.6882C209.295 96.2283 209.071 96.7986 208.631 97.399C207.948 98.352 206.913 98.8982 205.525 99.0376C204.38 99.1527 203.333 98.8853 202.383 98.2355C201.433 97.5856 200.875 96.4293 200.708 94.7664C200.551 93.2082 200.825 91.9738 201.529 91.0633C202.238 90.1522 203.223 89.6333 204.484 89.5065C205.233 89.4313 205.922 89.5039 206.55 89.7244C207.178 89.9449 207.718 90.3384 208.17 90.9048C208.576 91.4034 208.867 91.9999 209.043 92.6942C209.145 93.1011 209.229 93.6932 209.296 94.4707L203.135 95.0899C203.259 95.9895 203.606 96.5942 204.176 96.904C204.524 97.0971 204.926 97.1707 205.383 97.1248C205.868 97.0761 206.248 96.8988 206.523 96.5931C206.673 96.4278 206.798 96.2067 206.898 95.9297L209.302 95.6882ZM206.695 93.1636C206.594 92.5453 206.357 92.0936 205.984 91.8086C205.615 91.5175 205.18 91.3971 204.679 91.4475C204.134 91.5022 203.727 91.7155 203.459 92.0873C203.196 92.4586 203.055 92.9399 203.037 93.5313L206.695 93.1636ZM203.156 88.6556L204.493 86.0268L207.12 85.7628L204.857 88.4847L203.156 88.6556ZM216.616 88.9464C217.367 89.3271 217.849 90.0628 218.065 91.1535L215.711 91.3901C215.647 91.0905 215.538 90.8596 215.382 90.6972C215.092 90.4039 214.635 90.2885 214.013 90.351C213.501 90.4025 213.143 90.5191 212.938 90.7009C212.74 90.8822 212.651 91.0802 212.673 91.2949C212.7 91.5647 212.835 91.7485 213.079 91.8464C213.323 91.9498 214.162 92.0852 215.597 92.2524C216.555 92.3786 217.291 92.6412 217.804 93.0401C218.312 93.4452 218.599 93.9863 218.668 94.6636C218.757 95.5555 218.497 96.3186 217.888 96.9527C217.284 97.5807 216.288 97.9644 214.9 98.1038C213.485 98.246 212.409 98.0538 211.672 97.5272C210.94 96.9946 210.528 96.2657 210.435 95.3407L212.822 95.1008C212.913 95.5143 213.05 95.8009 213.233 95.9605C213.557 96.245 214.112 96.3477 214.899 96.2686C215.362 96.2221 215.721 96.1165 215.977 95.9517C216.239 95.7864 216.356 95.5661 216.328 95.2908C216.301 95.0265 216.171 94.8366 215.937 94.721C215.703 94.6055 214.861 94.4509 213.413 94.2573C212.369 94.1063 211.618 93.8619 211.162 93.5241C210.705 93.1917 210.442 92.6731 210.371 91.9683C210.288 91.1369 210.541 90.3912 211.131 89.7313C211.726 89.0653 212.615 88.6728 213.799 88.5538C214.922 88.4409 215.861 88.5718 216.616 88.9464ZM230.74 87.5272C231.49 87.9079 231.972 88.6436 232.188 89.7343L229.834 89.9708C229.77 89.6713 229.661 89.4404 229.506 89.278C229.215 88.9846 228.758 88.8692 228.136 88.9318C227.624 88.9832 227.266 89.0998 227.062 89.2817C226.863 89.4629 226.774 89.6609 226.796 89.8757C226.823 90.1455 226.958 90.3293 227.202 90.4272C227.446 90.5306 228.285 90.6659 229.72 90.8332C230.678 90.9594 231.414 91.2219 231.927 91.6209C232.435 92.0259 232.723 92.5671 232.791 93.2443C232.88 94.1363 232.621 94.8993 232.011 95.5334C231.407 96.1614 230.411 96.5452 229.024 96.6846C227.609 96.8268 226.532 96.6346 225.795 96.108C225.063 95.5753 224.651 94.8465 224.558 93.9215L226.945 93.6816C227.036 94.0951 227.174 94.3816 227.357 94.5412C227.68 94.8257 228.235 94.9284 229.023 94.8493C229.485 94.8028 229.844 94.6972 230.1 94.5325C230.362 94.3671 230.479 94.1468 230.451 93.8715C230.425 93.6072 230.294 93.4173 230.06 93.3018C229.826 93.1863 228.985 93.0317 227.536 92.838C226.492 92.6871 225.741 92.4427 225.285 92.1048C224.829 91.7725 224.565 91.2539 224.494 90.5491C224.411 89.7177 224.664 88.972 225.254 88.312C225.849 87.646 226.738 87.2535 227.922 87.1346C229.045 87.0217 229.984 87.1526 230.74 87.5272ZM238.768 93.7031L238.945 95.4623L237.834 95.6157C236.726 95.766 235.947 95.6496 235.497 95.2666C235.205 95.0233 235.031 94.6209 234.975 94.0593L234.418 88.5174L233.163 88.6435L232.994 86.9669L234.25 86.8408L233.997 84.33L236.326 84.0959L236.579 86.6067L238.041 86.4598L238.209 88.1364L236.747 88.2833L237.225 93.0406C237.262 93.4095 237.332 93.6361 237.435 93.7203C237.538 93.799 237.829 93.8142 238.308 93.7661C238.379 93.7589 238.454 93.7514 238.531 93.7437C238.613 93.7299 238.692 93.7164 238.768 93.7031ZM239.98 87.1659C240.523 86.3105 241.551 85.8067 243.065 85.6545C244.051 85.5555 244.946 85.663 245.751 85.977C246.555 86.291 247.012 86.9904 247.121 88.0751L247.536 92.2047C247.565 92.491 247.605 92.8373 247.657 93.2437C247.705 93.5504 247.773 93.7549 247.861 93.8573C247.949 93.9597 248.074 94.0389 248.235 94.095L248.27 94.4419L245.709 94.6992C245.62 94.5246 245.553 94.3589 245.509 94.202C245.466 94.0451 245.425 93.8656 245.388 93.6636C245.099 94.0486 244.755 94.3863 244.356 94.6767C243.878 95.0194 243.32 95.2229 242.682 95.2871C241.867 95.3689 241.169 95.2055 240.589 94.7966C240.013 94.3817 239.682 93.7475 239.596 92.8941C239.485 91.7874 239.831 90.9433 240.635 90.362C241.076 90.0452 241.745 89.7833 242.642 89.5764L243.433 89.3968C243.862 89.298 244.167 89.1979 244.346 89.0965C244.667 88.9196 244.813 88.6797 244.782 88.3769C244.745 88.008 244.59 87.7677 244.318 87.6561C244.05 87.5383 243.668 87.5044 243.173 87.5542C242.617 87.6101 242.237 87.7873 242.033 88.0858C241.888 88.3062 241.806 88.5925 241.786 88.945L239.515 89.1732C239.485 88.3808 239.64 87.7117 239.98 87.1659ZM242.367 93.3165C242.605 93.476 242.884 93.5398 243.204 93.5077C243.71 93.4568 244.161 93.2614 244.555 92.9214C244.954 92.5809 245.123 92.0162 245.06 91.2271L244.972 90.3517C244.833 90.4602 244.689 90.5525 244.541 90.6286C244.398 90.6986 244.197 90.7716 243.938 90.8477L243.419 91C242.932 91.1379 242.588 91.2809 242.386 91.4291C242.044 91.6804 241.896 92.0318 241.941 92.4833C241.982 92.8852 242.123 93.163 242.367 93.3165ZM254.777 94.0299C254.034 94.1046 253.422 94.0159 252.94 93.764C252.653 93.6149 252.33 93.3359 251.972 92.9269L252.086 94.0584L249.781 94.29L248.56 82.1325L250.905 81.8967L251.34 86.2246C251.595 85.7762 251.891 85.4239 252.227 85.1677C252.623 84.8498 253.149 84.6579 253.804 84.5921C254.988 84.4731 255.956 84.8069 256.708 85.5934C257.465 86.3793 257.912 87.4468 258.047 88.7958C258.188 90.1944 257.974 91.3866 257.406 92.3725C256.837 93.3585 255.961 93.9109 254.777 94.0299ZM255.603 89.2918C255.538 88.653 255.403 88.1328 255.196 87.7309C254.802 86.9695 254.184 86.6312 253.342 86.7159C252.488 86.8016 251.941 87.2487 251.699 88.0572C251.576 88.4867 251.547 89.0291 251.613 89.6844C251.69 90.4552 251.925 91.0768 252.317 91.549C252.71 92.0213 253.255 92.2223 253.955 92.152C254.56 92.0912 255.006 91.7988 255.293 91.275C255.58 90.7512 255.683 90.0901 255.603 89.2918ZM259.031 81.0635L261.384 80.827L262.608 93.001L260.254 93.2376L259.031 81.0635ZM272.352 89.3522C272.345 89.8924 272.122 90.4627 271.682 91.0631C270.999 92.016 269.964 92.5622 268.576 92.7016C267.431 92.8167 266.383 92.5493 265.434 91.8995C264.484 91.2496 263.926 90.0933 263.759 88.4305C263.602 86.8722 263.876 85.6378 264.579 84.7273C265.289 83.8162 266.274 83.2973 267.535 83.1706C268.284 83.0953 268.972 83.1679 269.601 83.3884C270.229 83.6089 270.769 84.0024 271.221 84.5688C271.627 85.0675 271.918 85.6639 272.093 86.3582C272.195 86.7651 272.28 87.3572 272.347 88.1347L266.185 88.7539C266.309 89.6536 266.656 90.2583 267.227 90.568C267.575 90.7611 267.977 90.8347 268.434 90.7888C268.918 90.7401 269.298 90.5629 269.573 90.2571C269.724 90.0919 269.849 89.8707 269.949 89.5937L272.352 89.3522ZM269.746 86.8277C269.645 86.2093 269.408 85.7577 269.034 85.4726C268.666 85.1815 268.231 85.0611 267.73 85.1115C267.185 85.1663 266.778 85.3795 266.509 85.7514C266.246 86.1226 266.106 86.6039 266.087 87.1953L269.746 86.8277ZM279.667 82.6105C280.417 82.9911 280.9 83.7268 281.115 84.8175L278.761 85.0541C278.698 84.7546 278.588 84.5236 278.433 84.3613C278.142 84.0679 277.686 83.9525 277.063 84.015C276.551 84.0665 276.193 84.1831 275.989 84.3649C275.79 84.5462 275.702 84.7442 275.723 84.9589C275.75 85.2287 275.886 85.4126 276.129 85.5105C276.373 85.6139 277.213 85.7492 278.648 85.9164C279.606 86.0426 280.341 86.3052 280.854 86.7042C281.362 87.1092 281.65 87.6503 281.718 88.3276C281.808 89.2196 281.548 89.9826 280.939 90.6167C280.334 91.2447 279.339 91.6284 277.951 91.7679C276.536 91.9101 275.46 91.7179 274.723 91.1913C273.991 90.6586 273.578 89.9298 273.485 89.0047L275.872 88.7649C275.964 89.1783 276.101 89.4649 276.284 89.6245C276.607 89.909 277.163 90.0117 277.95 89.9326C278.413 89.8861 278.772 89.7805 279.028 89.6157C279.289 89.4504 279.406 89.2301 279.379 88.9548C279.352 88.6905 279.222 88.5006 278.988 88.3851C278.753 88.2695 277.912 88.1149 276.463 87.9213C275.419 87.7704 274.669 87.526 274.212 87.1881C273.756 86.8557 273.493 86.3372 273.422 85.6324C273.338 84.8009 273.591 84.0553 274.181 83.3953C274.776 82.7293 275.666 82.3368 276.849 82.2178C277.973 82.105 278.912 82.2358 279.667 82.6105ZM286.099 91.4913C286.041 91.9088 285.892 92.2797 285.652 92.6041C285.392 92.9528 285.072 93.2269 284.692 93.4264C284.317 93.6309 284.056 93.7406 283.907 93.7555L283.816 92.847C284.276 92.6673 284.601 92.4122 284.79 92.0817C284.985 91.7507 285.071 91.3055 285.048 90.746L283.619 90.8896L283.372 88.4284L285.916 88.1727L286.13 90.3036C286.167 90.678 286.157 91.0739 286.099 91.4913ZM46.1754 130.271C45.9335 129.855 45.5234 129.677 44.9453 129.735C44.2735 129.803 43.8439 130.065 43.6563 130.524C43.5546 130.784 43.5284 131.159 43.5776 131.65L44.1221 137.068L41.7352 137.307L40.8322 128.321L43.1199 128.092L43.2519 129.405C43.4967 128.907 43.7385 128.547 43.9774 128.322C44.399 127.924 44.9732 127.688 45.7 127.615C46.3883 127.546 46.9596 127.642 47.414 127.902C47.7836 128.148 48.0786 128.483 48.2991 128.906C48.5543 128.346 48.898 127.92 49.3301 127.626C49.7897 127.329 50.3169 127.151 50.9116 127.092C51.308 127.052 51.7067 127.09 52.1076 127.205C52.5085 127.32 52.8853 127.555 53.2379 127.909C53.5227 128.197 53.7321 128.566 53.8661 129.014C53.9516 129.311 54.0237 129.752 54.0823 130.335L54.636 136.011L52.2243 136.253L51.6483 130.521C51.614 130.18 51.5307 129.905 51.3985 129.696C51.1472 129.298 50.7407 129.128 50.1791 129.184C49.5294 129.249 49.1078 129.564 48.9142 130.129C48.8163 130.428 48.7876 130.778 48.828 131.18L49.3666 136.541L46.9963 136.779L46.4576 131.419C46.4039 130.884 46.3099 130.502 46.1754 130.271ZM56.3566 127.729C56.8991 126.874 57.9274 126.37 59.4416 126.218C60.4272 126.119 61.3223 126.226 62.127 126.54C62.9316 126.854 63.3884 127.554 63.4974 128.638L63.9124 132.768C63.9412 133.054 63.9816 133.401 64.0335 133.807C64.081 134.114 64.1489 134.318 64.237 134.42C64.3252 134.523 64.4499 134.602 64.6113 134.658L64.6461 135.005L62.0858 135.262C61.9959 135.088 61.9292 134.922 61.8857 134.765C61.8421 134.608 61.8018 134.429 61.7648 134.227C61.4754 134.612 61.1311 134.95 60.732 135.24C60.2548 135.583 59.6968 135.786 59.0581 135.85C58.2432 135.932 57.5455 135.769 56.9649 135.36C56.3893 134.945 56.0586 134.311 55.9728 133.457C55.8616 132.351 56.2078 131.507 57.0115 130.925C57.4524 130.608 58.1213 130.347 59.0182 130.14L59.8093 129.96C60.2388 129.861 60.543 129.761 60.7219 129.66C61.0434 129.483 61.1889 129.243 61.1585 128.94C61.1214 128.571 60.9666 128.331 60.6939 128.219C60.4263 128.102 60.0447 128.068 59.5491 128.117C58.993 128.173 58.6131 128.351 58.4095 128.649C58.2648 128.869 58.1824 129.156 58.1622 129.508L55.8909 129.736C55.8613 128.944 56.0166 128.275 56.3566 127.729ZM58.7433 133.88C58.9818 134.039 59.2607 134.103 59.5801 134.071C60.0866 134.02 60.537 133.825 60.9311 133.485C61.3307 133.144 61.4992 132.579 61.4366 131.79L61.3486 130.915C61.2093 131.023 61.0656 131.116 60.9176 131.192C60.7744 131.262 60.5732 131.335 60.3139 131.411L59.7953 131.563C59.3086 131.701 58.9642 131.844 58.7622 131.992C58.4204 132.244 58.2721 132.595 58.3175 133.046C58.3579 133.448 58.4998 133.726 58.7433 133.88ZM67.7554 125.599L68.6601 134.602L66.2732 134.842L65.3685 125.839L67.7554 125.599ZM67.4293 122.353L67.6475 124.526L65.2606 124.765L65.0424 122.593L67.4293 122.353ZM76.2874 125.159C77.0375 125.54 77.5202 126.275 77.7355 127.366L75.3817 127.603C75.3182 127.303 75.2088 127.072 75.0534 126.91C74.7625 126.616 74.306 126.501 73.6838 126.564C73.1717 126.615 72.8136 126.732 72.6094 126.913C72.4107 127.095 72.3222 127.293 72.3437 127.507C72.3708 127.777 72.5061 127.961 72.7495 128.059C72.9935 128.162 73.833 128.298 75.2681 128.465C76.2263 128.591 76.9618 128.854 77.4746 129.253C77.9825 129.658 78.2705 130.199 78.3385 130.876C78.4282 131.768 78.1684 132.531 77.5591 133.165C76.9548 133.793 75.9589 134.177 74.5713 134.316C73.1563 134.459 72.0802 134.266 71.3432 133.74C70.6112 133.207 70.1987 132.478 70.1057 131.553L72.4926 131.313C72.5842 131.727 72.7215 132.013 72.9043 132.173C73.2277 132.458 73.7831 132.56 74.5705 132.481C75.033 132.435 75.3922 132.329 75.6482 132.164C75.9097 131.999 76.0266 131.779 75.9989 131.503C75.9723 131.239 75.842 131.049 75.6079 130.934C75.3739 130.818 74.5324 130.663 73.0836 130.47C72.0395 130.319 71.2891 130.074 70.8325 129.737C70.3764 129.404 70.1129 128.886 70.0421 128.181C69.9586 127.349 70.2118 126.604 70.8017 125.944C71.3967 125.278 72.286 124.885 73.4698 124.766C74.5931 124.653 75.5323 124.784 76.2874 125.159ZM91.8042 124.159C92.609 124.862 93.0869 125.965 93.238 127.468C93.3973 129.054 93.1609 130.299 92.5287 131.202C91.9019 132.105 91.0269 132.613 89.9037 132.726C89.1879 132.797 88.5752 132.678 88.0657 132.368C87.787 132.196 87.5047 131.932 87.2187 131.577L87.6902 136.268L85.3611 136.502L84.1004 123.957L86.3551 123.73L86.4887 125.06C86.7027 124.643 86.9416 124.308 87.2052 124.053C87.6879 123.599 88.2899 123.335 89.0112 123.263C90.0628 123.157 90.9938 123.456 91.8042 124.159ZM90.8214 127.828C90.7517 127.134 90.5303 126.536 90.1573 126.034C89.7898 125.532 89.2509 125.316 88.5406 125.388C87.6871 125.473 87.1414 125.937 86.9034 126.778C86.7814 127.225 86.7535 127.778 86.8199 128.439C86.9251 129.485 87.277 130.192 87.8757 130.56C88.231 130.775 88.6344 130.859 89.0859 130.814C89.7411 130.748 90.214 130.445 90.5044 129.904C90.8004 129.362 90.9061 128.67 90.8214 127.828ZM94.9435 123.851C95.486 122.996 96.5144 122.492 98.0285 122.34C99.0141 122.241 99.9093 122.349 100.714 122.663C101.519 122.977 101.975 123.676 102.084 124.761L102.499 128.89C102.528 129.177 102.568 129.523 102.62 129.929C102.668 130.236 102.736 130.441 102.824 130.543C102.912 130.645 103.037 130.724 103.198 130.781L103.233 131.127L100.673 131.385C100.583 131.21 100.516 131.045 100.473 130.888C100.429 130.731 100.389 130.551 100.352 130.349C100.062 130.734 99.718 131.072 99.3189 131.362C98.8417 131.705 98.2837 131.908 97.645 131.973C96.8301 132.055 96.1324 131.891 95.5518 131.482C94.9762 131.067 94.6455 130.433 94.5597 129.58C94.4485 128.473 94.7947 127.629 95.5984 127.048C96.0393 126.731 96.7082 126.469 97.6051 126.262L98.3963 126.082C98.8257 125.984 99.1299 125.884 99.3088 125.782C99.6303 125.605 99.7758 125.365 99.7454 125.062C99.7083 124.694 99.5535 124.453 99.2808 124.342C99.0132 124.224 98.6316 124.19 98.136 124.24C97.5799 124.296 97.2 124.473 96.9964 124.771C96.8517 124.992 96.7693 125.278 96.7491 125.631L94.4778 125.859C94.4482 125.066 94.6035 124.397 94.9435 123.851ZM97.3302 130.002C97.5687 130.162 97.8476 130.225 98.167 130.193C98.6735 130.142 99.1239 129.947 99.518 129.607C99.9176 129.267 100.086 128.702 100.023 127.913L99.9355 127.037C99.7962 127.146 99.6526 127.238 99.5045 127.314C99.3613 127.384 99.1601 127.457 98.9008 127.533L98.3822 127.686C97.8955 127.823 97.5511 127.967 97.3491 128.115C97.0073 128.366 96.8591 128.717 96.9044 129.169C96.9448 129.571 97.0867 129.849 97.3302 130.002ZM108.667 123.682C107.72 123.777 107.115 124.15 106.852 124.799C106.705 125.164 106.668 125.707 106.74 126.429L107.173 130.732L104.802 130.97L103.898 121.967L106.144 121.742L106.302 123.311C106.605 122.674 106.88 122.232 107.128 121.985C107.531 121.572 108.085 121.33 108.79 121.259C108.834 121.254 108.87 121.253 108.898 121.256C108.931 121.253 109.001 121.249 109.106 121.244L109.348 123.655C109.198 123.654 109.065 123.656 108.948 123.662C108.832 123.668 108.738 123.675 108.667 123.682ZM114.407 117.632L114.6 119.549C114.466 119.545 114.242 119.557 113.928 119.583C113.618 119.603 113.41 119.693 113.304 119.854C113.203 120.009 113.161 120.174 113.179 120.35L113.255 121.11L114.8 120.955L114.967 122.615L113.422 122.77L114.152 130.03L111.806 130.266L111.077 123.006L109.763 123.138L109.596 121.478L110.885 121.349L110.827 120.77C110.73 119.807 110.826 119.127 111.114 118.731C111.401 118.157 112.197 117.805 113.502 117.673C113.651 117.658 113.786 117.65 113.909 117.649C114.03 117.643 114.197 117.637 114.407 117.632ZM123.768 121.122C124.624 121.998 125.117 123.086 125.247 124.385C125.38 125.707 125.114 126.876 124.449 127.894C123.783 128.907 122.676 129.491 121.129 129.646C119.582 129.802 118.381 129.449 117.528 128.59C116.673 127.725 116.179 126.631 116.047 125.31C115.916 124.01 116.183 122.846 116.847 121.817C117.511 120.788 118.617 120.196 120.164 120.041C121.711 119.885 122.913 120.246 123.768 121.122ZM120.356 122.032C119.667 122.101 119.161 122.4 118.836 122.927C118.515 123.449 118.401 124.161 118.491 125.064C118.582 125.967 118.837 126.645 119.255 127.098C119.678 127.551 120.234 127.742 120.923 127.673C121.611 127.604 122.115 127.306 122.434 126.779C122.754 126.251 122.869 125.536 122.778 124.633C122.687 123.73 122.433 123.055 122.015 122.608C121.597 122.155 121.044 121.963 120.356 122.032ZM128.906 119.454L129.811 128.457L127.424 128.696L126.52 119.694L128.906 119.454ZM128.58 116.208L128.799 118.38L126.412 118.62L126.193 116.448L128.58 116.208ZM137.438 119.014C138.189 119.395 138.671 120.13 138.887 121.221L136.533 121.457C136.469 121.158 136.36 120.927 136.204 120.765C135.914 120.471 135.457 120.356 134.835 120.418C134.323 120.47 133.965 120.587 133.76 120.768C133.562 120.95 133.473 121.148 133.495 121.362C133.522 121.632 133.657 121.816 133.901 121.914C134.145 122.017 134.984 122.153 136.419 122.32C137.377 122.446 138.113 122.709 138.626 123.108C139.133 123.513 139.421 124.054 139.49 124.731C139.579 125.623 139.319 126.386 138.71 127.02C138.106 127.648 137.11 128.032 135.722 128.171C134.307 128.313 133.231 128.121 132.494 127.595C131.762 127.062 131.35 126.333 131.257 125.408L133.644 125.168C133.735 125.582 133.872 125.868 134.055 126.028C134.379 126.312 134.934 126.415 135.721 126.336C136.184 126.29 136.543 126.184 136.799 126.019C137.061 125.854 137.178 125.634 137.15 125.358C137.123 125.094 136.993 124.904 136.759 124.788C136.525 124.673 135.683 124.518 134.235 124.325C133.19 124.174 132.44 123.929 131.983 123.592C131.527 123.259 131.264 122.741 131.193 122.036C131.11 121.204 131.363 120.459 131.953 119.799C132.548 119.133 133.437 118.74 134.621 118.621C135.744 118.508 136.683 118.639 137.438 119.014ZM153.193 113.827L154.415 125.984L152.127 126.214L152.002 124.967C151.72 125.535 151.376 125.961 150.971 126.247C150.566 126.532 150.044 126.707 149.405 126.771C148.354 126.877 147.425 126.542 146.618 125.767C145.816 124.985 145.349 123.928 145.215 122.596C145.06 121.059 145.291 119.815 145.908 118.864C146.529 117.911 147.432 117.376 148.616 117.257C149.161 117.202 149.658 117.274 150.106 117.474C150.554 117.668 150.931 117.964 151.238 118.361L150.807 114.066L153.193 113.827ZM147.626 122.178C147.709 123.01 147.941 123.656 148.321 124.119C148.696 124.587 149.217 124.788 149.883 124.721C150.55 124.654 151.031 124.355 151.328 123.825C151.625 123.295 151.734 122.636 151.655 121.848C151.545 120.747 151.187 119.988 150.584 119.57C150.214 119.318 149.803 119.215 149.351 119.26C148.663 119.329 148.183 119.642 147.91 120.197C147.643 120.747 147.548 121.407 147.626 122.178ZM164.003 122.351C163.996 122.891 163.772 123.462 163.332 124.062C162.649 125.015 161.614 125.561 160.227 125.701C159.081 125.816 158.034 125.548 157.084 124.898C156.135 124.249 155.576 123.092 155.409 121.429C155.253 119.871 155.526 118.637 156.23 117.726C156.939 116.815 157.924 116.296 159.185 116.169C159.934 116.094 160.623 116.167 161.251 116.387C161.88 116.608 162.42 117.001 162.871 117.568C163.277 118.066 163.568 118.663 163.744 119.357C163.846 119.764 163.93 120.356 163.997 121.134L157.836 121.753C157.96 122.652 158.307 123.257 158.878 123.567C159.225 123.76 159.627 123.834 160.084 123.788C160.569 123.739 160.949 123.562 161.224 123.256C161.374 123.091 161.499 122.87 161.599 122.593L164.003 122.351ZM161.397 119.827C161.295 119.208 161.058 118.757 160.685 118.471C160.316 118.18 159.881 118.06 159.38 118.11C158.835 118.165 158.428 118.378 158.16 118.75C157.897 119.121 157.756 119.603 157.738 120.194L161.397 119.827ZM157.857 115.319L159.194 112.69L161.821 112.426L159.558 115.148L157.857 115.319ZM173.186 118.266L170.775 118.509C170.697 118.177 170.554 117.886 170.345 117.634C170.044 117.297 169.615 117.157 169.059 117.213C168.266 117.292 167.764 117.741 167.551 118.557C167.439 118.991 167.418 119.555 167.487 120.249C167.554 120.91 167.684 121.433 167.879 121.82C168.235 122.54 168.801 122.862 169.577 122.784C170.128 122.728 170.504 122.54 170.705 122.22C170.907 121.899 171.008 121.5 171.01 121.021L173.414 120.78C173.431 121.501 173.24 122.204 172.842 122.889C172.207 123.993 171.166 124.618 169.718 124.763C168.27 124.909 167.161 124.586 166.392 123.796C165.623 123.006 165.17 121.925 165.032 120.554C164.876 119.007 165.133 117.766 165.801 116.831C166.469 115.896 167.466 115.362 168.793 115.229C169.922 115.116 170.87 115.276 171.636 115.711C172.409 116.145 172.925 116.997 173.186 118.266ZM182.111 115.259C182.967 116.135 183.46 117.223 183.59 118.522C183.723 119.844 183.457 121.013 182.792 122.031C182.126 123.044 181.019 123.628 179.472 123.783C177.925 123.939 176.724 123.587 175.87 122.727C175.016 121.862 174.522 120.768 174.389 119.447C174.259 118.147 174.526 116.983 175.19 115.954C175.854 114.925 176.96 114.333 178.507 114.178C180.054 114.022 181.255 114.383 182.111 115.259ZM178.699 116.169C178.01 116.238 177.504 116.537 177.178 117.064C176.858 117.586 176.743 118.298 176.834 119.201C176.925 120.104 177.179 120.782 177.598 121.235C178.021 121.688 178.577 121.879 179.265 121.81C179.954 121.741 180.458 121.443 180.777 120.916C181.097 120.389 181.211 119.673 181.121 118.77C181.03 117.867 180.776 117.192 180.358 116.745C179.94 116.292 179.387 116.1 178.699 116.169ZM189.241 115.151C188.443 115.232 187.929 115.625 187.7 116.332C187.582 116.706 187.551 117.171 187.606 117.727L188.096 122.6L185.751 122.835L184.848 113.849L187.119 113.621L187.251 114.934C187.507 114.441 187.76 114.079 188.009 113.849C188.457 113.436 189.053 113.193 189.796 113.118C190.727 113.025 191.511 113.194 192.15 113.624C192.793 114.049 193.171 114.826 193.285 115.955L193.894 122.017L191.482 122.259L190.932 116.783C190.885 116.31 190.785 115.953 190.633 115.712C190.355 115.273 189.891 115.086 189.241 115.151ZM199.582 114.112C198.784 114.192 198.27 114.586 198.04 115.293C197.922 115.667 197.891 116.131 197.947 116.687L198.437 121.56L196.091 121.796L195.188 112.81L197.459 112.582L197.591 113.895C197.848 113.402 198.1 113.04 198.35 112.809C198.798 112.397 199.394 112.154 200.137 112.079C201.067 111.986 201.852 112.154 202.49 112.585C203.134 113.01 203.512 113.787 203.625 114.916L204.235 120.978L201.823 121.22L201.273 115.744C201.225 115.271 201.125 114.914 200.973 114.673C200.695 114.234 200.232 114.047 199.582 114.112ZM213.855 117.341C213.848 117.882 213.625 118.452 213.185 119.052C212.502 120.005 211.466 120.551 210.079 120.691C208.934 120.806 207.886 120.539 206.937 119.889C205.987 119.239 205.429 118.082 205.262 116.42C205.105 114.861 205.379 113.627 206.082 112.716C206.792 111.805 207.777 111.286 209.038 111.16C209.787 111.085 210.475 111.157 211.104 111.378C211.732 111.598 212.272 111.992 212.724 112.558C213.13 113.057 213.421 113.653 213.596 114.347C213.698 114.754 213.783 115.346 213.85 116.124L207.688 116.743C207.812 117.643 208.159 118.247 208.73 118.557C209.077 118.75 209.48 118.824 209.937 118.778C210.421 118.729 210.801 118.552 211.076 118.246C211.227 118.081 211.352 117.86 211.452 117.583L213.855 117.341ZM211.249 114.817C211.148 114.199 210.911 113.747 210.537 113.462C210.169 113.171 209.734 113.05 209.233 113.101C208.688 113.155 208.281 113.369 208.012 113.741C207.749 114.112 207.609 114.593 207.59 115.185L211.249 114.817ZM223.039 113.257L220.627 113.499C220.549 113.168 220.406 112.876 220.197 112.625C219.896 112.288 219.468 112.147 218.912 112.203C218.119 112.283 217.616 112.731 217.403 113.548C217.291 113.982 217.27 114.545 217.34 115.239C217.406 115.9 217.537 116.424 217.731 116.81C218.087 117.531 218.653 117.852 219.43 117.774C219.98 117.719 220.356 117.531 220.558 117.21C220.759 116.89 220.861 116.49 220.863 116.011L223.266 115.77C223.283 116.491 223.092 117.195 222.694 117.88C222.06 118.984 221.019 119.608 219.57 119.754C218.122 119.899 217.014 119.577 216.245 118.786C215.476 117.996 215.022 116.915 214.884 115.544C214.729 113.997 214.985 112.756 215.653 111.821C216.321 110.887 217.319 110.353 218.646 110.219C219.774 110.106 220.722 110.266 221.489 110.701C222.261 111.135 222.778 111.987 223.039 113.257ZM229.199 116.776L229.376 118.535L228.265 118.688C227.156 118.838 226.377 118.722 225.927 118.339C225.636 118.096 225.462 117.693 225.405 117.132L224.848 111.59L223.593 111.716L223.425 110.039L224.68 109.913L224.428 107.402L226.757 107.168L227.009 109.679L228.471 109.532L228.639 111.209L227.178 111.356L227.656 116.113C227.693 116.482 227.763 116.709 227.866 116.793C227.968 116.871 228.259 116.887 228.738 116.839C228.81 116.831 228.884 116.824 228.961 116.816C229.043 116.802 229.122 116.789 229.199 116.776ZM238.319 114.883C238.312 115.423 238.089 115.993 237.648 116.594C236.965 117.547 235.93 118.093 234.543 118.232C233.397 118.348 232.35 118.08 231.4 117.43C230.451 116.78 229.892 115.624 229.725 113.961C229.569 112.403 229.842 111.169 230.546 110.258C231.255 109.347 232.241 108.828 233.501 108.701C234.25 108.626 234.939 108.699 235.567 108.919C236.196 109.14 236.736 109.533 237.188 110.1C237.594 110.598 237.884 111.195 238.06 111.889C238.162 112.296 238.246 112.888 238.313 113.666L232.152 114.285C232.276 115.184 232.623 115.789 233.194 116.099C233.541 116.292 233.943 116.366 234.4 116.32C234.885 116.271 235.265 116.094 235.54 115.788C235.69 115.623 235.815 115.402 235.916 115.125L238.319 114.883ZM235.713 112.358C235.612 111.74 235.374 111.288 235.001 111.003C234.632 110.712 234.198 110.592 233.696 110.642C233.151 110.697 232.745 110.91 232.476 111.282C232.213 111.653 232.072 112.135 232.054 112.726L235.713 112.358ZM232.173 107.85L233.51 105.222L236.137 104.958L233.874 107.679L232.173 107.85ZM251.973 103.9L253.195 116.058L250.907 116.288L250.782 115.04C250.5 115.608 250.156 116.035 249.751 116.32C249.346 116.606 248.824 116.781 248.185 116.845C247.133 116.951 246.204 116.616 245.398 115.84C244.596 115.059 244.129 114.002 243.995 112.669C243.84 111.133 244.071 109.889 244.688 108.937C245.309 107.985 246.212 107.449 247.396 107.33C247.941 107.275 248.438 107.348 248.886 107.547C249.334 107.742 249.711 108.037 250.018 108.435L249.586 104.14L251.973 103.9ZM246.405 112.252C246.489 113.083 246.721 113.73 247.101 114.192C247.476 114.661 247.997 114.862 248.663 114.795C249.329 114.728 249.811 114.429 250.108 113.899C250.405 113.368 250.514 112.709 250.435 111.922C250.324 110.821 249.967 110.061 249.364 109.644C248.993 109.392 248.583 109.288 248.131 109.334C247.443 109.403 246.963 109.715 246.69 110.271C246.423 110.821 246.328 111.481 246.405 112.252ZM262.783 112.425C262.776 112.965 262.552 113.535 262.112 114.136C261.429 115.088 260.394 115.635 259.006 115.774C257.861 115.889 256.814 115.622 255.864 114.972C254.914 114.322 254.356 113.166 254.189 111.503C254.032 109.945 254.306 108.71 255.01 107.8C255.719 106.889 256.704 106.37 257.965 106.243C258.714 106.168 259.403 106.24 260.031 106.461C260.659 106.681 261.199 107.075 261.651 107.641C262.057 108.14 262.348 108.736 262.524 109.431C262.626 109.838 262.71 110.43 262.777 111.207L256.616 111.826C256.74 112.726 257.087 113.331 257.657 113.64C258.005 113.834 258.407 113.907 258.864 113.861C259.349 113.813 259.729 113.635 260.004 113.33C260.154 113.164 260.279 112.943 260.379 112.666L262.783 112.425ZM260.176 109.9C260.075 109.282 259.838 108.83 259.465 108.545C259.096 108.254 258.661 108.134 258.16 108.184C257.615 108.239 257.208 108.452 256.94 108.824C256.677 109.195 256.536 109.676 256.518 110.268L260.176 109.9ZM270.097 105.683C270.848 106.064 271.33 106.799 271.546 107.89L269.192 108.127C269.128 107.827 269.019 107.596 268.863 107.434C268.573 107.14 268.116 107.025 267.494 107.087C266.982 107.139 266.624 107.256 266.419 107.437C266.221 107.619 266.132 107.817 266.154 108.031C266.181 108.301 266.316 108.485 266.56 108.583C266.804 108.686 267.643 108.822 269.078 108.989C270.036 109.115 270.772 109.378 271.285 109.777C271.793 110.182 272.08 110.723 272.149 111.4C272.238 112.292 271.978 113.055 271.369 113.689C270.765 114.317 269.769 114.701 268.381 114.84C266.966 114.983 265.89 114.79 265.153 114.264C264.421 113.731 264.009 113.002 263.916 112.077L266.303 111.837C266.394 112.251 266.531 112.537 266.714 112.697C267.038 112.981 267.593 113.084 268.38 113.005C268.843 112.959 269.202 112.853 269.458 112.688C269.72 112.523 269.837 112.303 269.809 112.027C269.782 111.763 269.652 111.573 269.418 111.458C269.184 111.342 268.342 111.187 266.894 110.994C265.85 110.843 265.099 110.598 264.642 110.261C264.186 109.928 263.923 109.41 263.852 108.705C263.769 107.873 264.022 107.128 264.612 106.468C265.207 105.802 266.096 105.409 267.28 105.29C268.403 105.177 269.342 105.308 270.097 105.683ZM39.5106 151.533C40.0531 150.677 41.0815 150.174 42.5957 150.021C43.5813 149.922 44.4764 150.03 45.281 150.344C46.0856 150.658 46.5425 151.357 46.6515 152.442L47.0665 156.572C47.0952 156.858 47.1356 157.204 47.1875 157.611C47.2351 157.917 47.3029 158.122 47.391 158.224C47.4792 158.327 47.6039 158.406 47.7653 158.462L47.8002 158.809L45.2398 159.066C45.15 158.892 45.0833 158.726 45.0397 158.569C44.9961 158.412 44.9558 158.232 44.9188 158.03C44.6294 158.415 44.2851 158.753 43.8861 159.044C43.4088 159.386 42.8509 159.59 42.2121 159.654C41.3972 159.736 40.6995 159.572 40.1189 159.163C39.5433 158.749 39.2126 158.114 39.1268 157.261C39.0156 156.154 39.3619 155.31 40.1655 154.729C40.6064 154.412 41.2753 154.15 42.1722 153.943L42.9634 153.764C43.3928 153.665 43.697 153.565 43.8759 153.463C44.1974 153.286 44.3429 153.047 44.3125 152.744C44.2754 152.375 44.1206 152.135 43.848 152.023C43.5803 151.905 43.1987 151.871 42.7031 151.921C42.147 151.977 41.7672 152.154 41.5636 152.453C41.4189 152.673 41.3364 152.959 41.3162 153.312L39.0449 153.54C39.0154 152.748 39.1706 152.079 39.5106 151.533ZM41.8973 157.683C42.1358 157.843 42.4148 157.907 42.7341 157.875C43.2407 157.824 43.691 157.628 44.0851 157.288C44.4847 156.948 44.6532 156.383 44.5906 155.594L44.5026 154.719C44.3633 154.827 44.2197 154.919 44.0716 154.995C43.9285 155.065 43.7272 155.139 43.4679 155.215L42.9493 155.367C42.4626 155.505 42.1182 155.648 41.9162 155.796C41.5744 156.047 41.4262 156.399 41.4715 156.85C41.5119 157.252 41.6539 157.53 41.8973 157.683ZM52.3838 145.976L52.5763 147.892C52.4425 147.889 52.2184 147.9 51.904 147.926C51.5946 147.946 51.3868 148.037 51.2806 148.198C51.1793 148.352 51.1376 148.518 51.1553 148.694L51.2316 149.454L52.7761 149.299L52.9429 150.959L51.3984 151.114L52.128 158.374L49.7824 158.61L49.0528 151.35L47.7396 151.482L47.5728 149.822L48.8612 149.692L48.8031 149.114C48.7063 148.15 48.8021 147.471 49.0904 147.075C49.3776 146.501 50.1736 146.148 51.4786 146.017C51.6272 146.002 51.7627 145.994 51.8849 145.993C52.0066 145.986 52.1729 145.981 52.3838 145.976ZM57.8186 157.802L55.4729 158.038L54.7434 150.778L53.4302 150.91L53.2634 149.25L54.5518 149.12L54.4937 148.542C54.3974 147.584 54.5378 146.85 54.9147 146.339C55.2504 145.86 56.0018 145.562 57.1691 145.445C57.3123 145.431 57.4588 145.422 57.6085 145.418C57.7583 145.414 57.9136 145.409 58.0744 145.404L58.2669 147.32C58.1562 147.326 58.0486 147.334 57.944 147.344C57.8388 147.349 57.7119 147.359 57.5632 147.374C57.1943 147.411 56.9788 147.536 56.9167 147.748C56.8546 147.96 56.8509 148.283 56.9056 148.717L56.9222 148.882L58.4667 148.727L58.6335 150.387L57.089 150.542L57.8186 157.802ZM62.2039 148.31L63.1044 157.271L60.7588 157.507L59.8583 148.545L62.2039 148.31ZM59.7438 147.406L59.528 145.258L61.8323 145.027L62.0481 147.174L59.7438 147.406ZM64.1936 144.864L66.5475 144.628L67.7709 156.802L65.417 157.038L64.1936 144.864ZM71.5905 147.325L72.4951 156.327L70.1082 156.567L69.2036 147.564L71.5905 147.325ZM71.2643 144.079L71.4826 146.251L69.0957 146.491L68.8774 144.319L71.2643 144.079ZM74.3148 148.035C74.8573 147.18 75.8857 146.676 77.3999 146.524C78.3855 146.425 79.2806 146.532 80.0852 146.846C80.8898 147.16 81.3467 147.86 81.4557 148.944L81.8707 153.074C81.8994 153.36 81.9398 153.707 81.9918 154.113C82.0393 154.42 82.1071 154.624 82.1952 154.727C82.2834 154.829 82.4081 154.908 82.5695 154.964L82.6044 155.311L80.044 155.569C79.9542 155.394 79.8875 155.228 79.8439 155.071C79.8003 154.914 79.76 154.735 79.723 154.533C79.4336 154.918 79.0893 155.256 78.6903 155.546C78.213 155.889 77.6551 156.092 77.0163 156.156C76.2014 156.238 75.5037 156.075 74.9231 155.666C74.3475 155.251 74.0168 154.617 73.9311 153.763C73.8198 152.657 74.1661 151.813 74.9697 151.231C75.4106 150.915 76.0795 150.653 76.9764 150.446L77.7676 150.266C78.197 150.167 78.5012 150.067 78.6801 149.966C79.0016 149.789 79.1471 149.549 79.1167 149.246C79.0796 148.877 78.9248 148.637 78.6522 148.525C78.3845 148.408 78.0029 148.374 77.5073 148.424C76.9512 148.479 76.5714 148.657 76.3678 148.955C76.2231 149.176 76.1406 149.462 76.1204 149.814L73.8491 150.043C73.8196 149.25 73.9748 148.581 74.3148 148.035ZM76.7015 154.186C76.94 154.345 77.219 154.409 77.5383 154.377C78.0449 154.326 78.4952 154.131 78.8893 153.791C79.2889 153.45 79.4574 152.886 79.3948 152.097L79.3068 151.221C79.1675 151.33 79.0239 151.422 78.8758 151.498C78.7327 151.568 78.5314 151.641 78.2721 151.717L77.7535 151.869C77.2668 152.007 76.9224 152.15 76.7204 152.299C76.3786 152.55 76.2304 152.901 76.2757 153.353C76.3161 153.755 76.4581 154.032 76.7015 154.186ZM88.1512 153.06L88.328 154.82L87.2172 154.973C86.1088 155.123 85.3296 155.007 84.8795 154.624C84.5881 154.381 84.4142 153.978 84.3578 153.416L83.8009 147.875L82.5455 148.001L82.377 146.324L83.6324 146.198L83.3801 143.687L85.7092 143.453L85.9615 145.964L87.4234 145.817L87.5918 147.494L86.13 147.641L86.608 152.398C86.6451 152.767 86.7151 152.993 86.8182 153.077C86.9206 153.156 87.2114 153.171 87.6904 153.123C87.762 153.116 87.8363 153.109 87.9134 153.101C87.9954 153.087 88.0747 153.074 88.1512 153.06ZM91.3464 145.339L92.2511 154.342L89.8642 154.582L88.9595 145.579L91.3464 145.339ZM91.0203 142.093L91.2385 144.266L88.8516 144.506L88.6333 142.333L91.0203 142.093ZM101.256 145.495C102.112 146.371 102.605 147.459 102.736 148.758C102.868 150.08 102.602 151.249 101.937 152.267C101.271 153.28 100.165 153.864 98.6174 154.019C97.0702 154.175 95.8696 153.822 95.0157 152.963C94.1613 152.098 93.6676 151.004 93.5349 149.683C93.4043 148.383 93.671 147.219 94.3352 146.19C94.9993 145.161 96.105 144.569 97.6522 144.414C99.1994 144.258 100.401 144.619 101.256 145.495ZM97.8439 146.405C97.1557 146.474 96.649 146.773 96.3238 147.3C96.0036 147.822 95.8888 148.534 95.9796 149.437C96.0703 150.34 96.3248 151.018 96.7429 151.471C97.1666 151.924 97.7225 152.115 98.4108 152.046C99.0991 151.977 99.603 151.679 99.9227 151.152C100.242 150.624 100.357 149.909 100.266 149.006C100.175 148.103 99.9212 147.428 99.5036 146.981C99.0854 146.528 98.5322 146.336 97.8439 146.405ZM108.387 145.387C107.588 145.467 107.075 145.861 106.845 146.568C106.727 146.942 106.696 147.406 106.752 147.963L107.242 152.835L104.896 153.071L103.993 144.085L106.264 143.857L106.396 145.17C106.652 144.677 106.905 144.315 107.155 144.084C107.603 143.672 108.198 143.429 108.942 143.354C109.872 143.261 110.657 143.429 111.295 143.86C111.938 144.285 112.317 145.062 112.43 146.191L113.039 152.253L110.628 152.495L110.078 147.019C110.03 146.546 109.93 146.189 109.778 145.948C109.5 145.509 109.037 145.322 108.387 145.387ZM120.559 142.821C121.31 143.202 121.792 143.937 122.008 145.028L119.654 145.264C119.59 144.965 119.481 144.734 119.325 144.572C119.035 144.278 118.578 144.163 117.956 144.225C117.444 144.277 117.086 144.394 116.881 144.575C116.683 144.757 116.594 144.955 116.616 145.169C116.643 145.439 116.778 145.623 117.022 145.721C117.266 145.824 118.105 145.96 119.54 146.127C120.498 146.253 121.234 146.516 121.747 146.915C122.254 147.32 122.542 147.861 122.611 148.538C122.7 149.43 122.44 150.193 121.831 150.827C121.227 151.455 120.231 151.839 118.843 151.978C117.428 152.12 116.352 151.928 115.615 151.402C114.883 150.869 114.471 150.14 114.378 149.215L116.765 148.975C116.856 149.389 116.993 149.675 117.176 149.835C117.5 150.119 118.055 150.222 118.842 150.143C119.305 150.096 119.664 149.991 119.92 149.826C120.182 149.661 120.299 149.44 120.271 149.165C120.244 148.901 120.114 148.711 119.88 148.595C119.646 148.48 118.804 148.325 117.356 148.132C116.311 147.981 115.561 147.736 115.104 147.398C114.648 147.066 114.385 146.548 114.314 145.843C114.231 145.011 114.484 144.266 115.074 143.606C115.669 142.94 116.558 142.547 117.742 142.428C118.865 142.315 119.804 142.446 120.559 142.821ZM136.076 141.821C136.881 142.524 137.359 143.627 137.51 145.13C137.669 146.716 137.433 147.961 136.801 148.864C136.174 149.767 135.299 150.275 134.176 150.387C133.46 150.459 132.847 150.34 132.338 150.03C132.059 149.858 131.777 149.594 131.491 149.239L131.962 153.93L129.633 154.164L128.372 141.619L130.627 141.392L130.761 142.722C130.975 142.305 131.214 141.97 131.477 141.715C131.96 141.261 132.562 140.997 133.283 140.925C134.335 140.819 135.266 141.118 136.076 141.821ZM135.093 145.49C135.024 144.796 134.802 144.198 134.429 143.696C134.062 143.194 133.523 142.978 132.813 143.049C131.959 143.135 131.413 143.599 131.175 144.44C131.053 144.886 131.026 145.44 131.092 146.101C131.197 147.147 131.549 147.854 132.148 148.222C132.503 148.437 132.906 148.521 133.358 148.476C134.013 148.41 134.486 148.107 134.776 147.566C135.072 147.024 135.178 146.332 135.093 145.49ZM146.401 140.958C147.257 141.834 147.75 142.922 147.88 144.222C148.013 145.543 147.747 146.713 147.082 147.731C146.416 148.743 145.309 149.327 143.762 149.483C142.215 149.638 141.014 149.286 140.16 148.426C139.306 147.561 138.812 146.468 138.68 145.146C138.549 143.847 138.816 142.683 139.48 141.654C140.144 140.625 141.25 140.033 142.797 139.877C144.344 139.722 145.545 140.082 146.401 140.958ZM142.989 141.868C142.3 141.938 141.794 142.236 141.468 142.764C141.148 143.285 141.034 143.998 141.124 144.901C141.215 145.804 141.469 146.482 141.888 146.935C142.311 147.387 142.867 147.579 143.556 147.509C144.244 147.44 144.748 147.142 145.067 146.615C145.387 146.088 145.502 145.373 145.411 144.47C145.32 143.567 145.066 142.892 144.648 142.444C144.23 141.991 143.677 141.799 142.989 141.868ZM148.85 136.357L151.204 136.121L152.428 148.295L150.074 148.531L148.85 136.357ZM156.247 138.817L157.152 147.82L154.765 148.06L153.86 139.057L156.247 138.817ZM155.921 135.572L156.139 137.744L153.752 137.984L153.534 135.811L155.921 135.572ZM163.392 145.499L163.569 147.258L162.458 147.412C161.35 147.562 160.571 147.446 160.121 147.063C159.829 146.82 159.655 146.417 159.599 145.855L159.042 140.314L157.787 140.44L157.618 138.763L158.874 138.637L158.621 136.126L160.95 135.892L161.203 138.403L162.665 138.256L162.833 139.933L161.371 140.079L161.849 144.837C161.886 145.206 161.956 145.432 162.059 145.516C162.162 145.595 162.453 145.61 162.932 145.562C163.003 145.555 163.077 145.548 163.155 145.54C163.237 145.526 163.316 145.513 163.392 145.499ZM166.588 137.778L167.492 146.781L165.105 147.021L164.201 138.018L166.588 137.778ZM166.261 134.532L166.48 136.705L164.093 136.944L163.875 134.772L166.261 134.532ZM175.945 149.535L175.474 144.852C175.335 145.234 175.064 145.589 174.664 145.918C174.268 146.242 173.701 146.441 172.963 146.515C171.923 146.619 170.994 146.293 170.178 145.535C169.363 144.777 168.885 143.704 168.746 142.317C168.595 140.819 168.841 139.585 169.483 138.614C170.131 137.642 170.994 137.102 172.073 136.993C172.822 136.918 173.446 137.042 173.946 137.364C174.237 137.546 174.547 137.863 174.876 138.314L174.741 136.976L177.012 136.747L178.274 149.301L175.945 149.535ZM171.59 143.474C171.974 144.198 172.585 144.517 173.422 144.433C174.231 144.352 174.771 143.947 175.043 143.219C175.217 142.74 175.269 142.151 175.199 141.451C175.144 140.901 175.001 140.417 174.77 140.001C174.355 139.253 173.727 138.921 172.884 139.006C172.29 139.066 171.834 139.342 171.516 139.836C171.204 140.329 171.095 141.041 171.189 141.971C171.251 142.593 171.385 143.094 171.59 143.474ZM185.766 143.66C185.747 143.689 185.7 143.778 185.626 143.924C185.551 144.071 185.459 144.202 185.348 144.319C185.013 144.687 184.677 144.948 184.343 145.104C184.013 145.26 183.618 145.361 183.155 145.407C181.823 145.541 180.877 145.152 180.318 144.241C180.006 143.738 179.799 142.972 179.695 141.942L179.15 136.516L181.561 136.274L182.107 141.7C182.158 142.212 182.258 142.591 182.405 142.838C182.665 143.273 183.11 143.46 183.737 143.396C184.541 143.316 185.059 142.935 185.291 142.256C185.41 141.888 185.44 141.415 185.382 140.837L184.89 135.939L187.277 135.699L188.182 144.702L185.894 144.932L185.766 143.66ZM197.901 141.055C197.894 141.596 197.671 142.166 197.231 142.766C196.548 143.719 195.513 144.265 194.125 144.405C192.98 144.52 191.932 144.253 190.983 143.603C190.033 142.953 189.475 141.797 189.308 140.134C189.151 138.575 189.425 137.341 190.128 136.43C190.838 135.519 191.823 135 193.084 134.874C193.833 134.799 194.521 134.871 195.15 135.092C195.778 135.312 196.318 135.706 196.77 136.272C197.176 136.771 197.467 137.367 197.642 138.061C197.744 138.468 197.829 139.06 197.896 139.838L191.734 140.457C191.858 141.357 192.205 141.961 192.776 142.271C193.124 142.464 193.526 142.538 193.983 142.492C194.467 142.443 194.847 142.266 195.122 141.96C195.273 141.795 195.398 141.574 195.498 141.297L197.901 141.055ZM195.295 138.531C195.194 137.913 194.957 137.461 194.583 137.176C194.215 136.885 193.78 136.764 193.279 136.815C192.734 136.869 192.327 137.083 192.058 137.455C191.795 137.826 191.655 138.307 191.636 138.899L195.295 138.531ZM205.216 134.314C205.966 134.694 206.449 135.43 206.664 136.521L204.31 136.757C204.247 136.458 204.137 136.227 203.982 136.064C203.691 135.771 203.235 135.656 202.612 135.718C202.1 135.77 201.742 135.886 201.538 136.068C201.339 136.249 201.251 136.447 201.272 136.662C201.299 136.932 201.435 137.116 201.678 137.214C201.922 137.317 202.762 137.452 204.197 137.62C205.155 137.746 205.89 138.008 206.403 138.407C206.911 138.812 207.199 139.354 207.267 140.031C207.357 140.923 207.097 141.686 206.488 142.32C205.883 142.948 204.888 143.332 203.5 143.471C202.085 143.613 201.009 143.421 200.272 142.894C199.54 142.362 199.127 141.633 199.034 140.708L201.421 140.468C201.513 140.882 201.65 141.168 201.833 141.328C202.156 141.612 202.712 141.715 203.499 141.636C203.962 141.589 204.321 141.484 204.577 141.319C204.838 141.154 204.955 140.933 204.928 140.658C204.901 140.394 204.771 140.204 204.537 140.088C204.302 139.973 203.461 139.818 202.012 139.624C200.968 139.474 200.218 139.229 199.761 138.891C199.305 138.559 199.042 138.04 198.971 137.336C198.887 136.504 199.14 135.758 199.73 135.099C200.325 134.433 201.215 134.04 202.398 133.921C203.522 133.808 204.461 133.939 205.216 134.314ZM217.839 134.822C216.892 134.917 216.287 135.29 216.024 135.939C215.878 136.304 215.84 136.847 215.913 137.569L216.345 141.872L213.975 142.11L213.07 133.107L215.317 132.882L215.474 134.451C215.778 133.814 216.053 133.372 216.301 133.125C216.704 132.712 217.258 132.47 217.963 132.399C218.007 132.394 218.043 132.393 218.071 132.396C218.104 132.393 218.173 132.389 218.278 132.384L218.521 134.795C218.37 134.794 218.237 134.796 218.121 134.802C218.005 134.808 217.911 134.815 217.839 134.822ZM228.031 138.028C228.024 138.568 227.8 139.138 227.36 139.739C226.677 140.691 225.642 141.238 224.254 141.377C223.109 141.492 222.062 141.225 221.112 140.575C220.163 139.925 219.604 138.769 219.437 137.106C219.28 135.548 219.554 134.313 220.258 133.403C220.967 132.492 221.952 131.973 223.213 131.846C223.962 131.771 224.651 131.843 225.279 132.064C225.907 132.284 226.448 132.678 226.899 133.244C227.305 133.743 227.596 134.339 227.772 135.034C227.874 135.441 227.958 136.033 228.025 136.81L221.864 137.429C221.988 138.329 222.335 138.934 222.905 139.243C223.253 139.437 223.655 139.51 224.112 139.464C224.597 139.416 224.977 139.238 225.252 138.933C225.402 138.767 225.527 138.546 225.627 138.269L228.031 138.028ZM225.424 135.503C225.323 134.885 225.086 134.433 224.713 134.148C224.344 133.857 223.909 133.737 223.408 133.787C222.863 133.842 222.456 134.055 222.188 134.427C221.925 134.798 221.784 135.279 221.766 135.871L225.424 135.503ZM221.885 130.995L223.222 128.366L225.849 128.102L223.586 130.824L221.885 130.995ZM237.446 137.082C237.439 137.622 237.216 138.192 236.776 138.792C236.093 139.745 235.057 140.292 233.67 140.431C232.525 140.546 231.477 140.279 230.528 139.629C229.578 138.979 229.02 137.823 228.853 136.16C228.696 134.602 228.97 133.367 229.673 132.457C230.383 131.546 231.368 131.027 232.629 130.9C233.378 130.825 234.066 130.897 234.695 131.118C235.323 131.338 235.863 131.732 236.315 132.298C236.721 132.797 237.012 133.393 237.187 134.088C237.289 134.494 237.374 135.087 237.441 135.864L231.279 136.483C231.403 137.383 231.75 137.988 232.321 138.297C232.668 138.49 233.071 138.564 233.528 138.518C234.012 138.469 234.392 138.292 234.667 137.986C234.818 137.821 234.943 137.6 235.043 137.323L237.446 137.082ZM234.84 134.557C234.739 133.939 234.502 133.487 234.128 133.202C233.76 132.911 233.325 132.79 232.824 132.841C232.279 132.896 231.872 133.109 231.603 133.481C231.34 133.852 231.2 134.333 231.181 134.925L234.84 134.557ZM238.248 127.374L240.602 127.137L241.825 139.311L239.471 139.548L238.248 127.374ZM242.955 126.901L245.309 126.664L246.533 138.838L244.179 139.075L242.955 126.901ZM256.277 135.189C256.27 135.729 256.047 136.3 255.607 136.9C254.924 137.853 253.888 138.399 252.501 138.539C251.356 138.654 250.308 138.386 249.359 137.736C248.409 137.087 247.851 135.93 247.683 134.267C247.527 132.709 247.801 131.475 248.504 130.564C249.214 129.653 250.199 129.134 251.46 129.008C252.209 128.932 252.897 129.005 253.526 129.225C254.154 129.446 254.694 129.839 255.146 130.406C255.552 130.904 255.843 131.501 256.018 132.195C256.12 132.602 256.205 133.194 256.272 133.972L250.11 134.591C250.234 135.491 250.581 136.095 251.152 136.405C251.499 136.598 251.902 136.672 252.359 136.626C252.843 136.577 253.223 136.4 253.498 136.094C253.649 135.929 253.774 135.708 253.874 135.431L256.277 135.189ZM253.671 132.665C253.57 132.046 253.333 131.595 252.959 131.31C252.591 131.018 252.156 130.898 251.655 130.948C251.11 131.003 250.703 131.217 250.434 131.588C250.171 131.96 250.031 132.441 250.012 133.032L253.671 132.665ZM263.592 128.447C264.342 128.828 264.825 129.564 265.04 130.655L262.686 130.891C262.623 130.592 262.513 130.361 262.358 130.198C262.067 129.905 261.611 129.789 260.988 129.852C260.476 129.903 260.118 130.02 259.914 130.202C259.715 130.383 259.627 130.581 259.648 130.796C259.675 131.066 259.811 131.25 260.054 131.347C260.298 131.451 261.138 131.586 262.573 131.753C263.531 131.88 264.266 132.142 264.779 132.541C265.287 132.946 265.575 133.487 265.643 134.165C265.733 135.057 265.473 135.82 264.864 136.454C264.259 137.082 263.263 137.465 261.876 137.605C260.461 137.747 259.385 137.555 258.648 137.028C257.916 136.496 257.503 135.767 257.41 134.842L259.797 134.602C259.889 135.015 260.026 135.302 260.209 135.461C260.532 135.746 261.088 135.849 261.875 135.77C262.338 135.723 262.697 135.617 262.953 135.453C263.214 135.287 263.331 135.067 263.303 134.792C263.277 134.527 263.147 134.338 262.912 134.222C262.678 134.107 261.837 133.952 260.388 133.758C259.344 133.607 258.594 133.363 258.137 133.025C257.681 132.693 257.417 132.174 257.347 131.469C257.263 130.638 257.516 129.892 258.106 129.232C258.701 128.566 259.591 128.174 260.774 128.055C261.898 127.942 262.837 128.073 263.592 128.447ZM274.906 131.448C274.861 131.664 274.858 131.993 274.896 132.434L272.666 132.658C272.606 131.724 272.629 131.074 272.737 130.707C272.844 130.335 273.172 129.887 273.72 129.365L274.276 128.834C274.459 128.665 274.603 128.487 274.706 128.298C274.896 127.973 274.972 127.629 274.936 127.266C274.894 126.847 274.732 126.48 274.45 126.163C274.173 125.841 273.709 125.712 273.059 125.777C272.421 125.842 271.988 126.099 271.761 126.55C271.539 127.001 271.451 127.455 271.497 127.912L269.11 128.152C269.018 126.576 269.454 125.408 270.418 124.65C271.026 124.166 271.803 123.876 272.75 123.781C273.995 123.656 275.057 123.85 275.937 124.362C276.823 124.874 277.324 125.713 277.442 126.88C277.514 127.596 277.395 128.217 277.087 128.743C276.907 129.062 276.543 129.482 275.995 130.004L275.455 130.517C275.16 130.797 274.977 131.108 274.906 131.448ZM275.423 135.935L272.962 136.182L272.722 133.795L275.183 133.548L275.423 135.935Z" fill="#00483B"/>
</svg>
