<svg width="390" height="844" viewBox="0 0 390 844" fill="none" xmlns="http://www.w3.org/2000/svg">
<g opacity="0.25">
<path d="M794.89 -682.409C790.714 -681.573 791.668 -678.948 796.918 -676.443C799.543 -675.25 801.691 -673.937 801.691 -673.46C801.691 -672.983 800.259 -671.551 798.469 -670.119C793.697 -666.301 792.146 -663.676 790.833 -656.16C790.117 -652.341 788.805 -648.046 787.85 -646.614C786.419 -644.228 778.186 -639.098 775.919 -639.098C775.442 -639.098 775.561 -642.796 775.919 -647.45C776.635 -654.847 776.516 -655.802 774.368 -657.233C772.101 -658.665 772.101 -658.665 774.487 -662.125C777.589 -666.421 778.902 -676.085 776.516 -676.085C774.368 -676.085 773.771 -675.13 759.573 -648.643C741.318 -614.4 740.006 -612.729 737.381 -620.127C735.472 -625.735 735.71 -628.837 738.932 -635.757C740.602 -639.217 742.988 -645.063 744.42 -648.643C745.733 -652.222 749.431 -658.904 752.534 -663.318C757.903 -671.193 758.022 -671.551 755.755 -673.221C752.295 -675.727 749.312 -675.25 747.761 -671.909C746.21 -668.33 744.897 -668.091 743.824 -671.193C742.63 -675.13 738.335 -679.664 735.949 -679.664C733.205 -679.664 731.892 -676.92 730.103 -667.494C729.387 -663.796 727.955 -660.097 726.881 -659.142C723.421 -656.398 721.751 -650.552 722.944 -646.137C723.54 -643.99 723.898 -642.081 723.66 -641.842C723.421 -641.603 721.154 -642.677 718.768 -644.467C716.262 -646.137 713.876 -647.45 713.279 -647.45C710.893 -647.45 706.001 -638.978 706.001 -634.922C706.001 -631.462 705.405 -630.388 702.541 -628.837C698.723 -626.928 698.246 -624.661 700.751 -618.695C701.587 -616.428 702.66 -613.207 703.138 -611.298C703.854 -608.315 703.734 -608.076 700.99 -608.792C698.842 -609.269 696.814 -608.673 694.189 -606.764C690.49 -604.139 690.49 -604.139 691.206 -606.644C691.803 -608.315 691.206 -609.866 689.417 -611.536C687.866 -612.968 686.434 -614.042 686.076 -614.042C685.718 -614.042 684.525 -614.638 683.57 -615.235C682.019 -616.189 682.138 -616.547 684.167 -618.098C687.388 -620.365 685.837 -621.559 681.661 -620.008C679.036 -618.934 678.678 -618.456 679.991 -617.621C681.78 -616.547 681.9 -616.547 675.815 -614.638C673.429 -613.922 673.548 -615.235 676.053 -617.025C677.843 -618.337 677.605 -618.695 673.429 -619.888C666.986 -621.678 664.719 -621.678 666.628 -619.769C667.463 -618.934 668.059 -615.593 668.059 -612.133C668.059 -608.792 668.895 -604.019 669.849 -601.753C670.804 -599.366 671.639 -596.861 671.639 -596.145C671.639 -593.758 667.94 -594.952 666.628 -597.934C665.315 -600.798 660.304 -603.304 655.531 -603.304C654.1 -603.304 650.401 -601.991 647.18 -600.321C643.839 -598.531 640.617 -597.577 639.185 -598.054C635.964 -599.008 633.458 -596.503 633.458 -591.849C633.458 -586.6 634.89 -583.02 638.828 -579.202C642.765 -575.265 642.168 -575.026 635.845 -578.248C629.64 -581.35 626.3 -581.35 626.3 -578.248C626.3 -575.384 622.84 -568.345 619.26 -563.93C616.158 -560.112 616.158 -561.067 619.141 -567.748C623.317 -577.174 626.777 -603.304 624.033 -604.974C622.243 -606.167 620.573 -602.946 617.948 -593.401C616.635 -588.27 612.459 -578.248 608.641 -571.208L601.84 -558.322L598.142 -562.379C595.159 -565.481 593.488 -566.316 589.79 -566.316C587.165 -566.316 583.943 -565.481 582.511 -564.527C579.887 -562.737 579.887 -562.737 580.006 -566.913C580.245 -572.64 577.858 -575.026 576.188 -570.612C575.591 -568.822 574.995 -565.481 574.995 -563.214C574.995 -557.845 573.086 -554.385 570.222 -554.385C567.12 -554.385 559.484 -547.584 559.484 -544.721C559.484 -543.527 560.558 -541.976 561.99 -541.26C563.302 -540.425 564.137 -539.113 563.779 -538.278C563.541 -537.442 564.257 -535.772 565.569 -534.579C567.836 -532.551 567.717 -532.431 559.245 -529.926C537.53 -523.602 523.69 -511.432 538.127 -511.432C541.706 -511.432 540.871 -509.881 535.621 -506.898C530.61 -504.035 529.536 -500.932 532.638 -498.307C535.025 -496.279 534.905 -494.728 531.803 -491.507C529.417 -489.001 529.417 -488.643 531.207 -486.615C536.695 -480.649 531.565 -477.07 515.457 -475.519C502.452 -474.325 498.753 -473.371 496.367 -470.388C492.31 -465.496 499.35 -462.871 504.958 -467.286C508.418 -470.03 513.31 -470.388 515.219 -468.002C517.008 -465.854 514.741 -464.064 509.372 -463.468C505.793 -463.11 505.196 -462.633 504.838 -459.769C504.361 -455.713 506.628 -454.639 512.952 -456.309C519.037 -457.86 519.752 -456.667 516.531 -449.985C513.667 -444.139 512.832 -443.662 510.565 -446.406C509.73 -447.361 507.94 -448.196 506.628 -448.196C505.316 -448.196 502.929 -449.27 501.497 -450.701C499.827 -452.252 498.037 -452.968 496.606 -452.491C493.981 -451.656 483.6 -441.395 484.436 -440.44C484.794 -440.202 489.566 -439.009 495.055 -437.935C506.509 -435.787 508.776 -434.833 510.685 -431.373C512.594 -427.793 511.162 -427.316 507.463 -430.179C499.946 -436.026 487.896 -436.026 481.93 -430.179C480.021 -428.27 477.754 -426.719 476.919 -426.719C475.964 -426.719 473.459 -424.93 471.311 -422.663L467.374 -418.606L470.834 -415.504L474.175 -412.402H469.641C464.033 -412.402 463.914 -410.612 469.402 -408.703C474.771 -406.675 474.771 -405.243 469.402 -405.243C464.63 -405.243 464.152 -404.169 467.612 -401.902C470.715 -399.993 469.879 -398.561 463.675 -395.698C460.931 -394.385 457.113 -391.999 455.084 -390.448C449.357 -385.795 451.982 -384.721 468.209 -385.198L482.169 -385.556L475.845 -379.829C472.266 -376.608 467.851 -373.267 466.061 -372.193C462.959 -370.642 462.363 -370.642 460.573 -372.312C457.709 -374.937 455.323 -374.699 452.34 -371.477C448.88 -367.778 448.999 -366.108 453.414 -360.739C457.232 -356.086 456.993 -355.37 452.102 -358.114C446.732 -361.216 444.227 -360.381 441.483 -354.773C437.187 -345.944 437.068 -342.603 440.767 -337.115L443.988 -332.104L440.647 -332.939C438.738 -333.416 436.352 -334.013 435.278 -334.37C432.653 -335.086 429.313 -331.746 430.267 -329.121C431.46 -325.541 435.756 -321.723 438.261 -321.723C439.693 -321.723 442.795 -323.394 445.301 -325.422C447.687 -327.45 449.715 -328.643 449.715 -328.047C449.715 -326.019 438.619 -314.445 429.909 -307.286C425.017 -303.349 421.319 -299.65 421.677 -299.054C422.035 -298.576 419.171 -295.355 415.472 -292.014L408.552 -285.929H415.472C423.228 -285.929 424.182 -284.736 417.978 -282.469C415.234 -281.514 413.921 -280.321 414.398 -279.367C414.995 -277.577 410.938 -271.611 409.029 -271.611C408.313 -271.611 406.404 -273.282 404.734 -275.191C401.155 -279.486 397.098 -280.083 397.575 -276.145C397.695 -274.236 396.979 -273.401 393.996 -272.566C388.985 -271.254 384.57 -265.646 382.184 -257.771C381.11 -254.072 378.724 -249.3 376.695 -247.033L373.116 -242.976H376.695C381.587 -242.976 382.422 -241.186 379.32 -237.249L376.695 -234.028L379.201 -233.67C382.661 -233.073 389.701 -235.459 395.189 -238.919C400.797 -242.618 400.916 -244.527 395.428 -243.931C393.161 -243.692 391.252 -243.811 391.252 -244.289C391.252 -245.72 401.155 -253.476 404.615 -254.788C409.149 -256.459 411.535 -253.834 411.535 -247.152C411.535 -243.215 410.819 -241.186 408.91 -239.397C407.478 -238.084 405.927 -237.01 405.45 -237.01C403.541 -237.01 400.797 -233.073 399.604 -228.778C398.291 -223.647 396.501 -222.693 387.553 -222.693C380.871 -222.693 379.917 -221.858 383.258 -218.994L385.882 -216.727L379.917 -216.966L373.951 -217.324L374.309 -222.216C374.786 -227.943 372.639 -230.329 368.224 -229.255C364.287 -228.181 358.918 -222.693 361.781 -222.693C368.343 -222.693 359.395 -214.222 346.628 -208.256C342.333 -206.228 338.754 -204.319 338.754 -203.961C338.754 -203.603 340.066 -202.29 341.736 -200.978C343.884 -199.307 344.719 -197.518 344.719 -194.415V-190.24L340.663 -192.864C335.413 -195.967 334.339 -194.415 338.157 -188.808L341.021 -184.512H330.64C318.828 -184.512 315.249 -183.2 319.067 -180.217C321.214 -178.547 320.499 -178.427 309.522 -178.547C289.119 -178.905 288.642 -178.905 288.642 -176.16C288.642 -174.132 289.477 -173.774 293.772 -173.774C299.261 -173.774 306.658 -169.718 309.044 -165.303C310.118 -163.275 309.76 -161.962 307.016 -158.144C305.226 -155.639 303.317 -153.491 302.84 -153.491C302.244 -153.491 301.766 -155.996 301.766 -158.979C301.766 -169.121 297.59 -171.627 289.835 -166.377C284.108 -162.439 282.915 -160.053 285.42 -157.309C286.494 -156.116 287.449 -154.803 287.449 -154.445C287.449 -154.087 284.108 -154.087 280.051 -154.326C273.608 -154.803 272.057 -154.565 269.194 -152.298C262.393 -146.929 264.421 -145.974 286.613 -144.542C297.471 -143.826 300.573 -143.111 300.573 -141.679C300.573 -139.889 294.369 -137.98 288.642 -137.98C284.347 -137.98 282.437 -137.384 281.722 -135.952C280.648 -134.162 280.051 -134.52 276.352 -138.338C270.983 -144.184 266.092 -143.946 260.961 -137.503C258.097 -134.043 258.336 -133.446 262.035 -132.969C264.302 -132.73 265.495 -131.776 265.734 -130.225C265.972 -128.912 266.927 -127.242 268.001 -126.407C269.552 -125.214 269.194 -124.736 265.734 -122.947L261.796 -120.799L267.643 -119.725L273.37 -118.532L264.302 -115.072C250.7 -109.822 251.774 -108.868 273.131 -107.555C280.051 -107.197 286.136 -106.362 286.613 -105.765C288.045 -104.572 281.841 -102.663 270.745 -100.993C265.853 -100.277 261.319 -99.2032 260.722 -98.6066C258.217 -96.101 268.836 -86.5559 272.057 -88.4649C273.847 -89.6581 276.71 -86.7945 276.71 -83.8117C276.71 -82.4992 275.875 -78.9198 274.801 -75.937C272.892 -70.5679 273.37 -63.5284 275.637 -62.0966C276.352 -61.7386 278.977 -63.0511 281.602 -65.1987C284.227 -67.3464 286.733 -68.6588 287.091 -68.3009C288.403 -66.9884 283.392 -56.1309 279.693 -52.4322C276.949 -49.688 276.233 -48.2562 277.188 -47.421C279.574 -45.3927 284.466 -44.7961 287.807 -45.9892C292.102 -47.6596 291.983 -45.7506 287.568 -41.2167C285.659 -39.3077 282.795 -37.7566 281.244 -37.7566C279.693 -37.7566 275.517 -35.1317 271.341 -31.6716C263.228 -24.6321 260.722 -21.5299 261.796 -19.8595C263.586 -16.8767 273.131 -19.9789 273.131 -23.5583C273.131 -27.3763 285.778 -34.1772 292.937 -34.1772C296.874 -34.1772 296.517 -32.0295 291.983 -27.3763C288.403 -23.6776 288.284 -23.4389 290.789 -23.4389C294.488 -23.4389 294.011 -21.6492 289.716 -18.5471C287.21 -16.7574 286.256 -15.3256 286.613 -13.6552C286.971 -12.2235 286.375 -10.911 284.943 -9.9565C282.08 -8.16679 281.96 -6.37709 284.824 -7.21228C285.898 -7.45091 289.238 -8.16679 292.221 -8.52473L297.59 -9.35993L292.46 -5.66121C289.358 -3.39425 287.449 -1.00797 287.449 0.543106V2.92938L284.347 0.543106C280.29 -2.67836 277.904 -2.67836 277.904 0.662422V3.16801L274.921 0.423794L271.938 -2.32042V1.61693C271.938 7.10536 275.159 11.6393 286.136 21.6616C291.625 26.5535 295.801 31.4454 296.039 32.9964C296.397 35.502 296.874 35.6213 307.255 35.6213C317.038 35.6213 318.709 35.2634 325.152 31.9226C328.97 29.8943 332.907 28.4625 333.623 28.7011C334.458 29.0591 339.231 25.3604 344.123 20.4685C350.327 14.2642 353.31 10.5655 353.787 7.82124C354.384 5.07703 355.577 3.40664 357.605 2.69075C359.156 2.09418 363.213 -0.888657 366.554 -3.8715C371.326 -8.16679 373.116 -9.1213 375.622 -8.52473C379.678 -7.68954 381.229 -8.88268 383.496 -14.2518C384.689 -17.2346 385.286 -22.0072 385.167 -29.166C385.047 -34.8931 385.405 -40.8587 385.882 -42.5291C387.911 -49.33 393.876 -52.0742 395.308 -47.0631C395.666 -45.512 396.024 -39.3077 396.024 -33.2227C396.024 -27.1377 396.621 -21.0527 397.337 -19.7402C397.933 -18.4278 401.393 -16.1608 404.973 -14.6097C409.029 -12.7007 412.012 -10.5531 413.086 -8.40542L414.756 -5.06464L416.427 -8.04748C417.501 -9.9565 418.097 -15.087 418.097 -22.9617C418.216 -32.3875 418.694 -35.8476 420.364 -38.2338C421.438 -40.0236 422.035 -41.9326 421.677 -42.6485C421.199 -43.245 423.228 -46.3472 426.091 -49.5686C434.324 -58.7558 436.71 -70.9258 433.727 -87.8684C431.222 -101.47 431.222 -101.709 435.278 -103.141C439.335 -104.572 442.199 -108.39 443.272 -113.759C443.869 -116.981 443.272 -118.293 438.619 -123.305C435.756 -126.407 432.415 -130.821 431.222 -133.088C428.239 -139.054 426.926 -156.235 426.926 -191.671C426.926 -225.676 427.642 -230.925 433.608 -241.306C437.665 -248.226 446.255 -255.743 451.982 -257.294C454.727 -258.01 459.499 -258.248 462.721 -257.771C470.834 -256.697 474.175 -257.771 475.964 -261.947C477.993 -266.958 476.442 -272.089 471.072 -278.293C465.584 -284.617 465.465 -283.543 473.817 -302.514C481.691 -320.649 483.958 -330.552 485.271 -352.983C486.464 -373.267 487.18 -375.414 492.907 -375.414C497.679 -375.414 504.122 -378.278 505.673 -381.141C506.389 -382.573 506.628 -385.914 506.27 -389.135C505.554 -393.669 505.912 -394.982 507.94 -397.249C512.355 -402.021 529.656 -430.537 529.656 -433.162C529.656 -434.475 527.985 -438.054 526.076 -441.037C524.167 -444.02 522.497 -447.241 522.497 -448.196C522.497 -449.27 524.644 -452.252 527.389 -454.758C530.252 -457.622 534.189 -463.587 537.053 -469.434C542.303 -480.41 549.342 -488.762 553.399 -488.762C554.831 -488.762 557.575 -487.927 559.603 -486.853C567.12 -483.035 570.58 -487.689 571.893 -503.677C572.37 -508.926 573.324 -514.773 574.04 -516.562C575.233 -519.665 575.83 -519.903 579.648 -519.426C582.034 -519.187 590.625 -515.966 598.857 -512.267C619.26 -503.319 618.425 -503.319 619.26 -512.029C619.737 -515.966 621.169 -521.812 622.601 -524.914C625.822 -532.193 625.703 -533.386 622.243 -541.976C620.692 -545.794 619.618 -549.374 619.857 -549.732C620.095 -550.09 622.72 -550.806 625.822 -551.283C629.402 -551.76 633.936 -553.669 638.47 -556.771C647.299 -562.618 653.861 -564.646 657.56 -562.618C660.662 -560.947 661.974 -559.396 669.133 -547.823C677.843 -533.744 685.599 -526.943 692.877 -526.943C694.666 -526.943 699.32 -528.852 703.138 -531.119C706.956 -533.386 711.37 -535.295 713.041 -535.295C714.592 -535.295 719.484 -533.147 723.898 -530.522C734.159 -524.318 736.903 -524.437 740.483 -531.835C743.108 -537.442 745.852 -540.187 752.653 -543.885L756.232 -545.914L756.113 -557.606C756.113 -568.345 756.352 -570.254 760.289 -580.276C762.675 -586.361 764.942 -593.281 765.419 -595.548C766.255 -600.321 766.97 -600.798 782.839 -606.286C787.85 -607.957 795.844 -611.775 800.617 -614.758C805.39 -617.741 809.923 -619.888 810.639 -619.53C811.474 -619.292 817.44 -614.519 823.883 -608.911C845.598 -590.418 848.104 -582.782 837.843 -566.078C833.309 -558.8 832.951 -553.788 836.769 -553.788C838.32 -553.788 839.513 -555.22 840.706 -558.561C842.735 -564.407 846.911 -568.941 855.024 -574.31C862.421 -578.964 863.615 -582.185 860.632 -588.389C858.007 -593.997 856.336 -594.594 851.445 -591.492C849.178 -590.06 847.03 -588.986 846.553 -588.986C844.763 -588.986 846.076 -592.923 848.82 -595.548C853.473 -600.321 853.234 -602.588 847.865 -603.065C845.479 -603.304 843.689 -603.9 844.047 -604.497C845.36 -606.644 842.138 -610.462 835.218 -615.116C828.417 -619.769 826.031 -622.752 827.463 -624.899C828.656 -626.928 834.025 -625.973 843.212 -622.394C854.07 -617.979 854.07 -617.979 870.893 -628.837L882.943 -636.711L879.125 -641.603C874.353 -647.688 868.984 -650.194 863.853 -648.643C859.439 -647.45 859.439 -647.688 862.541 -652.938C865.046 -656.875 865.046 -656.875 862.66 -658.069C859.081 -659.978 856.814 -659.62 855.979 -656.995C855.263 -654.608 855.263 -654.608 852.041 -656.995C850.251 -658.427 846.911 -660.693 844.644 -662.125C842.138 -663.676 839.99 -666.421 839.155 -668.688C837.246 -674.772 835.934 -675.369 831.877 -672.028C829.61 -670.119 826.866 -665.705 824.957 -660.932C821.258 -651.506 817.082 -645.66 813.622 -644.705C809.923 -643.751 809.685 -645.541 812.548 -652.222C813.98 -655.563 814.815 -658.665 814.338 -659.023C813.98 -659.5 811.117 -658.665 808.253 -657.233C805.27 -655.802 802.526 -654.608 802.287 -654.608C802.049 -654.608 803.123 -656.637 804.793 -659.023C806.821 -662.125 807.537 -664.392 807.06 -666.659C806.463 -669.284 806.821 -670 809.088 -670.596C810.639 -670.954 812.906 -671.312 814.338 -671.312C817.56 -671.312 821.139 -675.25 820.542 -678.113C820.304 -679.306 818.395 -680.857 816.008 -681.693C811.952 -683.005 800.259 -683.482 794.89 -682.409ZM295.801 -160.65C298.664 -155.042 298.664 -154.684 296.517 -154.684C294.965 -154.684 292.221 -160.411 292.221 -163.752C292.221 -166.496 293.295 -165.661 295.801 -160.65Z" fill="#8F8F8F"/>
<path d="M15.6519 20.9458C14.3394 24.4059 12.669 30.2523 11.7145 33.8317C10.0441 41.2292 8.13512 44.0927 4.31708 45.0472C0.976298 45.8824 -2.4838 51.6095 -2.4838 56.2627C-2.4838 62.467 -0.57478 65.6885 3.48189 66.4044L7.18061 67.2396L4.31708 71.0576C0.856985 75.5915 -4.75076 86.6877 -6.06321 91.3409C-6.77909 93.4886 -6.42115 95.2783 -5.22801 96.9487C-3.67694 99.2156 -3.79625 99.4543 -5.9439 99.4543C-12.3868 99.4543 -14.1765 103.869 -9.16537 107.21C-4.75076 110.192 -0.932721 108.403 7.18061 99.6929C11.2373 95.3976 14.3394 92.2954 13.9815 93.0113C7.41924 106.732 5.86816 110.431 4.67502 114.726C3.72051 118.664 3.72051 120.931 4.79434 124.152C6.10679 128.328 6.2261 128.328 7.53855 125.823C8.851 123.556 9.20894 123.436 11.2373 125.107C12.5497 126.061 15.8905 126.896 18.754 126.896H23.7652L23.0493 133.339C22.5721 137.515 22.6914 140.021 23.6459 140.498C26.0322 142.049 24.9584 148.015 20.7824 156.844C18.5154 161.736 16.6064 166.747 16.6064 168.06C16.6064 170.804 25.5549 180.23 26.3901 178.559C26.7481 178.082 27.3446 176.054 27.8219 174.264C28.4185 171.639 29.1343 171.042 30.6854 171.639C37.4863 174.503 39.1567 174.861 42.0202 174.264C44.8837 173.429 45.9576 172.594 49.7756 168.06C51.3267 166.151 63.1387 165.435 63.1387 167.224C63.1387 167.821 61.5877 169.73 59.5593 171.639C50.0142 180.826 50.7301 196.098 60.7525 197.53C62.4229 197.769 64.3319 199.201 65.1671 200.871C67.434 205.286 67.0761 217.098 64.6898 221.154C62.9001 224.376 62.9001 224.734 64.6898 227.359C70.7748 235.711 70.6555 235.353 69.1044 237.381C65.883 241.199 63.1387 241.796 60.3945 239.29C54.7868 234.04 41.7816 235.114 36.1738 241.08C32.2365 245.375 32.4751 248.238 37.009 249.193C39.6339 249.79 40.4691 250.505 39.8726 251.818C39.5146 252.892 39.9919 254.681 41.0657 255.755C42.7361 257.545 42.7361 258.38 40.8271 263.988C37.9635 272.817 31.282 280.095 22.8107 283.197C19.112 284.629 15.4133 286.3 14.5781 287.015C13.027 288.328 12.5497 295.009 13.7429 299.543L14.4587 302.049L19.9472 299.185C23.288 297.396 26.5094 296.441 27.9412 296.918C29.2536 297.276 33.6683 298.112 37.8442 298.708C43.9292 299.543 46.1962 300.498 50.0142 303.958C54.4288 307.895 54.9061 308.015 58.6048 306.821C63.3774 305.27 68.2692 302.049 73.7577 297.038L77.695 293.339L75.9053 296.918C72.9225 302.765 66.9568 310.401 63.7353 312.549C62.0649 313.622 56.5765 314.935 51.5653 315.531C44.4065 316.367 41.185 317.321 37.4863 319.946C29.7309 325.315 7.89649 352.519 9.80551 354.308C10.2828 354.786 14.4587 353.473 19.2313 351.445C31.0434 346.314 33.0717 346.076 39.1567 348.223C47.0314 350.968 48.3438 350.61 51.6846 344.883C53.355 342.019 56.0992 338.559 57.6503 337.008C61.4684 333.428 68.8658 332.474 73.519 334.98C75.5474 335.934 79.3654 337.127 82.1096 337.604C86.5242 338.32 87.0015 338.082 87.0015 335.934C87.0015 332.593 89.1491 332.235 118.62 330.923C145.107 329.73 150.238 328.895 158.232 324.241C162.885 321.616 168.135 316.247 168.135 314.219C168.135 313.742 165.033 312.906 161.334 312.549C148.09 310.997 144.272 307.299 151.312 303.242C153.221 302.168 155.01 300.14 155.249 298.589C155.488 296.799 158.112 294.055 162.646 290.953C178.634 279.737 181.14 261.602 167.538 255.636C159.902 252.295 149.76 252.295 146.062 255.755C143.914 257.784 142.482 258.141 139.5 257.545C134.488 256.471 133.892 254.204 137.59 249.432C145.465 239.171 141.289 229.864 126.256 224.018C118.739 221.154 118.381 220.438 121.841 216.74C126.136 212.086 129.954 205.524 129.954 202.541C129.954 198.365 125.778 194.309 116.949 189.655C112.296 187.269 107.762 184.048 106.688 182.616C104.899 180.23 99.6487 164.242 96.5466 152.072C94.8762 145.748 86.5242 136.322 78.053 131.55C73.0418 128.686 70.7748 128.09 63.3774 128.09C54.5482 128.09 45.5996 125.584 46.9121 123.436C47.3893 122.84 49.6563 121.647 52.1619 120.931C64.4512 116.874 73.6384 108.88 63.616 110.67C61.349 111.147 58.6048 111.863 57.6503 112.221C53.8323 113.653 56.3379 110.55 62.1842 106.613C70.1783 101.125 76.3826 93.1306 82.8255 79.8868C89.2684 66.643 91.8933 56.8593 89.2684 55.3082C83.1834 51.4901 56.8151 53.2798 44.7644 58.4103C31.6399 63.8988 31.0434 63.6602 36.4125 54.3537C38.0829 51.4901 39.7533 47.0755 39.9919 44.6893C40.2305 40.9905 41.9009 38.9622 51.446 30.0137C62.0649 19.9913 62.4229 19.5141 60.3945 17.4857C58.6048 15.5767 55.5027 15.3381 38.2022 14.9802L18.0382 14.6222L15.6519 20.9458Z" fill="#8F8F8F"/>
<path d="M381.109 59.6036C379.2 60.5581 375.382 63.4216 372.757 65.9272C364.763 73.444 361.542 75.353 354.86 76.7847C351.4 77.5006 346.269 79.6483 343.645 81.5573C335.889 87.2843 334.815 90.3865 334.219 110.908C333.384 136.442 334.219 141.333 339.946 147.061C343.525 150.64 344.718 152.788 345.315 157.441C345.792 160.662 346.389 164.242 346.747 165.435C347.582 168.656 352.116 171.043 358.559 171.758C363.212 172.236 365.24 171.878 368.462 169.849C371.206 168.179 372.041 166.986 371.087 166.389C365.718 163.049 366.433 137.635 372.041 136.084C373.354 135.845 374.547 134.294 374.785 132.743C375.024 130.953 376.217 129.76 378.126 129.283C380.632 128.686 381.228 127.732 381.825 123.317C382.66 117.471 386.597 113.295 390.177 114.369C392.325 115.084 398.41 110.431 398.41 108.045C398.41 107.448 396.262 106.613 393.756 106.136C386.717 105.062 384.092 101.005 384.092 91.5796C384.092 87.2843 385.166 80.0062 386.478 75.353C389.222 65.4499 389.461 61.1546 387.433 59.1263C385.643 57.3366 385.404 57.3366 381.109 59.6036Z" fill="#8F8F8F"/>
<path d="M-23.7226 161.497C-30.5235 164.241 -47.7047 178.917 -52 185.718C-54.0283 188.939 -54.0283 189.059 -50.9261 193.473C-45.3184 201.229 -42.9321 203.734 -42.0969 202.541C-38.9948 197.888 -31.7166 190.133 -30.5235 190.133C-29.6883 190.133 -28.3758 191.803 -27.5406 193.831C-25.6316 198.485 -18.5921 203.257 -13.5809 203.257C-11.314 203.257 -8.45045 202.064 -6.30281 200.274C0.0208168 195.024 3.00366 182.974 -2.00751 182.974C-4.03585 182.974 -5.58693 179.514 -6.66075 172.951C-7.138 169.849 -8.8084 166.866 -11.4333 164.241C-15.49 160.185 -18.5921 159.469 -23.7226 161.497Z" fill="#8F8F8F"/>
<path d="M346.39 175.338C347.703 177.247 350.089 180.826 351.759 183.451L354.742 188.104L350.924 191.326C346.51 195.024 346.271 195.621 349.493 196.456C350.805 196.814 351.879 198.007 351.879 199.081C351.879 203.138 366.793 220.2 375.742 226.404L378.724 228.552L374.548 227.716C369.776 226.762 361.901 222.944 360.827 221.154C359.753 219.364 351.998 215.666 347.226 214.592L343.288 213.757L343.646 220.558C344.004 225.807 343.646 227.716 342.214 228.671C339.47 230.461 331.953 228.671 331.238 226.046C330.283 222.467 315.13 220.796 310.835 223.898C308.926 225.33 308.926 226.165 310.119 233.086C312.744 247.403 308.926 261.244 301.886 262.914C297.472 263.988 297.591 265.897 302.364 269.596C306.182 272.459 306.659 273.414 306.062 276.516C304.869 282.243 299.619 287.97 292.699 291.072L286.256 293.936V300.736C286.256 304.554 285.421 311.236 284.228 315.531C282.319 323.287 282.319 323.525 284.944 331.042C291.983 350.371 291.506 348.343 288.881 352.519L286.495 356.337L289.955 363.615C291.864 367.671 293.415 372.802 293.415 374.95C293.415 381.75 297.591 384.853 317.159 392.489C326.704 396.307 334.698 399.409 334.817 399.528C335.056 399.647 333.504 402.75 331.476 406.448C327.181 414.442 321.096 430.788 319.664 438.066C318.471 444.748 319.425 445.106 332.073 442.6C345.555 439.976 354.265 439.856 355.697 442.242C356.413 443.555 357.725 444.032 359.992 443.555C362.259 443.078 366.077 444.39 373.236 447.97L383.258 452.981L394.712 450.952C401.036 449.759 411.774 447.612 418.694 445.941C433.847 442.481 438.858 442.362 444.943 445.464C450.551 448.327 450.79 447.731 447.33 437.709C446.017 433.771 445.301 429.595 445.659 427.925C446.137 426.254 451.267 420.885 457.591 415.397L468.806 405.732L454.131 390.58C438.62 374.353 431.7 364.569 431.58 358.246C431.461 355.143 432.296 353.592 435.637 350.729C441.245 345.956 466.062 332.951 475.965 329.849C485.749 326.628 492.072 322.452 494.578 317.56C497.084 312.787 496.368 304.435 492.072 286.777C488.135 270.311 484.794 262.198 479.664 256.59L475.488 251.937L477.635 246.449C482.766 232.847 482.408 223.183 476.442 211.37C473.221 204.928 469.999 202.78 465.346 203.615C463.318 204.092 460.932 203.496 459.023 202.303C445.182 192.877 444.466 192.638 441.483 193.354C436.114 194.547 419.53 203.615 414.757 207.91C410.7 211.609 409.865 211.848 404.854 211.132C394.116 209.7 391.61 205.405 399.008 200.99C406.286 196.695 404.615 195.502 389.582 194.547C383.855 194.07 380.872 193.354 379.798 192.042C379.082 190.968 376.815 190.133 374.906 190.133C369.895 190.133 369.179 188.82 372.759 186.076C378.605 181.423 373.355 177.366 357.725 174.622C353.549 173.906 348.777 172.951 347.106 172.594L344.243 171.878L346.39 175.338Z" fill="#8F8F8F"/>
<path d="M276.711 234.279C270.149 235.83 267.404 240.602 268.12 248.954C268.24 250.147 269.91 252.414 271.819 254.085C275.756 257.426 279.455 265.658 278.5 268.999C277.188 273.056 270.864 277.232 266.092 277.232C259.291 277.232 257.143 274.13 256.666 263.749C256.427 258.977 256.07 254.443 255.831 253.727C254.876 250.744 251.894 253.608 250.581 258.499C249.985 261.363 246.166 270.073 242.229 278.067L235.07 292.623L244.854 294.651L254.518 296.799L246.405 300.617C241.871 302.765 238.053 304.674 237.815 304.912C237.695 305.151 241.155 305.151 245.809 304.912C253.683 304.435 254.399 304.555 262.155 309.327C266.569 311.952 271.938 314.815 274.205 315.531C277.904 316.844 278.5 316.725 280.648 314.1C282.557 311.713 282.796 310.162 282.199 304.674C280.648 291.788 280.41 292.742 286.495 290.356C294.131 287.493 298.545 284.152 301.17 279.141L303.437 274.845L299.619 270.908C294.966 266.135 294.966 265.3 298.903 261.602C303.556 257.426 308.925 248.596 308.925 245.256C308.925 241.438 303.198 235.949 297.471 234.398C292.102 232.966 282.796 232.847 276.711 234.279Z" fill="#8F8F8F"/>
<path d="M239.127 312.549C228.27 316.963 228.031 316.963 216.338 314.696C208.702 313.264 199.634 320.781 200.589 327.701C200.947 330.088 201.544 330.326 207.151 329.968C213.236 329.73 213.475 329.73 215.742 334.144C218.605 339.752 220.753 341.78 228.628 345.718C235.787 349.297 239.127 353.473 238.292 357.768C237.934 359.439 238.054 361.109 238.65 361.467C239.963 362.183 244.019 360.155 248.434 356.456C252.49 352.996 254.042 352.877 254.042 355.74C254.042 360.035 260.246 370.416 264.541 373.279C272.654 378.768 277.427 376.381 276.353 367.671C275.399 361.228 277.785 354.07 280.648 354.308C283.87 354.666 286.614 349.655 285.66 345.36C284.705 340.945 279.933 335.695 276.95 335.695C273.728 335.695 272.297 333.667 271.342 327.343C270.268 320.9 268.359 318.395 261.081 314.815C258.098 313.264 254.996 311.117 254.161 310.162C252.013 307.657 251.536 307.657 239.127 312.549Z" fill="#8F8F8F"/>
<path d="M184.361 327.343C178.634 330.207 176.605 332.951 176.486 337.604C176.367 350.848 168.611 361.229 152.027 370.058C142.004 375.427 141.289 376.143 140.931 379.961C140.334 386.284 139.022 387 128.88 387C116.71 387 108 384.614 104.779 380.557C103.466 378.768 100.245 376.262 97.6198 375.069C92.2507 372.325 91.8927 372.921 94.7563 380.915C95.7108 383.779 97.3812 390.699 98.3357 396.307C99.4095 402.034 100.603 407.642 100.841 408.715C101.438 410.505 100.722 410.863 96.3073 410.863C90.9382 410.863 78.7682 412.533 74.2343 413.965C72.206 414.562 70.297 413.369 65.1665 408.596C58.2463 402.034 57.0531 401.557 54.6669 404.42C51.9227 407.761 46.0763 410.028 37.0084 410.982C31.7586 411.579 27.344 412.772 26.2702 413.846C24.5998 415.516 24.8384 415.993 29.0144 419.454C33.5483 423.152 33.5483 423.272 32.9518 430.192L32.3552 437.112H36.2926C38.4402 437.112 44.7638 439.021 50.2523 441.407C55.6214 443.794 63.9733 446.657 68.5073 447.731C76.2626 449.64 76.8592 449.998 76.8592 453.1C76.9785 455.367 78.5296 457.753 81.9897 460.975C85.9271 464.673 87.0009 466.463 87.0009 469.685C87.0009 475.889 92.7279 483.406 102.75 490.326L111.46 496.292L111.102 504.644C109.909 533.04 105.614 563.227 100.245 580.288C97.1425 590.192 97.1425 590.669 100.722 591.504C102.87 592.101 103.705 593.055 103.705 595.203C103.705 601.646 118.858 606.537 138.664 606.537C160.379 606.537 172.31 609.162 179.946 615.605C184.599 619.423 191.878 620.497 198.559 618.23C203.57 616.56 205.479 613.935 207.508 605.702C209.059 599.498 214.547 593.89 224.212 588.76C234.353 583.271 239.722 583.629 261.199 590.549C270.744 593.652 279.931 596.396 281.602 596.634C285.658 597.35 289.834 595.203 300.095 586.612C304.748 582.794 310.237 578.737 312.265 577.664C315.845 575.755 320.856 569.192 320.856 566.567C320.856 565.732 319.185 565.494 316.799 565.732C313.697 566.09 311.907 565.374 308.447 562.272C302.601 557.261 300.572 552.966 300.572 546.045C300.453 542.943 299.737 539.006 298.783 537.336C296.158 532.802 296.635 531.728 301.885 528.148C307.254 524.569 307.254 524.569 302.839 513.115C300.692 507.388 300.453 505.598 301.527 503.808C303.555 500.587 303.317 497.962 300.334 493.547C296.874 488.536 294.487 488.656 286.255 493.786C282.675 495.934 279.573 497.604 279.335 497.485C279.215 497.246 280.17 495.218 281.482 492.832C283.153 490.087 283.749 487.582 283.272 485.673C282.675 483.286 283.272 482.093 286.613 479.588C288.88 477.798 291.147 475.054 291.505 473.503C291.982 471.832 294.726 467.776 297.709 464.435C300.572 461.094 303.317 456.918 303.794 455.009C304.152 452.623 305.464 451.191 307.731 450.356C311.788 449.043 313.578 445.822 317.634 432.697C319.424 427.448 322.168 419.573 323.839 415.397C328.134 405.375 329.088 401.795 328.134 400.602C327.776 400.005 324.197 398.335 320.259 397.023C316.322 395.591 306.657 391.773 298.663 388.432C290.789 385.211 281.124 381.75 277.187 380.915C272.295 379.841 267.284 377.336 260.602 372.802C249.983 365.643 244.853 363.138 240.438 363.138C236.859 363.138 235.785 361.706 234.95 355.382C234.353 350.968 234.115 350.61 229.342 349.774C222.661 348.701 217.649 344.763 214.547 338.44L212.042 333.309L206.195 334.025L200.23 334.86L198.321 329.849C196.65 325.554 195.934 324.957 192.713 324.957C190.684 325.076 186.986 326.031 184.361 327.343Z" fill="#4657C6"/>
<path d="M279.812 360.393C277.664 365.882 279.931 376.978 283.392 378.29C286.016 379.245 289.834 374.592 289.834 370.416C289.834 363.853 281.602 355.621 279.812 360.393Z" fill="#8F8F8F"/>
<path d="M492.669 406.687C485.152 412.891 482.527 413.846 477.874 412.175C471.311 409.67 468.567 410.624 458.306 418.618C447.568 427.09 447.091 428.164 450.312 437.112C452.46 443.316 452.579 448.685 450.67 449.401C449.835 449.64 447.21 449.163 444.943 448.208C439.216 445.822 432.534 446.061 420.842 448.924C415.353 450.237 406.166 452.265 400.2 453.219C394.354 454.293 387.911 455.486 386.121 455.844C384.093 456.202 380.872 455.606 378.127 454.413C371.565 451.43 369.775 452.504 369.775 459.185C369.775 463.48 370.491 465.389 372.878 467.776C375.98 470.878 376.576 470.878 385.525 468.73C387.911 468.134 389.581 468.611 391.968 470.401C395.905 473.503 398.411 473.503 403.422 470.52C407.359 468.253 422.273 464.316 428.12 464.077C430.267 463.958 432.057 465.27 434.682 468.969C439.097 474.934 444.704 477.798 457.471 480.662C471.669 483.764 484.794 483.525 500.543 479.826C524.883 474.099 531.923 468.969 532.161 456.799C532.4 447.015 533.235 445.106 539.678 442.123L545.524 439.26L544.809 431.982C543.854 422.556 540.871 412.533 538.127 409.789C536.815 408.477 533.354 407.403 528.94 406.926C525.122 406.568 518.679 405.136 514.861 403.704C503.884 399.886 500.305 400.363 492.669 406.687Z" fill="#8F8F8F"/>
<path d="M341.735 447.97C328.134 449.64 319.424 451.668 313.697 454.412C306.896 457.873 296.635 468.611 294.726 474.457C293.771 477.321 291.982 479.588 289.715 480.661C283.63 483.883 285.897 486.508 294.606 486.627C299.26 486.627 300.214 487.104 302.362 490.565C309.879 502.735 309.163 502.138 315.725 502.138C323.242 502.019 327.537 499.871 329.088 495.456C330.281 492.116 336.605 487.224 339.707 487.224C340.542 487.224 341.974 489.013 342.929 491.161C343.883 493.428 345.434 495.814 346.389 496.65C349.133 498.916 353.428 495.814 357.962 488.417C359.99 485.076 362.257 482.451 362.973 482.451C363.808 482.451 365.717 483.525 367.388 484.837C369.058 486.15 370.967 487.224 371.564 487.224C373.354 487.224 381.228 480.542 384.092 476.485L386.597 472.906L381.228 473.622C376.217 474.338 375.501 474.099 371.683 470.281C367.746 466.344 365.002 459.662 365.002 454.055C365.002 452.503 364.405 450.236 363.808 448.924C362.377 446.418 357.008 446.18 341.735 447.97Z" fill="#8F8F8F"/>
<path d="M411.773 470.401C409.625 470.997 405.926 472.787 403.421 474.457C400.08 476.724 397.932 477.321 394.711 476.843C390.654 476.247 390.296 476.486 389.461 479.826C389.103 481.855 387.433 484.36 385.762 485.315C384.211 486.389 382.899 488.298 382.899 489.61C382.899 492.712 378.126 494.979 373.95 493.905C372.16 493.428 369.416 491.758 367.627 489.968L364.524 486.866L361.303 490.565C358.201 494.025 355.457 500.945 355.457 505.359C355.457 509.177 352.474 507.626 344.48 499.752C335.65 490.922 332.787 489.968 332.787 495.934C332.787 501.78 329.565 503.928 317.634 506.553C311.907 507.746 306.657 509.297 306.061 509.893C305.225 510.729 305.703 512.876 307.492 516.456C308.924 519.438 310.117 522.66 310.117 523.495C310.117 524.45 307.97 526.955 305.345 528.984C302.72 531.012 300.572 533.279 300.572 533.875C300.572 534.472 302.123 537.455 304.152 540.676L307.612 546.284L305.106 548.312L302.481 550.221L305.583 554.875C308.566 559.409 315.009 563.585 318.827 563.585C321.333 563.585 323.361 566.567 322.526 568.834C320.975 572.891 326.344 570.505 337.44 562.033C343.645 557.38 349.491 552.966 350.326 552.488C352.593 551.057 373.115 561.079 378.961 566.448C383.973 570.982 386.836 577.664 388.745 589.476C389.819 596.754 391.967 599.737 409.148 618.35C422.749 633.144 437.067 646.03 443.749 649.49C446.016 650.684 451.146 652.235 455.083 653.07C466.18 655.337 470.356 657.484 476.321 663.808C479.423 667.03 483.361 670.012 485.151 670.49C491.355 671.802 493.264 673.472 496.843 680.273C499.707 685.762 501.497 687.551 506.388 690.057C510.684 692.205 513.07 694.472 515.218 698.29C518.678 704.494 523.45 718.334 525.001 726.328C525.956 731.698 525.837 732.652 522.973 736.709C519.513 741.839 516.649 748.998 516.53 753.055C516.53 756.276 520.945 758.543 523.45 756.515C526.672 753.89 532.279 744.583 534.188 738.737C535.859 733.487 537.052 732.055 541.586 729.431C546.239 726.686 546.955 725.732 547.313 721.794C547.671 717.619 547.194 716.664 540.393 710.34L533.115 703.301L535.024 699.006C535.978 696.619 539.558 691.131 542.898 686.955C550.057 678.006 552.086 677.529 561.392 682.779C567.119 686.12 574.039 692.801 575.352 696.261C575.71 697.455 576.545 697.216 578.573 695.307C581.079 692.921 581.079 692.563 579.289 689.103C576.545 683.733 565.091 674.904 547.074 664.285C528.342 653.189 521.661 648.655 520.706 646.15C520.348 645.195 521.183 643.167 522.734 641.496C526.91 637.082 524.285 635.769 510.803 635.769C499.588 635.769 498.872 635.65 492.19 631.593C483.122 626.224 475.844 616.918 471.191 604.748C463.078 583.749 459.498 579.095 446.97 573.01C441.601 570.385 441.362 570.385 439.692 572.533C436.709 576.59 434.562 573.965 433.726 565.136C431.579 543.659 431.579 541.273 432.891 540.438C434.562 539.364 434.562 533.517 432.772 527.671C430.624 520.274 432.295 518.126 444.942 512.876C451.027 510.371 456.754 507.507 457.589 506.553C459.737 504.405 459.737 493.189 457.589 487.94C456.157 484.48 454.964 483.644 447.805 481.377C440.05 479.11 437.902 477.917 430.386 472.548C426.806 470.043 417.38 468.969 411.773 470.401Z" fill="#8F8F8F"/>
<path d="M-58.5606 581.243C-61.1855 582.436 -62.8559 584.345 -63.0945 585.896C-63.6911 590.191 -68.8216 593.413 -75.2645 593.413C-80.8723 593.413 -83.4972 595.083 -85.1676 599.617C-85.5255 600.81 -84.3324 604.628 -82.1847 608.566C-80.0371 612.384 -77.7701 618.707 -77.0542 622.645L-75.7418 629.804H-68.583C-62.9752 629.804 -61.0662 630.281 -58.9186 632.428C-54.9812 636.366 -47.2258 637.082 -40.6636 634.099C-34.1013 631.116 -23.721 630.758 -21.0961 633.502C-20.0223 634.457 -19.1871 636.604 -19.1871 638.156C-19.1871 639.587 -18.1133 642.093 -16.9201 643.644C-14.2952 646.985 -14.7725 648.894 -21.0961 658.439C-24.9141 664.047 -25.63 666.314 -26.3459 674.308C-26.8232 680.035 -28.0163 684.807 -29.3288 686.836C-30.6412 688.864 -31.1185 691.25 -30.7605 693.398C-30.0446 697.097 -33.1468 705.21 -36.2489 707.835C-38.9932 710.102 -38.7545 713.204 -35.5331 718.454C-30.9991 725.732 -30.8798 726.686 -34.8172 734.084L-38.5159 741.123L-36.0103 746.731C-32.7888 753.89 -32.9082 754.725 -36.3683 757.946C-38.0387 759.498 -40.1863 762.6 -41.2601 764.867C-43.0498 768.565 -43.0498 769.162 -41.3794 771.906C-40.3056 773.457 -36.3683 776.321 -32.5502 778.23C-24.0789 782.525 -20.9768 785.866 -13.3407 798.871C-7.25572 809.251 -1.52866 814.978 1.69281 813.666C2.64732 813.308 4.19839 811.28 5.39153 809.132C8.49369 802.928 11.7152 800.064 17.6808 798.155C26.2714 795.292 44.2878 792.786 61.9462 791.951C80.9171 790.996 83.7807 790.042 91.1781 781.332C97.5017 773.935 104.064 769.162 110.149 767.492C113.37 766.656 114.564 765.463 115.16 763.077C116.592 757.35 120.171 751.265 127.092 743.152C134.847 733.964 134.966 732.652 128.762 719.289L124.944 710.937L136.517 694.233C142.96 685.046 149.761 674.666 151.67 671.205C155.965 663.808 160.141 661.064 177.323 654.859C190.566 650.087 202.14 642.809 206.912 636.366C211.088 630.758 211.088 618.469 206.793 618.469C205.958 618.469 204.645 619.543 203.93 620.855C202.856 622.883 201.424 623.241 194.623 623.241C189.851 623.241 185.197 622.525 183.169 621.452C181.26 620.378 177.8 619.781 175.414 619.901C171.715 620.258 171.118 619.901 170.044 616.679C169.329 614.651 168.255 612.742 167.539 612.264C166.942 611.787 160.738 611.31 153.818 611.31C127.927 611.31 110.268 607.373 101.439 599.737C94.2803 593.771 88.1953 592.578 52.5205 591.027C24.0045 589.714 10.7607 588.282 -0.693466 585.18C-3.31837 584.464 -12.2669 583.987 -20.4995 583.987C-33.3854 583.987 -36.4876 583.629 -41.0215 581.601C-47.7031 578.499 -53.0722 578.379 -58.5606 581.243Z" fill="#8F8F8F"/>
<path d="M350.446 616.202C347.941 617.992 347.105 619.662 347.105 622.645C347.105 630.281 349.73 645.314 351.401 646.985C352.833 648.536 353.429 648.417 356.173 645.792C363.332 639.11 367.508 625.15 364.525 617.992C362.855 614.174 362.258 613.696 358.202 613.696C355.577 613.816 352.355 614.77 350.446 616.202Z" fill="#8F8F8F"/>
<path d="M346.269 667.507C339.23 670.848 338.753 671.325 338.753 675.143C338.753 677.41 339.588 682.302 340.542 686.12C342.809 694.949 342.809 701.511 340.304 710.579L338.275 717.857L342.929 721.914C345.434 724.061 348.298 725.851 349.133 725.851C350.087 725.851 352.235 724.181 353.905 722.152C355.576 720.243 357.724 718.812 358.559 719.17C362.019 720.482 366.314 709.505 367.985 695.068C369.416 682.302 362.496 663.808 356.292 663.808C354.86 663.808 350.326 665.478 346.269 667.507Z" fill="#8F8F8F"/>
</g>
</svg>
