<svg width="355" height="409" viewBox="0 0 355 409" fill="none" xmlns="http://www.w3.org/2000/svg">
<g opacity="0.25">
<path d="M242.38 0.158432C241.262 0.382156 241.517 1.08525 242.924 1.75638C243.627 2.07597 244.202 2.42752 244.202 2.55534C244.202 2.68318 243.819 3.0667 243.339 3.4502C242.061 4.47289 241.645 5.17598 241.294 7.18938C241.102 8.21207 240.75 9.36258 240.495 9.74609C240.111 10.3853 237.906 11.7595 237.299 11.7595C237.171 11.7595 237.203 10.7688 237.299 9.52238C237.491 7.54092 237.459 7.28526 236.883 6.90175C236.276 6.51825 236.276 6.51825 236.915 5.59145C237.746 4.44092 238.098 1.85225 237.459 1.85225C236.883 1.85225 236.724 2.10793 232.921 9.20279C228.031 18.375 227.679 18.8224 226.976 16.841C226.465 15.3389 226.529 14.508 227.392 12.6543C227.839 11.7275 228.478 10.1616 228.862 9.20279C229.213 8.24402 230.204 6.45433 231.035 5.27185C232.473 3.16257 232.505 3.0667 231.898 2.61926C230.971 1.94814 230.172 2.07597 229.757 2.97081C229.341 3.92958 228.99 3.9935 228.702 3.16257C228.382 2.10793 227.232 0.893494 226.593 0.893494C225.858 0.893494 225.506 1.62854 225.027 4.15329C224.835 5.14401 224.451 6.13474 224.164 6.39041C223.237 7.12547 222.79 8.69145 223.109 9.87393C223.269 10.4492 223.365 10.9605 223.301 11.0244C223.237 11.0884 222.63 10.8007 221.991 10.3214C221.319 9.87393 220.68 9.52238 220.521 9.52238C219.881 9.52238 218.571 11.7915 218.571 12.8781C218.571 13.8049 218.411 14.0925 217.644 14.508C216.622 15.0193 216.494 15.6265 217.165 17.2245C217.389 17.8317 217.676 18.6946 217.804 19.2059C217.996 20.0049 217.964 20.0688 217.229 19.877C216.654 19.7492 216.11 19.909 215.407 20.4203C214.416 21.1234 214.416 21.1234 214.608 20.4523C214.768 20.0049 214.608 19.5894 214.129 19.142C213.713 18.7585 213.33 18.4709 213.234 18.4709C213.138 18.4709 212.818 18.3111 212.563 18.1513C212.147 17.8956 212.179 17.7997 212.723 17.3843C213.585 16.777 213.17 16.4574 212.051 16.8729C211.348 17.1605 211.252 17.2884 211.604 17.5121C212.083 17.7997 212.115 17.7997 210.485 18.3111C209.846 18.5028 209.878 18.1513 210.549 17.6719C211.029 17.3203 210.965 17.2245 209.846 16.9049C208.12 16.4255 207.513 16.4255 208.025 16.9368C208.248 17.1605 208.408 18.0554 208.408 18.9822C208.408 19.877 208.632 21.1554 208.888 21.7626C209.143 22.4018 209.367 23.0729 209.367 23.2647C209.367 23.9039 208.376 23.5843 208.025 22.7853C207.673 22.0183 206.331 21.3472 205.052 21.3472C204.669 21.3472 203.678 21.6987 202.815 22.1461C201.92 22.6255 201.058 22.8812 200.674 22.7533C199.811 22.4977 199.14 23.1688 199.14 24.4152C199.14 25.8214 199.524 26.7802 200.578 27.8028C201.633 28.8575 201.473 28.9214 199.779 28.0585C198.117 27.2276 197.223 27.2276 197.223 28.0585C197.223 28.8255 196.296 30.7111 195.337 31.8936C194.506 32.9163 194.506 32.6606 195.305 30.8709C196.424 28.3461 197.35 21.3472 196.615 20.8997C196.136 20.5801 195.688 21.443 194.985 23.9997C194.634 25.374 193.515 28.0585 192.493 29.9441L190.671 33.3956L189.68 32.309C188.881 31.4781 188.434 31.2544 187.443 31.2544C186.74 31.2544 185.877 31.4781 185.494 31.7338C184.791 32.2132 184.791 32.2132 184.822 31.0946C184.886 29.5606 184.247 28.9214 183.8 30.1039C183.64 30.5833 183.48 31.4781 183.48 32.0853C183.48 33.5235 182.969 34.4503 182.202 34.4503C181.371 34.4503 179.326 36.2719 179.326 37.0389C179.326 37.3585 179.613 37.774 179.997 37.9658C180.348 38.1895 180.572 38.541 180.476 38.7647C180.412 38.9884 180.604 39.4359 180.955 39.7554C181.563 40.2988 181.531 40.3307 179.262 41.0018C173.445 42.6957 169.738 45.9555 173.605 45.9555C174.564 45.9555 174.34 46.3709 172.934 47.1699C171.592 47.9369 171.304 48.7679 172.135 49.4709C172.774 50.0142 172.742 50.4297 171.911 51.2926C171.272 51.9637 171.272 52.0596 171.751 52.6029C173.221 54.2009 171.847 55.1596 167.533 55.5751C164.049 55.8947 163.059 56.1503 162.419 56.9493C161.333 58.2596 163.218 58.9627 164.72 57.7802C165.647 57.0452 166.957 56.9493 167.469 57.5885C167.948 58.1637 167.341 58.6431 165.903 58.8029C164.944 58.8988 164.784 59.0266 164.688 59.7937C164.561 60.8802 165.168 61.1679 166.862 60.7205C168.492 60.305 168.683 60.6246 167.82 62.4143C167.053 63.9803 166.83 64.1081 166.222 63.373C165.999 63.1174 165.519 62.8937 165.168 62.8937C164.816 62.8937 164.177 62.606 163.794 62.2225C163.346 61.8071 162.867 61.6153 162.483 61.7431C161.78 61.9668 159 64.7153 159.223 64.971C159.319 65.0349 160.598 65.3545 162.068 65.6421C165.136 66.2174 165.743 66.473 166.254 67.3999C166.766 68.3586 166.382 68.4865 165.392 67.7194C163.378 66.1535 160.15 66.1535 158.552 67.7194C158.041 68.2308 157.434 68.6462 157.21 68.6462C156.954 68.6462 156.283 69.1256 155.708 69.7328L154.653 70.8195L155.58 71.6504L156.475 72.4813H155.261C153.758 72.4813 153.727 72.9607 155.197 73.472C156.635 74.0153 156.635 74.3988 155.197 74.3988C153.918 74.3988 153.79 74.6865 154.717 75.2937C155.548 75.805 155.324 76.1885 153.663 76.9556C152.928 77.3071 151.905 77.9463 151.362 78.3617C149.828 79.6081 150.531 79.8958 154.877 79.7679L158.616 79.6721L156.922 81.2061C155.964 82.069 154.781 82.9638 154.302 83.2514C153.471 83.6669 153.311 83.6669 152.832 83.2195C152.065 82.5164 151.425 82.5803 150.627 83.4432C149.7 84.4339 149.732 84.8813 150.914 86.3195C151.937 87.5659 151.873 87.7576 150.563 87.0226C149.124 86.1917 148.453 86.4154 147.718 87.9174C146.568 90.2824 146.536 91.1772 147.527 92.6473L148.389 93.9896L147.495 93.7659C146.983 93.6381 146.344 93.4783 146.056 93.3824C145.353 93.1906 144.458 94.0855 144.714 94.7886C145.034 95.7474 146.184 96.77 146.855 96.77C147.239 96.77 148.07 96.3226 148.741 95.7793C149.38 95.236 149.923 94.9164 149.923 95.0762C149.923 95.6195 146.951 98.7195 144.618 100.637C143.308 101.692 142.317 102.682 142.413 102.842C142.509 102.97 141.742 103.833 140.751 104.728L138.898 106.358H140.751C142.829 106.358 143.084 106.677 141.422 107.285C140.687 107.54 140.336 107.86 140.464 108.115C140.623 108.595 139.537 110.193 139.025 110.193C138.834 110.193 138.322 109.745 137.875 109.234C136.916 108.083 135.83 107.924 135.957 108.978C135.989 109.49 135.798 109.713 134.999 109.937C133.656 110.289 132.474 111.791 131.835 113.9C131.547 114.891 130.908 116.169 130.365 116.776L129.406 117.863H130.365C131.675 117.863 131.899 118.342 131.068 119.397L130.365 120.26L131.036 120.356C131.963 120.515 133.848 119.876 135.318 118.949C136.82 117.959 136.852 117.447 135.382 117.607C134.775 117.671 134.264 117.639 134.264 117.511C134.264 117.128 136.916 115.05 137.843 114.699C139.057 114.252 139.697 114.955 139.697 116.744C139.697 117.799 139.505 118.342 138.993 118.822C138.61 119.173 138.195 119.461 138.067 119.461C137.555 119.461 136.82 120.515 136.501 121.666C136.149 123.04 135.67 123.296 133.273 123.296C131.483 123.296 131.227 123.52 132.122 124.287L132.825 124.894L131.227 124.83L129.63 124.734L129.725 123.424C129.853 121.89 129.278 121.251 128.096 121.538C127.041 121.826 125.603 123.296 126.37 123.296C128.127 123.296 125.731 125.565 122.311 127.163C121.16 127.706 120.202 128.218 120.202 128.313C120.202 128.409 120.553 128.761 121.001 129.112C121.576 129.56 121.8 130.039 121.8 130.87V131.989L120.713 131.286C119.307 130.455 119.019 130.87 120.042 132.372L120.809 133.523H118.028C114.865 133.523 113.906 133.874 114.928 134.673C115.504 135.121 115.312 135.153 112.372 135.121C106.907 135.025 106.779 135.025 106.779 135.76C106.779 136.303 107.003 136.399 108.153 136.399C109.623 136.399 111.605 137.486 112.244 138.668C112.532 139.211 112.436 139.563 111.701 140.586C111.221 141.257 110.71 141.832 110.582 141.832C110.422 141.832 110.294 141.161 110.294 140.362C110.294 137.645 109.176 136.974 107.099 138.38C105.565 139.435 105.245 140.074 105.916 140.809C106.204 141.129 106.459 141.48 106.459 141.576C106.459 141.672 105.565 141.672 104.478 141.608C102.752 141.48 102.337 141.544 101.57 142.152C99.748 143.59 100.291 143.845 106.236 144.229C109.144 144.421 109.975 144.612 109.975 144.996C109.975 145.475 108.313 145.987 106.779 145.987C105.628 145.987 105.117 146.146 104.925 146.53C104.638 147.009 104.478 146.913 103.487 145.891C102.049 144.325 100.739 144.389 99.3645 146.114C98.5975 147.041 98.6614 147.201 99.6521 147.329C100.259 147.393 100.579 147.649 100.643 148.064C100.707 148.416 100.962 148.863 101.25 149.087C101.666 149.406 101.57 149.534 100.643 150.013L99.5882 150.589L101.154 150.876L102.688 151.196L100.259 152.123C96.6161 153.529 96.9037 153.785 102.624 154.136C104.478 154.232 106.108 154.456 106.236 154.616C106.619 154.935 104.957 155.446 101.985 155.894C100.675 156.086 99.4604 156.373 99.3006 156.533C98.6295 157.204 101.474 159.761 102.337 159.25C102.816 158.93 103.583 159.697 103.583 160.496C103.583 160.848 103.359 161.806 103.072 162.605C102.56 164.043 102.688 165.929 103.295 166.312C103.487 166.408 104.19 166.057 104.893 165.482C105.596 164.906 106.268 164.555 106.364 164.651C106.715 165.002 105.373 167.91 104.382 168.901C103.647 169.636 103.455 170.02 103.711 170.243C104.35 170.787 105.66 170.947 106.555 170.627C107.706 170.18 107.674 170.691 106.491 171.905C105.98 172.417 105.213 172.832 104.798 172.832C104.382 172.832 103.263 173.535 102.145 174.462C99.9717 176.348 99.3006 177.178 99.5882 177.626C100.068 178.425 102.624 177.594 102.624 176.635C102.624 175.613 106.012 173.791 107.929 173.791C108.984 173.791 108.888 174.366 107.674 175.613C106.715 176.603 106.683 176.667 107.354 176.667C108.345 176.667 108.217 177.147 107.067 177.977C106.395 178.457 106.14 178.84 106.236 179.288C106.332 179.671 106.172 180.023 105.788 180.279C105.021 180.758 104.989 181.237 105.756 181.014C106.044 180.95 106.939 180.758 107.738 180.662L109.176 180.438L107.802 181.429C106.971 182.036 106.459 182.675 106.459 183.091V183.73L105.628 183.091C104.542 182.228 103.903 182.228 103.903 183.123V183.794L103.104 183.059L102.305 182.324V183.379C102.305 184.849 103.168 186.063 106.108 188.748C107.578 190.058 108.697 191.368 108.76 191.784C108.856 192.455 108.984 192.487 111.765 192.487C114.385 192.487 114.833 192.391 116.558 191.496C117.581 190.953 118.636 190.569 118.827 190.633C119.051 190.729 120.33 189.738 121.64 188.428C123.302 186.766 124.101 185.775 124.229 185.04C124.388 184.305 124.708 183.858 125.251 183.666C125.667 183.506 126.753 182.707 127.648 181.908C128.926 180.758 129.406 180.502 130.077 180.662C131.164 180.886 131.579 180.566 132.186 179.128C132.506 178.329 132.666 177.051 132.634 175.133C132.602 173.599 132.698 172.001 132.825 171.554C133.369 169.732 134.967 168.997 135.35 170.339C135.446 170.755 135.542 172.417 135.542 174.047C135.542 175.676 135.702 177.306 135.893 177.658C136.053 178.009 136.98 178.617 137.939 179.032C139.025 179.543 139.824 180.119 140.112 180.694L140.559 181.589L141.007 180.79C141.295 180.279 141.454 178.904 141.454 176.795C141.486 174.27 141.614 173.343 142.062 172.704C142.349 172.225 142.509 171.714 142.413 171.522C142.285 171.362 142.829 170.531 143.596 169.668C145.801 167.207 146.44 163.948 145.641 159.409C144.97 155.766 144.97 155.702 146.056 155.319C147.143 154.935 147.91 153.912 148.198 152.474C148.357 151.611 148.198 151.26 146.951 149.918C146.184 149.087 145.289 147.904 144.97 147.297C144.171 145.699 143.819 141.097 143.819 131.605C143.819 122.497 144.011 121.091 145.609 118.31C146.696 116.457 148.997 114.443 150.531 114.028C151.266 113.836 152.544 113.772 153.407 113.9C155.58 114.188 156.475 113.9 156.954 112.781C157.498 111.439 157.082 110.065 155.644 108.403C154.174 106.709 154.142 106.997 156.379 101.915C158.488 97.0577 159.096 94.4051 159.447 88.3968C159.767 82.9638 159.958 82.3886 161.493 82.3886C162.771 82.3886 164.497 81.6215 164.912 80.8545C165.104 80.471 165.168 79.5762 165.072 78.7133C164.88 77.4988 164.976 77.1473 165.519 76.5401C166.702 75.2617 171.336 67.6236 171.336 66.9205C171.336 66.5689 170.888 65.6102 170.377 64.8112C169.866 64.0122 169.418 63.1493 169.418 62.8937C169.418 62.606 169.994 61.8071 170.729 61.1359C171.496 60.3689 172.55 58.771 173.317 57.205C174.723 54.2648 176.609 52.0276 177.696 52.0276C178.079 52.0276 178.814 52.2514 179.358 52.539C181.371 53.5617 182.298 52.3153 182.649 48.0328C182.777 46.6266 183.033 45.0606 183.225 44.5812C183.544 43.7503 183.704 43.6864 184.727 43.8142C185.366 43.8781 187.667 44.741 189.872 45.7318C195.337 48.1287 195.113 48.1287 195.337 45.7957C195.465 44.741 195.848 43.175 196.232 42.3441C197.095 40.3946 197.063 40.075 196.136 37.774C195.72 36.7513 195.433 35.7926 195.497 35.6967C195.561 35.6008 196.264 35.409 197.095 35.2812C198.053 35.1534 199.268 34.642 200.482 33.8111C202.847 32.2451 204.605 31.7018 205.596 32.2451C206.427 32.6926 206.778 33.108 208.696 36.208C211.029 39.9792 213.106 41.8008 215.056 41.8008C215.535 41.8008 216.781 41.2895 217.804 40.6823C218.827 40.075 220.009 39.5637 220.457 39.5637C220.872 39.5637 222.182 40.139 223.365 40.8421C226.113 42.5039 226.848 42.472 227.807 40.4905C228.51 38.9884 229.245 38.2534 231.067 37.2627L232.026 36.7194L231.994 33.5874C231.994 30.7111 232.058 30.1998 233.112 27.5152C233.751 25.8853 234.359 24.0317 234.487 23.4245C234.71 22.1461 234.902 22.0183 239.153 20.5482C240.495 20.1008 242.636 19.0781 243.914 18.2791C245.193 17.4801 246.407 16.9049 246.599 17.0007C246.823 17.0647 248.421 18.343 250.146 19.8451C255.963 24.7987 256.634 26.8441 253.886 31.3183C252.671 33.2678 252.575 34.6101 253.598 34.6101C254.013 34.6101 254.333 34.2266 254.653 33.3317C255.196 31.7657 256.314 30.5513 258.488 29.1132C260.469 27.8668 260.789 27.0039 259.99 25.342C259.287 23.84 258.839 23.6801 257.529 24.5111C256.922 24.8946 256.346 25.1822 256.219 25.1822C255.739 25.1822 256.091 24.1276 256.826 23.4245C258.072 22.1461 258.008 21.5389 256.57 21.4111C255.931 21.3472 255.452 21.1874 255.547 21.0276C255.899 20.4523 255.036 19.4296 253.182 18.1832C251.361 16.9368 250.722 16.1379 251.105 15.5626C251.425 15.0193 252.863 15.275 255.324 16.2337C258.232 17.4162 258.232 17.4162 262.738 14.508L265.966 12.3987L264.943 11.0884C263.665 9.45847 262.227 8.78732 260.853 9.20279C259.67 9.52238 259.67 9.45847 260.501 8.05228C261.172 6.99763 261.172 6.99763 260.533 6.67804C259.574 6.1667 258.967 6.26257 258.743 6.96567C258.552 7.60484 258.552 7.60484 257.689 6.96567C257.209 6.58217 256.314 5.97495 255.707 5.59145C255.036 5.17598 254.461 4.44092 254.237 3.83371C253.726 2.2038 253.374 2.04401 252.288 2.93886C251.68 3.4502 250.945 4.63268 250.434 5.91103C249.443 8.43578 248.325 10.0018 247.398 10.2574C246.407 10.5131 246.343 10.0337 247.11 8.24402C247.494 7.34918 247.717 6.51825 247.59 6.42238C247.494 6.29454 246.727 6.51825 245.96 6.90175C245.161 7.28526 244.426 7.60484 244.362 7.60484C244.298 7.60484 244.586 7.06155 245.033 6.42238C245.576 5.59145 245.768 4.98422 245.64 4.377C245.48 3.6739 245.576 3.48216 246.183 3.32236C246.599 3.22649 247.206 3.13062 247.59 3.13062C248.453 3.13062 249.411 2.07597 249.252 1.30896C249.188 0.989365 248.676 0.573898 248.037 0.350189C246.951 -0.00135803 243.819 -0.129196 242.38 0.158432ZM108.697 139.914C109.464 141.417 109.464 141.512 108.888 141.512C108.473 141.512 107.738 139.978 107.738 139.084C107.738 138.348 108.025 138.572 108.697 139.914Z" fill="#8F8F8F"/>
<path d="M218.955 6.00694C218.955 6.90179 219.626 8.24406 220.074 8.24406C220.553 8.24406 221.512 7.22138 221.512 6.71004C221.512 6.32653 219.914 5.36777 219.275 5.36777C219.115 5.36777 218.955 5.6554 218.955 6.00694Z" fill="#8F8F8F"/>
<path d="M189.776 18.4389C189.68 18.7904 189.233 19.1419 188.625 19.2698C188.082 19.3976 187.635 19.6213 187.635 19.8131C187.635 20.1966 189.488 21.9863 189.872 21.9863C190.479 21.9863 191.15 20.9316 191.15 20.0368C191.15 18.311 190.128 17.1285 189.776 18.4389Z" fill="#8F8F8F"/>
<path d="M242.924 19.6214C241.262 20.5801 239.313 21.5389 238.61 21.7307C237.907 21.9224 237.076 22.3059 236.788 22.5616C235.861 23.3286 234.711 25.5657 233.784 28.2503C233.081 30.3595 232.921 31.2863 232.953 33.907L232.985 37.0389L232.026 37.5822C229.629 38.8926 228.543 40.3627 228.095 42.8235C227.967 43.4946 227.776 44.0379 227.68 44.0379C227.552 44.0379 226.082 43.239 224.356 42.2802C222.662 41.3214 220.873 40.5225 220.361 40.5225C219.882 40.5225 218.827 40.9379 218.028 41.4493C215.951 42.7596 214.8 42.9194 213.107 42.1843C211.413 41.4493 210.007 39.7874 207.482 35.7286C205.756 32.9163 205.564 32.6925 204.701 32.7884C203.104 32.9802 202.241 33.7472 202.4 34.8018C202.592 36.0163 202.305 36.1761 200.834 35.7606C200.131 35.5688 199.524 35.5369 199.364 35.6967C198.821 36.24 202.049 39.2441 206.651 42.5359C212.244 46.5627 215.312 49.5668 216.718 52.4751C217.677 54.3926 217.805 54.9998 217.996 58.4833C218.188 61.5194 218.348 62.4462 218.763 62.7339C219.147 63.0215 219.275 63.6287 219.275 65.0349C219.275 66.4411 219.498 67.4638 220.106 68.806C220.905 70.5638 220.937 70.8195 220.681 73.4081C220.521 74.9102 220.425 77.6586 220.425 79.5123C220.425 82.6442 220.489 83.0277 221.48 85.137C222.694 87.8216 224.196 89.3875 226.625 90.602C227.712 91.1453 228.543 91.8484 228.798 92.3597C229.31 93.4783 230.109 97.9206 230.205 100.445L230.3 102.363H228.639C227.169 102.363 226.849 102.491 225.826 103.481C225.187 104.089 223.238 106.677 221.512 109.234C218.092 114.283 216.878 115.658 215.024 116.425C213.139 117.192 210.678 121.027 210.646 123.168C210.646 124.446 210.23 124.798 208.121 125.245C206.395 125.597 206.14 125.885 205.724 127.802C205.628 128.281 204.957 129.432 204.254 130.359C203.551 131.318 202.88 132.372 202.784 132.724C202.688 133.075 202.912 134.577 203.263 136.079C203.647 137.581 203.934 139.819 203.934 141.065C203.934 142.727 204.158 143.845 204.733 145.284C205.628 147.521 205.724 149.215 205.085 151.739C204.478 154.168 203.807 160.464 204.062 161.455C204.318 162.477 205.085 162.893 207.386 163.181C209.176 163.404 209.208 163.436 209.208 164.459C209.208 166.089 209.975 166.312 212.372 165.514C213.458 165.13 214.449 164.842 214.577 164.842C214.705 164.842 214.705 165.673 214.609 166.696C214.385 168.741 214.8 169.956 215.695 169.956C217.229 169.956 225.347 167.623 227.392 166.6C228.639 165.993 230.492 165.354 231.451 165.194C232.41 165.034 234.519 164.395 236.149 163.756C237.971 163.021 240.016 162.509 241.646 162.318C243.627 162.094 244.522 161.838 245.481 161.167C246.951 160.144 257.977 148.224 261.013 144.389C263.921 140.681 266.957 136.271 268.044 134.162C269.961 130.423 269.067 127.451 265.232 124.862C262.93 123.296 261.045 121.474 259.703 119.493C258.936 118.374 258.84 118.087 259.223 117.863C260.661 117.064 262.483 115.498 262.803 114.827C263.314 113.708 262.899 112.622 261.301 110.832C259.894 109.234 259.83 109.138 259.894 107.284C259.958 105.75 259.83 105.207 259.255 104.504C258.073 103.002 257.849 102.139 257.689 98.336C257.529 93.9577 257.977 91.369 259.095 90.1545C260.47 88.6844 260.246 87.8216 256.283 77.8184L253.375 70.5638L254.621 68.5504C255.292 67.4638 256.667 65.0029 257.689 63.0854L259.511 59.6339L258.201 57.4926C256.571 54.8081 255.037 53.2101 252.959 52.0276C251.937 51.4524 251.202 50.7812 250.978 50.206C249.827 47.2658 249.668 44.3895 250.498 41.8008C250.914 40.4905 250.946 40.0111 250.658 39.5317C250.115 38.6689 250.179 38.3173 251.138 36.9431C251.713 36.1121 251.969 35.3451 251.937 34.5462C251.905 33.7152 252.288 32.6606 253.215 30.9987C255.58 26.7162 254.909 24.6709 249.731 20.3884C248.038 18.9822 246.504 17.8636 246.312 17.8636C246.12 17.8956 244.586 18.6946 242.924 19.6214Z" fill="#8F8F8F"/>
<path d="M184.76 23.5843C184.568 23.9039 184.344 24.8627 184.248 25.6616C184.057 26.8761 184.121 27.0998 184.568 27.0998C185.335 27.0998 186.677 25.6616 186.677 24.8627C186.677 23.2008 185.431 22.3379 184.76 23.5843Z" fill="#8F8F8F"/>
<path d="M189.967 23.776C188.944 25.374 189.552 29.4967 190.83 29.4967C191.725 29.4967 192.46 27.4193 192.364 25.1822C192.268 23.2008 192.236 23.1049 191.405 23.009C190.766 22.9451 190.415 23.1368 189.967 23.776Z" fill="#8F8F8F"/>
<path d="M179.837 28.41C178.974 29.0811 177.855 32.1812 178.175 33.044C178.59 34.1306 181.243 32.7564 181.243 31.4461C181.243 31.0306 181.467 30.5193 181.722 30.2956C182.585 29.5605 182.138 27.7389 181.051 27.7389C180.86 27.7389 180.316 28.0265 179.837 28.41Z" fill="#8F8F8F"/>
<path d="M197.031 36.3998C196.935 36.5916 197.063 37.5823 197.382 38.6049L197.957 40.4905L196.935 42.5679C196.072 44.3575 195.976 44.773 196.328 45.3163C196.679 45.8277 196.647 46.1153 196.2 46.8184C195.177 48.5122 194.73 48.5761 192.269 47.5215C191.054 46.9782 189.105 46.339 187.954 46.1153C186.548 45.7957 185.717 45.4442 185.43 44.9967C184.886 44.1978 184.247 44.1658 183.959 44.9008C183.864 45.2204 183.608 46.7545 183.448 48.3204C183.129 51.2926 182.266 53.8174 181.403 54.1369C181.115 54.2648 180.156 53.9452 179.262 53.4658L177.664 52.6029L176.833 53.2101C176.002 53.8493 175.043 55.4792 173.221 59.4741C172.39 61.2957 172.103 61.6792 171.304 61.839C170.792 61.9349 170.281 62.1586 170.185 62.3184C170.089 62.4463 170.537 63.5329 171.176 64.6834C171.975 66.1215 172.295 67.0164 172.167 67.4958C172.071 67.9112 171.112 69.5731 170.057 71.171C167.565 75.0061 166.638 76.8597 166.095 79.1927C165.519 81.5896 165.296 81.8772 163.41 82.5803C160.789 83.5391 160.757 83.635 160.278 89.3236C159.799 95.2041 159.415 96.834 157.274 101.852C155.228 106.773 155.133 107.061 156.059 107.476C156.475 107.668 157.05 108.435 157.402 109.266C158.073 110.96 157.945 112.302 156.954 113.964L156.315 115.019L153.087 114.795L149.891 114.571L148.198 116.329C145.992 118.598 145.193 120.675 144.746 125.341C144.394 129.144 144.618 139.531 145.161 143.909C145.513 146.626 145.769 147.169 147.91 149.79C149.06 151.196 149.22 151.611 149.092 152.474C148.773 154.2 147.878 155.702 146.983 156.15C145.928 156.629 145.96 156.533 146.6 159.314C147.143 161.678 147.047 165.034 146.376 167.175C146.152 167.847 145.417 168.965 144.746 169.668C143.851 170.563 143.532 171.202 143.532 171.905C143.532 172.481 143.308 173.088 143.052 173.28C142.701 173.535 142.477 174.654 142.285 177.179C141.87 182.292 140.943 183.698 139.121 182.004L138.322 181.301L138.514 183.73C138.929 188.556 140.687 193.701 144.874 202.043C145.928 204.184 147.271 206.613 147.846 207.507C148.421 208.402 148.997 209.745 149.092 210.576C149.348 212.205 148.901 214.666 148.293 215.018C148.038 215.21 148.293 216.009 149.284 217.99C150.211 219.844 150.563 220.93 150.403 221.378C150.147 222.241 150.467 223.231 151.074 223.455C151.617 223.679 156.571 222.464 157.21 221.985C157.402 221.793 157.593 221.058 157.593 220.291C157.593 217.734 158.488 216.296 160.086 216.296C160.502 216.296 160.853 215.945 161.077 215.305L161.429 214.315L164.784 214.538C168.683 214.794 168.715 214.794 170.057 212.142C171.176 209.936 171.847 207.603 172.295 204.471C172.486 203.161 172.838 201.052 173.093 199.837C173.317 198.591 173.669 195.938 173.892 193.925C174.468 187.757 174.596 187.437 177.472 184.433C178.942 182.899 179.965 181.557 179.965 181.173C179.965 180.406 180.444 180.279 180.732 180.982C180.891 181.429 181.019 181.429 181.85 180.982C183.033 180.406 183.8 179.32 183.8 178.329C183.8 177.722 183.896 177.658 184.407 177.946C186.229 178.904 187.219 177.754 185.717 176.348C185.206 175.868 184.758 175.325 184.758 175.165C184.758 175.005 185.238 174.654 185.813 174.366C187.443 173.599 188.913 172.193 188.913 171.458C188.913 169.221 182.425 161.934 179.645 161.007C177.376 160.24 176.961 159.09 176.929 153.337C176.929 148.863 176.992 148.575 178.143 144.932C179.325 141.161 179.613 139.179 179.006 138.796C178.271 138.349 178.782 137.358 180.476 136.079C181.658 135.185 182.425 134.29 182.809 133.427C184.183 130.263 190.128 124.127 194.985 120.899C198.82 118.31 199.14 117.991 200.706 114.763C201.409 113.325 202.464 111.599 203.071 110.928C205.34 108.339 205.34 108.339 203.934 106.773C202.272 104.983 202.24 103.801 203.774 101.021C204.381 99.902 204.893 98.5598 204.893 98.0804C204.893 97.1855 205.436 96.4185 208.408 92.903C209.143 92.0721 209.463 91.2412 209.718 89.7391C210.102 87.3422 210.23 87.0865 210.869 87.3102C211.156 87.4381 211.412 87.2783 211.508 86.8628C211.732 86.0638 211.764 86.0638 213.649 87.0226C214.928 87.6618 215.695 87.8216 217.74 87.8216C219.785 87.8216 220.297 87.7257 220.457 87.3102C220.552 87.0226 220.329 85.4566 219.945 83.8587C219.21 80.7267 219.082 77.9463 219.626 75.6772C220.233 73.0246 220.073 70.5638 219.146 68.6463C218.635 67.5277 218.315 66.3452 218.315 65.3545C218.315 64.5236 218.187 63.8524 218.028 63.8524C217.548 63.8524 217.356 62.9576 217.197 59.2823C217.069 57.3009 216.845 55.1277 216.653 54.4246C215.854 51.2926 213.074 48.1926 207.449 44.1019C202.815 40.7462 201.121 39.372 199.428 37.5823C197.926 36.0163 197.446 35.7606 197.031 36.3998Z" fill="#8F8F8F"/>
<path d="M163.442 38.9245C163.218 39.2441 162.388 39.8193 161.589 40.1709C160.534 40.6503 160.15 41.0018 160.15 41.4812C160.15 42.2163 160.694 42.1843 162.483 41.2575C162.963 41.0338 163.346 40.9059 163.346 40.9699C163.346 41.0657 162.931 41.8327 162.388 42.6637C161.077 44.709 161.109 45.1245 162.643 44.8369C163.282 44.709 163.826 44.5812 163.826 44.5812C163.826 44.5493 164.081 43.8462 164.369 43.0152C164.784 41.8647 164.816 41.2255 164.593 40.1389C164.177 38.4132 163.922 38.1255 163.442 38.9245Z" fill="#8F8F8F"/>
<path d="M167.596 39.4039C167.245 39.6596 166.797 40.4905 166.606 41.2576C166.414 42.0246 165.935 42.9194 165.583 43.239C165.231 43.5586 164.944 44.1978 164.944 44.6772C164.944 45.7957 164.4 46.2751 163.058 46.2751C160.885 46.3071 157.913 48.1926 158.328 49.3112C158.744 50.3019 160.533 49.7906 162.291 48.1287C162.834 47.5854 163.442 47.2658 163.602 47.3617C163.793 47.4576 164.592 47.0421 165.391 46.4349C166.222 45.8277 166.925 45.3163 167.021 45.3163C167.117 45.3163 166.989 45.8277 166.733 46.4349C165.966 48.2565 166.829 47.8411 169.897 44.9009C172.55 42.3442 172.646 42.1844 172.55 40.9699C172.422 39.3081 171.463 39.1163 170.281 40.4905C169.258 41.705 169.098 41.7369 169.098 40.5545C169.098 39.3081 168.459 38.7967 167.596 39.4039Z" fill="#8F8F8F"/>
<path d="M194.121 165.386C193.514 165.609 193.61 167.367 194.217 167.623C194.888 167.879 195.623 166.952 195.623 165.897C195.623 165.162 195.08 164.97 194.121 165.386Z" fill="#8F8F8F"/>
<path d="M211.476 167.111C210.549 167.847 210.422 168.198 211.093 168.454C211.668 168.677 213.202 167.527 213.202 166.888C213.202 166.249 212.467 166.344 211.476 167.111Z" fill="#8F8F8F"/>
<path d="M230.427 174.845C229.98 175.101 228.446 175.357 227.071 175.453C224.419 175.612 222.086 176.475 221.702 177.466C221.606 177.722 220.871 178.233 220.104 178.585C218.219 179.384 217.803 180.151 218.315 181.972C218.538 182.739 218.922 183.538 219.146 183.73C219.753 184.241 219.689 184.561 218.986 184.753C218.155 184.976 218.379 185.743 219.881 187.725C221.095 189.355 222.31 189.898 222.661 189.003C222.949 188.268 223.971 188.364 224.419 189.163C224.611 189.578 224.674 190.409 224.579 191.208C224.291 192.998 224.93 193.605 226.4 192.998C228.35 192.199 229.053 192.231 230.843 193.158C231.769 193.669 233.559 195.043 234.805 196.226C236.052 197.44 237.266 198.399 237.458 198.399C237.65 198.399 238.193 198.175 238.609 197.888C239.152 197.536 239.759 197.44 240.462 197.568C241.804 197.824 243.37 196.833 244.233 195.235C244.777 194.213 244.777 194.117 244.137 192.519C242.667 188.875 243.53 183.826 246.375 179.032L247.717 176.827L243.786 176.635C240.973 176.507 239.088 176.22 237.011 175.612C233.08 174.494 231.45 174.302 230.427 174.845Z" fill="#8F8F8F"/>
<path d="M210.997 181.589C210.422 182.26 211.093 183.379 212.084 183.379C213.075 183.379 213.746 182.26 213.171 181.589C212.979 181.333 212.468 181.141 212.084 181.141C211.701 181.141 211.189 181.333 210.997 181.589Z" fill="#8F8F8F"/>
<path d="M211.091 186.926C210.547 187.086 209.876 187.469 209.557 187.821C208.854 188.62 208.981 190.218 209.78 190.346C210.484 190.473 213.616 188.939 214.383 188.108C214.926 187.501 214.926 187.469 214.319 187.022C213.647 186.511 212.593 186.479 211.091 186.926Z" fill="#8F8F8F"/>
<path d="M33.6572 188.556C33.3056 189.483 32.8582 191.049 32.6025 192.007C32.1551 193.989 31.6438 194.756 30.6211 195.012C29.7262 195.235 28.7994 196.769 28.7994 198.016C28.7994 199.678 29.3108 200.54 30.3974 200.732L31.3881 200.956L30.6211 201.979C29.6943 203.193 28.1922 206.165 27.8407 207.412C27.6489 207.987 27.7448 208.466 28.0644 208.914C28.4798 209.521 28.4479 209.585 27.8726 209.585C26.1468 209.585 25.6675 210.767 27.0097 211.662C28.1922 212.461 29.2149 211.982 31.3881 209.649C32.4747 208.498 33.3056 207.667 33.2097 207.859C31.452 211.534 31.0365 212.525 30.717 213.675C30.4613 214.73 30.4613 215.337 30.7489 216.2C31.1005 217.319 31.1324 217.319 31.484 216.648C31.8355 216.04 31.9314 216.008 32.4747 216.456C32.8262 216.712 33.7211 216.935 34.4881 216.935H35.8304L35.6386 218.661C35.5108 219.78 35.5427 220.451 35.7984 220.579C36.4376 220.994 36.15 222.592 35.0314 224.957C34.4242 226.267 33.9128 227.61 33.9128 227.961C33.9128 228.696 36.3098 231.221 36.5335 230.773C36.6293 230.646 36.7891 230.102 36.917 229.623C37.0768 228.92 37.2685 228.76 37.684 228.92C39.5056 229.687 39.9531 229.783 40.7201 229.623C41.4871 229.399 41.7747 229.176 42.7974 227.961C43.2129 227.45 46.3768 227.258 46.3768 227.737C46.3768 227.897 45.9613 228.409 45.418 228.92C42.8613 231.381 43.0531 235.471 45.7376 235.855C46.185 235.919 46.6964 236.302 46.9201 236.75C47.5273 237.932 47.4314 241.096 46.7923 242.183C46.3129 243.046 46.3129 243.142 46.7923 243.845C48.4222 246.082 48.3902 245.986 47.9747 246.529C47.1118 247.552 46.3768 247.712 45.6417 247.041C44.1397 245.634 40.6562 245.922 39.1541 247.52C38.0994 248.67 38.1634 249.437 39.3778 249.693C40.0809 249.853 40.3046 250.045 40.1448 250.396C40.0489 250.684 40.1768 251.163 40.4644 251.451C40.9118 251.93 40.9118 252.154 40.4005 253.656C39.6335 256.021 37.8438 257.97 35.5747 258.801C34.584 259.185 33.5932 259.632 33.3695 259.824C32.9541 260.176 32.8262 261.965 33.1458 263.18L33.3376 263.851L34.8077 263.084C35.7025 262.604 36.5654 262.349 36.9489 262.477C37.3005 262.573 38.483 262.796 39.6015 262.956C41.2314 263.18 41.8386 263.435 42.8613 264.362C44.0438 265.417 44.1716 265.449 45.1624 265.129C46.4407 264.714 47.751 263.851 49.2211 262.509L50.2758 261.518L49.7964 262.477C48.9974 264.043 47.3995 266.088 46.5366 266.663C46.0892 266.951 44.6191 267.302 43.2768 267.462C41.3593 267.686 40.4964 267.942 39.5056 268.645C37.4283 270.083 31.5798 277.369 32.0912 277.849C32.219 277.977 33.3376 277.625 34.6159 277.082C37.7799 275.708 38.3232 275.644 39.9531 276.219C42.0623 276.954 42.4139 276.858 43.3087 275.324C43.7562 274.557 44.4912 273.63 44.9067 273.215C45.9294 272.256 47.9108 272 49.1572 272.672C49.7005 272.927 50.7232 273.247 51.4582 273.375C52.6407 273.566 52.7686 273.502 52.7686 272.927C52.7686 272.032 53.3438 271.936 61.2377 271.585C68.3325 271.265 69.7068 271.042 71.848 269.795C73.0944 269.092 74.5006 267.654 74.5006 267.111C74.5006 266.983 73.6697 266.759 72.6789 266.663C69.1315 266.248 68.1088 265.257 69.9944 264.17C70.5057 263.883 70.9851 263.34 71.049 262.924C71.1129 262.445 71.816 261.71 73.0305 260.879C77.313 257.875 77.9841 253.017 74.3408 251.419C72.2954 250.524 69.5789 250.524 68.5882 251.451C68.0129 251.994 67.6294 252.09 66.8305 251.93C65.4882 251.643 65.3284 251.035 66.3191 249.757C68.4284 247.009 67.3098 244.516 63.283 242.95C61.2696 242.183 61.1737 241.991 62.1005 241C63.2511 239.754 64.2737 237.996 64.2737 237.197C64.2737 236.079 63.1552 234.992 60.7902 233.746C59.5438 233.106 58.3294 232.244 58.0418 231.86C57.5624 231.221 56.1562 226.938 55.3253 223.679C54.8778 221.985 52.6407 219.46 50.3716 218.182C49.0294 217.415 48.4222 217.255 46.4407 217.255C44.0758 217.255 41.6788 216.584 42.0304 216.008C42.1582 215.849 42.7654 215.529 43.4366 215.337C46.7283 214.251 49.1892 212.11 46.5046 212.589C45.8974 212.717 45.1624 212.908 44.9067 213.004C43.884 213.388 44.5551 212.557 46.1211 211.502C48.2624 210.032 49.9242 207.891 51.65 204.344C53.3758 200.796 54.0789 198.175 53.3758 197.76C51.7459 196.737 44.683 197.217 41.4551 198.591C37.9397 200.061 37.7799 199.997 39.218 197.504C39.6654 196.737 40.1129 195.555 40.1768 194.916C40.2407 193.925 40.6881 193.382 43.2448 190.985C46.0892 188.3 46.185 188.172 45.6417 187.629C45.1624 187.118 44.3314 187.054 39.6974 186.958L34.2963 186.862L33.6572 188.556Z" fill="#8F8F8F"/>
<path d="M226.817 193.925C225.954 194.276 224.932 194.852 224.516 195.235C223.845 195.842 223.781 196.162 223.845 198.687C223.909 201.18 223.813 201.595 223.046 202.937C221.863 204.951 219.754 206.005 218.06 205.462C216.399 204.951 215.983 204.535 214.992 202.618C213.842 200.349 211.637 198.08 210.55 198.08C209.272 198.08 206.14 199.358 205.373 200.189C204.893 200.7 204.606 201.563 204.446 202.746C204.35 203.704 203.711 205.846 203.072 207.443C202.273 209.553 201.889 211.055 201.761 212.749L201.602 215.146L203.072 214.251C206.843 212.078 207.578 211.822 210.358 211.822C211.828 211.822 215.376 212.046 218.22 212.333C223.397 212.845 223.397 212.845 224.708 212.173C225.411 211.822 226.05 211.502 226.146 211.502C226.21 211.502 226.945 212.078 227.744 212.781C228.543 213.484 229.438 214.059 229.693 214.059C230.652 214.059 232.218 215.146 234.647 217.447C236.021 218.757 237.268 219.812 237.427 219.812C237.587 219.812 238.131 219.492 238.578 219.14C239.153 218.693 240.144 218.373 241.422 218.246C242.509 218.118 243.755 217.798 244.203 217.479C245.257 216.744 247.047 214.442 247.271 213.516C247.718 211.758 246.472 208.051 245.193 207.348C244.618 207.06 244.586 206.772 244.746 204.184L244.938 201.339L243.595 200.381C241.582 198.91 240.272 198.559 238.61 199.038C236.948 199.486 236.533 199.262 233.656 196.29C231.994 194.596 229.917 193.286 228.862 193.318C228.607 193.318 227.68 193.605 226.817 193.925Z" fill="#8F8F8F"/>
<path d="M187.794 194.181C186.036 195.267 184.215 197.888 183.671 200.093C183.448 201.052 183.959 203.513 184.407 203.513C184.982 203.513 186.292 202.202 186.803 201.148C187.091 200.54 187.315 199.39 187.315 198.591C187.315 197.121 187.475 196.833 189.2 195.427C189.967 194.82 189.999 193.829 189.232 193.701C188.977 193.637 188.306 193.861 187.794 194.181Z" fill="#8F8F8F"/>
<path d="M131.546 198.911C131.034 199.166 130.012 199.933 129.309 200.604C127.167 202.618 126.304 203.129 124.515 203.513C123.588 203.704 122.214 204.28 121.511 204.791C119.433 206.325 119.146 207.156 118.986 212.653C118.762 219.492 118.986 220.802 120.52 222.336C121.479 223.295 121.798 223.87 121.958 225.117C122.086 225.98 122.246 226.938 122.342 227.258C122.565 228.121 123.78 228.76 125.505 228.952C126.752 229.08 127.295 228.984 128.158 228.44C128.893 227.993 129.117 227.673 128.861 227.514C127.423 226.619 127.615 219.812 129.117 219.396C129.468 219.332 129.788 218.917 129.852 218.501C129.916 218.022 130.235 217.702 130.747 217.574C131.418 217.415 131.578 217.159 131.737 215.977C131.961 214.411 133.016 213.292 133.975 213.58C134.55 213.771 136.18 212.525 136.18 211.886C136.18 211.726 135.604 211.502 134.933 211.374C133.048 211.087 132.345 210 132.345 207.475C132.345 206.325 132.632 204.375 132.984 203.129C133.719 200.476 133.783 199.326 133.24 198.783C132.76 198.303 132.696 198.303 131.546 198.911Z" fill="#8F8F8F"/>
<path d="M224.962 213.164C224.163 213.803 223.972 213.803 220.648 213.452C218.762 213.26 214.863 213.1 212.019 213.068C206.266 213.068 205.723 213.196 203.965 215.178C203.166 216.104 202.975 216.584 202.975 217.83C202.975 219.716 203.742 222.816 204.573 224.126C205.403 225.468 207.385 226.523 209.079 226.523C210.9 226.555 213.106 227.546 213.585 228.6C213.873 229.207 213.873 229.783 213.585 230.997C213.393 231.86 213.297 232.755 213.361 232.979C213.457 233.202 214.16 233.81 214.959 234.289C215.726 234.8 216.685 235.695 217.068 236.302C218.059 237.9 219.753 238.667 222.342 238.667C224.291 238.667 224.515 238.603 225.378 237.677C225.857 237.133 226.816 236.558 227.423 236.398C229.788 235.727 232.057 232.947 232.537 230.134C232.728 228.984 232.92 228.696 233.911 228.217C234.646 227.865 235.157 227.354 235.253 226.843C235.381 226.331 235.764 225.948 236.372 225.724C237.65 225.34 237.714 225.245 237.171 224.925C236.883 224.733 236.723 224.158 236.755 223.295C236.787 222.528 236.563 221.473 236.212 220.802C234.838 218.086 231.29 215.018 229.564 215.018C229.085 215.018 228.286 214.538 227.519 213.739C226.816 213.036 226.145 212.461 226.017 212.493C225.921 212.493 225.442 212.781 224.962 213.164Z" fill="#8F8F8F"/>
<path d="M246.694 216.871C244.393 219.013 243.786 219.3 241.932 219.045C240.494 218.853 240.366 218.885 239.599 219.907C238.545 221.282 238.225 222.816 238.769 223.838C239.312 224.829 238.864 226.299 237.97 226.459C236.372 226.779 233.336 230.07 233.336 231.509C233.336 231.892 232.984 232.659 232.537 233.17C231.929 233.905 231.77 234.353 231.929 235.056C232.121 235.983 232.057 236.015 230.811 236.238C228.67 236.558 226.976 237.389 226.56 238.284C226.049 239.338 224.739 239.69 222.374 239.498C219.785 239.243 219.274 239.594 219.274 241.544C219.274 242.407 219.497 244.068 219.785 245.283C220.073 246.465 220.328 248.543 220.328 249.885C220.36 252.697 219.849 253.784 218.411 254.167C216.206 254.711 216.142 255.957 218.187 257.811C219.593 259.089 219.657 259.217 219.465 260.463C219.114 262.7 220.264 263.244 222.406 261.838C224.163 260.687 225.921 260.431 231.322 260.399C236.723 260.399 240.654 260.975 242.028 261.997C243.307 262.956 245.001 263.212 252.351 263.755C260.596 264.33 260.884 264.362 261.875 265.385C262.77 266.28 262.802 266.28 263.217 263.755C263.664 261.198 265.39 259.217 268.011 258.258C269.513 257.715 269.609 257.587 269.705 256.405C269.801 255.158 269.513 253.592 268.586 250.588C268.33 249.661 268.171 248.575 268.299 248.159C268.554 247.041 269.705 246.625 271.015 247.168C272.389 247.744 273.412 247.744 274.658 247.104C276.832 245.986 277.247 245.187 276.192 244.196C275.841 243.877 275.521 243.205 275.457 242.662C275.361 241.767 275.234 241.703 273.604 241.448C271.558 241.128 271.175 240.873 270.887 239.722C270.791 239.275 270.152 238.252 269.449 237.485C267.819 235.631 265.262 230.518 265.23 229.08C265.23 228.472 265.326 227.322 265.454 226.523C265.838 223.934 263.952 220.994 260.98 219.62C259.03 218.693 258.423 218.661 257.401 219.492C256.09 220.515 255.387 220.355 255.387 219.013C255.387 217.606 254.269 216.744 252.767 217.063C252 217.223 251.68 217.127 251.328 216.616C250.977 216.136 250.657 216.04 250.05 216.168C249.443 216.328 249.091 216.232 248.804 215.817C248.42 215.305 248.26 215.401 246.694 216.871Z" fill="#8F8F8F"/>
<path d="M143.851 216.744C141.965 217.447 138.897 219.077 138.418 219.652C138.066 220.099 138.066 220.419 138.545 221.729C138.865 222.592 139.025 223.423 138.929 223.615C138.513 224.254 144.49 228.536 145.033 227.993C145.129 227.897 144.969 227.45 144.681 227.034C143.978 225.916 144.042 225.66 145.129 225.085L146.088 224.573L145.385 223.647C144.458 222.368 144.841 221.026 146.247 220.77C147.142 220.611 147.206 220.483 147.174 219.268C147.142 217.766 146.343 216.296 145.512 216.328C145.225 216.328 144.458 216.52 143.851 216.744Z" fill="#8F8F8F"/>
<path d="M16.0802 225.404C12.9163 227.002 12.8204 227.098 11.7338 229.239C10.807 231.061 11.0627 231.253 13.875 230.742C16.1761 230.294 17.4225 229.239 18.7008 226.683C20.139 223.711 19.8194 223.519 16.0802 225.404Z" fill="#8F8F8F"/>
<path d="M200.706 226.587C199.204 228.153 199.236 228.313 201.057 228.153C201.505 228.121 202.048 227.865 202.272 227.578C202.687 227.002 202.815 225.34 202.431 225.181C202.272 225.117 201.505 225.756 200.706 226.587Z" fill="#8F8F8F"/>
<path d="M161.107 225.724C161.107 226.331 162.258 227.482 162.865 227.482C163.504 227.482 163.472 227.098 162.673 226.076C161.97 225.149 161.107 224.957 161.107 225.724Z" fill="#8F8F8F"/>
<path d="M23.1097 226.203C21.288 226.938 16.6859 230.869 15.5354 232.691C14.9921 233.554 14.9921 233.586 15.823 234.768C17.3251 236.846 17.9643 237.517 18.188 237.197C19.0189 235.951 20.9684 233.874 21.288 233.874C21.5117 233.874 21.8633 234.321 22.087 234.864C22.5983 236.111 24.4839 237.389 25.8262 237.389C26.4334 237.389 27.2004 237.069 27.7756 236.59C29.4695 235.184 30.2684 231.956 28.9262 231.956C28.3829 231.956 27.9674 231.029 27.6798 229.271C27.5519 228.441 27.1045 227.642 26.4014 226.938C25.3148 225.852 24.4839 225.66 23.1097 226.203Z" fill="#8F8F8F"/>
<path d="M122.247 229.911C122.599 230.422 123.238 231.381 123.685 232.084L124.484 233.33L123.462 234.193C122.279 235.184 122.215 235.344 123.078 235.567C123.43 235.663 123.717 235.983 123.717 236.27C123.717 237.357 127.712 241.927 130.109 243.589L130.908 244.164L129.79 243.94C128.511 243.685 126.402 242.662 126.114 242.183C125.827 241.703 123.749 240.713 122.471 240.425L121.416 240.201L121.512 242.023C121.608 243.429 121.512 243.94 121.129 244.196C120.394 244.676 118.38 244.196 118.189 243.493C117.933 242.534 113.874 242.087 112.724 242.918C112.212 243.301 112.212 243.525 112.532 245.379C113.235 249.214 112.212 252.921 110.327 253.368C109.144 253.656 109.176 254.167 110.455 255.158C111.477 255.925 111.605 256.181 111.445 257.012C111.126 258.546 109.719 260.08 107.866 260.911L106.14 261.678V263.499C106.14 264.522 105.916 266.312 105.597 267.462C105.085 269.54 105.085 269.603 105.789 271.617C107.674 276.794 107.546 276.251 106.843 277.369L106.204 278.392L107.131 280.342C107.642 281.428 108.058 282.802 108.058 283.378C108.058 285.199 109.176 286.03 114.417 288.076C116.974 289.098 119.115 289.929 119.147 289.961C119.211 289.993 118.796 290.824 118.252 291.815C117.102 293.956 115.472 298.334 115.089 300.284C114.769 302.074 115.025 302.17 118.412 301.498C122.024 300.795 124.357 300.763 124.74 301.402C124.932 301.754 125.283 301.882 125.891 301.754C126.498 301.626 127.521 301.978 129.438 302.937L132.123 304.279L135.191 303.735C136.884 303.416 139.761 302.841 141.614 302.393C145.673 301.466 147.015 301.434 148.645 302.265C150.147 303.032 150.211 302.873 149.285 300.188C148.933 299.133 148.741 298.015 148.837 297.567C148.965 297.12 150.339 295.682 152.033 294.212L155.037 291.623L151.106 287.564C146.952 283.218 145.098 280.597 145.066 278.903C145.034 278.073 145.258 277.657 146.153 276.89C147.655 275.612 154.302 272.128 156.955 271.297C159.575 270.434 161.269 269.316 161.94 268.006C162.611 266.727 162.42 264.49 161.269 259.76C160.214 255.35 159.32 253.177 157.945 251.675L156.827 250.428L157.402 248.958C158.776 245.315 158.68 242.726 157.082 239.562C156.22 237.836 155.357 237.261 154.11 237.485C153.567 237.613 152.928 237.453 152.416 237.133C148.709 234.609 148.517 234.545 147.719 234.736C146.28 235.056 141.838 237.485 140.56 238.635C139.473 239.626 139.249 239.69 137.907 239.498C135.031 239.115 134.36 237.964 136.341 236.782C138.291 235.631 137.843 235.312 133.816 235.056C132.282 234.928 131.483 234.736 131.196 234.385C131.004 234.097 130.397 233.873 129.885 233.873C128.543 233.873 128.351 233.522 129.31 232.787C130.876 231.54 129.47 230.454 125.283 229.719C124.165 229.527 122.886 229.271 122.439 229.175L121.672 228.984L122.247 229.911Z" fill="#8F8F8F"/>
<path d="M178.686 231.189C175.267 232.212 173.509 232.979 171.496 234.385C170.537 235.024 167.789 236.206 164.944 237.229C162.228 238.188 159.735 239.243 159.383 239.594C158.808 240.201 158.776 240.361 159.16 242.502C159.607 244.995 159.447 246.497 158.52 248.319C157.721 249.885 157.753 250.46 158.68 251.419C160.662 253.496 162.515 259.313 163.027 265.033C163.346 268.517 163.538 269.348 164.113 269.348C164.305 269.348 165.072 269.891 165.807 270.594C166.734 271.425 167.789 272 169.067 272.352C170.09 272.64 171.336 273.183 171.815 273.566C172.678 274.238 172.678 274.269 172.007 274.493C171.08 274.845 171.144 275.228 172.454 276.539C174.116 278.168 175.427 277.913 174.947 276.027C174.756 275.388 174.819 275.356 175.682 275.548C178.591 276.219 186.197 280.629 187.827 282.547C189.009 283.985 189.425 284.145 190.319 283.569C191.31 282.93 191.79 283.154 193.643 285.135C194.41 285.934 195.209 286.606 195.465 286.606C195.689 286.606 196.711 286.158 197.702 285.647C199.3 284.816 199.843 284.688 202.144 284.688C205.18 284.688 207.13 285.263 210.549 287.117C211.796 287.82 212.946 288.267 213.074 288.108C213.202 287.98 213.074 287.373 212.787 286.765C211.604 284.305 211.924 283.761 218.06 277.465C221.831 273.598 221.799 273.662 220.457 271.074C219.434 269.092 218.891 266.791 218.475 262.988L218.06 259.057L216.749 257.715C216.014 256.98 215.439 256.245 215.439 256.053C215.439 255.893 216.174 255.03 217.069 254.167C217.964 253.273 218.955 252.026 219.306 251.387C219.913 250.204 219.913 250.173 219.114 246.433C218.347 242.726 216.654 237.005 216.11 236.175C215.631 235.408 210.965 235.12 201.825 235.28C196.903 235.376 192.109 235.535 191.15 235.631C189.616 235.791 189.169 235.695 187.635 234.928C186.165 234.193 185.813 233.81 185.462 232.755C184.599 230.07 183.384 229.815 178.686 231.189Z" fill="#8F8F8F"/>
<path d="M151.201 232.595C151.201 232.787 151.425 233.426 151.649 234.033C152.16 235.216 152.863 235.28 153.438 234.193C153.694 233.714 153.566 233.458 152.927 232.947C152 232.212 151.201 232.084 151.201 232.595Z" fill="#8F8F8F"/>
<path d="M11.3173 234.704L11.4771 236.206L9.39981 235.983C7.48228 235.791 7.32249 235.823 7.16269 236.43C7.0029 237.069 6.97094 237.069 6.23589 236.27C5.373 235.344 4.47815 235.248 3.23175 235.983C2.36887 236.526 1.31422 237.964 1.31422 238.635C1.31422 238.827 1.72969 238.987 2.24103 238.987C4.73382 238.987 4.86166 240.233 2.59258 242.502C1.72969 243.397 0.994635 244.26 0.994635 244.42C0.994635 245.123 2.68845 245.762 5.27712 246.018C6.77919 246.178 8.18538 246.401 8.37713 246.497C8.95239 246.881 8.56888 247.488 7.06682 248.638C5.98021 249.469 5.59671 249.949 5.53279 250.748C5.43691 251.611 5.56475 251.834 6.26784 252.09C6.71527 252.282 7.5462 252.41 8.12146 252.41C9.39981 252.41 8.98435 252.761 6.58743 253.656C3.80701 254.679 3.23175 255.126 3.23175 256.277C3.23175 257.619 2.52866 258.865 0.930717 260.24C0.163704 260.879 -0.187843 261.326 0.0997868 261.23C0.419375 261.134 1.37814 260.975 2.27299 260.847C3.77505 260.655 3.87093 260.687 3.87093 261.358C3.87093 261.774 4.1266 262.125 4.51011 262.221C4.95753 262.349 5.14928 262.668 5.14928 263.308C5.14928 264.043 5.27712 264.234 5.88434 264.234C6.87506 264.234 10.3586 262.541 11.1895 261.646C11.6689 261.102 12.1802 260.943 12.9472 260.975C13.8101 261.039 14.3534 260.783 15.5359 259.76C17.2936 258.258 17.7411 258.002 19.2112 257.683C19.8184 257.555 20.6493 257.172 21.0009 256.82C21.672 256.213 21.7679 256.213 22.7267 256.724C24.0689 257.395 24.4205 257.076 25.3153 254.391C27.137 248.862 26.0823 241.064 23.0462 237.549C22.3751 236.75 21.704 235.791 21.5761 235.408C21.3844 234.736 21.2565 234.8 19.6586 236.59L17.9648 238.476L15.9833 236.334C14.0338 234.193 12.6916 233.234 11.6689 233.234C11.2215 233.234 11.1575 233.49 11.3173 234.704Z" fill="#8F8F8F"/>
<path d="M103.583 245.698C101.826 246.114 101.091 247.392 101.282 249.629C101.314 249.949 101.762 250.556 102.273 251.003C103.328 251.898 104.318 254.103 104.063 254.998C103.711 256.085 102.017 257.203 100.739 257.203C98.9173 257.203 98.3421 256.373 98.2142 253.592C98.1503 252.314 98.0544 251.099 97.9905 250.908C97.7349 250.109 96.9359 250.876 96.5843 252.186C96.4245 252.953 95.4019 255.286 94.3472 257.427L92.4297 261.326L95.0503 261.869L97.639 262.445L95.4658 263.467C94.2513 264.043 93.2287 264.554 93.1647 264.618C93.1328 264.682 94.0596 264.682 95.306 264.618C97.4153 264.49 97.607 264.522 99.6843 265.8C100.867 266.504 102.305 267.271 102.912 267.462C103.903 267.814 104.063 267.782 104.638 267.079C105.149 266.44 105.213 266.024 105.053 264.554C104.638 261.102 104.574 261.358 106.204 260.719C108.249 259.952 109.432 259.057 110.135 257.715L110.742 256.564L109.719 255.51C108.473 254.231 108.473 254.008 109.528 253.017C110.774 251.898 112.212 249.533 112.212 248.639C112.212 247.616 110.678 246.146 109.144 245.73C107.706 245.347 105.213 245.315 103.583 245.698Z" fill="#8F8F8F"/>
<path d="M280.635 256.468C280.379 256.564 279.9 256.852 279.612 257.14C279.229 257.459 278.685 257.555 277.823 257.395C276.832 257.267 276.384 257.363 275.777 257.843C274.818 258.578 272.741 259.089 270.696 259.121C268.459 259.121 266.094 259.952 265.199 261.039C264.592 261.742 264.336 262.509 264.176 264.139C263.793 267.654 263.026 268.357 261.811 266.28C261.14 265.129 261.076 265.129 259.606 265.321C258.487 265.481 257.625 265.353 256.123 264.81C254.173 264.139 254.109 264.139 253.054 264.714C252.16 265.193 251.808 265.225 250.849 264.906C250.242 264.714 248.197 264.394 246.311 264.234C243.435 263.979 242.604 263.787 241.23 262.988C240.303 262.477 238.833 261.901 237.938 261.71C235.158 261.134 229.82 260.943 226.944 261.326C224.675 261.614 223.972 261.869 222.598 262.796C221.703 263.404 220.808 263.915 220.616 263.915C219.977 263.915 219.53 265.225 219.721 266.535C219.849 267.239 220.393 268.677 220.936 269.763C221.735 271.361 221.927 272.096 221.895 273.598C221.831 275.836 221.799 275.899 220.361 276.571C219.178 277.146 215.663 280.757 214.097 283.026L213.138 284.432L213.649 286.446C214.416 289.546 214.384 289.802 213.074 289.578C212.083 289.418 211.891 289.514 211.316 290.441C209.846 292.87 210.326 295.682 212.435 296.896C214.097 297.855 218.219 298.75 221.032 298.75C223.844 298.75 225.506 299.165 225.794 299.901C226.337 301.275 234.55 298.782 236.596 296.609C237.97 295.107 239.025 294.787 242.284 294.787C246.982 294.819 251.936 296.417 254.365 298.686C255.324 299.581 255.387 299.805 255.387 301.722C255.387 303.768 255.387 303.768 256.442 304.055C257.369 304.343 257.497 304.535 257.816 306.101C258.2 308.05 258.615 308.977 259.35 309.616C259.67 309.84 259.862 310.511 259.862 311.246C259.862 312.333 259.99 312.556 260.757 312.844L261.619 313.195L260.661 313.643C260.149 313.867 259.095 314.058 258.392 314.09C257.305 314.09 257.017 313.962 256.89 313.419C256.73 312.876 256.602 312.812 256.091 313.1C254.876 313.739 250.274 321.441 250.274 322.783C250.274 323.358 250.402 323.422 251.329 323.23C253.15 322.911 258.04 320.258 260.213 318.437C262.61 316.455 263.505 315.337 264.08 313.579C264.464 312.46 264.688 312.269 266.253 311.725C267.308 311.374 268.97 311.118 270.408 311.086C272.422 311.054 272.965 311.182 273.86 311.789C275.074 312.684 275.138 313.195 274.083 313.771C273.636 313.994 273.284 314.314 273.284 314.442C273.284 314.857 275.202 315.305 278.558 315.688C285.237 316.487 285.589 317.893 279.9 320.706L277.407 321.952L279.804 323.486C281.146 324.317 282.393 325.276 282.552 325.595C282.744 325.915 282.872 327.097 282.872 328.216C282.872 331.508 283.383 331.668 287.538 329.59C289.104 328.823 290.638 328.152 290.926 328.152C291.916 328.152 292.971 327.481 293.546 326.49L294.122 325.532L296.614 325.755C299.299 325.979 300.865 325.532 301.153 324.413C301.536 322.911 300.801 322.719 297.573 323.582C296.423 323.87 295.112 323.997 294.697 323.902C294.249 323.806 293.003 322.847 291.948 321.76C290.766 320.642 289.711 319.843 289.296 319.843C287.826 319.843 288.689 317.638 291.086 315.305C292.396 313.994 293.323 313.515 297.158 312.013C299.65 311.054 302.015 310.255 302.431 310.255C302.846 310.255 303.677 309.904 304.285 309.488C304.924 309.073 306.618 308.338 308.12 307.858C311.859 306.612 312.466 306.292 312.69 305.238C312.913 304.183 315.79 300.859 317.1 300.188C317.643 299.901 318.762 299.709 319.944 299.741C322.373 299.805 322.725 299.485 323.204 296.928C323.492 295.298 323.492 294.787 323.044 293.669C322.118 291.399 322.501 289.674 324.451 287.213L325.473 285.934L324.706 285.136C323.076 283.378 314.128 279.926 312.37 280.374C311.827 280.501 311.443 280.246 310.612 279.223C307.353 275.164 307.065 275.068 304.508 276.698C302.623 277.881 302.303 277.881 300.865 276.762C299.906 276.059 299.395 275.899 298.085 275.963C297.19 275.963 296.199 275.867 295.879 275.676C295.144 275.292 294.313 273.407 294.569 272.735C294.889 271.937 294.473 270.85 293.387 269.476C292.108 267.878 291.757 267.686 289.711 267.59C288.753 267.558 287.794 267.334 287.538 267.143C286.771 266.504 286.324 263.691 286.739 262.477C287.187 261.294 286.835 260.08 285.684 258.61C284.662 257.331 281.754 256.085 280.635 256.468Z" fill="#8F8F8F"/>
<path d="M93.5151 266.663C90.6069 267.846 90.543 267.846 87.411 267.239C85.3656 266.855 82.9368 268.868 83.1924 270.722C83.2883 271.361 83.4481 271.425 84.9502 271.329C86.5801 271.265 86.644 271.265 87.2512 272.448C88.0182 273.95 88.5935 274.493 90.7028 275.548C92.6203 276.507 93.5151 277.625 93.2914 278.776C93.1956 279.223 93.2275 279.671 93.3873 279.766C93.7389 279.958 94.8255 279.415 96.0079 278.424C97.0945 277.497 97.51 277.465 97.51 278.232C97.51 279.383 99.1719 282.163 100.322 282.93C102.496 284.4 103.774 283.761 103.486 281.428C103.231 279.702 103.87 277.785 104.637 277.849C105.5 277.945 106.235 276.602 105.979 275.452C105.723 274.269 104.445 272.863 103.646 272.863C102.783 272.863 102.4 272.32 102.144 270.626C101.856 268.9 101.345 268.229 99.3956 267.27C98.5966 266.855 97.7657 266.28 97.542 266.024C96.9667 265.353 96.8389 265.353 93.5151 266.663Z" fill="#8F8F8F"/>
<path d="M78.8468 270.626C77.3128 271.393 76.7695 272.128 76.7375 273.375C76.7056 276.922 74.6282 279.702 70.186 282.067C67.5014 283.506 67.3097 283.697 67.2138 284.72C67.054 286.414 66.7024 286.606 63.9859 286.606C60.7261 286.606 58.3931 285.966 57.5303 284.88C57.1787 284.4 56.3158 283.729 55.6127 283.41C54.1746 282.675 54.0787 282.834 54.8457 284.976C55.1014 285.743 55.5488 287.596 55.8045 289.098C56.0921 290.632 56.4117 292.134 56.4756 292.422C56.6354 292.901 56.4436 292.997 55.2612 292.997C53.823 292.997 50.5632 293.445 49.3488 293.828C48.8055 293.988 48.2941 293.668 46.9199 292.39C45.0663 290.632 44.7467 290.505 44.1075 291.272C43.3725 292.166 41.8065 292.774 39.3776 293.029C37.9714 293.189 36.789 293.509 36.5013 293.796C36.0539 294.244 36.1178 294.372 37.2364 295.298C38.4508 296.289 38.4508 296.321 38.291 298.175L38.1312 300.028H39.1859C39.7611 300.028 41.455 300.54 42.9251 301.179C44.3632 301.818 46.6003 302.585 47.8148 302.873C49.8921 303.384 50.0519 303.48 50.0519 304.311C50.0838 304.918 50.4993 305.557 51.4261 306.42C52.4808 307.411 52.7684 307.89 52.7684 308.753C52.7684 310.415 54.3024 312.428 56.9869 314.282L59.3199 315.88L59.2241 318.117C58.9045 325.723 57.754 333.809 56.3158 338.379C55.4849 341.031 55.4849 341.159 56.4436 341.383C57.0189 341.543 57.2426 341.799 57.2426 342.374C57.2426 344.1 61.3014 345.41 66.6066 345.41C72.4231 345.41 75.619 346.113 77.6643 347.839C78.9107 348.861 80.8602 349.149 82.6499 348.542C83.9922 348.094 84.5035 347.391 85.0468 345.186C85.4623 343.524 86.9324 342.022 89.5211 340.648C92.2376 339.178 93.6757 339.274 99.4283 341.127C101.985 341.958 104.446 342.693 104.893 342.757C105.98 342.949 107.098 342.374 109.847 340.073C111.093 339.05 112.563 337.963 113.107 337.676C114.065 337.164 115.408 335.407 115.408 334.704C115.408 334.48 114.96 334.416 114.321 334.48C113.49 334.576 113.011 334.384 112.084 333.553C110.518 332.211 109.975 331.06 109.975 329.207C109.943 328.376 109.751 327.321 109.495 326.874C108.792 325.659 108.92 325.372 110.326 324.413C111.764 323.454 111.764 323.454 110.582 320.386C110.007 318.852 109.943 318.373 110.23 317.893C110.774 317.03 110.71 316.327 109.911 315.145C108.984 313.803 108.345 313.835 106.14 315.209C105.181 315.784 104.35 316.231 104.286 316.199C104.254 316.136 104.51 315.592 104.861 314.953C105.309 314.218 105.469 313.547 105.341 313.036C105.181 312.396 105.341 312.077 106.236 311.406C106.843 310.926 107.45 310.191 107.546 309.776C107.674 309.328 108.409 308.242 109.208 307.347C109.975 306.452 110.71 305.333 110.838 304.822C110.933 304.183 111.285 303.799 111.892 303.576C112.979 303.224 113.458 302.361 114.545 298.846C115.024 297.44 115.759 295.33 116.207 294.212C117.357 291.527 117.613 290.568 117.357 290.249C117.261 290.089 116.303 289.642 115.248 289.29C114.193 288.907 111.605 287.884 109.463 286.989C107.354 286.126 104.765 285.199 103.711 284.976C102.4 284.688 101.058 284.017 99.2685 282.802C96.4242 280.885 95.0499 280.214 93.8675 280.214C92.9087 280.214 92.6211 279.83 92.3974 278.136C92.2376 276.954 92.1736 276.858 90.8953 276.634C89.1056 276.347 87.7633 275.292 86.9324 273.598L86.2612 272.224L84.6953 272.416L83.0973 272.64L82.586 271.297C82.1386 270.147 81.9468 269.987 81.0839 269.987C80.5406 270.019 79.5499 270.275 78.8468 270.626Z" fill="#872339"/>
<path d="M159.19 271.553C154.364 272.863 148.036 275.963 146.566 277.721C145.575 278.872 145.671 279.703 146.982 281.588C149.123 284.752 155.515 291.144 157.592 292.198C159.03 292.933 159.414 292.806 161.459 290.856L163.377 289.035L164.879 289.45C165.71 289.706 167.116 290.089 167.979 290.345C170.376 291.048 175.809 291.304 176.256 290.728C176.48 290.441 177.183 290.281 178.078 290.281C179.931 290.281 182.041 288.971 182.712 287.373C183.063 286.574 183.734 285.903 185.077 285.072C187.506 283.57 187.601 282.866 185.524 281.396C183.575 279.99 177.758 277.018 176.991 277.018C176.639 277.018 175.968 277.37 175.425 277.817C174.914 278.264 174.338 278.616 174.179 278.616C173.603 278.616 170.695 275.644 170.503 274.877C170.248 273.95 169.225 273.407 166.732 272.831C165.326 272.48 164.815 272.224 164.591 271.649C164.367 271.042 164.08 270.946 162.801 270.978C161.938 270.978 160.34 271.233 159.19 271.553Z" fill="#8F8F8F"/>
<path d="M104.414 279.479C103.839 280.949 104.446 283.921 105.373 284.273C106.076 284.528 107.098 283.282 107.098 282.163C107.098 280.406 104.893 278.2 104.414 279.479Z" fill="#8F8F8F"/>
<path d="M189.903 284.912C189.009 285.615 188.753 285.679 188.21 285.359C187.826 285.136 187.187 285.04 186.612 285.167C185.461 285.423 183.48 287.117 183.48 287.852C183.48 289.003 179.677 291.687 178.015 291.719C177.12 291.719 175.842 292.997 175.65 294.084C175.266 296.129 177.216 299.102 179.804 300.348C181.115 300.987 181.37 300.987 183.799 300.636C186.356 300.284 187.315 299.805 187.315 298.878C187.315 298.303 188.306 297.887 190.255 297.631C191.054 297.536 191.917 297.216 192.141 296.96C192.396 296.641 193.003 296.481 193.834 296.513C195.88 296.609 195.912 296.577 197.222 295.171C198.245 294.052 198.692 293.796 200.002 293.637C202.144 293.413 205.148 293.796 205.819 294.404C206.714 295.203 207.641 295.011 208.631 293.796C209.462 292.774 211.508 288.299 211.252 288.108C211.188 288.044 210.133 287.564 208.887 287.021C203.965 284.88 200.865 284.816 197.382 286.765C194.793 288.204 194.058 288.14 193.483 286.478C192.972 284.976 192.205 284.049 191.501 284.049C191.214 284.049 190.511 284.432 189.903 284.912Z" fill="#8F8F8F"/>
<path d="M161.429 291.879C159.416 293.541 158.713 293.796 157.466 293.349C155.709 292.678 154.974 292.934 152.225 295.075C149.349 297.344 149.221 297.631 150.084 300.028C150.659 301.69 150.691 303.128 150.18 303.32C149.956 303.384 149.253 303.256 148.646 303.001C147.112 302.361 145.322 302.425 142.19 303.192C140.72 303.544 138.259 304.087 136.661 304.343C135.095 304.63 133.369 304.95 132.89 305.046C132.347 305.142 131.484 304.982 130.749 304.662C128.991 303.863 128.512 304.151 128.512 305.941C128.512 307.091 128.703 307.603 129.343 308.242C130.174 309.073 130.333 309.073 132.73 308.497C133.369 308.338 133.817 308.466 134.456 308.945C135.511 309.776 136.182 309.776 137.524 308.977C138.579 308.37 142.574 307.315 144.14 307.251C144.715 307.219 145.194 307.571 145.897 308.561C147.08 310.159 148.582 310.926 152.001 311.693C155.805 312.524 159.32 312.46 163.539 311.47C170.058 309.936 171.944 308.561 172.008 305.302C172.072 302.681 172.295 302.17 174.021 301.371L175.587 300.604L175.395 298.654C175.14 296.129 174.341 293.445 173.606 292.71C173.254 292.358 172.327 292.071 171.145 291.943C170.122 291.847 168.396 291.463 167.374 291.08C164.433 290.057 163.475 290.185 161.429 291.879Z" fill="#8F8F8F"/>
<path d="M200.035 294.563C199.332 294.723 198.277 295.33 197.414 296.129C196.104 297.344 195.784 297.472 194.346 297.472C193.483 297.472 192.748 297.599 192.748 297.759C192.748 298.143 190.958 298.75 189.872 298.75C189.041 298.75 187.954 299.581 187.954 300.252C187.954 300.955 185.845 301.466 182.969 301.466C180.284 301.466 179.965 301.403 178.718 300.54C177.983 300.028 177.344 299.677 177.312 299.741C177.248 299.805 176.96 300.284 176.641 300.763C176.321 301.275 175.586 301.882 174.979 302.138C174.116 302.489 173.892 302.745 174.052 303.192C174.148 303.512 174.02 303.959 173.733 304.183C173.477 304.407 173.029 305.397 172.742 306.356C172.039 308.785 172.294 311.15 173.477 312.812C174.659 314.538 178.335 316.966 181.562 318.213C183.959 319.14 184.215 319.204 185.014 318.756C187.699 317.254 188.849 316.966 197.638 315.369C203.039 314.41 202.975 314.442 203.902 311.054C204.669 308.146 210.869 300.028 212.275 300.028C213.425 300.028 213.298 299.261 211.923 298.047C210.645 296.896 208.152 295.874 206.682 295.874C206.331 295.874 205.755 295.586 205.372 295.234C204.605 294.531 201.888 294.18 200.035 294.563Z" fill="#8F8F8F"/>
<path d="M241.389 295.618C240.335 295.842 240.047 296.033 240.175 296.417C240.558 297.44 245.608 305.653 246.599 306.899C247.909 308.561 247.973 308.849 248.388 314.889C248.548 317.702 248.836 320.13 248.995 320.29C249.539 320.833 250.849 319.204 252.511 315.944C253.406 314.218 254.397 312.684 254.748 312.492C255.068 312.332 255.962 312.269 256.729 312.364C257.816 312.524 258.264 312.428 258.679 312.013C259.382 311.31 259.382 310.351 258.647 310.127C258.327 310.031 257.688 309.137 257.209 308.146C256.698 307.155 255.739 305.653 255.036 304.822C253.598 303.128 253.534 302.681 254.46 301.498C255.291 300.444 255.068 299.741 253.789 299.485C253.246 299.389 252.671 299.038 252.479 298.718C252.255 298.271 251.808 298.111 250.945 298.111C250.146 298.111 249.635 297.951 249.539 297.631C249.283 296.992 247.238 296.033 245.224 295.586C243.307 295.202 243.275 295.202 241.389 295.618Z" fill="#8F8F8F"/>
<path d="M236.692 297.663C235.478 298.622 231.579 300.316 229.054 300.987C226.625 301.594 226.465 301.594 225.73 301.051C224.004 299.837 223.589 299.709 222.311 299.869C221.607 299.964 219.818 299.805 218.38 299.549C216.91 299.261 215.407 299.133 215.024 299.261C214.64 299.357 213.586 300.028 212.659 300.731C211.732 301.434 210.869 301.914 210.678 301.818C210.262 301.562 207.066 306.58 205.213 310.415C203.423 314.058 202.975 314.602 200.195 315.976C199.076 316.519 198.182 317.03 198.182 317.094C198.182 317.126 198.757 317.765 199.46 318.501C200.163 319.204 200.738 320.035 200.738 320.322C200.738 321.377 201.729 322.719 202.975 323.358C204.35 324.061 205.053 325.052 204.765 325.819C204.222 327.193 207.066 329.079 209.719 329.111C212.18 329.111 214.097 330.07 212.723 330.581C211.956 330.901 212.148 331.444 213.522 332.786C214.385 333.617 214.8 334.32 214.8 334.895C214.8 335.79 215.407 336.142 217.037 336.142C217.485 336.142 218.731 336.461 219.754 336.813C221.448 337.42 222.119 337.484 225.666 337.324C230.364 337.101 231.323 336.877 234.934 335.087C237.395 333.873 237.875 333.745 239.888 333.777C242.828 333.809 245.704 334.672 246.727 335.854C247.366 336.557 247.814 336.781 248.741 336.781C250.051 336.781 250.594 336.174 250.594 334.672C250.594 332.498 252.703 326.235 253.438 326.235C253.598 326.235 253.982 326.554 254.269 326.938C254.717 327.641 254.813 327.641 255.612 327.193C256.091 326.906 256.826 326.203 257.21 325.627C257.881 324.669 257.913 324.445 257.497 323.87C256.89 322.911 255.036 322.815 253.662 323.646C252.16 324.573 249.955 324.541 249.092 323.582C248.165 322.559 248.101 322.24 247.558 316.711C247.27 313.962 246.887 311.118 246.727 310.415C246.024 307.858 241.486 299.837 239.696 298.015C238.705 297.056 237.651 296.928 236.692 297.663Z" fill="#8F8F8F"/>
<path d="M121 302.937C117.356 303.384 115.023 303.927 113.489 304.662C111.668 305.589 108.919 308.465 108.408 310.031C108.152 310.798 107.673 311.406 107.065 311.693C105.436 312.556 106.043 313.259 108.376 313.291C109.622 313.291 109.878 313.419 110.453 314.346C112.467 317.606 112.275 317.446 114.032 317.446C116.046 317.414 117.196 316.839 117.612 315.656C117.931 314.761 119.625 313.451 120.456 313.451C120.68 313.451 121.063 313.93 121.319 314.506C121.575 315.113 121.99 315.752 122.246 315.976C122.981 316.583 124.131 315.752 125.346 313.771C125.889 312.876 126.496 312.173 126.688 312.173C126.912 312.173 127.423 312.46 127.871 312.812C128.318 313.163 128.829 313.451 128.989 313.451C129.469 313.451 131.578 311.661 132.345 310.575L133.016 309.616L131.578 309.808C130.236 309.999 130.044 309.936 129.021 308.913C127.967 307.858 127.232 306.068 127.232 304.566C127.232 304.151 127.072 303.544 126.912 303.192C126.528 302.521 125.09 302.457 121 302.937Z" fill="#8F8F8F"/>
<path d="M139.76 308.945C139.185 309.105 138.194 309.584 137.523 310.031C136.628 310.639 136.053 310.798 135.19 310.671C134.104 310.511 134.008 310.575 133.784 311.47C133.688 312.013 133.241 312.684 132.793 312.94C132.378 313.227 132.026 313.739 132.026 314.09C132.026 314.921 130.748 315.528 129.629 315.241C129.15 315.113 128.415 314.665 127.935 314.186L127.105 313.355L126.242 314.346C125.411 315.273 124.676 317.126 124.676 318.309C124.676 319.331 123.877 318.916 121.735 316.807C119.371 314.442 118.603 314.186 118.603 315.784C118.603 317.35 117.741 317.925 114.545 318.628C113.011 318.948 111.605 319.363 111.445 319.523C111.221 319.747 111.349 320.322 111.828 321.281C112.212 322.08 112.531 322.943 112.531 323.167C112.531 323.422 111.956 324.093 111.253 324.637C110.55 325.18 109.975 325.787 109.975 325.947C109.975 326.107 110.39 326.906 110.933 327.769L111.86 329.271L111.189 329.814L110.486 330.325L111.317 331.572C112.116 332.786 113.842 333.905 114.864 333.905C115.535 333.905 116.079 334.704 115.855 335.311C115.44 336.397 116.878 335.758 119.85 333.489C121.512 332.243 123.078 331.06 123.301 330.933C123.909 330.549 129.406 333.234 130.972 334.672C132.314 335.886 133.081 337.676 133.592 340.84C133.88 342.789 134.455 343.588 139.057 348.574C142.7 352.537 146.536 355.988 148.325 356.915C148.932 357.235 150.307 357.65 151.361 357.874C154.333 358.481 155.452 359.056 157.05 360.75C157.881 361.613 158.936 362.412 159.415 362.54C161.077 362.891 161.588 363.339 162.547 365.16C163.314 366.631 163.793 367.11 165.104 367.781C166.254 368.356 166.893 368.964 167.469 369.986C168.395 371.648 169.674 375.355 170.089 377.497C170.345 378.935 170.313 379.19 169.546 380.277C168.619 381.651 167.852 383.569 167.82 384.655C167.82 385.518 169.003 386.125 169.674 385.582C170.537 384.879 172.039 382.386 172.55 380.82C172.997 379.414 173.317 379.031 174.531 378.327C175.778 377.592 175.97 377.337 176.065 376.282C176.161 375.164 176.034 374.908 174.212 373.214L172.262 371.328L172.774 370.178C173.029 369.539 173.988 368.069 174.883 366.95C176.801 364.553 177.344 364.425 179.837 365.832C181.371 366.726 183.224 368.516 183.576 369.443C183.672 369.763 183.895 369.699 184.439 369.187C185.11 368.548 185.11 368.452 184.63 367.525C183.895 366.087 180.827 363.722 176.002 360.878C170.984 357.906 169.194 356.691 168.939 356.02C168.843 355.765 169.067 355.221 169.482 354.774C170.601 353.591 169.897 353.24 166.286 353.24C163.282 353.24 163.09 353.208 161.301 352.121C158.872 350.683 156.922 348.19 155.676 344.93C153.503 339.306 152.544 338.059 149.188 336.429C147.75 335.726 147.686 335.726 147.239 336.302C146.44 337.388 145.864 336.685 145.641 334.32C145.065 328.568 145.065 327.928 145.417 327.705C145.864 327.417 145.864 325.851 145.385 324.285C144.81 322.304 145.257 321.728 148.645 320.322C150.275 319.651 151.809 318.884 152.032 318.628C152.608 318.053 152.608 315.049 152.032 313.643C151.649 312.716 151.329 312.492 149.412 311.885C147.334 311.278 146.759 310.958 144.746 309.52C143.787 308.849 141.262 308.561 139.76 308.945Z" fill="#8F8F8F"/>
<path d="M166.893 311.374C164.719 312.077 161.012 312.812 156.985 313.291C153.917 313.707 153.374 315.145 155.068 318.501C156.57 321.505 158.136 322.463 159.35 321.121C160.085 320.322 160.82 320.322 162.418 321.153C164.048 321.952 164.432 321.824 164.432 320.45C164.464 319.523 164.624 319.3 165.678 318.82C166.317 318.501 166.861 318.053 166.893 317.829C166.893 317.638 166.925 316.967 166.957 316.359C167.02 315.401 167.276 315.049 168.874 313.835C172.773 310.862 171.91 309.776 166.893 311.374Z" fill="#8F8F8F"/>
<path d="M169.515 314.538C168.268 315.113 167.693 316.104 167.949 317.318C168.172 318.405 167.917 319.204 167.341 319.204C167.118 319.204 166.543 319.843 166.063 320.674C164.785 322.847 162.644 323.294 161.365 321.664C160.918 321.089 160.758 321.057 160.343 321.409C159.544 322.08 159.735 323.199 160.95 324.669C162.356 326.33 162.58 326.714 162.835 328.184C162.963 328.887 163.57 329.942 164.337 330.837C165.488 332.147 165.616 332.435 165.456 333.425C165.264 334.416 165.36 334.672 166.638 335.918C168.716 338.027 170.601 338.986 173.126 339.306C174.34 339.466 175.363 339.561 175.363 339.529C175.395 339.529 174.117 337.612 172.487 335.311C169.419 330.933 167.501 327.449 167.501 326.267C167.501 325.883 167.661 325.276 167.821 324.924C168.14 324.381 168.524 324.317 171.592 324.317C177.281 324.317 185.206 325.18 187.092 325.979C187.987 326.362 188.754 326.554 188.818 326.394C189.329 324.796 190.096 323.838 190.831 323.838C191.95 323.838 192.078 324.86 190.991 325.276C190.288 325.532 190.224 325.691 190.512 326.203C190.671 326.554 190.991 326.938 191.151 327.034C191.63 327.321 191.502 329.175 190.991 329.878C190.16 330.965 190.416 332.019 191.886 333.521L193.228 334.895L192.11 335.822L190.991 336.717L191.886 337.548C192.621 338.219 192.717 338.475 192.429 339.018C192.237 339.402 191.758 339.657 191.311 339.657C190.799 339.657 190.256 340.041 189.681 340.776C189.105 341.543 188.594 341.894 188.179 341.831C187.667 341.767 187.444 341.99 187.252 342.821C187.06 343.492 186.709 343.94 186.293 344.068C185.75 344.195 185.686 344.387 185.846 345.506C186.101 346.976 188.179 350.3 188.946 350.459C189.265 350.523 190.096 349.916 190.863 349.053C191.63 348.254 192.589 347.455 192.972 347.295C194.602 346.688 198.374 348.798 198.725 350.555C198.821 351.099 199.109 351.61 199.364 351.706C199.62 351.802 200.77 351.45 201.953 350.907C203.519 350.172 204.925 349.82 207.13 349.565C210.742 349.181 211.317 348.734 211.061 346.688C210.901 345.506 210.997 345.314 212.372 343.972C213.937 342.406 214.129 341.99 213.362 341.703C212.595 341.415 211.061 338.794 210.646 337.133C210.326 335.822 210.358 335.407 210.774 334.576C211.349 333.489 211.445 330.805 210.965 330.07C210.678 329.654 210.518 329.718 209.911 330.453C209.495 330.965 209.08 331.348 208.984 331.348C208.856 331.348 207.833 330.709 206.715 329.91C205.309 328.951 204.542 328.152 204.286 327.449C203.487 325.34 202.912 324.445 201.601 323.486C200.643 322.751 200.099 322.048 199.716 320.929C199.396 320.003 198.629 318.852 197.862 318.085C196.712 316.967 196.392 316.807 195.05 316.839C193.132 316.839 190.128 317.51 189.361 318.085C188.786 318.501 188.786 318.564 189.329 320.674C189.809 322.527 189.809 322.911 189.457 323.294C188.69 324.061 187.955 322.943 187.955 320.993C187.955 319.363 187.571 318.564 186.804 318.564C186.613 318.564 186.357 318.852 186.261 319.204C185.878 320.674 181.979 319.587 176.45 316.487C172.295 314.186 171.081 313.835 169.515 314.538Z" fill="#8F8F8F"/>
<path d="M168.362 324.86C167.915 325.308 168.17 326.65 169.065 328.44C170.663 331.572 174.37 336.845 176.256 338.635C177.247 339.593 178.046 340.616 178.046 340.904C178.046 341.958 179.899 344.068 182.232 345.729C183.511 346.592 184.725 347.327 184.917 347.327C185.204 347.327 185.268 346.912 185.172 345.921C184.917 343.62 186.962 340.584 188.4 341.127C188.816 341.287 188.88 341.095 188.816 340.073C188.752 338.922 188.816 338.858 189.711 338.762C191.5 338.603 191.596 338.475 190.829 337.292C190.382 336.525 190.19 335.758 190.254 334.863C190.286 333.905 190.158 333.425 189.807 333.234C188.72 332.626 188.88 329.75 190.03 329.75C190.542 329.75 191.021 328.408 190.669 327.864C190.542 327.641 189.966 327.577 189.263 327.705C188.368 327.833 187.697 327.705 186.738 327.225C185.045 326.362 183.415 326.043 177.95 325.436C172.101 324.796 172.325 324.796 171.942 325.915C171.75 326.426 171.526 326.874 171.462 326.874C171.366 326.874 170.887 326.362 170.344 325.755C169.385 324.669 168.81 324.413 168.362 324.86Z" fill="#8F8F8F"/>
<path d="M212.114 334.576C211.539 335.023 211.283 335.535 211.283 336.238C211.283 337.58 213.009 340.552 214.191 341.191C215.694 342.054 215.342 344.132 213.648 344.132C212.657 344.132 212.338 344.675 212.114 347.008C211.858 349.597 212.242 350.875 213.68 352.473C214.799 353.719 214.927 354.071 214.799 355.701C214.767 356.372 214.958 356.691 215.566 356.947C216.237 357.267 216.908 357.203 219.113 356.659C222.629 355.765 223.843 355.765 226.464 356.755C229.212 357.81 232.024 357.874 234.07 356.979C235.188 356.5 235.7 355.988 236.371 354.742C237.809 352.121 240.973 351.003 243.242 352.313C244.297 352.952 245.032 352.76 245.511 351.674C246.022 350.587 245.255 349.085 244.201 349.085C243.242 349.053 243.242 348.254 244.233 347.008C244.808 346.305 245.607 344.707 246.917 341.639C247.237 340.936 247.844 340.392 248.803 339.913C250.848 338.922 251.04 337.772 249.186 337.74C248.835 337.74 247.109 337.069 245.351 336.206C242.379 334.832 241.932 334.704 239.727 334.704C237.458 334.704 237.202 334.768 234.453 336.302L231.577 337.9L225.984 337.868C217.675 337.836 214.064 337.101 213.936 335.503C213.936 335.055 213.904 334.512 213.872 334.288C213.84 333.713 213.073 333.809 212.114 334.576Z" fill="#8F8F8F"/>
<path d="M13.7784 338.635C13.0753 338.954 12.6279 339.465 12.564 339.881C12.4042 341.031 11.03 341.894 9.3042 341.894C7.80213 341.894 7.09904 342.342 6.65161 343.556C6.55574 343.876 6.87533 344.898 7.45058 345.953C8.02584 346.976 8.63306 348.67 8.82482 349.724L9.17636 351.642H11.0939C12.596 351.642 13.1073 351.77 13.6826 352.345C14.7372 353.4 16.8145 353.591 18.5723 352.792C20.33 351.993 23.1104 351.897 23.8135 352.633C24.1011 352.888 24.3249 353.463 24.3249 353.879C24.3249 354.262 24.6125 354.934 24.9321 355.349C25.6352 356.244 25.5073 356.755 23.8135 359.312C22.7908 360.814 22.5991 361.421 22.4073 363.562C22.2795 365.096 21.9599 366.375 21.6084 366.918C21.2568 367.461 21.129 368.101 21.2248 368.676C21.4166 369.667 20.5857 371.84 19.7547 372.543C19.0197 373.15 19.0836 373.981 19.9465 375.387C21.1609 377.337 21.1929 377.592 20.1382 379.574L19.1475 381.459L19.8187 382.961C20.6815 384.879 20.6496 385.103 19.7228 385.966C19.2754 386.381 18.7001 387.212 18.4125 387.819C17.9331 388.81 17.9331 388.97 18.3805 389.705C18.6681 390.12 19.7228 390.887 20.7455 391.399C23.0145 392.549 23.8455 393.444 25.8908 396.927C27.5207 399.708 29.0548 401.242 29.9177 400.89C30.1733 400.795 30.5888 400.251 30.9084 399.676C31.7393 398.014 32.6022 397.247 34.2001 396.736C36.5012 395.969 41.327 395.298 46.0569 395.074C51.1383 394.818 51.9053 394.563 53.8868 392.23C55.5806 390.248 57.3383 388.97 58.9683 388.522C59.8311 388.299 60.1507 387.979 60.3105 387.34C60.694 385.806 61.6528 384.176 63.5064 382.003C65.5837 379.542 65.6157 379.19 63.9538 375.611L62.9311 373.374L66.0312 368.9C67.7569 366.439 69.5786 363.658 70.0899 362.732C71.2404 360.75 72.359 360.015 76.9611 358.353C80.5085 357.075 83.6085 355.125 84.8869 353.4C86.0054 351.897 86.0054 348.606 84.8549 348.606C84.6312 348.606 84.2797 348.893 84.0879 349.245C83.8003 349.788 83.4168 349.884 81.5951 349.884C80.3168 349.884 79.0704 349.692 78.5271 349.405C78.0157 349.117 77.0889 348.957 76.4497 348.989C75.459 349.085 75.2992 348.989 75.0116 348.126C74.8198 347.583 74.5322 347.072 74.3405 346.944C74.1807 346.816 72.5188 346.688 70.6652 346.688C63.7301 346.688 59.0002 345.634 56.6353 343.588C54.7177 341.99 53.0878 341.671 43.5321 341.255C35.894 340.904 32.3465 340.52 29.2785 339.689C28.5754 339.497 26.1785 339.37 23.9733 339.37C20.5218 339.37 19.6908 339.274 18.4764 338.73C16.6867 337.9 15.2485 337.868 13.7784 338.635Z" fill="#8F8F8F"/>
<path d="M123.334 347.999C122.663 348.478 122.439 348.925 122.439 349.724C122.439 351.77 123.143 355.796 123.59 356.244C123.973 356.659 124.133 356.627 124.868 355.924C126.786 354.135 127.904 350.395 127.105 348.478C126.658 347.455 126.498 347.327 125.412 347.327C124.709 347.359 123.846 347.615 123.334 347.999Z" fill="#8F8F8F"/>
<path d="M192.715 348.35C191.373 348.798 190.989 350.108 191.596 352.153C192.236 354.231 192.268 360.079 191.66 361.773C191.309 362.732 191.309 363.147 191.66 364.17C191.916 364.841 192.108 365.768 192.108 366.247C192.108 366.854 192.427 367.302 193.162 367.813C194.569 368.772 195.304 369.731 195.304 370.562C195.304 370.977 195.432 371.297 195.591 371.297C196.103 371.297 198.052 368.804 199.139 366.79C199.682 365.736 200.353 364.777 200.609 364.681C201.312 364.425 201.152 363.818 199.714 361.038C198.372 358.513 198.34 358.353 198.34 355.381C198.34 353.144 198.18 352.025 197.796 351.322C196.678 349.245 194.249 347.807 192.715 348.35Z" fill="#8F8F8F"/>
<path d="M203.678 351.194C203.294 351.578 202.879 351.834 202.783 351.706C202.304 351.258 200.802 352.505 199.971 354.039C198.916 355.988 198.82 357.363 199.587 359.056C200.226 360.494 201.377 361.293 202.975 361.389C205.084 361.549 205.755 361.389 207.257 360.367C208.184 359.791 209.462 359.248 210.453 359.12C213.393 358.641 214.416 356.116 212.786 353.272C211.732 351.354 210.389 350.747 207.129 350.587C204.541 350.459 204.285 350.491 203.678 351.194Z" fill="#8F8F8F"/>
<path d="M10.3268 352.824C9.75153 352.984 9.17627 353.336 9.08039 353.591C8.98451 353.847 9.14431 355.03 9.4639 356.18C10.6783 360.654 9.24019 369.539 6.39585 374.876C5.66079 376.282 5.46904 377.049 5.53296 378.072C5.59688 379.031 5.75667 379.414 6.07626 379.35C6.87523 379.19 8.53709 379.925 9.39998 380.82C10.199 381.651 10.2629 381.843 9.97524 383.313C9.4639 386.157 9.24019 390.28 9.59173 391.143C9.81544 391.814 10.2309 392.07 11.5093 392.389C14.2577 393.029 15.2484 392.933 16.335 391.91C17.1021 391.175 17.2938 390.728 17.2938 389.673C17.2938 388.778 17.6134 387.691 18.2526 386.541C19.3711 384.464 19.4351 383.761 18.668 382.45C18.1247 381.523 18.1247 381.459 18.9876 379.957C20.1382 377.88 20.0742 377.081 18.6041 374.556C17.933 373.374 17.3258 372.287 17.3258 372.127C17.2938 371.968 17.965 371.616 18.7959 371.329L20.3299 370.817V369.059C20.3299 367.909 20.5217 367.014 20.9052 366.503C21.2567 365.991 21.4485 365.097 21.4485 363.786C21.4485 361.901 21.7361 361.102 23.398 358.193C24.1969 356.787 24.0371 354.934 23.0145 353.847C22.0557 352.824 19.9784 352.792 18.8598 353.751C18.1887 354.326 17.7732 354.39 15.7278 354.294C13.8423 354.199 13.299 354.039 12.8515 353.527C12.1484 352.665 11.5732 352.505 10.3268 352.824Z" fill="#8F8F8F"/>
<path d="M239.185 352.92C237.778 353.527 237.043 354.71 237.331 355.956C237.491 356.627 237.395 357.203 237.043 357.714C235.957 359.376 236.756 362.7 238.45 363.626C239.44 364.17 240.303 363.85 242.221 362.22C244.234 360.494 245.353 360.143 250.051 359.855L253.63 359.6L251.553 358.609C249.156 357.458 248.485 356.915 247.206 355.157C246.024 353.527 245.8 353.368 244.969 353.559C244.618 353.623 243.787 353.432 243.148 353.08C241.773 352.345 240.623 352.281 239.185 352.92Z" fill="#8F8F8F"/>
<path d="M289.104 352.792C288.401 352.92 286.707 353.048 285.333 353.048C279.932 353.112 271.655 356.244 268.618 359.376L267.212 360.878L264.4 360.463C260.98 359.951 255.292 359.632 254.589 359.887C253.406 360.367 256.186 362.668 257.944 362.668C259.191 362.668 258.551 363.275 256.602 363.914C253.981 364.809 253.47 365.128 254.077 365.512C254.716 365.927 253.566 366.055 246.918 366.471C240.303 366.854 237.746 367.493 236.212 369.251C235.413 370.178 235.253 370.625 235.317 371.552L235.413 372.735L237.906 372.671C239.248 372.607 240.367 372.639 240.367 372.735C240.367 372.799 240.079 373.342 239.728 373.949L239.057 375.068L240.207 376.41C240.814 377.145 241.326 377.848 241.326 377.976C241.326 378.104 240.974 378.679 240.527 379.286C240.079 379.893 239.728 380.405 239.728 380.469C239.728 380.533 240.111 380.948 240.559 381.364C241.038 381.811 241.262 382.163 241.07 382.163C240.527 382.163 239.728 383.121 239.728 383.824C239.728 384.272 240.111 384.591 241.006 384.943C242.093 385.39 242.284 385.614 242.284 386.381C242.284 386.892 242.093 387.372 241.805 387.468C241.038 387.755 241.23 388.235 242.764 389.865C243.531 390.696 244.266 391.718 244.362 392.134C244.553 392.869 244.649 392.901 246.056 392.677C248.484 392.262 248.644 392.325 250.242 393.828C251.105 394.627 252.096 395.266 252.479 395.266C252.927 395.266 253.374 395.617 253.726 396.256C255.324 399.197 256.922 400.028 259.542 399.229C261.108 398.781 263.058 397.023 263.058 396.065C263.058 395.042 263.825 393.987 264.56 393.987C266.701 393.987 272.901 396.8 275.586 398.973C277.471 400.539 278.43 400.699 280.955 399.932C283.671 399.101 285.333 398.206 286.995 396.736C287.89 395.937 289.008 395.17 289.456 395.074C290.67 394.754 293.035 395.106 293.706 395.713C294.505 396.448 295.08 396.352 296.455 395.266C297.925 394.083 298.66 393.86 299.491 394.307C300.386 394.786 300.29 395.553 299.171 397.215C297.477 399.74 298.117 402.424 300.002 400.667C301.185 399.58 301.728 398.366 301.728 396.864C301.728 396.129 301.888 395.266 302.047 394.914C302.463 394.179 303.773 394.115 304.924 394.786C306.042 395.425 307.225 395.394 310.325 394.563L312.977 393.86L316.077 394.563C317.771 394.946 319.465 395.266 319.88 395.266C320.264 395.266 322.15 394.754 324.035 394.147C328.573 392.709 330.075 392.389 333.751 392.07C335.764 391.91 337.17 391.622 337.809 391.239C338.736 390.696 338.832 390.696 339.727 391.207C340.558 391.686 340.75 391.686 341.804 391.271C342.667 390.919 344.265 390.791 348.356 390.791C351.839 390.791 353.853 390.664 353.981 390.44C354.396 389.801 353.789 388.426 352.638 387.404C351.584 386.413 351.52 386.253 351.839 385.518C352.606 383.856 352.159 379.574 350.753 375.515C350.241 374.013 350.369 373.534 351.2 373.534C352.351 373.534 353.182 372.607 353.182 371.297C353.182 369.89 352.606 369.379 350.976 369.379C349.251 369.379 348.516 368.868 347.813 367.206C347.014 365.352 346.95 364.809 347.493 363.946C348.036 363.083 347.269 361.677 344.904 359.216C342.795 357.011 342.092 356.787 338.544 357.235C335.54 357.618 334.422 358.002 331.929 359.344C328.541 361.198 324.994 361.805 322.054 361.006C320.903 360.718 320.072 360.75 317.42 361.198C313.361 361.933 311.411 361.709 306.362 360.079C304.253 359.408 302.175 358.833 301.76 358.833C301.185 358.833 300.45 358.289 299.267 357.011C297.957 355.605 297.477 355.285 297.19 355.573C296.646 356.116 294.985 356.052 294.122 355.445C293.706 355.157 293.035 354.39 292.588 353.687C291.757 352.345 291.469 352.281 289.104 352.792Z" fill="#8F8F8F"/>
<path d="M220.233 357.426C219.434 357.682 217.74 358.002 216.43 358.161C214.608 358.385 213.937 358.609 213.553 359.12C213.17 359.6 212.467 359.855 210.869 360.079C208.823 360.367 207.002 361.166 206.171 362.188C205.915 362.476 205.212 362.668 204.413 362.668C202.528 362.668 202.016 362.923 202.016 363.818C202.016 364.234 201.601 365.033 201.089 365.64C200.578 366.215 200.035 367.174 199.875 367.781C199.651 368.548 199.364 368.932 198.788 369.059C198.085 369.251 198.021 369.411 198.053 371.041C198.117 373.853 199.907 376.538 202.08 377.049L203.135 377.305L202.112 377.529C200.546 377.88 200.29 378.359 200.898 379.798C201.665 381.651 202.08 381.811 205.915 381.843C207.801 381.843 210.102 382.003 211.029 382.195C213.202 382.642 218.155 385.039 219.817 386.477C220.52 387.084 221.192 387.5 221.287 387.404C221.607 387.084 220.904 385.007 220.137 383.984C219.338 382.962 217.932 381.907 214.001 379.414L212.083 378.232L213.138 377.944C214.193 377.656 214.193 377.656 213.681 376.857C213.394 376.41 213.202 375.739 213.266 375.355C213.362 374.748 213.553 374.652 214.736 374.716C215.854 374.78 216.11 374.684 216.014 374.269C215.95 373.981 215.471 373.63 214.896 373.47C213.905 373.214 213.809 373.054 213.362 371.169C213.266 370.625 212.882 369.826 212.531 369.347C212.211 368.868 211.923 368.165 211.923 367.813C211.923 367.014 212.595 365.352 213.298 364.425C213.777 363.818 213.809 363.818 214.033 364.745C214.352 366.151 215.087 366.822 216.27 366.822C218.219 366.822 218.859 366.375 219.082 364.809C219.21 364.01 219.594 363.115 219.945 362.827C220.68 362.124 225.698 361.102 228.254 361.07C229.213 361.07 230.779 361.293 231.706 361.581C232.633 361.837 233.911 362.029 234.55 361.965C235.669 361.869 235.733 361.805 235.669 360.75C235.637 360.143 235.413 359.504 235.126 359.28C234.838 359.088 233.368 358.833 231.834 358.737C230.268 358.609 227.807 358.161 226.337 357.714C223.269 356.819 222.278 356.755 220.233 357.426Z" fill="#8F8F8F"/>
<path d="M122.214 361.741C120.328 362.636 120.2 362.763 120.2 363.786C120.2 364.393 120.424 365.704 120.679 366.726C121.287 369.091 121.287 370.849 120.616 373.278L120.072 375.227L121.319 376.314C121.99 376.889 122.757 377.369 122.981 377.369C123.236 377.369 123.811 376.921 124.259 376.378C124.706 375.867 125.282 375.483 125.505 375.579C126.432 375.931 127.583 372.99 128.03 369.123C128.414 365.704 126.56 360.75 124.898 360.75C124.515 360.75 123.3 361.197 122.214 361.741Z" fill="#8F8F8F"/>
<path d="M206.651 383.505C206.3 383.697 205.245 384.432 204.318 385.135L202.656 386.413L204.574 388.427C206.427 390.344 206.843 391.175 206.172 391.59C205.692 391.878 205.788 393.54 206.3 393.955C206.651 394.275 206.939 394.275 207.45 393.987C208.441 393.444 208.92 393.764 209.847 395.585C210.294 396.448 210.774 397.183 210.902 397.183C211.061 397.183 211.413 396.64 211.733 396.001L212.308 394.786L212.915 395.553C213.267 395.969 213.714 396.224 214.002 396.097C214.769 395.809 214.577 393.828 213.49 391.367C212.947 390.152 212.595 389.066 212.691 388.938C212.787 388.842 213.586 389.098 214.417 389.481C216.207 390.312 217.773 390.28 217.933 389.385C218.028 388.906 217.933 388.81 217.357 388.97C216.846 389.098 216.303 388.842 215.344 387.947C213.426 386.253 211.988 385.231 210.167 384.336C207.993 383.217 207.386 383.089 206.651 383.505Z" fill="#8F8F8F"/>
<path d="M150.243 385.199C149.988 385.486 149.413 385.678 148.773 385.614C148.166 385.582 147.495 385.742 147.303 385.966C146.345 386.924 152.225 390.887 156.156 391.91C158.265 392.453 159.288 393.029 159.991 394.115C160.279 394.531 160.95 395.074 161.461 395.266C162.292 395.617 162.548 395.585 163.283 395.042C164.369 394.243 164.497 393.412 163.858 391.495C163.315 389.833 163.474 388.874 164.753 386.477C165.807 384.496 165.935 384.527 159.991 385.199C156.38 385.582 155.581 385.582 153.919 385.199C151.458 384.623 150.723 384.623 150.243 385.199Z" fill="#8F8F8F"/>
<path d="M219.594 406.068C219.594 406.451 221.064 406.931 223.013 407.218C223.748 407.314 225.027 407.762 225.858 408.209C228.51 409.615 232.857 409.008 231.003 407.474C230.076 406.707 219.594 405.397 219.594 406.068Z" fill="#8F8F8F"/>
</g>
</svg>
