<svg width="287" height="158" viewBox="0 0 287 158" fill="none" xmlns="http://www.w3.org/2000/svg">
<g clip-path="url(#clip0_409_607)">
<path d="M154.409 24.643L28.2218 19.5148L7.25098 68.6038L97.5775 126.073L226.441 136.686L277.489 97.8337L262.015 49.3393L154.409 24.643Z" fill="#E3F280"/>
<path d="M42.834 33.6636L45.5503 33.9461L47.2316 43.4596L50.8591 34.4982L53.5011 34.7729L48.0827 46.5108L45.6801 46.2609L42.834 33.6636ZM60.6097 45.1429C60.4936 45.6705 60.1593 46.1838 59.6067 46.6827C58.7451 47.4777 57.6207 47.8031 56.2337 47.6589C55.0888 47.5398 54.1172 47.066 53.3187 46.2374C52.5202 45.4088 52.2074 44.1634 52.3803 42.5012C52.5423 40.9435 53.0601 39.79 53.9336 39.0407C54.8126 38.292 55.8824 37.9832 57.1428 38.1143C57.8914 38.1921 58.551 38.4026 59.1218 38.7457C59.6926 39.0888 60.1419 39.5834 60.4697 40.2295C60.7664 40.8001 60.9305 41.443 60.9618 42.1584C60.9794 42.5776 60.9423 43.1746 60.8506 43.9495L54.6915 43.309C54.6306 44.2151 54.8483 44.8776 55.3444 45.2964C55.6457 45.5558 56.0247 45.7093 56.4816 45.7568C56.9659 45.8072 57.3738 45.7105 57.7051 45.4668C57.8857 45.3353 58.053 45.1441 58.2071 44.8931L60.6097 45.1429ZM58.5682 42.1432C58.5943 41.5172 58.4534 41.0269 58.1453 40.6721C57.8434 40.3125 57.4419 40.1066 56.941 40.0545C56.3961 39.9978 55.9546 40.1244 55.6163 40.4342C55.2836 40.7445 55.0484 41.1874 54.9107 41.7628L58.5682 42.1432ZM67.9473 47.2913C67.9225 47.3166 67.8588 47.3934 67.7564 47.5219C67.6541 47.6503 67.5369 47.7605 67.4049 47.8525C67.0018 48.1444 66.6206 48.3329 66.2612 48.4179C65.9074 48.5035 65.4993 48.5223 65.0369 48.4742C63.7049 48.3357 62.8575 47.7635 62.4948 46.7577C62.291 46.2024 62.2427 45.4101 62.3497 44.3808L62.9138 38.9565L65.3246 39.2072L64.7605 44.6315C64.7073 45.1434 64.7278 45.535 64.822 45.8063C64.9891 46.2855 65.3864 46.5577 66.0139 46.6229C66.8175 46.7065 67.4017 46.439 67.7665 45.8204C67.9572 45.4842 68.0827 45.0271 68.1428 44.4491L68.6519 39.5532L71.038 39.8013L70.1021 48.8006L67.8151 48.5628L67.9473 47.2913ZM76.675 47.79L76.4921 49.5486L75.3732 49.474C74.2574 49.3969 73.5178 49.1253 73.1546 48.6591C72.9184 48.3619 72.8296 47.9326 72.8879 47.3712L73.4641 41.8312L72.2091 41.7007L72.3834 40.0247L73.6384 40.1552L73.8994 37.6453L76.2276 37.8874L75.9666 40.3973L77.428 40.5493L77.2537 42.2253L75.7923 42.0733L75.2978 46.8289C75.2594 47.1977 75.2822 47.4338 75.366 47.5371C75.4504 47.6349 75.7321 47.7087 76.2109 47.7585C76.2825 47.7659 76.3568 47.7736 76.4338 47.7816C76.517 47.7847 76.5974 47.7875 76.675 47.79ZM77.9077 43.7204L82.6468 44.2133L82.415 46.4424L77.6759 45.9496L77.9077 43.7204ZM91.9647 43.1292C92.6252 44.1605 92.888 45.3256 92.7529 46.6245C92.6155 47.9455 92.1181 49.0372 91.2606 49.8994C90.4037 50.7561 89.202 51.104 87.6553 50.9432C86.1086 50.7823 85.0041 50.1946 84.3419 49.1799C83.6802 48.1597 83.418 46.9891 83.5554 45.6681C83.6905 44.3691 84.1873 43.283 85.0459 42.4097C85.9045 41.5365 87.1072 41.1803 88.6538 41.3412C90.2005 41.502 91.3041 42.098 91.9647 43.1292ZM88.4387 43.3301C87.7506 43.2585 87.194 43.4482 86.7688 43.8992C86.3496 44.3452 86.0931 45.0195 85.9993 45.9222C85.9054 46.8249 86.0174 47.5403 86.3352 48.0686C86.6585 48.5974 87.1642 48.8975 87.8522 48.9691C88.5403 49.0406 89.0941 48.8507 89.5139 48.3991C89.9336 47.9476 90.1904 47.2705 90.2843 46.3678C90.3781 45.4651 90.2659 44.7524 89.9474 44.2297C89.6296 43.7015 89.1267 43.4016 88.4387 43.3301ZM98.9694 44.4669C98.1712 44.3839 97.5884 44.6655 97.2208 45.3116C97.0294 45.6533 96.9049 46.1021 96.847 46.6581L96.3405 51.5293L93.9957 51.2854L94.9299 42.3026L97.2003 42.5387L97.0638 43.8515C97.4146 43.4206 97.7355 43.1174 98.0263 42.9418C98.5485 42.6289 99.1811 42.511 99.9242 42.5883C100.854 42.685 101.588 43.009 102.126 43.5601C102.671 44.1063 102.884 44.9436 102.767 46.0719L102.136 52.132L99.7255 51.8813L100.295 46.4074C100.344 45.934 100.318 45.5642 100.218 45.2978C100.035 44.8114 99.6188 44.5345 98.9694 44.4669ZM114.925 52.1768C114.901 52.202 114.837 52.2788 114.735 52.4073C114.632 52.5357 114.515 52.6459 114.383 52.7379C113.98 53.0298 113.599 53.2183 113.239 53.3033C112.885 53.3889 112.477 53.4077 112.015 53.3596C110.683 53.2211 109.836 52.6489 109.473 51.6431C109.269 51.0878 109.221 50.2955 109.328 49.2662L109.892 43.8419L112.303 44.0926L111.739 49.517C111.685 50.0288 111.706 50.4204 111.8 50.6917C111.967 51.1709 112.365 51.4431 112.992 51.5084C113.796 51.5919 114.38 51.3244 114.745 50.7058C114.935 50.3696 115.061 49.9125 115.121 49.3346L115.63 44.4386L118.016 44.6867L117.08 53.6861L114.793 53.4482L114.925 52.1768ZM124.349 47.1062C123.551 47.0232 122.968 47.3048 122.6 47.9509C122.409 48.2926 122.285 48.7415 122.227 49.2974L121.72 54.1686L119.375 53.9248L120.31 44.9419L122.58 45.1781L122.444 46.4908C122.794 46.0599 123.115 45.7567 123.406 45.5811C123.928 45.2682 124.561 45.1504 125.304 45.2276C126.234 45.3244 126.968 45.6483 127.506 46.1994C128.05 46.7456 128.264 47.5829 128.146 48.7112L127.516 54.7713L125.105 54.5206L125.675 49.0467C125.724 48.5734 125.698 48.2035 125.598 47.9371C125.415 47.4508 124.999 47.1738 124.349 47.1062ZM140.215 51.6688L137.631 51.4001L137.176 55.7759L134.65 55.5132L135.915 43.3434L141.216 43.8947C142.438 44.0217 143.379 44.4368 144.04 45.1398C144.702 45.8428 144.964 46.8521 144.827 48.1676C144.678 49.6042 144.209 50.5819 143.421 51.1008C142.632 51.6197 141.564 51.8091 140.215 51.6688ZM141.668 49.2578C142.028 49.0004 142.241 48.5552 142.307 47.9222C142.373 47.2893 142.252 46.8205 141.944 46.5158C141.642 46.2118 141.191 46.0286 140.591 45.9662L138.222 45.7198L137.849 49.303L140.219 49.5494C140.819 49.6118 141.302 49.5146 141.668 49.2578ZM146.853 48.6704C147.557 47.9424 148.666 47.6572 150.18 47.8146C151.165 47.9171 152.02 48.2035 152.745 48.6738C153.469 49.1442 153.775 49.9215 153.662 51.0058L153.233 55.134C153.203 55.4202 153.172 55.7675 153.141 56.176C153.126 56.4859 153.151 56.7 153.216 56.8181C153.282 56.9362 153.388 57.039 153.535 57.1266L153.499 57.4733L150.939 57.2072C150.886 57.0181 150.855 56.8423 150.844 56.6798C150.833 56.5173 150.83 56.3334 150.834 56.128C150.473 56.4465 150.067 56.7076 149.618 56.9112C149.081 57.1503 148.494 57.2366 147.855 57.1702C147.04 57.0855 146.39 56.7842 145.904 56.2663C145.425 55.7435 145.229 55.0555 145.318 54.2024C145.433 53.0961 145.943 52.3396 146.847 51.9329C147.343 51.7119 148.051 51.5908 148.972 51.5696L149.783 51.5538C150.223 51.544 150.541 51.5075 150.737 51.4444C151.088 51.3362 151.279 51.1308 151.31 50.8281C151.349 50.4593 151.246 50.1926 151.001 50.0281C150.763 49.8587 150.396 49.7482 149.901 49.6967C149.345 49.6389 148.937 49.7356 148.677 49.9867C148.491 50.1732 148.352 50.437 148.261 50.778L145.991 50.5419C146.122 49.76 146.409 49.1361 146.853 48.6704ZM147.946 55.1767C148.147 55.3812 148.407 55.5001 148.726 55.5333C149.233 55.5859 149.713 55.4857 150.168 55.2325C150.628 54.98 150.908 54.461 151.006 53.6756L151.097 52.8004C150.939 52.8786 150.779 52.9399 150.619 52.9844C150.464 53.024 150.253 53.0548 149.983 53.0769L149.445 53.121C148.94 53.1575 148.574 53.228 148.346 53.3322C147.96 53.5091 147.744 53.8232 147.697 54.2746C147.655 54.6764 147.738 54.9771 147.946 55.1767ZM160.326 51.2816C159.38 51.1832 158.712 51.4253 158.323 52.008C158.105 52.3359 157.959 52.8603 157.884 53.5814L157.437 57.8829L155.067 57.6365L156.003 48.6371L158.249 48.8707L158.086 50.4394C158.511 49.8772 158.87 49.5001 159.163 49.3079C159.642 48.9849 160.233 48.8601 160.938 48.9334C160.982 48.9379 161.017 48.9444 161.044 48.9528C161.077 48.9562 161.146 48.9661 161.25 48.9825L160.999 51.3933C160.852 51.3614 160.721 51.3366 160.606 51.3191C160.491 51.3016 160.398 51.2891 160.326 51.2816ZM162.996 46.1596L165.349 46.4043L164.083 58.5741L161.73 58.3294L162.996 46.1596ZM174.364 56.9727C174.248 57.5003 173.914 58.0135 173.361 58.5124C172.5 59.3075 171.375 59.6329 169.988 59.4886C168.844 59.3696 167.872 58.8957 167.073 58.0672C166.275 57.2386 165.962 55.9932 166.135 54.3309C166.297 52.7732 166.815 51.6198 167.688 50.8705C168.567 50.1218 169.637 49.813 170.898 49.9441C171.646 50.0219 172.306 50.2324 172.877 50.5755C173.447 50.9186 173.897 51.4132 174.224 52.0593C174.521 52.6298 174.685 53.2728 174.716 53.9882C174.734 54.4073 174.697 55.0043 174.605 55.7793L168.446 55.1388C168.385 56.0449 168.603 56.7073 169.099 57.1261C169.4 57.3856 169.779 57.5391 170.236 57.5866C170.721 57.6369 171.128 57.5403 171.46 57.2965C171.64 57.1651 171.808 56.9739 171.962 56.7228L174.364 56.9727ZM172.323 53.973C172.349 53.347 172.208 52.8566 171.9 52.5019C171.598 52.1422 171.197 51.9364 170.696 51.8843C170.151 51.8276 169.709 51.9542 169.371 52.2639C169.038 52.5743 168.803 53.0172 168.665 53.5926L172.323 53.973ZM181.53 53.7954C181.377 53.34 181.011 53.0822 180.434 53.0221C179.762 52.9523 179.288 53.1228 179.012 53.5336C178.859 53.7681 178.758 54.1303 178.707 54.6201L178.143 60.0362L175.757 59.7881L176.692 50.8053L178.979 51.0431L178.842 52.3559C179.182 51.9184 179.492 51.614 179.772 51.4427C180.265 51.138 180.875 51.0234 181.602 51.0989C182.29 51.1705 182.83 51.3797 183.222 51.7265C183.534 52.0427 183.755 52.4301 183.886 52.8887C184.249 52.3924 184.672 52.0441 185.154 51.844C185.665 51.6466 186.217 51.5789 186.811 51.6407C187.208 51.6819 187.59 51.7996 187.96 51.9938C188.329 52.188 188.65 52.494 188.924 52.912C189.145 53.252 189.275 53.6551 189.316 54.1211C189.339 54.4295 189.321 54.8755 189.26 55.4589L188.654 61.1292L186.243 60.8785L186.839 55.1487C186.874 54.8074 186.848 54.521 186.761 54.2894C186.596 53.8493 186.232 53.6001 185.671 53.5417C185.021 53.4742 184.544 53.6972 184.241 54.2109C184.084 54.4839 183.985 54.8213 183.943 55.2231L183.386 60.5815L181.017 60.335L181.574 54.9767C181.629 54.4428 181.615 54.0491 181.53 53.7954ZM198.819 59.5158C198.703 60.0435 198.369 60.5567 197.816 61.0556C196.955 61.8506 195.83 62.176 194.443 62.0318C193.299 61.9127 192.327 61.4389 191.528 60.6103C190.73 59.7818 190.417 58.5364 190.59 56.8741C190.752 55.3164 191.27 54.1629 192.143 53.4137C193.022 52.665 194.092 52.3561 195.353 52.4872C196.101 52.5651 196.761 52.7755 197.332 53.1186C197.902 53.4617 198.352 53.9564 198.679 54.6024C198.976 55.173 199.14 55.816 199.172 56.5314C199.189 56.9505 199.152 57.5475 199.06 58.3224L192.901 57.6819C192.84 58.5881 193.058 59.2505 193.554 59.6693C193.855 59.9288 194.234 60.0822 194.691 60.1297C195.176 60.1801 195.584 60.0834 195.915 59.8397C196.095 59.7083 196.263 59.517 196.417 59.266L198.819 59.5158ZM196.778 56.5161C196.804 55.8902 196.663 55.3998 196.355 55.0451C196.053 54.6854 195.652 54.4795 195.151 54.4274C194.606 54.3708 194.164 54.4973 193.826 54.8071C193.493 55.1175 193.258 55.5603 193.12 56.1358L196.778 56.5161ZM205.244 55.5188C204.446 55.4358 203.863 55.7173 203.495 56.3634C203.304 56.7052 203.179 57.154 203.122 57.7099L202.615 62.5811L200.27 62.3373L201.204 53.3545L203.475 53.5906L203.338 54.9033C203.689 54.4725 204.01 54.1692 204.301 53.9936C204.823 53.6807 205.456 53.5629 206.199 53.6402C207.129 53.7369 207.863 54.0608 208.401 54.612C208.945 55.1582 209.158 55.9954 209.041 57.1238L208.411 63.1839L206 62.9332L206.569 57.4593C206.619 56.9859 206.593 56.616 206.493 56.3497C206.31 55.8633 205.893 55.5863 205.244 55.5188ZM214.885 62.163L214.702 63.9215L213.583 63.8469C212.467 63.7698 211.728 63.4982 211.364 63.032C211.128 62.7348 211.039 62.3055 211.098 61.7441L211.674 56.2041L210.419 56.0736L210.593 54.3976L211.848 54.5281L212.109 52.0182L214.437 52.2603L214.176 54.7703L215.638 54.9222L215.463 56.5982L214.002 56.4463L213.508 61.2019C213.469 61.5707 213.492 61.8067 213.576 61.91C213.66 62.0078 213.942 62.0816 214.421 62.1314C214.492 62.1388 214.567 62.1466 214.644 62.1546C214.727 62.1577 214.807 62.1605 214.885 62.163ZM225.222 63.2379L225.039 64.9965L223.92 64.9219C222.804 64.8448 222.064 64.5731 221.701 64.107C221.465 63.8098 221.376 63.3805 221.435 62.8191L222.011 57.2791L220.756 57.1486L220.93 55.4726L222.185 55.6031L222.446 53.0932L224.774 53.3353L224.513 55.8452L225.975 55.9972L225.8 57.6732L224.339 57.5212L223.844 62.2768C223.806 62.6456 223.829 62.8817 223.913 62.985C223.997 63.0828 224.279 63.1566 224.757 63.2064C224.829 63.2138 224.903 63.2215 224.98 63.2295C225.064 63.2326 225.144 63.2354 225.222 63.2379ZM231.793 58.7137C230.846 58.6152 230.178 58.8573 229.789 59.44C229.572 59.7679 229.425 60.2924 229.35 61.0134L228.903 65.3149L226.533 65.0685L227.469 56.0692L229.715 56.3027L229.552 57.8714C229.977 57.3092 230.337 56.9321 230.629 56.74C231.108 56.417 231.7 56.2921 232.404 56.3654C232.448 56.37 232.484 56.3764 232.511 56.3848C232.544 56.3882 232.612 56.3981 232.716 56.4145L232.465 58.8253C232.318 58.7934 232.188 58.7686 232.072 58.7511C231.957 58.7336 231.864 58.7211 231.793 58.7137ZM241.124 63.9153C241.008 64.4429 240.674 64.9562 240.121 65.4551C239.26 66.2501 238.136 66.5755 236.748 66.4312C235.604 66.3122 234.632 65.8384 233.833 65.0098C233.035 64.1812 232.722 62.9358 232.895 61.2735C233.057 59.7159 233.575 58.5624 234.448 57.8131C235.327 57.0644 236.397 56.7556 237.658 56.8867C238.406 56.9645 239.066 57.175 239.637 57.5181C240.207 57.8612 240.657 58.3558 240.984 59.0019C241.281 59.5724 241.445 60.2154 241.477 60.9308C241.494 61.3499 241.457 61.947 241.365 62.7219L235.206 62.0814C235.145 62.9875 235.363 63.65 235.859 64.0688C236.16 64.3282 236.54 64.4817 236.996 64.5292C237.481 64.5796 237.889 64.4829 238.22 64.2392C238.401 64.1077 238.568 63.9165 238.722 63.6654L241.124 63.9153ZM239.083 60.9156C239.109 60.2896 238.968 59.7993 238.66 59.4445C238.358 59.0849 237.957 58.879 237.456 58.8269C236.911 58.7702 236.469 58.8968 236.131 59.2066C235.798 59.5169 235.563 59.9598 235.425 60.5352L239.083 60.9156ZM235.374 53.1691L237.991 53.4412L239.319 56.0747L237.619 55.8978L235.374 53.1691ZM249.652 58.7933C250.31 59.3179 250.634 60.1361 250.624 61.2478L248.271 61.0031C248.269 60.6969 248.209 60.4486 248.089 60.2582C247.864 59.9121 247.44 59.7066 246.818 59.642C246.306 59.5887 245.932 59.6305 245.695 59.7672C245.464 59.9045 245.337 60.0805 245.315 60.2951C245.287 60.5648 245.382 60.7723 245.601 60.9174C245.819 61.068 246.613 61.3704 247.985 61.8246C248.898 62.1421 249.565 62.5481 249.986 63.0426C250.402 63.542 250.574 64.1302 250.504 64.8072C250.411 65.6989 250.002 66.3936 249.277 66.8913C248.558 67.384 247.506 67.5582 246.118 67.414C244.704 67.2669 243.689 66.8609 243.074 66.1961C242.465 65.5263 242.208 64.729 242.304 63.8043L244.69 64.0525C244.696 64.4759 244.773 64.7843 244.92 64.9776C245.179 65.3217 245.702 65.5347 246.489 65.6165C246.951 65.6646 247.325 65.6339 247.609 65.5243C247.898 65.4153 248.057 65.2232 248.086 64.948C248.113 64.6838 248.024 64.4715 247.818 64.311C247.612 64.1505 246.82 63.8288 245.44 63.3459C244.448 62.9868 243.763 62.5956 243.384 62.1724C243.004 61.7546 242.851 61.1934 242.925 60.4889C243.011 59.6577 243.41 58.9787 244.121 58.4518C244.839 57.92 245.789 57.7156 246.972 57.8387C248.095 57.9554 248.988 58.2737 249.652 58.7933ZM44.2714 61.3313C43.3247 61.2328 42.6569 61.475 42.2681 62.0577C42.0504 62.3855 41.904 62.91 41.829 63.631L41.3817 67.9325L39.0122 67.6861L39.948 58.6868L42.1937 58.9203L42.0306 60.489C42.4563 59.9269 42.8154 59.5497 43.108 59.3576C43.5867 59.0346 44.1783 58.9097 44.8828 58.983C44.9269 58.9876 44.9624 58.9941 44.9893 59.0024C45.0223 59.0059 45.0908 59.0158 45.1949 59.0321L44.9441 61.443C44.7972 61.411 44.6663 61.3863 44.5513 61.3687C44.4363 61.3512 44.343 61.3387 44.2714 61.3313ZM53.6033 66.5329C53.4872 67.0605 53.1529 67.5738 52.6002 68.0727C51.7386 68.8677 50.6143 69.1931 49.2273 69.0489C48.0824 68.9298 47.1107 68.456 46.3123 67.6274C45.5138 66.7989 45.201 65.5534 45.3739 63.8912C45.5359 62.3335 46.0536 61.18 46.9272 60.4307C47.8062 59.682 48.8759 59.3732 50.1364 59.5043C50.885 59.5822 51.5446 59.7926 52.1154 60.1357C52.6861 60.4788 53.1354 60.9734 53.4633 61.6195C53.76 62.1901 53.924 62.8331 53.9554 63.5485C53.973 63.9676 53.9359 64.5646 53.8442 65.3395L47.685 64.699C47.6242 65.6051 47.8418 66.2676 48.338 66.6864C48.6392 66.9458 49.0183 67.0993 49.4751 67.1468C49.9595 67.1972 50.3674 67.1005 50.6987 66.8568C50.8793 66.7254 51.0466 66.5341 51.2007 66.2831L53.6033 66.5329ZM51.5618 63.5332C51.5879 62.9072 51.447 62.4169 51.1389 62.0622C50.8369 61.7025 50.4355 61.4966 49.9346 61.4445C49.3897 61.3879 48.9481 61.5144 48.6099 61.8242C48.2772 62.1345 48.042 62.5774 47.9043 63.1529L51.5618 63.5332ZM63.4109 62.1032C64.0568 62.9549 64.3016 64.132 64.1453 65.6347C63.9805 67.2199 63.497 68.3908 62.6951 69.1475C61.8986 69.9048 60.9389 70.2251 59.8161 70.1083C59.1005 70.0339 58.5247 69.7932 58.0885 69.3862C57.8505 69.1611 57.6273 68.8458 57.4191 68.4403L56.9314 73.1299L54.6032 72.8877L55.9074 60.3465L58.1613 60.5809L58.0231 61.9101C58.3169 61.5457 58.6187 61.2655 58.9284 61.0696C59.4931 60.7221 60.1359 60.5859 60.857 60.6609C61.9083 60.7702 62.7596 61.251 63.4109 62.1032ZM61.7059 65.4978C61.7781 64.8043 61.6823 64.174 61.4186 63.6069C61.1603 63.0403 60.6762 62.7202 59.9662 62.6463C59.113 62.5576 58.4848 62.9012 58.0814 63.6771C57.8716 64.0893 57.7324 64.6256 57.6637 65.2861C57.5549 66.3319 57.7565 67.0956 58.2683 67.5772C58.5728 67.8593 58.9507 68.0237 59.4021 68.0707C60.0571 68.1388 60.5815 67.9374 60.9754 67.4665C61.3749 66.9962 61.6184 66.34 61.7059 65.4978ZM70.6089 64.0702C69.6622 63.9718 68.9944 64.2139 68.6055 64.7966C68.3878 65.1245 68.2415 65.6489 68.1665 66.37L67.7192 70.6715L65.3496 70.4251L66.2855 61.4257L68.5312 61.6593L68.3681 63.228C68.7937 62.6658 69.1529 62.2886 69.4455 62.0965C69.9242 61.7735 70.5158 61.6487 71.2203 61.7219C71.2643 61.7265 71.2998 61.733 71.3268 61.7414C71.3598 61.7448 71.4283 61.7547 71.5323 61.7711L71.2816 64.1819C71.1347 64.1499 71.0038 64.1252 70.8887 64.1077C70.7737 64.0901 70.6804 64.0777 70.6089 64.0702ZM79.9407 69.2719C79.8247 69.7995 79.4903 70.3127 78.9377 70.8116C78.0761 71.6067 76.9518 71.932 75.5647 71.7878C74.4199 71.6687 73.4482 71.1949 72.6497 70.3664C71.8513 69.5378 71.5385 68.2924 71.7113 66.6301C71.8733 65.0724 72.3911 63.919 73.2646 63.1697C74.1437 62.421 75.2134 62.1122 76.4738 62.2432C77.2224 62.3211 77.8821 62.5316 78.4528 62.8747C79.0236 63.2178 79.4729 63.7124 79.8007 64.3585C80.0975 64.929 80.2615 65.572 80.2928 66.2874C80.3104 66.7065 80.2734 67.3035 80.1817 68.0785L74.0225 67.438C73.9617 68.3441 74.1793 69.0065 74.6754 69.4253C74.9767 69.6848 75.3558 69.8382 75.8126 69.8858C76.297 69.9361 76.7048 69.8394 77.0362 69.5957C77.2168 69.4643 77.3841 69.273 77.5382 69.022L79.9407 69.2719ZM77.8992 66.2721C77.9254 65.6462 77.7844 65.1558 77.4764 64.8011C77.1744 64.4414 76.773 64.2355 76.2721 64.1835C75.7272 64.1268 75.2856 64.2533 74.9474 64.5631C74.6147 64.8735 74.3794 65.3164 74.2417 65.8918L77.8992 66.2721ZM75.345 61.1411L77.1869 58.8373L79.8124 59.1103L77.0458 61.3179L75.345 61.1411ZM88.4684 64.1499C89.126 64.6745 89.4499 65.4927 89.44 66.6044L87.0869 66.3597C87.0854 66.0535 87.025 65.8052 86.9057 65.6148C86.6802 65.2686 86.2564 65.0632 85.6345 64.9985C85.1226 64.9453 84.7483 64.987 84.5115 65.1238C84.2802 65.2611 84.1534 65.437 84.1311 65.6517C84.1031 65.9214 84.1983 66.1288 84.4169 66.274C84.6349 66.4246 85.4297 66.727 86.8012 67.1812C87.714 67.4987 88.3812 67.9047 88.8027 68.3992C89.2181 68.8986 89.3906 69.4868 89.3202 70.1638C89.2274 71.0555 88.8186 71.7502 88.0936 72.2478C87.3747 72.7406 86.3218 72.9148 84.9347 72.7706C83.5202 72.6235 82.5053 72.2175 81.8901 71.5526C81.281 70.8828 81.0245 70.0856 81.1206 69.1609L83.5067 69.409C83.5127 69.8325 83.5892 70.1409 83.736 70.3342C83.9951 70.6783 84.5182 70.8912 85.3053 70.9731C85.7676 71.0212 86.1408 70.9904 86.4248 70.8809C86.7143 70.7719 86.8734 70.5798 86.902 70.3046C86.9295 70.0404 86.8403 69.828 86.6344 69.6675C86.4286 69.507 85.6358 69.1853 84.2562 68.7025C83.2642 68.3434 82.5788 67.9522 82.2 67.5289C81.8206 67.1111 81.6676 66.55 81.7408 65.8454C81.8273 65.0143 82.2261 64.3353 82.9374 63.8084C83.6548 63.2765 84.6052 63.0722 85.7886 63.1952C86.9115 63.312 87.8047 63.6302 88.4684 64.1499ZM98.765 71.2295C98.6489 71.7571 98.3146 72.2703 97.762 72.7692C96.9004 73.5643 95.776 73.8896 94.389 73.7454C93.2441 73.6263 92.2725 73.1525 91.474 72.324C90.6755 71.4954 90.3627 70.25 90.5356 68.5877C90.6976 67.03 91.2154 65.8766 92.0889 65.1273C92.9679 64.3786 94.0377 64.0698 95.2981 64.2008C96.0467 64.2787 96.7063 64.4892 97.2771 64.8323C97.8479 65.1754 98.2972 65.67 98.625 66.3161C98.9217 66.8866 99.0858 67.5296 99.1171 68.245C99.1347 68.6641 99.0977 69.2611 99.0059 70.0361L92.8468 69.3956C92.7859 70.3017 93.0036 70.9641 93.4997 71.3829C93.801 71.6424 94.18 71.7958 94.6369 71.8434C95.1212 71.8937 95.5291 71.7971 95.8604 71.5533C96.041 71.4219 96.2084 71.2306 96.3624 70.9796L98.765 71.2295ZM96.7235 68.2297C96.7497 67.6038 96.6087 67.1134 96.3006 66.7587C95.9987 66.399 95.5972 66.1931 95.0963 66.1411C94.5514 66.0844 94.1099 66.2109 93.7716 66.5207C93.4389 66.8311 93.2037 67.274 93.066 67.8494L96.7235 68.2297ZM105.189 67.2324C104.391 67.1494 103.808 67.431 103.441 68.0771C103.25 68.4188 103.125 68.8676 103.067 69.4236L102.561 74.2948L100.216 74.0509L101.15 65.0681L103.42 65.3042L103.284 66.617C103.635 66.1861 103.956 65.8829 104.246 65.7073C104.769 65.3943 105.401 65.2765 106.144 65.3538C107.074 65.4505 107.809 65.7745 108.347 66.3256C108.891 66.8718 109.104 67.709 108.987 68.8374L108.356 74.8975L105.946 74.6468L106.515 69.1729C106.564 68.6995 106.539 68.3297 106.438 68.0633C106.255 67.5769 105.839 67.2999 105.189 67.2324ZM114.83 73.8766L114.647 75.6352L113.529 75.5605C112.413 75.4834 111.673 75.2118 111.31 74.7456C111.074 74.4484 110.985 74.0191 111.043 73.4577L111.619 67.9178L110.364 67.7873L110.539 66.1112L111.794 66.2417L112.055 63.7318L114.383 63.974L114.122 66.4839L115.583 66.6358L115.409 68.3119L113.948 68.1599L113.453 72.9155C113.415 73.2843 113.437 73.5203 113.521 73.6236C113.606 73.7214 113.887 73.7952 114.366 73.845C114.438 73.8525 114.512 73.8602 114.589 73.8682C114.672 73.8713 114.753 73.8741 114.83 73.8766ZM117.34 67.7198C118.044 66.9919 119.153 66.7067 120.667 66.8641C121.652 66.9665 122.507 67.2529 123.232 67.7233C123.956 68.1937 124.262 68.971 124.149 70.0553L123.72 74.1835C123.69 74.4697 123.659 74.817 123.628 75.2255C123.613 75.5354 123.638 75.7494 123.703 75.8675C123.769 75.9856 123.875 76.0885 124.022 76.1761L123.986 76.5228L121.426 76.2567C121.373 76.0676 121.342 75.8918 121.331 75.7293C121.32 75.5668 121.317 75.3829 121.321 75.1775C120.96 75.496 120.555 75.7571 120.105 75.9607C119.568 76.1997 118.981 76.2861 118.342 76.2197C117.527 76.135 116.877 75.8337 116.391 75.3158C115.912 74.793 115.716 74.105 115.805 73.2519C115.92 72.1455 116.43 71.389 117.334 70.9824C117.83 70.7613 118.538 70.6402 119.459 70.6191L120.27 70.6033C120.71 70.5935 121.029 70.557 121.224 70.4939C121.575 70.3857 121.766 70.1803 121.797 69.8775C121.836 69.5088 121.733 69.2421 121.488 69.0776C121.25 68.9082 120.883 68.7977 120.388 68.7462C119.832 68.6884 119.424 68.785 119.164 69.0362C118.978 69.2227 118.839 69.4865 118.748 69.8275L116.478 69.5914C116.609 68.8094 116.896 68.1856 117.34 67.7198ZM118.433 74.2262C118.634 74.4307 118.894 74.5496 119.213 74.5828C119.72 74.6354 120.2 74.5352 120.655 74.282C121.115 74.0294 121.395 73.5105 121.493 72.7251L121.584 71.8499C121.426 71.928 121.266 71.9894 121.106 72.0339C120.951 72.0735 120.74 72.1043 120.47 72.1264L119.932 72.1705C119.427 72.207 119.061 72.2774 118.833 72.3817C118.447 72.5586 118.231 72.8727 118.184 73.3241C118.142 73.7259 118.225 74.0266 118.433 74.2262ZM129.873 75.4409L129.69 77.1995L128.571 77.1249C127.456 77.0478 126.716 76.7762 126.353 76.31C126.117 76.0128 126.028 75.5835 126.086 75.0221L126.662 69.4821L125.407 69.3516L125.582 67.6756L126.837 67.8061L127.098 65.2962L129.426 65.5383L129.165 68.0482L130.626 68.2002L130.452 69.8762L128.991 69.7243L128.496 74.4799C128.458 74.8486 128.48 75.0847 128.564 75.188C128.649 75.2858 128.93 75.3596 129.409 75.4094C129.481 75.4168 129.555 75.4245 129.632 75.4326C129.715 75.4356 129.796 75.4384 129.873 75.4409ZM134.565 68.5263L133.629 77.5257L131.243 77.2775L132.179 68.2782L134.565 68.5263ZM134.902 65.2816L134.676 67.453L132.29 67.2049L132.516 65.0335L134.902 65.2816ZM141.408 65.9582L141.209 67.8737C141.079 67.8434 140.857 67.8092 140.544 67.7711C140.236 67.728 140.015 67.7745 139.878 67.9105C139.748 68.0416 139.673 68.1952 139.655 68.3714L139.576 69.1309L141.12 69.2915L140.947 70.951L139.403 70.7904L138.649 78.0477L136.304 77.8038L137.059 70.5466L135.746 70.4101L135.918 68.7506L137.206 68.8845L137.267 68.3066C137.367 67.3433 137.598 66.697 137.961 66.3675C138.358 65.8636 139.209 65.6794 140.513 65.8151C140.662 65.8305 140.796 65.8501 140.916 65.8737C141.037 65.8918 141.201 65.9199 141.408 65.9582ZM143.73 79.4273C143.588 79.8243 143.367 80.1574 143.066 80.4266C142.742 80.7155 142.373 80.9191 141.96 81.0376C141.552 81.162 141.273 81.2166 141.125 81.2011L141.219 80.2929C141.706 80.21 142.076 80.0259 142.328 79.7406C142.586 79.4558 142.76 79.0372 142.851 78.4847L141.423 78.3362L141.679 75.8758L144.222 76.1403L144 78.2704C143.961 78.6447 143.871 79.0303 143.73 79.4273ZM152.132 71.338C152.836 70.6101 153.945 70.3248 155.459 70.4822C156.444 70.5847 157.299 70.8711 158.023 71.3414C158.748 71.8118 159.054 72.5891 158.941 73.6735L158.512 77.8016C158.482 78.0878 158.451 78.4351 158.42 78.8436C158.404 79.1535 158.429 79.3676 158.495 79.4857C158.561 79.6038 158.667 79.7066 158.813 79.7942L158.777 80.1409L156.218 79.8748C156.165 79.6857 156.134 79.5099 156.123 79.3474C156.112 79.185 156.109 79.001 156.113 78.7957C155.752 79.1142 155.346 79.3752 154.897 79.5788C154.36 79.8179 153.772 79.9042 153.134 79.8378C152.319 79.7531 151.669 79.4518 151.183 78.9339C150.704 78.4111 150.508 77.7232 150.597 76.87C150.712 75.7637 151.222 75.0072 152.126 74.6005C152.622 74.3795 153.33 74.2584 154.251 74.2372L155.062 74.2214C155.502 74.2116 155.82 74.1752 156.016 74.1121C156.367 74.0039 156.558 73.7984 156.589 73.4957C156.628 73.1269 156.525 72.8602 156.28 72.6957C156.042 72.5263 155.675 72.4158 155.18 72.3643C154.624 72.3065 154.216 72.4032 153.956 72.6543C153.77 72.8408 153.631 73.1046 153.54 73.4456L151.27 73.2095C151.401 72.4276 151.688 71.8037 152.132 71.338ZM153.224 77.8443C153.426 78.0488 153.686 78.1677 154.005 78.2009C154.512 78.2536 154.992 78.1533 155.447 77.9002C155.907 77.6476 156.186 77.1286 156.285 76.3432L156.376 75.4681C156.217 75.5462 156.058 75.6075 155.898 75.652C155.743 75.6916 155.532 75.7224 155.262 75.7445L154.723 75.7886C154.219 75.8252 153.853 75.8956 153.625 75.9998C153.239 76.1767 153.023 76.4908 152.976 76.9422C152.934 77.344 153.017 77.6447 153.224 77.8443ZM166.274 79.6354C166.249 79.6606 166.186 79.7374 166.083 79.8659C165.981 79.9943 165.864 80.1045 165.732 80.1965C165.329 80.4884 164.947 80.6769 164.588 80.7619C164.234 80.8475 163.826 80.8663 163.364 80.8182C162.032 80.6797 161.184 80.1075 160.822 79.1017C160.618 78.5464 160.57 77.7541 160.677 76.7248L161.241 71.3005L163.652 71.5512L163.087 76.9755C163.034 77.4874 163.055 77.879 163.149 78.1503C163.316 78.6295 163.713 78.9017 164.341 78.9669C165.144 79.0505 165.729 78.783 166.093 78.1644C166.284 77.8282 166.41 77.3711 166.47 76.7932L166.979 71.8972L169.365 72.1453L168.429 81.1446L166.142 80.9068L166.274 79.6354ZM180.648 75.5136C179.702 75.4152 179.034 75.6573 178.645 76.24C178.427 76.5678 178.281 77.0923 178.206 77.8134L177.759 82.1149L175.389 81.8684L176.325 72.8691L178.571 73.1027L178.407 74.6714C178.833 74.1092 179.192 73.732 179.485 73.5399C179.964 73.2169 180.555 73.0921 181.26 73.1653C181.304 73.1699 181.339 73.1764 181.366 73.1847C181.399 73.1882 181.468 73.1981 181.572 73.2145L181.321 75.6253C181.174 75.5933 181.043 75.5686 180.928 75.5511C180.813 75.5335 180.72 75.521 180.648 75.5136ZM185.357 73.8084L184.421 82.8078L182.035 82.5596L182.971 73.5603L185.357 73.8084ZM185.695 70.5637L185.469 72.7351L183.083 72.487L183.309 70.3156L185.695 70.5637ZM193.802 75.1039C194.459 75.6285 194.783 76.4467 194.773 77.5584L192.42 77.3137C192.419 77.0075 192.358 76.7592 192.239 76.5688C192.013 76.2226 191.59 76.0172 190.968 75.9525C190.456 75.8993 190.082 75.941 189.845 76.0777C189.614 76.215 189.487 76.391 189.464 76.6057C189.436 76.8754 189.532 77.0828 189.75 77.2279C189.968 77.3786 190.763 77.681 192.135 78.1352C193.047 78.4527 193.714 78.8587 194.136 79.3531C194.551 79.8526 194.724 80.4408 194.653 81.1178C194.561 82.0095 194.152 82.7041 193.427 83.2018C192.708 83.6946 191.655 83.8688 190.268 83.7246C188.853 83.5774 187.839 83.1715 187.223 82.5066C186.614 81.8368 186.358 81.0396 186.454 80.1149L188.84 80.363C188.846 80.7865 188.922 81.0949 189.069 81.2882C189.328 81.6323 189.851 81.8452 190.639 81.9271C191.101 81.9751 191.474 81.9444 191.758 81.8349C192.048 81.7259 192.207 81.5338 192.235 81.2586C192.263 80.9944 192.174 80.782 191.968 80.6215C191.762 80.461 190.969 80.1393 189.589 79.6565C188.598 79.2974 187.912 78.9062 187.533 78.4829C187.154 78.0651 187.001 77.504 187.074 76.7994C187.161 75.9683 187.559 75.2893 188.271 74.7624C188.988 74.2305 189.939 74.0261 191.122 74.1492C192.245 74.266 193.138 74.5842 193.802 75.1039ZM201.554 88.1947L202.041 83.5134C201.827 83.8583 201.49 84.1516 201.031 84.3932C200.578 84.6298 199.983 84.7098 199.245 84.6331C198.205 84.5249 197.362 84.0172 196.716 83.1099C196.071 82.2027 195.82 81.0555 195.964 79.6685C196.12 78.1713 196.61 77.0122 197.436 76.1912C198.267 75.3707 199.222 75.0166 200.3 75.1287C201.049 75.2066 201.635 75.4539 202.059 75.8708C202.307 76.108 202.547 76.4806 202.777 76.9887L202.917 75.6512L205.187 75.8873L203.882 88.4368L201.554 88.1947ZM198.515 81.3775C198.745 82.1637 199.279 82.6002 200.115 82.6872C200.924 82.7714 201.536 82.4844 201.949 81.8264C202.217 81.3925 202.387 80.826 202.459 80.1269C202.517 79.5765 202.474 79.0742 202.332 78.6199C202.078 77.8034 201.53 77.3513 200.688 77.2637C200.093 77.2019 199.59 77.3805 199.18 77.7996C198.774 78.2193 198.523 78.8942 198.427 79.8244C198.362 80.4464 198.392 80.9641 198.515 81.3775ZM212.361 84.428C212.336 84.4533 212.272 84.5301 212.17 84.6586C212.067 84.787 211.95 84.8972 211.818 84.9892C211.415 85.2811 211.034 85.4696 210.675 85.5546C210.321 85.6402 209.913 85.659 209.45 85.6109C208.118 85.4724 207.271 84.9002 206.908 83.8944C206.704 83.3391 206.656 82.5468 206.763 81.5175L207.327 76.0932L209.738 76.3439L209.174 81.7682C209.121 82.2801 209.141 82.6717 209.235 82.943C209.402 83.4222 209.8 83.6944 210.427 83.7596C211.231 83.8432 211.815 83.5757 212.18 82.9571C212.371 82.6209 212.496 82.1638 212.556 81.5858L213.065 76.6899L215.451 76.938L214.515 85.9373L212.228 85.6995L212.361 84.428ZM224.772 84.3334C224.656 84.861 224.322 85.3742 223.769 85.8731C222.907 86.6682 221.783 86.9936 220.396 86.8493C219.251 86.7303 218.279 86.2564 217.481 85.4279C216.683 84.5993 216.37 83.3539 216.543 81.6916C216.705 80.134 217.222 78.9805 218.096 78.2312C218.975 77.4825 220.045 77.1737 221.305 77.3048C222.054 77.3826 222.713 77.5931 223.284 77.9362C223.855 78.2793 224.304 78.7739 224.632 79.42C224.929 79.9905 225.093 80.6335 225.124 81.3489C225.142 81.768 225.105 82.365 225.013 83.14L218.854 82.4995C218.793 83.4056 219.011 84.0681 219.507 84.4869C219.808 84.7463 220.187 84.8998 220.644 84.9473C221.128 84.9976 221.536 84.901 221.867 84.6572C222.048 84.5258 222.215 84.3346 222.369 84.0835L224.772 84.3334ZM222.73 81.3337C222.757 80.7077 222.616 80.2173 222.308 79.8626C222.006 79.5029 221.604 79.2971 221.103 79.245C220.558 79.1883 220.117 79.3149 219.779 79.6246C219.446 79.935 219.211 80.3779 219.073 80.9533L222.73 81.3337ZM240.366 76.341L239.103 88.4942L236.816 88.2564L236.945 87.0097C236.554 87.5087 236.131 87.857 235.677 88.0545C235.222 88.252 234.676 88.3176 234.037 88.2512C232.986 88.1419 232.144 87.6259 231.511 86.7033C230.884 85.7757 230.64 84.6459 230.778 83.3139C230.938 81.7783 231.416 80.6067 232.212 79.7993C233.014 78.9925 234.006 78.6506 235.19 78.7737C235.734 78.8304 236.206 79.0018 236.605 79.2881C237.004 79.5688 237.314 79.9349 237.534 80.3862L237.98 76.0929L240.366 76.341ZM233.224 83.393C233.137 84.2241 233.233 84.9045 233.512 85.4342C233.785 85.9689 234.254 86.2709 234.92 86.3401C235.586 86.4094 236.118 86.2143 236.517 85.755C236.915 85.2957 237.155 84.6725 237.237 83.8854C237.351 82.7846 237.155 81.9686 236.648 81.4374C236.337 81.1157 235.955 80.9314 235.504 80.8844C234.816 80.8129 234.283 81.0217 233.903 81.5108C233.53 81.995 233.304 82.6224 233.224 83.393ZM249.227 86.8766C249.111 87.4042 248.777 87.9174 248.224 88.4163C247.362 89.2113 246.238 89.5367 244.851 89.3925C243.706 89.2734 242.734 88.7996 241.936 87.971C241.138 87.1425 240.825 85.8971 240.998 84.2348C241.16 82.6771 241.677 81.5236 242.551 80.7744C243.43 80.0257 244.5 79.7168 245.76 79.8479C246.509 79.9258 247.168 80.1362 247.739 80.4794C248.31 80.8225 248.759 81.3171 249.087 81.9632C249.384 82.5337 249.548 83.1767 249.579 83.8921C249.597 84.3112 249.56 84.9082 249.468 85.6832L243.309 85.0426C243.248 85.9488 243.466 86.6112 243.962 87.03C244.263 87.2895 244.642 87.4429 245.099 87.4904C245.583 87.5408 245.991 87.4441 246.322 87.2004C246.503 87.069 246.67 86.8777 246.824 86.6267L249.227 86.8766ZM247.186 83.8768C247.212 83.2509 247.071 82.7605 246.763 82.4058C246.461 82.0461 246.059 81.8402 245.558 81.7881C245.013 81.7315 244.572 81.858 244.234 82.1678C243.901 82.4782 243.666 82.921 243.528 83.4965L247.186 83.8768ZM69.1316 87.1035L66.7208 86.8527C66.7116 86.5124 66.6303 86.198 66.4767 85.9094C66.2503 85.5186 65.8591 85.2943 65.3032 85.2365C64.5106 85.1541 63.9275 85.4913 63.5539 86.248C63.3563 86.6503 63.2214 87.1982 63.1493 87.8917C63.0806 88.5522 63.1024 89.0914 63.2148 89.5092C63.4176 90.287 63.9071 90.7162 64.6832 90.7969C65.2336 90.8542 65.6399 90.7462 65.902 90.473C66.164 90.1998 66.3445 89.8291 66.4432 89.3609L68.8458 89.6108C68.7163 90.3206 68.3872 90.9707 67.8585 91.5611C67.0139 92.5137 65.8678 92.9147 64.4202 92.7642C62.9726 92.6136 61.9522 92.0735 61.359 91.1439C60.7658 90.2143 60.5404 89.0642 60.6829 87.6937C60.8438 86.147 61.3459 84.9835 62.1892 84.2033C63.0326 83.4231 64.1175 83.1019 65.4441 83.2399C66.5724 83.3572 67.468 83.7063 68.1309 84.2871C68.7993 84.8685 69.1329 85.8072 69.1316 87.1035ZM78.4802 85.9642C79.1408 86.9954 79.4035 88.1605 79.2684 89.4595C79.1311 90.7805 78.6336 91.8721 77.7762 92.7344C76.9193 93.5911 75.7175 93.939 74.1708 93.7782C72.6242 93.6173 71.5197 93.0296 70.8574 92.0149C70.1957 90.9947 69.9336 89.8241 70.071 88.5031C70.206 87.2041 70.7029 86.118 71.5615 85.2447C72.4201 84.3715 73.6227 84.0153 75.1694 84.1761C76.7161 84.337 77.8197 84.933 78.4802 85.9642ZM74.9542 86.165C74.2662 86.0935 73.7096 86.2832 73.2843 86.7341C72.8652 87.1802 72.6087 87.8545 72.5148 88.7572C72.4209 89.6599 72.5329 90.3753 72.8508 90.9036C73.1741 91.4324 73.6798 91.7325 74.3678 91.8041C75.0558 91.8756 75.6097 91.6856 76.0294 91.2341C76.4491 90.7826 76.7059 90.1055 76.7998 89.2028C76.8937 88.3001 76.7814 87.5874 76.463 87.0647C76.1452 86.5365 75.6422 86.2366 74.9542 86.165ZM81.6678 86.1288C82.3722 85.4009 83.4812 85.1156 84.9949 85.273C85.9801 85.3755 86.835 85.6619 87.5594 86.1323C88.2838 86.6026 88.5897 87.38 88.4769 88.4643L88.0476 92.5924C88.0179 92.8786 87.9873 93.226 87.9559 93.6344C87.9404 93.9444 87.9654 94.1584 88.031 94.2765C88.0967 94.3946 88.2028 94.4974 88.3495 94.585L88.3134 94.9318L85.754 94.6656C85.7013 94.4765 85.6695 94.3008 85.6586 94.1383C85.6477 93.9758 85.6445 93.7919 85.6492 93.5865C85.2878 93.905 84.8824 94.166 84.4328 94.3697C83.8961 94.6087 83.3085 94.695 82.67 94.6286C81.8554 94.5439 81.2051 94.2426 80.7193 93.7248C80.2396 93.202 80.044 92.514 80.1328 91.6608C80.2478 90.5545 80.7577 89.798 81.6623 89.3914C82.1582 89.1703 82.8663 89.0492 83.7865 89.0281L84.5977 89.0123C85.0382 89.0024 85.3564 88.966 85.5521 88.9029C85.9027 88.7947 86.0938 88.5892 86.1253 88.2865C86.1636 87.9177 86.0606 87.6511 85.8162 87.4866C85.5779 87.3171 85.2111 87.2067 84.7157 87.1551C84.1598 87.0973 83.7519 87.194 83.4921 87.4452C83.3058 87.6317 83.1671 87.8954 83.076 88.2365L80.8055 88.0003C80.9369 87.2184 81.2243 86.5946 81.6678 86.1288ZM82.7604 92.6351C82.9617 92.8397 83.222 92.9585 83.5412 92.9917C84.0476 93.0444 84.5282 92.9441 84.9829 92.691C85.4431 92.4384 85.7224 91.9194 85.8208 91.1341L85.9118 90.2589C85.7535 90.337 85.5941 90.3983 85.4337 90.4428C85.2793 90.4824 85.0675 90.5133 84.7981 90.5353L84.2594 90.5794C83.7549 90.616 83.3887 90.6864 83.1609 90.7907C82.7753 90.9676 82.559 91.2817 82.5121 91.733C82.4703 92.1348 82.5531 92.4355 82.7604 92.6351ZM91.222 82.9329L93.575 83.1776L92.3094 95.3473L89.9564 95.1026L91.222 82.9329ZM97.9679 86.8391L97.032 95.8385L94.646 95.5903L95.5818 86.591L97.9679 86.8391ZM98.3053 83.5944L98.0795 85.7658L95.6935 85.5177L95.9193 83.3463L98.3053 83.5944ZM103.613 94.8287L103.43 96.5873L102.311 96.5127C101.196 96.4356 100.456 96.1639 100.093 95.6978C99.8566 95.4006 99.7677 94.9713 99.8261 94.4098L100.402 88.8699L99.1473 88.7394L99.3216 87.0634L100.577 87.1939L100.838 84.684L103.166 84.9261L102.905 87.436L104.366 87.588L104.192 89.264L102.731 89.112L102.236 93.8676C102.198 94.2364 102.22 94.4724 102.304 94.5757C102.389 94.6735 102.67 94.7473 103.149 94.7971C103.221 94.8046 103.295 94.8123 103.372 94.8203C103.455 94.8234 103.536 94.8262 103.613 94.8287ZM108.305 87.9141L107.369 96.9134L104.983 96.6653L105.919 87.666L108.305 87.9141ZM108.642 84.6694L108.416 86.8408L106.03 86.5927L106.256 84.4213L108.642 84.6694ZM117.978 90.0718C118.639 91.103 118.901 92.2681 118.766 93.5671C118.629 94.8881 118.132 95.9797 117.274 96.8419C116.417 97.6986 115.215 98.0466 113.669 97.8857C112.122 97.7249 111.018 97.1371 110.355 96.1224C109.694 95.1022 109.432 93.9316 109.569 92.6106C109.704 91.3116 110.201 90.2255 111.059 89.3523C111.918 88.479 113.121 88.1228 114.667 88.2837C116.214 88.4445 117.318 89.0406 117.978 90.0718ZM114.452 90.2726C113.764 90.201 113.208 90.3907 112.782 90.8417C112.363 91.2877 112.107 91.962 112.013 92.8647C111.919 93.7674 112.031 94.4829 112.349 95.0111C112.672 95.5399 113.178 95.8401 113.866 95.9116C114.554 95.9832 115.108 95.7932 115.527 95.3416C115.947 94.8901 116.204 94.213 116.298 93.3103C116.392 92.4077 116.279 91.695 115.961 91.1722C115.643 90.644 115.14 90.3441 114.452 90.2726ZM124.983 91.4094C124.185 91.3264 123.602 91.608 123.234 92.2541C123.043 92.5958 122.918 93.0447 122.861 93.6006L122.354 98.4718L120.009 98.2279L120.943 89.2451L123.214 89.4812L123.077 90.794C123.428 90.3631 123.749 90.0599 124.04 89.8843C124.562 89.5714 125.195 89.4536 125.938 89.5308C126.868 89.6276 127.602 89.9515 128.14 90.5026C128.684 91.0488 128.897 91.8861 128.78 93.0144L128.15 99.0745L125.739 98.8238L126.308 93.3499C126.358 92.8765 126.332 92.5067 126.232 92.2403C126.049 91.7539 125.632 91.477 124.983 91.4094ZM137.423 91.3595C138.08 91.8841 138.404 92.7023 138.394 93.814L136.041 93.5693C136.04 93.2631 135.979 93.0148 135.86 92.8244C135.635 92.4782 135.211 92.2728 134.589 92.2081C134.077 92.1549 133.703 92.1966 133.466 92.3334C133.235 92.4707 133.108 92.6466 133.086 92.8613C133.058 93.131 133.153 93.3384 133.371 93.4835C133.589 93.6342 134.384 93.9366 135.756 94.3908C136.668 94.7083 137.336 95.1143 137.757 95.6087C138.173 96.1082 138.345 96.6964 138.275 97.3734C138.182 98.2651 137.773 98.9597 137.048 99.4574C136.329 99.9502 135.276 100.124 133.889 99.9802C132.475 99.8331 131.46 99.4271 130.845 98.7622C130.235 98.0924 129.979 97.2952 130.075 96.3705L132.461 96.6186C132.467 97.0421 132.544 97.3505 132.69 97.5438C132.95 97.8879 133.473 98.1008 134.26 98.1827C134.722 98.2308 135.095 98.2 135.379 98.0905C135.669 97.9815 135.828 97.7894 135.856 97.5142C135.884 97.25 135.795 97.0376 135.589 96.8771C135.383 96.7166 134.59 96.3949 133.211 95.9121C132.219 95.553 131.533 95.1618 131.155 94.7385C130.775 94.3207 130.622 93.7596 130.695 93.055C130.782 92.2239 131.181 91.5449 131.892 91.018C132.609 90.4861 133.56 90.2818 134.743 90.4048C135.866 90.5216 136.759 90.8398 137.423 91.3595ZM149.94 88.9641L149.741 90.8796C149.61 90.8493 149.389 90.8151 149.075 90.777C148.768 90.7339 148.547 90.7804 148.41 90.9164C148.28 91.0475 148.205 91.2011 148.187 91.3773L148.108 92.1368L149.652 92.2974L149.479 93.9569L147.935 93.7963L147.181 101.054L144.836 100.81L145.59 93.5525L144.278 93.416L144.45 91.7565L145.738 91.8904L145.798 91.3125C145.899 90.3492 146.13 89.7029 146.492 89.3734C146.89 88.8695 147.741 88.6853 149.045 88.821C149.194 88.8364 149.328 88.856 149.448 88.8796C149.569 88.8977 149.733 88.9258 149.94 88.9641ZM155.313 94.9975C154.366 94.8991 153.698 95.1412 153.31 95.7239C153.092 96.0518 152.946 96.5762 152.871 97.2973L152.423 101.599L150.054 101.352L150.99 92.3531L153.235 92.5866L153.072 94.1553C153.498 93.5931 153.857 93.216 154.15 93.0238C154.628 92.7009 155.22 92.576 155.924 92.6493C155.968 92.6538 156.004 92.6603 156.031 92.6687C156.064 92.6721 156.132 92.682 156.236 92.6984L155.986 95.1092C155.839 95.0773 155.708 95.0525 155.593 95.035C155.478 95.0175 155.385 95.005 155.313 94.9975ZM157.84 94.0502C158.544 93.3223 159.653 93.0371 161.167 93.1945C162.152 93.2969 163.007 93.5833 163.732 94.0537C164.456 94.5241 164.762 95.3014 164.649 96.3857L164.22 100.514C164.19 100.8 164.16 101.147 164.128 101.556C164.113 101.866 164.138 102.08 164.203 102.198C164.269 102.316 164.375 102.419 164.522 102.506L164.486 102.853L161.926 102.587C161.874 102.398 161.842 102.222 161.831 102.06C161.82 101.897 161.817 101.713 161.821 101.508C161.46 101.826 161.055 102.087 160.605 102.291C160.068 102.53 159.481 102.616 158.842 102.55C158.028 102.465 157.377 102.164 156.892 101.646C156.412 101.123 156.216 100.435 156.305 99.5823C156.42 98.4759 156.93 97.7194 157.835 97.3128C158.33 97.0917 159.039 96.9706 159.959 96.9495L160.77 96.9337C161.21 96.9239 161.529 96.8874 161.724 96.8243C162.075 96.7161 162.266 96.5107 162.297 96.2079C162.336 95.8391 162.233 95.5725 161.988 95.408C161.75 95.2386 161.383 95.1281 160.888 95.0766C160.332 95.0188 159.924 95.1154 159.664 95.3666C159.478 95.5531 159.339 95.8168 159.248 96.1579L156.978 95.9218C157.109 95.1398 157.397 94.516 157.84 94.0502ZM158.933 100.557C159.134 100.761 159.394 100.88 159.713 100.913C160.22 100.966 160.7 100.866 161.155 100.612C161.615 100.36 161.895 99.8409 161.993 99.0555L162.084 98.1803C161.926 98.2584 161.766 98.3197 161.606 98.3643C161.452 98.4039 161.24 98.4347 160.97 98.4567L160.432 98.5009C159.927 98.5374 159.561 98.6078 159.333 98.7121C158.948 98.889 158.731 99.2031 158.684 99.6544C158.643 100.056 158.725 100.357 158.933 100.557ZM168.458 104.86C168.689 105.101 169.104 105.253 169.704 105.315C170.552 105.404 171.148 105.179 171.493 104.642C171.718 104.298 171.876 103.697 171.965 102.838L172.025 102.26C171.759 102.622 171.487 102.886 171.208 103.052C170.703 103.361 170.076 103.476 169.328 103.398C168.172 103.278 167.289 102.778 166.68 101.896C166.077 101.01 165.847 99.8735 165.991 98.4865C166.13 97.149 166.58 96.0608 167.341 95.2218C168.102 94.3774 169.093 94.0187 170.315 94.1458C170.766 94.1927 171.153 94.3025 171.474 94.475C172.022 94.7712 172.439 95.2541 172.726 95.9237L172.86 94.6275L175.147 94.8653L174.26 103.402C174.139 104.564 173.852 105.419 173.4 105.967C172.624 106.91 171.283 107.282 169.378 107.084C168.228 106.965 167.313 106.641 166.633 106.114C165.954 105.587 165.622 104.871 165.638 103.966L168.198 104.232C168.235 104.514 168.322 104.724 168.458 104.86ZM168.545 100.171C168.785 100.964 169.318 101.403 170.144 101.489C170.694 101.546 171.181 101.388 171.604 101.015C172.027 100.636 172.286 99.9923 172.38 99.0841C172.469 98.231 172.355 97.5626 172.038 97.079C171.727 96.596 171.268 96.323 170.663 96.26C169.837 96.1741 169.227 96.5029 168.833 97.2464C168.624 97.642 168.489 98.1426 168.426 98.748C168.372 99.2709 168.411 99.7452 168.545 100.171ZM179.771 95.3461L178.835 104.345L176.449 104.097L177.385 95.098L179.771 95.3461ZM180.108 92.1014L179.882 94.2728L177.496 94.0247L177.722 91.8533L180.108 92.1014ZM182.437 92.4187L184.79 92.6634L183.525 104.833L181.172 104.588L182.437 92.4187ZM193.806 103.232C193.69 103.759 193.355 104.273 192.803 104.772C191.941 105.567 190.817 105.892 189.43 105.748C188.285 105.629 187.313 105.155 186.515 104.326C185.716 103.498 185.404 102.252 185.577 100.59C185.738 99.0323 186.256 97.8788 187.13 97.1296C188.009 96.3809 189.079 96.072 190.339 96.2031C191.088 96.281 191.747 96.4914 192.318 96.8346C192.889 97.1777 193.338 97.6723 193.666 98.3184C193.963 98.8889 194.127 99.5319 194.158 100.247C194.176 100.666 194.139 101.263 194.047 102.038L187.888 101.398C187.827 102.304 188.044 102.966 188.541 103.385C188.842 103.645 189.221 103.798 189.678 103.846C190.162 103.896 190.57 103.799 190.901 103.556C191.082 103.424 191.249 103.233 191.403 102.982L193.806 103.232ZM191.764 100.232C191.791 99.6061 191.65 99.1157 191.342 98.761C191.04 98.4013 190.638 98.1954 190.137 98.1433C189.592 98.0867 189.151 98.2132 188.813 98.523C188.48 98.8334 188.245 99.2762 188.107 99.8517L191.764 100.232ZM202.334 98.1098C202.991 98.6344 203.315 99.4526 203.305 100.564L200.952 100.32C200.951 100.013 200.89 99.7651 200.771 99.5746C200.545 99.2285 200.122 99.0231 199.5 98.9584C198.988 98.9052 198.613 98.9469 198.377 99.0836C198.145 99.2209 198.019 99.3969 197.996 99.6116C197.968 99.8813 198.064 100.089 198.282 100.234C198.5 100.384 199.295 100.687 200.666 101.141C201.579 101.459 202.246 101.865 202.668 102.359C203.083 102.858 203.256 103.447 203.185 104.124C203.093 105.015 202.684 105.71 201.959 106.208C201.24 106.7 200.187 106.875 198.8 106.73C197.385 106.583 196.37 106.177 195.755 105.513C195.146 104.843 194.89 104.045 194.986 103.121L197.372 103.369C197.378 103.792 197.454 104.101 197.601 104.294C197.86 104.638 198.383 104.851 199.17 104.933C199.633 104.981 200.006 104.95 200.29 104.841C200.579 104.732 200.739 104.54 200.767 104.264C200.795 104 200.705 103.788 200.5 103.627C200.294 103.467 199.501 103.145 198.121 102.662C197.129 102.303 196.444 101.912 196.065 101.489C195.686 101.071 195.533 100.51 195.606 99.8053C195.692 98.9742 196.091 98.2952 196.803 97.7683C197.52 97.2364 198.47 97.032 199.654 97.1551C200.777 97.2719 201.67 97.5901 202.334 98.1098ZM215.151 103.582C215.063 103.784 214.993 104.105 214.942 104.545L212.713 104.313C212.843 103.387 212.997 102.754 213.177 102.417C213.357 102.074 213.769 101.703 214.411 101.302L215.063 100.894C215.277 100.766 215.453 100.62 215.593 100.457C215.844 100.177 215.989 99.8553 216.027 99.4921C216.07 99.0737 215.986 98.6811 215.774 98.3141C215.568 97.9421 215.14 97.7224 214.49 97.6548C213.852 97.5884 213.376 97.7531 213.062 98.1489C212.754 98.5452 212.576 98.9718 212.528 99.4287L210.142 99.1805C210.371 97.6187 211.035 96.5638 212.132 96.0159C212.825 95.6651 213.645 95.5389 214.592 95.6374C215.836 95.7667 216.837 96.1713 217.595 96.851C218.359 97.5313 218.68 98.4549 218.559 99.6218C218.484 100.337 218.243 100.921 217.834 101.374C217.594 101.65 217.153 101.988 216.51 102.388L215.877 102.781C215.532 102.996 215.29 103.263 215.151 103.582ZM214.75 108.08L212.289 107.824L212.537 105.438L214.998 105.694L214.75 108.08Z" fill="#7F8B59"/>
</g>
<defs>
<clipPath id="clip0_409_607">
<rect width="271.083" height="110.007" fill="white" transform="translate(19.8113) rotate(10.3751)"/>
</clipPath>
</defs>
</svg>
