<svg width="34" height="34" viewBox="0 0 34 34" fill="none" xmlns="http://www.w3.org/2000/svg">
<g clip-path="url(#clip0_172_795)">
<path d="M17 2.55387C16.4881 2.55387 15.9928 2.57601 15.5197 2.62305C15.0465 2.67008 14.5679 2.73926 14.0892 2.8361C13.6133 2.93018 13.1512 3.04915 12.7057 3.18473C12.2658 3.32031 11.8314 3.48079 11.4053 3.66064L11.3776 3.67448C10.9266 3.86816 10.4977 4.07568 10.0855 4.29704C9.67041 4.52116 9.27197 4.76188 8.8929 5.01644C8.51107 5.27376 8.1403 5.54769 7.7889 5.83822C7.4375 6.12874 7.09717 6.43587 6.77067 6.76514L6.7596 6.7762C6.43311 7.1027 6.12598 7.44027 5.83822 7.7889C5.54769 8.14307 5.27376 8.51107 5.01644 8.8929C4.76188 9.26921 4.52393 9.66764 4.2998 10.0827C4.07845 10.495 3.86816 10.9266 3.67448 11.3748L3.66064 11.4053L3.64128 11.444C3.46696 11.859 3.31201 12.2852 3.1792 12.7196C3.04362 13.1595 2.93018 13.6133 2.8361 14.0837C2.73926 14.5623 2.67008 15.0382 2.62305 15.5142C2.57601 15.9901 2.55387 16.4826 2.55387 16.9945C2.55387 17.5063 2.57601 18.0016 2.62305 18.4748C2.67008 18.9479 2.73926 19.4266 2.8361 19.9053C2.93294 20.3812 3.04915 20.8433 3.1875 21.2887C3.32308 21.7231 3.47803 22.1548 3.65788 22.5781C3.66895 22.5975 3.67725 22.6169 3.68555 22.6362C3.87646 23.0789 4.08122 23.5023 4.30257 23.909C4.52669 24.3241 4.76742 24.7225 5.01921 25.0988C5.27653 25.4834 5.55046 25.8514 5.84375 26.2056C6.12598 26.5487 6.42757 26.8807 6.74577 27.1989C6.76514 27.2155 6.78174 27.2321 6.79834 27.2515C7.1193 27.5724 7.45133 27.8713 7.79167 28.1535C8.14583 28.444 8.51383 28.7179 8.89567 28.9753C9.27197 29.2298 9.67041 29.4678 10.0855 29.6919C10.4977 29.9132 10.9294 30.1235 11.3776 30.3172L11.4357 30.3449C11.8563 30.522 12.2852 30.6769 12.7279 30.8125C13.165 30.9481 13.6216 31.0615 14.0892 31.1556C14.5679 31.2524 15.0438 31.3216 15.5197 31.3687C15.9956 31.4157 16.4881 31.4378 17 31.4378C17.5119 31.4378 18.0072 31.4157 18.4803 31.3687C18.9535 31.3216 19.4321 31.2524 19.9108 31.1556C20.3867 31.0588 20.8488 30.9425 21.2943 30.8042C21.7342 30.6686 22.1686 30.5081 22.5975 30.3255L22.6224 30.3145V30.3117C23.0734 30.118 23.5023 29.9105 23.9146 29.6891C24.3296 29.465 24.728 29.2243 25.1071 28.9697C25.4889 28.7124 25.8597 28.4385 26.2111 28.1479C26.557 27.863 26.889 27.5614 27.2127 27.2376C27.2293 27.221 27.2432 27.2044 27.2625 27.1878C27.5807 26.8696 27.8796 26.5376 28.1618 26.1973C28.4523 25.8431 28.729 25.4751 28.9863 25.0905C29.2409 24.7142 29.4788 24.3158 29.703 23.9007C29.9243 23.4884 30.1346 23.0596 30.3283 22.6086L30.356 22.5477C30.533 22.1299 30.688 21.701 30.8236 21.2611C30.9591 20.8211 31.0726 20.3673 31.1667 19.897C31.2635 19.4183 31.3327 18.9424 31.3797 18.4665C31.4268 17.9906 31.4489 17.498 31.4489 16.9862C31.4489 16.4743 31.4268 15.979 31.3797 15.5059C31.3327 15.0327 31.2635 14.554 31.1667 14.0754C31.0698 13.5994 30.9536 13.1374 30.8153 12.6919C30.6797 12.252 30.5192 11.8175 30.3366 11.3887L30.3255 11.3638C30.1318 10.9128 29.9243 10.4839 29.703 10.0716C29.4788 9.65658 29.2381 9.25814 28.9863 8.88183C28.729 8.5 28.4551 8.12923 28.1646 7.77783C27.8823 7.43473 27.578 7.09993 27.257 6.77897C27.2376 6.76237 27.221 6.74577 27.2072 6.72917C26.8862 6.4082 26.557 6.10937 26.2139 5.82715C25.8597 5.53662 25.4917 5.26269 25.1099 5.00537C24.7308 4.75081 24.3351 4.51286 23.9201 4.28874C23.5078 4.06738 23.0789 3.8571 22.6279 3.66618L22.5754 3.64128C22.1548 3.46419 21.7231 3.30648 21.2804 3.1709C20.8433 3.03532 20.3867 2.92187 19.9163 2.8278C19.4377 2.73096 18.9618 2.66178 18.4858 2.61475C18.0072 2.57601 17.5119 2.55387 17 2.55387ZM17.5257 8.62451C18.1317 8.62451 18.6076 8.79883 18.9535 9.14469C19.2966 9.49056 19.4709 9.9637 19.4709 10.5752C19.4709 11.195 19.1748 11.7428 18.5827 12.227C17.985 12.7085 17.2933 12.952 16.502 12.952C15.9098 12.952 15.4367 12.786 15.0742 12.4539C14.7118 12.1164 14.5319 11.682 14.5319 11.1396C14.5319 10.4562 14.828 9.86963 15.4146 9.36881C15.9984 8.87077 16.7039 8.62451 17.5257 8.62451ZM20.9041 25.3755H13.0959V24.0612H14.5623V16.0343H13.0959V14.9884H16.7454C17.6668 14.9884 18.5744 14.8778 19.4709 14.6509V24.0612H20.9041V25.3755ZM13.5911 0.332031C14.1335 0.224121 14.6952 0.141113 15.2734 0.0857747C15.8517 0.0276693 16.4272 0 17 0C17.5728 0 18.1483 0.0276693 18.7266 0.0857747C19.3049 0.141113 19.8665 0.224121 20.4089 0.332031C20.9456 0.439941 21.4824 0.575521 22.0192 0.741536C22.5394 0.902018 23.054 1.09017 23.5632 1.30599L23.6157 1.32536L23.6323 1.33089C24.1442 1.55225 24.6423 1.79297 25.1209 2.05306C25.5941 2.31038 26.0617 2.59261 26.5238 2.90251C26.9748 3.20687 27.4119 3.5306 27.8325 3.87646C28.2531 4.22233 28.6543 4.5848 29.0334 4.9694C29.4152 5.35124 29.7804 5.75244 30.1263 6.17025C30.4722 6.59082 30.7959 7.02523 31.1003 7.479C31.4019 7.93001 31.6841 8.39762 31.9469 8.87907H31.9497C32.2098 9.36051 32.4533 9.85856 32.6719 10.3704C32.6774 10.3843 32.6829 10.3981 32.6885 10.4119C32.9043 10.9183 33.0924 11.4357 33.2557 11.9614C33.4245 12.5037 33.5628 13.0461 33.6707 13.5911C33.7786 14.1335 33.8617 14.6951 33.917 15.2734C33.9723 15.8517 34 16.4272 34 17C34 17.5728 33.9723 18.1483 33.9142 18.7266C33.8589 19.3048 33.7759 19.8665 33.668 20.4089C33.5601 20.9456 33.4245 21.4824 33.2585 22.0192C33.098 22.5422 32.9071 23.0596 32.6912 23.5742L32.6802 23.5991L32.6663 23.6296C32.445 24.1414 32.2043 24.6395 31.9442 25.1182C31.6868 25.5913 31.4046 26.0589 31.0947 26.521C30.7904 26.972 30.4666 27.4092 30.1208 27.8298C29.7749 28.2503 29.4124 28.6488 29.0278 29.0306C28.646 29.4124 28.2448 29.7777 27.8242 30.1235C27.4036 30.4694 26.9692 30.7931 26.5182 31.0947C26.0672 31.3963 25.5996 31.6785 25.1182 31.9414C24.6257 32.207 24.1304 32.4505 23.6268 32.6663C23.613 32.6719 23.5991 32.6774 23.5825 32.6829C23.0762 32.8988 22.5588 33.0869 22.033 33.2502C21.4907 33.4189 20.9484 33.5573 20.4061 33.6652C19.8638 33.7731 19.3021 33.8561 18.7238 33.9115C18.1455 33.9668 17.57 33.9945 16.9972 33.9945C16.4245 33.9945 15.849 33.9668 15.2707 33.9115C14.6924 33.8561 14.1307 33.7731 13.5884 33.6652C13.0516 33.5573 12.5148 33.4217 11.978 33.2557C11.4551 33.0952 10.9377 32.9043 10.4258 32.6885L10.3704 32.6663C9.85856 32.445 9.36051 32.2043 8.88184 31.9442C8.40869 31.6868 7.94108 31.4046 7.479 31.0947C7.028 30.7931 6.59082 30.4666 6.17301 30.1235C5.75244 29.7777 5.35124 29.4124 4.9694 29.0306C4.58756 28.6488 4.22233 28.2476 3.87647 27.8298C3.5306 27.4092 3.20687 26.972 2.90251 26.521C2.60091 26.07 2.31868 25.6024 2.05583 25.1209C1.78743 24.6284 1.54671 24.1304 1.33089 23.6268C1.32536 23.613 1.31982 23.5991 1.31429 23.5853C1.09847 23.0789 0.910319 22.5615 0.74707 22.0358C0.578288 21.4935 0.439941 20.9484 0.332031 20.4061C0.224121 19.8638 0.141113 19.3021 0.0857747 18.7238C0.0276693 18.1483 0 17.5728 0 17C0 16.4272 0.0276693 15.8517 0.0857747 15.2734C0.141113 14.6951 0.224121 14.1335 0.332031 13.5911C0.439941 13.0544 0.575521 12.5176 0.741536 11.9808C0.902018 11.4606 1.09017 10.946 1.30599 10.4341L1.33089 10.3704C1.55225 9.85856 1.79297 9.36051 2.05306 8.88183C2.31038 8.40869 2.59261 7.94108 2.90251 7.479C3.20687 7.02799 3.5306 6.59082 3.87647 6.17025C4.22233 5.74967 4.5848 5.35124 4.9694 4.9694C5.35124 4.58756 5.75244 4.22233 6.17025 3.87646C6.59082 3.5306 7.02523 3.20687 7.479 2.90251C7.94108 2.59261 8.40869 2.31038 8.88184 2.05306L8.91781 2.03646C9.39648 1.77637 9.8807 1.54395 10.3732 1.33089C10.387 1.32536 10.4009 1.31982 10.4147 1.31429C10.9211 1.09847 11.4385 0.910319 11.9642 0.74707C12.5037 0.578288 13.0461 0.439941 13.5911 0.332031Z" fill="#E5231A"/>
</g>
<defs>
<clipPath id="clip0_172_795">
<rect width="34" height="34" fill="white"/>
</clipPath>
</defs>
</svg>
