<svg id="Calque_1" xmlns="http://www.w3.org/2000/svg" viewBox="0 0 42.52 42.52"><defs><style>
      .cls-1 {
        fill: #1d1d1b;
      }
      .cls-2 {
        fill: #f6e81d;
      }
    </style></defs><circle class="cls-2" cx="21.26" cy="21.26" r="21.26"></circle><path class="cls-1" d="M25.11,7.07l-13.39,2.99c-1.14.26-1.87,1.4-1.61,2.54l4.77,21.38c.26,1.14,1.4,1.87,2.54,1.61l13.39-2.99c1.14-.26,1.87-1.4,1.61-2.54l-4.77-21.38c-.26-1.15-1.4-1.87-2.54-1.62h0ZM28.88,28.91l-11.3,2.52c-.43.1-.86-.18-.96-.61s.18-.86.61-.96l11.3-2.52c.43-.1.86.18.96.61s-.18.86-.61.96ZM27.67,23.49l-11.3,2.52c-.43.1-.86-.18-.96-.61s.18-.86.61-.96l11.3-2.52c.43-.1.86.18.96.61s-.18.86-.61.96ZM26.46,18.08l-11.3,2.52c-.43.1-.86-.18-.96-.61s.18-.86.61-.96l11.3-2.52c.43-.1.87.18.96.61s-.18.86-.61.96ZM25.25,12.66l-11.3,2.52c-.43.1-.86-.18-.96-.61s.18-.86.61-.96l11.3-2.52c.43-.1.86.18.96.61s-.18.86-.61.96Z"></path></svg>