<svg id="Calque_1" xmlns="http://www.w3.org/2000/svg" viewBox="0 0 1727.29 472.52"><defs><style>
      .pc-cls-1 {
        fill: #050606;
      }
      .pc-cls-2 {
        fill: #363636;
      }
      .pc-cls-3 {
        fill: #f6f6f6;
      }
      .pc-cls-4 {
        fill: #171717;
      }
      .pc-cls-5 {
        fill: #050506;
      }
      .pc-cls-6 {
        fill: #fdeb23;
      }
      .pc-cls-7 {
        fill: #303030;
      }
      .pc-cls-8 {
        fill: #020303;
      }
      .pc-cls-9 {
        fill: #101010;
      }
      .pc-cls-10 {
        fill: #222;
      }
      .pc-cls-11 {
        fill: #131313;
      }
    </style></defs><g><path id="tiret-pc-16" d="M1727.29,74.56v4.49c-3.49-1.6-6.48-3.49-9.29-7.27,4.02.73,6.41,1.64,9.29,2.79Z"></path><path id="tiret-pc-1" d="M.02,84.51l-.02-9.57c4.6-2.43,32.51-20.82,35.42-14.43L.02,84.51Z"></path><path id="tiret-pc-12" d="M1370.69,44.73c-2.12,1.01-4.65.99-6.15-.65l28.74-17.09c3.7-2.2,7.57-3.53,12.05-3.79-.47,2.51-2.09,6.06-4.27,7.1l-30.36,14.43Z"></path><path id="tiret-pc-13" d="M1497.4,5.79c-11.3.88-21.9,2.74-32.88,5.12-3.34.72-6.5,1.22-10.31.66,7.98-2.92,47.73-17.81,52.77-8.6-2.95,1.68-6.06,2.55-9.59,2.82Z"></path><path id="tiret-pc-14" d="M1613.34,22.46l-45.4-9.41c13.72-3.14,26.91-.57,39.99,1.32,3.74.54,6.31,3.7,5.42,8.08Z"></path><path id="tiret-pc-8" d="M761.35,38.23c-10.96,2.14-23.91,5.48-33.28,8.52-.73.24-2.41-.21-2.82-.41s.47-1.24.88-1.83c8.34-3.97,31.34-14.37,39.66-10.9-1.01,1.69-2.79,4.31-4.43,4.63Z"></path><path id="tiret-pc-3" d="M206.7,49.75c-10.45-1.45-28.82-6.1-36.17-14.91,4.98-2.17,34.24,8.39,36.17,14.91Z"></path><path id="tiret-pc-4" d="M292.66,78.23c.53.19,1.49.9,1.87,1.17,6.17,4.36-28.21,1.59-35.42-10.85,3.74-.04,7.58.16,10.93,1.39l22.62,8.29Z"></path><path id="tiret-pc-15" d="M1696.36,53.87c-2.27.21-5.06.29-6.62-.36l-28.49-11.77c-1.37-.57-2.54-2.26-2.13-3.83l30.86,9.32c3.11.94,5.26,3.44,6.38,6.63Z"></path><path id="tiret-pc-11" d="M1332.89,59.88c-2.12,9.2-23.99,12.53-31.72,13.58-1.12.15-3.65-1.25-3.91-1.96,8.56-2.7,15.63-4.99,23.35-8.28,4.08-1.74,7.8-3.08,12.28-3.35Z"></path><path id="tiret-pc-5" d="M388.07,74.7c3.49,6.94-16.96,5.79-20.39,6.99-4.43-.91-7.93-1.82-12.59-3.68,5.87-2.48,10.77-2.87,16.59-3.02l16.39-.29Z"></path><path id="tiret-pc-7" d="M686.91,57.27c7.02,6.68-30.38,14.31-33.26,10.39l27.09-9.24c1.84-.63,4.58-1.09,6.17-1.15Z"></path><path id="tiret-pc-2" d="M126.41,42.34l-26.73,2.09c-3.95.31-8.67-.46-13.05-.9,5.41-4.73,36.46-7.53,39.77-1.18Z"></path><path id="tiret-pc-9" d="M1013.66,47.42c-3.43.62-7.39-.17-10.22-2.56-6.66-5.6-14.34-8.34-21.7-13.6,12.91.52,22.95,7.9,31.92,16.16Z"></path><path id="tiret-pc-10" d="M1080.32,76.26c-4.95,2.08-9.78,1.42-14.23-.97-5.3-2.84-11.59-3.17-15.65-9.09l29.88,10.06Z"></path><path id="tiret-pc-6" d="M466.43,76c-8.76,5.48-19.09,3.88-27.94,1.38,9.36-2.31,18.07-3.22,27.94-1.38Z"></path></g><g id="__velo_pc__"><path class="pc-cls-6" d="M805.97,351.18c.66,1.33,1.66,2.65,2.68,3.69,2.66,7.16,8.42,9.76,8.97,18.5.21,3.24.06,9.33-.05,12.43-.01.35.16.99.26,1.35l-.04,1.02-.02.47.02,2.29c0,.28.09.82.12,1.12.18,1.98.28,3.99.33,5.99.01.4.04,1.12,0,1.49-.76,8.34-4.19,12.73-12.27,15.1-1.47.43-4.13.6-5.68.6l-8.08-1.26c-6.57-1.02-18.19,3.51-26.08,1.19-.66-.19-1.39-.99-1.85-.47l-.47-.07c-3.76-1.59-6.33-4.53-8.1-8.28-8.54-18.07,8.59-26.89,12.08-36.53l5.3-14.62c.4-1.11.88-2.03,1.11-2.93,6.84-1.1,13.7-1.12,20.85-1.1l10.92.02Z"></path><path class="pc-cls-5" d="M803.19,341.69c1.84,1.93,2.74,4.49,3.66,6.85.48.04,1.49.09,1.97.06l4.7-.38c.56-.05,1.53.23,1.88.44-.67.75-1.67,1.65-2.33,1.73l-7.1.8-10.92-.02c-7.15-.01-14.01,0-20.85,1.1l-2.84.45-1.37-.17c-1.15-.5-2.15-1.45-2.55-2.49.81-.38,1.6-.75,2.06-.77l4.94-.13.32-1.28c1.58-6.33.38-3,3.67-8.35l.65-.54,3.69-1.5c6.83-3.28,15.28-1.18,20.41,4.19Z"></path><path class="pc-cls-11" d="M837.68,403.74l.47.58-1.81.37,1.97,5.58c.18.51-.91,1.88-1.25,1.61l-1.47-1.18-.55,5.61c-.29,2.99-.52,6.11-.55,8.96,3.35.76,6.01,1.58,8.83,2.74l5.4,5.03c.12.11.33.37.44.5.31,1.33,2.06,2.27,2.75,3.33,3.86,5.9,3.95,13.14.92,19.53-1.18,2.5-3.95,4.75-5.28,7.18-.42.33-1.05.96-1.39,1.35-3.03,1.92-6.73,5.66-10.41,6.53-6.49,1.53-13.37.02-18.56-4l-4.09-3.18-3.01-4.43c-.42-.62-2.89-6.18-3.18-8.23-.99-6.99,1.73-12.92,6.64-17.52l.56.17c-1.41,2.54-3.73,4.64-4.78,7.6-3.78,10.59,2.03,20.43,11.48,25.72,12.13,6.8,24.48-1.99,30.25-12.67,2.57-4.76,3.06-10.92-.17-15.52-2.14-3.05-4.57-5.86-7.08-8.6-2.34-2.56-5.99-3.75-9.49-4.32l-2.04,18.82c-.1.88,1.75,2.59,1.14,3.47-.51.74-1.72,1.9-2.51,1.45-2.02-1.17-.1-2.66,0-3.81l1.4-16.19-5.83,1.28c1.45-1.96,3.29-1.59,5.71-1.65l.42-3.4-3.03-.57.13-.55c.87-.15,1.94-.2,3.24-.27.27-1.8.66-3.46.64-5.92l-.14-17.37c0-.09-.03-.27-.04-.38,2.95-.33,1.1,2.27,4.28,2.36Z"></path><path class="pc-cls-8" d="M763.4,426.18c.1-.03.64-.27.68-.11l.2.97c-.68.66-1.61,1.84-1.65,2.56,2.85,2.43,3.89,6.09,5.84,6.76,0,.17,0,.39.03.5l1.55,5.22c1.41,4.75,1.32,8.55-.43,13.8h5.53c.22-.48.55-1.08.5-1.4,4.24,2.05,9.76.57,13.71-1.5l1.01.65c-1.13,1.81,1.5,1.85.92,3.74-1.08,3.56-12.48,1.8-15.18,2.47-1.53-.44-1.55-2.97-2.52-2.8l-1.25.23h-1.89s-1.13-.05-1.13-.05c-.28-.01-.57.65-.75,1l-1.94,3.83-3.25,3.86c-.95,1.13-5.37,3.64-6.21,4.09-5.51,2.91-11.52,2.61-17.43,2.33-1.27-.51-2.86-.86-4.23-1.36l-2.45-.9c-1.14-1.02-2.58-1.71-4.06-2.26-1.97-2.55-4.19-5.08-5.28-8.13.11-.23.24-.43.07-.47l-.55-.12-.04-.84c.21-.24.37-.39.19-.45-.14-.04-.65-.14-.63-.13l-.63-3c-.83-3.97.53-7.96.57-10.6,0-.13,0-.28.03-.36l1.25-1.06.05.99c-1.1,5.51-1.52,11.39,1.33,16.53,1.15,2.08,2.65,4.24,4.46,5.62,4.66,3.58,10.22,4.92,16.02,4.91,9.29-.01,17.23-4.95,21.27-13.51l-1.57-.52c.28-.34,1.31-.71,2.02-.89,2.97-5.35,1.79-12.77-.87-18.14-.91,0-1.86-.07-2.31.11l-.02-.69,1.38-.81-3.13-4.24c-.37-.5-1.66-.75-2.15-.7l-.77-.04.08-1.05c.08-1.03-8.94-3.59-11.58-3.61-3.93-.03-8.39.94-11.84,2.46v-.47c.19-.37,5.77-2.72,5.68-2.69,1.16-.37,3.31-.52,4.74-.69,5.25-.61,9.87,1.2,14.6,3.42l2.05-2.5Z"></path><path class="pc-cls-8" d="M791.28,452.12l-.81,1.08c-.19-.27-.5-.78-.61-1.08h1.42Z"></path><path class="pc-cls-8" d="M792.22,413.98l4.31,4.43-.11.66-14.73-.23.13,3.92h-.95l-.13-4.12-4.87.43-.21,4.16h-.95c0-1.28.18-2.6.29-4.22-1.36-.06-3.88.16-4.69,1.11l-4.61,5.41-1.32-.38,4.33-5.53c-2.08-.05-4.68-1.26-5.09-2.59-.07-.23-.34-.68-.27-.9.26-.02.88-.04.9-.3l.05-1.12c.46-.52,1.19.27,1.85.47,7.89,2.33,19.51-2.21,26.08-1.19Z"></path><path class="pc-cls-8" d="M1002.82,422.81h0c.65,1.22.96,2.61.9,3.99-.31,7.51-1.99,7.82-4.61,14.43l-.41,1.05c-.13.32-.27.63-.44.93l-2.24,4c-.47.11-1.37-.04-1.48-.39-1.86-5.62,9.05-14.23,5.73-22.56-.65-1.64-2.1-2.27-3.74-2.4-1.78-.14-3.24.13-4.66,1.42-3.68,3.33-3.33,7.53-1.85,12.71-4.27-3.16-3.54-9.24-.99-13.25,1.39-2.19,3.41-3.55,5.67-4.06,1.55-.35,3.12.07,4.58.73s2.77,1.9,3.56,3.39Z"></path><path class="pc-cls-8" d="M804.06,444.07c.44.35,1.56,1.07,1.43,1.62s-.82,1.61-.98,2.15l-11.07-.03c-.38,1.08-.71,1.75-1.26,1.94v-1.9s-5.85,0-5.85,0c-.23-.2-.33-1.83-.08-2.33.28-.59,1.37-.97,2.11-1.06l.65-.47c4.63,1.01,9.54.33,14.16-.75.21.21.65.64.89.83Z"></path><path class="pc-cls-8" d="M936.05,459.03c-2.98.64-5.78.02-6.68-2.71,1.23-1.07,8.59-1.88,10.16-.78-.76,1.28-2.04,3.18-3.48,3.49Z"></path><path class="pc-cls-4" d="M836.22,396.24c-.54-.03-1.44-.58-1.86-.96-.11-.28-.29-.77-.47-.98-2.74-3.27-11.36-5.92-15.62-6.12-.12,0-.33,0-.47,0l.04-1.02c4.92.89,6.47,1.06,11.34,2.47l-.56-2.22c-.07-.27.57-.59,1.29-.85l2.56,4.98c1.53.8,3.6,3.18,3.76,4.7Z"></path><path class="pc-cls-1" d="M899.14,459.13c-2.21-.48-4.15-.4-5.29-2.43.26-.95,8.87-2.18,9.05-.18.8,1.6-2.03,2.98-3.76,2.61Z"></path><path class="pc-cls-8" d="M875.09,457.3c-1.47,3.78-9.06,1.91-8.54-.51,1-.65,7.73-.8,8.54.51Z"></path><path class="pc-cls-11" d="M833.37,394.9l.99.37c.42.38,1.32.93,1.86.96.21,2.06,1.14,1.13,2.58,4.25.54,1.16.23,3.04-.66,3.83l-.47-.58c2.46-3.25-3.19-7.55-6.48-8.69-1.87-.65-3.65-1.22-5.36-1.67v-.47c2.07-.09,5.71,1.3,7.53,1.99Z"></path><path class="pc-cls-9" d="M736.34,428.63v.47c-3.64,1.6-6.43,4.98-8.82,8.13-.27.36-1.17.67-1.52.65l1.45-3.15c1.11-.62,2.03-1.89,2.79-2.89,1.69-1.25,4.22-2.56,6.1-3.22Z"></path><path class="pc-cls-5" d="M969.81,454.9c.75,3.13-4.29,3.7-5.07,2.92-.39-.39-.56-1.42-.63-2.34,2.17-.34,3.64-.48,5.71-.58Z"></path><path class="pc-cls-5" d="M995.53,455.12c1.08-.48,2.17.73,1.71,1.82-.31.74-.85,1.32-1.4,1.17s-1.01-1.51-.99-2.02c.01-.44.25-.78.68-.97Z"></path><path class="pc-cls-8" d="M726.04,439.37c-.1.22-.07.82-.28.93-.29.14-.81.28-1.17.36l-.35-.05-.08-.68c.16-.24.49-.84.37-1.14h.42s1.09.58,1.09.58Z"></path><path class="pc-cls-9" d="M765.69,425.53c-.44.51-.92,1.05-1.4,1.52l-.2-.97c-.03-.16-.58.08-.68.11.24-.29.71-.76.97-1.03l1.32.38Z"></path><path class="pc-cls-9" d="M723.18,458.28l-.44-.58s.49.09.63.13c.18.05.02.21-.19.45Z"></path><path class="pc-cls-9" d="M723.7,459.7l-.48-.59.55.12c.17.04.04.23-.07.47Z"></path><path class="pc-cls-9" d="M781.81,422.75l-.21,10.78c7.81,1.16,4.27.23,10.1,3.6l.03,1.25-2.07,2.89c-.43.6-.68,1.96-.65,2.72l-.65.47c-1.01-3.45,2.31-4.74,1.92-6.17-.68-2.5-5.8-3.91-9.05-3.18l1.2,10.68c.57,5.09,6.2,2.93,7.43,6.33.11.31.42.81.61,1.08l-.11.44-1.01-.65c-.36-2.88-6.76-1.41-7.6-6.37-.67-3.93-1.2-8-1.12-12.04l.23-11.84h.95Z"></path><path class="pc-cls-8" d="M805.98,414.64c.02,1.16-.36,2.27-1.12,3.73,2.27,2.04,4.87,5.46,3.54,8.98-.63,1.68-2.67,3.46-3.81,4.88l-4.7,5.83,3.28,1.36c.51,1.37.82,3.17.89,4.64-.25-.19-.69-.61-.89-.83.07-.92-.35-3.2-1.4-3.35l-4.43-.65,4.46-5.02c1.98-2.22,3.99-4.68,5.65-7.14,1.76-2.6-1.2-6.36-3.1-7.77-1.8-1.34-2.99-2.56-4.04-4.07,1.55,0,4.2-.16,5.68-.6Z"></path><path class="pc-cls-11" d="M833.4,401.39c.01.12.04.29.04.38-1.92-.15-3.88-.57-5.84-1.23l-5.21-1.08c-1.21-.25-2.96-.08-4.15.08.03-.37,0-1.09,0-1.49,5.02.45,10.59,1.36,15.16,3.33Z"></path><path class="pc-cls-11" d="M825.84,392.91v.47c-2.58-.68-5.32-1.17-7.93-1.32-.03-.29-.11-.84-.12-1.12l6.83,1.22c.35.06,1.15.64,1.21.75Z"></path><path class="pc-cls-9" d="M763.34,416.12l.47-1.49.47.07-.05,1.12c-.01.26-.64.28-.9.3Z"></path><path class="pc-cls-3" d="M817.78,388.65l.02-.47c.14,0,.36,0,.47,0l-.49.47Z"></path><path class="pc-cls-7" d="M829.71,425.33l-.13.55c-5.52,1.88-10.82,4.42-15.47,8.41l-.56-.17c4.49-4.21,9.84-7.66,16.16-8.78Z"></path><path class="pc-cls-9" d="M775.65,423.22l-.13,12.14c-.05,4.89-.57,14.36.12,19.12-2.55-1.23-1.05-14.83-1.05-18.59l-6.1.97c-.03-.12-.02-.34-.03-.5l.36-.45,5.86-1.23.02-11.46h.95Z"></path><path class="pc-cls-10" d="M755.11,437.48c-.55.53-1.19,1.85-1.78,2.9l11.01-3.3.02.69c-2.97,1.13-8.93,3.03-12.05,3.84l-2.98,3.08.51-2.37-7.12,3.21c-.37.17-1.29.35-1.59.39,2.28-1.74,7.37-4.02,10.25-5.13,1.21-1.31,2.42-2.59,3.32-3.7l.42.37Z"></path><path class="pc-cls-9" d="M760.44,431.35c-1.18,1.88-3.86,4.72-5.33,6.14l-.42-.37c1.59-1.97,2.97-4.25,4.98-5.81l.77.04Z"></path><path class="pc-cls-9" d="M724.49,441.75c.31.52-.22,1.42-.47,1.92l-.05-.99-1.25,1.06.93-1.96.84-.02Z"></path><path class="pc-cls-9" d="M797,419.13l-.39.37-.19-.44.11-.66c.15.16.35.53.47.73Z"></path><path class="pc-cls-3" d="M834.36,395.28l-.99-.37.51-.61c.18.22.37.7.47.98Z"></path><path class="pc-cls-9" d="M725.94,438.38s.34.48.34.44c0-.07-.17.39-.25.55l-1.09-.58.99-.41Z"></path><polygon class="pc-cls-8" points="724.52 441.22 724.49 441.75 723.65 441.77 723.57 441.22 724.52 441.22"></polygon><polygon class="pc-cls-9" points="724.58 440.66 724.52 441.22 723.57 441.22 724.23 440.61 724.58 440.66"></polygon><path class="pc-cls-8" d="M791.73,438.38l-.03-1.25c2.43-1.7,10.44-11.77,7.92-14.44l-3.01-3.19.39-.37c1.14.86,2.54,2.01,3.37,3.43,2.36,3.98-5.75,13.41-8.64,15.82Z"></path><path class="pc-cls-5" d="M812.57,447.89c-.06,4.19,2.27,7.34,3.35,11.51-3.79-5.01-5.33-11.57-3.53-17.77.16,1.97.21,4.08.18,6.27Z"></path><path class="pc-cls-8" d="M848.03,446.47l-4.14-10.76c2.97,2.79,4.18,7.08,4.14,10.76Z"></path><path class="pc-cls-5" d="M834.32,467.02c-4.12,1.59-10.24-.84-13.09-3.02l7.54,2.62c1.53.53,3.38.19,5.55.4Z"></path><path class="pc-cls-5" d="M818.91,461.7c-.5.02-1.15.02-1.41-.1-.33-.15-.36-.88-.3-1.68l1.71,1.78Z"></path><path class="pc-cls-8" d="M839.88,432.31c-1.13-.36-2.11-.79-3.22-1.35,1.36-.22,2.3.26,3.22,1.35Z"></path><path class="pc-cls-8" d="M842.48,434.43c.11-.2,1.24-.11,1.21.12l-.15,1.04c-.04.31-1.21-.89-1.06-1.16Z"></path><path class="pc-cls-8" d="M728.16,452.41c.26,1.32.16,2.62-.19,3.66-4.51-10.45,1.66-22.95,12.54-25.86l-6.11,4.76c-5.3,4.13-7.57,10.68-6.24,17.44Z"></path><path class="pc-cls-8" d="M764.44,457.21l.3.06c.02,1.67-1.51,4.68-3.12,5.81-2.43,2.42-4.73,4.82-8.44,4.93,5.15-2.38,8.77-6.04,11.27-10.8Z"></path><path class="pc-cls-2" d="M751.93,455.46l-.03.83c-2.88-.29-6.05-.37-8.8-1.46-3.33-1.32-5.21-5.48-2.95-7.92l.38.67c-.57.99-1.08,2.5-.71,3.24,1.31,2.6,3.56,3.76,6.34,4.05l5.78.59Z"></path><path class="pc-cls-8" d="M764.42,456.79l-3.5-.27c-2.24-.17-4.5-.14-6.58-.14v-.95l4.34.34c3.77.29,5.65-.4,5.73,1.01Z"></path><path class="pc-cls-9" d="M753.4,455.43v.95c-.44,0-1.06-.06-1.5-.1l.03-.83c.37.04,1.07-.01,1.47-.02Z"></path><path class="pc-cls-2" d="M754.35,455.43v.95h-.95v-.95c.26,0,.71-.02.95,0Z"></path><path class="pc-cls-10" d="M745.72,450.52c-.53.03-1.42-1.17-1.52-1.62-.53-2.23,2.26-.48,4.94-3.99l-1.6,2.85c-.31.75-.82,2.7-1.81,2.76Z"></path><path class="pc-cls-3" d="M764.34,437.09l-11.01,3.3c.59-1.05,1.24-2.37,1.78-2.9,1.47-1.42,4.15-4.25,5.33-6.14.49-.06,1.78.2,2.15.7l3.13,4.24-1.38.81Z"></path></g></svg>