<svg id="Calque_1" xmlns="http://www.w3.org/2000/svg" viewBox="0 0 376 668"><defs><style>
      .cls-1 {
        fill: #2f2f2f;
      }
      .cls-2 {
        fill: #363636;
      }
      .cls-3 {
        fill: #f6f6f6;
      }
      .cls-4 {
        fill: #171717;
      }
      .cls-5 {
        fill: #faeb52;
      }
      .cls-6 {
        fill: #1d1c1b;
      }
      .cls-7 {
        fill: #4f4f4f;
      }
      .cls-8 {
        fill: #020202;
      }
      .cls-9 {
        fill: #10100f;
      }
      .cls-10 {
        fill: #050504;
      }
      .cls-11 {
        fill: #131313;
      }
      .cls-12 {
        fill: #333;
      }
      .cls-13 {
        fill: #222;
      }
    </style></defs><g><path class="cls-5" d="M184.59,573.61c.36.72.91,1.44,1.46,2.01,1.45,3.91,4.59,5.32,4.89,10.09.11,1.77.03,5.09-.03,6.78,0,.19.09.54.14.73l-.02.56v.26s0,1.25,0,1.25c0,.15.05.45.06.61.1,1.08.15,2.18.18,3.27,0,.22.02.61,0,.81-.41,4.54-2.29,6.94-6.69,8.23-.8.24-2.25.33-3.09.33l-4.41-.69c-3.58-.56-9.92,1.92-14.22.65-.36-.11-.76-.54-1.01-.25l-.26-.04c-2.05-.87-3.45-2.47-4.42-4.52-4.66-9.85,4.68-14.66,6.59-19.92l2.89-7.97c.22-.6.48-1.1.61-1.6,3.73-.6,7.47-.61,11.37-.6h5.95Z"></path><path class="cls-10" d="M183.07,568.43c1.01,1.05,1.49,2.45,2,3.73.26.02.81.05,1.07.03l2.56-.21c.31-.02.84.13,1.03.24-.36.41-.91.9-1.27.94l-3.87.44h-5.95c-3.9-.02-7.64,0-11.37.59l-1.55.25-.75-.09c-.63-.27-1.17-.79-1.39-1.36.44-.21.87-.41,1.12-.42l2.69-.07.17-.7c.86-3.45.21-1.64,2-4.56l.35-.29,2.01-.82c3.72-1.79,8.33-.64,11.13,2.29Z"></path><path class="cls-11" d="M201.87,602.26l.26.31-.99.2,1.07,3.04c.1.28-.5,1.03-.68.88l-.8-.64-.3,3.06c-.16,1.63-.28,3.33-.3,4.89,1.83.41,3.28.86,4.82,1.49l2.94,2.74c.07.06.18.2.24.27.17.73,1.12,1.24,1.5,1.82,2.1,3.22,2.15,7.16.5,10.65-.65,1.36-2.15,2.59-2.88,3.92-.23.18-.57.52-.76.74-1.65,1.05-3.67,3.08-5.68,3.56-3.54.84-7.29.01-10.12-2.18l-2.23-1.73-1.64-2.41c-.23-.34-1.57-3.37-1.73-4.49-.54-3.81.94-7.04,3.62-9.55l.31.09c-.77,1.39-2.03,2.53-2.61,4.14-2.06,5.78,1.1,11.14,6.26,14.03,6.61,3.71,13.35-1.09,16.49-6.91,1.4-2.59,1.67-5.95-.09-8.46-1.17-1.66-2.49-3.2-3.86-4.69-1.28-1.39-3.26-2.05-5.18-2.36l-1.11,10.26c-.05.48.95,1.41.62,1.89-.28.4-.94,1.04-1.37.79-1.1-.64-.05-1.45,0-2.08l.76-8.83-3.18.7c.79-1.07,1.79-.87,3.11-.9l.23-1.86-1.65-.31.07-.3c.47-.08,1.06-.11,1.76-.15.14-.98.36-1.89.35-3.23l-.08-9.47c0-.05-.01-.14-.02-.21,1.61-.18.6,1.24,2.33,1.29Z"></path><path class="cls-8" d="M161.37,614.49c.05-.02.35-.15.37-.06l.11.53c-.37.36-.88,1-.9,1.39,1.55,1.32,2.12,3.32,3.18,3.69,0,.09,0,.21.02.28l.84,2.84c.77,2.59.72,4.66-.24,7.53h3.02c.12-.26.3-.59.27-.76,2.31,1.12,5.32.31,7.47-.82l.55.35c-.62.98.82,1.01.5,2.04-.59,1.94-6.8.98-8.28,1.35-.83-.24-.85-1.62-1.38-1.53l-.68.12h-1.03s-.62-.03-.62-.03c-.15,0-.31.35-.41.55l-1.06,2.09-1.77,2.1c-.52.62-2.93,1.99-3.39,2.23-3.01,1.59-6.28,1.42-9.51,1.27-.69-.28-1.56-.47-2.31-.74l-1.34-.49c-.62-.56-1.4-.93-2.22-1.23-1.08-1.39-2.28-2.77-2.88-4.43.06-.13.13-.23.04-.25l-.3-.07-.02-.46c.11-.13.2-.21.1-.24-.08-.02-.35-.08-.34-.07l-.34-1.63c-.45-2.17.29-4.34.31-5.78,0-.07,0-.15.02-.2l.68-.58.03.54c-.6,3-.83,6.21.72,9.01.63,1.13,1.44,2.31,2.43,3.07,2.54,1.95,5.57,2.68,8.74,2.68,5.06,0,9.4-2.7,11.6-7.36l-.86-.28c.15-.18.71-.39,1.1-.49,1.62-2.92.97-6.96-.47-9.89-.5,0-1.01-.04-1.26.06v-.38s.74-.44.74-.44l-1.71-2.31c-.2-.27-.9-.41-1.17-.38l-.42-.02.05-.57c.04-.56-4.87-1.96-6.31-1.97-2.14-.02-4.57.51-6.46,1.34v-.26c.1-.2,3.15-1.48,3.09-1.47.63-.2,1.8-.28,2.59-.38,2.86-.33,5.38.65,7.96,1.87l1.12-1.36Z"></path><path class="cls-8" d="M176.57,628.64l-.44.59c-.1-.15-.27-.42-.33-.59h.77Z"></path><path class="cls-8" d="M177.09,607.84l2.35,2.41-.06.36-8.03-.13.07,2.14h-.52l-.07-2.24-2.65.23-.12,2.27h-.52c0-.7.1-1.42.16-2.3-.74-.03-2.12.09-2.56.6l-2.51,2.95-.72-.21,2.36-3.02c-1.13-.03-2.55-.69-2.78-1.41-.04-.12-.18-.37-.14-.49.14,0,.48-.02.49-.16l.03-.61c.25-.28.65.15,1.01.25,4.3,1.27,10.64-1.21,14.22-.65Z"></path><path class="cls-8" d="M183.54,624.25c.24.19.85.58.78.88s-.45.88-.54,1.17l-6.03-.02c-.21.59-.39.95-.69,1.06v-1.04s-3.19,0-3.19,0c-.12-.11-.18-1-.04-1.27.15-.32.75-.53,1.15-.58l.35-.25c2.52.55,5.2.18,7.72-.41.11.12.35.35.49.45Z"></path><path class="cls-4" d="M201.08,598.17c-.29-.02-.79-.32-1.01-.52-.06-.15-.16-.42-.26-.54-1.49-1.79-6.19-3.22-8.52-3.34-.06,0-.18,0-.26,0l.02-.56c2.68.48,3.53.58,6.18,1.35l-.31-1.21c-.04-.15.31-.32.7-.46l1.4,2.71c.83.44,1.96,1.73,2.05,2.56Z"></path><path class="cls-2" d="M199.52,597.44l.54.2c.23.21.72.5,1.01.52.12,1.12.62.62,1.41,2.32.29.63.13,1.66-.36,2.09l-.26-.31c1.34-1.77-1.74-4.12-3.53-4.74-1.02-.35-1.99-.67-2.92-.91v-.26c1.13-.05,3.11.71,4.11,1.09Z"></path><path class="cls-9" d="M146.62,615.83v.26c-1.98.87-3.51,2.72-4.81,4.43-.15.2-.64.37-.83.36l.79-1.72c.61-.34,1.11-1.03,1.52-1.58.92-.68,2.3-1.39,3.32-1.75Z"></path><path class="cls-8" d="M141,621.69c-.05.12-.04.45-.15.5-.16.08-.44.15-.64.2l-.19-.03-.04-.37c.09-.13.27-.46.2-.62h.23s.59.31.59.31Z"></path><path class="cls-9" d="M162.62,614.14c-.24.28-.5.57-.76.83l-.11-.53c-.02-.09-.32.04-.37.06.13-.16.39-.42.53-.56l.72.21Z"></path><path class="cls-9" d="M171.41,612.63l-.12,5.88c4.26.63,2.33.12,5.51,1.96l.02.68-1.13,1.58c-.24.33-.37,1.07-.35,1.48l-.35.25c-.55-1.88,1.26-2.58,1.05-3.36-.37-1.36-3.16-2.13-4.93-1.73l.65,5.82c.31,2.78,3.38,1.6,4.05,3.45.06.17.23.44.33.59l-.06.24-.55-.35c-.19-1.57-3.68-.77-4.14-3.47-.36-2.14-.65-4.36-.61-6.56l.13-6.46h.52Z"></path><path class="cls-6" d="M184.59,608.2c.01.63-.2,1.24-.61,2.03,1.24,1.11,2.66,2.97,1.93,4.9-.35.92-1.46,1.89-2.08,2.66l-2.56,3.18,1.79.74c.28.75.45,1.73.49,2.53-.13-.11-.37-.33-.49-.45.04-.5-.19-1.74-.76-1.83l-2.42-.35,2.43-2.74c1.08-1.21,2.17-2.55,3.08-3.89.96-1.42-.65-3.47-1.69-4.24-.98-.73-1.63-1.4-2.2-2.22.84,0,2.29-.09,3.09-.33Z"></path><path class="cls-2" d="M199.54,600.98c0,.06.02.16.02.21-1.05-.08-2.12-.31-3.18-.67l-2.84-.59c-.66-.14-1.62-.04-2.26.04.02-.2,0-.59,0-.81,2.74.25,5.77.74,8.26,1.82Z"></path><path class="cls-7" d="M195.42,596.35v.26c-1.41-.37-2.9-.64-4.32-.72-.01-.16-.06-.46-.06-.61l3.73.66c.19.03.63.35.66.41Z"></path><path class="cls-9" d="M161.34,609.01l.26-.81.26.04-.03.61c0,.14-.35.15-.49.16Z"></path><path class="cls-3" d="M191.02,594.03v-.26c.08,0,.2,0,.27,0l-.27.26Z"></path><path class="cls-1" d="M197.52,614.03l-.07.3c-3.01,1.03-5.9,2.41-8.43,4.58l-.31-.09c2.45-2.29,5.37-4.18,8.81-4.79Z"></path><path class="cls-9" d="M168.05,612.88l-.07,6.62c-.03,2.67-.31,7.83.07,10.43-1.39-.67-.57-8.09-.57-10.14l-3.33.53c-.02-.06-.01-.18-.02-.28l.2-.25,3.19-.67v-6.25h.53Z"></path><path class="cls-13" d="M156.85,620.66c-.3.29-.65,1.01-.97,1.58l6-1.8v.38c-1.61.62-4.86,1.65-6.56,2.1l-1.63,1.68.28-1.29-3.88,1.75c-.2.09-.7.19-.87.21,1.24-.95,4.02-2.19,5.59-2.8.66-.71,1.32-1.41,1.81-2.02l.23.2Z"></path><path class="cls-9" d="M159.76,617.31c-.64,1.03-2.11,2.57-2.91,3.35l-.23-.2c.87-1.08,1.62-2.32,2.71-3.17l.42.02Z"></path><path class="cls-9" d="M179.69,610.65l-.21.2-.11-.24.06-.36c.08.08.19.29.26.4Z"></path><path class="cls-3" d="M200.06,597.65l-.54-.2.28-.33c.1.12.2.38.26.54Z"></path><path class="cls-9" d="M140.95,621.15s.19.26.19.24c0-.04-.09.21-.13.3l-.59-.32.54-.22Z"></path><path class="cls-12" d="M176.82,621.15l-.02-.68c1.33-.93,5.69-6.42,4.32-7.87l-1.64-1.74.21-.2c.62.47,1.38,1.1,1.84,1.87,1.29,2.17-3.14,7.31-4.71,8.63Z"></path><path class="cls-10" d="M188.18,626.33c-.03,2.28,1.24,4,1.82,6.27-2.06-2.73-2.91-6.31-1.92-9.69.08,1.07.12,2.23.1,3.42Z"></path><path class="cls-8" d="M207.51,625.55l-2.26-5.87c1.62,1.52,2.28,3.86,2.26,5.87Z"></path><path class="cls-10" d="M200.04,636.76c-2.25.87-5.58-.46-7.14-1.65l4.11,1.43c.83.29,1.84.1,3.02.22Z"></path><path class="cls-10" d="M191.64,633.86c-.27.01-.63.01-.77-.06-.18-.08-.19-.48-.16-.92l.93.97Z"></path><path class="cls-8" d="M203.07,617.84c-.62-.2-1.15-.43-1.76-.74.74-.12,1.25.14,1.76.74Z"></path><path class="cls-8" d="M204.49,618.99c.06-.11.68-.06.66.07l-.08.56c-.02.17-.66-.48-.58-.63Z"></path><path class="cls-8" d="M203.74,618.22c.28.02.18.01-.11-.01-.6-.06-.56-.06.11.01Z"></path><path class="cls-10" d="M192.64,634.75c.28.02.18.01-.11-.01-.6-.06-.56-.06.11.01Z"></path><path class="cls-8" d="M142.16,628.79c.14.72.09,1.43-.1,1.99-2.46-5.7.91-12.51,6.83-14.1l-3.33,2.6c-2.89,2.25-4.13,5.82-3.4,9.51Z"></path><path class="cls-8" d="M161.94,631.41l.16.03c0,.91-.82,2.55-1.7,3.17-1.32,1.32-2.58,2.63-4.6,2.69,2.81-1.3,4.78-3.3,6.14-5.89Z"></path><path class="cls-2" d="M155.12,630.46l-.02.45c-1.57-.16-3.3-.2-4.8-.79-1.82-.72-2.84-2.99-1.61-4.32l.21.37c-.31.54-.59,1.36-.39,1.77.71,1.42,1.94,2.05,3.45,2.21l3.15.32Z"></path><path class="cls-8" d="M161.93,631.18l-1.91-.15c-1.22-.09-2.45-.07-3.59-.07v-.52l2.37.19c2.06.16,3.08-.22,3.13.55Z"></path><path class="cls-9" d="M155.92,630.44v.52c-.24,0-.58-.03-.82-.05l.02-.45c.2.02.58,0,.8-.01Z"></path><path class="cls-2" d="M156.44,630.44v.52h-.52v-.52c.14,0,.39-.01.52,0Z"></path><path class="cls-13" d="M151.73,627.76c-.29.02-.77-.64-.83-.88-.29-1.22,1.23-.26,2.69-2.17l-.87,1.55c-.17.41-.45,1.47-.99,1.5Z"></path><path class="cls-3" d="M161.88,620.44l-6,1.8c.32-.57.67-1.29.97-1.58.8-.77,2.26-2.32,2.91-3.35.27-.03.97.11,1.17.38l1.71,2.31-.75.44Z"></path></g><g><path d="M279.73,627.41c-5.34-5.85,5.87-8.18,4.11-14.78-.52-1.95-3.16-2.34-4.99-2.09s-2.91,1.75-3.76,3.63c-.95,2.09-.1,3.08,1.73,5.18-1.42.23-2.76-.72-3.22-1.85-.49-1.2-.45-2.61-.09-3.83.97-3.31,3.1-5.06,6.54-4.79,1.65.13,3.25.53,4.33,1.55,1.15,1.09,1.24,2.83,1.17,4.63-.15,3.45-2.78,5.68-4.84,8.19l-.99,4.16Z"></path><path d="M141.81,192.68c-.65,2.21-12.96,6.82-14.88,7.24.34-4.22,11.79-8.18,14.88-7.24Z"></path><path d="M65.51,473.48c-5.17,4.18-4.77,4.9-9.41,8.88-.57-5.36,6.94-10.73,10.73-12.03.55,1.81-.25,2.28-1.33,3.16Z"></path><path d="M95.68,225.02c-1.77-4.05,5.35-14.01,9.63-13.53l-9.63,13.53Z"></path><path d="M251.52,176.54c.93,3.17-9.29,8.18-12.08,5.87.82-.92,2.09-2.4,3.1-2.75l8.98-3.12Z"></path><path d="M268.76,153.41c-1.54,2.83-5.05,12.01-8.55,10.48,0-1.94,5.89-11.14,8.55-10.48Z"></path><path d="M282.17,428.82c-.36,3.06-11.67,9.46-13.66,8-.22-.16-.54-.57-.35-.76s.82-.71,1.13-.85c4.1-1.8,8.56-4.09,12.88-6.39Z"></path><path d="M38.79,517.95c-1.03-1.77-.79-3.55.02-5.56l5.89-10.26c-.39,3.73-1.97,6.74-3.41,10.07l-2.5,5.75Z"></path><path d="M321.6,380.9c-.01-7.91.87-6.39-.04-15.31,3.26,2.9,3.39,12.85.04,15.31Z"></path><path d="M103.1,449.49c-.79,1.46-11.35,5.85-13.68,6.71,3.15-4.56,8.26-6.65,13.68-6.71Z"></path><path d="M140.86,444.59l-17.05,2.06c1.52-2.03,3.61-2.02,5.81-2.57,3.69-.01,7.18-.52,11.24.51Z"></path><path d="M232.18,445.37c-.73-1.88,13.54-3.63,14.6-3.17-4.31,2.68-9.28,3.51-14.6,3.17Z"></path><path d="M248.14,321.24c-2.56,1.87-5,1.17-7.64.88-1.92-.21-3.48.07-5.45-1.27,3.69-1.19,10.17-1.42,13.08.39Z"></path><path d="M275.45,134.74c-.03,1.67-.64,3.25-2.28,3.95-.45-3.49-.05-7.7.87-11.08.11-.4,1.52.44,1.51.85l-.11,6.28Z"></path><path d="M314.91,345.64l-4.45-4.69-5.46-5.98c3.16-.03,10.85,7.65,9.91,10.68Z"></path><path d="M282.67,324.92l-9.05-2-1.09-.2c-.27-.05-.61-.58-.38-.73s1.24-.69,1.55-.64l9.17,1.46c.31.05,1.03.86,1.28,1.01s-1.16,1.18-1.49,1.11Z"></path><path d="M88.81,258.33c-2.94-1.14-2.29-11.21.62-12.51l-.24,4.71-.38,7.8Z"></path><path d="M325.55,556.33c-1.32.82-13.25,3.14-13.19,1.3,4.39-2.31,8.8-2.29,13.19-1.3Z"></path><path d="M304.08,412.97c.48-1.08,1.18-2.42,1.97-3.49l5.71-7.78c.29,1.8-3.72,11.29-7.68,11.28Z"></path><path d="M34.32,548.58c-1.72-.48.41-13.46,2-14.06.19,1.44-.76,14.01-2,14.06Z"></path><path d="M142.58,303.18c-.16.27-1.61,1.01-2.11.82l-7.06-2.81c-.32-.13-.93-.73-.9-1.01.03-.33.11-1.12.09-.91l5.2,1.36c1.83.48,2.93.8,4.78,2.56Z"></path><path d="M63.3,424.86l-6.38.43c-1.42.1-3.5-.34-5.01-.61,5.61-1.35,10.92-1.4,16.65-1.01-1.51.49-3.42,1.07-5.27,1.19Z"></path><path d="M121.83,629.64c-.51,3.3-11.46-.55-11.83-2.16l11.83,2.16Z"></path><path d="M109.68,289.02c-4.38-.83-7.84-4.32-8.78-8.91l8.78,8.91Z"></path><path d="M43.97,578.45c-3.01-3.22-4.51-7.86-4.43-12.7,1.93,4.03,3.35,7.95,4.43,12.7Z"></path><path d="M317.58,551.71l-9.76,5.25c1.57-4.08,5.52-4.67,8.89-5.84.79-.06,1.68-.05.87.59Z"></path><path d="M58.65,418.34l-11.26,4.87c3.22-3.41,6.7-4.73,11.31-5.8l-.05.92Z"></path><path d="M62.86,598.9c1.23,1.1,2.28,2.13,2.71,3.63-3.27-1.77-6.62-3.8-7.7-8.08l5,4.46Z"></path><path d="M324.75,262.92c-1.15.75-13.01,2.86-12.32,1.39l4.78-1.09c2.56-.59,4.92-1.14,7.54-.29Z"></path><path d="M93.42,619.85c-4.02.46-7.09-1.88-8.96-5.1l8.96,5.1Z"></path><path d="M228.41,631.11l-5.52-.85c-.18-.66,10.11-1.67,9.67-.51-1.18.85-2.86,1.55-4.15,1.35Z"></path><path d="M304.57,557.76c1.81-4.01,4.09-7.5,8.23-9.22l-8.23,9.22Z"></path><path d="M295.81,265.02c-3.01,1.53-6.23.31-9.52-.7,3.14-.56,6.19-.72,9.52.7Z"></path><path d="M301.91,558.01c-1.34-.49-2.68-1-3.34-1.48l-4.79-3.45c3.8-.11,6.3,2.33,8.13,4.93Z"></path><path d="M303.34,261.63l-1.63,2.08c.31-3.83,3.15-6.32,6.53-7.53l-4.9,5.45Z"></path><path d="M315.57,259.07c-3.07,1.44-5.74,2.9-9,4.97,1.62-3.1,5.21-5.15,9-4.97Z"></path><path d="M257.04,629.52c-2.3,1.92-5.53,2.38-8.2.06l8.2-.06Z"></path><path d="M51.56,414.96c-2.59,2.44-4.69,4.75-6.53,7.37.28-3.85,3.24-6.31,6.53-7.37Z"></path><path d="M279.03,631.23c1.04,0,2.04.4,2.06.98.02.67-.3,2.14-.86,2.29s-1.71-.51-2.05-1.01c-.44-.64-.15-2.26.86-2.25Z"></path><path d="M40.52,424.2c-2.5.07-5.72-.18-6.66-3.43,2.35,1,4.16,1.91,6.66,3.43Z"></path><path d="M297.76,262.74c-2.6-.67-5.4-1.8-5.78-4.88l5.78,4.88Z"></path></g></svg>