<svg id="Calque_1" xmlns="http://www.w3.org/2000/svg" version="1.1" viewBox="0 0 42.52 42.52"><defs><style>
      .st0 {
        fill: #1d1d1b;
      }
      .st1 {
        fill: #f6e81d;
      }
    </style></defs><circle class="st1" cx="21.26" cy="21.26" r="21.26"></circle><g><path d="M28.75,34.08c-.29,0-.56-.11-.81-.33l-5.19-4.64c-.41-.37-.94-.57-1.48-.57s-1.07.2-1.48.57l-5.19,4.64c-.25.22-.52.33-.81.33-.4,0-.79-.21-1.04-.57-.17-.23-.41-.71-.19-1.37l7.5-22.57c.23-.7.78-.94,1.22-.94s.99.25,1.22.94l7.5,22.57c.22.66-.02,1.14-.19,1.37-.26.36-.65.57-1.04.57h-.02Z"></path><path class="st0" d="M21.26,9.13c.13,0,.56.04.75.6l3.45,10.37,4.05,12.19c.15.45-.01.77-.12.92-.16.22-.41.36-.64.36-.16,0-.32-.07-.47-.2l-5.19-4.64c-.51-.45-1.15-.7-1.82-.7s-1.31.25-1.82.7l-5.19,4.64c-.15.13-.31.2-.47.2-.23,0-.48-.14-.64-.36-.11-.15-.27-.47-.12-.92l4.12-12.41,3.37-10.16c.19-.56.62-.6.75-.6M21.26,8.13c-.71,0-1.41.43-1.7,1.29l-3.37,10.16-4.12,12.41c-.46,1.39.57,2.6,1.71,2.6.39,0,.78-.14,1.14-.46l5.19-4.64c.33-.3.74-.45,1.15-.45s.82.15,1.15.45l5.19,4.64c.36.32.75.46,1.14.46,1.14,0,2.17-1.21,1.71-2.6l-4.05-12.19-3.45-10.37c-.28-.86-.99-1.29-1.7-1.29h.01Z"></path></g></svg>