<svg id="Calque_1" xmlns="http://www.w3.org/2000/svg" xmlns:xlink="http://www.w3.org/1999/xlink" viewBox="0 0 43.52 44.52"><defs><style>
      .cls-1 {
        fill: #1d1d1b;
        filter: url(#drop-shadow-6);
      }
      .cls-2 {
        fill: #f6e81d;
        filter: url(#drop-shadow-3);
      }
    </style><filter id="drop-shadow-3" x="0" y="0" width="43.52" height="44.52" filterUnits="userSpaceOnUse"><feOffset dx="1" dy="2"></feOffset><feGaussianBlur result="blur" stdDeviation="0"></feGaussianBlur><feFlood flood-color="#717070" flood-opacity="1"></feFlood><feComposite in2="blur" operator="in"></feComposite><feComposite in="SourceGraphic"></feComposite></filter><filter id="drop-shadow-6" x="5.01" y=".83" width="32.4" height="40.8" filterUnits="userSpaceOnUse"><feOffset dx="0" dy="0"></feOffset><feGaussianBlur result="blur-2" stdDeviation="2"></feGaussianBlur><feFlood flood-color="#717070" flood-opacity=".2"></feFlood><feComposite in2="blur-2" operator="in"></feComposite><feComposite in="SourceGraphic"></feComposite></filter></defs><circle class="cls-2" cx="21.26" cy="21.26" r="21.26"></circle><path class="cls-1" d="M26.86,26.91c-.19-.48-.04-1.02.38-1.34,2.48-1.87,4.09-4.88,4.09-8.27,0-5.68-4.51-10.28-10.07-10.28s-10.07,4.6-10.07,10.28,4.51,10.27,10.07,10.27c.39,0,.77-.02,1.15-.07.52-.06,1.01.22,1.21.71l2.62,6.53c.25.61.94.91,1.54.66l1.04-.43c.6-.25.89-.96.65-1.57l-2.6-6.49ZM21.26,24.97c-4.15,0-7.52-3.43-7.52-7.67s3.37-7.68,7.52-7.68,7.52,3.43,7.52,7.68-3.37,7.67-7.52,7.67Z"></path></svg>
