<svg id="Calque_1" xmlns="http://www.w3.org/2000/svg" version="1.1" viewBox="0 0 42.52 42.52"><defs><style>
      .st0 {
        fill: #f6e81d;
      }
      .st1 {
        stroke: #1d1d1b;
        stroke-miterlimit: 10;
      }
    </style></defs><circle class="st0" cx="21.26" cy="21.26" r="21.26"></circle><path class="st1" d="M26.86,26.91c-.19-.48-.04-1.02.38-1.34,2.48-1.87,4.09-4.88,4.09-8.27,0-5.68-4.51-10.28-10.07-10.28s-10.07,4.6-10.07,10.28,4.51,10.27,10.07,10.27c.39,0,.77-.02,1.15-.07.52-.06,1.01.22,1.21.71l2.62,6.53c.25.61.94.91,1.54.66l1.04-.43c.6-.25.89-.96.65-1.57l-2.6-6.49h0ZM21.26,24.97c-4.15,0-7.52-3.43-7.52-7.67s3.37-7.68,7.52-7.68,7.52,3.43,7.52,7.68-3.37,7.67-7.52,7.67Z"></path></svg>