<svg id="Calque_1" xmlns="http://www.w3.org/2000/svg" version="1.1" viewBox="0 0 641.16 1164.54"><defs><style>
      .st0 {
        fill: #010101;
      }
      .st1 {
        fill: #2f2f2f;
      }
      .st2 {
        fill: #363636;
      }
      .st3 {
        fill: #030303;
      }
      .st4 {
        fill: #f6f6f6;
      }
      .st5 {
        fill: #171717;
      }
      .st6 {
        fill: #faeb52;
      }
      .st7 {
        fill: #1d1c1b;
      }
      .st8 {
        fill: #020202;
      }
      .st9 {
        fill: #040404;
      }
      .st10 {
        fill: #10100f;
      }
      .st11 {
        fill: #050504;
      }
      .st12 {
        fill: #131313;
      }
      .st13 {
        fill: #333;
      }
      .st14 {
        fill: #222;
      }
    </style></defs><g><g><path class="st0" d="M437.29,1058.52c-8.07-5.82,8.76-13,2.12-26.04-1.6-3.15-4.68-3.74-7.42-2.8-3.16,1.09-3.89,3.93-3.74,7.22.11,2.35.38,4.4,3.04,4.75-1.27.39-2.08.68-2.55.66-2.06-.1-3.55-5.48-3.19-9.1.47-4.81,4.07-7.88,8.78-7.96,3.34-.06,6.15,1.36,7.93,4.24,4.16,6.71,3.18,14.74-1.29,21.07-1.63,2.31-2.17,5.39-3.68,7.97h0Z"></path><path class="st8" d="M183.91,794.66c-1.22.57-2.43.87-3.33.32,6.27-5.6,13.45-8.43,20.88-11.45,2.94-1.19,5.6-2.11,9.01-1.57-1.37,3.07-3.92,4.57-7.08,5.5-6.67,1.96-12.98,4.17-19.47,7.2h0Z"></path><path class="st0" d="M129,833.07c-2.59-3.77,11.22-14.92,13.66-16.85,2.21-1.76,4.75-2.68,7.68-2.26-1.26,1.94-2.54,4.13-4.45,5.46-6.1,4.26-11.51,8.61-16.9,13.65h0Z"></path><path class="st0" d="M94.84,883.08c-.49,1.65-.92,3-2.19,4.04.16-8.66,3.57-16.45,8.39-23.56,1.66-2.45,4.06-3.75,6.98-3.99-.54,3.06-2.07,4.79-3.73,6.8-4.13,4.97-7.56,10.32-9.45,16.71Z"></path><path class="st3" d="M373.73,307.47c-5.16,3.96-21.32,13.78-28.44,13.2l14.36-7.95,11.98-7.76c.57-.37,2.54-.36,2.7.15s-.07,1.95-.6,2.35h0Z"></path><path class="st0" d="M330.58,1068.67l-19.04-.45c-1.52-.04-3.15-.84-3.4-2.67l11.7-.34,8.99-.4c3.36-.15,6.49.16,9.52.69-2.12,2.3-4.63,3.23-7.77,3.16h0Z"></path><path class="st0" d="M86.47,931.91c-.42,6.1-.34,10.28.67,15.78.05.27-.84.95-1.04.76-3.29-3.34-2.78-21.16-2.77-26.62,0-1.53,1.55-3.01,2.97-3.61,1.62,2.25.8,4.33.64,6.7l-.48,7.01v-.02Z"></path><path class="st8" d="M459.91,602.15c.74,2.57,6.88,24.53,4.32,24.34-.6-.05-1.84-.81-1.99-1.44l-5.08-20.9c-.2-.83-.2-1.78.29-2.27.46-.45,2.27-.4,2.47.27h-.01Z"></path><path class="st0" d="M105.46,1002.74c-2.34-1.43-3.41-3.77-4.86-6.07-3.37-6.33-8.55-14.13-9.25-21.43,2.56.97,4.31,2.9,5.05,5.49l9.06,22.01Z"></path><path class="st0" d="M255.58,354.05c-6.12,5.75-10.89,7.82-16.52,14.5l-1.96.31c-.51.08-.78-1.3-.86-2.06,5.71-6.2,11.91-11.65,19.64-15.65.7.73.39,2.24-.31,2.9h.01Z"></path><path class="st0" d="M307.2,331.96l-17.05,5.72c-.87.29-1.86.31-2.64-.51,6.83-3.86,13.81-6.93,21.06-9.56.62-.23,2.05-.24,2.76-.26.07,2.59-1.78,3.82-4.14,4.61h.01Z"></path><path class="st8" d="M351.71,772.46l-6.81.54c-2.47.2-4.92,0-7.23-1.09,9.91-1.1,19.21-2.4,28.44-5.26,4.17,4.31-12.5,5.67-14.41,5.82h.01Z"></path><path class="st8" d="M419.45,273.47c.68,5.05-14.46,17.27-17.71,16.71-.29-.05-.46-1.23-.03-1.47,12-6.89,12.35-16.53,17.74-15.24Z"></path><path class="st8" d="M240.92,777.71c-1.06.3-3.41-.06-4.96,0,1.63-.93,3.55-2.33,5.55-3.16,1.75-.72,17.22-6.09,17.34-4.45.13,1.77-.86,2.81-3.25,3.48l-14.68,4.13h0Z"></path><path class="st0" d="M441.45,563.93c1.97,2.39,3.32,4.92,4.09,7.85-.97-.34-1.91-.48-2.3-.83-.55-.49-1.81-1.62-2.28-2.29l-11.44-16.26c.71-.9,2.35-.51,2.96.27l5.5,7.04,3.47,4.22h0Z"></path><path class="st8" d="M441.35,715.59c-3.38,3.98-6.28,7.5-10.96,10.45,1.64-4.73,4.76-8.28,8.23-11.92l5.49-5.76c.34-.35,1.6-.48,2.01-.52s.31,1.76.01,2.11l-4.78,5.64h0Z"></path><path class="st0" d="M207.15,423.84c-4.37-6.95-3.47-16.93,1.93-22.94.23-.26,1,1.34.9,1.72l-2.39,9.31c-.97,3.78.09,7.51-.45,11.91h.01Z"></path><path class="st0" d="M366.57,515.33c-6.9-2.26-13.61-3.35-20.68-2.91l-1.05-1.99c5.82-1.73,18.6.6,24.58,4.04-.04,1.17-1.62,1.27-2.85.87h0Z"></path><path class="st0" d="M227.18,483.34c-2.5,1.08-3.51-1.49-4.56-3.4-1.27-2.29-7.13-13.37-4.26-14.93.37-.2.84.42,1.4.99l7.42,17.34Z"></path><path class="st8" d="M125.31,1031.62l-3.73-3.04-4.47-4.49c-1.14-1.14-1.93-2.62-1.73-4.25,3.58,3.44,7.09,6.49,11.16,9.34,3.09,2.16,5.87,4.26,8.43,7.13-3.85-.44-6.73-2.29-9.67-4.69h0Z"></path><path d="M305.09,770.86c-5.77-.93-10.74-1.2-16.32-.94-.96.04-2.1-.55-1.94-1.55,5.49-1.38,18.06-2.05,23.05,1.25-1.07.94-2.92,1.54-4.79,1.24h0Z"></path><path class="st9" d="M409.83,746.46c-1.86,4.27-9.85,7.89-14,9.75-.37.17-1.52-.18-1.85-.32-1.99-.88,10.11-8.27,11.36-9.07.94-.6,3.18-.45,4.49-.36h0Z"></path><path class="st0" d="M373.55,1067.89c-2.14.01-4-.14-5.68-1.77l5.43-.41,7.53-.48c3.84-.24,7.5-.99,11.35.56-1.26.71-3.27,2.01-4.43,2.02l-14.2.08Z"></path><path class="st8" d="M268.54,509.99l-12.88-6.54-3.19-1.64c-.25-.13.06-1.32.34-1.3.37.03.89.16,1.5.35l4.12,1.31c4.22,1.34,7.84,2.62,11.65,5.08l-1.53,2.74h0Z"></path><path d="M319.68,509.46c4.01,3.13-20.96,4.28-21.4,3.24,2.4-2.38,17.72-3.73,21.4-3.24h0Z"></path><path class="st0" d="M460.11,670.95l-2.35,2.11,3.36-11.85c.46-1.63.67-4.06.86-5.51.44-.2.98-.46,1.36-.68l1.3-.77c3.29-1.95-3.6,16.36-4.53,16.7h0Z"></path><path class="st0" d="M443.03,251.2l-4.62,5.16c-.31.34-1.46,1.18-1.71.83s-.67-1.24-.94-2.03c3.87-3.33,7.28-8.67,9.54-13.01.18-.35,1.13-.76,1.4-.91,2.58-1.48-1.74,7.79-3.68,9.96h0Z"></path><path class="st3" d="M396.35,525.04c2.9-.07,14.94,8.7,14.97,11.25-3.17-1.42-6.02-2.7-8.76-4.64l-5.91-4.17c-.53-.37-1.1-2.42-.3-2.44Z"></path><path d="M456.28,227.77c-4.45,2.45,2.31-13.57,2.22-13.38.14-.31,1.25-.6,1.54-.62,2.42-.2-3.21,12.67-3.77,14h0Z"></path><circle class="st0" cx="429.08" cy="550.87" r=".32"></circle></g><path class="st0" d="M436.7,1064.87l-1.05.31c-.42.12-.59.63-.32.98.71.9.13.82,1.91.81l.69-.56c.32-.26.3-.76-.04-1l-.66-.45c-.15-.11-.35-.14-.53-.08h0Z"></path></g><g><path class="st6" d="M239.49,958.89c.66,1.33,1.66,2.65,2.68,3.69,2.66,7.16,8.42,9.76,8.97,18.5.21,3.24.06,9.33-.05,12.43,0,.35.16.99.26,1.35l-.04,1.02-.02.47.02,2.29c0,.28.09.82.12,1.12.18,1.98.28,3.99.33,5.99,0,.4.04,1.12,0,1.49-.76,8.34-4.19,12.73-12.27,15.1-1.47.43-4.13.6-5.68.6l-8.08-1.26c-6.57-1.02-18.19,3.51-26.08,1.19-.66-.19-1.39-.99-1.85-.47l-.47-.07c-3.76-1.59-6.33-4.53-8.1-8.28-8.54-18.07,8.59-26.89,12.08-36.53l5.3-14.62c.4-1.11.88-2.03,1.11-2.93,6.84-1.1,13.7-1.12,20.85-1.1l10.92.02h0Z"></path><path class="st11" d="M236.7,949.4c1.84,1.93,2.74,4.49,3.66,6.85.48.04,1.49.09,1.97.06l4.7-.38c.56-.05,1.53.23,1.88.44-.67.75-1.67,1.65-2.33,1.73l-7.1.8-10.92-.02c-7.15-.01-14.01,0-20.85,1.1l-2.84.45-1.37-.17c-1.15-.5-2.15-1.45-2.55-2.49.81-.38,1.6-.75,2.06-.77l4.94-.13.32-1.28c1.58-6.33.38-3,3.67-8.35l.65-.54,3.69-1.5c6.83-3.28,15.28-1.18,20.41,4.19h0Z"></path><path class="st12" d="M271.19,1011.45l.47.58-1.81.37,1.97,5.58c.18.51-.91,1.88-1.25,1.61l-1.47-1.18-.55,5.61c-.29,2.99-.52,6.11-.55,8.96,3.35.76,6.01,1.58,8.83,2.74l5.4,5.03c.12.11.33.37.44.5.31,1.33,2.06,2.27,2.75,3.33,3.86,5.9,3.95,13.14.92,19.53-1.18,2.5-3.95,4.75-5.28,7.18-.42.33-1.05.96-1.39,1.35-3.03,1.92-6.73,5.66-10.41,6.53-6.49,1.53-13.37.02-18.56-4l-4.09-3.18-3.01-4.43c-.42-.62-1.15-1.15-1.76-1.08.79-1.33-1.13-5.1-1.42-7.14-.99-6.99,1.73-12.92,6.64-17.52l.56.17c-1.41,2.54-3.73,4.64-4.78,7.6-3.78,10.59,2.03,20.43,11.48,25.72,12.13,6.8,24.48-1.99,30.25-12.67,2.57-4.76,3.06-10.92-.17-15.52-2.14-3.05-4.57-5.86-7.08-8.6-2.34-2.56-5.99-3.75-9.49-4.32l-2.04,18.82c-.1.88,1.75,2.59,1.14,3.47-.51.74-1.72,1.9-2.51,1.45-2.02-1.17-.1-2.66,0-3.81l1.4-16.19-5.83,1.28c1.45-1.96,3.29-1.59,5.71-1.65l.42-3.4-3.03-.57.13-.55c.87-.15,1.94-.2,3.24-.27.27-1.8.66-3.46.64-5.92l-.14-17.37c0-.09-.03-.27-.04-.38,2.95-.33,1.1,2.27,4.28,2.36v-.02Z"></path><path class="st8" d="M196.92,1033.89c.1-.03.64-.27.68-.11l.2.97c-.68.66-1.61,1.84-1.65,2.56,2.85,2.43,3.89,6.09,5.84,6.76,0,.17,0,.39.03.5l1.55,5.22c1.41,4.75,1.32,8.55-.43,13.8h5.53c.22-.48.55-1.08.5-1.4,4.24,2.05,9.76.57,13.71-1.5l1.01.65c-1.13,1.81,1.5,1.85.92,3.74-1.08,3.56-12.48,1.8-15.18,2.47-1.53-.44-1.55-2.97-2.52-2.8l-1.25.23h-1.89l-1.13-.05c-.28-.01-.57.65-.75,1l-1.94,3.83-3.25,3.86c-.95,1.13-3.22,1.59-3.33,3.24-.74-.06-2.03.4-2.88.85-5.51,2.91-11.52,2.61-17.43,2.33-1.27-.51-2.86-.86-4.23-1.36l-2.45-.9c-1.14-1.02-2.58-1.71-4.06-2.26-1.97-2.55-4.19-5.08-5.28-8.13.11-.23.24-.43.07-.47l-.55-.12-.04-.84c.21-.24.37-.39.19-.45-.14-.04-.65-.14-.63-.13l-.63-3c-.83-3.97.53-7.96.57-10.6,0-.13,0-.28.03-.36l1.25-1.06.05.99c-1.1,5.51-1.52,11.39,1.33,16.53,1.15,2.08,2.65,4.24,4.46,5.62,4.66,3.58,10.22,4.92,16.02,4.91,9.29-.01,17.23-4.95,21.27-13.51l-1.57-.52c.28-.34,1.31-.71,2.02-.89,2.97-5.35,1.79-12.77-.87-18.14-.91,0-1.86-.07-2.31.11l-.02-.69,1.38-.81-3.13-4.24c-.37-.5-1.66-.75-2.15-.7l-.77-.04.08-1.05c.08-1.03-8.94-3.59-11.58-3.61-3.93-.03-8.39.94-11.84,2.46v-.47c.19-.37,5.77-2.72,5.68-2.69,1.16-.37,3.31-.52,4.74-.69,5.25-.61,9.87,1.2,14.6,3.42l2.05-2.5-.02.04Z"></path><path class="st8" d="M224.79,1059.83l-.81,1.08c-.19-.27-.5-.78-.61-1.08h1.42Z"></path><path class="st8" d="M225.73,1021.69l4.31,4.43-.11.66-14.73-.23.13,3.92h-.95l-.13-4.12-4.87.43-.21,4.16h-.95c0-1.28.18-2.6.29-4.22-1.36-.06-3.88.16-4.69,1.11l-4.61,5.41-1.32-.38,4.33-5.53c-2.08-.05-4.68-1.26-5.09-2.59-.07-.23-.34-.68-.27-.9.26-.02.88-.04.9-.3l.05-1.12c.46-.52,1.19.27,1.85.47,7.89,2.33,19.51-2.21,26.08-1.19h0Z"></path><path class="st8" d="M237.57,1051.78c.44.35,1.56,1.07,1.43,1.62s-.82,1.61-.98,2.15l-11.07-.03c-.38,1.08-.71,1.75-1.26,1.94v-1.9h-5.85c-.23-.2-.33-1.83-.08-2.33.28-.59,1.37-.97,2.11-1.06l.65-.47c4.63,1.01,9.54.33,14.16-.75.21.21.65.64.89.83h0Z"></path><path class="st5" d="M269.74,1003.95c-.54-.03-1.44-.58-1.86-.96-.11-.28-.29-.77-.47-.98-2.74-3.27-11.36-5.92-15.62-6.12h-.47l.04-1.02c4.92.89,6.47,1.06,11.34,2.47l-.56-2.22c-.07-.27.57-.59,1.29-.85l2.56,4.98c1.53.8,3.6,3.18,3.76,4.7h-.01Z"></path><path class="st5" d="M266.89,1002.61l.99.37c.42.38,1.32.93,1.86.96.21,2.06,1.14,1.13,2.58,4.25.54,1.16.23,3.04-.66,3.83l-.47-.58c2.46-3.25-3.19-7.55-6.48-8.69-1.87-.65-3.65-1.22-5.36-1.67v-.47c2.07-.09,5.71,1.3,7.53,1.99h.01Z"></path><path class="st10" d="M169.86,1036.34v.47c-3.64,1.6-6.43,4.98-8.82,8.13-.27.36-1.17.67-1.52.65l1.45-3.15c1.11-.62,2.03-1.89,2.79-2.89,1.69-1.25,4.22-2.56,6.1-3.22h0Z"></path><path class="st8" d="M159.55,1047.08c-.1.22-.07.82-.28.93-.29.14-.81.28-1.17.36l-.35-.05-.08-.68c.16-.24.49-.84.37-1.14h.42l1.09.58h0Z"></path><path class="st10" d="M199.2,1033.24c-.44.51-.92,1.05-1.4,1.52l-.2-.97c-.03-.16-.58.08-.68.11.24-.29.71-.76.97-1.03l1.32.38h-.01Z"></path><path class="st10" d="M156.7,1065.99l-.44-.58s.49.09.63.13c.18.05.02.21-.19.45Z"></path><path class="st10" d="M157.22,1067.41l-.48-.59.55.12c.17.04.04.23-.07.47Z"></path><path class="st10" d="M215.32,1030.46l-.21,10.78c7.81,1.16,4.27.23,10.1,3.6l.03,1.25-2.07,2.89c-.43.6-.68,1.96-.65,2.72l-.65.47c-1.01-3.45,2.31-4.74,1.92-6.17-.68-2.5-5.8-3.91-9.05-3.18l1.2,10.68c.57,5.09,6.2,2.93,7.43,6.33.11.31.42.81.61,1.08l-.11.44-1.01-.65c-.36-2.88-6.76-1.41-7.6-6.37-.67-3.93-1.2-8-1.12-12.04l.23-11.84h.95Z"></path><path class="st7" d="M239.49,1022.35c.02,1.16-.36,2.27-1.12,3.73,2.27,2.04,4.87,5.46,3.54,8.98-.63,1.68-2.67,3.46-3.81,4.88l-4.7,5.83,3.28,1.36c.51,1.37.82,3.17.89,4.64-.25-.19-.69-.61-.89-.83.07-.92-.35-3.2-1.4-3.35l-4.43-.65,4.46-5.02c1.98-2.22,3.99-4.68,5.65-7.14,1.76-2.6-1.2-6.36-3.1-7.77-1.8-1.34-2.99-2.56-4.04-4.07,1.55,0,4.2-.16,5.68-.6h-.01Z"></path><path class="st5" d="M266.91,1009.1c.01.12.04.29.04.38-1.92-.15-3.88-.57-5.84-1.23l-5.21-1.08c-1.21-.25-2.96-.08-4.15.08.03-.37,0-1.09,0-1.49,5.02.45,10.59,1.36,15.16,3.33h0Z"></path><path class="st5" d="M259.35,1000.62v.47c-2.58-.68-5.32-1.17-7.93-1.32-.03-.29-.11-.84-.12-1.12l6.83,1.22c.35.06,1.15.64,1.21.75h.01Z"></path><path class="st10" d="M196.86,1023.83l.47-1.49.47.07-.05,1.12c0,.26-.64.28-.9.3h0Z"></path><path class="st4" d="M251.29,996.36l.02-.47h.47l-.49.47Z"></path><path class="st1" d="M263.22,1033.04l-.13.55c-5.52,1.88-10.82,4.42-15.47,8.41l-.56-.17c4.49-4.21,9.84-7.66,16.16-8.78h0Z"></path><path class="st10" d="M209.17,1030.93l-.13,12.14c-.05,4.89-.57,14.36.12,19.12-2.55-1.23-1.05-14.83-1.05-18.59l-6.1.97c-.03-.12-.02-.34-.03-.5l.36-.45,5.86-1.23.02-11.46h.95Z"></path><path class="st14" d="M188.62,1045.19c-.55.53-1.19,1.85-1.78,2.9l11.01-3.3.02.69c-2.97,1.13-8.93,3.03-12.05,3.84l-2.98,3.08.51-2.37-7.12,3.21c-.37.17-1.29.35-1.59.39,2.28-1.74,7.37-4.02,10.25-5.13,1.21-1.31,2.42-2.59,3.32-3.7l.42.37v.02Z"></path><path class="st10" d="M193.95,1039.06c-1.18,1.88-3.86,4.72-5.33,6.14l-.42-.37c1.59-1.97,2.97-4.25,4.98-5.81l.77.04Z"></path><path class="st10" d="M158,1049.46c.31.52-.22,1.42-.47,1.92l-.05-.99-1.25,1.06.93-1.96.84-.02h0Z"></path><path class="st10" d="M230.51,1026.84l-.39.37-.19-.44.11-.66c.15.16.35.53.47.73Z"></path><path class="st4" d="M267.88,1002.99l-.99-.37.51-.61c.18.22.37.7.47.98h0Z"></path><path class="st10" d="M159.45,1046.09s.34.48.34.44c0-.07-.17.39-.25.55l-1.09-.58.99-.41h0Z"></path><polygon class="st8" points="158.03 1048.93 158 1049.46 157.16 1049.48 157.09 1048.93 158.03 1048.93"></polygon><polygon class="st10" points="158.09 1048.37 158.03 1048.93 157.09 1048.93 157.74 1048.32 158.09 1048.37"></polygon><path class="st13" d="M225.24,1046.09l-.03-1.25c2.43-1.7,10.44-11.77,7.92-14.44l-3.01-3.19.39-.37c1.14.86,2.54,2.01,3.37,3.43,2.36,3.98-5.75,13.41-8.64,15.82h0Z"></path><path class="st11" d="M246.08,1055.6c-.06,4.19,2.27,7.34,3.35,11.51-3.79-5.01-5.33-11.57-3.53-17.77.16,1.97.21,4.08.18,6.27h0Z"></path><path class="st8" d="M281.54,1054.18l-4.14-10.76c2.97,2.79,4.18,7.08,4.14,10.76Z"></path><path class="st11" d="M267.83,1074.73c-4.12,1.59-10.24-.84-13.09-3.02l7.54,2.62c1.53.53,3.38.19,5.55.4Z"></path><path class="st11" d="M252.42,1069.41c-.5.02-1.15.02-1.41-.1-.33-.15-.36-.88-.3-1.68l1.71,1.78Z"></path><path class="st8" d="M273.39,1040.02c-1.13-.36-2.11-.79-3.22-1.35,1.36-.22,2.3.26,3.22,1.35Z"></path><path class="st8" d="M275.99,1042.13c.11-.2,1.24-.11,1.21.12l-.15,1.04c-.04.31-1.21-.89-1.06-1.16Z"></path><path class="st8" d="M274.62,1040.72c.51.04.32.03-.21-.02-1.09-.11-1.02-.1.21.02Z"></path><path class="st11" d="M254.26,1071.04c.51.04.32.03-.21-.02-1.09-.11-1.02-.1.21.02Z"></path><path class="st8" d="M161.67,1060.12c.26,1.32.16,2.62-.19,3.66-4.51-10.45,1.66-22.95,12.54-25.86l-6.11,4.76c-5.3,4.13-7.57,10.68-6.24,17.44h0Z"></path><path class="st8" d="M197.96,1064.92l.3.06c.02,1.67-1.51,4.68-3.12,5.81-2.43,2.42-4.73,4.82-8.44,4.93,5.15-2.38,8.77-6.04,11.27-10.8h-.01Z"></path><path class="st2" d="M185.45,1063.17l-.03.83c-2.88-.29-6.05-.37-8.8-1.46-3.33-1.32-5.21-5.48-2.95-7.92l.38.67c-.57.99-1.08,2.5-.71,3.24,1.31,2.6,3.56,3.76,6.34,4.05l5.78.59h0Z"></path><path class="st8" d="M197.93,1064.5l-3.5-.27c-2.24-.17-4.5-.14-6.58-.14v-.95l4.34.34c3.77.29,5.65-.4,5.73,1.01h.01Z"></path><path class="st10" d="M186.91,1063.14v.95c-.44,0-1.06-.06-1.5-.1l.03-.83c.37.04,1.07-.01,1.47-.02Z"></path><path class="st2" d="M187.86,1063.14v.95h-.95v-.95c.26,0,.71-.02.95,0Z"></path><path class="st14" d="M179.24,1058.23c-.53.03-1.42-1.17-1.52-1.62-.53-2.23,2.26-.48,4.94-3.99l-1.6,2.85c-.31.75-.82,2.7-1.81,2.76h0Z"></path><path class="st4" d="M197.85,1044.8l-11.01,3.3c.59-1.05,1.24-2.37,1.78-2.9,1.47-1.42,4.15-4.25,5.33-6.14.49-.06,1.78.2,2.15.7l3.13,4.24-1.38.81h0Z"></path></g></svg>