<svg id="Calque_1" xmlns="http://www.w3.org/2000/svg" version="1.1" viewBox="0 0 249.21 141.98"><defs><style>
      .st0 {
        fill: #faeb52;
      }
    </style></defs><path class="st0" d="M183.76,76.36l-8.2-.53-8.49-.51-9-.47-9.87-.47-18.65-.24-5.57-.41-49.4-.13-27.57-.51c-1.84-.03-3.77-.42-6.02-.81,2.49-1.76,4.97-1.54,7.56-1.71l7.53-.49c7-.46,16.87-3.22,21.67-3.23l65.65-.14,3.64.45,26.91.16,9.11.39c2.88.12,5.63.17,8.48.34l8.99.55,6.1.45c1.86.14,4.94.82,4.87,3.16-.05,1.79-2.23,4.92-3.87,5.24-3.31.64-6.41.03-9.54-.17l-7.02-.46-7.3-.47Z"></path></svg>