<svg id="Layer_4" xmlns="http://www.w3.org/2000/svg" viewBox="0 0 295.93 352.79" width="295.93" height="352.79"><defs><style>
      .cls-1 {
        fill: #056766;
      }
    </style></defs><path class="cls-1" d="M244.57,132.8c8.37-3.15,17.12-5.32,25.16-9.31,9.03-4.48,16.1-11.76,20.28-20.92,8.53-18.69,7.9-42.08-2.23-60.04-9.47-16.79-27.75-27.17-47.14-24.7-10.71,1.36-20.15,6.48-26.57,15.25-6.6,9.02-8.59,20.1-13.15,30.1-4.48,9.84-12.57,17.46-23.45,19.39.04-2.65.04-5.29.01-7.93-.25-27.76-4.93-61.62-34.91-72.61-26.29-9.64-54.85,17.09-40.53,43.22,3.21,5.85,8.31,10.82,10.51,17.19,1.75,5.08.9,10.38-5.47,9.91-6.25-.46-10.97-5.12-15.43-9.04-5.32-4.68-10.74-8.9-17.46-11.35-25.66-9.37-54.34,10.82-51.1,38.68,1.65,14.14,11.61,24.14,23.78,30.49,11.24,5.87,25.69,8.96,34.28,18.89,4.07,4.7,7.25,19.16-2.38,19.95-6.01.49-12.26-5.22-17.25-7.87-5.78-3.07-11.9-4.88-18.46-5.13-12.14-.46-24.88,4.72-33.02,13.77C1.41,170.34-1.5,183.15.71,195.74c2.17,12.37,10.18,23.51,21.36,29.26,12.63,6.5,26.95,6.76,40.8,8.01,26.23,2.36,66.84,24.28,132.64,4.25,21.54-6.56,45.31-9.73,64.27-22.73,17.05-11.69,30.74-31.22,27.42-52.76-2.82-18.3-24.29-36.02-42.04-23.45-4,2.83-6.73,6.87-10.45,9.97-3.05,2.54-7.59,4.29-6.83-1.19,1.06-7.67,10.37-11.94,16.69-14.31Z"></path><path d="M225.71,136.87c-13.31,1.4-26.3,3.4-39.4,5.68,12.96-15.48,25.27-31.42,37.94-47.13,2.39-2.96-1.66-7.22-4.26-4.26-13.55,15.39-27.41,30.45-40.66,46.11-6.63,7.83-13.36,15.59-19.84,23.55-2.3,2.83-4.58,5.67-6.87,8.51-.09-3.78-.18-7.55-.29-11.33-.62-21.39-.33-43.11-2.77-64.39-.63-5.53-8.03-5.57-8.64,0-2.05,18.78-1.98,37.89-2.28,56.81-5.5-4.05-11.19-7.88-16.9-11.63-3.03-8.86-6.27-17.61-8.66-26.71-.3-1.14-1.92-.64-1.73.48,1.32,7.67,2.93,15.45,5.33,22.92-2.03-1.33-4.06-2.65-6.08-3.97-12.51-8.21-24.85-16.52-37.06-25.19-1.3-.92-2.46,1.18-1.23,2.11,12.06,9.21,23.84,18.65,35.53,28.31,9.93,8.2,19.95,16.76,30.59,24.12-.46,20.5-.69,41.01-.68,61.52,0,.95,0,1.91,0,2.86-4.24-1.87-8.43-3.83-12.61-5.84-3.57-5.1-7.07-10.2-10.45-15.43-1.7-2.63-5.89-.22-4.22,2.47,1.69,2.71,3.33,5.44,4.94,8.18-15.25-7.61-30.36-15.53-46.17-21.85-1.87-.75-2.87,2.13-1.32,3.13,22.44,14.48,47.05,25.33,69.83,39.3,0,17.19,0,34.39.02,51.58,0,10.39.05,20.77.07,31.16.01,5.58-.05,11.07.71,16.62.74,5.45,2.22,10.31,3.71,15.55,1.02,3.59,6.3,3.62,7.31,0,1.46-5.24,2.91-10.1,3.63-15.55.73-5.55.63-11.04.62-16.62-.03-10.39-.04-20.77-.09-31.16-.07-14.15-.14-28.3-.21-42.45,3.35-2.81,6.65-5.67,10.03-8.44,6.48-5.32,13.13-10.44,19.82-15.49,13.52-10.21,27.57-19.81,41.95-28.76,3.92-2.44.44-8.41-3.62-6.19-12.64,6.91-24.88,14.41-36.74,22.55.19-.37.37-.73.56-1.08,2.91-5.39,5.57-10.87,8.18-16.41,1.3-2.76-2.52-5.11-4.15-2.43-3.35,5.51-6.59,11.05-9.63,16.74-1.84,3.45-4.43,7.08-5.81,10.89-5.35,3.97-10.59,8.11-15.75,12.33-1.64,1.34-3.27,2.69-4.9,4.05-.02-3.23-.03-6.47-.05-9.7-.07-13.54-.24-27.07-.51-40.61,1.11-1.35,2.21-2.71,3.33-3.98,3.16-3.59,6.33-7.17,9.47-10.77,5.14-5.89,10.14-11.9,15.14-17.91,15.32-2.22,30.3-4.65,45.45-7.99,2.33-.52,1.87-4.5-.57-4.24Z"></path></svg>