<svg id="Layer_4" xmlns="http://www.w3.org/2000/svg" viewBox="0 0 108.98 155.48" width="108.98" height="155.48"><defs><style>
      .cls-1 {
        fill: #032b21;
      }
    </style></defs><path class="cls-1" d="M90.61,23.58c-18.39-3.33-32.06,12.19-43.11,24.47-20.43,22.68-24.83,72.8.52,67.77,8.23-1.63,16.41-7.74,22.98-12.71,14.07-10.64,28.26-24.32,35.19-40.87,6.16-14.71,2.67-35.36-15.57-38.66Z"></path><path class="cls-1" d="M55.01,86.67c5.11-13.89,6.96-29.49,6.95-43.57-.02-16.56-2.83-39.3-22.85-42.68C20.42-2.74,5.88,12.34,1.96,29.39c-4.13,17.99-1.8,39.05,7.48,55.11,16.44,28.46,44.9,22.09,45.57,2.17Z"></path><path d="M55.75,77.84c-3.43,4.67-6.87,9.33-10.15,14.11-1.29-11.73-3.05-23.38-4.79-35.08-.58-3.9-7.18-3-6.91.93,1.12,16.09,1.26,32.25,1.65,48.38.19,7.92.33,15.84.32,23.76-.01,7.15-2.1,17,2.03,23.23,2.08,3.13,6.2,3.04,8.3,0,4.24-6.15,2.15-16.12,1.91-23.23-.23-6.6-.52-13.2-.94-19.79,2.72-2.93,4.53-7.09,6.43-10.42,3.31-5.8,6.32-11.74,9.37-17.68,2.5-4.87-4.07-8.5-7.22-4.22Z"></path></svg>