<svg id="Layer_4" xmlns="http://www.w3.org/2000/svg" viewBox="0 0 78.36 104.05" width="78.36" height="104.05"><defs><style>
      .cls-1 {
        fill: #a9d622;
      }
    </style></defs><path class="cls-1" d="M48,.88C26.33-3.78,7.9,10.52,1.92,30.98c-6.23,21.29,2.78,47.19,25.86,53.16,23.14,5.99,46.91-18.02,50.06-38.27,3.22-20.7-8.9-40.49-29.84-45Z"></path><path d="M53.1,47.03c-3.42,3.43-6.83,6.85-10.25,10.28,0,0-.02.02-.03.02-1.65-4.67-3.52-9.26-5.51-13.81-2.47-5.64-11.79-1.62-9.92,4.18,2.4,7.47,4.12,15.07,5.34,22.81-.02.76.1,1.51.34,2.22,0,.04.01.07.02.11,1.23,8.47.1,17.5,2.05,25.79,1.65,7.02,13.24,7.43,14.62,0,1.65-8.91-.86-18.88-2.93-27.67,1.5-1.72,2.9-3.54,4.36-5.32,3.09-3.76,6.17-7.51,9.26-11.27,4.17-5.07-2.53-12.18-7.35-7.35Z"></path></svg>