<svg id="Layer_4" xmlns="http://www.w3.org/2000/svg" viewBox="0 0 52.23 103.44" width="52.23" height="103.44"><defs><style>
      .cls-1 {
        fill: #a9d622;
      }
    </style></defs><path class="cls-1" d="M47.27,34.71C34.45,15.81-6.88,34.02.99,59.83c4.52,14.83,26.05,21.84,38.21,15.66,13.91-7.08,16.83-27.87,8.07-40.78Z"></path><path class="cls-1" d="M19.51,1.05C9.24,3.86,5.97,15.3,6.62,24.76c.67,9.73,5.21,19.7,13.96,24.71,2.74,1.57,6.09,2.73,9.54,3.25,2.96,1.76,6.29,1.26,9.43-.43C62.63,45.82,53.17-8.14,19.51,1.05Z"></path><path d="M21.47,42.27c-.18,10.58-.83,21.12-.66,31.7.08,5.12.15,10.23.39,15.34.23,4.79-.28,9.24,2.75,12.98,1.68,2.08,4.3,1.05,5.59-.79,2.73-3.88,1.64-9.59,1.56-14.23-.08-4.78-.33-9.55-.53-14.32-.44-10.27-1.71-20.44-2.5-30.68-.35-4.56-6.52-4.71-6.6,0h0Z"></path></svg>