<svg id="Layer_4" xmlns="http://www.w3.org/2000/svg" viewBox="0 0 191.83 352.79" width="191.83" height="352.79"><defs><style>
      .cls-1 {
        fill: #032b21;
      }
      .cls-2 {
        fill: #a9d622;
      }
    </style></defs><path class="cls-2" d="M176.36,205.33c-15.44-11.24-30.97-22.37-46.43-33.59-66.02-47.97-53.68-43.22-95.91,2.65-5.38,5.84-10.65,11.78-15.96,17.69-5.24,5.83-10.93,11.71-14.54,18.74-6.86,13.36-3.65,27.88,9.1,36.07,11.21,7.2,25.89,7.97,38.74,9.41,33.45,3.77,67.26,3.07,100.61-1.38,12.89-1.72,28.86-3.65,36.57-15.77,8.66-13.62-1.34-25.93-12.19-33.83Z"></path><path class="cls-2" d="M172.58,153.38c-13.03-14.47-26.18-28.84-39.24-43.28-6.99-7.73-13.87-15.56-20.98-23.17-37.06-39.71-53.01,8.43-86.2,49.12-5.32,6.52-11.19,12.89-15.27,20.3-7.49,13.6-7.08,31.05,9.11,37.76,7.53,3.12,16.16,3.15,24.18,3.75,9.45.71,18.92,1.34,28.38,1.82,16.69.84,92.49,5.14,105.06-4.66,15.25-11.89,5.05-30.42-5.05-41.64Z"></path><path class="cls-2" d="M156.78,102.12c0-5.96-2.99-11.2-6.18-16.01-4.49-6.75-9.06-13.44-13.59-20.16-8.65-12.83-17.3-25.66-25.95-38.49-4.11-6.1-8.08-12.34-12.36-18.32-3.88-5.42-9.16-10.38-16.4-8.87-5.99,1.25-9.26,6.13-12.15,11.08-3.99,6.84-7.93,13.71-11.89,20.56-7.34,12.69-15.93,25.28-21.66,38.79-5.04,11.89-5.9,26.47,3.31,36.68,13.61,15.08,67.96,19.93,85.06,19.96,14.04,1.55,31.82-9.34,31.83-25.24Z"></path><path class="cls-1" d="M158.37,190.71c-14.05,14.51-27.1,29.82-37.92,46.91-5.29,8.36-10.75,16.61-15.79,25.13-1.48,2.49-2.93,5-4.36,7.52,1.22-20.71,2.1-41.43,2.58-62.16.14-5.93.22-11.85.27-17.77,3.65-5.24,5.98-11.92,8.89-17.44,3.57-6.77,7.33-13.44,11.26-20.01,8.03-13.39,16.64-26.49,25.83-39.11,2.7-3.71-3.55-8.6-6.42-4.95-9.7,12.35-18.74,25.1-26.81,38.59-4.1,6.85-8.01,13.83-11.71,20.9-.33.63-.68,1.28-1.05,1.93-.23-33.55-1.7-67.02-4.01-100.58-.32-4.64-7.48-4.73-7.3,0,1.04,27.83,1.44,55.73,1.19,83.64-2.91-5.11-5.89-10.2-8.72-15.33-5.29-9.59-10.66-19.73-18.11-27.82-2.11-2.29-5.14.62-4.03,3.11,4.54,10.15,11.23,19.43,16.78,29.06,5.36,9.29,9.41,18.98,13.83,28.68-.45,23.4-1.36,46.8-2.75,70.16-22.2-22.65-46.16-43.59-68.73-65.88-1.87-1.85-4.71.99-2.89,2.89,23.89,24.87,46.17,51.37,70.82,75.49-2.08,30.95-4.99,61.82-8.8,92.53-1.08,8.73,12.93,8.85,13.82,0,1.95-19.29,3.58-38.62,4.92-57.98,2.19-2.86,3.64-6.45,5.37-9.51,2.27-4.03,4.59-8.02,6.97-11.97,4.93-8.18,9.98-16.37,15.66-24.06,11.75-15.9,23.41-31.96,35.89-47.3,2.63-3.23-1.65-7.79-4.67-4.67Z"></path></svg>