<svg id="Layer_4" xmlns="http://www.w3.org/2000/svg" viewBox="0 0 255.07 339.23" width="255.07" height="339.23"><defs><style>
      .cls-1 {
        fill: #a9d622;
      }
    </style></defs><path class="cls-1" d="M87.9,67.99c-3.57-19.65-23.31-33.89-42.48-35.41-19.58-1.55-37.62,12.67-42.2,31.54-4.57,18.8,4.92,38.58,21.43,48.19,28.95,16.85,70.87-2.38,63.25-44.32Z"></path><path class="cls-1" d="M94.02,117.18c-5.59-12.59-21.7-26.53-35.24-31.91-21.84-8.69-49.04-.17-56.64,23.43-7.19,22.31,4.47,48.83,24,60.81,39.35,24.15,84.6-14.71,67.88-52.32Z"></path><path class="cls-1" d="M173.49,68.31c-17.19-16.24-42.77-12.09-60.24,1.19-29.16,22.17-59.27,62.11,1.95,76.08,20,4.56,41.63-3.02,55.09-18.4,13.95-15.95,20.41-42.62,3.2-58.88Z"></path><path class="cls-1" d="M126.69,4.96c-27.31-9.38-58.22-.97-75.64,22.32-16.29,21.77-15.13,54,4.17,73.66,36.27,36.94,100.62,1.18,110.89-30.99,9.5-29.73-12.27-55.67-39.42-64.99Z"></path><path class="cls-1" d="M246.95,114.69c-3.18-11.66-12.55-21.25-21.3-29.12-9.08-8.17-19.56-14.45-31.83-16.01-24.6-3.13-48.19,12.58-54.7,36.53-22.58,83.08,124.19,68.64,107.84,8.6Z"></path><path class="cls-1" d="M250.03,31.61C241.28,13.56,222.49,1.06,202.49.06c-20.42-1.02-41.41,10.49-51.71,28.08-33.46,57.13,27.14,83.35,84.15,56.42,21.14-9.98,24.68-33.2,15.1-52.96Z"></path><path d="M127.29,143.17c.24-.04.48-.09.71-.16,12.19-3.75,22.58-8.72,35.51-9.8,12.1-1.01,25.15-2.17,37.12-.11,6.18,1.06,7.47-7.8,1.16-8.54-13.41-1.58-25.94-3.44-39.47-1.81-8.02.97-16.86,1.66-25.24,3.31,1.09-1.69,2.19-3.36,3.33-5,15.15-21.76,39-35.51,52.2-37.87,4.92-.88,7.86-6.51,2.77-7.24-23.44-3.34-43.07,9.09-58.42,26.15-.72-2.44-1.59-4.84-2.3-7.16-2.28-7.42-5.26-14.52-7.53-21.95-.91-2.97-4.99-1.68-4.55,1.25,1.16,7.76,1.56,15.5,2.71,23.27.75,5.07,1.04,10.43,3.19,15-6.76,9.13-12.46,18.85-17.02,27.85-.1.2-.2.41-.31.62-15.48-15.53-36.66-32.43-59.83-76.94-1.5-2.89-6.66-.84-5.36,2.26,7.19,17.16,15.86,33.6,25.92,49.25,3.01,4.69,5.97,9.32,9.14,13.82-2.93-.08-5.86-.07-8.7,0-9.51.22-16.52,2.48-25.35,5.75-2.86,1.06-2.7,5.82.77,5.66,8.13-.38,16.41.13,24.58.07,6.3-.05,12.45.75,18.65,1.4,3.9,4.9,8.1,10.05,12.89,13.85-14.96,32.55-25.94,66.69-32.18,102.07-4.16,23.56-6.65,47.54-6.59,71.48.03,12.75,19.69,12.76,19.81,0,.45-49.36,8.34-97.5,24.74-144.12,5.02-14.28,10.67-28.72,17.64-42.38Z"></path></svg>