<svg id="Layer_4" xmlns="http://www.w3.org/2000/svg" viewBox="0 0 139.27 171.74" width="139.27" height="171.74"><defs><style>
      .cls-1 {
        fill: #a9d622;
      }
    </style></defs><path class="cls-1" d="M107.72,58.98c-9.41-1.58-19.14-.43-26.77,5.69-7.03,5.63-11.33,14.76-10.92,23.81.15,3.34.93,6.62,2.19,9.72.4,1.77.99,3.48,1.7,4.98,3.74,7.89,11.11,13.23,19.42,15.52,16.96,4.66,41.8-1.57,45.42-21.37,3.62-19.82-12.6-35.26-31.04-38.35Z"></path><path class="cls-1" d="M85.97.09c-13.79.83-28.2,5.7-37.58,16.28-9.6,10.82-13.12,25.58-7.95,39.31,20.42,54.31,94.48,40.78,96.12-15.25C137.33,13.68,109.84-1.34,85.97.09Z"></path><path class="cls-1" d="M71.27,48.7c-7.96-9.69-19.55-15.62-32.22-13.74-12.94,1.92-23.1,10.75-30.06,21.42-6.82,10.45-11.4,23.73-7.64,36.14,3.61,11.91,13.37,20.63,23.86,26.64,10.98,6.29,23.62,10.58,36.34,7.82,24.8-5.38,39.75-41.72,9.73-78.3Z"></path><path d="M72.2,113.09c-1.12,7.44-2.23,14.89-3.33,22.34l-2.6,17.57c-.82,5.56-2.66,11.31.02,16.55,1.3,2.54,5.15,2.93,7.06.91,3.9-4.14,3.73-9.91,4.47-15.29.8-5.88,1.6-11.75,2.4-17.63,1.58-11.59,3.14-23.19,4.66-34.79,3.07-23.42,6.06-46.84,7.92-70.39.31-3.89-6.04-4.76-6.83-.92-4.59,22.29-8.13,44.75-11.58,67.23-8.19-8.91-16.67-17.48-24.93-26.34-2.37-2.54-7.02.87-4.91,3.79,8.43,11.6,16.38,23.45,25.09,34.86.77,1.01,1.65,1.7,2.56,2.13Z"></path></svg>