<svg id="Layer_4" xmlns="http://www.w3.org/2000/svg" viewBox="0 0 189.32 327.52" width="189.32" height="327.52"><defs><style>
      .cls-1 {
        fill: #032b21;
      }
      .cls-2 {
        fill: #a9d622;
      }
    </style></defs><path class="cls-1" d="M140.59,131.96c-.9,0-.91,1.41,0,1.41s.91-1.41,0-1.41Z"></path><g><path class="cls-2" d="M180.12,139.96c10.59-26.84,4.3-58.9-16.03-79.71-5.17-5.3-11.38-9.68-18.17-13.05-1.25-11.37-6.37-22.42-14.24-30.62C120.9,5.34,105.23.6,90.01.06c-14.95-.53-32.2,2.12-44.59,11.06-11.79,8.5-17.95,22.27-17.31,36.74.61,13.85,6.34,25.21,15.02,33.9-1,.92-1.99,1.86-2.95,2.84-10.09,10.37-16.78,24.27-17.33,38.8-11.01,8.51-18.63,20.83-21.46,35.02-8.66,43.49,24.69,83.82,63.2,99.13,37.46,14.89,81.95,3.6,107.01-28.22,20.34-25.83,23.17-61.02,8.53-89.37Z"></path><path d="M155.67,133.02c-14.99,19.59-27.74,40.78-40.87,61.63-6.37,10.12-13.4,19.8-19.84,29.87,0,0,0,0,0,0,.23-7.78.5-15.57.83-23.35.4-9.45.8-18.89,1.22-28.33,0,0,18.13-40.04,46.77-82.48,2.41-3.57-3.2-6.64-5.68-3.32-9.75,13.04-19.21,26.24-27.92,40-4.09,6.46-8.05,13-11.89,19.61.64-12.19,1.38-24.37,2.26-36.55,2.17-2.58,3.81-5.73,5.69-8.64,4.01-6.19,7.79-12.49,11.57-18.83,1.61-2.7-2.39-6.03-4.48-3.46-3.88,4.78-7.75,9.55-11.48,14.44.56-6.53,1.15-13.05,1.82-19.58.45-4.38-7.15-5.46-7.76-1.05-3.42,24.67-6.79,49.42-9.55,74.22-8.41-15.49-17.08-30.81-25.81-46.16-1.55-2.72-5.28-.33-4.09,2.39,9.1,20.95,18.21,41.8,27.95,62.46-1.11,11.38-2.06,22.77-2.78,34.17-.57,8.86-1.05,17.73-1.49,26.6-5.18-8.84-10.85-17.45-16.26-25.83-9.48-14.66-19.84-31.62-33.53-42.71-1.83-1.48-4.08.32-3.17,2.45,3.46,8.08,8.63,15.58,13.29,23.03,4.9,7.83,9.72,15.72,14.37,23.7,8.82,15.1,15.81,31.08,24.14,46.39-.1.96-.15,1.96-.1,3.02,0,.03,0,.06,0,.09-.08,2.52-.18,5.05-.26,7.57-.3,10.36-.52,20.71-.66,31.07-.12,9.37-2.72,23.17,4.37,30.48,1.99,2.05,5.72,2.14,7.7,0,6.95-7.5,4.2-21.09,4.13-30.48-.08-10.36-.08-20.72.01-31.07.03-3.62.09-7.25.14-10.87.95-1.36,1.84-2.84,2.78-4.44,3.21-5.46,6.46-10.91,9.69-16.36,6.27-10.59,11.92-21.54,18.26-32.09,12.68-21.08,25.83-41.98,36.53-64.17,1.95-4.05-3.27-6.91-5.91-3.46Z"></path></g></svg>