<svg id="Layer_4" xmlns="http://www.w3.org/2000/svg" viewBox="0 0 113.26 124.65" width="113.26" height="124.65"><defs><style>
      .cls-1 {
        fill: #056766;
      }
    </style></defs><path class="cls-1" d="M57.1,70c-.79-2.46-1.91-4.85-3.3-7.06-.58-1.84-1.33-3.65-2.31-5.44-3.79-6.97-10.89-12.89-18.79-14.38C14.41,39.68-.41,56.08,0,73.63c.41,17.14,14.16,33.54,32.22,32.53,17.91-1,30.41-18.93,24.87-36.16Z"></path><path class="cls-1" d="M74.42.35C51.54-2.55,28.53,13.05,23.85,35.97c-4.63,22.7,10.28,54.57,37.35,50.61,6.4-.94,12.14-3.7,17.28-7.46,3.23-1.25,6.36-2.79,9.28-4.49,9.98-5.8,19.98-13.7,23.8-25.02C119.74,25.36,97.01,3.21,74.42.35Z"></path><path d="M76.52,48.55c-2.81,5.69-6.64,10.94-10.81,15.82-.35-2.54-.73-5.06-1.17-7.57-1.01-5.75-1.73-13.24-6-17.55-1-1.01-3.09-.93-3.74.48-2.47,5.35-1.06,11.81-.73,17.52.39,6.76.81,13.5,1.04,20.27-7.2-4.97-14.53-9.76-21.62-14.92-2.99-2.18-6.84,2.77-3.98,5.15,8.72,7.27,16.95,15.09,25.63,22.39-.19,9.38-.76,18.73-.96,28.14-.19,8.73,12.25,8.23,13.24,0,1.52-12.67.92-25.87-.09-38.63.28-.21.56-.44.83-.72,7.66-7.99,11.97-17.02,15.3-27.46,1.29-4.04-5.01-6.8-6.93-2.92Z"></path></svg>