<svg id="Layer_4" xmlns="http://www.w3.org/2000/svg" viewBox="0 0 101.54 159.19" width="101.54" height="159.19"><defs><style>
      .cls-1 {
        fill: #056766;
      }
    </style></defs><path class="cls-1" d="M95.93,31.08C86,9.64,63.17-2.88,39.73.57,15.86,4.08-2.73,26.26.33,50.71c2.93,23.39,37.19,52.87,51.57,55.16,12.58,2,24.93-2.81,34.05-11.46,17.18-16.3,19.63-42.47,9.98-63.32Z"></path><path d="M60.2,58.85c-3.1,6.76-6.4,13.38-10.09,19.84-.61,1.07-1.26,2.13-1.91,3.2-2.05-12.95-4.12-25.89-5.4-38.96-.47-4.81-7.92-4.99-7.66,0,1,18.68,1.1,37.4,2.67,56.04.77,9.17,1.72,18.32,2.9,27.44.59,4.55,1.2,9.09,1.82,13.63.66,4.79.87,10.01,2.58,14.54,3.2,8.47,14.87,3.92,13.21-2.98.2-8.5-2.45-17.74-3.64-26.09-1.29-9.1-2.63-18.2-3.96-27.3-.05-.35-.11-.69-.16-1.04,2.67-4.91,4.79-10.3,6.95-15.24,2.97-6.82,5.91-13.67,8.69-20.56,1.38-3.42-4.45-5.9-6-2.53Z"></path></svg>