<svg id="Layer_4" xmlns="http://www.w3.org/2000/svg" viewBox="0 0 116.52 121.37" width="116.52" height="121.37"><defs><style>
      .cls-1 {
        fill: #a9d622;
      }
    </style></defs><path class="cls-1" d="M111.8,17.05C103.79,4.3,86.79-3.75,72.09,1.76c-13.24,4.96-18.38,19.08-15.68,31.92-.8-1.91-1.77-3.75-2.89-5.46-8.81-13.46-27.65-19.99-41.75-10.42C5.2,22.26.79,29.45.09,37.39c-.73,8.34,3.21,15.88,8.26,22.2,9.93,12.43,28.7,22.49,43.68,12.12,9.21-6.37,13.03-18.5,6.88-28.17-.12-1.29-.32-2.58-.6-3.86.07.17.14.34.21.5,8.99,20.06,30.06,32.5,47.64,16.93,11.3-10.01,13.64-27.36,5.65-40.07Z"></path><path d="M84.3,31.59c-6.16,11.54-12.88,22.82-19.75,33.95-2.17,3.52-4.37,7.02-6.59,10.5-.04-.68-.08-1.35-.13-2.03-1.03-14.25-3.46-28.57-6.18-42.58-.78-4-7.76-3.15-7.21.98.92,6.97,1.54,13.91,1.97,20.86-1.6-.92-3.26-1.73-4.68-2.5-4.73-2.57-9.68-4.36-14.75-6.13-3.11-1.08-4.77,3.49-2.17,5.14,4.26,2.71,8.32,5.74,12.45,8.63,2.92,2.05,6.11,5.41,9.69,6.27.11,3.1.2,6.2.27,9.32.15,6.81.17,13.62.01,20.44-.16,6.99-1.49,14.47-.77,21.4.61,5.87,9.4,8.08,11,1.49,1.61-6.65,1.12-14.12,1.13-20.94,0-1.38-.01-2.76-.03-4.14,1.45-1.39,2.66-3.17,3.46-4.35,3.66-5.42,7.1-11.02,10.41-16.66,6.82-11.6,12.83-23.55,18.6-35.71,2.13-4.48-4.35-8.43-6.75-3.94Z"></path></svg>