<svg id="Layer_4" xmlns="http://www.w3.org/2000/svg" viewBox="0 0 70.85 135.44" width="70.85" height="135.44"><defs><style>
      .cls-1 {
        fill: #032b21;
      }
    </style></defs><path class="cls-1" d="M62.58,50.31c-4.08-3.29-8.99-3.92-13.53-6.16-3.81-1.89-3.1-6.01-2.41-9.67,1.29-6.8,3.27-13.81.89-20.63C38.54-11.88,1.55,2.09.04,24.49c-.35,5.18,1.45,9.94,4.86,13.79,2.07,2.33,7.87,5.51,7.32,8.98-.63,3.91-6.06,7.82-8.06,11.17C1.33,63.2-.07,69.01.16,74.53c.45,11.07,6.41,21.1,16.05,26.62,20.43,11.7,47.3-1.18,53.47-23.35,2.68-9.63,1.01-20.96-7.09-27.49Z"></path><path d="M36.41,69.31c-1.77-5.7-10.41-3.36-8.96,2.47,2.62,10.55,3.73,20.93,3.77,31.78.02,4.97-.32,9.92-.64,14.88-.32,4.9-1.28,10.58,1.26,15.01,1.37,2.39,4.51,2.57,6.44.83,3.75-3.37,4.34-9.19,4.81-13.98.58-5.87.41-11.79-.04-17.67-.86-11.23-3.3-22.58-6.64-33.32Z"></path></svg>