<svg width="1920" height="544" viewBox="0 0 1920 544" fill="none" xmlns="http://www.w3.org/2000/svg">
<path d="M2575.17 128.27L-39.4377 314.24L-31.0597 431.868L2583.55 245.898L2575.17 128.27Z" fill="#3452FF"/>
<mask id="mask0_453_227" style="mask-type:luminance" maskUnits="userSpaceOnUse" x="-35" y="128" width="2620" height="304">
<path d="M2575.92 128.174L-34.5842 313.852L-26.1954 431.632L2584.31 245.954L2575.92 128.174Z" fill="white"/>
</mask>
<g mask="url(#mask0_453_227)">
<path d="M-18.6633 298.167L-45.9156 314.939L-11.3675 371.024L15.8849 354.252L-18.6633 298.167Z" fill="white"/>
<path d="M173.493 296.589L142.816 287.471L124.038 350.603L154.715 359.72L173.493 296.589Z" fill="white"/>
<path d="M422.05 364.928L391.372 355.81L372.594 418.941L403.272 428.059L422.05 364.928Z" fill="white"/>
<path d="M584.985 236.257L556.901 220.914L525.301 278.708L553.385 294.05L584.985 236.257Z" fill="white"/>
<path d="M528.171 396.141L543.037 367.812L484.685 337.217L469.819 365.546L528.171 396.141Z" fill="white"/>
<path d="M756.128 369.484L786.986 377.969L804.459 314.464L773.601 305.98L756.128 369.484Z" fill="white"/>
<path d="M834.198 399.226L866.141 397.245L862.058 331.508L830.115 333.489L834.198 399.226Z" fill="white"/>
<path d="M969.036 280.637L984.984 252.902L927.856 220.08L911.908 247.815L969.036 280.637Z" fill="white"/>
<path d="M1115.17 361.774L1147.15 363.063L1149.8 297.254L1117.82 295.965L1115.17 361.774Z" fill="white"/>
<path d="M1299.95 272.124L1311.41 301.995L1372.93 278.424L1361.48 248.553L1299.95 272.124Z" fill="white"/>
<path d="M1504.85 174.714L1481.32 196.404L1526 244.816L1549.52 223.125L1504.85 174.714Z" fill="white"/>
<path d="M1284.59 258.807L1316.07 253.054L1304.22 188.265L1272.74 194.018L1284.59 258.807Z" fill="white"/>
<path d="M1198.17 377.928L1229.66 372.175L1217.81 307.386L1186.32 313.139L1198.17 377.928Z" fill="white"/>
<path d="M1343.83 359.598L1373.65 371.208L1397.56 309.836L1367.74 298.226L1343.83 359.598Z" fill="white"/>
<path d="M725.072 360.909L722.866 328.995L657.131 333.532L659.337 365.446L725.072 360.909Z" fill="white"/>
<path d="M108.079 367.576L89.9862 393.364L44.7433 386.872L78.1871 410.672L62.3668 433.479L12.5776 399.179L40.011 358.73L108.079 367.576Z" fill="white"/>
<path d="M312.951 318.996L333.51 295.124L377.886 306.058L346.961 279.067L364.963 257.939L411.114 296.993L379.812 334.528L312.951 318.996Z" fill="white"/>
<path d="M597.562 248.926L623.912 266.198L618.83 311.601L641.586 277.447L664.887 292.542L632.141 343.356L590.84 317.207L597.562 248.926Z" fill="white"/>
<path d="M1000.65 291.987L1014.41 320.323L986.75 356.698L1023.81 339.042L1036.07 363.94L981.887 390.776L959.847 347.157L1000.65 291.987Z" fill="white"/>
<path d="M857.313 215.518L844.274 244.195L798.61 246.135L835.868 263.376L824.522 288.701L769.263 264.153L788.776 219.349L857.313 215.518Z" fill="white"/>
<path d="M1276.56 363.38L1255.54 339.911L1272.13 297.345L1241.36 324.5L1222.73 303.924L1267.44 263.238L1300.63 299.126L1276.56 363.38Z" fill="white"/>
<path d="M1547.39 369.64L1518.84 356.298L1517.4 310.636L1499.75 347.686L1474.53 336.065L1499.69 281.106L1544.3 301.1L1547.39 369.64Z" fill="white"/>
<path d="M1680.22 254.288L1651.67 240.946L1650.23 195.28L1632.57 232.33L1607.36 220.71L1632.52 165.75L1677.13 185.748L1680.22 254.288Z" fill="white"/>
<path d="M245.501 258.72L258.178 287.555L229.165 322.857L266.863 306.614L278.17 331.962L223.015 356.73L202.637 312.308L245.501 258.72Z" fill="white"/>
<path d="M182.263 438.058L208.798 438.207C208.798 438.207 212.284 408.504 187.772 390.699C187.772 390.699 167.958 374.412 140.455 381.849C111.518 389.674 100.703 418.271 102.512 437.422L128.794 437.744C128.794 437.744 126.6 425.205 134.136 416.025C141.672 406.845 148.712 404.176 162.212 406.264C175.08 408.256 183.946 423.482 182.263 438.066L182.263 438.058Z" fill="white"/>
<path d="M247.959 368.001L219.873 379.475C219.873 379.475 229.224 412.369 262.916 420.428C262.916 420.428 290.986 428.943 316.763 409.033C343.886 388.086 342.764 353.148 332.455 333.718L304.563 344.899C304.563 344.899 312.38 357.18 308.451 370.177C304.522 383.173 298.256 389.081 283.083 392.789C268.621 396.327 252.582 384.134 247.96 367.997L247.959 368.001Z" fill="white"/>
<path d="M517.473 341.029L547.068 334.351C547.068 334.351 543.281 300.365 511.383 286.854C511.383 286.854 485.108 273.824 456.393 289.203C426.181 305.383 421.516 340.029 428.473 360.894L457.829 354.469C457.829 354.469 452.15 341.068 458.172 328.899C464.194 316.73 471.35 311.939 486.929 310.785C501.777 309.682 515.585 324.357 517.473 341.037L517.473 341.029Z" fill="white"/>
<path d="M607.489 355.984L581.461 340.401C581.461 340.401 560.734 367.605 574.49 399.391C574.49 399.391 584.505 426.948 615.905 435.632C648.943 444.767 676.242 422.915 685.611 403.018L659.932 387.411C659.932 387.411 654.79 401.029 642.028 405.678C629.266 410.328 620.78 408.861 608.711 398.95C597.205 389.503 597.347 369.361 607.493 355.988L607.489 355.984Z" fill="white"/>
<path d="M900.319 250.418L882.424 225.925C882.424 225.925 852.727 242.902 852.999 277.531C852.999 277.531 851.479 306.812 877.01 327.039C903.873 348.32 937.534 338.836 953.922 324.161L936.357 299.783C936.357 299.783 926.313 310.318 912.747 309.631C899.182 308.939 891.941 304.281 884.687 290.452C877.777 277.269 885.76 258.776 900.319 250.414L900.319 250.418Z" fill="white"/>
<path d="M1173.52 199.913L1155.63 175.42C1155.63 175.42 1125.93 192.397 1126.2 227.025C1126.2 227.025 1124.68 256.307 1150.21 276.533C1177.08 297.815 1210.74 288.33 1227.13 273.655L1209.56 249.278C1209.56 249.278 1199.52 259.812 1185.95 259.125C1172.39 258.438 1165.15 253.776 1157.89 239.947C1150.98 226.764 1158.97 208.271 1173.52 199.909L1173.52 199.913Z" fill="white"/>
<path d="M1103.41 255.173L1120.95 230.429C1120.95 230.429 1095.4 207.686 1062.65 218.951C1062.65 218.951 1034.39 226.82 1023.32 257.444C1011.68 289.67 1031.38 318.551 1050.51 329.417L1068.05 305.02C1068.05 305.02 1054.86 298.849 1051.2 285.776C1047.54 272.699 1049.66 264.357 1060.47 253.086C1070.78 242.345 1090.86 244.029 1103.41 255.169L1103.41 255.173Z" fill="white"/>
<path d="M1416.06 203.119L1389.65 188.191C1389.65 188.191 1369.62 215.902 1384.16 247.334C1384.16 247.334 1394.86 274.634 1426.47 282.528C1459.72 290.837 1486.46 268.309 1495.33 248.184L1469.27 233.223C1469.27 233.223 1464.47 246.965 1451.83 251.929C1439.19 256.898 1430.67 255.642 1418.35 246.035C1406.61 236.88 1406.25 216.739 1416.06 203.118L1416.06 203.119Z" fill="white"/>
<path d="M1611.68 306.808L1640.05 317.542C1640.05 317.542 1655.64 287.1 1636.47 258.249C1636.47 258.249 1621.74 232.895 1589.3 229.902C1555.17 226.753 1532.17 253.085 1526.47 274.326L1554.5 285.144C1554.5 285.144 1557.15 270.832 1568.89 263.998C1580.63 257.165 1589.24 257.109 1602.88 264.732C1615.87 271.994 1619.3 291.847 1611.67 306.803L1611.68 306.808Z" fill="white"/>
<path d="M682.04 284.149L670.816 305.427C670.816 305.427 693.266 320.662 717.856 308.405C717.856 308.405 739.259 299.288 744.784 274.059C750.596 247.513 732.105 226.845 715.937 220.282L704.681 241.283C704.681 241.283 715.692 244.769 719.925 254.67C724.161 264.571 723.361 271.354 716.031 281.335C709.041 290.852 693.079 291.608 682.045 284.149L682.04 284.149Z" fill="white"/>
<path d="M1938.63 219.18L1939.92 187.216L1874.08 184.561L1872.79 216.525L1938.63 219.18Z" fill="white"/>
<path d="M1740.29 195.296L1710.09 198.199C1710.09 198.199 1709.57 232.388 1739.51 249.809C1739.51 249.809 1763.93 266.044 1794.36 254.401C1826.37 242.151 1835.36 208.367 1831.08 186.795L1801.15 189.471C1801.15 189.471 1805.1 203.481 1797.59 214.796C1790.08 226.112 1782.38 229.964 1766.78 229.148C1751.91 228.371 1740.07 212.078 1740.29 195.296Z" fill="white"/>
<path d="M1708.1 269.085L1676.21 271.801L1681.81 337.426L1713.7 334.71L1708.1 269.085Z" fill="white"/>
<path d="M1883.45 265.133L1852.77 256.015L1834 319.146L1864.67 328.264L1883.45 265.133Z" fill="white"/>
<path d="M1824.31 282.571L1806.22 308.358L1760.97 301.862L1794.42 325.662L1778.6 348.469L1728.81 314.17L1756.24 273.725L1824.31 282.571Z" fill="white"/>
<path d="M1946.86 244.301L1959.54 273.141L1930.52 308.439L1968.23 292.196L1979.53 317.544L1924.37 342.312L1904 297.89L1946.86 244.301Z" fill="white"/>
</g>
</svg>
