<svg width="382" height="77" viewBox="0 0 382 77" fill="none" xmlns="http://www.w3.org/2000/svg">
<g clip-path="url(#clip0_556_47)">
<path d="M257.308 24.4427V0.336426L189.196 0.336426V24.4427L257.308 24.4427Z" fill="black"/>
<path d="M21.4447 30.7215L0.198813 30.3291C0.198813 30.3291 -2.89718 53.7907 16.5593 68.1143C16.5593 68.1143 32.2665 81.2046 54.3929 75.5985C77.6554 69.684 86.6026 47.1755 85.3528 32.0109L64.3057 31.5064C64.3057 31.5064 65.9247 41.4572 59.818 48.6331C53.6828 55.8089 48.0305 57.8551 37.2087 56.0892C26.3869 54.3233 19.9677 42.2421 21.4731 30.7215H21.4447Z" fill="black"/>
<path d="M310.65 29.0957V33.3844H310.679C310.963 32.9359 311.36 32.6276 311.872 32.4033C312.383 32.1791 312.894 32.095 313.434 32.095C313.86 32.095 314.286 32.1791 314.712 32.3473C315.138 32.5155 315.507 32.7958 315.848 33.1602C316.189 33.5246 316.473 34.0011 316.672 34.5617C316.871 35.1223 316.984 35.795 316.984 36.5799C316.984 37.3648 316.871 38.0375 316.672 38.5981C316.444 39.1587 316.189 39.6352 315.848 39.9996C315.507 40.364 315.138 40.6443 314.712 40.8125C314.286 40.9807 313.86 41.0648 313.434 41.0648C312.809 41.0648 312.241 40.9527 311.729 40.7565C311.218 40.5602 310.849 40.2239 310.593 39.7474H310.565V40.8405H308.293V29.0397H310.679L310.65 29.0957ZM314.513 35.5988C314.428 35.2625 314.314 34.9822 314.144 34.7299C313.973 34.4776 313.775 34.2814 313.519 34.1412C313.263 34.0011 312.951 33.917 312.61 33.917C312.269 33.917 311.957 34.0011 311.701 34.1412C311.445 34.2814 311.218 34.4776 311.076 34.7299C310.906 34.9822 310.792 35.2625 310.707 35.5988C310.622 35.9352 310.593 36.2716 310.593 36.636C310.593 37.0004 310.622 37.3367 310.707 37.6731C310.792 38.0095 310.906 38.2898 311.076 38.542C311.247 38.7943 311.445 38.9905 311.701 39.1587C311.957 39.2989 312.269 39.383 312.61 39.383C312.951 39.383 313.263 39.2989 313.519 39.1587C313.775 39.0186 313.973 38.8223 314.144 38.542C314.314 38.2898 314.428 38.0095 314.513 37.6731C314.598 37.3367 314.627 37.0004 314.627 36.636C314.627 36.2716 314.598 35.9352 314.513 35.5988Z" fill="black"/>
<path d="M321.699 43.4474C321.245 43.7557 320.591 43.8959 319.796 43.8959C319.54 43.8959 319.313 43.8959 319.058 43.8959C318.83 43.8959 318.575 43.8679 318.319 43.8398V41.9057C318.546 41.9057 318.774 41.9618 319.001 41.9618C319.228 41.9618 319.484 41.9618 319.711 41.9618C320.023 41.9337 320.251 41.7936 320.421 41.5974C320.591 41.4012 320.648 41.1489 320.648 40.8966C320.648 40.7004 320.62 40.5322 320.535 40.364L317.495 32.3473H320.023L321.983 38.2057H322.012L323.915 32.3473H326.386L322.778 41.9618C322.523 42.6625 322.154 43.1391 321.699 43.4474Z" fill="black"/>
<path d="M53.3988 0.560669C54.9326 0.560669 56.2107 0.784914 57.2901 1.20537C58.3694 1.65386 59.2215 2.21447 59.9032 2.94327C60.5849 3.67206 61.0678 4.48495 61.3802 5.40996C61.6926 6.33497 61.8347 7.28801 61.8347 8.26908C61.8347 9.25015 61.6926 10.1752 61.3802 11.1002C61.0678 12.0252 60.5849 12.8661 59.9032 13.5669C59.2215 14.2957 58.3694 14.8563 57.2901 15.3048C56.2107 15.7532 54.9326 15.9495 53.3988 15.9495H47.7749V24.5548H42.435V0.560669H53.3988ZM51.9502 11.885C52.5751 11.885 53.1432 11.829 53.7112 11.7449C54.2793 11.6608 54.7906 11.4926 55.2166 11.2123C55.6427 10.96 55.9835 10.5956 56.2676 10.1191C56.5232 9.64258 56.6652 9.0259 56.6652 8.26908C56.6652 7.51225 56.5232 6.89558 56.2676 6.41906C56.0119 5.94254 55.6711 5.57814 55.2166 5.32587C54.7906 5.07359 54.2793 4.90541 53.7112 4.79329C53.1432 4.70919 52.5467 4.65313 51.9502 4.65313H47.8033V11.857H51.9502V11.885Z" fill="black"/>
<path d="M74.7867 0.560669L83.8758 24.5829H78.3087L76.4625 19.229H67.3733L65.4703 24.5829H60.0736L69.2764 0.560669H74.7583H74.7867ZM75.0707 15.3048L72.0031 6.50315H71.9463L68.7651 15.3048H75.0707Z" fill="black"/>
<path d="M99.1001 0.560669C100.179 0.560669 101.174 0.728852 102.054 1.09325C102.935 1.42962 103.673 1.90614 104.298 2.52281C104.923 3.13948 105.406 3.84025 105.718 4.6251C106.059 5.40996 106.201 6.27891 106.201 7.20392C106.201 8.60544 105.889 9.83879 105.292 10.8759C104.696 11.9131 103.701 12.6979 102.338 13.2305V13.2866C102.991 13.4547 103.531 13.735 103.986 14.0994C104.412 14.4638 104.781 14.9123 105.036 15.4169C105.292 15.9214 105.519 16.482 105.633 17.0707C105.747 17.6874 105.832 18.276 105.889 18.8927C105.889 19.2851 105.945 19.7336 105.945 20.2381C105.945 20.7427 106.002 21.2753 106.059 21.8078C106.116 22.3404 106.201 22.845 106.343 23.3495C106.485 23.8541 106.655 24.2465 106.911 24.5829H101.571C101.287 23.8261 101.088 22.901 101.032 21.8639C100.975 20.7987 100.861 19.7896 100.719 18.8366C100.549 17.5752 100.151 16.6502 99.5546 16.0896C98.9581 15.501 97.9924 15.2207 96.6574 15.2207H91.3175V24.6109H85.9777V0.560669H99.1001ZM97.1971 11.4365C98.4184 11.4365 99.3557 11.1562 99.9522 10.6236C100.549 10.0911 100.861 9.22212 100.861 7.98877C100.861 6.75543 100.549 5.97057 99.9522 5.43799C99.3557 4.90541 98.4184 4.65313 97.1971 4.65313H91.3459V11.4085H97.1971V11.4365Z" fill="black"/>
<path d="M110.348 7.68038C110.888 6.1387 111.683 4.79323 112.705 3.67201C113.728 2.52275 114.978 1.62577 116.483 0.98107C117.96 0.336367 119.636 0 121.511 0C123.385 0 125.089 0.336367 126.566 0.98107C128.043 1.62577 129.293 2.52275 130.316 3.67201C131.338 4.82126 132.134 6.16673 132.673 7.68038C133.213 9.22206 133.497 10.8759 133.497 12.6698C133.497 14.4638 133.213 16.0615 132.673 17.5752C132.134 19.0888 131.338 20.4063 130.316 21.5275C129.293 22.6487 128.043 23.5177 126.566 24.1624C125.089 24.8071 123.414 25.1154 121.511 25.1154C119.608 25.1154 117.96 24.8071 116.483 24.1624C115.006 23.5177 113.728 22.6487 112.705 21.5275C111.683 20.4063 110.888 19.0888 110.348 17.5752C109.808 16.0615 109.524 14.4357 109.524 12.6698C109.524 10.9039 109.808 9.22206 110.348 7.68038ZM115.262 15.613C115.489 16.5661 115.887 17.435 116.398 18.1918C116.909 18.9487 117.591 19.5653 118.443 20.0138C119.295 20.4623 120.318 20.7146 121.511 20.7146C122.704 20.7146 123.726 20.4904 124.578 20.0138C125.43 19.5373 126.112 18.9487 126.623 18.1918C127.135 17.435 127.532 16.5661 127.759 15.613C127.987 14.66 128.129 13.6789 128.129 12.6698C128.129 11.6607 128.015 10.5956 127.759 9.61449C127.504 8.63342 127.135 7.73644 126.623 6.97961C126.112 6.19476 125.43 5.57809 124.578 5.1296C123.726 4.68111 122.704 4.42883 121.511 4.42883C120.318 4.42883 119.295 4.65308 118.443 5.1296C117.591 5.60612 116.909 6.19476 116.398 6.97961C115.887 7.76447 115.489 8.63342 115.262 9.61449C115.035 10.5956 114.893 11.6327 114.893 12.6698C114.893 13.707 115.006 14.66 115.262 15.613Z" fill="black"/>
<path d="M142.472 0.560669V20.126H154.345V24.5548H137.133V0.560669H142.472Z" fill="black"/>
<path d="M175.534 0.560669V4.9895H162.696V10.1471H174.483V14.2396H162.696V20.126H175.818V24.5548H157.356V0.560669H175.563H175.534Z" fill="black"/>
<path d="M102.281 41.0928C103.844 41.0928 105.321 41.345 106.656 41.8216C108.019 42.3261 109.183 43.0549 110.178 44.036C111.172 45.0171 111.939 46.2504 112.507 47.736C113.075 49.2216 113.33 50.9595 113.33 52.9497C113.33 54.6876 113.103 56.3134 112.649 57.799C112.194 59.2846 111.513 60.546 110.575 61.6392C109.666 62.7043 108.502 63.5733 107.138 64.19C105.775 64.8066 104.156 65.115 102.281 65.115H91.772V41.0928H102.281ZM101.912 60.6861C102.679 60.6861 103.446 60.574 104.156 60.3218C104.866 60.0695 105.519 59.677 106.087 59.0884C106.656 58.5278 107.11 57.771 107.451 56.846C107.792 55.921 107.962 54.7997 107.962 53.4823C107.962 52.277 107.848 51.1838 107.593 50.2027C107.366 49.2216 106.968 48.3807 106.428 47.708C105.889 47.0072 105.15 46.4746 104.27 46.1102C103.361 45.7459 102.253 45.5496 100.946 45.5496H97.1403V60.6861H101.912Z" fill="black"/>
<path d="M121.851 41.0928V46.2504C121.851 46.9792 121.766 47.68 121.539 48.3247C121.312 48.9694 120.971 49.558 120.545 50.0345C120.119 50.5391 119.608 50.9315 118.983 51.2679C118.386 51.6042 117.733 51.8005 117.023 51.8845V49.6701C117.875 49.3898 118.471 48.9413 118.784 48.3807C119.096 47.8201 119.267 47.1193 119.267 46.2784H117.023V41.0928H121.851Z" fill="black"/>
<path d="M144.716 41.0929V45.5217H131.878V50.6793H143.665V54.7718H131.878V60.6582H145V65.087H126.538V41.0648H144.745L144.716 41.0929Z" fill="black"/>
<path d="M146.733 41.0928H152.925L157.697 48.7732L162.639 41.0928H168.49L160.679 52.5573L169.172 65.115H162.809L157.498 56.8179L152.073 65.115H146.08L154.572 52.5292L146.733 41.0928Z" fill="black"/>
<path d="M182.323 41.0929C183.856 41.0929 185.135 41.3171 186.214 41.7376C187.293 42.186 188.145 42.7467 188.827 43.4755C189.509 44.2042 189.992 45.0171 190.304 45.9421C190.617 46.8671 190.759 47.8202 190.759 48.8013C190.759 49.7823 190.617 50.7073 190.304 51.6323C189.992 52.5574 189.509 53.3983 188.827 54.099C188.145 54.8278 187.293 55.3884 186.214 55.8369C185.135 56.2854 183.856 56.4816 182.323 56.4816H176.699V65.087H171.359V41.0648H182.323V41.0929ZM180.846 52.4172C181.471 52.4172 182.039 52.3611 182.607 52.2771C183.175 52.193 183.686 52.0248 184.112 51.7445C184.538 51.4922 184.879 51.1278 185.163 50.6513C185.419 50.1748 185.561 49.5581 185.561 48.8013C185.561 48.0444 185.419 47.4278 185.163 46.9512C184.907 46.4747 184.567 46.1103 184.112 45.8581C183.686 45.6058 183.175 45.4376 182.607 45.3255C182.039 45.2414 181.442 45.1853 180.846 45.1853H176.699V52.3892H180.846V52.4172Z" fill="black"/>
<path d="M212.288 41.0929V45.5217H199.45V50.6793H211.238V54.7718H199.45V60.6582H212.573V65.087H194.11V41.0648H212.317L212.288 41.0929Z" fill="black"/>
<path d="M291.222 41.1208V45.5496H278.384V50.7073H290.171V54.7997H278.384V60.6861H291.506V65.115H273.044V41.0928H291.25L291.222 41.1208Z" fill="black"/>
<path d="M229.274 41.0928C230.353 41.0928 231.347 41.261 232.228 41.6254C233.108 41.9617 233.847 42.4382 234.472 43.0549C235.097 43.6716 235.579 44.3724 235.892 45.1572C236.233 45.9421 236.375 46.811 236.375 47.736C236.375 49.1376 236.062 50.3709 235.466 51.408C234.869 52.4452 233.875 53.23 232.512 53.7626V53.8187C233.165 53.9868 233.705 54.2671 234.159 54.6315C234.585 54.9959 234.955 55.4444 235.21 55.949C235.466 56.4535 235.693 57.0141 235.807 57.6028C235.92 58.2195 236.005 58.8081 236.062 59.4248C236.062 59.8172 236.119 60.2657 236.119 60.7702C236.119 61.2748 236.176 61.8074 236.233 62.34C236.29 62.8725 236.375 63.3771 236.517 63.8816C236.659 64.3862 236.829 64.7786 237.085 65.115H231.745C231.461 64.3582 231.262 63.4331 231.205 62.396C231.148 61.3309 231.035 60.3218 230.893 59.3687C230.722 58.1073 230.325 57.1823 229.728 56.6217C229.132 56.0331 228.166 55.7528 226.831 55.7528H221.491V65.143H216.151V41.1208H229.274V41.0928ZM227.371 51.9686C228.592 51.9686 229.529 51.6883 230.126 51.1558C230.722 50.6232 231.035 49.7542 231.035 48.5209C231.035 47.2875 230.722 46.5027 230.126 45.9701C229.529 45.4375 228.592 45.1852 227.371 45.1852H221.52V51.9406H227.371V51.9686Z" fill="black"/>
<path d="M238.249 45.5497V41.1208H258.189V45.5497H250.889V65.115H245.549V45.5497H238.249Z" fill="black"/>
<path d="M351.795 14.6157L341.4 14.5889L341.345 35.1072L351.741 35.134L351.795 14.6157Z" fill="black"/>
<path d="M355.159 14.6039L365.554 14.5479L372.286 27.526L372.343 14.5479L381.915 14.66L381.688 34.9541L365.668 34.9261L355.159 14.6039Z" fill="black"/>
<path d="M351.523 42.5504L341.525 42.6906C341.525 42.6906 341.809 64.7226 361.976 64.1059C382.142 63.4893 382.028 42.8027 382.028 42.8027H371.86C371.86 42.8027 372.996 54.5195 362.174 54.8278C351.353 55.1361 351.551 42.5784 351.551 42.5784L351.523 42.5504Z" fill="black"/>
<path d="M265.006 56.1172C266.182 56.1172 267.136 55.176 267.136 54.0149C267.136 52.8538 266.182 51.9126 265.006 51.9126C263.829 51.9126 262.875 52.8538 262.875 54.0149C262.875 55.176 263.829 56.1172 265.006 56.1172Z" fill="black"/>
</g>
<defs>
<clipPath id="clip0_556_47">
<rect width="382" height="77" fill="white"/>
</clipPath>
</defs>
</svg>
