<svg width="306" height="93" viewBox="0 0 306 93" fill="none" xmlns="http://www.w3.org/2000/svg">
<g clip-path="url(#clip0_13_125)">
<path d="M304.956 29.5216V0.40625L224.232 0.40625V29.5216L304.956 29.5216Z" fill="black"/>
<path d="M25.4159 37.1052L0.235707 36.6312C0.235707 36.6312 -3.4336 64.968 19.6258 82.2679C19.6258 82.2679 38.2416 98.0783 64.4654 91.3072C92.0357 84.1638 102.64 56.9782 101.158 38.6625L76.2139 38.0531C76.2139 38.0531 78.1327 50.0717 70.8951 58.7386C63.6238 67.4055 56.9248 69.877 44.0991 67.7441C31.2733 65.6112 23.6654 51.0197 25.4496 37.1052H25.4159Z" fill="black"/>
<path d="M63.2871 0.677124C65.105 0.677124 66.6198 0.947965 67.899 1.45579C69.1782 1.99747 70.1881 2.67458 70.9961 3.55481C71.804 4.43504 72.3763 5.41684 72.7466 6.53406C73.1169 7.65128 73.2852 8.80235 73.2852 9.98728C73.2852 11.1722 73.1169 12.2894 72.7466 13.4066C72.3763 14.5239 71.804 15.5395 70.9961 16.3859C70.1881 17.2661 69.1782 17.9432 67.899 18.4849C66.6198 19.0266 65.105 19.2636 63.2871 19.2636H56.6218V29.6571H50.2931V0.677124H63.2871ZM61.5703 14.3546C62.3109 14.3546 62.9842 14.2869 63.6574 14.1853C64.3307 14.0838 64.9367 13.8806 65.4416 13.5421C65.9466 13.2374 66.3505 12.7973 66.6871 12.2217C66.9901 11.6462 67.1584 10.9014 67.1584 9.98728C67.1584 9.07319 66.9901 8.32838 66.6871 7.75284C66.3842 7.17731 65.9802 6.73719 65.4416 6.43249C64.9367 6.1278 64.3307 5.92467 63.6574 5.78925C62.9842 5.68768 62.2773 5.61997 61.5703 5.61997H56.6555V14.3207H61.5703V14.3546Z" fill="black"/>
<path d="M88.6356 0.677124L99.4079 29.691H92.8099L90.6218 23.2246H79.8495L77.594 29.691H71.198L82.1049 0.677124H88.602H88.6356ZM88.9723 18.4849L85.3366 7.85441H85.2693L81.499 18.4849H88.9723Z" fill="black"/>
<path d="M117.452 0.677124C118.731 0.677124 119.909 0.880255 120.953 1.32037C121.996 1.72663 122.871 2.30217 123.612 3.04698C124.353 3.79179 124.925 4.63817 125.295 5.58612C125.699 6.53406 125.867 7.58357 125.867 8.70079C125.867 10.3935 125.497 11.8832 124.79 13.1358C124.083 14.3884 122.905 15.3364 121.289 15.9796V16.0473C122.063 16.2505 122.703 16.589 123.242 17.0291C123.747 17.4693 124.184 18.0109 124.487 18.6203C124.79 19.2297 125.059 19.9068 125.194 20.6178C125.329 21.3626 125.43 22.0736 125.497 22.8184C125.497 23.2923 125.564 23.834 125.564 24.4434C125.564 25.0528 125.632 25.6961 125.699 26.3393C125.766 26.9826 125.867 27.5919 126.036 28.2013C126.204 28.8107 126.406 29.2847 126.709 29.691H120.38C120.044 28.7769 119.808 27.6597 119.741 26.407C119.673 25.1205 119.539 23.9017 119.37 22.7507C119.168 21.2272 118.697 20.11 117.99 19.4329C117.283 18.7219 116.139 18.3834 114.556 18.3834H108.228V29.7248H101.899V0.677124H117.452ZM115.196 13.8129C116.644 13.8129 117.754 13.4744 118.461 12.8311C119.168 12.1879 119.539 11.1384 119.539 9.64873C119.539 8.1591 119.168 7.21116 118.461 6.56791C117.754 5.92467 116.644 5.61997 115.196 5.61997H108.261V13.7791H115.196V13.8129Z" fill="black"/>
<path d="M130.782 9.2763C131.422 7.41427 132.364 5.78922 133.576 4.43502C134.788 3.04696 136.269 1.9636 138.053 1.18493C139.804 0.406261 141.79 0 144.012 0C146.234 0 148.253 0.406261 150.004 1.18493C151.754 1.9636 153.236 3.04696 154.448 4.43502C155.659 5.82308 156.602 7.44812 157.242 9.2763C157.881 11.1383 158.218 13.1358 158.218 15.3025C158.218 17.4692 157.881 19.399 157.242 21.2272C156.602 23.0553 155.659 24.6465 154.448 26.0007C153.236 27.3549 151.754 28.4044 150.004 29.1831C148.253 29.9618 146.267 30.3342 144.012 30.3342C141.756 30.3342 139.804 29.9618 138.053 29.1831C136.303 28.4044 134.788 27.3549 133.576 26.0007C132.364 24.6465 131.422 23.0553 130.782 21.2272C130.143 19.399 129.806 17.4354 129.806 15.3025C129.806 13.1696 130.143 11.1383 130.782 9.2763ZM136.606 18.8573C136.875 20.0084 137.347 21.0579 137.952 21.972C138.558 22.8861 139.366 23.6309 140.376 24.1726C141.386 24.7142 142.598 25.0189 144.012 25.0189C145.426 25.0189 146.638 24.7481 147.648 24.1726C148.657 23.597 149.465 22.8861 150.071 21.972C150.677 21.0579 151.149 20.0084 151.418 18.8573C151.687 17.7062 151.855 16.5213 151.855 15.3025C151.855 14.0837 151.721 12.7972 151.418 11.6123C151.115 10.4274 150.677 9.34401 150.071 8.42992C149.465 7.48198 148.657 6.73717 147.648 6.19549C146.638 5.6538 145.426 5.34911 144.012 5.34911C142.598 5.34911 141.386 5.61995 140.376 6.19549C139.366 6.77102 138.558 7.48198 137.952 8.42992C137.347 9.37787 136.875 10.4274 136.606 11.6123C136.337 12.7972 136.168 14.0499 136.168 15.3025C136.168 16.5552 136.303 17.7062 136.606 18.8573Z" fill="black"/>
<path d="M168.855 0.677124V24.308H182.927V29.6571H162.527V0.677124H168.855Z" fill="black"/>
<path d="M208.04 0.677124V6.02623H192.824V12.2556H206.794V17.1984H192.824V24.308H208.376V29.6571H186.495V0.677124H208.073H208.04Z" fill="black"/>
<path d="M121.222 49.6316C123.073 49.6316 124.824 49.9363 126.406 50.5118C128.022 51.1212 129.402 52.0015 130.58 53.1864C131.758 54.3713 132.667 55.8609 133.341 57.6553C134.014 59.4496 134.317 61.5486 134.317 63.9523C134.317 66.0513 134.048 68.0149 133.509 69.8092C132.97 71.6036 132.162 73.127 131.052 74.4474C129.974 75.7339 128.594 76.7834 126.978 77.5282C125.362 78.273 123.444 78.6454 121.222 78.6454H108.766V49.6316H121.222ZM120.784 73.2963C121.693 73.2963 122.602 73.1609 123.444 72.8562C124.285 72.5515 125.059 72.0775 125.733 71.3666C126.406 70.6895 126.945 69.7754 127.349 68.6582C127.752 67.5409 127.954 66.1867 127.954 64.5956C127.954 63.1398 127.82 61.8194 127.517 60.6345C127.248 59.4496 126.776 58.4339 126.137 57.6214C125.497 56.775 124.622 56.1318 123.578 55.6917C122.501 55.2515 121.188 55.0146 119.64 55.0146H115.129V73.2963H120.784Z" fill="black"/>
<path d="M144.416 49.6316V55.8609C144.416 56.7412 144.315 57.5875 144.046 58.3662C143.776 59.1449 143.372 59.8558 142.867 60.4314C142.362 61.0408 141.756 61.5147 141.016 61.921C140.309 62.3273 139.535 62.5642 138.693 62.6658V59.9913C139.703 59.6527 140.41 59.111 140.78 58.4339C141.15 57.7568 141.352 56.9104 141.352 55.8948H138.693V49.6316H144.416Z" fill="black"/>
<path d="M171.515 49.6316V54.9807H156.299V61.2101H170.269V66.1529H156.299V73.2625H171.851V78.6116H149.97V49.5978H171.548L171.515 49.6316Z" fill="black"/>
<path d="M173.905 49.6316H181.244L186.899 58.9079L192.756 49.6316H199.691L190.434 63.4783L200.499 78.6454H192.958L186.663 68.6243L180.234 78.6454H173.131L183.196 63.4445L173.905 49.6316Z" fill="black"/>
<path d="M216.085 49.6316C217.903 49.6316 219.418 49.9025 220.697 50.4103C221.976 50.952 222.986 51.6291 223.794 52.5093C224.602 53.3896 225.174 54.3713 225.545 55.4886C225.915 56.6058 226.083 57.7569 226.083 58.9418C226.083 60.1267 225.915 61.2439 225.545 62.3612C225.174 63.4784 224.602 64.494 223.794 65.3404C222.986 66.2206 221.976 66.8977 220.697 67.4394C219.418 67.9811 217.903 68.2181 216.085 68.2181H209.42V78.6116H203.091V49.5978H216.085V49.6316ZM214.335 63.3091C215.075 63.3091 215.749 63.2414 216.422 63.1398C217.095 63.0383 217.701 62.8351 218.206 62.4966C218.711 62.1919 219.115 61.7518 219.452 61.1762C219.754 60.6007 219.923 59.8559 219.923 58.9418C219.923 58.0277 219.754 57.2829 219.452 56.7074C219.149 56.1318 218.745 55.6917 218.206 55.387C217.701 55.0823 217.095 54.8792 216.422 54.7438C215.749 54.6422 215.042 54.5745 214.335 54.5745H209.42V63.2752H214.335V63.3091Z" fill="black"/>
<path d="M251.6 49.6316V54.9807H236.384V61.2101H250.354V66.1529H236.384V73.2625H251.937V78.6116H230.055V49.5978H251.634L251.6 49.6316Z" fill="black"/>
<path d="M271.731 49.6316C273.01 49.6316 274.188 49.8347 275.232 50.2748C276.275 50.6811 277.151 51.2566 277.891 52.0014C278.632 52.7463 279.204 53.5926 279.574 54.5406C279.978 55.4885 280.147 56.538 280.147 57.6553C280.147 59.348 279.776 60.8376 279.069 62.0903C278.362 63.3429 277.184 64.2909 275.568 64.9341V65.0018C276.343 65.2049 276.982 65.5435 277.521 65.9836C278.026 66.4237 278.463 66.9654 278.766 67.5748C279.069 68.1842 279.339 68.8613 279.473 69.5723C279.608 70.3171 279.709 71.028 279.776 71.7728C279.776 72.2468 279.844 72.7885 279.844 73.3979C279.844 74.0073 279.911 74.6505 279.978 75.2938C280.046 75.937 280.147 76.5464 280.315 77.1558C280.483 77.7652 280.685 78.2392 280.988 78.6454H274.659C274.323 77.7313 274.087 76.6141 274.02 75.3615C273.952 74.075 273.818 72.8562 273.65 71.7051C273.448 70.1816 272.976 69.0644 272.269 68.3873C271.562 67.6764 270.418 67.3378 268.836 67.3378H262.507V78.6793H256.178V49.6654H271.731V49.6316ZM269.475 62.7674C270.923 62.7674 272.034 62.4288 272.741 61.7856C273.448 61.1423 273.818 60.0928 273.818 58.6032C273.818 57.1136 273.448 56.1656 272.741 55.5224C272.034 54.8791 270.923 54.5744 269.475 54.5744H262.541V62.7335H269.475V62.7674Z" fill="black"/>
<path d="M282.368 55.0145V49.6654H306V55.0145H297.349V78.6454H291.02V55.0145H282.368Z" fill="black"/>
</g>
<defs>
<clipPath id="clip0_13_125">
<rect width="306" height="93" fill="white"/>
</clipPath>
</defs>
</svg>
