<?xml version="1.0" encoding="UTF-8"?>
<svg id="Calque_3" data-name="Calque 3" xmlns="http://www.w3.org/2000/svg" viewBox="155 152 280 243">
  <defs>
    <style>
      .cls-1 {
        fill: #60cbeb;
      }

      .cls-2 {
        fill: #9aa8ff;
      }

      .cls-3 {
        fill: #03163e;
      }

      .cls-4 {
        fill: #fff;
      }

      .cls-5 {
        fill: #05486d;
      }

      .cls-6 {
        fill: #3452ff;
      }
    </style>
  </defs>
  <path class="cls-6" d="M424.35,288.53c0,14.04-2.23,26.16-6.37,36.56-14.4,36.38-52,51.74-98.48,55.5-2.82.24-5.67.42-8.55.57-5.44.28-11,.41-16.62.41-27.2,0-52.46-3.05-73.32-10.74-24.76-9.11-43.38-24.76-51.77-49.6-3.21-9.5-4.94-20.35-4.94-32.69,0-5.52.34-10.98,1.01-16.32.24-1.89.52-3.76.85-5.64,10.43-61.35,63.86-108.05,128.17-108.05,4.12,0,8.19.2,12.2.57,3.37.31,6.7.75,9.97,1.32,6.17,1.06,12.2,2.56,18.05,4.46,52.13,16.93,89.79,65.89,89.79,123.66Z"/>
  <ellipse class="cls-3" cx="327.39" cy="259.83" rx="58.47" ry="70.89" transform="translate(46.59 569.43) rotate(-86.23)"/>
  <ellipse class="cls-2" cx="330.65" cy="259.83" rx="48.42" ry="58.7" transform="translate(49.64 572.68) rotate(-86.23)"/>
  <path class="cls-3" d="M383.96,263.16c-1.51,22.97-25.33,40.12-53.19,38.28-4.63-.31-9.07-1.11-13.26-2.36-21.06-6.24-35.73-23.41-34.45-42.57.13-2.05.44-4.06.93-5.99,0-.02,0-.03.02-.05.41-1.71.94-3.36,1.63-4.97,7.05-17.19,27.43-28.8,50.61-27.29,2.31.15,4.58.42,6.79.85,24.47,4.35,42.31,23.02,40.92,44.1Z"/>
  <circle class="cls-4" cx="317.98" cy="259.21" r="15.42"/>
  <path class="cls-5" d="M319.51,380.59c-2.82.24-5.67.42-8.55.57,16.86-11.66,26.5-33.49,23.56-53.77-.2-1.34.73-2.57,2.07-2.77,1.34-.2,2.57.73,2.77,2.07,2.83,19.63-5.15,40.6-19.84,53.91Z"/>
  <path class="cls-5" d="M330.65,192.59c-.15.03-.28.03-.41.03-1.17,0-2.22-.85-2.41-2.05-1.61-9.9-6.56-19.12-13.93-25.95-2.26-2.1-4.74-3.96-7.36-5.54,3.37.31,6.7.75,9.97,1.32.24.2.47.41.72.64,8.16,7.56,13.64,17.77,15.43,28.75.23,1.34-.68,2.59-2,2.8Z"/>
  <path class="cls-5" d="M247.03,256.66c-.1,1.35-1.25,2.38-2.61,2.28-26.94-1.89-54.25,2.77-79.11,13.26.24-1.89.52-3.76.85-5.64,24.83-10,51.89-14.38,78.6-12.51,1.35.1,2.36,1.27,2.26,2.61Z"/>
  <path class="cls-1" d="M244.87,260.83c5.07,0,5.08-7.88,0-7.88s-5.08,7.88,0,7.88h0Z"/>
  <g>
    <circle class="cls-2" cx="337.29" cy="328.95" r="7.8" transform="translate(-41.44 609.19) rotate(-80.78)"/>
    <path class="cls-4" d="M341.27,328.95c0,2.2-1.78,3.98-3.98,3.98s-3.98-1.78-3.98-3.98,1.78-3.98,3.98-3.98,3.98,1.78,3.98,3.98Z"/>
  </g>
  <g>
    <circle class="cls-2" cx="244.87" cy="256.64" r="7.8"/>
    <circle class="cls-4" cx="244.87" cy="256.64" r="3.98"/>
  </g>
  <g>
    <circle class="cls-2" cx="330.65" cy="189.64" r="7.8"/>
    <circle class="cls-4" cx="330.65" cy="189.64" r="3.98"/>
  </g>
</svg>