<svg width="25" height="25" viewBox="0 0 25 25" fill="none" xmlns="http://www.w3.org/2000/svg">
<g id="Calque_1" clip-path="url(#clip0_253_89)">
<g id="Fnwsae.tif">
<path id="Vector" d="M23.2046 24.9986L1.80396 25.0005C0.870289 25.0005 0.175477 24.3194 0 23.4246L0.0132435 1.66046C0.0137165 0.742078 0.852316 0.142744 1.69423 0L23.2121 0.0103985C24.2125 0.0108712 25 0.87915 25 1.84622L24.9972 23.2034C24.9972 24.1629 24.1955 24.9986 23.2046 24.9986ZM7.7049 5.60245C7.7049 4.41702 6.74285 3.4561 5.55661 3.4561C4.37037 3.4561 3.40832 4.41702 3.40832 5.60245C3.40832 6.78789 4.37037 7.74881 5.55661 7.74881C6.74285 7.74881 7.7049 6.78789 7.7049 5.60245ZM16.3997 12.4655C17.5836 12.8526 17.5661 14.3883 17.5959 15.3809L17.5988 21.2986L21.3027 21.2976V14.6308C21.2582 12.5581 21.0217 10.1523 18.7699 9.36909C18.1569 9.15592 17.5552 9.09731 16.9077 9.0803C15.4273 9.04201 14.1119 9.73919 13.3211 11.0385L13.2941 9.3776L9.73872 9.37571V21.2981H13.4441L13.445 15.0075C13.4862 14.0801 13.682 12.9712 14.6119 12.5619C15.1681 12.3171 15.7981 12.2675 16.4002 12.4646L16.3997 12.4655ZM7.4107 9.37666H3.6992V21.2991H7.4107V9.37666Z" fill="#FF5262" fill-opacity="0.82"/>
</g>
</g>
<defs>
<clipPath id="clip0_253_89">
<rect width="25" height="25" fill="white"/>
</clipPath>
</defs>
</svg>
