<svg width="25" height="25" viewBox="0 0 25 25" fill="none" xmlns="http://www.w3.org/2000/svg">
<path fill-rule="evenodd" clip-rule="evenodd" d="M6.58721 0.221358C9.56104 -0.082245 14.9802 -0.0491399 17.9927 0.173124C22.4643 0.503209 24.5897 3.3548 24.8653 7.65537C25.0446 10.4436 25.0427 14.45 24.8728 17.2401C24.5935 21.8273 22.4133 24.5455 17.703 24.8605C14.8065 25.0544 6.86468 25.1906 4.40615 24.2391C1.03877 22.9367 0.264874 19.9839 0.0931069 16.6594C-0.0352463 14.1805 -0.0267523 11.0016 0.0931069 8.51889C0.304512 4.13793 1.74282 0.715067 6.58721 0.221358ZM18.7468 4.41802C20.9165 4.00186 21.1987 7.20719 19.2762 7.43229C17.3538 7.65739 16.9376 4.76418 18.7468 4.41802ZM11.6544 6.17056C20.2097 5.14247 21.4781 17.9921 13.1918 18.8878C4.87713 19.7863 3.52659 7.14758 11.6544 6.17056ZM11.7969 8.49062C6.7911 9.22645 7.74903 17.1021 12.903 16.5649C18.325 16.0003 17.4293 7.66209 11.7969 8.49062Z" fill="#FF727F"/>
<path d="M18.7468 4.41809C20.9165 4.00193 21.1987 7.20726 19.2762 7.43236C17.3538 7.65746 16.9376 4.76425 18.7468 4.41809Z" fill="white"/>
<path fill-rule="evenodd" clip-rule="evenodd" d="M11.6545 6.17081C20.2098 5.14272 21.4782 17.9924 13.1919 18.8881C4.87727 19.7866 3.52673 7.14783 11.6545 6.17081ZM11.797 8.49087C6.79124 9.2267 7.74918 17.1024 12.9031 16.5652C18.3251 16.0005 17.4295 7.66234 11.797 8.49087Z" fill="white"/>
</svg>
