<svg id="Calque_1" xmlns="http://www.w3.org/2000/svg" version="1.1" viewBox="0 0 640.01 650.4"><defs><style>
      .st0 {
        fill: #fff;
      }
      .st1 {
        fill: #abcf10;
      }
    </style></defs><polygon class="st0" points="26.36 105.85 38.57 184.39 41.7 287.81 38.57 343.88 85.37 355.82 256.6 353.23 251.2 550.15 280.53 572.66 385.76 558.27 394.81 564.73 408.35 334.57 490.29 325.2 608.14 315.41 612.73 235.78 603.85 175.76 601.87 102.76 542.61 78.76 399.38 76.27 395.76 38.23 267.85 35.17 262.74 72.96 28.15 90.64 26.36 105.85"></polygon><g><path class="st1" d="M324.12,608.62c-1.4-.83-2.66-1.95-3.61-3.29-9.56,1.48-19.28.55-28.71,2.68-9.71,1.69-19.68,3.02-29.5,1.62-6.43-.85-9.04-8.58-6.94-14.11-10.38-3.18-23.04-6.91-28.54-17.07-1.85.75-3.92.23-5.04-1.56-6.01-7.51-1.18-17.54,1.2-25.61-.77-.65-1.46-1.39-2.07-2.19-.24-.32-.45-.68-.64-1.05-13,3.31-16.59-12.17-11.42-21.42,4.73-8.79,14.54-28.39,26.83-23.41,7.35-6.9,15.8-4.73,16,5.92,4.11,1.73,5.89,7.58,4.58,11.71-2.47,7.46-6.15,14.51-10.72,20.91-.05,1.32-.26,2.63-.5,3.95-.35,1.91-.77,3.81-1.25,5.69,1.93-2.23,5.06-3.83,7.4-1.23,3.28,2.75,3.74,7.19,2.97,11.17,3.73.69,7.38,1.73,10.95,3.09,3.13,1.2,6.24,2.76,9.05,4.73,9.81-.47,21.73-2.07,29.68,4.89.39-.1.78-.2,1.16-.3-.4-9.33,21.02-7.25,27.53-8.21,3.61-5.4,10.01-5.83,15.96-5.88,6.66-.26,13.32.06,19.98.23,5,.15,9.98.59,14.97.9,4.42.54,10.61-.08,13.25,4.21-.03-.22-.06-.44-.09-.67-3.21-4.3-3.67-9.98-3.7-15.15-1.24-8.35-.4-17.14,2.72-25,1.59-4.44,5.26-7.31,8.37-10.62,11.55-9.96,15.4,9.56,16.66,17.74,11.41-4.53,14.95,10.01,12.32,18.43,2.95,6.5-.74,13.82-6.16,17.77-1.64,3.18-3.63,6.21-5.76,9.04-.13,13.15-15.15,17.97-25.12,22.67-19.56,7.35-52.26,19.9-71.84,9.41h0ZM270.93,598.77c2.31,0,4.61-.02,6.92-.19.05,0,.11-.01.16-.02-.03-.1-.06-.2-.09-.29-1.26.05-2.53.08-3.79.07-1.94-.01-3.88-.12-5.81-.32-.53.24-1.05.47-1.58.71,1.39.04,2.78.03,4.19.04h0ZM283.21,580.3c.31-.1.61-.2.92-.3-.34,0-.68,0-1.02,0,.03.1.07.2.1.3h0ZM252.55,573.25c.33-.19.65-.38.98-.57-1.21-.24-2.44-.44-3.66-.6-.04.07-.08.14-.12.21.93.33,1.87.65,2.8.97ZM396.15,572.16c.55-.3,1.11-.59,1.68-.86-.15-.7-.29-1.39-.42-2.09-.16,1.1-.58,2.14-1.26,2.95ZM421.74,549.25c.54-.4,1.11-.76,1.72-1.09.18-.1.35-.18.53-.26.25-1.96,1.04-4.17.54-6.08,0,0,0,0,0,0-.91.17-1.82.51-2.59,1.03.05,2.14,0,4.28-.2,6.41h0ZM404.29,538.26c1.39,2.66,2.51,5.45,3.41,8.32,2.38-5.75-.1-12.57-1.29-18.45-.61,1.57-1.17,3.17-1.68,4.78-.41,1.44-.78,2.89-1.12,4.35.26.31.49.65.68,1.01h0ZM217.37,537.2c.24-.04.49-.09.73-.14.48-.15.95-.32,1.41-.5,1.11-6.08,3.46-12.54,5.89-18.02-3.26,3.87-6.58,9.33-8.63,13.56-.76,1.36-1.14,2.97-1.12,4.51.57.48,1.32.68,2.06.56l-.34.02h0ZM232.57,525.84c3.53-4.23,6.78-8.82,8.98-13.89-.31.24-.61.48-.91.73-.3.3-.59.6-.87.9-.37,1.78-1.37,4.94-3.47,4.91-1.41,2.37-2.71,4.79-3.74,7.35h0Z"></path><path d="M141.61,87.94c-11.01-.34-22.32-1.28-33.04-3.09,10.59-3.25,21.38-5.79,32.36-7.25,42.32-3.76,84.43-7.37,126.88-8.01,36.95.19,74-.76,110.88,1.73,12.24,1.19,24.5,2,36.8,2.41,18.46,1.06,36.95.21,55.42.44,20.16.91,40.3,2.27,60.49,1.75,4.87-.09,9.77-.11,14.62-.66,1.2-.91,2.75-1.22,4.25-.35,3.5,2.02,3.81,7.56.78,10.11-2.03,1.74-5.16,1.71-7.69,1.83-4.86.31-9.73.37-14.6.44-18.69.4-37.33-.79-55.97-1.72-24.22-.2-48.49.51-72.68-1.19-24.65-2.22-49.33-3.53-74.1-3.29-34.08-.37-68.19-.53-102.23,1.46-27.57.67-54.75,5.44-82.17,5.36h0Z"></path><path d="M34.34,94.88c-5.08-11.37,8.28-10.27,15.51-10.43,8.82-.18,17.64-.11,26.46-.24,24.89-.13,49.62-3.36,74.47-4.42,25.4-1.11,51.37-3.05,76.47.42-13.3,3.7-26.8,6.76-40.48,8.64-24.93,2.68-50.1,2.37-75.07,5.05-19.23,1.93-38.58,1.24-57.84,2.36-4.81.26-9.68.09-14.45.79-2,.58-3.96-.42-5.07-2.17h0Z"></path><path d="M59,122.46c-2.47-8.16,5.71-8.88,11.61-10,15.65-3.28,31.5-.94,47.26-.05,18.52.46,37.04.4,55.57.78,43.12,1.33,85.45-1.85,128.28-1.9,24.82.87,49.66,1.71,74.5,1.9,31.03-.09,62-2.2,93.02-2.89,23.04-1.16,46.06-2.44,69.09-3.71,21.03-2.24,42.42-5.38,63.54-3.84,3.12.82,6.15,2.17,8.57,4.27-2.99,3.06-6.62,5.18-10.77,6.19-12.4,1.09-25,.69-37.43,2.05-18.56,2.41-37.15,3.91-55.86,4.28-42.6,2.59-85.31,4.19-127.99,4.99-37.19.34-74.37-3.37-111.54-1.23-49.13,2.43-98.34,1.11-147.5.54-17.99-.98-36.27-3.75-53.88,1.25-2.42,1.56-5.65.08-6.47-2.63h0Z"></path><path d="M594.14,104.28c-9.71-6.55-21.3-9.12-32.26-12.81-8.06-2.67-16-5.77-24.16-8.14-5.09-1.83-3.89-11.8,1.98-11.05,12.24,3.63,24.15,8.37,36.38,12.06,7.05,2.12,13.98,4.72,20.27,8.59,1.85,1.09,3.83,2.4,4.61,4.5,2.04,4.67-1.93,10.46-6.82,6.86h0Z"></path><path d="M37.92,334.51c-.77-.53-1.32-1.42-1.79-2.21-.83-1.42-1.36-3.11-1.57-4.74-.34-2.64-.16-5.44-.03-8.09.14-2.83.37-5.64.63-8.45.48-5.37.89-10.73,1.22-16.11.29-6.1.46-12.2.61-18.3.17-6.22.4-12.44.53-18.66.26-12.41-.01-24.84-.45-37.24-.1-2.92-.29-5.82-.43-8.73-.72-10.7-1.44-21.4-2.23-32.1-.36-4.83-.87-9.66-1.51-14.47-.72-5.42-1.6-10.81-2.32-15.43-.92-5.02-1.8-10.04-2.78-15.04-.98-5.07-2-10.12-2.95-15.2-.49-2.6-1-5.2-1.41-7.81-.71-4.52-1.46-9.02-1.3-13.61.19-5.51,2.16-11.92,7.87-13.89,1.04-.36,2.16-.38,3.23-.37,1.04,0,2.18.15,3.16.48,2.26.76,4.02,2.06,4.99,4.06,1.4,2.4.82,6.08-1.34,7.84-.89.71-2.02,1.05-3.14.85-1.11-.2-1.94-.86-2.59-1.7-.06-.02-.11-.04-.17-.06-.18-.04-.36-.06-.54-.09-.44-.02-.88-.03-1.32-.01-.02,0-.04,0-.06.01-.05.02-.1.04-.15.05-.01,0-.02.01-.03.02,0,0,0,0-.01.01-.03.04-.06.07-.1.11-.02.03-.04.07-.07.1-.04.09-.09.17-.13.26-.06.14-.11.29-.16.43l-.22.9c-.06.39-.1.79-.13,1.19-.03.84-.03,1.68-.02,2.53.27,3.62.9,7.19,1.47,10.77,2.28,12,4.84,23.97,6.79,36.02.56,3.48,1.12,6.96,1.69,10.44.5,3.06.82,6.14,1.22,9.22.39,2.98.58,6,.88,8.99.33,3.21.48,6.46.72,9.68.91,12.36,1.81,24.73,2.27,37.13.45,12.45.56,24.91.31,37.37-.21,9.69-.51,19.39-.85,29.08-.32,9.38-1.24,18.7-2.01,28.05-.11,2.42-.17,4.84-.19,7.27-.03,3.05-.66,6.22-2.65,8.63-.43.52-.93.99-1.55,1.27-.11.05-.22.07-.32.07-.39,0-.76-.29-1.07-.51h0Z"></path><path d="M34.02,342.21c.15-7.47,8.94-7.47,9.09,0-.15,7.47-8.94,7.47-9.09,0Z"></path><path d="M67.79,347.97c-5.95-4.49-1.38-16.87-1.47-23.47,1.67-22.07,2.6-44.23,2.93-66.36.86-27.56.28-55.14-.84-82.69-1.29-18.87-4.15-37.76-2.8-56.69,1.72-8.79,10.96-4.25,8.85,3.3-.8,19.7,2.5,39.23,3.3,58.87,1.89,45.09.83,90.29-1.68,135.34-.4,7.64-1.42,15.22-2.05,22.84.16,3.63-1.33,10.77-6.25,8.86h0Z"></path><path d="M61.86,351.43c-2.81-.35-5.59-1.73-7.89-3.33-2.09-1.46-3.97-3.22-5.68-5.16-4.09-.95-8.36.08-12.43-.87-6.64-2.69-1.91-14.99,4.65-10.92,10.41-.38,21.35,2.93,29.61,9.29,2.96,2.99,2.31,9.03-1.8,10.65-2.03.76-4.35.6-6.46.34h0Z"></path><path d="M67.51,128.07c-8.86-3.13-15.61-10.62-22.64-16.61-2.83-2.44-5.77-4.82-8.97-6.78-1.17-.14-2.3-.81-3.05-1.89-3.44-4.72,1.49-12.63,7.02-8.35,11.24-1.8,18.96,13,26.85,19.93,1.69,1.75,4.06,2.82,5.26,4.99,1.87,3.39-.06,9.34-4.48,8.71Z"></path><path d="M142.46,361.28c-19.41-1.22-38.85-1.21-58.29-1.14-9.15-.27-18.67.34-27.48-2.44-4.74-2.15-9.01-5.26-13.34-8.15-1.62,1.91-4.38,2.12-6.12.2-3.75-4.03-.05-12.02,5.17-12.45,2.05,0,3.67,1.15,5.26,2.28,5.71,3.89,11.46,8.48,18.68,8.59,12.48.93,25.01.57,37.51.63,24.22-.03,48.39,2.35,72.56-.35,24.11-1.54,48.31-.42,72.37-2.63,26.62-4,53.05-9.3,79.97-11.05,35.96-3.67,71.46-5.87,107.33-9.51,19.36-2.5,38.6-5.9,58.02-7.81,24.37-2.42,48.91-2.18,73.36-3.36,12.26-.51,24.45-2.08,36.64-3.48,6.13-.68,7.1,10.11,1.34,11.24-35.64,5.17-71.72,3.79-107.54,6.58-21.09,1.98-41.98,5.74-62.99,8.39-38.75,3.62-78.74,6.51-117.16,10.31-25.11,1.87-49.62,8.22-74.65,10.57-11.87.95-23.81.85-35.72,1.06-21.68-.07-43.26,2.65-64.93,2.53h0Z"></path><path d="M604.01,323.32c-3.17-1.96-2.92-6.15-1.69-9.18,1.32-4.04,2.44-8.16,3.21-12.34,4.04-26.3,3.58-54.72-.85-80.69-5.31-20.9-4.41-42.36-5.38-63.73-1.06-18.19-3.45-36.43-3.2-54.63,1.23-12.44,16.06-5.45,8.89,3.64.57,13.64,1.67,27.26,2.67,40.88,1.84,18.11.61,36.41,2.64,54.47,5.28,24.05,8.09,48.55,6.65,73.16.13,12.24-1.18,24.42-4.12,36.31-1.62,4.23-2.1,14.85-8.82,12.12h0Z"></path><path d="M262.46,79.62c-3.87-10.49-.62-21.19-3.19-32.09-1-3.68-2.47-9.11,2.14-10.96-.12-7.5,7.68-11.09,9.87-2.63,8.45,2.59,31.07,5.88,22.98,19.07-1.67,5.05.85,19.67-6.65,19.25-6.92-1.83-2.37-16.78-2.11-22.22-4.92-2.29-10.24-3.42-15.46-4.81-.85,10.67.53,21.26,1.09,31.89.38,4.39-6.77,5.16-9.68.86l1.02,1.65Z"></path><path d="M398.53,73.71c-3.29-.67-4.18-4.56-3.74-7.43.06-7.24-.31-14.52-1.24-21.7-17.83-1.23-35.04-2.29-52.71-3.27-9.68-.76-19.21-3.32-28.97-2.78-14.15.99-28.94-.72-42.53,3.96-1.61,1.64-4.23,1.65-5.87-.12-10.14-16.84,32.57-14.16,41.31-14.94,12.65-1.18,25.07,1.14,37.59,2.66,10.46,1.01,22.17.66,32.31,1.82,7.05.42,14.13,1.66,21.19,1.18,8.06,1.05,6.55,12.4,7.52,18.38-.35,5.49,3.79,22.75-4.86,22.23h0Z"></path><path d="M294.06,55.7c-3.61,0-5.89-3.32-5.39-6.71.31-2.87,2.69-5.41,5.73-4.63,4.16.04,8.24-1.04,12.34-1.7,22.07-5.6,44.54-.41,66.85-2.27,9.18-.74,18.45-2.39,27.61-2.28,4.79,1.14,6.86,6.91,2.26,9.87-3.84,2.37-10.01,1.38-14.03,2.17-8.15.84-16.29,1.81-24.49,2.17-13.59.39-27.12-2.06-40.72-.83-10.13.74-20.02,3.96-30.16,4.23h0Z"></path><path d="M272.54,573.43c-1.23-3.18.12-7.64.19-10.66.74-13.01,2.09-25.95,2.99-38.93.55-38.72-2.41-77.48.89-116.17,0,.15-.02.3-.02.44.96-16.05,1.72-30.97,2.04-46.85.82-5.16-2.45-16.27,4.71-17.27,7.2.8,3.7,12.29,4.37,17.27-.29,28.06-3.24,55.99-3.67,84.04-.41,24.91,1.19,49.8.93,74.71-.66,15.6-2.65,31.17-3.44,46.75,12.15-2.83,23.81-7.72,36.26-9.42,9.73-1.26,18.36-1.8,27.84-3.44,15.05-2.08,31.59-5.41,44.87,4.13,1.55-34.4,3.58-68.49,5.06-102.84.77-29.05,2.8-58.03,6.38-86.86.33-6.2.43-20.93.46-27.15,0-2.84-.41-5.88,1.67-8.16,4.17-3.97,8.04,1.76,7.4,6.06.64,16.68-1.87,41.64-3.57,58.17-2.08,24.62-2.96,49.32-3.96,74-1.27,23.46-2.24,46.94-3.61,70.39-.34,6.35-.63,12.72-.87,19.09-.4,4.05.35,8.8-2.56,12.05-3.59,3.47-6.39-.29-8.58-3.17-7.61-6.29-17.5-7.68-27.01-6.25-15.84,2.18-32.08,3.79-47.75,6.24-6.96,1.42-13.76,3.46-20.51,5.63-6.37,2.13-16.64,6.09-20.49-1.8h0Z"></path><path d="M260.62,347.48c1.05,37.27.38,74.52-1.5,111.75-1.96,29.9-5.26,60-3.38,89.97,7.47,4.06,21.34,7.43,23.21,16.81.81,3.61-2.03,5.5-5.36,4.74h0c-4.68-1.7-8.43-5.57-13.17-7.4-4.27-2.21-9.96-3.16-12.48-7.68-2.76-8.23-1.64-17.3-1.74-25.88.14-12.02.47-24.04,1.25-36.04,3.44-42.44,5.28-85.03,4.41-127.61-.11-6.22-.31-12.44-.34-18.67"></path><path d="M231,569.64c-5.49-8.09-5.39-18.76-8.27-27.94-4.02-17.48-9.62-34.61-14.68-51.75,12.64,21.86,22.2,45.8,28.65,70.36,5.67,4.02.43,14.77-5.7,9.34h0Z"></path><path d="M219.51,582.61c-3.89-22.83-12.21-44.59-19.96-66.32-9.59-26.41-19.7-52.65-29.14-79.12,0-.03.03-.07.04-.03,17.61,35.06,35.45,70.22,48.58,107.25,3.44,9.54,6.06,19.4,8.15,29.32.65,4.17,3.09,10.43-2.01,12.71-2.61,1.03-5.04-1.27-5.66-3.8h0Z"></path><path d="M206.7,585.46c-4.96-4.88-7.25-11.92-10.33-18.04-8.51-18.38-17.02-36.76-24.98-55.39,8.71,12.66,17.23,26.1,25.04,39.53,5.26,9.35,10.53,19.07,15.59,28.14.71,1.53.67,3.4,1.25,4.9-.73,2.7-4.78,2.35-6.57.86h0Z"></path><path d="M219.55,612.04c-.39-15.41-4.55-30.77-5.68-46.03,2.44,7.21,20.23,48.64,9.18,50.4-2.19,0-3.58-2.4-3.5-4.38h0Z"></path><path d="M253.82,616c-3.65-3.15-4.25-8.41-5.51-12.82-3.47-15.3-4.84-30.95-6.02-46.56,0-.03.04-.05.05,0,4.76,15.59,8.58,31.43,13.11,47.09,2.23,4.59,1.56,9.43,2.98,13.24-1.23,1.51-3.5-.1-4.6-.95h0Z"></path><path d="M409.23,592.41c-8.56-5.39-3.97-31.46-2.75-40.57,4.26-26.3,15.15-51.18,31.68-72.06.03-.04.06,0,.04.03-14.85,27.68-22.75,58.44-24.61,89.44-.44,7.54.63,15.32-.06,22.65-.65,1.81-3.04,1.29-4.3.5h0Z"></path><path d="M423.22,590.31c-12.02-14.12,10.87-62.26,18.97-76.93-4.68,16.97-9.42,34.94-12.5,52.11-1.29,8.49-2.32,17.21-6.45,24.83,0,0,0,0-.01-.01h0Z"></path><path d="M438.14,579.28c-4.62-4.73-1.1-11.78.64-17.06,5.02-13.95,13.96-26.01,23.89-36.85-2.58,5.73-5.47,11.75-8,17.22-3.19,7.29-5.94,14.71-8.31,22.3-1.48,3.93-1.69,8.42-3.82,12.04-.79,1.05-2.75,3.67-4.4,2.35h0Z"></path><path d="M448.78,596.6c-9.38-5.53,6.86-24.51,12.73-28.31-2.49,8.17-5.78,16.44-7.63,24.89-.5,2.28-2.77,4.33-5.1,3.42h0Z"></path><path d="M377.42,617.13c-3.19-7.54-.66-16.71,3.43-23.47,1.74,7.97-.69,16.06-3.43,23.47Z"></path><path d="M315.37,610.71c-3.94-3.5-4.68-9.93-3.37-14.78,4.25,4.1,4.15,9.28,4.87,14.48.1.1.38.16.39.29-.73.47-1.13.41-1.88.01h0Z"></path><path d="M343.25,617.65c-3.21-6.16-3.34-13.6-1.76-20.24,1.9,3.69,3.38,7.99,3.88,12.22.6,3.36-.73,7.1.57,10.27.06.06.31.1.24.19-1.35.56-2.45-1.6-2.93-2.44h0Z"></path><path d="M396.63,630.75c-5.21-1.97-4.74-8.89-4.73-13.5.5-15.03,8.57-28.7,16.12-41.07-3.32,12.37-8.14,24.5-8.93,37.39-.55,5.54,1.53,11.31-.47,16.59-.2.71-1.37.75-1.99.58h0Z"></path><path d="M292.19,621.61c-1.51-1.75-2.68-3.76-3.64-5.86,1.52.45,3.18,1.49,4.62,2.38,3.21,1.98,5,5.46,7.71,7.96-3.25.5-6.61-2.09-8.69-4.48h0Z"></path><path d="M387.46,621.7c-4.07-6.51,10.16-9.31,14.55-9.47-.58.81-1.6,1.6-2.26,2.28-2.09,2-4.33,3.87-6.73,5.49-1.69,1.24-3.51,2.59-5.57,1.71h0Z"></path><path d="M288.87,188.56c-1.11-4.27,1.7-8.15,3.18-11.98,3.43-7.75,6.82-15.55,9.89-23.46-6.64,10.12-13.7,23.3-27.28,23.77-7.01,1.56-12.66,6.21-19.3,8.69-11.53,4.66-15.35-10.03-23.87-13.74,0,0,.14-.07.14-.07-1.57-.16-2.92.62-4.26,1.33-20.45,13.72-24.05,10.32-44.46.25-4.11-1.42-8.65-2.5-12.87-.89-11.06,5.57-19.7,12.29-29.18-.13-1.66-1.7-3.45-3.99-5.96-4.23-.07,0-.14,0,.14-.17-6.62,3.42-10.04,11.04-15.2,16.22-1.06,1.19-2.47,2.53-4.15,2.72-3.58.41-5.58-3.75-4.88-6.85.32-1.65,1.41-3.63,3.12-4.22,1.69-1.93,3.26-3.96,4.88-5.94,7.06-9.19,15.59-19.37,26.37-8.08,2.4,2.05,4.03,5.64,7.3,6.33-.13-.02-.26-.05-.39-.07-.12-.04-.25-.09-.37-.13,6.02.82,10.83-4.97,16.44-6.47,8.11-2.79,16.67.12,23.96,3.87,5.18,2.53,10.44,6.66,16.54,5.4,8.87-1.67,15.32-11.6,24.78-10.03,6.52,1.79,10.55,7.73,14.82,12.59.85.88,1.83,1.77,3.13,1.72,4.49-.73,8.25-3.68,12.26-5.66,5.12-3.16,11.18-3.48,16.75-5.15,13.28-10.89,19.3-28.18,29.51-41.68,1.65-2.85,5.73-5.26,8.21-1.97,5.55,7.88-10.24,41.85-13.89,51.43,4.96-5.68,12.4-3.96,19.01-4.87,9.8-1.36,17.89-5.63,24.52,4.55.4.32.82.62,1.34.7l-.11.08c.66.04,1.32-.03,1.31-.08,12.1-4.59,20.76-20.32,32.52-4.85,6.9-2.41,12.15-9.72,20.15-9.2,8.21.53,13.44,8.98,14.62,16.44-1.1-.59-2.3-1.55-3.5-2.17-18.26-13.12-26.5,18.04-39.68,1.04-6.68-7.36-21.84,22.64-35.13,3.92-2.37-2.7-6.08-.45-9.05-.23-5.36,1.13-10.78,1.69-16.24,1.56-7.22.19-19.73,22.35-25.15,9.69h0Z"></path><path d="M439.76,183.12c-2.98-4,.21-8.87,3.62-11.39,4.61-4.11,9.24-8.21,14.48-11.52,6.71-4.54,16.71-6.26,22.76.23,3.45,3.9,5.7,8.91,9.67,12.37-6.04,1.77-11.17-2.25-16.45-4.55-10.34-3.33-18.55,7.36-25.84,13.09-1.97,2.38-5.74,4.93-8.24,1.77h0Z"></path><path d="M527.31,179.34c-8.07-.2-9.28-9.75-15.02-13.35.14.08.28.16.41.24.01,0,.03,0,.17.09-3.37-1.69-6.82,2.26-10.04.17-2.28-1.54-2.57-4.78-1.53-7.14,3.79-6.92,15.23-5.9,19.63,0,3.55,3.57,4.61,11.17,11.03,7.85,8.47-4.06,18.27-6.29,27.42-3.63-3.99,1.95-7.85,4.11-11.48,6.2-6.48,3.74-12.6,9.91-20.59,9.55h0Z"></path><path d="M225.51,272.01c-.67-7.04,1.42-14.17,4.2-20.58-14.52,13.07-19.14-2.1-28.53,2.11-5.9,3.27-11.53,10.45-18.91,8.81-5.86-2.64-8.12-10.16-14.6-12.13-5.85-1.8-12.1,3.01-16.64,5.35-5.94,3.76-12.12,7.3-17.49,11.88-5.69,4.49-9.77-5.32-5.3-8.99,9.53-7.58,19.94-14.43,31.2-19.12,10.46-3.74,19.45,4.25,25.42,11.99,5.89-2.2,10.12-7.57,16.16-9.56,3.07-1.05,6.74-.48,9.65.73,2.93.98,5.7,3.45,8.93,2.8,1.29-.25,2.49-1.01,3.51-1.81,7.57-6.5,11.29-16.19,15.33-25.05,1.94-4.58,6.78-17.41,12.75-10.02,1.39,2.28,1.73,5.02,1.19,7.63-1.17,6.37-3.32,12.49-5.57,18.54-5.29,13.39-9.64,28.07-21.28,37.43-.01,0-.03-.01-.03-.03h0Z"></path><path d="M326.87,268.04c-3.03-2.07-3.09-6.11-1.66-9.16,2.22-7.14,5.05-14.17,6.25-21.58-8.07,6.31-15.79,13.1-24.13,19.05-2.25,1.52-5.06,4.57-7.89,2.55-3.09-2.01-2.84-6.96-.36-9.38,2.37-1.96,4.95-3.67,7.4-5.53,6.4-4.8,12.48-10.01,18.72-15.01,2.01-1.58,4.23-3.34,6.82-3.75,8.69-.72,9.56,10.5,7.88,16.76,4.72-6.32,8.83-13.07,13.32-19.57,2.17-3,4.22-6.71,7.83-8.15,16.09-2.59,2.1,29.3.43,36.53,0,0,.01,0,.02,0,.5.06,1.01.07,1.52.03-.23,0-.44,0-.67.02,6.84-1.24,12.36-6.05,18.21-9.49,2.62-1.76,5.57-3.68,8.85-2.76,3.11.88,5.24,3.67,7.24,6.04,3.39,3.52,8.07,5.7,11.71,8.85-7.44,3.21-15.73,2.75-21.14-3.74,0,0,0,0-.01,0-6.58,3.83-12.66,8.62-19.83,11.36-8.8,3.82-16.67-2.47-14.86-11.91,1.01-5.2,3.09-10.09,4.6-15.15-5.22,8.05-10.72,15.89-16.65,23.43-3.05,2.96-8.83,13.95-13.6,10.56h0Z"></path><path d="M447.53,263.47c-3.09-.38-4.59-3.93-3.93-6.72.35-2.15,1.85-3.68,3.56-4.89,3.39-2.74,6.65-5.66,10.16-8.25,6.47-4.82,16.44-13.17,23.96-5.77,1.72,1.91,2.58,4.57,4.75,6.07-.06-.03-.13-.07-.15-.07-.02-.01-.03-.03-.05-.04-.13-.07-.26-.15-.39-.22,11.31,6.03,29.31-31.21,37.61,3.43,6.24-3.5,11.31-9.04,18.3-11.2,14.44-4.07,28.87,4.1,40.11,12.53-12.44,1.63-24.83-2.77-36.75-1.91-9.4,1.69-15.21,13.64-25.31,12-5.3-2.12-4.72-8.85-6.68-13.27,0,0,.04-.1.04-.1-3.01-7.95-23.49,26.62-37.75,1.34.03.01.07.02.08.02.01,0,.03.02.03,0-.48-.16-.8-.23-1.25-.27.12.02.23.03.22.06.05,0,.09,0,.14,0,.1.02.21.04.31.05-7.14.81-12.43,7.35-18.13,11.28-2.84,1.79-5.35,5.95-8.9,5.91h0Z"></path><path d="M530.28,308.87c-4.22-.56-5.93-6.53-2.84-9.39,1.23-1.55,3.1-1.96,4.98-1.97,3.59-.36,7.13-1.13,10.71-1.63,4.92-.8,9.8-1.15,14.6-2.18,3.27-.76,6.54-1.76,9.96-1.51,2.93.12,6.09.77,8.59,2.19-4.42,5.16-10.18,9.27-16.99,10.41-9.55,1.63-19.31,3.33-28.99,4.08h0Z"></path></g></svg>