<svg id="Calque_1" xmlns="http://www.w3.org/2000/svg" version="1.1" viewBox="0 0 362.34 409.33"><defs><style>
      .st0 {
        fill: #fff;
        stroke: #000;
        stroke-miterlimit: 10;
      }
      .st1 {
        fill: #abcf10;
      }
    </style></defs><polygon class="st0" points="21.85 202.53 129.86 205.42 128.44 294.81 120.75 368.56 199.14 371.02 220.4 353.54 222.82 305.36 233.78 266.15 248.74 213.4 321.57 221.11 327.63 213.55 335.35 124.59 344.48 61.96 252.84 61.96 168.75 59.4 81.83 51.05 48.77 51.05 35.22 61.96 31.32 106.34 21.85 202.53"></polygon><g><path class="st1" d="M132.01,386.83c-11.24-.92-21.13-8.57-32.37-9.02-8.13-.02-22.51,4.58-27.11-4.36-2.68-7.55,4.08-14.55,8.92-19.6,4.71-4.2,9.53-9.87,16.23-10.35,7.94,1.28,14.82,6.44,22.98,7.09,2,.2,3.15.3,4.75-.66,2.75-.83,4.68,2.71,3.81,5.05-1.19,3.24-5.4,3.29-8.3,3,.24.25.46.53.64.86.69,1.23.85,2.87.42,4.27,8.17.28,17.25-1.23,24.11,4.33,12.83,12.33-.24,21.93-14.08,19.39h0ZM142.24,373.36c1.06.48,1.79,1.41,2.09,2.53.14.49.2,1.04.17,1.6.2-.15.4-.31.59-.47.04-.05.09-.1.13-.15-.45-2.38-2.73-3.93-4.8-4.85.03.26.03.52.02.79.62.1,1.21.3,1.8.56h0ZM82.43,371.41c-.69-.13-1.26-.39-1.89-.76-.72-.42-1.58-1.19-2.01-2.04-.15.31-.3.62-.44.94-.07.18-.13.36-.19.53.02-.06.03-.13.05-.19.03-.06.05-.12.08-.29-.08.24-.14.49-.19.73,1.17.84,3.12.98,4.59,1.08h0ZM91.77,354.04c2.82-.54,5.4-2.05,8.26-2.65-3.02-1.39-5.89.97-8.26,2.65Z"></path><path class="st1" d="M196.8,387.35c-1.9-.19-3.06-1.98-3.11-3.78-.05-1.3.57-2.82,1.75-3.39-.19-.4-.32-.83-.39-1.26-.09-.12-.18-.23-.26-.36-1.27-.41-2.54-.83-3.82-1.24-2.31,5.39-9.78-.06-12.99-2.03-2.89-.69-5.74-1.56-8.61-2.34,1.98-.85,4.35-1.35,6.52-1.84-.32-3.1,2.79-4.61,5.48-3.73,4.86.77,9.51,2.34,14.16,3.91,3.52-3.61,8.3-5.68,12.51-8.38,3.11-4.38,13.04-15.3,18.17-8.9,2.17-.54,4.38.23,6.18,1.41,7.58-2.77,15.95-3,13.17,7.68-.88,4.41-1.4,9.15-4.83,12.46-4.87,5.04-12.2,6.83-18.97,7.45-6.92,5.37-16.66,4.63-24.96,4.34h0Z"></path><path d="M194.18,78.43c-21.85-.85-43.63-4.73-65.18-7.97-16.12-2.26-32.3-3.86-48.52-5.21-11.47-.8-22.89-2.53-34.41-2.06-2.52.55-4.96,1.53-7.61,1.27-4.54.43-6.11-4.5-3.71-7.79,3.09-3.85,7.94-6.05,12.38-7.98.9-5.6,6.31-2.55,9.97-2.22,11.01,1.25,22.17.07,33.15,1.83,10.45,1.39,21.03,1.26,31.48,2.7,13.07,1.16,26.24,1.11,39.16,3.75,13.47,2.06,27.2,1.28,40.63,3.83,15.22,2.03,30.62.44,45.92.38,23.39-2.13,46.95-3.44,70.39-1.29,7.03.96,14.17,1.89,21.25,1.84,4.12,1.64,1.51,6.91-.5,9.35-2.22,2.96-4.25,6.14-6.75,8.86-1.01.81-2.54,1.2-3.57.15-9.22-1.74-18.69-1.38-28.03-1.6-15.19-.24-30.35.56-45.5,1.38-20.16.66-40.36,1.21-60.53.77h0ZM203.73,71.25c16.27-.12,32.55-.26,48.8-.82,25.64-1.12,51.6-3.15,77.14.11-.03.04-.05.07-.08.11.98-1.31,1.98-2.61,2.96-3.94-19.78-2.31-39.68-3.55-59.61-2.37-8.29.27-16.5,1.42-24.78,1.89-12.93.38-25.92.9-38.85.54-12.62-1.14-24.94-3.38-37.61-3.39-10.08-.58-19.93-3.01-30-3.74-14.16-.39-28.18-2.39-42.31-2.99-7.85-.54-15.61-1.94-23.49-2.08-8.24-.25-16.57.19-24.65-1.65-.49.57-1.02,1.1-1.59,1.59-.59.51-1.23.94-1.9,1.32,6.32-.01,12.66-.07,18.92.8,15.88,1.5,31.78,2.57,47.62,4.47,29.8,3.37,59.32,10.21,89.43,10.15h0Z"></path><path d="M32.26,78.71c-1.75-3.74-.92-8.21,1.45-11.49,1.2,3.74.42,8.1-1.45,11.49Z"></path><path d="M18.73,205.77c-.94-1.77-.52-3.85-.41-5.77.36-7.59.17-15.19.46-22.79.81-12.44,3.34-24.8,5.38-36.81,2.77-16.08,3.63-32.42,6.86-48.43,1.24-7.14,2.01-14.83,1.46-21.73-.33-3.29-.66-6.57-1.21-9.84-.73-2.11.21-4.63,2.33-5.44,4.64-1.2,3.91,7.92,4.56,10.75,2.13,15.5-2.56,30.63-4.21,45.92-1.88,21.94-7.14,43.2-9.16,65.02-.33,8.47-.05,16.98-.62,25.45.27,2.88-3.03,7.33-5.45,3.67h0Z"></path><path d="M312.63,224.1c-29.3-2.14-58.39-6.36-87.57-9.53-22.64-1.39-45.31-2.25-67.98-2.93-24.55-.87-48.98-3.73-73.5-4.96-21.22-.41-42.47.91-63.66-.85-4.01-.48-3.02-7.49.82-7.35,22.68,1.95,45.45.09,68.16,1.07,18.54,1.12,37.04,3.03,55.59,4.06,36.07,2.14,72.41,1.25,108.2,6.85,20.45,2.47,40.92,4.69,61.45,6.35,1.86.15,3.93,1.5,4.39,3.41.24,2.78-3.56,4.25-5.89,3.89h0Z"></path><path d="M313.4,217.8c-1.27-14.33-2.49-28.92-1.68-43.38,1.17-20.53,4.45-40.94,8.64-61.06,1.81-8.82,3.04-16.83,4.22-25.61.77-3.21-.17-8.47,3.86-9.53,3.03-.22,4.03,4.06,2.6,6.22-3.9,30.9-12.46,61.19-13.43,92.46-.65,11.99.75,23.97,1.39,35.85.07,1.57.13,3.16-.45,4.65-1.04,2.96-3.88,4.06-5.15.38h0Z"></path><path d="M313.19,222.5c3.13-2.52,6.85-4.49,10.19-6.8,3.53-17.6,2.11-35.41,3.61-53.16,1.36-14.06,4.74-28.76,7.15-42.44,2.67-17.89,6.43-35.76,7.26-53.85-.9.71-1.8,1.4-2.65,2.17-.62,1.45-2.3,2.63-3.87,1.94-1.79-.79-1.99-3.05-1.47-4.68.94-2.78,3.71-4.26,5.85-6.05,2.71-2.43,6.38-3.6,7.69.89,1.47,9.16-.68,18.59-1.87,27.7-2.64,19.94-6.3,39.71-10.03,59.47-3.79,19.18-2.09,38.79-4.18,58.15-.6,4.62-.78,9.53-2.64,13.83-3.21,4.71-10.17,4.44-15.02,2.82h0Z"></path><path d="M127.82,207.63c.54-4.63,6.36-4.77,5.97.27-.54,4.63-6.36,4.77-5.97-.27Z"></path><path d="M198.06,374.54c-5.2-1.78-10.73-2.23-16.17-2.72-6.58-.46-12.98-2.17-19.49-3.1-12.02-1.26-28.78-5.63-39.03,2.59-.5,1.02-1.42,1.92-2.57,2.08-9.92,1.43,3.15-63.13,3.33-71.45.9-10.32,1.94-20.65,2.27-31.01-.15-19.9-.78-39.85,1.78-59.6.4-2.01.57-4.15,1.68-5.92,1.61-2.43,5.06-1.77,5.44,1.2.91,2.47,1.57,6.16-1.49,7.4-2.9,23.01-.4,45.37-2.05,68.28-.93,15.91-3.18,31.64-5.43,47.4-1.59,11.05-3.51,22.14-3.04,33.34,12.83-6.66,27.82-3.2,41.45-1.47,4.05.61,8.06,1.44,12.09,2.19,6.55.92,13.19,1.06,19.65,2.61.2-12.62.52-25.31,2.52-37.8,1.24-7.87,2.69-15.55,3.71-23.38,4.2-29.94,5.82-60.43,12.19-89.97.46-2.17.75-4.91,2.79-6.24.82-.54,1.8-.74,2.58,0,2.45,2.68.39,6.47,0,9.55-.83,4.02-1.58,8.04-2.35,12.07-1.85,13.08-3.73,26.18-5.01,39.34-1.51,13.97-3.11,27.94-5.16,41.84-1.23,8.68-3.13,17.15-3.92,25.85-.75,7.29-1.1,14.61-1.24,21.93-.03,3.56-.3,7.16-.05,10.71.46,2.41-1.94,5.61-4.49,4.26Z"></path><path d="M196.66,380.55c-4.44-1.53-2.08-7.27.23-9.74,5.76-6.82,12.96-12.27,19.35-18.48-1.89-28.81,5.42-57.2,13.62-84.59,4.47-13.26,5.63-27.33,10.22-40.54,1.36-4.11,2.99-8.13,3.93-12.36.34-1.5.46-3.02,1.76-4.08,3.13-2.45,5.25,1.66,4.22,4.51-1.39,6.69-4.18,12.97-6.12,19.51-2.2,7.4-2.92,15.14-4.96,22.57-8.54,30.33-18.72,61.13-16.72,93.05,1.5,1.69.94,4.47-.7,5.85-6.91,6.75-14.82,12.59-21,20.05.19,2.06-1.56,4.76-3.84,4.23h0Z"></path><path d="M215.55,380.04c-3.71-.89-2.49-9.87,1.18-10.11,9.15-16.92,20.79-32.57,32.89-47.34-7.26,13.04-14.8,25.92-21.88,39.07-1.69,3.12-3.24,6.34-4.94,9.46-1.82,2.65-3.37,9.35-7.25,8.92h0Z"></path><path d="M223.41,388.27c-2.48-8.1,3.44-15.51,6.9-22.4,7.29-12.47,16.87-23.34,27.32-33.26.01-.01.03.01.02.03-8.27,11.44-16.11,23.2-22.63,35.73-3.78,6.65-5.58,14.84-11.61,19.9h0Z"></path><path d="M108.25,372.05c-.96-9.26-3-18.33-5.31-27.35-3.01-12.17-5.1-24.54-6.78-36.96,2.47,7.49,4.84,15.21,7.27,22.77,4.1,13.54,10.69,26.58,10.33,40.86-.51,3.02-4.57,4.13-5.5.68h0Z"></path><path d="M121.22,376.21c-2.95-1.55-1.26-5.26-.47-7.65,3.67-12.32,12.25-22.17,20.19-31.97,5.67-6.97,11.46-13.83,17.37-20.59.01-.02.03,0,.02.03-9.35,15.98-21.07,30.96-29.41,47.33-1.03,2.45-1.88,4.92-2.68,7.45-.67,2.33-1.83,6.51-5.03,5.4h0Z"></path><path d="M165.9,379.08c-3.06-2.85-.82-7.52-.15-10.98,2.62-9.96,5.5-19.86,8.64-29.65-.97,9.95-2.48,20.14-4.52,30.02-.76,3.72-1.21,7.77-3.96,10.62,0,0,0,0,0,0h0Z"></path><path d="M90.52,365.41c-4.48-1.74-4.93-7.17-6.61-11.1-3.14-8.61-7.49-16.64-11.09-25.02,6.2,7.29,22.12,26.25,17.71,36.12,0,0,0,0-.01,0h0Z"></path><path d="M89.76,374.8c-4.02-8.66-5.72-18.23-8.42-27.35-2.59-9.19-5.24-18.35-7.78-27.56,4.64,8.96,9.07,18.08,12.74,27.53,3.02,7.48,5.2,15.29,8.46,22.65.59.98.95,2.07.93,3.22.19,3.79-4.92,6.09-5.93,1.52h0Z"></path><path d="M93.84,375.64c-3.4-4.88,1.01-10.79,1.44-15.99,1.85-11.38-.76-22.86-1.14-34.28,0-.02.03-.04.03-.01,3.99,15.99,11.17,35.88-.32,50.29,0,0-.01,0-.01,0h0Z"></path><path d="M111.66,372.88c-4.99-2.92-2.84-10.4-.37-14.35.34,2.17.61,4.37.49,6.57-.23,2.74-.98,5.2-.11,7.78,0,0,0,0,0,0h0Z"></path><path d="M134.52,380.69c.88-7.45,6.4-13.65,10.94-19.17-2.77,7.54-6.86,14.78-7.81,22.85.01.61.15,1.24.21,1.8-2.62-.35-3.31-3.25-3.35-5.48Z"></path><path d="M147.61,389.4c-4.48-6.21,7.53-17.43,11.6-21.82-.91,2.01-2.06,4.14-3.08,6.17-2.37,4.51-4.91,8.95-6.21,13.91-.29.73-.77,1.41-1.04,2.13-.45.17-.94-.1-1.27-.39h0Z"></path><path d="M179.46,391.07c-5.23-4.17,13.85-13.7,17.32-14.27-3.78,3.92-8.19,7.64-13.08,10.21-1.55.96-6.27,2.54-2.83,4.07.03,0,.04.05.01.05-.42,0-1.03.03-1.42-.06Z"></path><path d="M229.38,387.22c-3.19-10.54,23.76-20.17,31.3-23.67-6.86,5.24-14.09,9.99-20.98,15.18-3.66,2.58-6.12,6.68-10.3,8.49,0,0,0,0-.01,0h0Z"></path><path d="M75.96,368.78c-.98-3.56-3.02-6.52-5.58-9.19-2.72-2.94-5.23-6.05-7.87-9.05,6.6,2.69,20.2,8.28,17.78,17.35-.48,1.9-3.3,2.91-4.32.88Z"></path><path d="M97.94,385.18c-2.65-.64-3.42-3.76-5.14-5.57-3.9-4.78-8.42-9.09-12.46-13.72-.26-.34-.71-.66-.86-.99,4.44,2.15,8.78,4.56,12.77,7.45,3.38,2.8,8.04,6.2,7.9,11.03.16,1.23-1.07,2.04-2.22,1.8h0Z"></path><path d="M58.9,109.43c-.97-.34-1.68-1.48-2.04-2.38-.31-.78-.4-1.61-.35-2.46-2.14,1.07-4.5,3.29-6.96,3.07-3.04-.95-2.73-5.81-.02-7.01,3.59-1.57,6.8-3.87,9.84-6.32,3.17-8.1,5.15-17.37,11.18-23.89,2.22-2.3,6.29-1.46,7.31,1.61.88,2.37.73,4.8.19,7.23-2.16,7.83-8.06,14.09-13.88,19.49-.36,1.1-.71,2.21-1.05,3.31,4.05-1.29,7.2-4.6,9.32-8.15.92-1.22,2.47-2.09,3.91-1.13,2.49,1.81,1.01,4.76-.03,6.88,6.8,3.95,13.65-8.74,20-10.32,6.1-2.1,8.01,5.59,7.71,10.21,4.33-1.95,7.94-5.14,11.77-7.88,5.14-4.09,8.78-4.54,10.99,2.46,4.53,1.82,9.28-3.17,14-2.42,5.28,1.2,6.19,8.3,7.89,12.6-1.26-.4-2.59-1.22-3.8-1.91-2.15-.94-3.62-3.97-6.19-3.34-6.05,2.08-15.59,6.28-17.99-2.68-5.26,2.68-17.92,16.79-22.33,7.64-.81-2.45,0-5.18-.88-7.64-4.72,2.17-7.81,6.81-12.37,9.27-4.12,2.54-10.43,3.63-13.56-.91-3.36,2.87-8.06,6-12.67,4.69h0Z"></path><path d="M204.43,151c-4.63-3.99,3.82-14.83,5.63-19.38,5-9.13,10.57-17.94,15.6-27.05-5.93,1.32-11.75,3.21-17.73,4.28-1.66.26-3.69.15-5.18-.68-2.5-1.13-2.02-4.6-4.26-5.83.05.02.1.03.16.05,0,0,.01,0,.26.08-1.57-.61-3.21.29-4.69.81-4.03,1.61-8.03,3.31-12.04,4.99-5.1,1.83-10.58,5.15-16.08,4.89-1.52-.42-3.02-1.53-3.34-3.15.5-2.48,3.51-3.78,5.84-4.23,7.42-2,13.68-5.18,20.66-8.03,6.91-3.12,13.59-5.41,16.61,3.75,7.4-.27,14.54-3.45,21.82-4.79,1.46-.37,3.31-.77,4.54.38,3.64,4.04-.88,9.18-2.76,13.01-4.63,8.26-9.55,16.23-13.98,24.25,6.2-6.58,27.54-34.23,35.13-34.22,9.56,4.31,20.69-5.98,29.57,1.02-3.12,2.74-6.89,4.84-11.1,5.18-5.32.65-10.53,3.06-15.95,2.18-1.52-.03-3.09-1.76-4.38-.42-7.86,6.53-14.56,14.31-21.27,21.98-4.16,3.88-17.94,24.02-23.07,20.94h0Z"></path><path d="M46.31,170.21c-1.66-2.16-.35-6.04,2.46-6.32.28-.07.53-.22.78-.35,3.84-2.37,7.04-5.61,10.41-8.59,5.06-4.35,9.91-9.01,14.98-13.3,8.32-2.53,2.5,12.67,2.19,16.55,4.49-1.22,7.83-4.19,10.33,1.69,2.35,2.86,6.8,1.95,10.1,2.58-3.75,4.14-11.92,7.92-15.45,1.48-3.29,1.08-8.12,3.64-10.45-.32-1.9-3.36.09-7.31.53-10.84-3.81,3.37-7.67,6.68-11.42,10.12-2.98,2.25-10.87,11.13-14.46,7.29h0Z"></path><path d="M89.4,180.09c-3.81-3.53.66-8.18,2.84-11.3,2.31-3.22,4.43-6.57,6.57-9.91,1.33-1.85,2.29-4.26,4.34-5.44,3.93-1.69,4.8,3.02,2.95,5.58,1.11-.71,2.32-1.22,3.64-1.43,1.89-.42,3.41.82,5.13,1.24,13.58-1.21,25.66,5.57,37.26,11.71-10.17.28-20.36-2.62-30.42-4.27-3.92-.51-8.07.8-11.66-1.37,0,0,.03-.02.03-.02-4.49,1.48-7.74,5.99-11.09,9.13-2.4,2.07-6.01,7.81-9.58,6.08h0Z"></path><path d="M184.33,172.08c-1.01-4.06,3.08-5.44,6.15-6.39,2.7-1.02,5.38-2.07,8.08-3.07,7.77-3.18,12.26-4.16,19.9.05,12.5,2.54,20.01-4.85,32.98,3.25,3.54,1.86,7.2,3.93,10.41,6.17-6.15-.45-12.21-1.62-18.29-2.6-7.26-1.18-14.41,1.35-21.67,1.18-5.58.52-10.05-4.65-15.53-3.27-6.07,1.8-11.92,4.32-17.88,6.47-1.65.98-3.69.21-4.17-1.79h0Z"></path><path d="M273.85,205.4c-4.42-.04-8.85-.19-13.26-.44-2.42-.51-5.84.33-7.21-2.25-.96-1.63-.26-3.78,1.15-4.88,2.14-1.51,4.74-.08,7.12-.21,8.76.63,17.72-.28,26.23,2.33,3.07.88,6.24,2.31,8.93,3.88-7.65.69-15.33,1.71-22.96,1.57h0Z"></path></g></svg>