<svg id="Calque_1" xmlns="http://www.w3.org/2000/svg" version="1.1" viewBox="0 0 349.36 492.41"><defs><style>
      .st0 {
        fill: #a7c42d;
      }
      .st1 {
        fill: #c5d67f;
      }
      .st2 {
        fill: #151516;
      }
      .st3 {
        fill: #b2c857;
      }
      .st4 {
        fill: #eff2d9;
      }
      .st5 {
        fill: #e7edc8;
      }
      .st6 {
        fill: #d9e1b5;
      }
      .st7 {
        fill: #a6c527;
      }
      .st8 {
        fill: #222819;
      }
      .st9 {
        fill: #bed167;
      }
      .st10 {
        fill: #d1dd9a;
      }
      .st11 {
        fill: #eaefd0;
      }
      .st12 {
        fill: #fff;
      }
      .st13 {
        fill: #e5ecc6;
      }
      .st14 {
        fill: #b3cc49;
      }
      .st15 {
        fill: #161c10;
      }
      .st16 {
        fill: #e0e8b7;
      }
      .st17 {
        fill: #e7ead0;
      }
      .st18 {
        fill: #d3dda1;
      }
      .st19 {
        fill: #1d1e1e;
      }
      .st20 {
        fill: #2b3418;
      }
      .st21 {
        fill: #131413;
      }
      .st22 {
        fill: #1d2513;
      }
      .st23 {
        fill: #f4f5e4;
      }
      .st24 {
        fill: #c5d877;
      }
      .st25 {
        fill: #bcd164;
      }
      .st26 {
        fill: #cbdb86;
      }
    </style></defs><polygon class="st12" points="22.21 234.4 121.13 98.84 154.17 57.69 193.1 32.21 215.18 32.21 242.69 63.89 281.76 139.07 312.86 219.8 325.53 282.54 310.39 295.21 283.81 300.15 206.09 284.02 198.6 406.9 177.1 418.06 123.64 402.5 125.32 267.27 53.27 252.32 27.21 242.22 22.21 234.4"></polygon><g><path class="st21" d="M122.14,351.08c.45-16.83,1.31-33.77-.05-50.51l2.04-26.46c-3.73,2.13-6.95-1.02-10.54-1.94-20.83-5.35-76.32-16.64-90.88-30.05-7.25-6.68-2.1-11.62,2.1-17.87,20.83-31.01,45.22-60.08,67.74-90.18,14.42-19.28,26.84-39.95,42.61-58.34,18.94-22.1,63.42-67.93,91.89-36.98,16.96,18.43,28.94,42.76,39.86,65.09,17.93,36.67,34.47,72.37,46.38,111.54,6.44,21.16,11.43,42.55,15.81,64.25-.4,13.71-27.43,21.69-38.65,23.39l-80.36-10.91c-1.14,9.8-1.18,19.65-1.05,29.54.33,24.23,2.45,42.97-1.95,67.42-1.3,7.2-4.44,14.32-5,19.99l-24.78,12.79c-1.29.65-2.47-.69-3.21-.79-1.73-.25-3.3-.6-5-1-10.97-2.56-26.36-6.56-36.98-10-2.89-.94-7.16-3.5-9.99-5-1.8-4.49-.58-9.37-1-13.99-.37-13.35.65-26.66,1-39.98h0ZM296.8,292.89c.82-1.43.14-4.31-.06-6.02-3.85-34.09-20.04-82.84-30.43-116.49s-25.75-84.23-43.82-113.1c-2.56-4.09-16.46-22.05-20.1-22.92-3.01-.72-12.26,3.68-15.31,5.32-49.89,26.77-76.92,83.49-109.5,127.38-16.85,22.7-34.23,42.4-50.38,66.36-.44.66-1.24.78-1.98.72-.39,1.5.21,1.6,1.04,2.42,8.92,8.83,39.13,12.79,51.94,16.02,66.95,16.86,132.52,32.1,201.08,40.78,3.87.49,14.87,4.18,17.53-.48h-.01ZM302.03,294.1l17.5-8.98c3.12-5.08-3.43-37.4-5.19-44.81-13.82-58.03-38.37-114.85-69.1-165.78-7.03-11.64-13.12-22.32-23.26-31.71-3.46-3.21-8.28-7.4-12.89-8.59,6.15,4.95,13.17,12.31,17.19,19.28,22.57,39.19,37.04,87.31,50.27,130.65,7.33,24.02,14.2,48.25,19.16,71.79,2.65,12.58,7.2,25.09,6.33,38.15h-.01ZM175.1,415.05l6.89-128.37-50.77-10.49c-3.49,2.41-3.76,71.54-4.05,81.43-.07,2.37-1.02,4.55-1.08,6.91-.32,11.61.53,23.25-.77,34.83l2.56,2.44,47.21,13.24h0ZM198.78,288.45c-1.31-.42-10.3-1.72-10.69-1.35l-5.99,124.95,14.02-6.67,5-57.76,1.02-56.94c-1.9-.06-3.17-2.17-3.37-2.24h.01Z"></path><path class="st23" d="M218.08,389.06c.51-3.74,5.48-3.33,4-8,1.41-1.66,12.29,8.6,13.67,10.31.59.73.03,2.58.62,3.38.54.73,7.27,8.39,7.71,8.79,2.23,1.98,4.99.99,7.18,1.82,19.91,7.52,16.21,33.4-3.09,37.81l-.15,3.83-6.95,2.05c.15-2.86-.21-9.68-3-10.48l1-1.52c2.89-.48,6.42-.78,8.99-2,.35-.03.77.09,1,0,1.46-.59.08-2.14.58-3.03.64-1.13,2.86-.62,3.2-4.73.5-6.15-1.65-8.31-5.39-12.29l-4.86,2.09-2.52-3.03c.55-.8,2.55-4.44,1.99-4.99-1.34-.29-1.98.39-2.99.99-1.39-6.29-2.15-12.37-8.99-14.99-.37-3.01-.68-5.94-4.02-7.48-4.14-1.91-5.29,1.38-7.97,1.48h0Z"></path><path class="st4" d="M99.15,361.07l1,2c-.47-.02-1.73,1.54-2.72,1.75-1.73.37-3.57-.05-5.03.52-.38.15-5.55,5.38-5.74,5.73-2.16,4.06,2.38,2.66,3.3,5.67,1.76,5.69-2.2,5.71-1.83,10.28-5.65-.68-11.52,3.12-9.95,9.32.17.66,1.49.68,1.63,1.03.96,2.3,1.99,8.31,6.34,7.67,1.28,3.44,1.49,1.4,2,2,.34.4.05,1.85,1.57,2.91s2.93.77,4.43,1.09c-1.28,3.59,1.35,4.71,2,6,1.74,3.45,2.63,5.13,7.31,3.97.4-.1,2-4.11,4.7-1.37.19.33-.19.98-.02,1.4-2.28-.51-1.41,1.82-3.43,2.07-6.92.86-9.87-.47-14.25-5.44-.51-.58-.11-2.18-.42-2.46-.71-.62-3.67.52-5.99-1.57-1.41-1.27-1.43-3.16-2.31-4.21-2.38-2.84-5.38-5.6-7.57-8.91.44-2.27,3.07-1.47,2-5.48-9.72,1.48-12.75-8.01-8.09-15.35l8.09-.64c-1.52-6.89,2.42-6.51,5.43-10.06,1.41-1.66,2.49-5.58,2.75-5.77.7-.52,2.37.12,3.01-.23,1-.54.86-1.76,1.5-1.91,1.97-.48,7.87-.2,10.3-.03v.02Z"></path><path class="st13" d="M114.14,427.04c.48,5.92.77,2.71,2,4,.52.54-1.3,1.52,2,2,.46.87,1.3,3.64,2.73,3.95,3.74.8,4.8.81,5.26-1.95,1.15.2,2.31-.38,3.72.28.34.16,5.14,4.86,5.34,5.18,1.82,2.9.36,6.17,6.43,6.63,2.47.19,4.53-1.15,5.92-1.11.42.01,4.48,5.11,6.57,5.02,1.57,6.46,4.26,5.46,9.99,6,2.14,4.13,1.75,6.22,6.69,7.87.66.2,3.27-2.69,5.3-2.87.64-.06,1.35-.03,2,0,.27.01,4.95.95,5.26,1.05.53.17,5.05,3.9,5.41,3.97,1.73.35,3.64-.77,5.31-1.02v1c-2.13,2.89-1.75,5.38-7.31,3.97-.6-.15-1.26-3.35-4.68-1.98v4.01c-2.1-.23-4.53.33-6.54.06-1.9-.26-5.3-5.84-6.18-6.03-4.02-.86-8.68-1.2-12.57-2.06-5.21-1.15-20.81-12.7-25.42-15.93-1.68-1.18-8.01-4.17-8.96-6.31-.56-1.25-.06-3.42-.33-3.69s-2.44.23-3.69-.33c-.38-.17-5.82-5.56-5.97-5.95-.76-1.96.1-4.99-.3-5.75h2.02Z"></path><path class="st1" d="M230.07,395.06c.21,1.66-.41,3.79,0,5.31.48,1.76,1.98-1.17.99,2.68-2.86.47-6.63,9.51-7.15,9.84-1.04.67-8.79,0-11.25.24-2.24.21-4.45,1.88-6.58,1.92-.21,0-1.81-1.12-4-1,.11-1.65-.16-3.36,0-5,.56-5.67,3.7-12.79,5-19.99h1c-.56,3.96,5.68.34,7.5,3.99l1.49-3.99c.16.08.68.01,1,0,2.68-.11,3.83-3.39,7.97-1.48,3.34,1.54,3.65,4.47,4.02,7.48h.01ZM228.07,394.07c-1.69-1.57-6.79,6.33-8.05,7.43-2.02,1.75-5.98,2.96-7.4,4.6-2.4,2.77-2.48,7.31,1.75,3.7,5.44-4.64,11.54-8.42,13.7-15.73Z"></path><path class="st17" d="M99.15,361.07c4.11.3,2.29,2.26,5.99,2.01-1.03-6.99,7.1-6.52,9.17-11.82l5.3,1.87,2.53-2.06c-.35,13.33-1.37,26.63-1,39.98-.28-3.08-1.54-7.7-2-11-.01-.07.73-.63.64-1.29-.97-7.06-4.83-11.33-3.64-18.69-3.37-1.02-2.25,5.22-3,6-2.27-1.53-4.78-.67-6.99-1.01-2.35-.36-5.68-1.99-6-2l-1-2h0Z"></path><path class="st11" d="M240.06,451.03c-1.42,3.09-1.24,1.31-2,2-.11.1.45,1.75-.66,2.04-2.71.69-8.23-1.23-12.57.04-1.1.32-2.6,3.7-3.48,3.89-5.18,1.11-8.78,2.81-13.81,3.99-1.8.42-4.12-.4-5.84.18-1.42.47-1.29,2.8-2.2,2.91-.75.09-2.41-1.12-3.4-1.04-1.64,2.77-1.89,1.85-2,2v-1c.16-.02.8-.9,2-1,.72-1.21,1.95-2.5,1.99-2.68.89-4-1.87-6.41,3.01-9.32,1.65-.05,3.35-.05,5,0,1.94.06,4.72-.41,6.34,0,.82.21.57,2.05,1.17,2.04,1.44-.05,2.36-1.73,4.02-2.01,4.07-.68,10.02.12,14.46-.03,1.3-.04,5.57.26,6,0,.15-.09-.43-2.78,2-2h-.03Z"></path><path class="st5" d="M111.14,417.05c.61,2.1,1.44,2.46,2,6,.07.46.52.89,1,1,.05.99-.08,2.01,0,3h-2c-.28-.53-2.55-2.49-4-6-.17-.41.21-1.07.02-1.4-2.7-2.74-4.3,1.27-4.7,1.37-4.68,1.16-5.57-.52-7.31-3.97h14.99Z"></path><path class="st5" d="M239.06,437.04l-1,1.52c2.79.8,3.16,7.62,3,10.48-.05.99-.73,1.41-1,2-2.43-.78-1.85,1.91-2,2-.43.26-4.7-.04-6,0-.81-3.98,2.43-6.73,5.98-6.01l.02-6c-.75-.75-7.01,1.73-4-1.99.98-.1,2.01.11,3,0v-2c.87-1.41,1.89.02,2,0Z"></path><path class="st23" d="M217.08,389.06l-1.49,3.99c-1.82-3.66-8.06-.03-7.5-3.99,2.57,1.02,4.86-1.95,6.54-2.03,1.8-.08,2.17,1.88,2.46,2.03h-.01Z"></path><path class="st1" d="M103.15,371.07c3.23,6.55,8.1,10.36,13.49,14.98l2.5-5.98c.46,3.29,1.72,7.91,2,11,.42,4.63-.8,9.51,1,13.99-.32-.17-1.31.3-1.89-.07l-.11-5.92c-2.47-1.26-1.77,1.97-2.52,2.05-2.18.23-6.08-3.58-9.47-2.05-.67,3.32,2.66,1.34,4.58,2.89,4.91,3.95-2.53,5.65-2.59,10.1h-1c.51-2.53-1.15-2.12-2.76-2.69-6.17-2.16-11.66-2.8-18.23-2.31-.51-.6-.71,1.44-2-2-.8-2.14-1.93-2.44-1.98-2.68-.63-2.71-.46-11.46,3.45-11.41,2.75.04,9.18,5.16,6.2-1.63-.13-.31-1.52.07-1.75-1.71-.8-6.39-.46-10.86,4.93-14.43,1.57-1.04,5.9-1.91,6.15-2.13h0ZM111.43,393.76c-.62-.43-6.56-9.48-8.28-7.69l2.99,6.98-5,.02c.57,3.67,15.85,5.92,16.98,4.98.27-3.89-4.81-2.97-6.7-4.29h.01ZM102.14,400.05c-1.57-5.87-11.33-4.85-15.98-4.99-.49,2.54.5,1.76,1.94,2.51,4.29,2.23,9.24,2.79,14.04,2.48Z"></path><path class="st14" d="M110.14,412.05c.06-4.44,7.5-6.15,2.59-10.1-1.93-1.55-5.25.43-4.58-2.89,3.38-1.53,7.28,2.28,9.47,2.05.74-.08.04-3.31,2.52-2.05l.11,5.92c.58.37,1.57-.1,1.89.07,2.84,1.5,7.1,4.06,9.99,5v1c-1.24-.42-8.24-2-9.23-1.83-1.92.31-6.56,2.91-6.58,5.16.12.64.52,1.13.83,1.67,1.68,2.94,19.52,10.54,21.98,5.01-1.54-.58-3.59-.57-4.99-1.01l2.79-1.2.21-2.8c1.63,1.35,4.69,2.33,6.61,3.39l6.38,5.6c-1.62.82-2.56,2.64-6,4-.43.17-1.36-.19-1.97.02l.11,3.88,2.88.61-3.01,7.48c-.52-.17-1.43.16-2,0v-2c-.63-.15-1.51.16-2,0-4.03-1.31-6.64-7.53-9.99-8-1.64-.23-3.56.34-5.25-.04s-.5-3.55-6.75-3.96c-.06-1.33.07-2.68,0-4h-3c-.56-3.54-1.39-3.89-2-6-.57-1.97-1.03-2.63-1-5v.02Z"></path><path class="st9" d="M174.1,421.05l-1.99,1.02v.96l4.99,4.02c-2.32,1.25-6.41,3.58-8.55,4.98-1.02.67-1.06,2.75-2.14,3.03-3.66.96-6.23-3.88-11.29-2.03l-.99-3c-1.88,5.15,2.1,7.36,5.77,10.71,1.27,1.16,1.35,2.95,4.21,2.29-.28,3.68-.16,7.44,1.04,10.97h2.94c-.89-2.99,1.66-2.93,2.42-4.04.54-.78.48-1.8.59-1.94.34-.39.59-.67,1-1l2,11.99c-3.33-2.93-5.82-1.6-9.99-2-5.74-.54-8.42.46-9.99-6-.7-2.88-.63-5.11,0-7.99-.42-.4-7.62.33-9.52-.02-2.03-.37-2.32-1.94-2.47-1.99l3.01-7.48-2.88-.61-.11-3.88c.61-.21,1.54.15,1.97-.02-2.87,8.66,7.42-.86,8.26-1.27,2.98-1.48,6.45-1.93,9.73-1.73-.06-.65.09-1.37,0-1.99-.11-.7-1.37-1.78-1-2.99l7.99-1.01c1.69.39,3.26.75,5,1v.02Z"></path><path class="st26" d="M169.11,420.05l-7.99,1.01c-.37,1.21.88,2.29,1,2.99-3.95-1.19-8.28-.88-11.99,1l-6.38-5.6c-1.92-1.07-4.98-2.04-6.61-3.39s-.99-3.65-5-5v-1c10.62,3.44,26.01,7.44,36.98,10h-.01Z"></path><path class="st18" d="M202.09,414.05c-1.28.07-18.8,10.28-21.99,11.99-.64.34-1.32.64-2,1-.26.14-.74-.14-1,0l-4.98-4.02v-.96l1.99-1.02c.73.1,1.92,1.45,3.21.79l24.78-12.79c-.16,1.64.11,3.35,0,5h0Z"></path><path class="st8" d="M239.06,410.05c1.01-.6,1.66-1.28,2.99-.99.55.56-1.45,4.19-1.99,4.99-1.48,2.17-5.68,5.24-6.99,7.99,7.06-3.33,9.44.97,15.98,1.01l-3.99,3.99c-2.47-.07-5.03-.1-7.5,0-1.21.05-3.72-.76-3.48.99l13.99,5.01c.05.52.83,1.36,1,2-.23.09-.65-.03-1,0-3.6.3-9.72-1.41-12.99-3-.84-.41-2.72-1.12-3.1-1.68-1.24-1.85,2.07-5.47-5.89-3.32-.95-1.12,1.07-4.81,1.99-5.99,1.67-2.14,6.77-7.09,8.99-9,.67-.57,1.36-1.62,2-2h-.01Z"></path><path class="st6" d="M240.06,414.05l2.52,3.03,4.86-2.09c3.74,3.98,5.89,6.14,5.39,12.29-.34,4.11-2.56,3.6-3.2,4.73-.5.89.87,2.44-.58,3.03-.17-.64-.95-1.48-1-2-.19-1.97.15-4.03,0-6-1-.04-2,.04-3,0l3.99-3.99c-6.54-.05-8.93-4.35-15.98-1.01,1.31-2.75,5.51-5.81,6.99-7.99h.01Z"></path><path class="st16" d="M230.07,395.06c6.84,2.62,7.6,8.71,8.99,14.99-.63.38-1.33,1.43-2,2-5.31-.67-.66-5.78-5.84-5.12l-.16-1.88c.19-.42-.15-1.4,0-2,.99-3.86-.51-.92-.99-2.68-.42-1.52.2-3.65,0-5.31Z"></path><path class="st6" d="M248.06,435.04c-2.57,1.22-6.1,1.52-8.99,2-.1.02-1.12-1.41-2,0-3.48-.31-6.41-.98-9.99-1-2.7-1.43,1.74-1,2.49-1h6.5l-.99-3c3.28,1.58,9.39,3.3,12.99,3h-.01Z"></path><path class="st16" d="M106.15,365.07l2,5.99-4.49-2.02c-.89,0-.35,1.89-.5,2.03-.24.22-4.57,1.09-6.15,2.13-5.39,3.57-5.73,8.04-4.93,14.43.22,1.78,1.61,1.4,1.75,1.71,2.98,6.78-3.44,1.66-6.2,1.63-3.92-.05-4.08,8.7-3.45,11.41.06.25,1.19.55,1.98,2.68-4.34.65-5.38-5.36-6.34-7.67-.14-.35-1.47-.37-1.63-1.03-1.57-6.2,4.29-10.01,9.95-9.32-.37-4.57,3.59-4.59,1.83-10.28-.93-3.01-5.46-1.61-3.3-5.67.19-.36,5.36-5.58,5.74-5.73,1.46-.58,3.3-.16,5.03-.52.99-.21,2.25-1.77,2.72-1.75.32.01,3.65,1.64,6,2v-.02Z"></path><path class="st8" d="M88.16,407.05c6.57-.48,12.05.16,18.23,2.31,1.61.56,3.27.16,2.76,2.69-3.65,1.75-10.76-.09-14.99-1-1.5-.32-2.9-.02-4.43-1.09s-1.23-2.51-1.57-2.91h0Z"></path><path class="st10" d="M109.14,412.05h1c-.03,2.37.43,3.03,1,5h-14.99c-.65-1.29-3.28-2.41-2-6,4.23.91,11.35,2.75,14.99,1Z"></path><path class="st26" d="M197.09,453.03c1.33-.06,2.67.04,4,0-4.88,2.9-2.12,5.32-3.01,9.32-.04.18-1.27,1.46-1.99,2.68-1.2.1-1.84.98-2,1-1.68.26-3.59,1.37-5.31,1.02-.36-.07-4.88-3.81-5.41-3.97-.31-.1-5-1.04-5.26-1.05-.26-2.18.37-4.95,0-7,3.51.27,3.35,5.5,8,4,.67,1.2,3.05,4.03,4.49,4.01,1.18.02-.12-3.14-.49-4.01,2.96-.37,4.64-3.25,4.01-5.98.99-.12,1.99.03,2.98-.01h-.01Z"></path><path class="st10" d="M116.14,427.04c.05.96-.21,3.69,0,4,.1.15.45-.89,2,2,3.69.54,4.27,1.36,8,2,.49-2.89,2.14-1.49,2-4,3.35.47,5.97,6.68,9.99,8v2c.64.14,1.47-.14,2,0,.57.16,1.48-.17,2,0,.15.05.44,1.61,2.47,1.99,1.89.35,9.1-.39,9.52.02-.62,2.88-.7,5.11,0,7.99-2.09.1-6.15-5.01-6.57-5.02-1.4-.04-3.45,1.3-5.92,1.11-6.07-.46-4.61-3.73-6.43-6.63-.2-.31-5-5.02-5.34-5.18-1.4-.67-2.57-.08-3.72-.28-.46,2.76-1.52,2.76-5.26,1.95-1.43-.31-2.27-3.08-2.73-3.95-3.3-.48-1.48-1.46-2-2-1.22-1.29-1.52,1.92-2-4,.66,0,1.34-.04,2,0h0Z"></path><path class="st26" d="M164.11,457.03c4.18.39,6.66-.93,9.99,2,1.01.89,1.61,1.7,2,3-2.03.18-4.64,3.07-5.3,2.87-4.95-1.65-4.55-3.74-6.69-7.87Z"></path><path class="st22" d="M178.1,455.03c.37,2.05-.26,4.81,0,7-.65-.03-1.36-.06-2,0-.38-1.3-.99-2.11-2-3l-2-11.99c.15-.12.17-1.5,1.38-.94,1.8.51,4.28,7.1,4.61,8.93h.01Z"></path><path class="st0" d="M202.09,414.05c2.19-.12,3.79,1,4,1l-1.97,3.51.97,1c.68.41,3.35-.53,5-.51v2c-1.23.36-1.37-.14-3,1s-2.38,1.44-1.99,3.99l3.99-2.99c1.84.25,4.05-.12,6,0l-1,3.99c1.3-.1,2.72.17,3.99,0l-2,6c-.97.67-2.94,4.59-4.48,4.71l-12.5-3.71c-2.82,3.04,7.12,5.49,8.99,5.99l1.99,2.98c-4.92,1.42-12.13,4.38-12.99,10.01-.99.04-2-.11-2.98.01.63,2.73-1.06,5.61-4.01,5.98-1.13-2.64-3.37-6.73-5.99-8-.09,2.27.92,6.1,1.99,8-4.64,1.51-4.49-3.73-8-4-.33-1.83-2.81-8.43-4.61-8.93-1.22-.56-1.24.82-1.38.94-.41.33-.66.61-1,1-4.97-1.8-1.33-7.03-4.51-9.99-2.08-1-2.4,3.92-2.48,4.99-2.86.66-2.94-1.13-4.21-2.29-3.68-3.35-7.65-5.56-5.77-10.71l.99,3c5.06-1.85,7.63,2.99,11.29,2.03,1.08-.28,1.13-2.36,2.14-3.03,2.14-1.4,6.23-3.73,8.55-4.98.26-.14.74.14,1,0l2-1c3.19-1.72,20.71-11.92,21.99-11.99h0ZM206.08,430.06c-3.29-.98-7.1-1.47-10.51-1.01-1.36.18-3.17.73-1.48,1.99,3.55-.31,6.93,1.46,10.49,1.03,1.39-.17,2.88-.57,1.5-2.01h0ZM190.55,436.56c-2.49-2.46-4.24-.76-5.09,2.55-1.26.87-10.2,3.54-9.35,5.41,1.83,4.02,14.13-3.43,15.52-5.45s-.25-1.71-1.08-2.52h0Z"></path><path class="st15" d="M231.07,405.05c-1,2.2-3.79,5.15-5,7.51l1.52,1.49c-2.41,1.24-5.9,2.36-8.51,2.99-1.1.27-2.76-.2-4,0v1.99h3s-2.01,4-2.01,4c-.33-.02-.67.02-1,0-1.94-.12-4.15.25-6,0-.56-.08-1.36-.8-2-1,1.63-1.14,1.77-.64,3-1,.62-.18,2.03.5,2-.51.31-1.98-.32-1.47-2-1.49s-4.32.92-5,.51l-.97-1,1.97-3.51c2.13-.04,4.34-1.71,6.58-1.92,2.47-.23,10.21.43,11.25-.24.52-.33,4.29-9.37,7.15-9.84-.15.59.19,1.58,0,2l.02.02Z"></path><path class="st15" d="M228.07,394.07c-2.16,7.31-8.27,11.09-13.7,15.73-4.22,3.6-4.15-.94-1.75-3.7,1.42-1.64,5.38-2.85,7.4-4.6,1.27-1.1,6.36-9,8.05-7.43Z"></path><path class="st8" d="M106.15,365.07c2.2.34,4.71-.52,6.99,1.01.75-.78-.37-7.02,3-6-1.19,7.36,2.68,11.63,3.64,18.69.09.66-.65,1.22-.64,1.29l-2.5,5.98c-5.39-4.61-10.27-8.42-13.49-14.98.15-.14-.39-2.02.5-2.03l4.49,2.02-2-5.99h.01Z"></path><path class="st10" d="M234.07,439.04c-3.01,3.73,3.26,1.25,4,1.99l-.02,6c-3.55-.72-6.79,2.02-5.98,6.01-4.44.15-10.39-.65-14.46.03-1.66.28-2.58,1.96-4.02,2.01-.6.02-.34-1.82-1.17-2.04-1.62-.42-4.4.06-6.34,0-.61-3.7,5.07-1.48,7.31-2.02.74-.18.61-1.75,1.37-1.96,2.69-.74,6.24,1.97,5.31-3.02,4.34,2.39,2.59-.74,3-1,.75-.48,3.2,1.02,4-3,1.19.83,7.02,3.78,7.99,2.99l-4.99-5.49c.62-1.05,2.82-.37,3.99-.5h.01Z"></path><path class="st25" d="M220.08,446.04c.93,4.99-2.62,2.28-5.31,3.02-.76.21-.62,1.78-1.37,1.96-2.24.54-7.92-1.68-7.31,2.02-1.65-.05-3.35-.05-5,0-1.33.04-2.67-.06-4,0,.86-5.63,8.06-8.59,12.99-10.01l-1.99-2.98c1.58.42,3.67-.5,5.97.52,1.62.72,3.59,4.14,6.02,5.48h0Z"></path><path class="st24" d="M114.14,423.05h2c.07,1.32-.06,2.67,0,4,6.24.41,5,3.56,6.75,3.96s3.6-.19,5.25.04c.14,2.51-1.51,1.11-2,4-3.72-.64-4.31-1.46-8-2-1.54-2.89-1.9-1.85-2-2-.21-.31.05-3.03,0-4-.66-.04-1.34,0-2,0-.08-.99.05-2.01,0-3v-1Z"></path><path class="st13" d="M114.14,424.05c-.48-.11-.93-.54-1-1h1v1Z"></path><path class="st8" d="M227.07,436.04c3.59.02,6.52.69,9.99,1v2c-.98.11-2.02-.1-3,0-1.18.12-3.38-.55-3.99.5l4.99,5.49c-.98.79-6.8-2.15-7.99-2.99-.85-.59-2.02-3.07-4.02-3.5l.03-2.5c1.74,1.27,3.56,0,3.99,0Z"></path><path class="st21" d="M247.05,246.12c-2.48-.12-3.91-2.34-6.29-3.19-8.14-2.92-14.17-.98-22.08-1.91-3.77-.44-7.37-2.49-11.09-2.9-5.74-.62-13.4,1-18.79-.2-2.66-.59-5.85-3.99-8.71-5.28-3.51-1.59-8.27-1.94-11.36-3.63-3.91-2.15-7.19-9.01-10.6-10.39-4.64-1.89-10.03-.8-14.46-1.53-3.71-.61-7.9-3.84-12.08-3.99-4.4-.15-10.47,2.5-15.08,2.92-9.77.89-10.41-1.86-18.31-4.43-2.22-.72-4.76-.17-7.1-.89s-4.62-3.78-6.71-4.33c-4.55-1.18-11.99,4.17-13.23-3.21,4.94,2.4,9.41-.88,14.27.2,2.53.56,4.99,3.62,7.67,4.33s5.01.12,7.31.68c3.44.84,6.42,3.92,10.66,4.33,6.56.63,14.55-3.26,22.59-2.59,5.13.43,8.05,3.11,12.19,3.8,3.83.64,7.98-.35,11.55.45,4.91,1.1,7.4,7.95,11.37,10.62,3.6,2.43,7.92,2.6,11.7,4.29,3.04,1.36,6.56,4.78,8.57,5.42,5.13,1.64,14.64-.13,20.54.45,4.07.4,8.18,2.45,12.11,2.88,8.55.95,21.54-2.61,25.37,8.1h-.01Z"></path><path class="st2" d="M215.07,175.16c.47,2.85-.59,1.66-2.31,2.13-3.3.9-9.67,1.64-13.19,1.85-11.95.72-46.37,1.55-55.8-4.14-5.12-3.09-3.16-7.29-3.67-7.82-.33-.34-8.07-1.04-9.42-1.07-6.62-.14-12.95,1.48-19.36,2.72l-18.17,5.81c2.21-5.46,11.43-6.82,16.78-8.2,8.73-2.26,17.63-4.08,26.74-3.32,11.62.97,5.37,5.94,8.44,8.56,1.73,1.48,14.71,4.08,17.64,4.35,16.63,1.53,35.64-.3,52.33-.87h-.01Z"></path><path class="st2" d="M148.62,129.17c5.08.79,16.36,6.57,22.7,8.28,4.32,1.16,17.6,2.74,19.78,4.2.4.27,1.32,1.26.99,1.5-7.46.61-14.04-.45-21.21-2.27-7.12-1.81-17.2-7.41-23.5-8.48-8.12-1.37-17.96.81-26.25-2.25,1.3-3.86,4.3-.99,5.49-.99,6.33,0,16.24-.9,21.99,0h.01Z"></path><path class="st19" d="M193.09,108.18l-1.48,2c-8.68-.62-17.32,1.96-26.01,1.01-6.5-.72-14.89-3.85-21.96-5.04-1.3-.22-3.11-.31-1.51-1.95,8.14-2.03,18.23,3.44,26.5,3.98,4.65.31,9.08-1.12,14.02-1.05,3.54.05,6.87,1.45,10.45,1.05h0Z"></path><path class="st2" d="M274.05,268.12c.07,1.79.5,2.11-1.48,1.99-7.7-.46-16.91-2.86-24.96-3.04-4.93-.53-9.56,1.16-14.32,1.76-1.17.15-4.03,1.14-3.22-1.21.41-1.2,9.94-3.21,11.62-3.39,10.48-1.08,22.21,1.54,32.36,3.89Z"></path><path class="st22" d="M111.43,393.76c1.89,1.32,6.97.4,6.7,4.29-1.13.94-16.42-1.32-16.98-4.98l5-.02-2.99-6.98c1.73-1.79,7.66,7.26,8.28,7.69h-.01Z"></path><path class="st8" d="M102.14,400.05c-4.8.31-9.75-.24-14.04-2.48-1.44-.75-2.43.03-1.94-2.51,4.65.14,14.41-.88,15.98,4.99Z"></path><path class="st7" d="M132.13,411.05c4.01,1.35,3.37,3.65,5,5l-.21,2.8-2.79,1.2c-5.54-1.72-11.08-3.84-16.99-4-.31-.54-.7-1.03-.83-1.67.02-2.25,4.66-4.85,6.58-5.16,1-.16,7.99,1.42,9.23,1.83h0Z"></path><path class="st8" d="M134.13,420.05c1.41.44,3.45.43,4.99,1.01-2.46,5.53-20.31-2.07-21.98-5.01,5.91.16,11.45,2.28,16.99,4h0Z"></path><path class="st20" d="M162.11,424.05c.1.62-.05,1.35,0,1.99-3.29-.2-6.76.25-9.73,1.73-.84.42-11.13,9.93-8.26,1.27,3.44-1.35,4.38-3.18,6-4,3.72-1.88,8.04-2.19,11.99-1h0Z"></path><path class="st9" d="M138.13,439.04c.49.16,1.37-.15,2,0v2c-.53-.15-1.36.14-1.99,0v-2h-.01Z"></path><path class="st8" d="M171.11,448.04c-.12.13-.06,1.16-.59,1.94-.76,1.11-3.31,1.05-2.42,4.04h-2.94c-1.2-3.53-1.32-7.3-1.04-10.98.08-1.07.4-5.99,2.48-4.99,3.18,2.96-.46,8.19,4.51,9.99Z"></path><path class="st9" d="M180.1,426.04l-2,1c.67-.36,1.36-.66,2-1Z"></path><path class="st3" d="M219.08,417.05c3.91.88,2.53,6.49,8.99,4-.93,1.19-2.94,4.88-1.99,5.99,7.96-2.15,4.65,1.48,5.89,3.32.37.55,2.25,1.27,3.1,1.68l.99,2.99h-6.5c-.75,0-5.19-.42-2.49,1-.43,0-2.25,1.27-3.99,0l-.03,2.5c2,.42,3.18,2.91,4.02,3.5-.79,4.02-3.25,2.52-4,3l-6.99-7.51c-.97-2.34,9.09-3.17,5.98-6.48-.22-.23-5.59,1.72-5.99,1.99l2-6c1.94-.25,3.69-.95,4.98-2.5-1.65-2.31-4.46-1.37-6.98-1.5l2.01-3.99h-3.01v-2c1.24-.2,2.9.26,4,0h.01Z"></path><path class="st1" d="M231.07,405.05l.16,1.88c5.18-.66.53,4.44,5.84,5.12-2.23,1.91-7.32,6.85-8.99,9-6.47,2.49-5.09-3.12-8.99-4,2.6-.63,6.1-1.75,8.51-2.99l-1.52-1.49c1.21-2.36,4-5.32,5-7.51h-.01Z"></path><path class="st1" d="M245.06,427.04c1,.03,2-.04,3,0,.15,1.97-.2,4.04,0,6l-13.99-5.01c-.23-1.74,2.27-.94,3.48-.99,2.47-.1,5.04-.07,7.5,0h.01Z"></path><path class="st20" d="M190.09,459.03c.37.87,1.67,4.03.49,4.01-1.44.02-3.81-2.81-4.49-4.01-1.06-1.9-2.08-5.72-1.99-8,2.62,1.27,4.86,5.36,5.99,8Z"></path><path class="st22" d="M216.08,433.04c.4-.28,5.77-2.22,5.99-1.99,3.11,3.31-6.95,4.14-5.98,6.48l6.99,7.51c-.4.26,1.34,3.39-3,1-2.43-1.34-4.4-4.76-6.02-5.48-2.3-1.02-4.4-.1-5.97-.52-1.86-.5-11.81-2.95-8.99-5.99l12.5,3.71c1.55-.13,3.52-4.04,4.48-4.71h0Z"></path><path class="st25" d="M190.55,436.56c.83.81,2.51.44,1.08,2.52s-13.69,9.47-15.52,5.45c-.85-1.87,8.1-4.55,9.35-5.41.85-3.31,2.59-5.01,5.09-2.55h0Z"></path><path class="st15" d="M206.08,430.06c1.38,1.44-.11,1.84-1.5,2.01-3.56.43-6.95-1.34-10.49-1.03-1.69-1.26.12-1.81,1.48-1.99,3.41-.46,7.22.04,10.51,1.01h0Z"></path><path class="st20" d="M218.08,427.04c-1.28.17-2.7-.1-3.99,0l1-3.99c.33.02.67-.02,1,0,2.52.13,5.32-.81,6.98,1.5-1.28,1.55-3.04,2.25-4.98,2.5h-.01Z"></path><path class="st21" d="M209.08,423.05l-3.99,2.99c-.38-2.55.29-2.81,1.99-3.99.64.2,1.44.92,2,1Z"></path><path class="st21" d="M210.08,419.05c1.68.02,2.31-.49,2,1.49.03,1.01-1.38.33-2,.51v-2Z"></path></g><path class="st12" d="M-183.98,363.09"></path></svg>