<svg id="Calque_1" xmlns="http://www.w3.org/2000/svg" version="1.1" viewBox="0 0 300.45 445.64"><defs><style>
      .st0 {
        fill: #dce6ab;
      }
      .st1 {
        fill: #f4f5e5;
      }
      .st2 {
        fill: #c8d883;
      }
      .st3 {
        fill: #a6c429;
      }
      .st4 {
        fill: #d0dc98;
      }
      .st5 {
        fill: #f6f6f6;
      }
      .st6 {
        fill: #c8d781;
      }
      .st7 {
        fill: #1d2711;
      }
      .st8 {
        fill: #a8c62a;
      }
      .st9 {
        fill: #2c3519;
      }
      .st10 {
        fill: #b9ce63;
      }
      .st11 {
        fill: #232919;
      }
      .st12 {
        fill: #d3dd9f;
      }
      .st13 {
        fill: #fff;
      }
      .st14 {
        fill: #121312;
      }
      .st15 {
        fill: #bacf5c;
      }
      .st16 {
        fill: #edf1d4;
      }
      .st17 {
        fill: #d5e19f;
      }
      .st18 {
        fill: #131314;
      }
      .st19 {
        fill: #e5e9cb;
      }
      .st20 {
        fill: #e6ecc3;
      }
      .st21 {
        fill: #151c0f;
      }
      .st22 {
        fill: #d7e1aa;
      }
      .st23 {
        fill: #22261c;
      }
      .st24 {
        fill: #cbd98a;
      }
      .st25 {
        fill: #eaefcf;
      }
      .st26 {
        fill: #e0e8b9;
      }
    </style></defs><polygon class="st13" points="89.65 31.99 42.82 58.87 20.42 88.19 12.27 132.99 31.01 184.71 70.1 225.08 101.48 241.83 98.54 362.22 152.12 378.17 175.71 365.7 182.15 251.44 236.64 234.61 267.36 188.13 272.61 108.11 176.27 25.46 89.65 31.99"></polygon><g><path class="st14" d="M96.82,311.22c.58-22.15.12-44.44,2.87-66.43C43.38,219.47-11.03,155.66,15.69,90.54c8.5-20.71,38.42-50.31,58.12-60.84,102.45-54.76,263.25,53.64,207.09,167.22-14.26,28.85-50.04,48.05-80.38,55.57-5.83,1.44-10.93,1.46-16.51,2.99l-7.24,100.75c-2.99,5.84,1.33,7.09,1,12l-25.75,12.82c-1.7.44-2.71-.81-3.23-.82-1-.01-2,.02-3,0-13.31-4.15-28.21-9.98-41.97-12-1.54-.23-3.45-1.25-5-1-4.45-4.77-2.75-8.83-3-15-.11-2.86-1.02-5.65-1-8,.08-10.71,1.71-22.07,2-33h0ZM266.72,198.21c1.68,1.73,6.54-6.24,7.16-7.33,15.81-27.65,7.87-69.33-7.74-95.59C238.13,48.17,180,22.95,126.27,23.18c-3.93.02-13.87,7.18-19.45,6.04-.23,1.74,2.27.94,3.48.99,11.88.47,22.82.26,34.72,2.27,55.43,9.35,113.65,50.3,126.4,107.53,4.66,20.93,2.31,38.27-4.7,58.2h0ZM111.59,37.49C-11.06,49.07-9.43,176.95,85.81,228.74c52.36,28.47,140.54,32.58,170.43-29.51C296.76,115.08,190.37,30.05,111.59,37.49ZM157.78,258.22c-16.56-1.96-32.33-4.5-47.88-10.6-1.89-.74-3.34-3.74-7.08-2.41.05,24.22-.3,48.32-1.01,72.49-.3,10.25-.71,20.68-.95,31.05-.08,3.7-3.11,9.59,1,11.92l47.92,13.54c.22-38.76,4.28-77.45,8-115.99h0ZM179.77,256.21l-18.98,1.01-3.99,114.99,14.01-7.67,8.96-108.33Z"></path><path class="st25" d="M87.82,388.22c-3.15.27-1.86-3.89-3.96-6.26-3.63-4.1-4.17.12-4.7.25-3.01.74-7.99-.5-11.33.02,1.61-7.66-9.43-7.99-13.05-13.46-.19-.29-3-5.58-3.11-5.91-.86-2.5-.56-5.18-1.27-7.7-5.68-.84-9.58-2.25-10.42-8.7-.3-2.29,3.03-5.14,1.86-8.24l7.88-.12c.77-2.51,2.52-8.72,4.05-10.45,1.22-1.38,3.31-1.28,4.59-2.44,2.82-2.58,3.46-5.57,8.24-6.7,6.03-1.43,4.29.95,6.47,2,1.57.76,3.15,1.11,4.74,1.7,1.32.49,2.63.66,4,1v6l-3.43-1.05c-.87,0-.47,1.98-.56,2.05-1.17.85-7.38-1.87-9.61,2.34-2.49,4.68-1.79,15.12-2.39,15.65-.22.2-2.43-.27-3.71.3-.28.12-4.17,4.13-4.23,4.43-1.69,8.38.54,8.48,4.96,13.27.27.29-.09,1.8,1.56,2.91,1.98,1.33,3.67.72,5.44,1.09-.89,9.66,9.46,4.49,14.37,6.15,1.56.53,1.17,3.51,3.62,2.85.16,1.64-.13,3.35,0,5,.11,1.32-.13,2.69,0,4v.02Z"></path><path class="st1" d="M203.75,346.22c4.19-.32,4.39-.47,3.99,4.01h4.01c-3.24,4.67,4.67,7.86,5.72,10.26.57,1.29.06,3.48.28,3.72.33.37,7.25-.36,9.94.55,4.39,1.49,7.66,6.58,9.7,10.24.55.99,2.14,1.13,2.31,1.92.37,1.69.27,5.95-.03,7.75-.89,5.45-4.6,10-8.73,13.49-4.97,4.2-11.3,7.92-15.21,12.06-.93.99-.98,1.04-2,2-.12.12.42,1.81-.61,2.05l-3.39-1.05c.47-.08,3.82-.9,4-1,.07-.04-.15-1.15.35-1.65.53-.52,1.6-.28,1.64-.35.52-.88-.35-6.3,0-8.01h-2c.02-.32-.02-.66,0-.99.12-1.64-.2-3.32.05-4.95,3.13-.32,6.08-.52,8.94-2.05.32-.17.68-.69,1-1,4.57-4.52,4.31-8.92,3.99-14.99-3.19,1.37-4.23-1.88-4.68-1.99-2.95-.68-6.67,1.37-8.31-3.02.57-.74,3.23-4.81,3-4.99-2.07-.15-4.34.86-6,1.99l-.04-11.27c-4-2.41-4.52-6.21-6.04-9.9-.53-1.29-1.41-.15-1.91-2.83h.03Z"></path><path class="st6" d="M179.77,352.22c3.43-1.75,9.17.47,11.31.08,1.27-.23,2.62-8.25,10.06-3.96,4.97,2.86,4,9.99,6.32,14.63.57,1.14,2.11,1.19,2.27,1.94.47,2.16-.25,5,.02,7.3-.79.72-3.43,3.32-4,4v-2c-1.31.05-2.69-.13-4,0l3.99-12c-3.19.3-6.53,9.45-7.14,9.84-2.05,1.3-11.51-1.31-16.83,2.16-.71-1.37-4.72-1.36-6-1,.79-1.59,1.87-3.15,2-5,.33-4.91-3.99-6.16-1-12,.39-.76,2.23-2.95,3-4h0ZM202.75,353.23c-2.54-1.97-5.95,5.55-7.5,6.98s-12.73,6.82-9.48,10c1.98,1.94,3.93-2.63,5.03-3.44,1.91-1.42,5.43-2.72,6.66-3.86.81-.75,5.73-9.35,5.3-9.69h0Z"></path><path class="st26" d="M124.8,408.22c.88,2,3.76,3,5,4,.25.2.33,2.91,3.76,3.73,2.17.52,4.11.2,6.24.27.34,2.63,3.12,2.39,2,5.99,5.3.24,10.7-.29,15.98,0s3.7,1.72,4.71,1.98c1.19.31,3.94.18,5.29.02.56-.07,1.25.29,1.77-.24.39-.55.12-1.23.23-1.76,1.77-.7,2.29.7,2-3-.05-.59.14-1.84,0-2,2.66-3.28,2.3-2.58,6-3-.38,1.68.4,2.14,1.98,2.01l.02,1.98h-4.01v4c-3.12.3-5.02,5.1-6.78,5.96-4.05,1.98-7.58-.35-10.5.02-.83.1-2.08,3.77-4.16,4.08-5.68.84-8.42-1.49-10.54-6.06-.15-.32.31-1.21-.16-1.81-1.5-1.9-7.69-.53-5.84-6.19-2.61-1.03-1.59,1.78-2.64,2.02-5.94,1.4-12.2-6.33-10.35-12.02v.02Z"></path><path class="st16" d="M93.82,396.22c1.03.1,2.36-.32,3.31-.01,1.16.37-.08,2.51,2.18,2.03l1.13-2.03c.86,0,1.92-.23,2.71-.01.64.17,7.45,8.71,8.97,9.71.75.5,2.21.12,3.38.66.38.17.38,1.71.85,1.71,1.86.03,4.14-3.02,7.32-1.17l.63-1.89c1.15.28.19,2.3.5,3.01-1.85,5.69,4.41,13.42,10.35,12.02,1.05-.25.03-3.06,2.64-2.02-1.85,5.67,4.33,4.29,5.84,6.19.47.59.02,1.49.16,1.81-3.03,1.5-4.29-1.91-4.68-1.98-16.82-3.21-20.15-7.95-34.46-16.13-3.48-1.99-5.32-1.66-5.09-5.62l-5.73-6.26v-.02Z"></path><path class="st19" d="M96.82,311.22c-.29,10.93-1.92,22.29-2,33-.64.07-1.38-.11-2,0l-1.99-4.99,4.01-.52c-.81-7.19-5.45-11.91-4.02-19.48-3.36-1.03-2.27,5.27-3,6-1.96-.6-4-1.51-5.98-2-1.37-.34-2.67-.51-4-1,2.36-10.04,9.99-10.37,18.99-11h-.01Z"></path><path class="st17" d="M87.82,384.22c3.23-.58,1.32,4.46,4.29,5.68,1.23.51,2.42.33,3.69.32v4c3.42,1.39,4.13-1.85,4.69-1.99,6.43-1.57,8.2,4.46,12.05,7.92l17.24,2.06c-1.36,4.25-1.83,5.66,0,9.99-1.23-1-4.11-2-5-4-.31-.71.65-2.73-.5-3.01l-.63,1.89c-3.19-1.85-5.47,1.21-7.32,1.17-.47,0-.47-1.54-.85-1.71-1.18-.53-2.63-.16-3.38-.66-1.52-1.01-8.33-9.54-8.97-9.71-.79-.21-1.84.02-2.71.01l-1.13,2.03c-2.26.48-1.02-1.65-2.18-2.03-.95-.31-2.28.11-3.31.01-.33-.03-.67.03-1,0-.33-2.97-4.04-3.73-5-7-.05-.33.03-.67,0-1-.13-1.31.11-2.68,0-4l.02.03Z"></path><path class="st20" d="M179.77,352.22c.48-.66.84-2.76,2.33-3.66.84-.51,2.19-.18,3.35-.68.36-.15.41-2.67,3.71-1.69l2.1,2.04c.84-2.65,1.89-2.16,4.5-2.02v-5.99l7.96,2.04c.31,1.26-.18,2.77.04,3.95.51,2.68,1.38,1.54,1.91,2.83,1.52,3.69,2.04,7.49,6.04,9.9l.04,11.27c-.22.15-1.4,1.46-2,2-.27-2.3.45-5.14-.02-7.3-.16-.75-1.7-.81-2.27-1.94-2.31-4.64-1.35-11.77-6.32-14.63-7.44-4.29-8.8,3.73-10.06,3.96-2.15.39-7.88-1.83-11.31-.08h0Z"></path><path class="st22" d="M210.75,398.22c.9,1.11,1.34,2.47,3,3-.02.33.02.67,0,1-.41,6.53-.7,2.49-3.55,4.95-1.03.89-4.04,4.53-4.45,6.05-.6.13-1.42-.14-2,0-.69-1.5-2.68-.96-4-1-5.49-.15-9.33,1.97-11.48,2.04-.28,0,.36-1.71-4.51-2.04-.61-3.71,5.07-1.49,7.31-2.02.76-.18.62-1.79,1.36-1.96,2.01-.45,4.45.35,6.6-.06,1.12-.21,2.61-5.03,6.72-4.96.64.01,3.12,2.14,3.99.51l-4.99-5.5h6Z"></path><path class="st16" d="M183.77,412.22c4.86.33,4.22,2.05,4.51,2.04,2.15-.07,6-2.19,11.48-2.04v2c-9.65,2.98-10.4,6.71-23.99,8v-4.01h4l-.02-1.98c-1.58.12-2.36-.34-1.98-2.01,1.31-.15,2.69.13,4,0v-2c.66.02,1.33-.05,1.99,0h.01Z"></path><path class="st12" d="M213.75,402.22h2c-.35,1.7.52,7.12,0,8-.04.07-1.11-.17-1.64.35-.5.49-.28,1.61-.35,1.65-.18.1-3.52.92-4,1-1.22.21-2.85-.25-4,0,.41-1.52,3.41-5.15,4.45-6.05,2.85-2.47,3.14,1.58,3.55-4.95h-.01Z"></path><path class="st16" d="M92.82,396.22c-.86-.08-2.18.38-2.81-.17-.75-2.49-1.81-4.14-2.18-6.83.96,3.27,4.67,4.03,5,7h-.01Z"></path><path class="st12" d="M203.75,413.22c-1.11.27-3.11.73-4,1v-2c1.32.04,3.3-.5,4,1Z"></path><path class="st5" d="M266.72,198.21c7.01-19.93,9.36-37.27,4.7-58.2-12.75-57.23-70.96-98.17-126.4-107.53-11.9-2.01-22.84-1.8-34.72-2.27-1.21-.05-3.72.75-3.48-.99,5.58,1.14,15.52-6.03,19.45-6.04,53.72-.23,111.85,25,139.87,72.11,15.61,26.25,23.55,67.94,7.74,95.59-.62,1.09-5.48,9.05-7.16,7.33h0Z"></path><path class="st15" d="M95.82,352.22c.25,6.17-1.45,10.23,3,15-.48.08-6.58,3.14-7.04,3.72-2.13,2.66-2.33,7.85-1.79,11.13,5.72.02,6.42,7.16,11.83,6.15v-5.01l10-.99.99-1.49c-.15-.46-3.28-2.26-3.99-2.51h3v-3c4.74,4.45,8.48,1.24,13.24,3.24,1.83.77,7.12,3.63,2.75,4.76-2.03.7-10.76,5.17-9.48,8.01,6.11-2.25,11.5-6.94,18.48-6.02.45-1.29-.98-1.88-1-1.99-.12-.97.08-2.02,0-3,3.32.03,6.68-.07,10,0,1,.02,2-.01,3,0-1.82,2.01.6,6.44,3,6-.32.16-3.23,3.35-4.78,3.96-.87.34-2.21-.09-3.21.04v4.01h-4.01c-.9,2.41,1.52,2.08,2,3-2.41-.56-2.2,1.26-2.51,2.93-.88,4.72-.54,8.47.53,13.07h2.98l.09-3.95,2.92-.56c.14-1.87-2.61-2.8-3.01-4.49,2-.22,4.41.4,6.29-.02.8-.18.8-1.75,1.94-2.28,3.24-1.51,16.23-7.62,18.74-5.7.56,3.74-1.4.61-2.94,1.45-7.76,4.26-7.02,6.2-17.05,7.54-.95.13-2.75-.55-3.05.53.04,2.79.31,5.8,1.05,8.47v2c-2.65-.04-5.34.08-8,0-2.13-.07-4.07.25-6.24-.27-3.43-.82-3.51-3.53-3.76-3.73-1.84-4.33-1.36-5.74,0-9.99l-17.24-2.06c-3.85-3.47-5.62-9.49-12.05-7.92-.56.14-1.27,3.38-4.68,1.99v-4c-1.29,0-2.47.19-3.7-.32-2.97-1.23-1.07-6.26-4.29-5.68-.13-1.65.16-3.36,0-5-.45-4.8-3.42-3.53-4-7-.15-.92.1-2.04,0-3,4.42.21,4.98-6.89,1.78-8.79-1.58-.94-4.48,1.21-3.77-2.21l11.34-.03,1.63,2.02,1.01-7.99v-.02Z"></path><path class="st2" d="M77.83,330.22c3.2,4.48,9.03,15.04,14.99,14,.62-.11,1.35.07,2,0-.02,2.35.88,5.14,1,8l-1.01,7.99-1.63-2.02-11.34.03c-.71,3.42,2.18,1.27,3.77,2.21,3.21,1.9,2.64,9-1.78,8.79-6.12-.29-13.63-5.09-20.99-3-4.41-4.79-6.64-4.89-4.96-13.27.06-.3,3.95-4.31,4.23-4.43,1.29-.57,3.49-.1,3.71-.3.6-.53-.1-10.97,2.39-15.65,2.24-4.21,8.45-1.49,9.61-2.34h.01ZM86.12,352.92c-.62-.44-6.55-9.48-8.28-7.7l2.99,6.98-5,.02c.75,3.71,15.6,6.14,16.98,4.98.27-3.89-4.81-2.97-6.7-4.29h.01ZM76.83,359.21c-1.57-5.87-11.33-4.85-15.98-4.99-.49,2.54.5,1.76,1.94,2.51,4.29,2.23,9.24,2.79,14.04,2.48Z"></path><path class="st8" d="M103.81,368.22c1.55,1.99,4.16,1.76,6.09,3.43,1.43,1.24,1.69,3.37,1.9,3.57v3h-3c-2.84-1.03-10.2-2.31-13.57-2.94-.62-.12-3.58-1.86-3.4.44.11,1.43,17.09,8.18,19.97,6.5l-10,.99v5.01c-5.41,1.01-6.11-6.13-11.83-6.15-.54-3.28-.33-8.48,1.79-11.13.46-.57,6.56-3.64,7.04-3.72,1.55-.25,3.46.77,5,1h0Z"></path><path class="st24" d="M145.79,380.22c-3.32-.07-6.68.04-10,0,.08.98-.12,2.03,0,3-2.9-1.23-5.1-.99-8,0,4.36-1.12-.92-3.98-2.75-4.76-4.75-2-8.5,1.2-13.24-3.24-.21-.2-.47-2.33-1.9-3.57-1.93-1.67-4.55-1.44-6.09-3.43,13.77,2.02,28.67,7.85,41.97,12h0Z"></path><path class="st12" d="M177.77,368.22c-.12,1.85-1.21,3.41-2,5-1.6.45-6.23,4.82-7.8,5.67-5.31,2.86-11.12,4.76-16.19,7.33-2.4.44-4.82-3.99-3-6,.52,0,1.53,1.26,3.23.82l25.75-12.82h0Z"></path><path class="st11" d="M81.83,323.22c1.98.5,4.02,1.4,5.98,2,.74-.73-.36-7.03,3-6-1.43,7.57,3.2,12.3,4.02,19.48l-4.01.52,1.99,4.99c-5.96,1.04-11.79-9.52-14.99-14,.09-.07-.31-2.06.56-2.05l3.43,1.05v-6h.02Z"></path><path class="st23" d="M83.83,369.22c.1.96-.15,2.08,0,3-4.72.05-9.42-1.04-13.99-2-1.77-.37-3.46.23-5.44-1.09-1.65-1.11-1.29-2.62-1.56-2.91,7.36-2.09,14.87,2.71,20.99,3Z"></path><path class="st4" d="M83.83,372.22c.58,3.47,3.54,2.2,4,7-2.45.67-2.06-2.32-3.62-2.85-4.9-1.66-15.26,3.51-14.37-6.15,4.57.96,9.27,2.05,13.99,2Z"></path><path class="st11" d="M211.75,370.22c1.66-1.13,3.93-2.14,6-1.99.23.18-2.43,4.25-3,4.99-1.77,2.28-5.07,5.09-6.98,7.51l7.51-1.05,8.45,4.02-13.97,3.5,13.98,6.01c-.32.31-.68.83-1,1-4.46.01-9.05-.97-12.99-3-1.2-.62-2.4-1.32-3.59-1.98-.94-1.32,3.04-5.16-6.4-3.02-.15-3.47,3.27-5.2,5.03-7.49.68-.89.74-2.23.96-2.5.57-.68,3.2-3.28,4-4,.6-.54,1.78-1.85,2-2h0Z"></path><path class="st12" d="M222.74,394.22c-2.86,1.53-5.81,1.73-8.94,2.05-.26,1.63.07,3.31-.05,4.95-1.66-.53-2.1-1.89-3-3-.34-.41.27-2.37-3-3v-1l1.8-.2.2-2.8c3.94,2.03,8.53,3.01,12.99,3Z"></path><path class="st3" d="M181.77,374.22c-1.58,1.03-2.06,1.92-2.97,3.51l1.47,1.46c.69-.76,1.7-.69,2.51-.97l1,2c-2.35,1.16-4.51.98-3.99,5l7.99-3c.81.3,2.02,1.11,2,2-.01.4-1.44,1.73-1,1.99,1.55-.19,3.57.31,5,.01l-2,6c-2.12,1.34-3.47,3.29-5.48,4.72l-12.5-3.71c-2.48,2.68,6.21,5.54,7.99,6l3.99,1.49c-3.78,2.42-9.37,4.12-12.52,7.49-1.9,2.03-.99,2.99-1.47,4.02-3.44.44-5.46,2.71-8.99,2-.56-.92-3.11-4.03-4-4l-1,4-4.48-2.02c-.94-.04-.42,1.23-.51,2.01-1.5-2.86-2.16-5.93-3-9,10.03-1.35,9.28-3.28,17.05-7.54,1.54-.84,3.5,2.29,2.94-1.45-2.51-1.93-15.51,4.19-18.74,5.7-1.14.53-1.14,2.1-1.94,2.28-1.88.42-4.3-.2-6.29.02-.52-2.16.52-4.1-1-7-.48-.91-2.9-.59-2-3h4.01v-4c1-.14,2.34.3,3.21-.04,1.55-.61,4.46-3.8,4.78-3.96,5.06-2.57,10.88-4.47,16.19-7.33,1.57-.85,6.19-5.22,7.8-5.67,1.28-.36,5.29-.37,6,1h-.05ZM180.76,389.23c-3.29-.98-7.1-1.47-10.51-1.01-1.36.18-3.17.73-1.48,1.99,3.55-.31,6.93,1.46,10.49,1.03,1.39-.17,2.88-.57,1.5-2.01h0Z"></path><path class="st10" d="M201.75,374.22c1.31-.13,2.69.05,4,0v2c-.23.27-.29,1.61-.97,2.5-1.76,2.29-5.18,4.03-5.03,7.49,9.44-2.14,5.46,1.7,6.4,3.02,1.19.66,2.39,1.36,3.59,1.98l-.2,2.8-1.8.2c-1.88.14-4.87-.77-6,1-.72.02-2.25,1.24-3.99,0l-.03,2.5c3.45,1.73,3.81,4.72,8.02,5.5-4.11-.07-5.6,4.75-6.72,4.96-2.14.4-4.58-.39-6.6.06-.74.17-.61,1.78-1.36,1.96-2.24.54-7.92-1.68-7.31,2.02-.66-.05-1.34.02-2,0-2.98-.1-7.19-.36-9.99,0-.82,1.75-2.45,3.12-2.03,4.5.24.78,1.92.38,2.03.5.14.16-.05,1.41,0,2-2.99-.55-1.67,1.29-2,3-1.01.4-2.49-.47-2,2-1.35.16-4.1.28-5.29-.02-1-.26.41-1.69-4.71-1.98-.34-3.23-3.73-5.59-5-8,.09-.78-.42-2.05.51-2.01l4.48,2.02,1-4c-.56,2.88,3.24,11.02,5.51,11.99,3.09,1.31-1.08-7.27-1.51-7.99,3.54.71,5.55-1.56,8.99-2,.48-1.03-.43-1.99,1.47-4.02,3.15-3.37,8.74-5.07,12.52-7.49l-3.99-1.49c1.64.42,4.18-.44,6.28.21,2.79.86,5.56,7.22,9.7,6.79,1.88-1.88-6.43-8.18-6.98-9.51-.97-2.34,9.1-3.17,5.98-6.48-.55-.58-4.15,1.46-4.99,2l2-6c1.48-.31,4.46-1.89,3.99-3.99l-7.99,1.99c.03-.89-1.18-1.7-2-2l5-3.99c-3.18-.32-6.2.61-8.99,1.99l-1-2c5.84-2.05,12.67-3.39,18.99-4h.02Z"></path><path class="st21" d="M201.75,374.22c-6.32.61-13.15,1.95-18.99,4-.81.28-1.81.2-2.51.97l-1.47-1.46c.91-1.58,1.39-2.47,2.97-3.51,5.33-3.48,14.78-.87,16.83-2.16.61-.39,3.95-9.53,7.14-9.84l-3.99,12h.02Z"></path><path class="st21" d="M202.75,353.23c.44.34-4.49,8.94-5.3,9.69-1.23,1.14-4.75,2.44-6.66,3.86-1.1.81-3.04,5.39-5.03,3.44-3.25-3.19,7.99-8.63,9.48-10s4.96-8.95,7.5-6.98h0Z"></path><path class="st24" d="M147.79,414.22c.29,1.05,2.96,6.84,3.51,7.01,2.74.34,1.28-5.17,1.49-7.01,1.27,2.41,4.66,4.77,5,8-5.29-.3-10.69.23-15.98,0,1.12-3.6-1.67-3.36-2-5.99,2.66.08,5.35-.04,8,0v-2h-.02Z"></path><path class="st0" d="M181.77,412.22v2c-1.31.13-2.69-.15-4,0-3.69.42-3.34-.28-6,3-.11-.13-1.79.28-2.03-.5-.42-1.37,1.22-2.74,2.03-4.5,2.8-.36,7.02-.1,9.99,0h.01Z"></path><path class="st0" d="M171.77,419.22c.29,3.7-.23,2.3-2,3-.1.53.16,1.22-.23,1.76-.52.53-1.21.17-1.77.24-.49-2.47.99-1.6,2-2,.33-1.71-.99-3.55,2-3Z"></path><path class="st23" d="M201.75,395.22c1.71-.05,4.51-.29,6,0,3.27.63,2.66,2.59,3,3h-6l4.99,5.51c-.88,1.64-3.35-.5-3.99-.51-4.21-.77-4.56-3.77-8.02-5.5l.03-2.5c1.74,1.24,3.27.02,3.99,0Z"></path><path class="st18" d="M71.89,139.13c2.76.83,5.29,3.29,8.39,3.06,1.76-.13,3.25-1.71,5.1-1.93,2.83-.34,13.87-1.43,15.91-1.03,2.55.5,8.73,6.53,10.1,9.01,7.62-3.46,38.57-1.7,44.32,2.54,1.08.79,1.41,2.94,2.71,3.33,2.82.85,14.54-4.21,18.87-4,3.67.18,2.82,2.33,3.68,2.87,2.75,1.7,14.21-1.57,18.24-1.8,4.92-.29,23.99-.96,26.61,2.45,1.62,2.11,1.43,6.38-1.55,4.56-10.24-6.24-31.43,2.1-43.07,1.11-3.13-.27-4.67-2.06-6.88-2.14-5.17-.19-14.5,5.33-19.55,1.53-1.47-1.1-1.53-2.9-3.26-3.79-6.7-3.44-27.39-3.79-35.1-2.57-4.65.74-9.91,4.96-13.61.33l1.99-4.43c-10.73-7.26-19.54,1.5-31.97-2.52-4.7-1.52-4.08-5.42-8.5,1.48-2.93-1.5.26-4.3-.62-5.82-.62-1.06-4.8-1.93-6.61-6.92-4.56-12.63,11.41-28.8,18.2-20.22,5.62,7.1-.4,17.89-3.43,24.9h.03ZM68.54,117.38c-8.41,2.45-9.39,19.88-2.2,19.88,4.94,0,10.96-22.42,2.2-19.88Z"></path><path class="st14" d="M208.76,198.22v2.98c-9.51,4.23-13.89-5.31-22.62-5.97-3.93-.29-5.28,3.08-9.86,3.07-11.19-.02-22.75-4.11-32.99-5.08-5.83-.55-10.84,1.28-15.99,1.06-11.83-.51-23.8-3.63-35.24-5.79-6.23-1.18-18.21-3.85-23.85-4.22-2.17-.14-11.3,2.65-10.34-1.54.29-1.27,4.42-2.04,5.76-2.24,13.93-2.1,30.54,5.67,42.85,6.38,8.59.49,18.35.19,26.8.3,14.86.19,26.98,4.74,41.06,5.09,4.28.11,4.7-2.11,7.18-2.8,4.38-1.21,12.95,1.38,16.95,3.56,3.49,1.9,5.27,6.14,10.3,5.21h-.01Z"></path><path class="st14" d="M222.74,94.22c.47,2.33-.26,1.61-1.28,2.25-6.49,4.12-23.02,5.26-29.94,2.49-2.89-1.16-4.87-4.1-8.3-4.69-17.53-3.03-60.5-.23-73.4-9.57-1.39-1.01-1.89-3.43-2.66-3.55-1.75-.26-8.11,1.9-10.86,2.06-3.75.21-19.67,1.1-20.98-1.98l1.02-2c7.65,1.2,19.75.49,27.33-1.64,6.87-1.93,9.64-11.13,18.69-6.44,2.35,5.55-4.61,6.18-8.14,7.98-.77.39-3.13.33-1.42,2.08,2.35,2.4,13.2,2.57,16.44,3.06,2.03.31,3.54,1.69,6.02,1.98,11.19,1.33,45.27-.17,52.76,3.2,1.6.72,5.91,4.77,7.23,4.77h27.49Z"></path><path class="st18" d="M227.74,215.2l-17.98,2.01c.22-8.93,14.41-8.03,17.98-2.01Z"></path><path class="st11" d="M108.81,378.22c.71.26,3.84,2.06,3.99,2.51l-.99,1.49c-2.87,1.68-19.86-5.07-19.97-6.5-.17-2.3,2.78-.56,3.4-.44,3.37.63,10.73,1.91,13.57,2.94Z"></path><path class="st7" d="M141.79,397.22c1.52,2.9.48,4.84,1,7,.4,1.69,3.15,2.62,3.01,4.49l-2.92.56-.09,3.96h-2.98c-1.07-4.61-1.41-8.35-.53-13.08.31-1.67.1-3.5,2.51-2.93Z"></path><path class="st7" d="M149.79,405.22c.84,3.07,1.49,6.14,3,9-.21,1.84,1.25,7.35-1.49,7.01-.55-.17-3.22-5.95-3.51-7.01-.74-2.67-1.01-5.68-1.05-8.47.3-1.09,2.1-.41,3.05-.53Z"></path><path class="st9" d="M135.79,383.22c.01.11,1.45.7,1,1.99-6.98-.93-12.36,3.77-18.48,6.02-1.28-2.84,7.46-7.31,9.48-8.01,2.9-.99,5.1-1.23,8,0Z"></path><path class="st7" d="M86.12,352.92c1.89,1.32,6.97.4,6.7,4.29-1.38,1.15-16.24-1.28-16.98-4.98l5-.02-2.99-6.98c1.73-1.79,7.66,7.26,8.28,7.7h-.01Z"></path><path class="st11" d="M76.83,359.21c-4.8.31-9.75-.24-14.04-2.48-1.44-.75-2.43.03-1.94-2.51,4.65.14,14.41-.88,15.98,4.99Z"></path><path class="st12" d="M214.75,373.22c1.63,4.39,5.35,2.35,8.31,3.02.45.1,1.49,3.35,4.68,1.99.33,6.07.58,10.48-3.99,14.99l-13.98-6.01,13.97-3.5-8.45-4.02-7.51,1.05c1.9-2.42,5.21-5.23,6.98-7.51h0Z"></path><path class="st22" d="M207.75,394.22v1c-1.48-.29-4.29-.05-6,0,1.12-1.77,4.11-.86,6-1Z"></path><path class="st7" d="M191.76,392.22c.84-.53,4.44-2.58,4.99-2,3.11,3.31-6.95,4.14-5.98,6.48.55,1.33,8.86,7.63,6.98,9.51-4.14.43-6.91-5.93-9.7-6.79-2.1-.64-4.64.21-6.28-.21-1.78-.45-10.47-3.31-7.99-6l12.5,3.71c2.01-1.43,3.36-3.38,5.48-4.72v.02Z"></path><path class="st14" d="M183.77,380.22c2.8-1.38,5.81-2.31,8.99-1.99l-5,3.99-7.99,3c-.52-4.02,1.64-3.83,3.99-5h.01Z"></path><path class="st9" d="M162.78,414.22c.44.72,4.6,9.3,1.51,7.99-2.27-.97-6.07-9.11-5.51-11.99.89-.03,3.44,3.08,4,4Z"></path><path class="st21" d="M180.76,389.23c1.38,1.44-.11,1.84-1.5,2.01-3.56.43-6.95-1.34-10.49-1.03-1.69-1.26.12-1.81,1.48-1.99,3.41-.46,7.22.04,10.51,1.01h0Z"></path><path class="st9" d="M189.76,384.22l7.99-1.99c.46,2.1-2.51,3.69-3.99,3.99s-3.44-.2-5-.01c-.44-.26.99-1.59,1-1.99Z"></path></g></svg>