<svg xmlns="http://www.w3.org/2000/svg" viewBox="0 0 841.89 1190.55"><defs><style>
      .cls-1 {
        fill: #171818;
      }
      .cls-2 {
        fill: #1b1b1c;
      }
      .cls-3 {
        fill: #b7d051;
      }
      .cls-4 {
        fill: #ebf1d1;
      }
      .cls-5 {
        fill: #c7d883;
      }
      .cls-6 {
        fill: #f4f4f4;
      }
      .cls-7 {
        fill: #c5d77b;
      }
      .cls-8 {
        fill: #e7ecd1;
      }
      .cls-9 {
        fill: #242a19;
      }
      .cls-10 {
        fill: #d0de99;
      }
      .cls-11 {
        fill: #b2c85b;
      }
      .cls-12 {
        fill: #b9ce64;
      }
      .cls-13 {
        fill: #ccdc88;
      }
      .cls-14 {
        fill: #fff;
      }
      .cls-15 {
        fill: #d1dba6;
      }
      .cls-16 {
        fill: #cede8b;
      }
      .cls-17 {
        fill: #95b136;
      }
      .cls-18 {
        fill: #313528;
      }
      .cls-19 {
        fill: #acc836;
      }
      .cls-20 {
        fill: #1e2316;
      }
      .cls-21 {
        fill: #bfd466;
      }
      .cls-22 {
        fill: #cad794;
      }
      .cls-23 {
        fill: #dce7ae;
      }
      .cls-24 {
        fill: #dae1bc;
      }
      .cls-25 {
        fill: #f4f7e5;
      }
      .cls-26 {
        fill: #c2d66e;
      }
      .cls-27 {
        fill: #e1eabc;
      }
    </style></defs><g id="Calque_2"><polygon class="cls-14" points="45.29 326.46 244.14 243.98 378.91 294.79 388.5 265.33 423.85 251.51 552.41 293.32 559.99 301.47 552.41 363.72 763.37 456.82 746.64 675.56 736.9 746.69 690.46 754.11 678.73 760.47 550.47 692.43 548.2 928.54 474.17 975.71 347.87 878.02 361.99 580.61 141.68 457.37 53.65 354.59 45.29 326.46"></polygon></g><g id="Calque_1"><path class="cls-1" d="M345.92,726.76c.21-40.74,6.3-81.66,9.42-122.11.16-2.13.59-16.14.08-16.81l-38.9-21.5c-47.28-31.48-113.87-47.92-157.75-84.79-35.48-29.8-98.31-100.18-120.14-140.33-2.67-4.91-4.96-9.58-5.79-15.23h3.79c-.53-3.82-.05-5.76,3.07-7.84,5.71-3.84,13.93-7.39,19.88-10.7,22.92-12.67,47.76-22.97,72.65-33.46,32.68-13.74,68.38-30.09,104.07-36.42,13.13-2.32,18.36.08,30.36,4.06,37.7,12.49,73.18,32.39,111.3,43.81v-19.34c0-3.6,8.4-9.47,11.45-11.18,6.19-3.52,16.25-5.36,20.89-8.35,2.05-1.31,3.12-4.46,6.11-5.23,2.11-.53,6.03-.51,8.19-.19,15.1,2.19,42.58,12.22,58.19,17.23,21.77,7.02,48.77,15.47,69.18,25.1,2.96,1.41,12.09,5.6,12.7,8.96.91,21.21,2.4,42.74-3.76,63.26l.91,1.81c57.95,26.81,116.99,51.41,174.61,78.86,6.16,2.93,17.69,10.7,23.48,12.54,2.35.75,4.03.16,5.84.59.91.21,5.34,7.44,5.79,8.54,2.64,6.48,2.85,13.29,2.48,20.22-3.71,69.1-11.13,137.9-20.68,206.58-1.89,13.63-2.96,27.61-6.03,41.11-1.6,7.1-3.49,16.91-10.4,20.73-7.36,4.06-20.68,9.58-28.76,12.73-4.78,1.87-9.63,1.52-14.81,4.99-1.76,1.17-3.52,4.64-5.63,4.67-2.32.05-4.8-2.83-6.88-3.49-34.39-11.21-60.96-24.46-92.63-41.75v-1.89c-.61-.11-1.28.08-1.89,0s-1.28.08-1.89,0v-1.89h-1.89c-.61-.05-1.28.08-1.89,0v-1.89h-1.89c-.56-.64-3.49-1.63-4.72-1.89v-1.89h-1.89c-.61-.05-1.28.08-1.89,0v-1.89h-1.89c-.08-.13-.64.11-.93,0v-1.89h-1.89c-.61-.05-1.28.08-1.89,0v-1.89h-1.89c-.21-.21-1.63.21-1.89,0-.29-.27.67-2.96-3.76-1.89-.29,7.76.56,15.37.96,23.13.08,1.49.91,1.31.91,1.39.16,3.12-.19,6.32,0,9.42.48,8.03,0,16.94,1.89,24.52v13.21c-.93,11.29,1.6,23.05,1.89,33.94.27,9.71,0,19.53,0,29.24v2.83c-.11,18.97-1.87,37.67-1.89,56.59-1.68,1.07-.8,3.87-.93,5.66-.45,5.66-1.44,11.26-.93,16.97-.24.99-1.28,2.16-1.65,3.49-.8,2.91-.27,6.48-2.11,9.68,2.19.64,3.33-1.36,4.72-1.89h11.31c.29,9.34-10.35,6.51-16.43,7.6-3.63.64-10.14,3.15-13.74,4.64-3.6,1.49-6.14,3.71-9.42,5.66-7.87,4.67-15.39,9.95-23.5,14.22,2.51,7.15-2.59,3.28-5.12,3.82-1.04.24-1.39,1.68-1.57,1.76-1.81.72-4.22.4-5.66,2.83-3.36,0-8.67,3.6-10.38,6.59-1.31.64-2.48,1.23-3.76,1.89-1.44.32-5.87-.45-6.59,0-1.65-3.15-4.86-3.09-6.3-4.08-.88-.61-2.64-2.4-4.08-3.47-2.53-1.87-5.02-3.79-7.55-5.66-2-1.47-4.08-2.61-5.66-3.76-15.93-11.69-31.88-22.7-48.1-33.94-2.05-1.44-20.84-14.11-21.48-15.29-.69-1.23.4-3.04-1.15-4.99-2.64-3.31-12.83-8.7-16.97-11.79-2.03-1.49-4.19-2.67-5.66-3.76-.13-.11-.37-.72-1.89-1.89-1.89-1.47-10.54-7.63-11.31-8.48-2.27-2.53-3.52-10.59-3.76-14.14-.59-8.64-.03-18.54,0-27.35,0-3.44-.13-6.94,0-10.38,1.23-.45.91-1.79.93-2.83,1.12-26.36,2.13-52.82,2.83-79.21.16-5.82,1.23-11.05.93-16.97,1.73-2.16.93-6.48.93-9.42l.16.21ZM291.81,270.74c-7.98-3.28-16.06-6.46-24.2-9.31-8.99-3.15-19.18-4-26.81-9.92l-47.65,17.9c9.12,2.05,19.18,1.95,28.09,4.43,14.41,4.03,30.89,12.51,45.49,17.69,62.14,21.98,121.44,37.7,182.43,64.64,78.78,34.82,157.14,71.02,235.44,106.85,6.51,2.99,18.6,10.86,24.3,12.46,2.4.67,3.25.61,5.63-.11,9.36-2.83,21.32-16.38,32.09-18.38v-2.77c-2.64-.21-5.26-1.15-7.74-2.13-54.27-21.5-106.93-46.55-160.55-69.53-94.42-40.47-191.85-72.91-286.56-111.84l.03.03ZM530.75,291.12l-106.34-31.91c-1.63-.27-14.83,4.16-15.31,5.04-.83,1.55,4.72,2.96,5.95,3.44,28.92,11.45,58.35,21.72,87.13,33.54,9.6.77,18.76-6.8,28.55-7.31v-2.83l.03.03ZM505.27,334.48c-.48-3.25-2.99-5.84-3.55-9.18-.45-2.83.56-8.72-1.17-10.16l-107.49-39.14c-.08,3.6.11,7.23,0,10.83-.08,2.21-2.21,4.62.59,6.03l111.62,41.59v.03ZM707.05,486.33c-19.02-4.8-38.18-12.25-56.51-19.4-78.7-30.71-152.55-71.71-230.16-104.58-62.94-26.65-129.93-42.29-193.24-67.95-7.12-2.88-22.94-11.95-29.69-10.75-1.28.21-2.19,1.33-3.15,1.55-22.3,4.83-47.3,12.49-69.18,19.45-25.24,8.06-49.92,17.79-74.35,27.99,7.92,10.94,16.11,21.72,24.54,32.25,22.84,28.63,49.49,62.46,76.33,87.03,41.59,38.12,96.71,56.69,146.49,82.62,92.39,48.13,177.92,110.16,270.02,157.14,37.32,19.05,73.39,42.31,110.29,62.27l2.19.16,4.72-52.32c9.74-55.63,12.54-111.76,16.97-167.84,1.25-15.87,3.47-31.72,4.67-47.6l.05-.03ZM552.41,301.47l-35.4,11.26c-1.55,2.24,2.51,15.42,2.48,19.4,0,3.25-2,4.94-1.95,7.98l29.21,11.34c-1.01-11.13,2.43-21.64,3.76-32.55.72-5.76.16-11.69,1.89-17.42h0ZM758,471.21c-1.49-1.55-22.41,11.13-25.43,12.75-2.51,1.36-10.51,3.82-11.18,5.79-.61,7.15.29,14.43-.11,21.58-2.59,46.85-5.52,93.75-11.47,140.36-2,15.79-5.31,31.56-7.31,47.38-1.92,15.15-3.17,30.44-4.83,45.62,1.2,1.25,27.29-9.52,29.24-11.77.77-.88,1.39-1.89,1.65-3.04,10-56.51,15.31-113.68,22.7-170.59l6.72-88.04v-.05ZM469.31,655.24l-102.63-60.51c.83,10.54,1.23,21.02.99,31.61-1.73,74.99-8.06,150.34-11.39,225.28-.16,3.33-.32,24.94.45,26.04l14.99,8.59,90.68,66.8,1.41-1.41c3.57-76.57.83-153.54,2.8-230.13.35-13.98.37-28.39.93-42.45.16-4,3.04-21.82,1.76-23.85v.03ZM479.82,965.33l62.7-41.51.45-53.3c4.83-43.27-.51-86.81-1.89-130.06-.45-14.06.56-28.23-.13-42.29l-4.06-3.49-54.69-31.11-2.37,301.77h0Z"></path><path class="cls-25" d="M562.79,842.74c3.47.96,5.74-2.13,8.99-2,1.71.08,1.23,1.81,2.03,2,1.36.29,2.96-.27,4.35.05s19,17.55,20.09,19.18c1.73,2.59,2.61,6.14,4.7,9.04,1.52,2.13,4.35,1.33,3.25,5.68,4.88-.93,3.33,1.52,5.36,4.48s3.76,2.88,5.68,7.58c.56,1.33-.08,3.17.32,4.22.24.61,2.75,2.16,2.72,4.03,1.89,1.36,10.64-.05,13.77.4,2.85.4,14.43,4.3,16.43,6.22,1.04,1.01.72,2.77,1.12,3.09.61.53,2.43-.19,3.39.35.35.19,3.09,5.42,4.06,6.62,6.94,8.78,6.67,8.54,9.39,18.92.21.8,1.68.64,1.84,1.33,1.36,5.74-1.57,7.28-1.84,8.48-.51,2.16.48,5.02-.05,7.2-.16.72-1.68.56-1.84,1.28-.51,2.24.61,3.66-.93,6.46-.69,1.28-5.68,6.56-7.07,8.06-8.27,8.8-20.92,18.14-31.11,23.58-3.15,1.68-9.1,1.44-9.95,6.08-.99,5.26,0,5.55-3.47,10.62-.27.4-4.06,4.54-4.35,4.67-1.47.59-2.69.05-3.49.29l1.89-3.76c2.45.64,1.63-1.6,1.89-1.89.75-.83,3.04-2.83,3.68-4.51.67-1.76.77-5.2,2.03-7.31l-.11-2.61c-2.35-1.76-3.39-5.34-3.76-8.19-.16-1.28.32-2.77,0-4.03-.11-.35-4.08-2.59-1.44-6.4.75-1.07,13.58-2.03,16.3-4.94.45-.48.11-1.39.24-1.6.4-.69,1.33-1.28,1.89-1.89,1.28-.03,5.15.29,5.6-.08.43-.35-.19-2.29.05-2.75,1.47-2.75,5.63-4.96,7.42-9.28,1.39-3.33,2.93-5.87,1.97-9.84-.16-.64-1.44-.61-1.73-1.44-.77-2.27-1.55-6.83-2.27-8.4-.24-.51-4.51-4.75-4.96-6.75-2.69.64-5.74,1.28-8.48.91-1.25-.19-8.8-3.17-11.31-3.82-1.39-.35-3.09.08-4.56,0-.64-.16-1.49-4-1.52-4.78,0-.29-.05-.67,0-.93.05-.19.72-.56.93-.93,3.07-4.99,9.84-9.12,7.55-15.1-.16-.43.13-1.31,0-1.89l-1.84.05-3.82,4.64c-.27.08-.61-.05-.93,0-.48.08-1.15,1.01-2.19.75-5.36-1.36-11.85-17.39-13.95-22.62-.4-1.01-2.69-.75-1.79-3.95l1.89-1.97c-10.16-4.86-5.63-13.63-9.79-20.89-2.11-3.68-5.39-1.57-8.4-2.24-.69-.16-.56-1.68-1.28-1.84-2-.48-11.15.45-11.61,0-.51-1.63,1.6-6.3-1.89-5.66v-1.89h.93l-.03-.05Z"></path><path class="cls-25" d="M313.85,951.19c-2.19.53-1.92-1.2-2.53-2.61-.96-2.24-2-5.44-3.44-7.39-.32-.45-7.34-7.74-7.9-7.87-4.54-1.12-2.37,1.92-3.66,2.88-1.97,1.49-6.06.37-8.24.88-.72.16-.56,1.68-1.28,1.84-5.34,1.31-8.78-2.08-13.74-1.92-5.9-4.67-7.36-9.95-10.35-16.7l-10.4-2.16c-2.53-2.83-9.02-5.87-11.47-8.48-3.09-3.28-4.46-9.42-6.51-11.9-1.28-1.55-4.88-1.97-5.18-2.37-.51-.67.11-2.24-.21-2.83-.51-.93-1.65-.8-1.81-1.41-1.49-6.11,3.47-18.97-4.75-21.45-5.1-1.52-6.83-.03-12.17-3.9-6.56-4.75-8.7-10.54-7.58-18.6,3.31-3.82,6.51-10.59,12.01-11.74,3.98-.83,14.25-1.47,17.39-4.06,1.39-1.12,5.82-7.98,8.19-9.98,1.31-1.09,3.49-1.23,3.74-1.47.75-.83-.21-9.47.08-11.71.16-1.2,3.66-3.17,1.95-7.02h3.79c-1.07-5.31,3.04-4.59,5.31-6,.67-.43,3.63-3.33,3.87-3.39,2.08-.45,11.66-.43,13.98-.11,1.28.16,10.83,3.76,12.14,3.92,2.8.37,6.64-.64,9.31-.05.8.19.64,2.53,2.53,1.87-.13.27.35,1.36-.13,1.73l-3.66.13c-.27-.13-4.83-1.92-5.12-1.95-5.79-.77-11.47,0-16.73,2.08-2.56,1.01-5.15,2.64-7.6,3.98-6.62,3.6-14.35,6.14-15.77,14.35-1.81,10.56,3.49,13.13,11.29,18.06.59,5.1-2.56,8.67-3.82,13.47-4.7,2.56-4.46-1.65-5.9-2.59-4.7-2.93-10.4-5.39-15.98-7.9-1.57-.72-1.84-3.87-6.08.43-.45.45-5.6,9.26-5.76,9.79-2.11,7.95,1.84,11.18,3.9,17.82l5.31,6.94c0,.29-.03.64,0,.93.45,3.49,1.2,1.25,1.89,1.89.21.19-.19,1.39,0,1.89,1.2,3.2,1.23,1.25,1.89,1.89.48.48-.91.67,1.89,1.89.16,1.2-.16,2.56,0,3.79.61.11,1.31-.11,1.89,0,.11,2.37-.45,5.04.29,7.31.43,1.33,7.04,5.34,9.15,4,.99,5.07,4.62,2.99,6.59,3.76,1.39.56,3.41,2.4,4.72,2.83,3.98,5.5,11.42,2.93,9.42,11.63-.21.88-2.61.24-1.89,2.99.11.37,1.68.29,1.89,1.12.29,1.2-.37,2.96.16,3.92.21.4,6.94,3.17,8.14,3.68,1.31.53,3.17-.11,4.24.29,1.39.51,2.85,3.2,6.8,3.76,6.86.96,6-3.36,7.79-3.76,7.34-1.63,3.15,2.4,7.23,5.2,1.09.75,5.2,3.79,5.52,3.95,1.17.51,3.23,0,3.49.29.32.32-.27,2.16.05,3.01.37.99,1.71.4,1.92,2.08.35,2.61-.19,6.16-.08,9.02l-.03-.03Z"></path><path class="cls-8" d="M344.03,753.15c-.69,26.39-1.71,52.85-2.83,79.21-1.23.45-.91,1.79-.93,2.83-.13,3.44,0,6.94,0,10.38-7.39,1.07-8.8-6.91-10.38-12.25-.88-3.01,0-6.19-3.71-9.04l.13-1.17c2.48.13,2.08-5.1,1.65-7.04-.16-.75-1.44-.8-1.81-1.39-1.31-2.03-2.51-4.14-3.82-6.16-.59-.91-1.89-.56-1.89-.67v-20.76l-3.71.05-3.36,13.13c-2.85.43-2.08-2.05-5.12-2.45-3.66-.48-3.49-.75-5.71-1.31,3.12-1.23,1.39-3.79,1.89-5.95.19-.72,1.71-.56,1.87-1.28.35-1.52-.32-3.07.29-4.78.13-.37,5.42-5.28,5.76-5.5,3.17-1.92,7.34-2.93,10.83-4.75,1.12-.59,3.17-3.2,3.41-3.2h15.55c.11-4.86-.16-9.79,0-14.65.05-1.81-.96-3.79,1.89-3.25h-.03Z"></path><path class="cls-27" d="M262.95,904.98c2.08.59,3.01.59,4.72.93.29.05.64-.05.93,0-.72,2.83,2.51,1.55,3.36,2.75s.13,3.52.45,5.04c.29,1.31,5.47,2.75,3.74,6.35.37.43,7.1-.37,8.78.03.72.16.59,1.68,1.28,1.84,7.2,1.71,8.3-3.66,12.11-3.76,1.97-.05,2.8,2.08,3.41,3.6,2.53,1.6,3.47-2.37,4.88-3.31.27-.16,4.51-2.4,5.23-2.75,2.59-1.23,4.78-1.65,7.66-1.33,1.31,3.2-1.71,3.84-1.84,4.43-.91,3.63-1.36,7.34-.99,10.64.13,1.2-.21,2.69,0,3.76-1.68,2.53-.96,6.35-.93,9.42,0,2.51-.37,5.82-.08,8.08.24,1.76,1.79,1.2,1.95,2,.29,1.36-.27,2.93.05,4.32.11.53,7.23,7.76,7.76,7.95,3.63,1.28,10.56-.37,9.18,5.95,1.97-.19,4.27.32,6.16.05,3.41-.48,5.55-9.52,12.03-7.42,2.19.69,2.24,3.23,2.67,3.49,2.16,1.23,6-4.43,9.02,4.62.64,1.92,1.81,6.06,2.16,7.74.16.83-.13,1.92,0,2.83.61.08,1.31-.11,1.89,0,.11.96-.24,2.11,0,3.12.35,1.07,1.47.48,1.89.67,1.89,9.6,6.22,6.14,12.57,7.55.72.16.59,1.71,1.28,1.87,3.2.77,7.76-2.56,10.67-3.79.03.08,1.09-.16,1.55.35s.27,1.49.35,1.55c-4.67,2.37-10.14,4.62-15.63,3.84-1.76-.24-1.23-1.79-2-1.95-1.36-.29-2.93.24-4.35-.05-.29-.05-2.85-3.17-5.18-3.52-1.57-.24-2.99.85-4.3.59-.51-.11-7.36-6.03-7.9-6.75-.67-.93-1.41-5.55-4.06-6.8-3.15-1.49-6.91,1.17-7.68-5.07-1.23-.88-4.94,1.23-6.8.88-.53-.11-1.07-1.57-6.3-1.92-.19-.45.21-1.73,0-1.89-.37-.27-4.38.08-5.66,0-3.49-.27-4.88-1.2-7.15-4.14-3.04-3.98-5.87-11.1-6.06-15.66-.11-2.85.43-6.4.08-9.02-.21-1.68-1.55-1.09-1.92-2.08-.32-.85.27-2.67-.05-3.01-.24-.27-2.32.24-3.49-.29-.32-.13-4.43-3.17-5.52-3.95-4.11-2.8.11-6.8-7.23-5.2-1.79.4-.93,4.72-7.79,3.76-3.92-.56-5.42-3.23-6.8-3.76-1.07-.4-2.93.24-4.24-.29-1.2-.51-7.9-3.28-8.14-3.68-.53-.96.13-2.72-.16-3.92-.21-.83-1.79-.75-1.89-1.12-.72-2.72,1.68-2.11,1.89-2.99,2-8.7-5.44-6.14-9.42-11.63,1.23.4,2.53.59,3.76.93l.08.13Z"></path><path class="cls-20" d="M302.54,796.53c2.21.59,2.05.85,5.71,1.31,3.07.4,2.27,2.85,5.12,2.45l3.36-13.13,3.71-.05v20.76s1.31-.21,1.89.67c1.31,2,2.51,4.14,3.82,6.16.37.59,1.65.64,1.81,1.39.43,1.95.83,7.18-1.65,7.04l-.13,1.17c3.74,2.83,2.83,6,3.71,9.04-4,1.84-5.84.56-9.42-.93-1.92,3.52,5.63,9.36,5.71,9.95.32,2.99-1.81,2.96-2.88,4.19-4.72-.8-7.9-4.56-11.31-7.55-.75-.67-1.87-1.92-2.83-2.83-2.93-2.77-5.15-5.31-7.52-8s-4.62-5.15-6.64-8.03c-.16-.85.21-2.13,0-2.83-.24-.75-.91-.88-.93-.93-.35-.61-.61-1.25-.93-1.89-.75-1.44-3.74-3.23-2.83-6.59,7.15-.99,10.4,8.08,16.01,11.31-1.65-5.02-4.48-9.1-6.59-14.14.24-2.96-1.97-5.82,0-8.48.85.16,2.05-.21,2.83,0v-.05Z"></path><path class="cls-4" d="M609.96,1004.95c-.24.27.56,2.53-1.89,1.89l-1.89,3.76c-6.22,1.84-12.75,2.83-19.4,1.95-1.73-.21-1.23-1.76-2-1.95-8.14-1.97-7.23,2.72-10.97,5.34-2.37,1.65-15.15,6.99-17.39,7.79-7.76,2.69-15.58,3.12-23.02,5.84-5.66,2.05-10.08,2.32-16.17,3.68-.72.16-.51,1.63-1.33,1.84-2.05.56-3.66-.05-5.92,1.92-.56.13-1.55-.19-1.89,0v-1.25c2.64-1.12,1.76-2.11,1.89-4.4,7.23-1.01,4-3.01,8.35-8.22l-2.69-10.64c4.94,1.47,8.94-1.41,12.67-1.95,2.83-.37,6.7.64,9.31.03,5.18-1.23,6.27-1.73,12.91-1.87,1.57-.03,3.2-.93,3.76-.93h.93c8.43-.05,47.97,3.39,52.8-.93.16-.13-.13-1.36,0-1.89h1.95Z"></path><path class="cls-4" d="M327.06,970.98c1.28.08,5.28-.27,5.66,0,.21.16-.19,1.41,0,1.89,5.2.35,5.76,1.81,6.3,1.92,1.89.35,5.6-1.76,6.8-.88.77,6.24,4.54,3.58,7.68,5.07,2.61,1.25,3.36,5.87,4.06,6.8.53.72,7.39,6.64,7.9,6.75,1.31.29,2.69-.83,4.3-.59,2.29.35,4.86,3.47,5.18,3.52,1.41.27,2.99-.24,4.35.05.77.16.24,1.71,2,1.95,5.5.77,10.97-1.47,15.63-3.84.32.21,1.39-.19,1.89,0-.67,1.89,1.68,1.73,1.87,2.53.59,2.61-.37,6.27.05,9.2.21,1.47,3.28,9.07,4.03,10.56.53,1.04,4.75,6.94,5.63,7.55.72.51,2.05.11,2.67.4.91.45.93,1.49,1.55,1.68,2.91.99,6.94.93,9.84,0,.72-.24.72-1.39,1.52-1.68,13.1-4.83,6,3.07,9.55,7.98.13.19,3.31,3.15,3.52,3.2,1.65.32,4.96-.48,5.82.13.27.19,1.97,5.18,3.63,5.5,1.52.29,6.67.35,8.08,0,.64-.16.67-1.41.96-1.55,1.09-.45,2.45-.16,3.17-.61.88-.56,4.11-5.18,4.75-5.31l9.26-.11c1.52.19,4.7,4.86,6.32,6.03,2.61,1.89,3.98.32,4.48,3.47-1.65-.32-5.36.59-6.48-.13-.27-.16-1.79-4.78-3.2-5.23-1.73-.56-8.59-.67-10.4-.27-.72.16-4.72,5.58-5.1,5.66-2.08.51-9.79.13-12.54,0-4.54-.27-3.04-1.12-4.08-1.57-3.15-1.31-4.38-1.31-7.23-4.08-.16-.16-1.25-3.47-2.59-3.74-2.53-.51-5.66.48-8.06-.08-.61-.13-9.9-5.42-10.75-5.6-1.55-.35-3.15.35-4.78-.27-.51-.19-7.12-6.99-7.5-7.58-1.23-1.89-1.84-6.24-2.43-8.4-.67-2.51-2.75-4.64-1.65-8.27-3.68-.85-5.31,3.2-9.04,3.76-7.5,1.12-11.5-7.71-18.06-9.15-2.83-.61-5.63.21-8.06-.27-.61-.13-6.27-6.59-11.31-3.76l-13.87-11.29s-1.23.27-1.63-.24c-.32-.43-3.57-8.08-4.03-9.18-1.65-.11-3.36.19-5.02,0l-.64-1.89v-.05Z"></path><path class="cls-25" d="M338.37,982.3l13.87,11.29c5.04-2.83,10.7,3.63,11.31,3.76,2.43.51,5.23-.35,8.06.27,6.56,1.44,10.56,10.27,18.06,9.15,3.76-.56,5.36-4.62,9.04-3.76-1.09,3.63.96,5.76,1.65,8.27.59,2.19,1.2,6.54,2.43,8.4.37.59,6.99,7.39,7.5,7.58,1.63.61,3.23-.08,4.78.27.85.19,10.14,5.47,10.75,5.6,2.4.56,5.52-.43,8.06.08,1.33.27,2.43,3.58,2.59,3.74-3.15-.35-6.96.45-9.98.08-.64-.08-9.02-3.68-9.55-3.82-12.54-3.15-18.52-6.96-28.79-13.53-9.71-6.19-18.97-12.91-28.68-18.92-.69-.43-2.19-3.07-2.43-3.15-2.96-1.07-8.06-2.19-10.78-4.35-.75-.61-7.34-7.02-7.55-7.52-.59-1.33-.11-3.15-.29-3.49l-.05.05Z"></path><path class="cls-25" d="M447.75,1042.64c2.75.16,10.46.53,12.54,0,.37-.08,4.38-5.5,5.1-5.66,1.81-.4,8.67-.27,10.4.27,1.39.45,2.93,5.07,3.2,5.23,1.12.72,4.83-.19,6.48.13.08.59-.08,1.28,0,1.89h14.41c2.27-2.53,5.26-5.92,8.22-7.55.35-.19,1.33.13,1.89,0-.13.11,0,1.07-.4,1.49-7.63,7.15-10.16,11.55-22.76,9.9-1.73-.21-1.23-1.76-2-1.95-1.84-.43-4.32.19-6.32-.08-1.33,8.08-13.87,9.04-20.36,7.04-1.84-.56-9.2-8.22-10.4-10.78v.05Z"></path><path class="cls-24" d="M559.96,778.63c2.88-.53,1.79,1.44,1.89,3.25.56,10.03,2.21,20.86,0,30.68-.29-10.89-2.83-22.68-1.89-33.94Z"></path><path class="cls-24" d="M558.1,731.49s-.85.11-.91-1.39c-.4-7.74-1.25-15.37-.96-23.13,4.43-1.07,3.47,1.63,3.76,1.89-2.8-.53-1.87,1.47-1.89,3.28-.08,6.35,2.59,13.23,0,19.37v-.03Z"></path><path class="cls-24" d="M558.1,740.9c2.93-.53,1.73,1.47,1.87,3.28.51,6.88,2.19,14.59,0,21.24-1.89-7.58-1.41-16.49-1.89-24.52h.03Z"></path><path class="cls-8" d="M345.92,726.76c0,2.96.77,7.26-.93,9.42,0-.13-.88-1.07-.99-2.27-.19-2.37.16-4.8.03-7.15h1.89Z"></path><path class="cls-8" d="M299.71,796.53c-1.97,2.67.24,5.55,0,8.48-.51-1.23-1.28-2.05-.99-3.71-5.36,1.47-5.31-1.79-5.6-1.95l3.66-.13c.45-.37,0-1.49.13-1.73.29-.56,1.15-.96.96-1.89.85-.45,1.71.91,1.87.96l-.03-.03Z"></path><path class="cls-24" d="M561.86,708.84h1.89v1.89c-3.49-.53-1.23-1.17-1.89-1.89Z"></path><path class="cls-24" d="M586.38,722.04c.59.08,1.28-.11,1.89,0v1.89c-.64-.35-2.45.91-1.89-1.89Z"></path><path class="cls-24" d="M582.62,720.15h1.89v1.89c-.59-.08-1.28.11-1.89,0v-1.89Z"></path><path class="cls-24" d="M568.48,712.62h1.89v1.89c-.59-.08-1.28.11-1.89,0v-1.89Z"></path><path class="cls-24" d="M565.62,710.73h1.89v1.89c-.43-.16-1.31.13-1.89,0v-1.89Z"></path><path class="cls-24" d="M578.83,718.28h1.89v1.89c-3.47-.53-1.23-1.12-1.89-1.89Z"></path><path class="cls-24" d="M572.24,714.49h1.89v1.89c-.53-.11-1.28.11-1.89,0v-1.89Z"></path><path class="cls-24" d="M562.79,842.74h-.93v-.93l.93.93Z"></path><path class="cls-5" d="M272.37,827.66c-.32,3.17-1.2,7.52.05,10.59.43,1.04,3.95,3.07,4.91,5.76.75,2.11-.45,3.41.77,5.66,1.84,3.36,5.74,5.63,8.03,8.22l5.07-1.92v7.55c-1.57.08-3.15-.05-4.72,0-.51,4.38,5.9,6.75,9.44,8,5.87,2.08,19.98,4.83,25.93,4.27,1.41-.13,2.8-.48,4.11-1.04,1.92-8.08-12.94-5.95-15.9-8.86-1.52-1.52-3.2-6.67-4.72-8.48-.88-1.07-6.32-6.06-7.55-7.07l4.7-7.15,3.76,1.49c-.24-4.86,5.74-2.05,5.68-5.66,3.41,2.99,6.59,6.75,11.31,7.55-2,2.32-2.27,4.56-3.12,5.44-1.15,1.17-7.71,2.35-7.23,4.46.59,2.64,10.06.88,12.51,1.47.59.13.67,1.2,1.09,1.47.72.45,1.97.21,2.24.53.53.64-.08,2.21.24,2.85.64,1.17,1.84,3.79,2.13,4.24.45.69,6.03,6.03,7.26,7.26,1.33,1.36.99-.75,1.87-1.31.24,3.55,1.49,11.61,3.76,14.14l-6.67,12.67-.88,5.26c-2.19.29-4.46,2.59-7.39,2.05-.48.35,0,1.57-.13,1.71-1.17,1.23-2.53,2.32-3.76,3.76-.08.08-1.17-.37-1.95.59-3.01,3.74-3.95,12.11-6.54,16.38-.4-3.31.08-7.02.99-10.64.16-.61,3.15-1.25,1.84-4.43-2.88-.32-5.1.11-7.66,1.33-.75.35-4.99,2.59-5.23,2.75-1.41.93-2.32,4.91-4.88,3.31-.59-1.52-1.44-3.66-3.41-3.6-3.82.08-4.91,5.47-12.11,3.76-.72-.16-.59-1.68-1.28-1.84-1.68-.4-8.4.4-8.78-.03,1.73-3.58-3.44-5.04-3.74-6.35-.35-1.52.43-3.82-.45-5.04s-4.08.08-3.36-2.75c7.6,1.57,26.76,5.98,33.46,4.7,5.71-1.09,2.08-4.72,1.44-7.52l.85-.53c-.77-.29-3.57-5.39-3.68-5.79-.43-1.92.48-6.48-3.28-6.96-7.79-.99-6.08,2.35-8.27,3.63-.88.51-2.4-.13-3.31.43-.53.32-.61,1.73-1.17,2.11-2.16,1.41-19.96.16-24.52.51-1.25-2.05-5.15-.24-6.48-1.07-1.15-.72-1.65-7.07-2.08-8.59-.21-.77-1.63-.67-1.79-1.36-.93-3.84.13-8.67,2.8-11.61,6.16,3.79,12.94,4.51,21,5.87,2.77.45,13.39,4.14,14.7.13l-.08-4.86-9.2-3.98,4.7.93c.59-1.89-.96-4.46-.67-5.98.19-.91,1.81-1.92,1.6-2.91-.59-2.99-12.7-6.48-15.07-9.5-2.69-3.39-5.18-14.17-4.72-18.38.05-.59-.16-1.65,0-1.89.05-.08,1.12.16,1.55-.32.48-.56.21-1.44.35-1.55s1.76-1.79,1.89-1.89c.35-.29,3.6-1.76,3.76-1.89v-.08ZM319.37,876.83c-3.33-2.05-4.91,1.65-5.23,1.71-2.4.56-5.18-.61-7.6.32-.35.13-5.26,5.02-5.44,5.34-2.99,5.52,4.62,5.28,7.04,6.19,5.58,2.05,8.72,9.55,11.29,10.4,3.47,1.15,16.35-.69,16.99-4.06.37-1.97-1.81-10.03-2.72-12.11-3.82-8.75-9.87-2.05-12.35-3.63l-2.03-4.16h.05Z"></path><path class="cls-5" d="M292.16,855.94h-.93v-2.83c.21.64.88,2.69.93,2.83Z"></path><path class="cls-7" d="M540.17,947.43c6.75-.96,4.4.64,6.32,2.8,2.69,3.07,6.75,5.63,9.71,8.51-.93.67-7.76,7.02-8.03,7.52-2.24,4.56,3.44,10.22,6.56,13.29,2,1.97,16.27,14.41,18.44,12.19.61-3.25-1.15-5.9-2.83-8.48-2.48-3.25,1.07-2.27,1.65-5.36,1.55-8.22-3.6-5.74-9.2-4.06-1.81-1.95-4.88-4.06-7.1-5.66-1.01-.96.48-.91.51-.96,2.91-1.15,10.54-.69,13.47,0,.24.05,2.29,2.77,3.49,3.79,4.32,3.71,12.94,11.07,16.97,13.21-4.24-.08-1.84,4.94-4.14,6.7-1.28.99-3.95.85-5.87,1.73-4.75,2.13-8.67,4.83-14.51,7.15-1.55.61-3.9.59-5.12,1.47-1.65,1.17-1.23,3.23-1.6,3.58-1.31,1.17-5.71-1.97-4.59,2.96-.59,0-2.19.91-3.76.93l-.45-3.76-42.9,7.52c-.05-.32-1.01-1.17-.93-1.89,1.81-.8,2.08-1.65,2.61-1.84.85-.32,2.67.27,3.01-.05s-.27-2.16.08-3.01c.64-1.63,1.2.27,1.84-4.51.45-.16,1.28.13,1.89,0,.08-.61-.08-1.28,0-1.89s-.03-1.28,0-1.89c.05-.93,0-1.89,0-2.83v-.93c-.16-2.75-.19-3.07-.93-5.66-.24-.77.61-2.11-.56-2.91-.83-.53-4.86-1.68-6.03-1.81v-2.83c1.44-.13,2.85-.85,5.07.08.96-.16.48-1.39.59-1.95h1.89c4.59.05,5.95-1.47,9.02-1.84,7.55-.88,27.77,2.19,11.74-9.47-.67-2.51-2.61-2.75-3.23-4.75-.77-2.51.69-7.02-2.43-6.59v-2.83c3.28-1.95,5.76-4.14,9.42-5.66h-.08Z"></path><path class="cls-6" d="M505.27,334.48l-111.62-41.59c-2.77-1.41-.64-3.82-.59-6.03.11-3.6-.08-7.23,0-10.83l107.49,39.14c1.73,1.44.69,7.31,1.17,10.16.53,3.33,3.07,5.92,3.55,9.18v-.03Z"></path><path class="cls-24" d="M561.86,844.63c3.47-.64,1.39,4.03,1.89,5.66.48.48,9.63-.45,11.61,0,.72.16.59,1.68,1.28,1.84,3.04.67,6.3-1.44,8.4,2.24,4.16,7.26-.37,16.03,9.79,20.89l-1.89,1.97c-.91,3.2,1.39,2.93,1.79,3.95,2.11,5.2,8.59,21.26,13.95,22.62,1.04.27,1.71-.67,2.19-.75-5.47,5.87-11.5,11.1-16.97,16.97-5.87-.45-10.35-2.77-16.57-1.95-2,.27-5.74,1.47-9.84,1.95-.59-3.28,3.01-1.41,5.02-2.05,4.43-1.41-2.96-6.32-3.79-7.68-.56-.93-1.95-6.16-2.51-6.94-1.09-1.55-5.15-5.04-6.3-1.25v-.93c0-18.89,1.76-37.59,1.89-56.59l.05.05ZM578.43,879.13c2.37-3.87,4.24-8.14,6.08-12.3-1.65-2.53-4.32-1.15-6.16.43-2.08,1.81-12.27,16.01-12.67,18.49s-.29,5.6,2.85,4.72c2.56-.72,8.3-8.72,9.9-11.34ZM592.03,888.01c-2.08-.29-3.17.05-4.78,1.33-1.17.93-8.16,11.23-9.36,13.26-2.75,4.7-8.22,14.17.91,13.63,2.08-8.14,7.52-16.01,11.47-23.69.59-1.15,2.85-1.23,1.76-4.54h0Z"></path><path class="cls-6" d="M530.75,291.12v2.83c-9.79.51-18.94,8.08-28.55,7.31-28.79-11.82-58.21-22.09-87.13-33.54-1.23-.48-6.78-1.89-5.95-3.44.45-.88,13.66-5.31,15.31-5.04l106.34,31.91-.03-.03Z"></path><path class="cls-6" d="M552.41,301.47c-1.73,5.74-1.17,11.66-1.89,17.42-1.33,10.91-4.78,21.42-3.76,32.55l-29.21-11.34c-.05-3.04,1.92-4.72,1.95-7.98,0-3.98-4.06-17.13-2.48-19.4l35.4-11.26h0Z"></path><path class="cls-19" d="M492.09,981.36v.93c-1.15,1.07-1.73,2.96,0,3.76.21.11.61-.05.93,0,7.26,1.01,12.01,1.89,19.8,1.89l1.01,5.6,1.81.05v.93l-1.89,2.35,1.89.48c-.03.61.08,1.28,0,1.89h-1.89c-.11.61.08,1.28,0,1.89-4.03,1.31-1.97,3.49-4.06,5.39-2.45,2.21-4.75-.45-5.36,4.99-.03.32,0,.64,0,.93-4.22-.69-6.94,2.96-11.31,1.89-3.79-4.27-4.83-9.36-9.26-13.07-.4-.35-.27-2.35-2.05-.61-3.74,3.6,3.47,15.77,5.68,19.34l-1.87,3.74c.4-2.93-2.35-1.15-3.9-2.45-1.41-1.2-2.08-5.04-1.79-6.94-.77-.91-6.35,4.88-7.52-1.44-.29-1.63-.77-9.47-.67-11.21.13-2.37,2.35-2.32,2.53-3.09.48-2.32-.24-5.28.24-8.08.99-5.6,3.28-3.58,5.39-4.96.69-.45.91-1.33.99-1.39,1.28-.64,2.45-1.25,3.76-1.89,3.9-1.87,3.82-1.09,7.55-.93h-.03Z"></path><path class="cls-12" d="M445.89,988.91l1.89-6.59c2.45-.99,1.49,1.68,2.48,1.89,1.92.43,4.54-.43,6.51-.08,3.25.59,5.84,3.07,9.84,1.95.03.08,1.25-.27,1.65.24.43.56.53,4.96,3.07,5.42.11-1.17,2.51-7.34,2.83-7.55.75-.45,5.15.32,6.59,0-.11.05-.29.93-.99,1.39-2.11,1.39-4.4-.67-5.39,4.96-.48,2.8.24,5.76-.24,8.08-.16.77-2.4.72-2.53,3.09-.11,1.73.37,9.58.67,11.21,1.17,6.32,6.75.53,7.52,1.44-.29,1.89.4,5.74,1.79,6.94,1.55,1.31,4.3-.45,3.9,2.45l1.87-3.74c.85,1.41,5.18,8.7,5.63,8.99,1.63,1.09,4.43.93,3.82-1.44h1.89v1.87c2.88.56,2.88-2.43,0-1.87v-1.87c7.71-.51,5.34-7.71,5.66-13.21,0-.32-.03-.64,0-.93.64-.29,1.25-.67,1.89-.93-.08.72.91,1.57.93,1.89.27,1.71-.16,3.84,0,5.66.43,4.46,1.41,8.59.93,13.21-.61.08-1.25-.08-1.89,0v1.89c-1.04.72-6.19-1.65-5.71,1.84l-1.36.08-.48-1.89h-13.21s.4-1.63-.61-1.89c-1.6-.43-6.24.48-6.94,0-.08-.05.29-1.15-.24-1.68-.43-.43-1.57-.11-1.65-.21-.16-.24-.37-3.87-1.33-5.79-.75-1.49-1.95-1.65-2.16-2.05-.88-1.57-1.12-7.12-5.02-4.86v8.91c-.59.13-1.44-.16-1.87,0,2.59-9.31-.75-24.41-5.34-32.9-1.71-3.17-3.39-5.18-6.96-2.29-.24,11.77,2,27.19,11.37,35.22-.16.16.77,3.04-3.12,1.87-.61-.19-.61-1.39-.96-1.55-1.07-.48-2.4-.16-3.15-.64-2.4-1.55-1.71-3.55-2.53-5.02-1.17-2.11-4.19-4.22-3.49-7.82l-5.6-.05,4.7-3.76-5.52-.13-1.09-5.52-.93,5.66c-.91-.08-1.92.13-2.83,0-.67-1.89,1.71-1.76,1.87-2.53.45-2.16-.61-4.78.43-6.96l7.18-2.45c.88-4.43-.93-5.15-3.82-7.87l.08-.05Z"></path><path class="cls-11" d="M559.03,935.15c4.08-1.55,7.39-.8,11.74-1.01l.53,2.88c1.55.4.43-1.63,1.55-1.89,1.47-.37,5.76-.45,6.94.96-.16.32-1.01,4.72-.96,5.2l1.57,2.27c3.63,1.01,5.28-2.77,5.63-2.8,1.68-.16,3.28,1.68,5.52,1.97,8,1.15,18.62-.93,26.92-.05-.21.03-1.04.88-2.29.99-3.23.29-6.72-.29-9.98-.03l7.52.93-6.59,2.83c-2.67-.8-11.34-3.52-13.21-2.37-4.54,2.77.19,6.46,2.83,8.03l-3.82,1.39c-.51,1.57-3.41,5.23-3.71,5.95-.35.88.21,2.75-.05,3.01-.43.45-4.86-.93-5.66.96-1.04.21-3.25,2.48-4.43,2.64s-4.35-3.04-6.8-1.63l.88,5.58c-1.2-1.01-3.23-3.74-3.49-3.79-2.93-.67-10.56-1.12-13.47,0,2.61-4.08,16.22-5.76,15.1-13.21-5.15-.69-10.94,1.79-15.1,4.72-2.96-2.88-7.02-5.44-9.71-8.51-1.89-2.16.43-3.76-6.32-2.8,3.6-1.49,10.08-4,13.74-4.64,6.08-1.09,16.73,1.73,16.43-7.6h-11.31v.03Z"></path><path class="cls-6" d="M402.51,933.26c16.22,11.26,32.17,22.28,48.1,33.94-.32,4.08-5.23,3.95-8.48,3.76-.64-.67-.88-.93-1.89-.93.56-1.71-7.15-9.87-7.76-10.08-1.73-.61-3.25.05-4.78-.29-.72-.16-.59-1.68-1.28-1.84-2.24-.53-5.42.29-7.84,0-.29-3.63-6.46-7.58-9.44-4.27-2.53,2.83-.03,5.9,0,8.03-1.15,0-2.51,2.91-2.83,3.76-.61.08-1.28-.08-1.89,0-.53.08-1.23-.27-1.73.13l-1.01,3.07-2.93.59c-2.59-7.95,3.68-8.51,5.31-11.63,2.43-4.67,2.35-10.94,2.29-16.09l-3.84-1.52c-.03-.32,0-.64,0-.93-.08-1.87.05-3.79,0-5.66l.03-.03Z"></path><path class="cls-15" d="M329.89,833.32c1.55,5.34,2.99,13.31,10.38,12.25-.03,8.8-.59,18.7,0,27.35-.91.56-.53,2.67-1.87,1.31-1.23-1.23-6.8-6.56-7.26-7.26-.29-.45-1.49-3.07-2.13-4.24-.35-.61.29-2.21-.24-2.85-.24-.29-1.52-.05-2.24-.53-.43-.27-.48-1.33-1.09-1.47-2.45-.59-11.93,1.17-12.51-1.47-.48-2.11,6.08-3.28,7.23-4.46.85-.88,1.12-3.12,3.12-5.44,1.07-1.23,3.2-1.2,2.88-4.19-.05-.59-7.63-6.46-5.71-9.95,3.6,1.49,5.42,2.77,9.42.93l.03.03Z"></path><path class="cls-22" d="M593.93,920.08c-2.83,3.04-12.73,13.29-14.14,16.03-1.17-1.41-5.47-1.33-6.94-.96-1.09.27,0,2.29-1.55,1.89l-.53-2.88c-4.35.21-7.66-.56-11.74,1.01-1.39.53-2.53,2.53-4.72,1.89,1.84-3.2,1.31-6.78,2.11-9.68.37-1.33,1.41-2.51,1.65-3.49.05-.21.69-.83.93-1.89,3.25-.05,5.02-1.47,8.48-1.89,4.08-.51,7.82-1.71,9.84-1.95,6.22-.83,10.67,1.49,16.57,1.95l.03-.03Z"></path><path class="cls-8" d="M355.36,895.56c1.52,1.17,1.76,1.79,1.89,1.89-.21-.21-.96.13-.93.48.08,1.04,1.39-.03.93-.48,1.47,1.09,3.63,2.27,5.66,3.76-.21-.21-.96.13-.93.48.08,1.04,1.39-.03.93-.48,4.14,3.09,14.33,8.48,16.97,11.79,1.55,1.95.45,3.74,1.15,4.99s19.42,13.85,21.48,15.29c.05,1.87-.08,3.79,0,5.66l-9.74-9.12c-3.9-.91-7.1-3.55-11.5-4.11-1.68-.21-3.87-.72-3.28,1.92-.88,0-2.08-.16-2.83,0-1.41-2.03-.85-6.3-3.76-5.66-.08-.59.11-1.31,0-1.89-.72-4.11-2.64-3.52-2.83-3.76-.93-1.23-2.72-4.51-4.06-5.36-.27-.16-4.62-1.89-5.36-2.19.83-6-1.55-2.91-4.96-3.82-.51-.13-1.52-2.03-2.59-2.32l3.79-7.07h-.03Z"></path><path class="cls-16" d="M463.79,976.64l-.93,1.44c2.88.91,2.61,5.79,3.79,8-4,1.12-6.59-1.33-9.84-1.95-1.97-.35-4.59.51-6.51.08-.99-.21-.03-2.88-2.48-1.89l-1.89,6.59c-.16-.16-1.71.51-1.92-.59-.16-4.94.67-10.7-.91-15.45h13.21v-1.89c2.53,1.87,5.02,3.79,7.55,5.66h-.05Z"></path><path class="cls-23" d="M344.03,887.05c.77.85,9.42,7.02,11.31,8.48l-3.79,7.07c1.09.32,2.08,2.19,2.59,2.32,3.41.91,5.82-2.19,4.96,3.82-7.44-2.99-14.46-4.83-22.62-3.76l.88-5.26,6.67-12.67h0Z"></path><path class="cls-6" d="M530.75,955.91v5.66c-1.01.08-2.27-.24-3.17.08-8.27,2.69-11.63,6.67-13.79,15.02-5.68,2.67-8.83-1.39-13.21-3.76.16-.05.51-1.52,1.57-1.76,2.53-.56,7.63,3.33,5.12-3.82,8.11-4.27,15.63-9.58,23.5-14.22v2.83l-.03-.03Z"></path><path class="cls-11" d="M494.92,975.71s1.07.85,2.29.99c1.49.16,3.15-.32,4.59,0,.61.13.67,1.39.96,1.49,1.63.64,3.79.16,4.4,2.24-5.07.53-9.95,1.15-15.1.93-3.71-.16-3.66-.93-7.55.93,1.68-2.99,7.02-6.62,10.38-6.59h.03Z"></path><path class="cls-24" d="M463.79,976.64c1.41,1.04,3.17,2.85,4.08,3.47,1.47.99,4.67.93,6.3,4.08-.35.21-2.72,6.35-2.83,7.55-2.53-.45-2.64-4.88-3.07-5.42-.4-.51-1.6-.16-1.65-.24-1.15-2.21-.91-7.1-3.79-8l.93-1.44h.03Z"></path><path class="cls-24" d="M500.58,972.88c4.38,2.37,7.5,6.43,13.21,3.76-.13.53.13,1.31,0,1.89s.35,1.79-.59,1.95c-2.21-.91-3.63-.21-5.07-.08-.32.03-.64-.03-.93,0-.61-2.08-2.77-1.6-4.4-2.24-.29-.11-.35-1.36-.96-1.49-1.47-.32-3.09.19-4.59,0-1.23-.13-2.16-.99-2.29-.99,1.44-2.43,3.84-2.11,5.66-2.83l-.03.03Z"></path><path class="cls-24" d="M450.58,967.22c1.57,1.15,3.66,2.29,5.66,3.76v1.89h-13.21c-.08-.21-.88-1.81-.93-1.89,3.25.16,8.16.29,8.48-3.76h0Z"></path><path class="cls-24" d="M559.03,921.95c-.24,1.07-.88,1.68-.93,1.89-.48-5.74.48-11.31.93-16.97h.93c.11,5.34.4,9.26-.93,15.1v-.03Z"></path><path class="cls-22" d="M559.96,902.15c0,1.57-.03,3.15,0,4.72h-.93c.13-1.79-.72-4.62.93-5.66v.93Z"></path><path class="cls-15" d="M340.26,835.19c.05-1.04-.29-2.37.93-2.83-.05,1.04.29,2.37-.93,2.83Z"></path><path class="cls-20" d="M617.48,900.26c2.32,5.95-4.48,10.11-7.55,15.1l-.93.93c-.05.27,0,.64,0,.93-2.77-.69-2.8,3.55-3.76,4.72-.85,1.04-3.41,1.87-4.72,3.31-.75.85-6.32,7.42-5.66,8,7.1-2.37,13.93-5.44,21.69-3.76.05,1.25-.05,2.53,0,3.79,5.74-.77,10.56,1.31,16.06,2.32,2.48,1.57-1.12,3.52-1.89,5.2-3.28-1.6-6.24,1.81-6.59,1.89-.8.19-1.97-.16-2.83,0s-1.92-.11-2.83,0c-8.32-.88-18.94,1.2-26.92.05-2.24-.32-3.84-2.16-5.52-1.97-.32.03-2,3.79-5.63,2.8l-1.57-2.27c-.03-.48.8-4.88.96-5.2,1.41-2.75,11.31-12.99,14.14-16.03,5.47-5.87,11.5-11.1,16.97-16.97.32-.05.69.08.93,0,2.27-.72,3.63-1.81,5.66-2.83v-.03Z"></path><path class="cls-27" d="M596.76,972.88c.24,2.21-1.2,2.85,1.41,3.79s6.46,1.41,8.91,2.43c2.16.88,2.59,2.96,4.78,3.2.37,2.85,1.41,6.43,3.76,8.19l.11,2.61c-1.25,2.08-1.36,5.52-2.03,7.31s-2.96,3.68-3.68,4.51h-1.89c-.13.53.16,1.73,0,1.89-4.86,4.32-44.37.88-52.8.93,6.22-3.04,19.24.91,24.86-1.07,1.89-.67,1.01-3.92,3.44-5.98,4.24-3.63,9.71-3.98,14.38-5.26.59-.16,4.78-5.2,8.11-3.84l1.73-9.07c-2.59-2.85-6.35-2.64-10.11-3.07-.8-.8-13.26-7.98-6.35-7.31,1.81.16,3.15.8,5.42.72h-.05Z"></path><path class="cls-27" d="M609,917.23c0,.77.88,4.62,1.52,4.78,1.47.05,3.17-.37,4.56,0,2.51.64,10.03,3.63,11.31,3.82,2.75.37,5.82-.27,8.48-.91.45,2,4.75,6.24,4.96,6.75.72,1.57,1.52,6.14,2.27,8.4.29.83,1.57.8,1.73,1.44.96,3.98-.59,6.51-1.97,9.84-1.79,4.32-5.95,6.54-7.42,9.28-1.39-1.07-3.28-2.96-4.72-3.76,3.9-.45,3.44-6.75,2.8-9.71-.21-.99-4.3-1.15-1.87-6.32.8-1.68,4.38-3.63,1.89-5.2-5.5-1.04-10.32-3.12-16.06-2.32-.05-1.25.05-2.51,0-3.79-.03-.93.05-1.89,0-2.83l-4.22.08-.59-2.77-6.51-2c.99-1.17.99-5.42,3.76-4.72l.05-.05Z"></path><path class="cls-20" d="M607.13,947.43c6.99,2.08,16.33,5.82,22.62,9.42,1.41.83,3.31,2.69,4.72,3.76-.24.45.37,2.37-.05,2.75-.45.4-4.32.05-5.6.08-.93,0-1.89.03-2.83,0-6.11-2.35-12.35-3.01-18.65-5.39-2.8-1.07-8.03-3.47-10.56-4.99s-7.39-5.26-2.83-8.03c1.87-1.15,10.54,1.57,13.21,2.37l-.03.03Z"></path><path class="cls-4" d="M626.93,965.33c-.13.24.19,1.12-.24,1.6-2.72,2.91-15.58,3.87-16.3,4.94-2.61,3.82,1.36,6.06,1.44,6.4.35,1.25-.13,2.77,0,4.03-2.16-.24-2.59-2.32-4.78-3.2-2.45-1.01-6.22-1.44-8.91-2.43s-1.17-1.57-1.41-3.79c2.35-.11,5.63-1.07,7.76-1.95,1.15-.48.64-1.76.72-1.81.88-.53,6.78.45,8.78,0,.72-.16.59-1.68,1.28-1.84,2.16-.51,4.94.43,7.18-.05.4-.08,1.55-3.28,4.43-1.87l.05-.03Z"></path><path class="cls-23" d="M626,963.43c.93.03,1.89,0,2.83,0-.56.61-1.47,1.2-1.89,1.89-2.88-1.41-4,1.79-4.43,1.87-2.24.45-5.04-.45-7.18.05-.72.16-.59,1.68-1.28,1.84-2,.48-7.92-.51-8.78,0v-.93l.99-6-1.97-1.07,1.52-2.35c6.8,2.56,12.86,4.38,20.2,4.7h0Z"></path><path class="cls-24" d="M611.83,903.09l3.82-4.64,1.84-.05c.13.59-.16,1.47,0,1.89-2.03,1.01-3.39,2.11-5.66,2.83v-.03Z"></path><path class="cls-27" d="M609,916.29l.93-.93c-.24.37-.91.77-.93.93Z"></path><path class="cls-27" d="M255.4,849.35c1.25-4.8,4.4-8.38,3.82-13.47-7.79-4.94-13.1-7.47-11.29-18.06,1.41-8.24,9.15-10.75,15.77-14.35,2.45-1.33,5.04-2.93,7.6-3.98,5.26-2.11,10.94-2.85,16.73-2.08.29.03,4.86,1.81,5.12,1.95.32.16.24,3.41,5.6,1.95-.29,1.65.48,2.48.99,3.71,2.11,5.04,4.96,9.12,6.59,14.14-5.6-3.23-8.88-12.3-16.01-11.31-.91,3.36,2.08,5.15,2.83,6.59-1.28.29-3.87,1.04-4.72,1.89-3.17-.77-5.39,1.25-8.06,1.84-1.76.37-4.67-.51-5.9.24-.43.24-.56,1.65-1.12,2.16-.83.75-2.4,1.25-2.61,1.65-.75,1.25-1.71,6.43-2.11,7.31-.05.13-1.76,1.76-1.89,1.89-.27.24-2.56-.53-1.89,1.89-.16.24.05,1.31,0,1.89-3.63-.48-1.33,5.68-1.89,7.87-.19.75-1.95.53-1.92,1.09.05,2.51,8.35,16.65,5.71,19.32-3.17,1.57-7.55-1.89-8.96-1.89-1.09,0-2.32,1.47-3.84,1.81-2.59.61-5.87-.69-7.47,2.91-.64,1.44-.16,2.99-.56,3.98-.32.85-1.63.69-1.79,1.36-.59,2.45.24,6.3-.05,9.2-.13,1.36-1.84,2.45-1.68,3.63.24,1.73,7.98,12.03,9.52,12.62,1.39.53,2.27.19,3.49.29l-.93,3.76c-1.97-.8-5.6,1.31-6.59-3.76-.11-.56.11-1.28,0-1.89h-3.79c1.28-5.04-5.04-4.4-3.79-9.42-.61-.16-1.31.08-1.87,0-.05-1.04.19-2.08,0-3.12-.35-1.12-1.49-.48-1.89-.67-.37-2.72-1.65-1.6-1.89-1.89-.29-.37.56-2.51-1.89-1.89-.19-.51.21-1.71,0-1.89v-1.89h-1.89c-.03-.29,0-.64,0-.93.11-1.95,0-2.4.88-4.3,1.01-2.27,9.31-12.89,11.34-15.07,5.36-5.82,5.76-2.77,12.3-2.32.16-.88-.19-2.08,0-2.83l.03.08Z"></path><path class="cls-4" d="M230.88,873.87l-5.31-6.94c-2.05-6.64-6-9.87-3.9-17.82.13-.56,5.31-9.34,5.76-9.79,4.24-4.3,4.48-1.12,6.08-.43,5.58,2.51,11.29,4.94,15.98,7.9,1.47.91,1.23,5.12,5.9,2.59-.19.75.16,1.95,0,2.83-6.54-.48-6.94-3.49-12.3,2.32-2.03,2.21-10.32,12.81-11.34,15.07-.85,1.89-.77,2.35-.88,4.3v-.03Z"></path><path class="cls-20" d="M258.23,897.43c7.02.24,14.11-.27,21.13.08l24.12,5.58c.67,2.8,4.27,6.4-1.44,7.52-6.7,1.28-25.85-3.12-33.46-4.7-.29-.05-.64.05-.93,0-.8-1.52-3.2-.88-4.72-.93-1.25-.35-2.53-.56-3.76-.93-1.31-.43-3.33-2.27-4.72-2.83l.93-3.76c.93.05,1.89-.03,2.83,0l.03-.03Z"></path><path class="cls-4" d="M232.77,878.57c2.45-.64,1.6,1.52,1.89,1.89.24.29,1.52-.85,1.89,1.89.4.19,1.55-.45,1.89.67.16,1.04-.05,2.08,0,3.12.56.11,1.25-.16,1.87,0-1.25,5.04,5.07,4.38,3.79,9.42h3.79c.11.61-.11,1.33,0,1.89-2.08,1.33-8.7-2.67-9.15-4-.75-2.27-.19-4.94-.29-7.31-.56-.11-1.28.11-1.89,0-.16-1.23.16-2.59,0-3.79-2.8-1.23-1.39-1.41-1.89-1.89-.64-.61-.69,1.31-1.89-1.89h0Z"></path><path class="cls-4" d="M230.88,874.81h1.89v1.89c-.69-.64-1.41,1.6-1.89-1.89Z"></path><path class="cls-16" d="M377.99,927.6c-.59-2.64,1.6-2.13,3.28-1.92,4.4.56,7.6,3.2,11.5,4.11l9.74,9.12c0,.32-.03.64,0,.93.37,3.82,1.65,2.64,1.87,3.49,1.95,8.14-2.45,11.37-7.52,16.33-.53.53-1.39,1.39-1.89,1.89-1.36,1.33-3.52.64-4.94,4.96-1.31,3.92-2.96,16.03-5.44,19.08-1.23,1.49-4.7,1.89-5.39,2.64-.8.83-.13,3.66-2.61,3.55l-2.37-.67c-.64-3.2-1.09-3.92-3.76-5.02-.21-1.09.19-2.59,0-3.79-.61-.08-1.31.11-1.89,0-.11-.91.11-1.89,0-2.83h-1.89c-.32-1.71-1.52-5.84-2.16-7.74-3.01-9.04-6.86-3.39-9.02-4.62-.45-.27-.48-2.77-2.67-3.49-6.51-2.08-8.64,6.96-12.03,7.42-1.89.27-4.19-.24-6.16-.05,1.36-6.3-5.55-4.67-9.18-5.95-.53-.19-7.63-7.39-7.76-7.95-.29-1.39.27-2.96-.05-4.32-.16-.77-1.71-.24-1.95-2-.29-2.27.08-5.58.08-8.08l4.06,9.12c3.25,1.73,7.58,2.48,10.62,4.48,4.32,2.85.16,7.95,9.36,7.15,4.7-.4,6.08-3.6,9.95-5.36-.35-2.67.35-5.87,0-8.4-.21-1.73-1.76-1.23-1.95-2-.48-2,.24-4.75,0-6.91.93-.05,1.89.05,2.83,0-.53,2.85,1.44,1.81,3.25,1.89,3.63.13,7.28-.08,10.88,0,1.79,1.79-3.95,28.95,5.18,31.11,2.64-2.19.64-6.19,2.29-8.8.93-1.47,6.99-2.88,7.44-3.63.4-.64,1.57-6.91,2.64-9.15,1.25-2.59,6.88-8.67,7.02-10.06.27-2.72-2.53-3.36-2.91-5.66-.4-2.45,1.04-4.56.91-6.94-3.33-1.68-5.66-2-9.36-1.97l.03.03Z"></path><path class="cls-3" d="M325.19,912.53l3.76,2.83-5.63,1.52c-.16.61.91,1.2.93,1.31,0,.61-.11,1.33,0,1.89.11.51-2.16-.35.93,1.89-1.47,4.14,4.16,3.82.93,9.42l2.72.08c.67,4.48,3.63,8.54,5.76,12.73,1.79-.8,7.95-1.47,8.56-1.89,1.01-.72.37-3.12,1.44-3.41,1.89.88,9.26-1.89,8.86,1.95-.93,0-1.89-.05-2.83,0s-1.89-.05-2.83,0c-.61.03-1.25-.05-1.89,0,1.33,5.44-2.88,15.74-9.68,14.01-4.35-1.65-4.4-8.78-6.75-11.23s-8.78-2.32-11.66-4.83c.29-2.19-.91-4.32-1.15-5.47-.21-1.09.13-2.59,0-3.76,2.59-4.27,3.52-12.65,6.54-16.38.77-.96,1.87-.51,1.95-.59l.03-.05Z"></path><path class="cls-26" d="M316.68,933.26c.24,1.15,1.44,3.25,1.15,5.47,2.88,2.53,9.26,2.35,11.66,4.83,2.4,2.48,2.4,9.58,6.75,11.23,6.83,1.73,11.05-8.56,9.68-14.01.61-.05,1.25.05,1.89,0,.27,2.16-.45,4.88,0,6.91.19.77,1.71.24,1.95,2,.32,2.53-.37,5.74,0,8.4-3.84,1.79-5.23,4.99-9.95,5.36-9.18.77-5.02-4.32-9.36-7.15-3.04-2-7.36-2.75-10.62-4.48l-4.06-9.12c0-3.07-.72-6.91.93-9.42l-.03-.03Z"></path><path class="cls-10" d="M396.85,959.67v1.89h-1.89c2,6.11-3.31,15.07-1.71,20.09.93,2.88,1.76.35,1.71,5.36,0,1.01-.21,4.35,0,4.72-2.93,1.23-7.5,4.54-10.67,3.79-.69-.16-.56-1.71-1.28-1.87-6.35-1.44-10.67,2.05-12.57-7.55-.43-.19-1.55.43-1.89-.67-.24-1.01.13-2.13,0-3.12-.59-.08-1.28.11-1.89,0-.13-.91.16-2,0-2.83h1.89c.11.93-.11,1.92,0,2.83.59.08,1.28-.11,1.89,0,.19,1.2-.21,2.67,0,3.79,2.67,1.09,3.12,1.81,3.76,5.02l2.37.67c2.48.13,1.81-2.69,2.61-3.55.69-.75,4.16-1.15,5.39-2.64,2.48-3.04,4.14-15.13,5.44-19.08,1.41-4.32,3.57-3.63,4.94-4.96.51-.51,1.36-1.36,1.89-1.89h0Z"></path><path class="cls-18" d="M398.72,993.61c-.48-.19-1.57.21-1.89,0-.08-.05.13-1.04-.35-1.55s-1.52-.27-1.55-.35c-.21-.35,0-3.71,0-4.72,2.45-2.24,16.54,1.41,17.5,2.77.67.91.67,3.12.29,4.19-1.2,3.58-11.21.75-14.03-.35h.03Z"></path><path class="cls-5" d="M267.67,905.91c-1.68-.37-2.64-.35-4.72-.93,1.52.05,3.92-.59,4.72.93Z"></path><path class="cls-26" d="M293.12,856.88c-.27,1.41.05,1.84.93,2.83.99,1.07,3.36,1.92,3.76,3.76-2.19.11-4.4-.11-6.59,0v-7.55h.93c.24.45.83.72.93.93l.03.03Z"></path><path class="cls-26" d="M283.68,820.11l-6.59,7.98c1.65,3.33,8.64,5.68,10.35,7.58,1.28,1.41.69,4.43,2.35,5.2,3.09,1.41,2.32-2.37,3.52-3.55,1.97-1.95,7.82-.48,10.56-2.13l.75,1.71,4.51-.72c.96.91,2.08,2.16,2.83,2.83.08,3.6-5.92.8-5.68,5.66l-3.76-1.49-4.7,7.15c-4.59-3.68-8.96-4.32-6.59,2.83v2.83l-5.07,1.92c-2.29-2.59-6.19-4.86-8.03-8.22-1.23-2.24-.03-3.58-.77-5.66-.96-2.69-4.51-4.75-4.91-5.76-1.23-3.04-.37-7.39-.05-10.59.13-.11.99.19,1.63-.29,1.07-.8,5.63-6.75,6.19-6.96,1.36-.56,2.27-.19,3.49-.29h-.03Z"></path><path class="cls-12" d="M295.02,820.11c2.03,2.88,4.3,5.36,6.64,8.03,2.35,2.67,4.59,5.23,7.52,8l-4.51.72-.75-1.71c-2.75,1.65-8.59.19-10.56,2.13-1.2,1.17-.43,4.96-3.52,3.55-1.65-.75-1.07-3.76-2.35-5.2-1.73-1.89-8.7-4.24-10.35-7.58l6.59-7.98h.93c3.44-.16,6.94.11,10.38,0l-.03.03Z"></path><path class="cls-26" d="M293.12,814.46c.32.61.61,1.28.93,1.89l.93.93c.21.69-.16,1.97,0,2.83-3.44.11-6.94-.16-10.38,0v-1.89c5.07.88,3.36-1.47,3.76-1.89.85-.85,3.41-1.6,4.72-1.89l.03.03Z"></path><path class="cls-12" d="M295.02,817.29l-.93-.93s.69.19.93.93Z"></path><path class="cls-23" d="M396.85,961.57c0,2.48-.48,6.72,0,8.78.11.43,3.15,1.41,1.89,4.4h3.74l1.89-3.76c-.19,4.62-.21,5.18-1.89,9.42-.61,0-1.25-.05-1.89,0-.27,1.97-.08,2.13,1.87,1.87.13-.59-.16-1.47,0-1.87,7.12-.19,5.2,4.4,7.55,6.11,1.12.83,3.23.51,4.51,1.15,1.15.56,1.04,2,1.79,2.16,3.68.83,13.61.53,16.81-1.87l1.41,3.76v1.89l-.88,1.41c0,.77.88,1.25.88,1.41.05,1.57-.03,3.15,0,4.72l-.48.91c.27.48,1.39.83,1.41.99.16.99.11,2.72,0,3.76-.51,5.39-.83,7.04.91,12.57.27.88,2.35.69,3.71,2.13,1.87,2,2.83,7.04,4,9.66h6.32l1.2-3.49c4.78-1.92,6.27,2.61,10.03,3.36,8.75,1.76,7.6-5.12,9.18-5.42,3.47-.64,2.53,2.24,3.63,3.52.43.51,1.47.19,1.57.29,1.09,1.23,1.09,1.09,1.89,1.89.13.13,1.01,3.15,2.13,3.47,1.79.53,3.25,0,4.72.32,1.09.24,1.97,3.55,3.95,3.79,6.43.83,12.65.67,17.18-4.11.53-.56.16-1.49.29-1.63.56-.61,1.55,1.6,1.89-1.89.61-.08,1.28.08,1.89,0,.24-4.38-.16-8.83,0-13.21h-2.83c-.16-1.81.27-3.95,0-5.66l42.9-7.52.45,3.76c-6.64.13-7.74.64-12.91,1.87-2.61.61-6.48-.4-9.31-.03-3.74.51-7.76,3.39-12.67,1.95l2.69,10.64c-4.35,5.2-1.12,7.23-8.35,8.22-.13,2.29.75,3.31-1.87,4.4v1.25c-3.01,1.6-5.98,5.02-8.24,7.5h-14.41c-.08-.59.11-1.25,0-1.84-.51-3.15-1.87-1.57-4.48-3.47-1.63-1.17-4.8-5.82-6.32-6.03l-9.26.11c-.64.13-3.87,4.75-4.75,5.31-.69.45-2.05.19-3.17.61-.32.13-.35,1.39-.96,1.55-1.41.35-6.56.29-8.08,0-1.68-.32-3.36-5.28-3.63-5.5-.85-.64-4.19.19-5.82-.13-.24-.05-3.39-3.01-3.52-3.2-3.52-4.91,3.55-12.81-9.55-7.98-.8.29-.77,1.44-1.52,1.68-2.91.91-6.94.96-9.84,0-.61-.21-.64-1.25-1.55-1.68-.64-.32-1.95.11-2.67-.4-.91-.61-5.1-6.51-5.63-7.55-.77-1.49-3.82-9.1-4.03-10.56-.43-2.93.51-6.59-.05-9.2-.19-.8-2.53-.64-1.87-2.53,2.83,1.09,12.83,3.92,14.03.35.35-1.07.35-3.28-.29-4.19-.96-1.36-15.07-5.02-17.5-2.77.05-5.04-.77-2.48-1.71-5.36-1.6-5.02,3.68-13.98,1.71-20.09h1.89,0Z"></path><path class="cls-10" d="M597.69,979.47c3.74.43,7.52.21,10.11,3.07l-1.73,9.07c-3.33-1.36-7.52,3.71-8.11,3.84-4.7,1.25-10.16,1.63-14.38,5.26-2.43,2.08-1.55,5.34-3.44,5.98-5.63,1.95-18.68-1.97-24.86,1.07h-.93c-1.12-4.94,3.28-1.79,4.59-2.96.37-.35-.08-2.37,1.6-3.58,1.25-.88,3.6-.85,5.12-1.47,5.84-2.29,9.76-4.99,14.51-7.15,1.92-.85,4.59-.75,5.87-1.73,2.29-1.76-.11-6.78,4.14-6.7,2.27,1.2,8.06,2.72,10.38,1.44,1.55-1.12.32-1.39-.37-2.51-.24-.4-2.32-3.47-2.48-3.63Z"></path><path class="cls-2" d="M293.68,472.54c1.89,1.12,3.92,3.63,6.78,5.02,8.27,3.98,17.58,3.71,24.94,9.68,1.87,1.52,2.21,3.68,5.2,5.44,11.34,6.67,24.52,3.41,34.5,9.82,2.91,1.87,4.24,4.67,7.79,6.35s8.03,2.05,11.66,3.44c9.12,3.52,18.17,5.31,16.06,17.42l11.61-.75c3.66,1.09,5.2,7.82,7.26,8.78,2.96,1.39,11.37.67,15.15,1.81s4.75,6.32,5.79,6.94c2.72,1.6,10.06-2.03,14.91,3.74,1.39,1.65,7.2,13.82,7.5,15.87,1.15,8.67-10.06,8.46-14.75,3.84-1.44-1.41-2.19-4.78-4.11-5.79-2.08-1.09-6.48-1.01-9.31-2.03-4.56-1.63-5.71-4.78-8.67-6.43-4.86-2.72-11.1-1.49-15.42-6.27-1.44-1.6-3.28-6.4-4.3-7.02-1.81-1.12-5.6-.16-7.98-.51-8.54-1.28-8.22-10.48-11.9-12.62-5.36-3.12-15.95-3.6-22.3-6.94-4.32-2.27-8.06-7.68-13.26-8.48-2.85-.45-4.67.85-7.23.8-4.46-.11-17.63-5.26-21.61-7.71-3.33-2.05-6-6.78-9.12-8.78-5.07-3.25-13.39-4.22-19.13-8.22-3.57-2.51-5.71-7.74-7.5-8.99-1.65-1.15-8.24-1.09-6.91-5.98,1.68-6.16,9.98-5.02,14.35-2.43v-.03Z"></path><path class="cls-2" d="M322.6,407.76c2.75,2.27,15.34,1.2,21.34,4.62,5.39,3.07,13.69,7.5,19.88,8.51,3.9.64,7.28-1.79,12.03.13,2.35.96,4.16,4.38,6.51,5.74,3.17,1.84,6.43,1.55,9.5,2.75,6.91,2.72,15.74,10.19,16.41,18.01,5.31-1.04,13.9,4.72,18.28,4.7s6.32-4.67,13.63-2.19c3.95,1.33,3.87,5.66,5.68,6.56s4.7.13,6.88.67c5.36,1.33,21.61,11.95,17.53,18.52-8.54,4.54-15.34-2.19-22.25-3.41-2.96-.53-5.82.19-8.78-.67-2.4-.67-5.02-4.19-5.34-4.27-3.15-.67-7.6.45-11.07-.08-2.61-.4-6.03-2.53-8.99-3.28-7.12-1.76-14.41-1.2-19.4-7.95-1.79-2.4-2.08-5.42-3.76-7.55-3.49-4.38-10.08-3.57-15.07-5.68-2.64-1.12-4.64-3.39-7.04-4.27-3.92-1.47-8.56-.83-12.3-1.84-.83-.21-12.94-6.59-14.97-7.66-1.47-.75-5.1-4.99-5.47-5.1-4.7-1.15-12.57-.8-17.21-2.43-3.2-1.12-6.8-6.91-7.31-7.04-2.53-.69-7.1.53-10.14-.03-2.59-.48-4.51-3.57-6.62-3.66-2.37-.11-3.87,2.37-7.04,1.36-4.83-1.57-5.58-6.22-4.64-10.72,1.97-1.28,4.78-.64,6.72-1.31,2.27-.77,4.43-4.27,7.84-4.48,5.39-.32,6.16,5.84,8.59,6.48s5.87-3.79,11.87-.64c2.96,1.55,3.15,4.86,4.7,6.14v.08Z"></path><path class="cls-2" d="M496.02,483.61c.05-.13,2.27-1.95,2.43-1.97,3.39-.75,9.58,2.75,13.98,2.83,10.67.21,12.06-3.23,22.97,3.36,4.48,2.69,9.68,8.8,14.01,10.51,4.99,1.97,9.95.91,15.66,3.2,6.62,2.64,23.98,15.95,29.83,21.08,1.55,1.36,9.39,8.88,9.87,9.92,4.03,8.75-7.04,8.38-12.43,6.8-9.07-2.67-22.89-18.84-32.9-22.73-5.04-1.97-9.44-.24-14.78-2.19-7.79-2.83-15.77-15.47-23.82-16.73-5.6-.85-8.48.72-14.27-2.69-2.08-1.23-8.32-7.18-9.74-9.12-.59-.8-1.28-.99-.77-2.27h-.03Z"></path><path class="cls-2" d="M537.05,602.57c-5.71-4.35-20.54-6.64-27-10.24-4.11-2.29-8.03-6.06-6.67-11.05.35-1.31,4.54-2.8,6.06-2.56,1.33.19,2.43,1.6,3.9,1.87,2.67.48,5.74-.37,8.38.11,5.82,1.04,23.21,5.9,27.43,9.34,2.75,2.24,7.47,10.19,8.91,10.89,2.45,1.2,8.19.16,11.58.69,9.12,1.41,11.47,7.42,17.18,12.99,3.98,3.87,12.83,7.5,10.7,14.41-6.64,7.87-17.53,2.08-23.88-3.12-2-1.63-2.59-4.24-4.91-5.47-6.7-3.49-18.62,1.95-25.59-6.46-2.21-2.67-3.82-9.63-6.08-11.37v-.03Z"></path><path class="cls-2" d="M585.2,666.58c3.23-.53,11.34,1.73,14.86,2.67,14.91,3.92,29.67,13.18,44.34,16.01,4.51.88,9.36-.99,12.78,4.27,3.12,4.8-8.64,12.14-12.91,12.67-7.68.99-8.38-2.69-13.55-4.22-10.51-3.07-11.9-4.59-21.21-8.96-5.58-2.61-25.67-9.74-27.43-14.99-1.12-3.31-.8-6.8,3.12-7.44Z"></path><path class="cls-2" d="M677.65,562.5c-.32.24-6.88,2-7.79,2.11-8.03.88-20.94.45-28.23-2.96-4.16-1.95-10.78-6.16-8.91-11.53s12.81-.27,16.43.24c5.71.8,26.12,1.68,29.19,6.7.77,1.28.32,4.75-.69,5.44Z"></path><path class="cls-10" d="M264.82,835.19c-.48,4.22,2,14.99,4.72,18.38,2.4,2.99,14.49,6.51,15.07,9.5.19.99-1.44,2-1.6,2.91-.29,1.52,1.23,4.08.67,5.98l-4.7-.93c-9.9-2.24-19.9-2.75-30.17-1.89-.77,3.2,2,3.63,3.76,4.72-2.67,2.93-3.74,7.76-2.8,11.61.16.67,1.57.56,1.79,1.36.43,1.55.93,7.9,2.08,8.59,1.33.83,5.2-.99,6.48,1.07-.8.05-1.63,0-1.89.93-.93-.03-1.89.05-2.83,0-1.25-.08-2.13.27-3.49-.29-1.55-.61-9.28-10.91-9.52-12.62-.16-1.17,1.52-2.24,1.68-3.63.29-2.91-.53-6.75.05-9.2.16-.67,1.47-.51,1.79-1.36.37-.99-.08-2.56.56-3.98,1.6-3.6,4.88-2.29,7.47-2.91,1.49-.35,2.75-1.81,3.84-1.81,1.41,0,5.79,3.47,8.96,1.89,2.67-2.67-5.63-16.81-5.71-19.32,0-.56,1.73-.35,1.92-1.09.56-2.19-1.73-8.35,1.89-7.87l-.03-.03Z"></path><path class="cls-21" d="M319.37,876.83l2.03,4.16c2.48,1.57,8.54-5.12,12.35,3.63.91,2.08,3.09,10.14,2.72,12.11-.64,3.36-13.53,5.2-16.99,4.06-2.56-.85-5.74-8.35-11.29-10.4-2.45-.91-10.03-.67-7.04-6.19.19-.35,5.07-5.2,5.44-5.34,2.43-.93,5.2.24,7.6-.32.29-.08,1.89-3.76,5.23-1.71h-.05Z"></path><path class="cls-9" d="M297.84,850.29c1.23.99,6.67,6,7.55,7.07,1.49,1.81,3.2,6.96,4.72,8.48,2.96,2.91,17.79.8,15.9,8.86-1.31.59-2.69.91-4.11,1.04-5.95.59-20.06-2.19-25.93-4.27-3.55-1.25-9.95-3.63-9.44-8,1.55-.08,3.15.08,4.72,0,2.19-.11,4.4.08,6.59,0-.43-1.84-2.8-2.69-3.76-3.76.48-1.52-.53-2.03-.93-2.83-.11-.21-.69-.48-.93-.93-.08-.13-.72-2.19-.93-2.83-2.37-7.15,2.03-6.51,6.59-2.83h-.03Z"></path><path class="cls-9" d="M278.98,871.04l9.2,3.98.08,4.86c-1.31,4-11.93.35-14.7-.13-8.06-1.36-14.83-2.08-21-5.87-1.76-1.09-4.54-1.52-3.76-4.72,10.27-.88,20.28-.37,30.17,1.89Z"></path><path class="cls-11" d="M260.12,896.5c4.56-.35,22.36.93,24.52-.51.59-.37.67-1.79,1.17-2.11.91-.56,2.43.08,3.31-.43,2.19-1.28.48-4.62,8.27-3.63,3.76.48,2.85,5.04,3.28,6.96.08.37,2.88,5.47,3.68,5.79l-.85.53-24.12-5.58c-7.04-.35-14.11.19-21.13-.08.27-.91,1.09-.88,1.89-.93l-.03-.03Z"></path><path class="cls-17" d="M331.78,908.74l-2.83,1.89c-.99,2.48,1.68,1.49,1.92,2.48.27,1.25-.16,2.77-.03,4.11,1.65,0,3.33-.21,4.96.21,5.07,1.31,10.97,3.07,14.62,4.43,2.37.88,17.37,5.31,18.12,4.75l2.85-2.8c.61,5.79.83,2.85,2.83,4.72,1.17,1.07.96,4.11.93,5.66-.91.11-1.97-.16-2.83,0-2.61.45-1.71,1.68-2.53,1.87-1.36.32-5.36.21-6.91,0-5.92-.8-16.11-4.59-21.93-6.83-3.95-1.52-12.62-5.04-15.77-7.31-3.15-2.27-.85-1.39-.93-1.89,1.81-.51,1.6,1.31,2.67,1.79,8.56,3.9,20.81,9.18,29.93,11.37,1.25.29,9.71,1.97,10.24,1.95,2.29-.16,8.54-2.45,6.03-5.5-3.09-2.13-6.99-1.36-9.68-2.08-11.87-3.15-23.37-8.06-35.54-10.78-2-.45-2.21.4-3.66,1.41,0-.13-1.09-.69-.93-1.31l5.63-1.52-3.76-2.83c1.23-1.44,2.59-2.53,3.76-3.76.91-.08,1.95.13,2.83,0v-.03Z"></path><path class="cls-21" d="M336.5,904.98c8.19-1.07,15.18.8,22.62,3.76.77.29,5.1,2.03,5.36,2.19,1.33.85,3.15,4.11,4.06,5.36.19.27,2.11-.32,2.83,3.76h-2.83v-3.76c-6.62-1.63-9.98-6.43-16.94-8.08-1.31-.32-2.51.59-3.23.51-.48-.05-2.96-2.69-8.67-1.92-1.79.24-1.25,1.89-1.97,2-1.6.24-3.25-.43-5.98-.03-.88.13-1.92-.08-2.83,0,.13-.13-.35-1.36.13-1.71,2.93.53,5.2-1.79,7.39-2.05l.05-.03Z"></path><path class="cls-10" d="M288.4,816.35c-.43.43,1.28,2.77-3.79,1.89v1.89h-.93c-1.25.08-2.13-.27-3.49.29-.56.21-5.12,6.16-6.19,6.96-.64.48-1.47.16-1.63.29s-3.41,1.57-3.76,1.89c-.11.11-1.79,1.76-1.89,1.89s.16,1.01-.35,1.55c-.43.51-1.49.24-1.55.32-.67-2.43,1.6-1.63,1.89-1.89.13-.11,1.81-1.73,1.89-1.89.4-.85,1.36-6.03,2.11-7.31.24-.4,1.81-.91,2.61-1.65.56-.53.69-1.92,1.12-2.16,1.23-.75,4.14.13,5.9-.24,2.67-.59,4.88-2.61,8.06-1.84Z"></path><path class="cls-9" d="M556.2,958.74c4.16-2.91,9.95-5.42,15.1-4.72,1.12,7.44-12.49,9.12-15.1,13.21-.03.05-1.52,0-.51.96,2.21,1.6,5.31,3.68,7.1,5.66,1.95,2.11,6.14,7.28,7.55,9.42,1.68,2.59,3.44,5.23,2.83,8.48-2.16,2.19-16.43-10.24-18.44-12.19-3.12-3.04-8.8-8.72-6.56-13.29.24-.48,7.07-6.86,8.03-7.52Z"></path><path class="cls-9" d="M605.24,968.16v.93s.43,1.33-.72,1.81c-2.11.88-5.42,1.87-7.76,1.95s-3.6-.53-5.42-.72c-6.91-.64,5.55,6.51,6.35,7.31.16.16,2.24,3.23,2.48,3.63.67,1.12,1.92,1.39.37,2.51-2.35,1.28-8.11-.21-10.38-1.44-4.06-2.13-12.65-9.5-16.97-13.21l-.88-5.58c2.45-1.41,5.66,1.79,6.8,1.63s3.39-2.43,4.43-2.64c5.12-1.12,16.43,2.21,21.69,3.76v.05Z"></path><path class="cls-27" d="M530.75,955.91c3.12-.45,1.63,4.08,2.43,6.59.61,1.97,2.56,2.24,3.23,4.75.21.77-.29,2.11,0,3.12s2.77,0,1.89,2.53c-4.96,2.11-9.1,1.97-14.41,2.11l-8.24,3.55h-1.89c.13-.59-.13-1.36,0-1.89,2.16-8.35,5.52-12.33,13.79-15.02.93-.29,2.16,0,3.17-.08.03-1.87,0-3.76,0-5.66h.03Z"></path><path class="cls-9" d="M508.1,983.26c1.17.11,5.23,1.25,6.03,1.81,1.17.8.35,2.13.56,2.91h-1.89c-7.79,0-12.54-.85-19.8-1.89.4-1.44-1.31-3.58,1.39-3.79,1.89-.13,4.8-.27,6.59.05,3.55.64,4.03.59,7.12.91h0Z"></path><path class="cls-24" d="M536.41,967.22c16.03,11.69-4.19,8.59-11.74,9.47-3.04.35-4.43,1.89-9.02,1.84l8.24-3.55c5.31-.16,9.44,0,14.41-2.11.85-2.53-1.63-1.47-1.89-2.53s.21-2.35,0-3.12Z"></path><path class="cls-11" d="M562.79,973.81c5.6-1.68,10.75-4.16,9.2,4.06-.59,3.12-4.14,2.11-1.65,5.36-1.41-2.16-5.58-7.31-7.55-9.42h0Z"></path><path class="cls-17" d="M507.17,980.43c.32-.03.64.03.93,0v2.83c-3.09-.32-3.55-.27-7.12-.91-1.79-.32-4.7-.19-6.59-.05-2.69.19-.99,2.32-1.39,3.79-.35-.05-.75.11-.93,0v-4.72c5.12.21,10.03-.4,15.1-.93h0Z"></path><path class="cls-3" d="M515.65,999.26c-.08.61.08,1.28,0,1.89-.59.13-1.41-.16-1.89,0-.64,4.78-1.2,2.88-1.84,4.51-.32.83.27,2.67-.08,3.01s-2.16-.27-3.01.05c-.53.21-.83,1.04-2.61,1.84-.64.29-1.25.64-1.89.93.61-5.44,2.91-2.77,5.36-4.99,2.08-1.89.03-4.06,4.06-5.39.08-.59-.11-1.28,0-1.89h1.89l.03.03Z"></path><path class="cls-3" d="M514.72,987.95c.75,2.59.8,2.91.93,5.66l-1.81-.05-1.01-5.6h1.89Z"></path><path class="cls-3" d="M515.65,997.4l-1.89-.48,1.89-2.35c0,.93.05,1.89,0,2.83Z"></path><path class="cls-9" d="M578.43,879.13c-1.6,2.61-7.31,10.62-9.9,11.34-3.15.88-3.25-2.24-2.85-4.72s10.59-16.67,12.67-18.49c1.81-1.57,4.48-2.99,6.16-.43-1.84,4.16-3.71,8.43-6.08,12.3Z"></path><path class="cls-4" d="M559.96,902.15c1.15-3.79,5.2-.32,6.3,1.25.56.8,1.92,6,2.51,6.94.83,1.36,8.22,6.27,3.79,7.68-2,.64-5.6-1.25-5.02,2.05-3.47.43-5.26,1.81-8.48,1.89,1.33-5.82,1.04-9.74.93-15.1-.03-1.57,0-3.15,0-4.72h-.03Z"></path><path class="cls-18" d="M592.03,888.01c1.09,3.33-1.2,3.41-1.76,4.54-3.95,7.68-9.39,15.55-11.47,23.69-9.12.53-3.66-8.94-.91-13.63,1.2-2.03,8.16-12.33,9.36-13.26,1.63-1.31,2.69-1.63,4.78-1.33h0Z"></path><path class="cls-9" d="M487.37,1020.02c-2.19-3.58-9.42-15.74-5.68-19.34,1.81-1.73,1.65.27,2.05.61,4.46,3.71,5.47,8.8,9.26,13.07l3.76,13.21c.61,2.37-2.19,2.53-3.82,1.44-.45-.29-4.75-7.58-5.63-8.99h.05Z"></path><path class="cls-3" d="M504.34,1012.47c-.32,5.5,2.05,12.7-5.66,13.21v1.87c2.88-.53,2.88,2.45,0,1.87v-1.87h-1.89l-3.76-13.21c4.38,1.07,7.12-2.59,11.31-1.89v.03Z"></path><path class="cls-11" d="M492.09,986.08c-1.73-.83-1.15-2.72,0-3.76v3.76Z"></path><path class="cls-13" d="M440.23,1008.71c.91.13,1.92-.05,2.83,0l.93-5.66,1.09,5.52,5.52.13-4.7,3.76,5.6.05c-.69,3.6,2.35,5.68,3.49,7.82.8,1.47.11,3.44,2.53,5.02.75.48,2.08.19,3.15.64.35.13.35,1.36.96,1.55,3.9,1.2,2.96-1.71,3.12-1.87.13-.13.64.11.93,0,.45-.16,1.31.16,1.89,0v-8.91c3.87-2.27,4.11,3.28,4.99,4.86.21.4,1.41.53,2.16,2.05.96,1.92,1.17,5.52,1.33,5.79.05.11,1.23-.19,1.65.21.53.53.16,1.63.24,1.68-.8-.77-.77-.64-1.89-1.89-.08-.11-1.12.21-1.57-.29-1.09-1.25-.16-4.16-3.63-3.52-1.57.29-.43,7.18-9.18,5.42-3.79-.77-5.26-5.28-10.03-3.36l-1.2,3.52h-6.32c-1.17-2.67-2.13-7.71-4-9.68-1.36-1.44-3.41-1.25-3.71-2.13-1.76-5.52-1.41-7.18-.91-12.57,1.76.24,2.93,1.63,4.72,1.89l-.03-.03Z"></path><path class="cls-20" d="M440.23,970.05c1.01,0,1.25.27,1.89.93.08.08.88,1.68.93,1.89,1.57,4.72.75,10.51.91,15.45.21,1.09,1.76.45,1.92.59,2.88,2.72,4.7,3.44,3.82,7.87l-7.18,2.45c-1.04,2.19,0,4.8-.43,6.96-.16.77-2.53.64-1.87,2.53-1.76-.24-2.96-1.63-4.72-1.89.11-1.04.16-2.77,0-3.76l-.93-1.89c-.03-1.57.05-3.15,0-4.72v-4.72c.11-4.7-.43-9.79.21-14.38.48-3.36,1.55-7.34,5.44-7.31h0Z"></path><path class="cls-20" d="M464.75,1025.68c-9.34-8.03-11.61-23.45-11.37-35.22,3.57-2.85,5.26-.88,6.96,2.29,4.59,8.51,7.92,23.58,5.34,32.9-.32.11-.8-.13-.93,0v.03Z"></path><path class="cls-16" d="M507.17,1018.13h2.83c-.16,4.38.24,8.83,0,13.21-.61.08-1.28-.08-1.89,0-.35,3.49-1.33,1.28-1.89,1.89-.11.13.24,1.07-.29,1.63-4.54,4.75-10.78,4.91-17.18,4.11-1.97-.24-2.85-3.55-3.95-3.79-1.49-.32-2.93.21-4.72-.32-1.09-.35-1.97-3.33-2.13-3.47.69.48,5.31-.43,6.94,0,1.01.27.51,1.89.61,1.89h13.21l.48,1.89,1.36-.08c-.51-3.47,4.67-1.09,5.71-1.84v-1.89c.61-.08,1.28.05,1.89,0,.45-4.59-.51-8.75-.93-13.21l-.03-.03Z"></path><path class="cls-5" d="M630.69,940.81c-2.43,5.18,1.65,5.34,1.87,6.32.61,2.96,1.09,9.26-2.8,9.71-6.3-3.6-15.63-7.36-22.62-9.42l6.59-2.83-7.52-.93c3.25-.27,6.75.32,9.98.03,1.25-.11,2.05-.96,2.29-.99.91-.11,1.97.16,2.83,0,.16,1.55,2.45,1.33,2.83,0,.35-.08,3.31-3.49,6.59-1.89h-.03Z"></path><path class="cls-5" d="M596.76,953.08c2.53,1.49,7.76,3.92,10.56,4.99,6.32,2.37,12.54,3.04,18.65,5.39-7.34-.32-13.42-2.16-20.2-4.7l-1.52,2.35,1.97,1.07-.99,6c-5.26-1.55-16.57-4.88-21.69-3.76.8-1.87,5.23-.48,5.66-.96.27-.29-.29-2.13.05-3.01.29-.72,3.17-4.38,3.71-5.95l3.82-1.39-.03-.03Z"></path><path class="cls-10" d="M418.54,957.78c2.43.32,5.6-.51,7.84,0,.69.16.56,1.68,1.28,1.84,1.52.35,3.07-.32,4.78.29.61.21,8.32,8.38,7.76,10.08-3.9-.05-4.96,3.92-5.44,7.31-.64,4.59-.11,9.68-.21,14.38l-1.41-3.76c-3.2,2.4-13.1,2.69-16.81,1.87-.75-.16-.67-1.6-1.79-2.16-1.28-.64-3.36-.32-4.51-1.15-2.35-1.71-.43-6.3-7.55-6.11-.16.43.13,1.31,0,1.87-1.97.27-2.13.08-1.87-1.87.61-.05,1.25,0,1.89,0,1.68-4.27,1.68-4.8,1.89-9.42,0-.61.03-1.28,0-1.89,2.32-.51,1.47-2.61,1.89-3.76.53-.08,1.17.24,1.71-.13.43-.35,1.12-2.93,1.12-3.63.4,0,1.84,3.49,6.94,1.76,1.39-.48,2.59-4.3,2.48-5.52h0ZM411.92,982.3h-1.87v1.87h1.87v-1.87Z"></path><path class="cls-4" d="M402.51,939.88l3.84,1.52c.05,5.15.13,11.42-2.29,16.09-1.63,3.12-7.9,3.68-5.31,11.63l2.93-.59,1.01-3.07c.48-.4,1.2-.05,1.73-.13-1.31,1.63-.03,3.17,0,3.76.03.61,0,1.25,0,1.89l-1.89,3.79h-3.74c1.25-3.04-1.79-4-1.89-4.43-.51-2.05,0-6.3,0-8.78v-1.89c5.07-4.96,9.47-8.19,7.52-16.33-.21-.85-1.49.35-1.87-3.49l-.05.03Z"></path><path class="cls-18" d="M418.54,957.78c.11,1.23-1.09,5.04-2.48,5.52-5.12,1.73-6.56-1.76-6.94-1.76-.05-2.13-2.53-5.23,0-8.03,2.99-3.33,9.15.61,9.44,4.27h-.03Z"></path><path class="cls-23" d="M409.1,961.57c0,.69-.69,3.28-1.12,3.63-.53.4-1.17.08-1.71.13-.43,1.15.45,3.25-1.89,3.76-.03-.59-1.31-2.13,0-3.76.61-.08,1.28.08,1.89,0,.32-.88,1.68-3.76,2.83-3.76h0Z"></path><path class="cls-26" d="M377.99,927.6c3.68-.03,6.03.29,9.36,1.97.16,2.37-1.31,4.46-.91,6.94.37,2.29,3.17,2.93,2.91,5.66-.13,1.39-5.76,7.47-7.02,10.06-1.07,2.24-2.24,8.51-2.64,9.15-.45.75-6.51,2.16-7.44,3.63-1.65,2.61.35,6.62-2.29,8.8-9.12-2.19-3.39-29.35-5.18-31.11-3.6-.08-7.26.13-10.88,0-1.81-.05-3.79.96-3.25-1.89.93-.05,1.89,0,2.83,0h2.83c6.62-.19,15.93,2.59,16.03-6.59.85-.16,1.92.11,2.83,0,0-1.55.21-4.59-.93-5.66.37-.19.75-.91.93-.93.75-.16,1.95,0,2.83,0v-.03Z"></path><path class="cls-19" d="M331.78,908.74c2.72-.4,4.38.29,5.98.03.72-.11.19-1.76,1.97-2,5.71-.77,8.19,1.87,8.67,1.92.72.08,1.92-.8,3.23-.51,6.96,1.65,10.32,6.46,16.94,8.08v3.79h2.83c.11.59-.08,1.28,0,1.89s-.05,1.28,0,1.89l-2.85,2.8c-.75.56-15.74-3.87-18.12-4.75-3.66-1.36-9.52-3.12-14.62-4.43-1.63-.43-3.31-.21-4.96-.21-.11-1.33.32-2.85.03-4.11-.21-1.01-2.88,0-1.92-2.48l2.83-1.89v-.03Z"></path><path class="cls-16" d="M371.37,921.95c2.93-.64,2.37,3.63,3.76,5.66-.21.05-.59.77-.93.93-2-1.84-2.21,1.07-2.83-4.72-.05-.61.08-1.28,0-1.89v.03Z"></path><path class="cls-23" d="M357.23,897.43c.45.45-.88,1.49-.93.48,0-.32.72-.69.93-.48Z"></path><path class="cls-23" d="M362.89,901.22c.45.45-.88,1.49-.93.48,0-.32.72-.69.93-.48Z"></path><path class="cls-22" d="M605.24,921.95l6.51,2,.59,2.77,4.22-.08c.03.93-.03,1.89,0,2.83-7.76-1.68-14.59,1.39-21.69,3.76-.64-.59,4.91-7.15,5.66-8,1.28-1.44,3.84-2.27,4.72-3.31v.03Z"></path><path class="cls-11" d="M624.1,942.7c-.37,1.33-2.67,1.55-2.83,0,.85-.16,2.03.19,2.83,0Z"></path><path class="cls-19" d="M362.89,936.09c-.21,3.84-3.71,2.8-6.62,2.83v1.89h-2.83c.4-3.84-6.96-1.07-8.86-1.95-1.07.29-.43,2.69-1.44,3.41-.61.45-6.78,1.09-8.56,1.89-2.13-4.19-5.12-8.24-5.76-12.73l-2.72-.08c3.23-5.6-2.4-5.31-.93-9.42,3.15,2.27,11.82,5.82,15.77,7.31,5.84,2.24,16.03,6,21.93,6.83h.03Z"></path><path class="cls-9" d="M324.23,918.19c1.44-.99,1.65-1.87,3.66-1.41,12.14,2.75,23.66,7.66,35.54,10.78,2.69.72,6.59-.05,9.68,2.08,2.51,3.01-3.71,5.34-6.03,5.5-.51.03-8.99-1.65-10.24-1.95-9.12-2.16-21.4-7.44-29.93-11.37-1.04-.48-.85-2.27-2.67-1.79-.11-.56,0-1.25,0-1.89v.05Z"></path><path class="cls-10" d="M434.57,996.44c0-.16-.88-.64-.88-1.41l.88-1.41v2.83h0Z"></path><path class="cls-10" d="M435.51,1003.05c0-.16-1.15-.51-1.41-.99l.48-.91.93,1.89Z"></path><path class="cls-5" d="M294.06,859.71c-.88-.99-1.2-1.41-.93-2.83.4.8,1.44,1.33.93,2.83Z"></path><path class="cls-3" d="M372.33,934.22c-.11,9.2-9.42,6.43-16.03,6.59v-1.89c2.88,0,6.4,1.01,6.59-2.83,1.52.21,5.55.29,6.91,0,.83-.19-.08-1.41,2.53-1.87h0Z"></path><rect class="cls-23" x="410.06" y="982.3" width="1.87" height="1.87"></rect></g></svg>