<?xml version="1.0" encoding="UTF-8"?>
<svg id="Calque_1" data-name="Calque 1" xmlns="http://www.w3.org/2000/svg" viewBox="0 0 230.48 248.8">
  <defs>
    <style>
      .cls-1 {
        fill: #fff;
        stroke: #e2e2e2;
        stroke-miterlimit: 10;
        stroke-width: 6px;
      }
    </style>
  </defs>
  <path d="M74.63,141.39l-43.14-.13s-5.54,48.33,34.38,77.19c0,0,32.28,26.41,76.97,14.2,47.02-12.85,64.49-59.41,61.47-90.55l-42.73-.41s3.62,20.39-8.6,35.35c-12.21,14.96-23.65,19.34-45.61,15.99-20.93-3.19-35.41-27.92-32.73-51.64Z"/>
  <polyline class="cls-1" points="1632.33 -825.84 1632.33 -817.5 1464.94 -530.48 1383.27 -426.81 1337.22 -188.47 1337.22 -20.54 1296.17 100.75 1256.99 -18.67 1173.02 89.55 1133.83 371.31 1102.23 180.88 1030.01 305.1 1006.95 108.21 858.59 285.8 790.25 527.53 687.57 203.78 658.99 186.84 646.41 281.81 527.58 124.61 559.91 -58.63 528.95 -88.24 433.59 -82.4 419.97 92.74 297.17 -236.4 226.49 -250.54 5.16 -819.97 5.16 -825.84"/>
  <rect x="93.52" y="-41.97" width="41.7" height="171.16" transform="translate(70.76 157.98) rotate(-90)"/>
  <rect x="96.16" y="14.8" width="41.7" height="171.16" transform="translate(16.62 217.39) rotate(-90)"/>
</svg>