<svg id="Calque_1" xmlns="http://www.w3.org/2000/svg" viewBox="0 -1380 563.84 2061"><defs><style>
      .cls-1 {
        fill: #fff;
      }
    </style></defs><g><polygon class="cls-1" points="84.98 144.58 98.31 135.52 97.01 92.7 106.29 54.25 120.69 30.96 167.47 4.83 193.8 2.36 224.67 15.43 243.42 36.64 254.4 68.79 256.3 135.52 252.26 229.26 257.81 273.38 279.97 322.25 305.73 348.76 348.53 363.54 400.24 357.11 445.69 328.69 486.98 285.7 487.93 333.61 477.51 363.54 457.05 390.43 489.25 376.42 527.89 341.38 551.37 302.93 557.81 329.45 562.17 376.61 547.59 445.92 510.84 507.1 445.69 557.67 371.26 572.82 337.89 573.9 336.76 604.62 338.85 635.33 333.84 669.68 322.81 642.32 291.06 675.1 300.59 652.06 313.62 638.55 282.97 637.39 297.23 628.68 319.03 622.65 322.05 596.53 324.79 572.05 267.09 560.75 259.29 588.92 255.19 614.9 255.82 627.86 226.97 673.03 227.55 656.47 229.36 643.36 197.46 661.74 213.29 637.26 218.64 631.98 187.41 626.54 207.43 616.16 235.54 607.75 247.82 551.13 163.09 511.42 123.09 465.27 105.66 406.14 102.86 327.89 110.12 210.74 76.24 226.7 60.25 229.39 49.48 217.7 14.66 217.7 1.52 204.82 5.77 191.04 26.89 171.46 84.98 144.58"></polygon><g><path d="M301.07,626.21l16.97-5.46,5.26-45.54c-18.88-1.63-36.76-5.87-55.41-11.49-5.9,17.02-8.8,32.99-11.33,49.66l.56,14.73-24.09,37.66c-3.07,4.79-4.1,10.11-8.63,15.06-3.03-10.76,4.26-24.93,3.58-35.19l-27.67,17.43c-.88.55-2.83.92-3.56.39-.88-.64-.94-3.65-.14-4.76l18.61-25.79-26.02-3.36c-.83-.11-2.69-1.39-3.15-1.97-2.93-3.77,20.41-12.36,23.55-13.27l25.03-7.3,10.93-51.65c-23.11-9.63-45.01-19.26-66.71-31.47-30.65-17.24-52.23-40.79-64.43-74.06-5.44-14.83-9.84-29.91-11.81-45.77-3.42-27.44-2.89-54.3-1.28-81.93l3.94-67.66c.77-13.21,2.14-25.78,2.05-39.46-13.53,7.08-25.85,12.58-40.29,15.79-8.09,1.8-15.05-4.32-17.74-11.7-15.24,1.98-35.18,5.44-45.86-7.84-3.98-4.95-4.48-10.66-1.54-16.09,5.44-10.04,13.35-18.63,23.45-24.53,22.32-13.04,48.94-20.43,71.43-35.21l-1.74-23.83c-.74-10.14.53-20.42.8-30.45.19-7.04,1.69-10.29,4.52-16.49l10.99-24.12c6.48-14.23,39.56-32.16,55-37.38,24.28-8.21,49.23.35,67.31,18.03,16.7,16.33,23.06,39.51,23.47,62.68l.44,24.57c.27,14.99.85,29.58.02,44.62l-3.07,55.59c-.93,16.8.32,32.67,2.85,49.19,3.93,25.61,19.11,62.22,39.23,78.8,19.82,16.34,45.68,24.83,71.4,22.94,9.85-.72,19.57-1.97,28.6-5.39,11.1-4.2,21.99-9.5,31.63-16.5,15.35-11.16,28.93-23.79,42.5-36.88,5.85-5.65,10.43-12.07,13.18-19.38l1.33-3.54c.3-.79,3.3.07,4.15.55.82,11.46,2.05,45.69.65,55.9-2.64,19.29-12.02,35.76-24.48,51.1,12.6-4.18,22.3-11.75,32.07-19.76,16.15-13.25,30.3-27.7,41.61-45.39,8.48-13.26,7.31-24.24,11.03-23.17.77.22,2.47,1.61,2.67,2.41,10.86,43.64,14.7,62.7,6.58,107.33-8.34,45.81-30.16,88.44-65.46,119.03-23.6,20.45-49.47,38.01-81.04,43.32-24.5,4.12-48.35,6.22-73.23,6.91-1.39,13.96-2.11,27.76-.53,41.48.97,8.4,1.37,16.57.07,24.94l-4.33,27.79-1.69,1.34-10.94-26.7-31.29,32.63c-3.63-1.87-2.3-4.48-1.32-6.91,4.64-11.54,9.87-21.23,19.08-30.19-7.64-2.59-27.85,1.58-28.3-3.35,5.46-6.41,13.03-8.49,20.57-10.92ZM99.65,85.34c-1.82,13.11-1.76,33.84.07,47.95l21.57-13.58c5.17,8.39,10.45,16.87,19.54,20.02,4.98,1.73,9.05,4.16,10.07,9.94,3.25,18.46,16.33,26.26,13.97,29.72-1.68,2.47-9.58,4.76-16.59,9.23l-36.04,22.95c.45,18.76-1.12,35.41-2.8,53.76,9.72,1.18,18.52,1.06,28.28.3,38.52-2.98,75.91-10.9,111.95-23.98-3.23-49.02,6.12-88.89,2.74-137.64l-.48-26.35c-.3-16.65-5.5-33.07-15.6-46.38C221.25,11.43,192.9-.82,168.56,7.44c-12.44,4.22-23.75,10.43-34.8,17.4-7.27,4.58-13.95,11.26-18.87,18.23-4.05,5.73-5.99,12.79-8.96,19.56M120.4,194.77l19.48-7.93,21.36-8.55-7.62-12.02c-8.31-13.11-1.8-18.72-15.32-24.79-8.12-3.65-13.59-11.29-18.43-18.92-15.1,13.16-32.8,23.94-51.22,32.2l-30.93,13.88c-11.4,5.12-38.9,23.48-32.53,37.52,11.81,26.02,95.22-3.25,115.22-11.39ZM71.65,225.96c18.8-7.12,36.08-15.59,51.9-27.28-24.49,7.82-47.18,15.68-71.9,20.05,3.87,7.7,11.88,10.3,19.99,7.22ZM109.73,267.86l-1.19,14.89M252.26,262.14l-2.04-16.17M550.57,309.91c-11.03,24.25-28.35,42.21-48.88,59.08-13.81,11.34-28.21,20.2-45.56,25.52-1.5.46-4.28-.48-4.93-1.87-.47-.99.5-2.6,1.69-4.13,16.85-13.83,29.22-33.35,32.25-55.61,1.81-13.3-.01-26.56-.25-39.83-8.92,11-18.69,20.89-29.79,30.14l-23.82,19.87c-10.98,5.99-21.3,12.81-33.3,16.83-36.29,12.16-75.24,5.13-105.18-18.7-19.13-17.51-34.04-49.08-39.69-75.25-20.8,7.44-40.86,12.11-62.1,15.91-21.22,3.8-41.57,6.29-63.24,5.67l-19.28-2.35c-2.38,31.41-3.35,62.16-2.55,93.5.42,16.4,2.5,31.27,6.76,46.86s9.52,31.4,18.55,45.68c11.37,17.98,26.43,32.47,45.08,43.32,28.4,16.52,57.97,29.52,88.98,40.59,50.03,17.86,91.85,15.55,143.6,7.73,16.46-2.49,31.29-7.91,45.61-16.45,56.34-33.6,89.37-81.17,100.56-146,6.89-39.97,3.83-50.97-4.5-90.5ZM202.11,657.56l21.82-13.96c1.88-1.2,4.09-1.84,6.79-2.47l-2.65,26.58,26.41-41.7c-1.11-24.16,3.16-40,10.38-63.43l-17.02-6.19c-2.52,17.16-5.54,32.86-9.59,49.37-.58,2.36-3.24,3.37-4.99,3.96l-16.23,5.45c-8.9,2.99-17.02,6.24-25.54,10.83l31.36,4.92c-10.77,10.31-14.04,15.3-20.75,26.63ZM295.18,668.49l24.63-26.83c.85-.92,4.29-1.9,4.77-.59l8.49,23.13,3.35-26.94c.78-6.26.06-12.11-.56-18.2-1.46-14.45-.79-27.96.09-43.02-3.28-.47-7.17-.67-10.53-.62l-3.04,36.82c-.33,3.96-.92,8.62-2.15,11.97l-16.74,5.36c-5.59,1.79-10.88,3.03-15.76,6.35l27.31.64c1.27.03.53,3.57-.33,4.27-9.08,7.5-16.75,16.11-19.55,27.66Z"></path><path d="M206.9,402.53c1.58,16.54,5.53,31.99,13.39,47.08,18.05,37.66,42.52,63.04,85.15,72.37-8.86-11.02-15.12-21.48-20.18-33.74l-3.8-9.22c3.48-1.24,5.73-.59,8.6,1.22,26.15,16.44,57.29,22.33,87.64,13.74-25.53-12.99-36.78-26.13-54.15-48.49l.26-3.42c.06-.73,2.63-.81,3.33-.45,11.58,5.98,39.96,11.71,50.4.81-35.64-11.61-76.67-20.85-103.35-48.65-7.4-7.71-13.97-15.68-21.13-24.16,4.87-2.42,9.43.79,12.33,4.59,14.17,18.62,31.71,32.34,53.58,41.29,20.32,8.31,40.59,14.6,61.55,21.41,1.3.42,3.34,2.07,4.01,3.01s-.03,4.08-.92,5.08c-11.6,13.16-31.32,9.37-47.3,6.69,12.43,17.19,28.91,29.75,47.39,38.55,1.1.99,1.44,4.79.66,5.96s-2.98,2.87-4.78,3.39c-30.02,8.69-60.55,3.3-88.35-12.41,4.29,14.24,13.09,25.52,23.18,35.25,1.26,1.21,2.26,7.2-.4,6.85-56.9-7.56-89.82-48.32-106.34-100.52-.97-8.95-4.37-16.83-.74-26.22Z"></path><path d="M131.46,155.98c.04,2.09-3,7.67-6.32,7.79-2.14.08-4.7-2.86-3.29-4.94,1.8-2.65,6.42-3.46,9.6-2.85Z"></path></g></g><circle cx="105.37" cy="74.67" r="11.89"></circle><circle cx="192.28" cy="74.67" r="11.89"></circle></svg>