<svg xml:space="preserve" xmlns:xlink="http://www.w3.org/1999/xlink" xmlns="http://www.w3.org/2000/svg" version="1.1" viewBox="2357.137605781866 173.47104 5049.795006570303 5803.200000000001"><g><path style="fill:#a9d622;fill-rule:nonzero;" d="M5863.413,5694.25c-6.613,-51.981 87.346,-53.937 121.752,-73.26c-18.653,0.359 -31.665,-17.225 -26.715,-35.088c16.21,-32.525 59.993,-43.36 90.446,-59.987c8.02,-24.075 34.536,-35.572 54.992,-47.576c-25.886,9.137 -39.921,-21.267 -28.072,-41.565c-26.384,17.515 -56.971,2.771 -54.542,-29.992c11.569,-38.318 96.758,-66.752 133.906,-76.287c40.581,-50.268 84.65,-13.518 43.609,32.052c0.234,1.134 0.425,2.279 0.575,3.428c40.038,-17.062 96.693,2.371 87.978,53.293c29.657,8.961 52.711,110.823 4.003,91.97c-0.611,0.504 -1.217,1.019 -1.82,1.546c-2.366,2.425 -4.727,4.876 -7.054,7.364c10.387,-1.517 22.648,-2.75 28.879,7.709c30.051,-7.039 92.391,-29.533 96.848,18.193c-2.332,33.391 -48.205,37.215 -73.114,48.392c-54.43,7.465 -478.826,163.679 -471.67,99.807Zm309.677,-252.343c23.055,-11.675 47.49,-20.583 72.531,-26.958c0.04,-0.163 0.081,-0.326 0.12,-0.491c-27.596,-5.696 -63.242,5.901 -83.319,25.153c3.55,0.882 7.091,1.66 10.667,2.295Z"/><path style="fill:#a9d622;fill-rule:nonzero;" d="M4023.037,5802.024c-31.202,-3.312 -68.121,8.108 -95.722,-9.535c-33.017,1.818 -64.62,-14.33 -96.317,-21.964c-45.229,-9.899 -91.171,-18.277 -134.652,-34.543c-42.665,-7.916 -109.767,-70.774 -44.127,-96.987c1.527,-2.593 3.096,-5.202 4.791,-7.708c-40.231,-35.608 -64.635,-101.474 -30.099,-148.685c27.004,-34.685 84.312,-51.255 119.364,-19.26c50.63,-56.518 142.309,-21.223 97.277,55.842c62.995,61.839 -26.726,107.977 -79.723,60.272c-1.936,0.586 -3.885,1.121 -5.85,1.604c-4.925,9.191 -7.921,19.54 -12.203,29.106c6.56,3.137 12.597,8.276 16.266,14.583c16.782,6 35.852,19.516 36.58,39.026c53.936,17.22 122.192,26.493 155.767,76.8c18.293,5.688 41.408,-3.733 56.894,9.29c61.153,1.32 127.081,3.88 181.97,33.369c-56.677,3.01 -112.697,21.02 -170.215,18.79Zm-351.422,-223.243c-1.217,-9.741 0.92,-20.159 5.345,-28.649c0.029,-0.055 0.057,-0.109 0.086,-0.164c-3.435,-7.534 -4.895,-15.784 -4.334,-24.413c0.505,-7.688 2.39,-15.313 5.401,-22.46c-36.417,12.197 -28.493,53.173 -6.498,75.685Zm100.314,-73.38c7.593,-0.467 15.214,-0.493 22.694,-0.151c5.966,-5.495 11.381,-11.637 16.051,-18.27c-14.275,-0.428 -29.291,7.508 -38.903,17.795c0.053,0.21 0.106,0.416 0.158,0.625Z"/><path style="fill:#a9d622;fill-rule:nonzero;" d="M5091.35,5921.075c-5.141,-1.062 -9.202,-4.053 -12.136,-8.007c-36.615,-2.853 -154.873,30.887 -165.612,-12.544c-78.152,-2.074 -287.503,-0.26 -333.497,-65.025c-12.572,-34.435 18.886,-60.659 52.113,-55.017c46.375,-2.545 92.925,-2.459 139.372,-3.376c79.541,2.834 162.781,-8.552 240.429,8.992c9.912,3.58 14.811,15.072 14.815,24.955c-3.318,41.477 -61.98,29.015 -91.175,37.223c28.206,5.534 114.514,-17.835 118.76,14.829c65.157,-4.65 129.968,-12.992 195.139,-16.822c-22.397,-15.101 -54.71,-24.818 -6.321,-18.776c22.73,-0.368 62.111,16.704 38.235,42.757c-23.329,18.124 -56.156,20.455 -83.811,29.6c-29.456,19.37 -71.652,22.096 -106.311,21.211Zm-249.235,-73.551c12.413,0.492 24.866,1.007 37.288,1.077c-7.906,-4.024 -23.217,-10.631 -23.533,-19.717c-55.163,-0.422 -110.327,0.467 -165.48,1.79c50.023,9.679 100.828,14.892 151.725,16.85Z"/></g><path style="fill:#fff;stroke:#000;stroke-width:1px;" d="M5500.652,1382.819l1515.055,-1183.185l295.796,259.723l-1262.608,1125.469l-548.243,-202.007Z"/><path style="fill:#fff;stroke:#000;stroke-width:1px;" d="M3761.947,2594.863l-290.137,-115.433l-1074.08,764.742l130.53,486.811l1233.687,-1136.12Z"/><path style="fill:#fff;stroke:#000;stroke-width:1px;" d="M4216.463,1353.961l-1354.885,-757.527l265.489,-334.758l1165.668,630.555l-76.271,461.731Z"/><path style="fill:#fff;stroke:#000;stroke-width:1px;" d="M6048.895,5525.916l-11.63,-1126.619l-55.796,-133.697l-335.145,-1388.8l108.219,-216.437l-27.055,-288.582l-900.513,-1391.596l-921.159,1382.578l0,108.218l18.036,207.418l171.346,135.273l-144.551,1585.625l-85.77,231.131l0,913.322l40.937,114.686l588.457,133.261l933.805,-26.005l620.82,-239.776Z"/><g><path style="fill-rule:nonzero;" d="M4571.84,4560.226c-112.78,-2.197 -225.56,-8.726 -337.421,-23.582c-26.018,-3.435 -52.157,-7.268 -77.896,-12.44c-13.898,-2.796 -27.815,-5.511 -41.613,-8.706c-15.316,-3.554 -30.471,-7.488 -45.647,-11.561c-27.097,-7.268 -54.014,-17.212 -79.154,-29.653c-15.355,-7.608 -29.313,-17.233 -42.013,-28.714c-13.259,-11.961 -22.524,-27.855 -27.896,-44.729c-4.832,-15.096 -2.995,-31.569 1.258,-46.466c0.799,-2.855 1.917,-5.631 3.195,-8.327c2.815,7.288 7.128,14.038 12.6,19.03c5.671,5.192 11.462,9.625 18.73,12.38c4.153,1.577 8.287,2.436 12.54,2.836c0.04,0.24 0.08,0.499 0.12,0.758l0,0.02c0.24,0.559 0.479,1.137 0.739,1.697c0.499,0.958 1.038,1.897 1.597,2.835c0.959,1.438 1.977,2.816 3.035,4.174c2.316,2.596 4.712,5.052 7.228,7.428c3.534,2.935 7.168,5.691 10.963,8.327c7.188,4.512 14.577,8.566 22.184,12.32c13.738,6.03 27.516,12.02 41.893,16.453c16.094,5.012 32.188,9.665 48.483,14.078c25.379,5.831 50.779,11.222 76.438,15.735c27.237,4.812 54.633,8.546 82.049,12.18c49.6,6.59 99.581,10.304 149.461,13.798c109.725,6.15 219.59,8.626 329.494,6.11c113.479,-2.616 226.778,-8.486 339.858,-18.451c37.28,-3.294 74.581,-6.849 111.802,-11.162c13.758,-1.597 27.536,-3.215 40.775,-4.773c108.666,-13.818 217.034,-30.052 324.063,-53.655c48.363,-10.663 96.246,-22.823 143.791,-36.661c47.145,-14.577 93.531,-30.831 137.88,-52.616c14.337,-7.668 28.155,-15.795 41.394,-25.18c4.772,-3.954 9.405,-7.947 13.958,-12.141c1.473,-1.561 2.915,-3.135 4.334,-4.738c4.932,-1.272 9.752,-3.288 14.276,-6.065c13.518,-8.286 25.779,-18.77 37.84,-28.973c1.303,-1.102 2.602,-2.208 3.898,-3.318c0.238,0.788 0.463,1.58 0.674,2.38c4.433,16.833 3.794,33.666 -1.658,50.22c-3.873,11.781 -11.102,22.225 -18.949,31.69c-17.772,21.405 -42.353,37.36 -66.694,50.28c-24.561,13.039 -49.9,23.982 -75.799,34.026c-25.66,9.924 -51.938,18.17 -78.215,26.258c-26.218,8.067 -52.796,15.275 -79.433,21.845c-53.335,13.159 -107.01,24.86 -161.063,34.664c-77.975,14.138 -156.41,26.298 -234.865,35.404c-110.105,12.86 -220.448,23.103 -331.151,28.774c-85.663,4.393 -171.407,6.989 -257.13,6.989c-26.657,0 -53.295,-0.26 -79.952,-0.779Z"/><path style="fill-rule:nonzero;" d="M3865.476,4600.571c-10.583,-62.96 32.947,-125.28 45.827,-186.663c3.092,-15.743 8.26,-44.024 20.855,-54.38c1.556,2.018 3.255,3.886 5.085,5.559c5.67,5.191 11.461,9.625 18.73,12.38c3.668,1.388 7.323,2.213 11.057,2.669c9.244,48.347 -39.869,133.319 -47.46,178.721c-8.227,18.25 -3.874,45.747 -25.34,54.872c-2.314,0.874 -4.697,1.28 -7.063,1.281c-9.044,0 -17.845,-5.94 -21.691,-14.44Z"/><path style="fill-rule:nonzero;" d="M5966.685,4462.633c-21.296,-62.237 -39.798,-126.06 -56.158,-189.73c1.287,-0.651 2.556,-1.358 3.801,-2.124c13.518,-8.287 25.779,-18.77 37.84,-28.974c0.542,-0.458 1.084,-0.917 1.624,-1.377c13.906,22.858 14.211,62.675 24.913,84.006c3.634,38.558 59.985,131.949 21.925,153.714c-3.388,2.03 -6.89,2.94 -10.318,2.94c-10.188,0 -19.713,-8.025 -23.628,-18.455Z"/><path style="fill-rule:nonzero;" d="M4445.87,4733.176c-25.34,-1.238 -50.68,-2.675 -75.999,-4.353c-12.22,-0.839 -24.461,-1.697 -36.682,-2.635c-6.05,-0.48 -12.121,-0.959 -18.171,-1.458c-2.353,-0.19 -4.705,-0.381 -7.058,-0.575c-0.668,-0.023 -1.333,-0.079 -1.994,-0.165c-0.212,-0.018 -0.425,-0.036 -0.637,-0.054c-1.11,0.009 -2.251,-0.069 -3.429,-0.24c-2.57,-0.098 -5.155,-0.487 -7.689,-0.703c-5.791,-0.499 -11.582,-1.018 -17.352,-1.557c-103.135,-9.645 -206.65,-22.724 -307.21,-48.183c-14.237,-3.594 -28.414,-7.428 -42.452,-11.701c-12.141,-3.683 -24.454,-7.348 -36.269,-12.015c-14.207,-4.258 -20.565,-21.895 -19.042,-35.53c1.617,-14.397 12.74,-29.793 28.854,-27.097c3.654,0.599 7.288,2.316 10.742,3.535c7.109,2.515 14.277,4.892 21.486,7.168c9.834,3.111 19.738,5.995 29.695,8.719c95.454,25.681 194.148,38.996 292.31,49.049c15.741,1.615 31.501,3.056 47.245,4.422c1.028,-0.03 2.074,0.023 3.142,0.163c2.331,-0.049 4.67,0.187 6.898,0.685c3.003,0.247 6.006,0.493 9.009,0.74c50.12,4.054 100.36,6.929 150.6,9.085c105.372,4.553 210.943,5.411 316.375,3.255c105.731,-2.136 211.423,-6.969 316.854,-15.175c35.693,-2.779 71.346,-5.909 104.613,-9.105c105.552,-10.543 210.703,-24.262 315.157,-42.792c69.846,-12.392 139.197,-27.705 207.533,-46.773c46.259,-13.481 91.764,-28.927 135.466,-49.41c13.72,-7.001 26.943,-14.49 39.863,-22.874c6.829,-5.019 13.362,-10.185 19.698,-15.821c3.06,-3.148 6.016,-6.347 8.835,-9.712c0.84,-1.168 1.658,-2.347 2.447,-3.553c0.383,-0.715 0.75,-1.437 1.103,-2.168c0.105,-0.27 0.209,-0.539 0.312,-0.809c5.032,-13.678 19.728,-23.782 33.845,-15.755c14.138,8.047 18.031,27.935 12.72,42.352c-8.127,21.985 -25.02,38.618 -42.851,53.115c-21.227,17.252 -46.326,29.473 -70.887,41.095c-24.781,11.701 -50.839,20.986 -76.818,29.652c-26.438,8.826 -53.255,16.534 -80.172,23.743c-104.193,27.915 -210.883,46.426 -317.613,61.482c-106.21,14.976 -213.04,25.48 -320.009,33.247c-104.873,7.608 -210.025,12.141 -315.157,13.599c-27.474,0.383 -54.967,0.587 -82.444,0.587c-78.324,0 -156.627,-1.651 -234.87,-5.48Z"/><path style="fill-rule:nonzero;" d="M3858.295,5644.25c-18.692,-180.325 -4.781,-364.894 -16.586,-546.488c-6.393,-112.606 -21.714,-225.049 -16.821,-338.024c7.297,-35.796 -10.848,-119.156 33.574,-129.31c12.501,0 21.985,11.222 24.488,22.704c-8.218,101.87 -10.989,205.994 -0.027,308.767c12.94,137.128 15.381,274.863 16.095,412.522c0.56,56.869 1.837,113.718 3.482,170.569c-3.888,35.028 14.88,79.552 -9.252,108.545c-11.918,9.753 -28,4.065 -34.952,-9.285Z"/><path style="fill-rule:nonzero;" d="M6031.725,5540.275c-30.541,-38.246 0.05,-104.738 1.151,-150.461c12.133,-94.394 5.894,-190.24 6.906,-285.205c-3.664,-225.885 -49.044,-448.893 -58.307,-674.379c-0.673,-40.475 51.653,-42.004 51.11,-0.004c18.137,292.783 73.325,583.213 57.734,877.718c0.462,53.579 -9.407,106.031 -16.453,158.911c-4.027,25.68 0.228,92.84 -42.141,73.42Z"/><path style="fill-rule:nonzero;" d="M4560.864,5824.938c-108.108,-7.328 -216.215,-19.109 -322.925,-38.119c-54.992,-9.804 -109.645,-21.306 -163.698,-35.403c-51.478,-13.438 -102.497,-29.293 -151.898,-49.081c-8.267,-3.315 -16.254,-6.13 -22.305,-12.98c-9.205,-10.423 -12.34,-26.778 -5.85,-39.377c4.253,-8.287 14.137,-15.595 23.902,-14.697c7.607,0.699 14.277,3.894 21.306,6.709c11.143,4.453 22.364,8.706 33.686,12.72c24.876,8.817 49.993,16.778 75.307,24.26c104.708,29.569 211.767,49.042 319.562,63.22c30.782,4.053 61.638,7.378 92.515,10.516c107.359,10.17 215.125,15.984 322.982,16.92c110.124,0.959 220.068,-2.676 329.933,-10.143c15.815,-1.078 31.61,-2.436 43.611,-3.375c108.866,-9.545 217.373,-22.923 324.822,-42.932c63.7,-11.845 126.851,-26.108 189.392,-43c67.904,-19.109 135.032,-41.327 199.162,-70.871c29.507,-14.04 58.197,-29.506 85.34,-47.73c13.581,-9.534 26.685,-19.635 38.992,-30.767c6.847,-6.492 13.419,-13.226 19.464,-20.458c2.533,-3.248 4.919,-6.581 7.38,-9.884c7.472,-11.319 22.528,-15.595 33.794,-6.363c12.78,10.463 14.278,30.152 7.248,44.229c-1.976,3.974 -5.052,7.627 -7.707,11.122c-4.553,5.97 -9.345,11.781 -14.457,17.293c-16.074,17.273 -34.345,32.268 -53.495,46.006c-42.073,30.212 -89.097,52.975 -136.701,73.004c-48.583,20.447 -98.863,36.661 -149.422,51.418c-53.794,15.695 -108.487,28.415 -163.32,39.797c-107.468,22.324 -216.434,37.161 -325.6,48.023c-108.706,10.843 -217.972,16.574 -327.197,18.271c-20.449,0.314 -40.917,0.472 -61.367,0.472c-87.566,0 -175.108,-2.89 -262.456,-8.799Z"/><path style="fill-rule:nonzero;" d="M3973.708,4473.603c-16.434,-1.278 -23.922,-19.409 -22.983,-33.846c6.969,-106.83 13.858,-213.679 20.767,-320.508c7.089,-109.326 14.157,-218.652 21.266,-327.957c7.169,-110.484 14.337,-220.948 21.486,-331.431c7.069,-109.425 14.178,-218.85 21.266,-328.275c5.711,-87.92 11.402,-175.839 17.092,-263.76l0.302,-2.27c0.461,-14.423 8.069,-31.45 24.239,-33.133c15.835,-1.657 26.877,14.657 26.877,29.054c0,8.826 -0.919,17.672 -1.497,26.458c-1.378,21.146 -2.736,42.272 -4.114,63.399c-3.115,48.043 -6.23,96.086 -9.345,144.15c-7.068,109.366 -14.157,218.751 -21.266,328.116c-7.228,111.343 -14.417,222.665 -21.645,334.007c-7.129,110.045 -14.257,220.089 -21.386,330.133c-7.128,109.605 -14.217,219.19 -21.325,328.775c-0.58,9.085 -1.158,18.151 -1.758,27.236c-0.905,13.902 -11.018,29.919 -26.259,29.92c-0.565,0 -1.137,-0.023 -1.717,-0.067Z"/><path style="fill-rule:nonzero;" d="M5905.262,4298.887c-6.909,-4.852 -10.483,-12.78 -11.901,-20.887c-18.67,-105.711 -37.061,-211.483 -55.471,-317.254c-19.15,-110.104 -38.459,-220.168 -57.728,-330.253c-18.77,-107.309 -37.48,-214.638 -56.27,-321.946c-18.311,-104.493 -36.562,-209.006 -54.812,-313.52c-4.813,-27.596 -9.645,-55.172 -14.458,-82.768c-1.697,-9.705 -3.395,-19.389 -5.092,-29.093c-0.919,-5.332 -2.476,-11.022 -2.476,-16.474c0,-14.716 8.007,-32.727 24.62,-34.285c14.897,-1.417 25.145,12.851 26.439,26.452c6.354,37.94 13.275,75.802 19.887,113.685c8.746,50.08 17.512,100.16 26.278,150.26c19.05,109.106 38.139,218.212 57.209,327.318c18.65,106.789 37.44,213.579 56.01,320.388c19.27,110.963 38.778,221.885 58.167,332.829c9.365,53.534 18.63,107.089 28.075,160.604c2.596,14.756 -5.032,33.866 -20.528,38.159c-1.837,0.51 -3.707,0.757 -5.564,0.757c-4.398,0 -8.723,-1.389 -12.387,-3.972Z"/><path style="fill-rule:nonzero;" d="M4775.319,5769.914c20.478,-240.418 -4.491,-503.703 133.325,-714.757c375.628,-535.004 430.93,179.878 436.79,474.698c3.868,66.812 8.343,144.504 12.855,215.854c2.662,36.341 -41.191,51.295 -49.88,10.767c-5.688,-63.389 -7.863,-127.467 -12.018,-191.063c0.036,0.729 0.083,1.436 0.127,2.157c-11.34,-115.17 -5.746,-804.712 -235.738,-601.936c-81.622,76.375 -149.775,168.483 -180.325,277.278c-38.44,129.432 -38.441,265.62 -46.4,399.328c-9.08,35.403 10.28,157.52 -33.175,159.623c-16.214,0 -25.739,-17.492 -25.562,-31.949Z"/><path style="fill-rule:nonzero;" d="M4070.268,2839.259c-13.032,-2.424 -23.372,-11.29 -33.835,-18.842c-27.715,-18.929 -56.458,-36.514 -86.197,-52.07c-34.583,6.063 -42.433,-54.18 -12.811,-65.102c46.568,-1.267 106.761,52.001 145.702,78.205c20.082,19.956 31.425,69.459 -12.858,57.809Z"/><path style="fill-rule:nonzero;" d="M5674.102,2844.773c-24.759,-10.222 -27.031,-51.868 -1.775,-62.792c27.462,-24.482 78.363,-137.212 111.52,-124.829c22.004,10.139 17.839,41.622 5.417,57.955c-25.105,26.472 -79.769,140.339 -115.161,129.666Z"/><path style="fill-rule:nonzero;" d="M3914.278,2737.938c-7.887,-1.258 -14.237,-6.969 -17.991,-13.778c-7.488,-13.558 -6.05,-34.065 6.49,-44.349c16.434,-13.458 34.865,-25.14 53.275,-35.662c24.421,-13.938 49.521,-26.518 75.24,-37.88c51.497,-22.724 104.892,-40.615 158.866,-56.37c104.273,-30.452 211.661,-50.5 319.23,-64.897c109.505,-14.657 219.889,-23.642 330.352,-26.477c109.745,-2.816 219.35,-0.12 328.815,8.247c107.149,8.207 214.457,23.223 318.931,48.702c50.919,12.44 101.558,27.157 150.12,47.045c45.387,18.61 90.156,41.055 127.956,72.744c2.047,1.72 4.054,3.482 6.035,5.262c0.842,0.71 1.705,1.397 2.431,2.206c10.902,11.981 12.62,31.39 3.574,44.989c-3.574,5.351 -8.866,9.664 -15.276,11.002c-7.346,1.54 -15.167,-1.2 -20.328,-6.602c-10.173,-8.801 -21.008,-16.765 -32.168,-24.281c-21.313,-13.664 -43.647,-25.33 -66.684,-35.798c-50.122,-21.943 -102.401,-37.985 -155.313,-51.627c-105.177,-25.65 -212.361,-40.758 -320.158,-49.843c-9.055,-0.759 -18.093,-1.405 -27.147,-2.103c-106.823,-7.171 -213.719,-8.767 -320.738,-5.404c-81.076,2.574 -161.994,8.977 -242.632,17.654c-107.755,12.685 -214.87,30.123 -320.189,56.567c-24.095,6.043 -47.995,12.791 -71.873,19.739c-27.441,8.504 -54.9,17.153 -81.741,27.406c-29.102,11.135 -57.629,23.185 -85.797,36.505c-26.678,13.596 -52.892,28.02 -77.3,45.456c-2.82,2.109 -5.586,4.267 -8.41,6.338c-4.418,3.247 -9.075,5.469 -14.404,5.47c-1.03,0 -2.085,-0.083 -3.168,-0.257Z"/><path style="fill-rule:nonzero;" d="M5679.66,2841.097c-185.3,-98.133 -387.948,-160.147 -599.56,-149.468c-161.582,-7.437 -322.787,-0.958 -482.59,24.872c-160.708,21.418 -324.348,49.06 -474.043,112.721c-0.006,-0.037 -0.012,-0.074 -0.018,-0.113c-19.288,11.004 -40.951,-9.236 -39.643,-29.506c-4.762,-52.3 221.914,-90.184 269.075,-106.727c193.792,-37.302 391.22,-68.793 589.02,-67.91c137.112,5.15 276.534,-4.186 411.464,24.644c120.527,26.878 235.275,75.908 343.91,133.408c20.953,16.018 12.078,61.576 -17.614,58.079Z"/><path style="fill-rule:nonzero;" d="M3901.491,2665.63c-43.235,-45.381 -9.904,-121.149 -18.759,-178.015c-5.973,-39.005 45.204,-51.877 50.567,-9.445c-3.857,37.491 16.542,187.103 -31.808,187.46Z"/><path style="fill-rule:nonzero;" d="M5772.804,2687.29c-31.007,-25.786 -8.71,-76.21 -19.181,-111.608c-0.876,-28.52 -23.229,-94.1 25.921,-88.935c31.445,-30.788 31.56,102.516 28.573,123.789c2.917,26.778 9.239,91.986 -35.312,76.754Z"/><path style="fill-rule:nonzero;" d="M5706.753,2476.407c-166.501,-39.911 -318.226,-130.17 -489.299,-152.37c-211.435,-27.174 -425.259,-23.566 -636.045,6.585c-133.198,11.27 -266.505,24.962 -397.264,53.678c-89.28,17.37 -175.698,46.568 -257.41,84.7c-31.566,-1.34 -34.069,-55.277 -5.272,-63.203c202.016,-100.359 434.725,-116.572 656.065,-138.72c208.576,-30.679 419.003,-32.801 628.483,-9.098c126.282,13.765 243.488,63.865 361.108,108.637c53.297,24.293 116.356,29.471 166.385,58.293c26.845,23.925 7.553,56.492 -26.751,51.497Z"/><path style="fill-rule:nonzero;" d="M3878.144,2419.921c-38.55,-44.694 41.325,-108.369 59.635,-150.219c45.895,-67.568 93.774,-133.748 141.452,-200.062c162.019,-226.022 326.168,-451.135 462.042,-694.252c47.109,-76.372 101.752,-147.768 144.343,-227.023c32.476,-42.655 60.08,-127.298 101.97,-149.059c68.442,12.085 -19.827,108.347 -32.413,139.142c-21.323,34.906 -41.393,70.506 -62.134,105.735c-92.457,134.583 -171.684,277.164 -259.312,414.795c-130.847,200.839 -275.455,392.235 -412.901,588.52c-33.755,47.855 -66.917,96.235 -98.068,145.827c-7.898,17.594 -23.196,42.907 -44.614,26.597Z"/><path style="fill-rule:nonzero;" d="M5752.995,2430.163c-68.752,-39.056 -97.393,-117.242 -141.732,-178.735c-79.842,-116.721 -154.571,-236.82 -235.179,-353.02c-147.181,-205.912 -292.44,-412.995 -426.554,-627.787c-41.863,-68.273 -79.595,-138.72 -119.304,-208.236c-13.804,-32.815 -65.763,-82.675 -20.677,-110.508c33.291,-14.166 73.948,107.822 95.523,132.334c56.241,103.086 116.408,200.643 182.388,297.206c149.61,239.272 326.424,459.729 475.968,699.12c65.523,113.84 174.116,214.492 189.589,349.628c-0.009,0.002 -0.015,0.001 -0.022,-0.001Z"/><path style="fill-rule:nonzero;" d="M4932.978,1791.138c0.1,-0.699 0.2,-1.418 0.279,-2.137c2.117,-17.112 -6.41,-34.785 -20.207,-44.768c-1.6,-1.156 -3.233,-2.191 -4.892,-3.111c322.817,-227.775 647.718,-452.718 968.933,-682.135c153.874,-122.205 222.265,-59.125 34.565,48.902c-324.789,231.919 -652.775,458.946 -978.643,688.926c0.087,-1.892 0.076,-3.787 -0.034,-5.677Z"/><path style="fill-rule:nonzero;" d="M3131.615,3181.079c-0.02,0 -0.04,0 -0.06,-0.04c-27.357,-63.938 213.16,-233.647 261.982,-288.02c190.136,-161.882 383.967,-319.45 582.25,-471.267c270.957,-207.76 547.534,-407.99 826.144,-605.508c3.601,5.675 8.243,10.606 13.635,14.771c1.957,4.493 4.493,8.726 7.548,12.52c5.807,7.228 13.431,12.433 21.851,15.538c-308.592,218.637 -614.797,440.527 -914.026,672.325c-177.118,138.059 -351.599,279.633 -521.807,426.119c-61.961,54.832 -123.802,109.825 -183.787,166.794c-25.967,24.867 -51.059,56.882 -89.71,56.884c-1.325,0 -2.663,-0.038 -4.021,-0.115Z"/><path style="fill-rule:nonzero;" d="M4050.338,1325.396c-186.901,-98.922 -367.853,-216.455 -566.495,-289.658c-27.476,10.523 -40.296,-10.363 -38.02,-31.25c2.416,-21.965 21.546,-43.95 57.948,-29.293c433.648,189.358 834.108,449.483 1239.201,692.714c38.524,24.607 77.153,49.051 115.852,73.38c-0.464,0.26 -0.923,0.527 -1.375,0.802c-15.215,-4.533 -32.588,-1.078 -45.008,8.885c-7.312,5.869 -12.811,13.871 -15.847,22.703c-246.188,-153.697 -493.2,-306.058 -746.256,-448.283Z"/><path style="fill-rule:nonzero;" d="M6513.125,2938.281c-420.229,-272.046 -796.528,-608.149 -1229.537,-861.604c-125.96,-77.215 -251.255,-155.595 -376.541,-233.956c1.632,-1.754 3.19,-3.581 4.675,-5.462c4.353,-3.375 8.247,-7.308 11.482,-11.781c7.169,-9.904 10.463,-22.245 9.784,-34.345c0.1,-0.699 0.18,-1.418 0.28,-2.137c0.042,-0.338 0.078,-0.677 0.112,-1.015c195.35,121.92 392.042,241.747 586.033,365.753c258.926,168.731 499.862,362.821 749.583,544.491c76.598,56.55 155.452,109.745 235.025,161.922c11.002,8.027 23.283,14.536 32.927,24.141c16.833,16.162 7.52,55.278 -16.145,55.28c-2.414,0 -4.976,-0.406 -7.677,-1.287Z"/><path style="fill-rule:nonzero;" d="M5968.351,1611.679c-144.385,-31.787 -281.624,-90.837 -416.878,-149.398c-13.314,-6.608 -28.695,-9.521 -40.755,-18.359c-21.729,-16.781 -15.43,-57.796 15.478,-57.145c131.25,50.13 259.733,111.475 396.045,149.3c90.527,30.078 106.836,13.558 170.475,-49.447c159.586,-116.813 328.906,-218.148 472.07,-356.299c245.98,-212.435 496.078,-422.705 714.909,-663.509c-95.036,-56.917 -171.68,-139.177 -266.195,-196.68c-165.56,103.873 -317.578,225.846 -469.417,348.323c-159.098,114.925 -314.535,234.538 -466.683,358.496c-54.867,34.831 -126.107,112.435 -190.186,115.511c-32.373,-8.822 -26.904,-70.345 9.603,-63.623c116.113,-65.478 214.714,-158.17 319.71,-239.616c135.742,-108.496 281.087,-204.411 414.616,-315.739c81.152,-68.571 166.699,-131.592 255.078,-190.56c32.015,-13.07 133.675,-115.804 152.767,-68.164c17.474,10.441 34.29,21.808 50.69,33.746c1.605,3.96 3.835,7.598 6.488,11.192c8.415,11.442 17.936,21.794 27.62,32.145c5.827,6.218 11.556,12.565 17.529,18.653c10.091,10.237 20.117,20.394 30.68,30.143c21.517,19.89 44.727,37.956 68.034,55.697c13.117,10 31.31,9.05 44.677,0.582c2.923,1.88 5.808,3.784 8.625,5.714c7.918,6.489 15.894,12.909 23.934,19.24c21.9,21.78 30.035,48.44 1.329,86.524c-53.678,68.783 -122.543,124.252 -182.34,187.614c-159.098,161.442 -334.017,305.68 -504.948,454.199c-107.634,95.312 -216.162,190.039 -336.361,269.368c-62.549,44.353 -131.787,80.485 -187.923,132.503c-30.825,31.766 -66.044,64.188 -109.862,64.19c-9.212,0 -18.798,-1.431 -28.81,-4.604Z"/><path style="fill-rule:nonzero;" d="M4205.547,1404.325c-66.25,-24.888 53.033,-249.986 36.414,-321.191c-0.565,-56.365 -6.136,-114.188 -22.247,-168.292c-21.173,-24.657 -56.25,-34.606 -83.352,-52.106c-195.025,-127.532 -407.048,-222.352 -617.906,-319.885c-130.455,-63.164 -241.596,-163.163 -376.923,-215.689c-30.902,-13.382 -40.64,30.915 -60.461,47.045c-60.548,67.671 -109.53,144.263 -154.915,222.65c140.163,92.588 272.528,197.111 418.759,280.319c48.41,37.032 279.168,132.212 270.104,185.207c-7.901,45.12 -46.681,22.488 -68.35,1.451c-27.615,-18.359 -56.634,-34.434 -85.422,-50.872c-186.915,-97.206 -357.857,-219.709 -530.019,-340.273c-27.761,-21.957 -89.937,-42.275 -63.056,-86.92c46.243,-73.011 87.146,-149.838 142.847,-216.459c29.704,-32.122 53.825,-70.051 84.669,-100.564c63.6,-27.237 128.738,31.092 183.429,58.449c142.952,94.916 291.314,180.63 450.838,244.654c125.341,60.507 251.872,119.889 367.756,197.561c59.421,46.035 161.357,60.245 176.582,144.872c36.288,145.581 15.356,269.175 -30.926,408.34c-8.264,26.806 1.15,81.207 -37.821,81.702Z"/><path style="fill-rule:nonzero;" d="M6831.589,3636.447c-84.91,-57.417 -174.765,-108.502 -254.098,-174.217c-96.76,-79.523 -182.998,-171.045 -281.609,-248.545c-118.969,-103.015 -245.332,-201.618 -332.895,-334.207c-41.549,-73.108 -29.812,-167.253 -12.195,-246.143c34.485,-90.837 45.32,-47.737 44.911,22.36c-5.648,54.261 -16.139,111.852 -1.762,165.103c63.083,117.055 172.776,200.378 270.015,288.389c189.393,155.479 357.373,337.266 573.207,457.821c55.869,-75.537 125.063,-138.206 196.534,-198.297c-99.911,-84.109 -184.716,-184.959 -286.558,-266.364c-73.736,-48.479 -152.536,-89.912 -221.265,-145.731c-21.129,-20.018 -45.803,-38.068 -62.598,-61.883c-6.69,-14.277 -5.491,-33.666 7.529,-44.19c24.495,-17.696 40.083,16.973 57.234,29.344c118.178,105.861 273.46,161.787 375.663,287.285c35.047,47.955 199.014,160.727 193.29,202.39c-29.163,74.347 -116.55,106.383 -162.548,169.983c-21.738,24.742 -43.53,49.435 -63.48,75.657c-8.355,13.691 -21.429,31.458 -39.374,21.245Z"/><path style="fill-rule:nonzero;" d="M2569.646,3730.946c-115.562,-56.018 -156.073,-320.146 -171.433,-439.625c-2.418,-21.214 3.921,-43.32 26.063,-50.416c24.905,-18.819 46.605,-41.508 69.796,-62.377c80.512,-73.827 151.165,-151.075 232.574,-222.871c105.221,-93.74 221.146,-174.193 330.668,-262.59c123.62,-95.001 252.67,-269.255 425.645,-240.79c68.352,16.02 139.86,26.79 202.792,59.227c27.49,15.168 60.676,69.834 6.073,64.501c-30.758,-2.04 -56.25,-23.649 -86.472,-29.54c-68.576,-14.609 -139.52,-46.332 -210.172,-29.165c-118.253,46.787 -207.391,142.247 -302.457,223.2c-108.735,88.542 -224.344,168.539 -329.775,261.221c-107.904,94.955 -202.888,203.394 -313.028,294.419c20.008,126.938 39.698,270.664 125.162,371.04c138.087,-127.939 294.461,-234.726 430.799,-364.578c81.932,-84.021 147.05,-185.564 236.242,-261.843c36.525,-10.211 49.169,54.546 15.117,64.449c-77.32,73.877 -138.997,161.503 -211.68,239.549c-80.487,80.68 -172.114,149.463 -260.38,221.355c-59.732,32.091 -167.118,167.43 -215.532,164.835Z"/><path style="fill-rule:nonzero;" d="M4896.67,1916.371c-8.886,-1.018 -16.833,-4.213 -24.301,-8.447c-92.393,25.759 -148.843,-87.181 -84.945,-153.275c29.453,-26.578 56.47,-63.579 98.783,-67.513c28.515,-2.775 72.823,3.095 65.755,41.654c56.637,56.342 41.208,187.675 -50.709,187.687c-1.512,0 -3.03,-0.035 -4.583,-0.107Zm-84.226,-165.376c-13.558,10.883 -20.886,29.093 -17.832,46.346c2.496,14.118 10.244,25.4 20.947,33.666c1.977,4.493 4.513,8.726 7.568,12.54c10.044,12.48 25.52,18.95 41.155,18.95c5.331,0 10.703,-0.759 15.875,-2.277c12.919,-3.814 23.363,-12.56 31.57,-22.963c4.353,-3.375 8.247,-7.308 11.482,-11.761c7.169,-9.924 10.463,-22.264 9.785,-34.365c0.1,-0.699 0.18,-1.418 0.279,-2.117c2.117,-17.112 -6.41,-34.785 -20.208,-44.769c-12.879,-9.305 -27.795,-10.783 -42.911,-7.328c-4.693,1.058 -8.885,2.855 -12.7,5.172c-4.437,-1.322 -9.053,-1.964 -13.68,-1.964c-11.243,0.001 -22.529,3.797 -31.328,10.87Z"/><path style="fill-rule:nonzero;" d="M5308.456,3504.005c-88.906,-43.96 142.527,-109.895 172.349,-127.618c-1.812,-112.811 4.306,-226.685 -17.047,-338.119c-10.371,-45.627 -48.915,-255.913 -118.86,-211.3c-109.055,85.591 -122.182,226.18 -122.265,355.232c-1.049,85.397 -1.251,170.853 -0.12,256.229c2.393,22.03 -25.025,44.092 -42.334,24.124c-15.206,-19.193 -7.278,-46.444 -9.245,-69.152c6.493,-216.831 -41.903,-504.374 173.63,-636.851c127.086,-13.623 154.282,206.932 174.197,298.552c17.637,111.304 10.899,224.325 13.395,336.539c3.907,24.997 -9.676,47.995 -36.835,46.152c-62.573,16.716 -121.751,69.519 -186.866,66.21Z"/><path style="fill-rule:nonzero;" d="M4308.417,4268.617c-72.777,-17.792 -151.903,-34.335 -206.23,-89.59c97.174,-45.442 205.871,59.019 333.482,28.658c-31.658,-190.761 -24.634,-387.655 -72.174,-575.615c-111.051,-304.389 -218.538,201.516 -235.541,302.492c-12.052,93.916 -45.66,195.801 -15.857,288.524c18.231,64.832 -51.905,70.159 -58.485,-13.54c-16.711,-163.114 63.924,-601.958 180.605,-716.603c220.34,-129.849 212.715,417.778 232.305,538.027c7.974,178.545 94.531,274.43 -158.105,237.647Z"/><path style="fill-rule:nonzero;" d="M5476.904,3915.235c61.121,-22.574 174.321,-45.689 254.675,-60.624c38.797,-4.032 81.752,-18.807 119.567,-6.326c32.786,18.678 5.931,82.858 -29.766,59.356c-3.712,0.075 -7.429,0.237 -7.412,0.11c-112.012,10.047 -224.708,12.97 -337.063,7.484Z"/><path style="fill-rule:nonzero;" d="M5217.036,4258.95c-170.48,-1.55 -342.37,-3.746 -511.523,-23.645c141.94,-16.878 283.653,-39.339 426.92,-40.073c241.635,-2.846 506.472,6.845 717.427,-129.035c10.619,-37.01 57.781,-15.425 50.871,17.615c-15.425,54.318 -86.638,70.193 -131.537,94.864c-174.213,71.416 -366.233,78.513 -552.159,80.273Z"/><path style="fill-rule:nonzero;" d="M5687.324,4171.147c-96.272,-20.688 -76.523,-216.761 -51.283,-145.782c16.866,28.497 30.129,64.175 58.848,82.586c32.258,6.651 27.326,67.132 -7.565,63.196Z"/><path style="fill-rule:nonzero;" d="M5643.083,3932.065c-32.507,-25.12 -9.469,-122.935 33.025,-71.121c11.64,21.856 -6.715,70.757 -33.025,71.121Z"/><path style="fill-rule:nonzero;" d="M5456.582,4439.661c-81.552,-0.502 -94.404,-85.967 -79.253,-149.721c-25.015,-1.219 -32.779,-34.938 -19.758,-52.932c15.286,-18.922 52.717,-22.403 64.356,2.416c19.225,38.366 -4.361,82.422 2.995,121.794c39.884,34.677 102.238,0.25 149.542,17.2c-21.168,45.218 -68.641,70.177 -117.881,61.243Z"/><path style="fill-rule:nonzero;" d="M5727.009,4397.562c-69.637,-13.334 -34.63,-210.695 -85.608,-141.531c-5.33,65.103 -69.794,25.338 -47.8,-23.413c15.633,-53.237 89.151,-81.407 115.428,-20.592c23.391,36.025 13.26,81.668 27.06,119.548c0.281,0.272 0.563,0.539 0.847,0.804c0.49,0.622 0.993,1.234 1.513,1.832c-0.443,-0.548 -0.886,-1.103 -1.33,-1.66c-0.057,-0.054 -0.114,-0.108 -1.187,-1.49c73.39,41.994 160.188,-34.503 215.814,-79.412c16.463,-15.879 -6.215,40.724 -11.479,51.475c-31.784,76.614 -135.005,126.563 -213.257,94.439Z"/><path style="fill-rule:nonzero;" d="M5047.097,4354.754c-35.692,-96.773 61.794,-161.41 136.356,-195.835c39.533,-1.801 36.12,58.556 4.458,69.457c-64.431,20.342 -100.17,76.901 -140.766,126.417c-0.02,-0.002 -0.04,-0.02 -0.048,-0.039Z"/><path style="fill-rule:nonzero;" d="M4108.565,3019.875c-74.484,-76.24 289.587,-133.303 337.083,-140.719c159.972,-23.417 321.961,-26.646 483.291,-33.244c52.89,-4.57 -37.253,23.364 -56.094,32.183c-94.494,40.685 -197.137,42.726 -297.984,49.984c-97.418,8.516 -194.61,23.017 -289.456,47.368c-48.801,5.213 -141.685,60.657 -177.137,44.292c-0.001,-0.005 0.304,0.138 0.297,0.137Z"/><path style="fill-rule:nonzero;" d="M4245.498,2976.99c-43.007,-25.647 3.24,-77.412 11.541,-111.265c19.298,-39.707 18.254,-94.832 59.09,-120.071c35.635,10.24 7.988,90.114 -1.593,116.123c-14.985,26.321 -31.523,127.184 -69.039,115.213Z"/><path style="fill-rule:nonzero;" d="M4511.21,2939.018c-55.542,-8.442 -98.848,-53.521 -98.889,-110.641c-0.722,-39.185 -11.962,-89.672 18.212,-120.427c29.404,-21.115 51.801,27.876 32.276,49.251c-31.479,158.183 122.448,122.568 225.975,129.226c-52.813,30.596 -114.486,62.922 -177.574,52.59Z"/><path style="fill-rule:nonzero;" d="M4744.851,2863.353c-12.873,-25.791 -59.971,-192.679 9.61,-151.335c16.857,47.057 -0.765,103.28 -9.565,151.377c-0.022,0 -0.039,-0.01 -0.045,-0.042Z"/><path style="fill-rule:nonzero;" d="M4150.725,3121.744c-26.17,-64.665 -44.063,-144.598 -13.657,-210.42c35.599,-51.112 94.48,41.128 37.452,54.535c-2.335,52.707 -4.942,105.949 -23.753,155.915c-0.014,0 -0.029,-0.01 -0.042,-0.03Z"/><path style="fill-rule:nonzero;" d="M4392.863,3092.15c-36.599,-32.456 -23.868,-86.548 -30.104,-130.046c-34.381,-48.811 39.972,-102.143 48.776,-27.283c4.19,34.588 3.8,68.659 7.398,101.063c21.835,22.062 55.114,29.356 82.179,43.065c-25.584,32.286 -77.022,44.277 -108.249,13.201Z"/><path style="fill-rule:nonzero;" d="M4676.385,3058.026c-50.459,-13.203 -85.553,-188.25 -25.058,-185.225c56.142,26.805 -23.565,134.688 86.01,135.86c23.101,2.37 46.61,4.183 69.159,8.855c-30.881,34.963 -84.763,68.678 -130.111,40.51Z"/><path style="fill-rule:nonzero;" d="M4142.713,3146.278c-44.235,-11.247 -12.17,-90.747 26.316,-65.682c125.913,-15.719 254.767,-12.794 379.195,12.909c-134.739,16.33 -269.922,43.793 -405.511,52.773Z"/><path style="fill-rule:nonzero;" d="M5945.476,5289.635c-0.569,-41.324 51.695,-41.319 51.118,-0.006c0.567,41.321 -51.679,41.32 -51.118,0.006Z"/><path style="fill-rule:nonzero;" d="M5391.354,5718.793c-30.959,-70.428 125.123,-73.066 166.97,-92.553c116.06,-36.91 234.44,-70.437 344.481,-123.198c42.607,-21.919 84.841,-46.453 122.57,-75.277c5.13,-10.509 17.215,-16.551 28.532,-12.688c62.015,44.382 -38.557,91.808 -72.906,114.802c-116.462,70.429 -249.371,105.713 -377.518,148.582c-47.431,14.714 -95.871,25.522 -143.752,38.577c-22.44,5.811 -48.513,22.185 -68.376,1.754Z"/><path style="fill-rule:nonzero;" d="M4735.232,5735.768c-139.491,-26.724 -282.063,-30.323 -422.905,-47.243c-137.625,-19.932 -274.584,-45.578 -411.08,-72.175c-80.913,-4.43 -60.131,-106.536 -11.293,-68.679c158.972,35.41 320.646,63.365 482.337,83.735c109.104,10.512 219.045,15.677 327.237,33.657c53.053,-0.315 133.877,65.116 35.705,70.705Z"/><path style="fill-rule:nonzero;" d="M5341.269,3372.126c-73.373,-36.954 -43.774,-175.545 -42.885,-244.577c6.61,-28.027 -2.299,-80.426 34.529,-87.098c12.36,0 22.185,11.222 24.487,22.724c-4.095,79.258 -26.112,163.435 -5.658,243.745c48.096,-76.537 -5.137,-214.265 18.116,-311.678c30.702,103.19 79.685,214.996 38.415,321.387c-10.467,26.485 -34.029,63.782 -67.003,55.496Z"/><path style="fill-rule:nonzero;" d="M4262.541,4086.217c-54.208,-35.311 -32.62,-112.823 -35.047,-167.596c8.054,-36.71 -10.339,-245.898 47.502,-222.617c88.223,-115.333 140.811,178.347 132.397,234.924c-0.403,72.74 -61.202,178.695 -144.851,155.289Zm23.7,-58.868c118.137,-45.86 65.42,-213.672 21.115,-298.139c-1.847,0.687 -3.653,1.424 -5.468,2.215c-3.274,1.707 -6.53,3.451 -9.79,5.188c-10.505,94.969 -21.667,195.357 -10.68,290.236c1.591,0.333 3.19,0.618 4.823,0.5Z"/><path style="fill-rule:nonzero;" d="M6146.246,1204.295c209.522,-205.078 445.345,-378.841 669.971,-566.211c116.727,-100.75 227.981,-207.948 338.923,-313.644c5.524,5.491 11.11,10.913 16.855,16.216c8.405,7.769 17.07,15.26 25.896,22.562c-136.53,133.395 -274.624,263.127 -421.355,385.153c-199.137,166.374 -412.028,315.935 -630.29,456.038c-0.033,0 -0.049,-0.081 0,-0.114Z"/><path style="fill-rule:nonzero;" d="M3955.035,1017.284c-68.561,-35.832 -141.105,-62.794 -208.746,-100.32c-70.361,-41.463 -135.55,-91.201 -205.787,-132.837c-168.252,-96.29 -341.071,-188.281 -518.573,-266.04c-51.294,47.872 -63.42,-73.799 -5.135,-65.407c74.53,16.666 140.038,62.097 208.945,93.955c134.54,70.448 273.203,134.317 399.303,219.549c112.369,80.018 244.903,138.955 329.992,251.1Z"/><path style="fill-rule:nonzero;" d="M2444.97,3515.966c-74.485,-63.709 275.911,-272.258 324.774,-321.495c143.656,-118.729 300.343,-218.625 458.679,-316.346c-217.669,219.273 -475.3,393.16 -712.523,589.567c-24.413,13.537 -38.297,68.643 -70.93,48.275Z"/><path style="fill-rule:nonzero;" d="M6904.79,3539.579c-87.844,-83.981 -170.965,-173.066 -264.206,-251.24c-95.655,-77.361 -200.726,-150.475 -274.604,-250.038c-25.803,-32.116 -49.602,-66.201 -74.9,-98.203c27.456,11.182 53.155,27.277 75.459,42.733c66.446,42.982 116.108,105.53 178.133,153.898c128.917,95.376 244.775,205.471 357.329,319.331c97.767,71.148 29.447,132.075 2.79,83.52Z"/><path style="fill-rule:nonzero;" d="M5960.596,2689.517c-49.678,-16.488 -26.523,-77.928 -9.45,-111.486c14.596,-27.559 22.113,-62.4 46.287,-83.085c35.433,-18.061 51.93,42.069 24.323,58.919c-0.131,0.249 -0.263,0.498 -0.392,0.748c41.443,41.083 -4.228,137.395 -60.769,134.904Z"/><path style="fill-rule:nonzero;" d="M3723.985,2653.625c-28.9,-15.3 -47.808,-62.838 -23.502,-89.36c-2.728,-49.301 55.034,-62.823 72.103,-15.55c17.743,37.445 9.909,124.807 -48.601,104.91Z"/><path style="fill-rule:nonzero;" d="M4195.958,1423.02c-26.975,-41.33 38.381,-203.403 71.535,-98.7c36.908,39.505 -23.622,161.407 -71.535,98.7Z"/><path style="fill-rule:nonzero;" d="M5443.143,1450.997c-65.123,-88.972 74.839,-149.783 126.948,-80.223c21.324,16.145 53.235,1.327 70.113,22.091c26.277,49.034 -32.926,62.66 -68.73,45.868c-24.237,46.083 -95.774,53.267 -128.33,12.264Z"/><path style="fill-rule:nonzero;" d="M4806.645,1016.239c5.492,-16.354 12.281,-32.209 20.467,-47.384c5.433,-10.064 11.474,-20.314 18.426,-29.74c-1.533,-2.79 -3.107,-5.561 -4.712,-8.312c-3.987,-6.382 -8.363,-12.54 -12.451,-18.866c2.688,43.986 -48.595,104.95 -62.645,33.035c-20.302,-14.82 -16.469,-47.909 4.205,-60.359c1.717,-19.153 9.972,-36.806 14.393,-54.915c4.602,-22.713 -2.22,-45.451 1.125,-67.995c43.719,-78.726 64.672,58.368 72.754,89.387c59.299,98.703 71.904,124.31 -51.563,165.149Z"/><path style="fill-rule:nonzero;" d="M4775.851,949.2c-0.568,-41.325 51.695,-41.319 51.118,-0.006c0.569,41.324 -51.695,41.319 -51.118,0.006Z"/><path style="fill-rule:nonzero;" d="M4719.264,1119.213c-8.545,-70.64 89.214,-38.438 123.408,-17.068c-28.165,15.06 -109.813,67.964 -123.408,17.068Z"/><path style="fill-rule:nonzero;" d="M4686.727,1249.243c-17.318,0.769 -24.32,-21.744 -16.899,-35.121c27.625,-27.935 106.012,0.924 141.676,8.356c-40.515,13.778 -82.788,23.682 -125.54,26.837c0.254,-0.022 0.508,-0.047 0.763,-0.072Z"/><path style="fill-rule:nonzero;" d="M4561.963,1361.155c-18.657,-6.924 -14.372,-43.096 7.267,-40.575c22.555,4.882 16.698,48.309 -7.267,40.575Z"/><path style="fill-rule:nonzero;" d="M5267.588,3444.247c-42.113,-14.437 -37.86,-66.674 -38.235,-102.736c-3.046,-84.357 2.102,-168.537 20.806,-251.023c10.631,-71.456 53.993,-257.808 156.496,-181.329c44.589,59.455 62.953,343.052 31.815,413.249c18.504,-5.182 36.482,12.508 33.191,31.062c-2.323,28.732 -32.795,35.855 -54.411,46.691c-47.352,18.513 -96.924,54.004 -149.662,44.085Zm19.22,-61.359c43.102,-7.133 81.875,-29.361 121.509,-46.664c-47.524,-21.335 24.223,-218.775 -40.392,-273.148c0.293,0.027 0.582,0.055 0.872,0.082c-0.041,-0.032 -0.083,-0.064 -0.124,-0.096c-1.479,-0.088 -2.96,-0.055 -4.443,0.102c0.081,-0.076 0.163,-0.153 0.244,-0.229c-0.085,0.076 -0.17,0.154 -0.254,0.23c-0.515,0.055 -1.029,0.125 -1.544,0.21c0.483,-0.038 0.966,-0.08 1.449,-0.123c-0.161,0.146 -0.321,0.294 -0.454,0.437c0.155,-0.146 0.311,-0.293 0.467,-0.438c0.77,-0.069 1.542,-0.141 2.313,-0.215c-26.555,16.667 -5.567,68.483 -40.117,77.516c-15.48,2.854 -25.825,-11.075 -28.647,-24.613c-19.399,88.992 -20.377,176.699 -15.785,266.794c1.613,0.304 3.271,0.193 4.906,0.155Zm26.907,-342.625c10.609,-27.284 41.149,-50.116 70.57,-37.711c-8.057,-104.539 -63.557,-10.364 -70.57,37.711Z"/><path style="fill-rule:nonzero;" d="M4224.831,4169.714c-180.787,14.562 -96.566,-155.883 -73.688,-258.923c25.581,-81.26 18.045,-173.664 66.671,-246.604c83.139,-108.835 94.47,30.1 126.08,87.779c23.589,22.315 -4.17,76.336 -33.543,48.222c-25.004,-29.984 -31.617,-70.02 -44.377,-105.909c-40.766,46.44 -38.516,112.932 -50.936,170.345c-12.04,78.135 -48.511,154.72 -52.568,232.859c47.08,16.269 101.727,6.115 151.279,7.444c36.902,-11.338 38.126,-67.032 51.876,-98.407c5.793,-19.695 12.008,-39.747 18.91,-58.846c10.834,68.544 25.075,158.234 -33.548,209.19c-37.267,22.205 -84.695,9.843 -126.156,12.85Z"/><path style="fill-rule:nonzero;" d="M5382.446,5538.042c-35.216,-0.392 -38.628,-44.208 -10.53,-59.467c71.36,-24.85 145.618,-43.232 217.874,-66.03c154.338,-47.417 317.468,-96.551 435.98,-211.743c24.634,-34.635 68.571,-40.065 63.05,13.43c-170.147,204.074 -463.822,246.875 -706.375,323.81Z"/><path style="fill-rule:nonzero;" d="M4671.91,5526.146c-273.232,-25.392 -537.998,-108.103 -807.307,-158.524c-42.114,-1.184 -73.177,-60.823 -22.587,-74.533c65.301,25.396 137.525,32.762 206.312,48.396c162.938,35.64 325.248,73.425 489.058,105.017c98.256,22.82 205.719,2.752 296.786,52.335c-49.912,25.348 -106.76,33.171 -162.263,27.309Z"/><path style="fill-rule:nonzero;" d="M6112.878,5537.658c-7.356,-89.129 30.33,-176.77 61.426,-258.327c-4.788,68.107 -13.848,135.858 -18.172,203.999c-4.683,23.537 10.38,63.325 -19.328,73.279c-11.673,2.283 -21.421,-8.098 -23.926,-18.95Z"/><path style="fill-rule:nonzero;" d="M6194.117,5549.562c-15.116,-5.651 -20.907,-25.32 -17.112,-39.816c8.587,-33.483 14.454,-67.521 21.329,-101.357c30,-186.353 96.957,-362.931 169.905,-536.145c0.02,-0.08 0.1,-0.02 0.101,0.04c-38.316,149.985 -82.281,298.641 -106.905,451.678c-7.809,51.824 -16.624,111.474 -25.923,161.046c-5.992,23.155 -6.441,73.09 -41.395,64.555Z"/><path style="fill-rule:nonzero;" d="M6310.834,5521.718c-36.269,-16.365 6.738,-90.079 12.583,-118.85c31.26,-88.384 67.035,-175.185 104.952,-260.904c-24.577,118.761 -56.17,236.89 -88.779,353.994c-2.203,13.993 -12.535,31.846 -28.757,25.76Z"/><path style="fill-rule:nonzero;" d="M6397.497,5483.748c3.285,-36.243 17.743,-72.255 43.089,-98.403c-3.856,36.328 -18.18,71.762 -43.089,98.403Z"/><path style="fill-rule:nonzero;" d="M3804.183,5677.182c-16.4,-18.682 -13.738,-46.967 -19.407,-70.089c-7.43,-48.742 -15.738,-97.363 -22.852,-146.166c-20.812,-115.048 -43.967,-230.29 -63.431,-345.249c52.518,158.669 103.353,318.45 131.294,483.568c2.092,20.727 11.693,41.063 9.202,61.9c-0.804,17.15 -21.611,31.022 -34.805,16.036Z"/><path style="fill-rule:nonzero;" d="M3743.021,5693.859c-20.859,-110.264 -24.889,-226.065 -35.634,-338.12c9.11,26.433 138.224,427.567 35.634,338.12Z"/><path style="fill-rule:nonzero;" d="M3682.127,5688.616c-16.872,-4.453 -15.221,-25.726 -12.958,-39.327c0.762,-74.722 -7.312,-148.81 -6.206,-223.512c7.314,40.012 75.756,257.387 19.164,262.839Z"/><path style="fill-rule:nonzero;" d="M3921.313,5625.966c-18.623,-118.024 22.677,-240.312 53.125,-353.934c-4.462,70.522 -11.948,141.941 -26.581,211.442c-8.451,47.656 -28.244,94.575 -26.545,142.492Z"/><path style="fill-rule:nonzero;" d="M4325.019,5830.635c-45.955,-42.084 21.625,-220.14 33.2,-280.292c-7.261,92.983 -8.52,189.891 -30.719,280.492c-0.083,0.716 -2.005,0.181 -2.48,-0.2Z"/><path style="fill-rule:nonzero;" d="M4384.544,5823.005c-18.799,-21.302 -16.284,-53.938 -7.85,-78.973c10.083,25.965 6.035,54.097 10.701,80.517c0.552,1.257 -2.415,-0.882 -2.851,-1.544Z"/><path style="fill-rule:nonzero;" d="M5720.151,5834.031c-78.942,-49.301 16.364,-348.435 30.618,-434.547c-7.556,144.449 -29.578,290.353 -30.618,434.547Z"/><path style="fill-rule:nonzero;" d="M5812.092,5753.838c-11.776,-9.592 -12.675,-27.807 -9.585,-41.614c9.051,11.529 10.001,26.621 9.605,40.835l0,-0.06c0.02,0.26 0.04,0.519 0.06,0.759c0,0.049 -0.027,0.085 -0.059,0.085c-0.006,0 -0.014,-0.001 -0.022,-0.005Z"/><path style="fill-rule:nonzero;" d="M7105.754,638.593c-61.264,-35.741 -102.782,-95.93 -147.283,-149.56c-29.49,-38.295 -64.715,-72.05 -93.892,-110.368c-18.145,-24.291 14.676,-63.652 33.821,-30.454c52.528,58.103 101.335,119.377 151.542,179.494c39.225,42.128 88.671,75.857 112.079,130.484c-19.4,-3.628 -38.605,-10.429 -56.267,-19.595Z"/><path style="fill-rule:nonzero;" d="M7000.868,834.026c-63.579,-22.275 -105.028,-77.385 -151.205,-123.193c-58.64,-58.275 -119.746,-114.612 -186.915,-162.982c-30.594,-11.198 -13.786,-70.825 17.355,-47.385c66.765,46.676 126.495,102.507 184.97,159.002c52.989,51.909 106.035,105.494 135.794,174.558Z"/><path style="fill-rule:nonzero;" d="M6718.356,921.14c-70.888,-27.757 -122.544,-91.412 -177.018,-140.706c-25.8,-24.049 -51.41,-48.302 -76.903,-72.674c-19.921,-19.974 -62.18,-49.526 -31.983,-78.643c10.89,-9.241 26.52,-1.626 30.295,11.038c20.832,20.921 42.504,41.001 63.804,61.441c73.689,66.427 143.4,132.573 191.805,219.544Z"/><path style="fill-rule:nonzero;" d="M3063.223,740.468c-23.569,-49.867 57.004,-138.938 76.147,-189.744c30.964,-53.52 58.289,-109.133 77.968,-167.839c6.076,-23.025 25.472,-84.475 53.84,-46.678c11.095,22.682 -11.274,43.238 -14.93,65.526c-27.052,84.058 -72.704,159.793 -114.348,237.116c-21.753,27.027 -38.916,106.213 -78.676,101.62Z"/><path style="fill-rule:nonzero;" d="M3227.296,863.007c-27.269,-62.44 52.715,-120.356 78.508,-172.653c44.66,-67.795 91.261,-136.096 117.45,-213.561c11.632,-21.755 -8.114,-67.552 28.437,-67.708c37.671,18.566 12.524,75.362 3.723,105.944c-36.957,94.553 -96.834,177.768 -153.676,261.152c-24.64,28.035 -36.841,74.299 -74.399,86.847c-0.018,-0.002 -0.018,-0.002 -0.043,-0.02Z"/><path style="fill-rule:nonzero;" d="M3419.558,995.374c-18.134,-44.086 10.825,-87.009 30.419,-125.082c41.703,-77.013 83.797,-153.818 123.98,-231.64c12.395,-27.354 62.733,-118.181 79.475,-47.101c-57.492,97.706 -112.916,204.85 -168.495,307.109c-17.645,34.758 -34.437,71.744 -65.339,96.747c-0.014,0.001 -0.03,-0.013 -0.04,-0.033Z"/><path style="fill-rule:nonzero;" d="M3611.288,1081.181c-10.843,-58.173 26.923,-108.085 49.971,-158.218c40.26,-88.577 84.042,-178.9 100.086,-275.518c-19.552,-60.483 53.166,-53.534 41.113,9.244c-18.021,107.235 -112.495,352.865 -191.135,424.54c-0.02,-0.002 -0.036,-0.025 -0.035,-0.048Z"/><path style="fill-rule:nonzero;" d="M2684.69,3581.37c-39.49,-31.684 -42.358,-92.783 -66.024,-136.154c-29.029,-70.94 -62.903,-139.963 -101.499,-206.185c-14.953,-15.677 -19.287,-51.018 8.535,-54.384c29.806,10.115 38.553,55.761 56.672,80.069c13.195,27.066 174.53,340.765 102.315,316.654Z"/><path style="fill-rule:nonzero;" d="M2842.634,3538.365c-27.635,-23.503 -37.23,-61.848 -55.483,-92.352c-41.142,-85.048 -81.792,-170.35 -122.601,-255.576c-47.755,-20.178 -27.03,-117.974 16.37,-64.77c51.602,101.225 98.185,205.138 148.73,306.934c16.264,35.997 46.678,71.515 35.97,113.395c-8.29,0.783 -16.253,-2.963 -22.985,-7.631Z"/><path style="fill-rule:nonzero;" d="M2979.735,3379.882c-81.556,-70.754 -116.28,-181.733 -159.553,-277.853c-10.884,-36.8 -47.766,-71.907 -37.262,-111.624c30.25,-68.623 101.777,170.147 118.173,191.222c21.535,50.112 55.81,93.652 77.296,143.58c8.713,19.765 10.147,41.772 16.685,62.011c-5.717,-0.59 -10.601,-4.067 -15.338,-7.336Z"/><path style="fill-rule:nonzero;" d="M3165.666,3201.94c-89.675,-79.367 -142.775,-191.121 -203.322,-292.547c-15.982,-35.436 -51.914,-71.99 -42.133,-112.971c4.391,-15.297 24.217,-16.876 32.164,-3.406c59.53,142.463 171.243,259.099 213.291,408.924Z"/><path style="fill-rule:nonzero;" d="M6745.667,3530.495c-31.372,-6.127 -22.861,-63.987 9.304,-57.91c71.557,-71.895 135,-152.996 209.149,-222.024c45.451,-16.86 28.323,45.857 5.13,60.533c-48.062,50.768 -96.451,101.266 -142.412,153.976c-24.745,22.21 -45.153,63.492 -81.171,65.424Z"/><path style="fill-rule:nonzero;" d="M6542.044,3448.265c-30.674,-37.157 29.061,-73.602 47.027,-103.287c45.078,-54.28 89.54,-109.09 136.357,-161.883c44.922,-51.661 103.473,-75.105 47.32,15.156c-42.948,51.932 -88.539,101.985 -130.487,154.881c-20.682,24.923 -41.686,49.614 -62.058,74.793c-8.785,12.042 -21.264,33.453 -38.159,20.34Z"/><path style="fill-rule:nonzero;" d="M6439.913,3310.346c-29.745,-39.498 62.834,-121.248 83.292,-158.119c43.91,-53.68 81.283,-117.806 145.736,-148.909c-24.015,89.304 -95.617,152.186 -146.989,225.878c-14.793,19.995 -29.803,39.924 -43.393,60.788c0.003,18.255 -24.133,36.43 -38.646,20.362Z"/><path style="fill-rule:nonzero;" d="M6297.258,3219.358c-47.113,-40.586 61.793,-145.835 85.684,-184.7c38.819,-47.505 88.094,-86.194 137.807,-121.258c-52.685,100.169 -135.623,179.698 -192.123,277.148c3.913,17.305 -13.302,38.574 -31.368,28.81Z"/></g><path style="fill:#fff;stroke:#000;stroke-width:1px;" d="M6037.382,2590.582l1043.255,761.808l-252.509,230.865l-844.145,-735.883l53.399,-256.79Z"/></svg>