<svg id="Calque_1" xmlns="http://www.w3.org/2000/svg" viewBox="0 -500 538.33 896"><defs><style>
      .cls-1 {
        fill: #fff;
      }
    </style></defs><path class="cls-1" d="M161.46,379.1l-7.14-14.12-1.27-34.28-11.9-68.71-14.44-23.8-6.66-29.91-6.35-15.8-32.85-1.59-20.15-15.38-14.6-30.94-14.6-40.78-18.57,18.72-8.52-3.57-2.59-17.69,8.73-26.34,16.03-17.3-13.33-20.15-.32-22.85h5.4l27.14,27.61,41.89-14.92,74.9,3.33,19.04,5.24L217.32,3.01s5.08,16.5-3.81,35.07-13.65,18.49-13.65,18.49c0,0,2.17,1.33,4.54,4.04,5.25,5.99,13.24,17.93,13.24,31.54,0,19.77.51,15.24.51,15.24l19.64.93,24.88,1.08,57.86-3.89,47.59,14.85,14.43,13.46,18.59-7.08,39.54,7.22,13.32,22.34,10.13,51.99,5.97,19.19,18.27,15.65,8.33-5.68s6.03-2.2,11.9,1.59,16.55,15.08,16.55,15.08l6.47,8.95-20.37,1.61s-14.54-.12-16.86-3.24-8.06-12.27-8.06-12.27l.24-5.55-22.1-15.2-19.29-47.92-10.83-25.24-16.24-7.44-20.8,7.88,17.14,59.56,11.74,74.7,5.81,64.62-41.86-.59,7.11-37.23-4.74-24.43-18.62-13.52.36,63.91-27.87,6.76-10.91-6.4,8.3-61.78-.59-20.87-6.88.83-31.07,19.8-68.77,11.5-21.34-1.42,5.45,51.94,4.39,42.69-39.02-6.64-24.49-.04Z"></path><g><path d="M489.27,241.76c3.8-5.16,10.53-7.66,16.64-4.96,4.53,2,9.24,4.35,12.65,7.98,5.23,5.58,8.72,13.97,17.33,18.21,1.18.58,1.89,1.23,2.44,2.7l-6.42-.89c-8.37-1.17-16.47.54-24.87,1.15-4.4.32-9.06-1.47-12.8-3.31-4.74-2.32-11.32-9.78-8.31-15.68-7.15-4-17.74-11.44-22.41-18.02-7.9-11.14-15.64-34.35-19.71-47.88-1.84-6.11-4.18-11.92-6.74-17.72-2.91-6.59-8.18-11.28-15.03-13.37-5.43-1.65-10.6.18-15.53,2.52l-7.13,3.39,8.06,21.22,2.97,11.72c1.1,4.33,2.71,8.35,3.71,12.68l4.8,20.87c3.29,14.31,5.31,28.57,6.9,43.18l1.92,17.64,3.32,34.31.4,10.09,1.82,17.87c.37,3.59,2.86,8.71-.28,11.96-10.38,10.72-31.91,10.7-44.84,4.05-1.07-2.2-1.13-4.93-.35-7.33,2.05-6.36,3.38-12.54,4.34-19.16.51-3.5,1.61-7.02,1.87-10.54.66-8.87.04-21.09-3.09-29.39-1.04-2.76-3.19-5.4-5.65-6.88l-9-5.4-.22,10.13-.32,8.71-.27,37.55c-.04,4.96-1.19,9.56-1.81,14.48l-3.78,5.48c-11.29,5.25-17.35,5.67-29.54,4.96-3.55-.21-6.71-1.57-9.44-3.45l-.27-3.77c1.06-3.9,2.22-7.4,2.85-11.38l6.74-42.76c.24-1.54,1.49-14.44,1.49-15.42l.14-23.81c0-.45-.69-1.61-1.09-1.65-.49-.05-1.16.39-1.8.9-7.22,5.6-15.04,9.67-23.02,14.09-8.79,4.86-17.72,8.32-27.31,11.36-8.18,2.59-16.15,4.34-24.8,4.83l-9.25.53-8.73.58c-3.55.24-6.77.29-10.31,0l-6.17-.49c-3.59-.29-7.03-.77-10.49-1.47-1.42,7.69-.77,15.58.23,23.57l2.72,21.81,1.78,16.92,1.59,11.99.69,10.36.42,5.51c.36,4.67-2.16,9.57-7.13,10.8-10.61,2.64-18.77,3.57-29.53.69-3.99-1.07-6.02-5.35-5.32-9.77-6.26,2.64-26.45,4.93-31.64-.27-1.37-1.37-.13-4.21-.13-5.98l-.06-23.85-.5-7.14c-.15-2.16-.22-4.32-.58-6.51l-9.64-58.34c-1.16-7.03-.02-9.94-1.35-17.31-10.95-13.44-17.42-29.53-19.73-46.66-.58-4.31-4.35-18.27-6.73-22.17-5.83.26-10.78-.48-16.39-.9l-8.19-.61c-5.4-.4-10.16-2.37-14.92-4.75-7.88-3.94-10.59-5.97-15.27-13.31-1.46-2.28-3.12-4.46-4.38-6.92-3.11-6.05-5.53-12.02-7.58-18.55-3.17-10.08-7.05-19.51-10.94-29.29l-5.02-12.6-.88-.79-6.04,6.94c-2.6,2.99-5.3,6.57-8.88,8.38-6,3.03-11.95-1.08-13.72-6.73-2.75-8.78-2-16.77.5-25.38,1.93-6.62,4.06-12.53,7.79-18.4s7.54-11.14,13.73-14.75c-8.05-9.77-15.04-20.23-13.77-32.75.44-4.35.81-8.71,1.75-12.95,6.44-4.73,14.72,9.55,20.34,14.97,3.48,3.35,7.05,6.38,10.28,10.14,12.62-8.49,25.96-10.91,41.44-12.07l6.14-.46,7.12-.54,7.6-.41,8.19-.36c6.37-.28,12.7-.35,19.09-.01l9.85.51c7.33.38,18.47,1.89,25.71,3.58,10.85,2.53,26.78,10.31,31.57,21.84,3.42-4.2,7.02-8.35,9.41-13.16,3.82-7.68,7.68-17.39,6.83-26.03-1.33,1.46-2.53,2.8-4.08,4l-9.59,7.42-5.72,5.15-7.8,6.85c-.45.4-1.8.6-2.29.43-.59-.21-1.12-1.72-.69-2.16l12.98-13.25c5.43-5.54,12.42-9.39,15.65-16.71.77-1.75,4.9-3.39,5.93-1.03,2.04,4.69,1.87,10.49,1.41,15.58-1.23,13.76-9.4,31.43-20.39,40.31,3.08.32,5.19,1.63,6.69,3.89,1.79,2.7,4.02,5.16,5.49,8.04,1.56,3.05,3.13,6.22,4.19,9.47,2.54,7.83,2.82,15.9,2.58,24.18-.11,3.96-1.88,7.66-2.53,11.52-1.16,6.78-2.68,13.24-7.07,18.55-2.22,2.68-5.34,4.39-8.86,3.52-4.18,1.2-6.96-1.37-9.15-4.38-4.36-6.02-6.16-12.51-4.55-20.14-5.59,10.84-10.57,21.57-17.87,31.27l-8.67,11.51c-11.07,14.69-16.46,20.24-29.78,32.87-4.38,4.16-9.64,6.83-15.74,8.02,3.52,6.28,7.36,17.43,8.64,24.65,2.56,14.34,8.27,27.56,16.7,39.26,6.69,9.28,18.67,20.7,30.98,19.6l-3.01-11.54c-1.71-6.58-3.43-12.74-4.47-19.55,2.19,3.4,3.01,6.69,4.36,10.08,5.43,13.57,8.6,25.49,11.42,39.8l4.22,21.39c3.28,16.61,7.41,38.35,5.39,54.94l9.87.38c7.73.3,15.22-1.68,22.6-3.72l-2.41-14.09-1.7-17.42-1.17-10.86c-1.2,1.78-2.5,3.36-3.96,3.85-1.77.6-3.93.22-5.61-.79-5.15-3.08-7.61-8.71-8.11-14.69l-.58-6.94c-.39-4.68-.68-9.34-3.12-13.46-4.34-7.33-8.49-15-9.36-23.66-.67-6.72,3.88-12.33,9.82-15.04,6.94-3.17,14.9-.88,20.56,5l.94-.33v-13.08c.01-6.36-3.61-13.71-1.41-17.93,1.36.03,3.05,1.49,3.48,2.88,2.64,8.48,3.01,16.88,2.6,25.7l-.39,8.43-.49,6.63c-.4,5.32-1.41,10.48-2.16,15.65,1.3.18,2.9.56,3.95.58l11.83.15c.24,0,.94-.23.89-.37l-.29-.76c-1.8-4.62,2.34-14.85,4.9-19.2,7.6-12.87,14.28-16.46,20.69-26.66,3.48-5.54,5.27-11.85,7.96-17.69,1.83-3.99,5.78-5.83,9.34-7.66,9.59-4.9,17.38-4.43,23.88,4.55,4.01,5.54,6.51,11.96,7.2,18.94.9,8.96,4.65,16.92,12.24,22.11,1.14.78,2,1.87,3.03,3.39,4.24-2.65,8.36-5.46,12.67-8.88-6.34-5.77-10.18-12.75-13.04-20.64-1.2-3.32-6.58-15.37-4.32-17.92,2,5.95,4.06,10.79,6.59,16.15,3.13,6.64,6.27,13.27,11.94,18.13l7.07,6.06c7.79,6.68,16.86,11,26.18,15.2,6.17,2.78,11.81,6.11,17.34,10.02,2.79,1.97,4.87,5.88,6.02,9.04,2.25,6.2,2.51,12.47,3.14,18.9s-.33,12.72-1.44,19.01l-2.25,12.66c-.19,0,.69.61.93.61l12.6.14c1.61.02,17.47.12,17.11-2.49-.26-1.89-.8-5.66-.95-7.84l-.48-6.73-.22-7.8c-12.51-.17-20.09-18.42-18.98-24.87l1.41-8.19c.72-4.2-7.24-19.68,3.84-29.57l6.69-5.97c-1.59-13.97-4.19-27.19-7.56-40.77-1.24-4.99-1.81-9.9-3.23-14.78l-5.42-18.66c-2.38-8.2-5.69-15.84-8.98-23.75-5.37-12.93-19.14-27.73-31.35-34.5-14.34-7.97-29.78-10.28-46.02-12.25-3.05-.37-6.47-.2-9.41-.1-1.45,1.92-1.32,4.66-.6,6.83,2.24,6.73,3.09,13.77.39,20.42-5.82,14.37-20.73,15.17-28.13,27.54-3.44,5.75-5.21,21.16-16.94,25.5-4.95,1.84-11.57-.9-14.98-4.43-3.2-3.31-4.54-7.45-5.3-11.72-1.09-6.12-6.01-11.41-10.42-15.88-10.46-10.6-10.87-16.45-5.88-30.65,1.07-3.04,1.64-5.7,1.52-9.02-.24-6.6-2.17-5.54-.31-7.35l-3.76-1.79c6.85-.08,13.09-.21,19.76.09l10.34.45c6.53.29,12.8.07,19.24-1,21.4-3.56,39.98-5.93,61.61-2.02,21.88,3.55,37.79,10.98,52.91,27.44,12.28-8.01,29.83-10.26,44.01-6.58,5.42,1.26,10.58,3.35,14.24,7.67,10.34,12.19,13.45,22.66,15.96,38.51,1.78,11.23,3.8,21.95,6.21,33.05,1.72,7.91,3.96,15.53,8,22.54,2.48,4.31,6.7,7.3,10.73,9.97l6.1,4.05ZM37.15,41.96l3.98-3.62c-5.27-3.42-10.55-6.88-14.98-11.45-3.38-3.48-5.88-6.85-10.06-9.7-2.74,8.81-1.47,19.07,3.38,26.21l8.08,11.9c2.83-4.62,5.36-9.5,9.59-13.35ZM148.24,161c1.83-1.89,10.87-13.98,10.7-14.83-.11-.54-.83-1.96-1.34-2.38-9.91-8.32-6.59-6.46-19.6-10.12-7.02-1.97-13.57-4.13-19.57-8.29-4.11-2.85-6.94-9.6-2.52-13.19,5.57-4.53,13.39-6.06,20.45-6.58,8.87-.66,16.71-2.74,23.74-8.19,4.57-3.54,7.1-8.53,7.98-14.27,1.42-9.34,9.14-14.91,18.38-14.45,3.07.15,5.69.24,8.67,1.2.23-6.47-.09-13.07-2.83-19-2.48-5.36-11.82-10.97-17.22-13.38l-21.96,6.61c-10.32,3.1-17.64-4.76-20.06-13.92l-12.56-.51c-5.69-.23-11.25-.24-16.92,0-2.16.09-4.36.45-6.55.4-9.3-.21-19.26,1.56-22.26,11.54-3.67,12.2-7.43,24.31-19.57,30.12-3.82,1.83-6.16-2.64-14,3.92l-7.41,6.2c-1.59,1.33-2.84,3.36-4.27,5.12,2.07,10.47,5.2,20.36,9.02,30.37l6.71,17.57c2.86-3.9,10.48-1.96,14.07-.62,10.91,4.07,13.5,1.05,23.27,8.34l4.35,3.24c3.3-.29,6.2-.14,9.55.15,12.05,1.05,12.19-.05,24.18,3.06,9.15,2.38,20.15,5.71,27.57,11.88ZM212.36,116.45c2.04-13.89,3.9-9.18,2.6-25.85-.77-9.94-3.76-19.22-9.13-27.6-1.22-1.91-2.65-3.56-4.51-4.84l.4,5.74c.42,6.03-.25,11.69-2.31,17.36l-7.23,19.85c-1.56,4.27.56,9.44-.48,13.85s.57,8.8,2.89,12.72c1.48,2.51,3.23,4.63,5.97,4.86,8.15.67,10.78-9.18,11.8-16.09ZM28.99,102.05c-3.72-13.63-6.81-25.85-4.04-39.92-3.41,2.94-7.58,5.74-9.83,9.66l-5.26,9.2c-2.39,7.57-4.86,15.17-5.41,23.24-.29,4.19,1.33,8.2,2.45,12.33.31,1.16,2.7,2.06,3.92,2.32,4.67,1.01,14.07-13.65,18.17-16.83ZM456.98,188.06l-3.12-19.75c-.65-4.11-1.67-8.15-2.86-11.93-8.02,1.18-13.49-7.31-19.44-12.66-7.28-6.54-14.13-2.44-24.85-8.99-2.41-1.47-3.7-4.05-4.58-6.46-5.97,1.34-11.52,2.8-17.07,5.27,5.48,6.73,10.01,13.19,13.72,20.53,9.59-4.58,14.45-9.32,25.49-6.38,20.72,5.51,17.12,30.8,27.04,35.72,2.23,1.11,3.6,2.56,5.68,4.65ZM110.54,190.76c5.76-.47,11.13-2.48,15.41-6.35,7.36-6.66,13.79-13.52,20.55-21.25-1.31-1.29-2.67-2.25-4.4-3.18-10.11-5.41-20.99-8.73-32.49-10.04-15.48-1.77-41.49,3.33-56.49,8,3.7,6.3,7.23,12.26,11.4,18.08,1.27,1.78,3.33,3.28,4.82,4.97,3.83,2.18,7.6,4.8,11.89,6.09,7.88,2.37,21.14,4.36,29.31,3.69ZM522.55,254.11c-5.4-7.92-6.37-9.41-14.53-14.01-4.62-2.5-10.2-2.82-14.25,1.03,10.89-2.5,18.56,3.53,25.4,10.7l3.38,2.27ZM520.87,260.61c2.26.79,4.34,1.47,6.92,1.04-3.79-1.51-7.15-3.25-10.61-5.63-5.43-3.74-11.16-6.2-17.3-8.3,7.1-.62,17.06,6.07,22.7,9.9,1.91,1.3,4,2.2,6.25,3.15-.95-2.18-2.66-2.48-4.46-3.31-9.61-4.39-15.12-16.69-30.08-14.55-2.06.3-3.77.94-4.18,2.99,4.18-1.09,8.25-1.86,12.08-.1l-4.03-.19c-2.57-.12-5.7.45-8.44,1.22-1.33.37-1.85,4.27-.75,5.12,8.86,6.85,19.3,10.51,30.16,9.07-9.38-2.5-18.23-4.83-25.89-10.69,4.05.81,7.08,3.22,10.75,4.72,5.49,2.25,11.22,3.6,16.88,5.57ZM511.25,262.63c-7.86-.96-14.2-3.55-20.66-7.44,4.48,7.21,13.49,8.76,20.66,7.44ZM338.42,336.62l-.99,5.73c16.33,1.48,18.68,3.82,35.53-.57l-.36-8.11-.5-15.61-.28-37.83c-10.39-3.79-19.69-9.23-28.24-15.63l1.51,9.2c.6,15.42-2.36,10.99,5.79,21.46,6.91,8.88,4.44,20.05-2.24,27.88s-3.94,9.69-10.21,13.48ZM156.49,366.36c10.52,1.82,18.87,3.33,29.45,1.04.27-16.33-2.91-31.8-5.97-47.79l-4.22-22.02-3.02-15.49c-1.97.49-3.63.66-5.34.43-11.65-1.54-16.32-7.56-24.63-14.3,1.12,8.04,2.52,15.44,4.19,23.2l1.83,8.48c4.92-.23,9.88,1.49,12.33,5.68,3.03,5.2,2.42,11.41,3.32,17.05.78,4.89,1.21,8.78-1.51,13.28-1.61,2.65-3.7,5.09-7.63,4.91l.54,5.4.49,8.2c.24,4.11.14,7.76.17,11.93Z"></path><path d="M365.84,237.89c-9.48.07-10.3-3.82-18.34-11.72l-11.31-11.11c-.84-.83-2.29-2.04-3.22-2.7-8.4-5.98-12.37-15.01-11.93-25.38.18-4.15-2.34-11.42-1.36-17.29.35-2.09,1.59-5.05,3.24-6.35l9.2-7.24,14.78-14.49c3.47-3.4,7.77-4.27,12.37-4.28,3.43,0,5.65.89,8.23,2.89,4.81,3.74,7.88,8.36,8.31,14.71.22,3.24,1.07,7,.92,10.31-.59,12.8,2.38,24.46,8.9,35.31,6.17,10.27,9.66,22.86-.9,31.69-5.24,4.39-12.03,5.6-18.88,5.65Z"></path><path d="M175.85,221.63c-17.4,7.77-15.88,18.03-29.77,19.44-2.56.26-5.44-.58-7.21-2.62-3.44-3.95-6.36-8.64-7.32-13.84-1.51-8.19-.85-16.36,2.65-23.88,1.53-3.29,4-6.13,6.35-8.86,4.11-4.77,8.77-12.52,10.31-18.62,1.69-6.67,7.01-11.49,14.08-11.6l15.45-.24c4.34,1.61,8.02,3.71,11.96,6.04,5.74,3.41,11.52,7,14.75,13.19,4.68,9,4.65,20.43-2.5,28.33-3.23,3.57-7.73,5.08-12.2,6.38-5.81,1.7-11.08,3.81-16.55,6.26Z"></path><path d="M144.09,96.43c-6.66.51-10.52-6.55-10.09-12.27.41-5.4,1.46-9.54,6.6-11.57,2.56-1.01,6.39-.56,8.28,1.5,6.5,7.1,2.05,21.82-4.79,22.34Z"></path><path d="M81.02,89.03c-2.99,1.39-6.1-1.03-7.61-2.98-3.02-3.89-2.8-7.75-1.91-12.17,1-4.93,4.36-8.38,9.86-7.93,2.32.19,4.68.99,5.95,3.45,2.72,5.26,2.22,12.09-1.86,16.72-.92,1.04-2.9,2.2-4.43,2.91Z"></path><path d="M110.66,181.7c-5.96-2.64-3.34-16.4-1.66-19.3,1.23-2.13,6.56-2,7.6-.08,1.88,5.2,1.58,10.85-.07,15.9-.76,2.34-3.47,3.04-5.87,3.48Z"></path><path d="M91.06,177.58c-.46,1.34-2.56,3.55-3.63,2.96-7.1-3.97-6.08-16.83-2.55-20.18.67-.63,2.91-.6,3.96-.43,3.27,5.17,4.34,11.47,2.21,17.65Z"></path></g></svg>