<svg id="Calque_1" xmlns="http://www.w3.org/2000/svg" viewBox="0 0 767.25 7337.6"><defs><style>
      .cls-1 {
        fill: none;
        stroke: #010101;
        stroke-linejoin: round;
        stroke-width: 31px;
      }
    </style></defs><path id="cyclist-path" class="cls-1" d="M405.51,7337.62c-.02-52.04,40.76-96.84,82.2-121.35,16.45-9.97,33.33-19.81,48.61-31.37,12.06-8.41,23.41-20.33,24.48-35.74,1.88-51.27-78.55-78.98-119.62-87.1-58.05.16-151.38-6.85-184.73-64.43-26.19-45.23,3.71-122.96,42.72-149.72,41.09-28.19,91.7-37.69,140.27-48.82,48.57-11.12,99-25.82,134.2-61.09,17.44-17.47,7.83-37.59,3.52-58.78-37.01-78.48-130.69-87.95-202.66-114.96-83.42-31.31-36.02-123.25,33.79-138.77,31.13-6.92,63.45-4.82,95.28-6.72,62.84-3.74,128.45-26.14,166-76.66,5.7-7.67,10.85-16.53,10.46-26.07-.35-8.48-5.02-16.12-10.01-22.99-20.01-27.52-47.17-52.28-81.51-55.77-42.63-4.33-83.43-17.03-126.92-14.71-25.15,1.34-49.9,6.66-74.84,10.22-48.95,6.99-98.86,7.18-147.87.58-43.58-5.87-88.84-18.47-119.2-50.28-15.69-16.43-33.08-51.1-17.01-72.85,12.61-17.07,47.84-30.42,66.28-40.35,44.56-23.99,93.51-42.61,135.44-71.15,10.38-7.04,16.15-12.97,15.17-17.48-2.36-6.61-9.79-4.87-14.1-10.78-5.8-7.2-4.09-15.8.49-23.99,11.52-19.01,30.9-31.22,46.5-46.49,52.83-55.45,201.76-9.77,218.86-79.81,12.14-49.72-56.43-61.04-89.19-70.14-46.17-12.82-93.37-22.57-137.99-40.41-9.64-3.86-19.36-8.23-26.79-15.48-3.07-3-5.74-6.54-7.04-10.63-3.51-11.07,3.78-22.71,12.35-30.54,12.23-11.17,27.5-18.43,42.95-24.38,80.67-31.04,172.8-30.69,247.54-74.08,9.38-5.44,18.56-11.7,25.09-20.36,18.09-23.99,21.31-53.31-1.71-73.87-18.12-16.19-43.59-27.2-67.45-31.25-67.07-11.39-140.27-8.12-208.25-12.09-41.92-2.45-85.33-5.3-122.4-25.02-18.9-10.05-35.37-25.39-46.22-43.88-22.47-38.28-12.85-96.76,32.18-113.39,18.34-6.77,37.27-10.1,54.82-19.23,28.37-14.75,54.98-31.61,84.33-44.72,45.39-20.28,92.33-38.19,133.26-66.41,40.93-28.21,76.1-68.77,85.49-117.58,5.01-26.06,2.63-54.05-6.27-79.05-3.38-9.5-9.57-17.02-13.72-26.11-5.36-11.73-10.96-22.02-20.34-31.15-12.14-11.81-27.21-20.24-42.87-26.68-23.95-9.85-49.51-15.32-75.21-18.46-29.19-3.56-58.79-4.19-87.62-10-28.83-5.8-57.58-17.45-77.36-39.23-10.31-11.36-17.98-25.62-19.21-40.91-4.1-50.91,63.12-76.38,102.16-88.47,50.74-15.72,104.13-21.41,154.27-39.22,9.8-3.48,19.44-7.41,28.78-11.98,62.91-30.3,139.12-72.46,154.14-145.81,2.11-12.84,1.83-27.49-2.11-40.63-83.42-199.32-472.31-18.12-487.98-274.78-2.13-178.16,399.2-149.89,347.58-272.83-28.03-26.07-70.01-17.55-104.82-20.16-23.1-1.87-61.51-16.81-52.23-41.75,8.67-30.9,67.99-67.92,106.25-79.09,23.24-6.29,44.99-14.44,67-25.81,41.21-21.65,78.2-52.99,81.8-100.96-12.49-170.99-289.78-120.42-418.23-145.71-71.89-9.23-83.46-61.15-61.07-124.99,96.77-258.74,271.22-178.99,399.03-335.01,26.11-39.39,39.41-93.45,14.95-136.72-23.61-37.02-64.15-52.53-106.24-56.78-41.06-4.14-81.92,16.3-119.92-8.66-7.75-5.09-14.31-11.77-20.57-18.61-10.55-11.52-20.48-23.75-27.97-37.46-9.46-17.31-14.82-36.57-18.58-55.93-14.99-77.29-5.14-158.31,21.65-232.34,19.09-52.75,46.6-102.17,79.2-147.73,29.37-41.05,73.81-65.68,96.33-113.03,26.25-55.18,6.91-130.2-43.86-166.06-24.24-17.13-54.17-24.64-80.02-38.88-31.66-17.43-59.93-41.31-80.81-70.94-40.21-57.03-50.1-136.73-16.64-197.97,11.41-20.88,27.24-39.07,44.4-55.55,10.76-10.34,22.2-20.14,35.22-27.43,26.74-14.98,58.15-18.38,88.11-24.85,47.51-10.26,92.73-28.82,136.2-50.26,36.85-18.18,84.42-35.56,111.28-67.99,25.06-30.25,31.94-72.45,29.14-110.63-2.19-29.81-11.25-61.86-35.78-78.94-13.9-9.68-31-13.29-47.6-16.68-33.08-6.76-66.16-13.53-99.24-20.29-27.71-5.67-56.07-11.58-80.19-26.35-24.12-14.77-43.58-40.43-42.97-68.71.3-13.79,5.24-27.03,10.61-39.73,9.59-22.71,20.76-44.76,33.4-65.92,13.85-23.2,30.02-47.13,30-74.15-.01-19.96-8.39-38.89-6.94-58.96,1.2-16.73-3.52-26.87-13.49-41.23-16.5-23.8-39.87-40.93-65.18-54.41-46.73-24.89-105.14-38.96-136.11-85.51-10.61-17.19-12.47-41.79-12.17-62.55,6.02-227.33,318.14-208.88,250.44-374.92-4.25-18.87-8.85-37.67-13.7-56.37C448.9,154.73,405.51,200.82,405.51,0"></path></svg>