<svg id="Calque_1" xmlns="http://www.w3.org/2000/svg" viewBox="0 0 767.25 7337.6"><defs><style>
      .cls-1 {
        fill: none;
        stroke: #010101;
        stroke-miterlimit: 10;
        stroke-width: 31px;
      }
    </style></defs><path id="cyclist-path" class="cls-1" d="M405.28,0c0,68.03-8.87,51.87-21.88,89.49-10.28,29.71-48.23,25.16-70.54,57.69-31.08,45.33,42.33,109.23,79.25,149.03,22.59,24.36,49.01,45.22,69.31,71.52,20.3,26.3,34.22,60.37,26.35,92.65-5.48,22.45-20.43,39.79-36.38,55.7-15.5,15.45-30.2,34.63-43.5,52.22-8.82,11.66-17.05,24.05-21.62,37.94s-5.18,29.56.97,42.83c6.87,14.82,21.11,24.82,35.62,32.31,20.98,10.83,43.68,17.85,66.1,25.23,41.84,13.77,84.38,29.55,119.33,57.1,7.06,5.57,16.8,12.05,20.27,20.62,3.21,7.92,4.83,18.16,6.67,26.53,4.74,21.47,5.77,45.08-2.66,65.8-36.46,89.6-127.08,121.55-215.18,129.59-43.35,3.96-108.89,7.67-129.76,54.62-6.38,14.35-6.06,30.78-3.9,46.34,4.2,30.41,16,61.3,39.92,80.53,26.05,20.94,61.44,24.63,94.6,28.87,38.65,4.93,77.07,11.7,115.08,20.27,15.86,3.58,33.92,9.35,39.82,24.51,4.5,11.58.03,24.72-6.22,35.45-36.65,62.94-115.95,74.06-180.9,85.54-61.76,10.91-121.8,30.51-159.42,84.5-75.87,108.88,133.43,120.64,196.55,129.25,26.46,3.61,52.99,6.73,79.55,9.54,13.85,1.84,116.94,17.38,72.31,37.94-79.45,31.41-227.34,27.13-263.88,120.31-18.07,101.06,124.59,185.97,164.43,270.26,16,32.94-9.59,47.59-37.46,55.22-25.36,7.5-65.22,8.63-85.67,26.14-7.7,6.59-12.38,18.04-20.06,25.44-9.14,8.81-20.42,14.61-27.3,25.76-9.48,15.38-7.6,35.67.23,51.95,7.83,16.28,20.8,29.43,33.53,42.25,18.15,18.28,36.96,37.01,60.72,46.97,12.41,5.21,25.74,7.81,38.95,10.39,32.94,6.42,65.88,12.84,98.82,19.26,23.76,4.63,51.78,4.03,70.25,20.36,27.42,24.26,33.37,62.68,29.66,97.32-8.04,74.89-52.11,149.15-101.73,204.21-24.42,27.09-52.46,50.8-83.1,70.53-60.01,42.62-182.24,72.24-159.58,166.55,17.55,59.34,75.8,100.93,131.44,123.52,67.88,27.7,151.76,22.3,200.98,81.57,4.28,5.16,8.68,10.53,10.46,17,2.02,7.32.42,15.15-2.09,22.32-9.86,28.14-33.23,49.82-59.26,64.38-26.03,14.55-54.93,22.96-83.22,32.41-52.99,17.7-104.64,39.41-154.36,64.89-36.98,18.95-96.24,54.45-82.73,105.73,3.51,13.32,12.72,24.28,21.66,34.76,22.73,26.61,46.36,53.95,77.76,69.39,56.35,27.71,123.16,17.72,182.31,22.56,52.29,4.27,66.74,63.72,66.53,106.82-.49,101.13-60.71,212.8-167.36,231.07-22.83,4.84-46.56,6.1-69.94,5.68-46.76.88-164.45-19.6-156.26,53.5,28.26,77.84,132.47,62.17,200.28,68.04,48.58,3.04,99.68,18.89,130.52,56.78,29.08,33.34,28.78,79.18-16.79,95.21-50.59,18.2-112.58,8.38-168.19,12.17-59.54,3.48-137.86,11.99-183.37,48.75-72.41,69.67,56.6,150.25,113.1,181.08,104.63,60.86,252.86,76.36,302.72,198.01,44.65,109.23,11.27,262.82-119.02,288.91-70.5,21.43-182.18-13.95-227.69,46.73-20.72,30.49-7.63,73.23,19.78,95.73,19.55,16.83,45.31,25.23,70.65,29.19,57.08,9.13,122.05.41,171.69,35.3,62.92,42.96,64.99,133.41-9.04,166.99-50.56,25.65-122.48,31.01-166.82,70.66-46.46,37.49-55.32,116.82-3.65,153.14,57.95,41.38,138.75,23.52,203.69,46.63,36.05,11.67,67.37,37.23,79.15,73.76,19.43,54.39-10.5,117.96-63.43,140.42-47.98,22.57-105.11,19.01-156.93,24.95-79.68,5.21-156.13,61.63-123.97,147.06,56.22,109.74,210.03,22,299.92,78.92,81.52,44.9,103.7,170.71,40.26,239.4-53.14,57.07-138.17,55.51-210.4,60.46-33.5,3.6-71.93,7.86-97.01,31.92-44.11,46.49,20.56,89,69.68,90.77,45.08,9.04,158.01-17.21,158.67,47.88-1.79,21.24-19.63,41.42-38.7,52-61.54,35.98-140.87,7.6-203.02,39.85-45.95,23.32-41.93,85.33-9.62,119.95,45.47,67.77,241.96,60.56,160.88,166.19-27.93,36.36-73.57,63.43-106.89,93.57-37.92,31.99-50.61,66.25,8.59,96.73,37.79,25.87,180.84,57.92,158.36,115.51-8.76,17.02-27.08,30.66-44.83,43.05-50.33,35.12-41.69,40.01-41.69,150.13"></path></svg>