<svg id="Calque_1" xmlns="http://www.w3.org/2000/svg" viewBox="0 0 767.25 7337.6"><defs><style>
      .cls-1 {
        fill: none;
        stroke: #010101;
        stroke-linejoin: round;
        stroke-width: 31px;
      }
    </style></defs><path id="cyclist-path" class="cls-1" d="M405.51.04c0,50.71-70.65,38.93-80.42,44.86-22.84,13.86,37.78,18.86,40.34,30,4.05,17.65,24.76,25.36,41.69,31.9,4.13,1.59,8.72,2.41,12.09,5.26,11.26,9.51,6.57,29.25,2.32,40.64-6.32,16.92-17.94,29.08-35.42,30.96-19.09,2.06-32.44-4.2-48.57,12.5-12.3,12.74-17.32,31.64-14.5,49.1,1.35,8.36,4.35,16.41,8.27,23.93,14.08,27.04,38.91,45.79,64.75,60.89,25.05,14.64,45.72,16.79,59.17,44.63,5.7,11.81,9.79,25.07,8.67,38.31-1.04,12.4-6.86,23.26-15.97,31.65-9.4,8.66-20.71,15-30.81,22.78-9.88,7.61-19.47,16.99-22.34,29.55s1.01,25.33,7.42,35.99,15.53,19.43,26.51,25.1c10.64,5.5,22.45,8.2,34.07,10.76,22.2,4.9,47.08,9.6,62.46,27.95,18.25,21.77,9.01,49.31-3.32,71.58-11.87,21.43-29.12,38.97-49.34,52.69-22.88,15.53-48,23.95-72.73,35.59-9.08,4.28-15.85,10.61-24.67,14.81-10.26,4.89-22.49,4.29-32.97,8.84-12.37,5.37-21.24,16.35-29.37,27.08-19.03,25.1-37.81,55.93-28.95,86.12,4.8,16.35,17.31,29.59,31.73,38.73,14.42,9.14,30.78,14.69,46.96,20.16,27.85,9.41,56.69,23.44,85.72,25.02,26.32,1.43,52.37.77,70.6,23.33,7.46,9.22,12.18,21.37,9.82,32.98-1.22,6-4.22,11.47-7.22,16.81-11.24,19.97-24.37,40.66-45.21,50.3-20.71,9.57-45.03,6.33-67.11,12.1-36.59,9.55-113.08,60.91-69.21,100.9,7.91,7.21,17.44,12.36,26.86,17.43,30.26,16.29,65.41,9.6,96.95,27.94,22.42,13.03,39.71,31.51,54.82,52.3s29.9,45.6,39.46,70.72c8.86,23.28,14.01,53.55-2.41,74.92-7.4,9.63-18.76,14.03-30.09,17.31-36.34,10.52-65.78,5-101.52,3.71-35.25-1.28-79.89,14.27-108.35,34.35-28.47,20.09-47.94,50.21-65.84,80.05-16.86,28.11-43.5,61.96-52.09,93.7-7.39,27.32-7.68,61-10.76,89.41-3.14,28.96-4.72,58.22-2.48,87.31,2.08,27.1,7.51,54.1,18.63,79.03,10.48,23.47,25.83,44.57,44.46,62.29,18.95,18.02,41.02,31.89,65.32,41.57,25.22,10.04,51.87,15.63,77.51,24.44,24.65,8.46,48.05,19.95,67.56,37.43,12.12,10.86,33.3,23.59,36.71,39.8,8.11,38.54-2.72,79.8-25.4,112.04-22.68,32.24-56.42,55.82-93.17,70.26-17.67,6.94-36.15,11.93-53.13,20.41-47.95,23.96-94.97,73.58-116.06,122.34-10.94,25.3-17.32,52.46-20.18,79.82-3,28.63-2.19,57.67,1.84,86.16,3.93,27.82,11.06,55.17,21,81.45,9.56,25.26,22.01,49.34,38.22,71.02,16.25,21.74,35.57,41.01,56.1,58.73,21.52,18.57,44.38,35.52,67.23,52.43,23.06,17.07,46.18,34.12,67.89,52.88,20.32,17.56,39.48,36.73,55.06,58.66,15.2,21.39,27.04,45.4,33.19,70.95,6.44,26.76,6.39,54.91-1.04,81.47-6.77,24.18-19.53,47.05-38.49,63.81-9.94,8.79-21.35,15.59-33.74,20.34s-25.06,7.57-37.63,11.22c-22.32,6.5-44.28,15.9-58.32,35.27s-19.38,45.13-18.06,69.25c1.55,28.23,11.14,55.26,20.14,81.82,9.4,27.72,19.61,55.14,29.46,82.7,7.74,21.65,23.69,44.25,27.28,65.84,4.24,25.53-.53,55.83-4.65,81.11-8.78,53.92-28.73,106.05-58.6,151.87-8.46,12.98-17.93,25.7-30.61,34.63-9.78,6.89-21.13,11.29-30.99,18.06-27.91,19.17-38.72,52.48-56.25,79.8-20.75,32.34-26.48,63.33-25.87,102.69.4,25.88,3.45,52.63,13.6,76.67,9.45,22.37,26.05,40.13,46.29,53.33,22.91,14.94,49.57,24.44,75.72,32.03,13.82,4.01,28.04,6.32,41.98,9.86,13.57,3.45,26.81,8.18,39.47,14.16,22.7,10.72,43.33,25.79,59.59,44.94,16.69,19.66,28.11,43.24,34.51,68.13,7.01,27.25,8.07,55.81,5.16,83.72s-9.78,55.71-19.44,82.23c-9.48,26.02-21.64,51.07-36.05,74.72-14.13,23.2-30.42,45.13-48.76,65.2-18.65,20.41-39.4,38.51-62.04,54.39-21.19,14.85-39.84,31.61-53.14,54.04-13.53,22.82-20.49,49.09-19.32,75.63s10.32,51.92,24.06,74.38c13.55,22.14,31.47,41.52,51.68,57.76,20.78,16.7,44.14,30.28,69,39.98,12.83,5,26.03,8.96,39.54,11.63s28.43,4.47,42.48,7.61c24.64,5.5,49.9,13.85,70.13,29.38,44.15,33.87,33,98.97,7.96,142.09-19.85,34.18-52.95,60.48-90.8,72.15-22.28,6.87-45.76,8.78-68.56,13.63-34.62,7.37-67.71,21.67-96.83,41.73-24.82,17.1-46.07,28.24-57.48,58.41-9.48,25.06-12.51,52.7-12.92,79.32-.41,26.77,2.4,53.33,13.18,78.11,10.03,23.07,26.1,43.36,45.69,59.13,21.63,17.4,46.4,27.58,73.09,34.47,26.09,6.73,50.67,15.9,73.44,30.52,18.66,11.98,39.29,28.34,51.24,47.19,10.03,15.82,13.8,36.98,4.5,53.24-3.52,6.15-8.64,11.22-13.85,16.04-32.36,29.98-70.56,53.63-111.78,69.44-39.53,15.16-80.98,13.91-117.04,38.87-20.35,14.1-37.5,33.4-47.26,56.25-8.53,19.96-11.74,43.97,1.48,62.7,13.92,19.72,41.18,25.12,63.75,27.34,27.71,2.72,55.6-.02,83.23-2.39,28.3-2.43,57.03-4.54,85.19.42,24.05,4.23,48.17,13.87,65.73,31.27,15.88,15.74,25.23,38.94,14.15,60.02-11.19,21.28-34.89,33.43-55.91,42.92-23.92,10.79-47.99,20.28-69.15,36.15-20.41,15.31-37.73,34.71-49.88,57.16-12.92,23.87-19.51,50.73-18.79,77.87.65,24.13,5.02,49.2,27.47,62.47,20.48,12.1,46.36,12.45,69.42,11.84,28.49-.75,57.02-4.62,85.53-2.05,24.11,2.17,51.78,8.59,68.76,27.06,15.7,17.07,21.74,41.71,16.39,64.16-5.68,23.86-22.72,43.54-42.48,57.38-21.3,14.92-46.35,23.03-71.91,26.94-28.53,4.36-57.64,4.1-86.42,3.47-49.65-1.08-97.98,1.24-147.53,3.07-18.32.68-37.15,1.46-53.94,8.79-21.67,9.46-37.3,28.58-52.06,47.02-7.67,9.58-15.49,19.44-19.26,31.11-3.62,11.21-3.23,23.4-.74,34.91,5.84,27.09,22.78,50.74,43.02,69.73,20.24,19,43.85,33.96,66.78,49.63,25.77,17.61,51.62,36.62,81.87,44.42,55.36,14.29,117.85-21.61,163.52,24.31,16.82,16.91,22.42,39.6,14.03,62.11-8.42,22.59-27.32,39.58-49.25,48.84-23.26,9.82-49.15,13.29-73.94,17.1-25.86,3.98-54.87,7.19-77.65,21.07-10.51,6.4-18.33,15.9-19.96,28.34-1.59,12.15,2.06,24.82,7.63,35.54,6.06,11.69,15.05,20.49,24.87,29.06,9.88,8.62,18.68,18.09,26.43,28.67,15.84,21.62,22.85,10.45,24.68,37.26,1.62,23.73,23.15,29.35,23.15,106.95"></path></svg>