<svg width="835" height="376" viewBox="0 0 835 376" fill="none" xmlns="http://www.w3.org/2000/svg">
<g id="IA_Triche">
<path id="Vector" d="M770.777 52.0923L85.9632 4.43757C50.7444 1.98677 20.669 21.9125 18.788 48.9429L3.40577 269.991C1.52478 297.021 28.5505 320.921 63.7693 323.371L748.583 371.026C783.802 373.477 813.878 353.551 815.759 326.521L831.141 105.473C833.022 78.4423 805.996 54.5431 770.777 52.0923Z" fill="#F20066"/>
<path id="IA &#38; TRICHE : LE D&#195;&#137;BAT" d="M184.944 68.5452L182.838 96.5461L176.015 96.0544L178.121 68.0535L184.944 68.5452ZM205.589 93.2131L195.136 92.4597L193.088 97.2849L185.947 96.7702L198.186 69.4997L206.086 70.069L214.113 98.8004L206.892 98.2799L205.589 93.2131ZM204.229 87.8214L201.529 77.3202L197.327 87.3239L204.229 87.8214ZM247.077 101.176L244.672 98.4765C241.944 100.258 238.785 101.02 235.194 100.761C233.04 100.606 231.191 100.125 229.647 99.3184C228.105 98.4854 226.943 97.3991 226.162 96.0595C225.409 94.6951 225.097 93.1487 225.227 91.4203C225.359 89.6652 225.943 88.1166 226.98 86.7743C228.046 85.4074 229.557 84.3399 231.513 83.5719C230.886 82.6712 230.455 81.8247 230.22 81.0324C229.988 80.2136 229.906 79.3388 229.976 78.4081C230.076 77.0785 230.513 75.8935 231.287 74.8531C232.06 73.8127 233.121 73.0337 234.471 72.516C235.849 71.9737 237.442 71.7677 239.251 71.898C241.086 72.0303 242.617 72.4749 243.843 73.2317C245.07 73.9885 245.961 74.9483 246.515 76.1112C247.069 77.274 247.27 78.5183 247.117 79.8441L240.693 79.3811C240.774 78.665 240.629 78.1065 240.258 77.7054C239.915 77.2797 239.425 77.0439 238.787 76.9979C238.148 76.9519 237.602 77.0996 237.149 77.4413C236.695 77.7829 236.447 78.2462 236.403 78.8312C236.361 79.3896 236.489 79.9871 236.789 80.6236C237.116 81.2621 237.634 82.008 238.346 82.8613L244.667 90.0142C244.73 89.8851 244.809 89.7303 244.903 89.5499C245.023 89.3715 245.145 89.1664 245.27 88.9348L246.935 86.5283L253.757 87.02L251.581 90.3522C250.745 91.8693 249.809 93.299 248.772 94.6412L255.016 101.749L247.077 101.176ZM235.928 95.2795C237.71 95.408 239.33 95.0168 240.789 94.106L235.018 87.6344C233.029 88.4803 231.972 89.7408 231.846 91.4161C231.77 92.4266 232.092 93.3053 232.811 94.0523C233.559 94.7746 234.598 95.1837 235.928 95.2795ZM288.192 75.9871L287.781 81.4516L280.36 80.9168L278.665 103.453L271.843 102.961L273.538 80.425L266.117 79.8902L266.528 74.4256L288.192 75.9871ZM303.793 105.264L298.763 94.2743L297.127 94.1564L296.332 104.726L289.51 104.235L291.616 76.2338L303.066 77.0592C305.274 77.2183 307.12 77.739 308.605 78.6214C310.116 79.5056 311.206 80.6536 311.876 82.0654C312.547 83.4506 312.821 84.9675 312.697 86.6162C312.557 88.4776 311.9 90.1012 310.726 91.4871C309.578 92.8748 307.958 93.8007 305.864 94.2647L311.493 105.819L303.793 105.264ZM297.49 89.33L301.719 89.6348C302.969 89.7249 303.923 89.4862 304.581 88.9187C305.265 88.3531 305.65 87.5119 305.734 86.395C305.814 85.3314 305.557 84.4707 304.965 83.8131C304.399 83.1574 303.491 82.7845 302.241 82.6944L298.012 82.3896L297.49 89.33ZM324.465 78.6015L322.359 106.602L315.536 106.111L317.642 78.1097L324.465 78.6015ZM327.202 92.835C327.41 90.0695 328.193 87.6529 329.552 85.5853C330.913 83.491 332.702 81.9223 334.92 80.879C337.166 79.8111 339.646 79.3749 342.359 79.5704C345.684 79.8101 348.464 80.8927 350.699 82.8184C352.934 84.7441 354.337 87.2514 354.907 90.3403L347.406 89.7997C346.936 88.5894 346.205 87.6411 345.213 86.9547C344.249 86.2703 343.115 85.8811 341.811 85.7871C339.71 85.6357 337.953 86.2442 336.54 87.6128C335.126 88.9814 334.328 90.889 334.144 93.3354C333.96 95.7818 334.464 97.7832 335.658 99.3397C336.851 100.896 338.498 101.75 340.599 101.902C341.903 101.996 343.083 101.773 344.139 101.234C345.223 100.698 346.088 99.8642 346.734 98.7345L354.235 99.2751C353.209 102.249 351.446 104.528 348.947 106.113C346.45 107.67 343.539 108.33 340.214 108.09C337.501 107.894 335.112 107.121 333.048 105.769C331.012 104.392 329.477 102.584 328.442 100.344C327.407 98.1034 326.994 95.6005 327.202 92.835ZM384.056 82.8966L381.95 110.898L375.127 110.406L375.994 98.8784L365.382 98.1135L364.515 109.641L357.693 109.149L359.799 81.1483L366.621 81.64L365.796 92.609L376.408 93.3739L377.233 82.4049L384.056 82.8966ZM395.392 89.2079L394.966 94.8719L404.102 95.5305L403.706 100.796L394.57 100.137L394.108 106.28L404.441 107.025L404.03 112.489L386.875 111.253L388.981 83.2516L406.136 84.4882L405.725 89.9527L395.392 89.2079ZM420.082 113.967C418.885 113.881 417.927 113.464 417.207 112.717C416.517 111.945 416.21 111.041 416.288 110.004C416.368 108.94 416.808 108.076 417.606 107.412C418.432 106.75 419.443 106.462 420.64 106.548C421.81 106.632 422.74 107.06 423.431 107.832C424.149 108.605 424.467 109.524 424.387 110.588C424.309 111.625 423.858 112.474 423.032 113.137C422.235 113.775 421.252 114.051 420.082 113.967ZM421.303 97.7327C420.106 97.6464 419.148 97.2298 418.428 96.4828C417.738 95.7112 417.431 94.8068 417.509 93.7697C417.589 92.7061 418.029 91.8421 418.827 91.1778C419.653 90.5154 420.664 90.2274 421.861 90.3137C423.031 90.398 423.961 90.826 424.652 91.5977C425.369 92.3712 425.688 93.2898 425.608 94.3535C425.53 95.3906 425.078 96.2403 424.253 96.9027C423.456 97.5404 422.473 97.8171 421.303 97.7327ZM443.925 110.071L452.861 110.715L452.465 115.98L436.706 114.844L438.812 86.8434L445.635 87.3351L443.925 110.071ZM464.237 94.1701L463.811 99.8341L472.947 100.493L472.551 105.758L463.415 105.099L462.953 111.242L473.286 111.987L472.875 117.451L455.719 116.215L457.825 88.2138L474.981 89.4503L474.57 94.9149L464.237 94.1701ZM498.358 91.1352C501.31 91.348 503.846 92.119 505.965 93.4481C508.085 94.7773 509.663 96.5487 510.7 98.7623C511.766 100.951 512.194 103.428 511.986 106.194C511.78 108.933 510.986 111.322 509.602 113.361C508.245 115.402 506.406 116.927 504.084 117.936C501.788 118.947 499.177 119.347 496.252 119.136L485.759 118.38L487.865 90.3789L498.358 91.1352ZM496.257 113.201C498.837 113.387 500.898 112.827 502.44 111.521C503.982 110.216 504.85 108.273 505.044 105.694C505.238 103.114 504.671 101.055 503.343 99.5153C502.015 97.9758 500.061 97.1131 497.481 96.9271L494.249 96.6942L493.025 112.968L496.257 113.201ZM523.263 98.4246L522.837 104.089L531.974 104.747L531.578 110.012L522.441 109.354L521.979 115.496L532.313 116.241L531.902 121.706L514.746 120.469L516.852 92.4683L534.008 93.7048L533.597 99.1694L523.263 98.4246ZM530.321 87.7845L520.403 91.1201L520.757 86.4134L530.72 82.4795L530.321 87.7845ZM554.367 108.888C555.963 109.35 557.205 110.255 558.094 111.603C558.984 112.923 559.368 114.395 559.246 116.017C559.07 118.357 558.105 120.159 556.352 121.423C554.628 122.662 552.303 123.176 549.377 122.965L536.331 122.025L538.437 94.024L551.044 94.9327C553.89 95.1379 556.062 95.9494 557.56 97.3674C559.084 98.7874 559.762 100.614 559.594 102.848C559.47 104.497 558.929 105.834 557.969 106.861C557.036 107.89 555.835 108.566 554.367 108.888ZM544.407 105.844L548.875 106.166C549.992 106.246 550.862 106.068 551.483 105.632C552.133 105.171 552.493 104.462 552.565 103.504C552.637 102.547 552.386 101.794 551.813 101.244C551.266 100.697 550.433 100.383 549.316 100.302L544.848 99.9803L544.407 105.844ZM548.594 117.375C549.738 117.457 550.634 117.268 551.284 116.806C551.962 116.321 552.339 115.586 552.413 114.602C552.487 113.618 552.212 112.823 551.589 112.217C550.993 111.612 550.123 111.269 548.979 111.186L544.032 110.83L543.567 117.012L548.594 117.375ZM580.436 120.231L569.984 119.478L567.936 124.303L560.794 123.788L573.034 96.5177L580.934 97.0871L588.961 125.818L581.74 125.298L580.436 120.231ZM579.077 114.839L576.377 104.338L572.175 114.342L579.077 114.839ZM614.299 99.492L613.888 104.957L606.467 104.422L604.773 126.958L597.95 126.466L599.645 103.93L592.224 103.395L592.635 97.9305L614.299 99.492Z" fill="white"/>
<rect id="Rectangle 5" x="99.9338" y="88.9218" width="26" height="56" transform="rotate(-85.5531 99.9338 88.9218)" fill="white"/>
<g id="Calque_1" clip-path="url(#clip0_711_2)">
<path id="Vector_2" d="M721.714 313.729L742.36 303.474C742.36 303.474 733.383 278.92 707.367 274.595C707.367 274.595 685.588 269.622 667.174 286.178C647.799 303.598 650.651 330.154 659.584 344.398L680.101 334.377C680.101 334.377 673.469 325.443 675.706 315.33C677.944 305.216 682.356 300.381 693.654 296.734C704.42 293.26 717.286 301.685 721.714 313.729Z" fill="white"/>
</g>
<path id="Une accusation, deux points de vue. &#195;&#128; vous de d&#195;&#169;battre. D&#195;&#169;couvrez le jeu." d="M99.4287 151.415L98.6922 167.274C98.5887 169.504 99.0507 171.193 100.078 172.343C101.13 173.494 102.625 174.133 104.565 174.26C106.481 174.386 108.003 173.945 109.131 172.937C110.283 171.93 110.91 170.312 111.014 168.082L111.75 152.223L115.019 152.438L114.284 168.261C114.188 170.347 113.687 172.081 112.782 173.465C111.878 174.824 110.691 175.804 109.222 176.405C107.777 177.008 106.168 177.251 104.396 177.135C102.624 177.019 101.035 176.566 99.6306 175.776C98.2499 174.988 97.1733 173.859 96.4008 172.39C95.6534 170.898 95.3281 169.109 95.4249 167.024L96.1598 151.201L99.4287 151.415ZM129.832 158.424C132.227 158.581 134.132 159.439 135.549 160.999C136.967 162.535 137.613 164.669 137.486 167.403L136.946 179.018L133.713 178.806L134.231 167.658C134.322 165.692 133.901 164.161 132.967 163.066C132.034 161.947 130.718 161.331 129.017 161.22C127.293 161.107 125.891 161.556 124.811 162.567C123.755 163.58 123.179 165.117 123.083 167.179L122.577 178.075L119.308 177.861L120.224 158.154L123.493 158.368L123.362 161.173C124.056 160.209 124.966 159.487 126.093 159.008C127.244 158.53 128.491 158.336 129.832 158.424ZM160.74 169.938C160.711 170.562 160.645 171.219 160.541 171.909L144.807 170.877C144.836 172.827 145.424 174.392 146.57 175.573C147.742 176.732 149.189 177.368 150.914 177.482C152.327 177.574 153.515 177.328 154.479 176.742C155.468 176.133 156.18 175.29 156.614 174.213L160.135 174.443C159.52 176.303 158.394 177.78 156.758 178.875C155.123 179.946 153.132 180.405 150.785 180.251C148.917 180.128 147.26 179.599 145.814 178.662C144.392 177.727 143.298 176.465 142.531 174.876C141.765 173.262 141.43 171.437 141.524 169.399C141.619 167.361 142.109 165.602 142.994 164.121C143.88 162.64 145.072 161.54 146.571 160.821C148.095 160.079 149.814 159.771 151.73 159.897C153.598 160.019 155.232 160.535 156.631 161.445C158.03 162.354 159.079 163.553 159.779 165.042C160.503 166.508 160.824 168.14 160.74 169.938ZM157.395 169.033C157.453 167.787 157.227 166.702 156.718 165.779C156.209 164.832 155.487 164.099 154.55 163.58C153.638 163.04 152.608 162.732 151.458 162.656C149.806 162.548 148.368 162.982 147.146 163.96C145.947 164.94 145.221 166.359 144.966 168.218L157.395 169.033ZM173.379 171.453C173.473 169.439 173.962 167.704 174.846 166.247C175.732 164.766 176.9 163.652 178.352 162.906C179.828 162.161 181.44 161.846 183.189 161.961C184.913 162.074 186.392 162.544 187.627 163.37C188.862 164.197 189.764 165.194 190.335 166.361L190.502 162.765L193.807 162.982L192.891 182.689L189.587 182.472L189.757 178.804C189.057 179.912 188.042 180.807 186.714 181.49C185.41 182.15 183.908 182.424 182.207 182.312C180.459 182.198 178.899 181.662 177.526 180.707C176.153 179.751 175.095 178.467 174.354 176.855C173.612 175.244 173.287 173.443 173.379 171.453ZM190.046 172.583C190.115 171.096 189.876 169.782 189.328 168.64C188.781 167.498 188.005 166.605 187.002 165.962C186.024 165.297 184.925 164.924 183.703 164.844C182.482 164.764 181.355 164.978 180.322 165.488C179.29 165.997 178.448 166.784 177.799 167.847C177.149 168.911 176.789 170.186 176.72 171.672C176.65 173.182 176.888 174.521 177.434 175.687C177.982 176.829 178.745 177.733 179.723 178.398C180.702 179.039 181.802 179.4 183.023 179.48C184.245 179.56 185.372 179.346 186.404 178.836C187.462 178.305 188.316 177.507 188.966 176.443C189.617 175.356 189.977 174.069 190.046 172.583ZM197.654 173.082C197.748 171.044 198.238 169.296 199.122 167.84C200.008 166.359 201.188 165.246 202.664 164.501C204.164 163.758 205.848 163.447 207.716 163.57C210.135 163.729 212.095 164.446 213.597 165.723C215.123 167.002 216.089 168.7 216.495 170.819L212.975 170.588C212.695 169.367 212.081 168.377 211.131 167.618C210.206 166.859 209.024 166.433 207.587 166.339C205.719 166.216 204.181 166.765 202.971 167.984C201.762 169.179 201.103 170.951 200.994 173.301C200.884 175.674 201.374 177.546 202.463 178.916C203.553 180.286 205.031 181.032 206.899 181.155C208.336 181.249 209.549 180.992 210.538 180.384C211.527 179.775 212.231 178.86 212.648 177.636L216.168 177.867C215.548 179.847 214.419 181.396 212.781 182.515C211.145 183.61 209.142 184.08 206.771 183.924C204.903 183.801 203.258 183.273 201.836 182.338C200.438 181.404 199.367 180.144 198.624 178.556C197.881 176.968 197.558 175.143 197.654 173.082ZM219.474 174.513C219.568 172.476 220.058 170.728 220.942 169.271C221.828 167.79 223.009 166.677 224.484 165.933C225.984 165.189 227.668 164.879 229.536 165.002C231.955 165.16 233.915 165.878 235.418 167.155C236.944 168.433 237.91 170.132 238.316 172.251L234.795 172.02C234.516 170.799 233.901 169.809 232.951 169.049C232.026 168.291 230.844 167.865 229.408 167.771C227.54 167.648 226.001 168.196 224.791 169.416C223.583 170.611 222.924 172.383 222.815 174.733C222.704 177.106 223.194 178.978 224.283 180.348C225.373 181.718 226.852 182.464 228.72 182.587C230.156 182.681 231.369 182.424 232.359 181.815C233.348 181.207 234.051 180.291 234.468 179.068L237.988 179.299C237.368 181.278 236.239 182.828 234.602 183.946C232.965 185.041 230.962 185.511 228.591 185.356C226.723 185.233 225.078 184.704 223.656 183.769C222.258 182.836 221.188 181.575 220.445 179.988C219.702 178.4 219.378 176.575 219.474 174.513ZM260.43 167.353L259.515 187.06L256.246 186.845L256.381 183.933C255.712 184.899 254.801 185.632 253.648 186.134C252.521 186.613 251.287 186.809 249.946 186.721C248.413 186.62 247.051 186.218 245.858 185.515C244.667 184.787 243.741 183.765 243.082 182.447C242.447 181.131 242.171 179.562 242.256 177.74L242.792 166.196L246.025 166.408L245.509 177.52C245.419 179.462 245.84 180.993 246.773 182.112C247.707 183.207 249.024 183.811 250.724 183.922C252.473 184.037 253.875 183.588 254.931 182.575C255.987 181.562 256.562 180.025 256.658 177.963L257.161 167.139L260.43 167.353ZM271.988 188.203C270.479 188.104 269.138 187.764 267.964 187.182C266.791 186.576 265.878 185.794 265.226 184.838C264.575 183.857 264.242 182.765 264.225 181.562L267.602 181.783C267.652 182.772 268.07 183.605 268.855 184.282C269.664 184.961 270.74 185.344 272.081 185.432C273.326 185.513 274.321 185.302 275.065 184.798C275.809 184.294 276.2 183.622 276.239 182.783C276.28 181.92 275.926 181.259 275.178 180.801C274.432 180.32 273.266 179.822 271.681 179.309C270.237 178.83 269.058 178.368 268.142 177.923C267.251 177.456 266.488 176.816 265.853 176.005C265.243 175.172 264.967 174.12 265.026 172.849C265.073 171.842 265.415 170.939 266.053 170.139C266.691 169.339 267.571 168.736 268.695 168.328C269.82 167.897 271.089 167.728 272.502 167.821C274.682 167.964 276.416 168.631 277.706 169.821C278.996 171.012 279.644 172.57 279.651 174.494L276.382 174.279C276.358 173.244 275.977 172.389 275.24 171.716C274.527 171.044 273.535 170.666 272.266 170.583C271.092 170.506 270.147 170.696 269.429 171.154C268.711 171.612 268.333 172.248 268.295 173.063C268.265 173.711 268.444 174.264 268.831 174.722C269.243 175.158 269.754 175.528 270.365 175.832C271 176.115 271.873 176.448 272.985 176.834C274.38 177.31 275.511 177.769 276.38 178.211C277.249 178.629 277.978 179.23 278.566 180.014C279.178 180.799 279.468 181.792 279.437 182.993C279.386 184.071 279.042 185.023 278.403 185.846C277.764 186.67 276.883 187.298 275.757 187.729C274.658 188.138 273.401 188.296 271.988 188.203ZM283.042 178.648C283.135 176.634 283.624 174.899 284.509 173.442C285.394 171.961 286.563 170.847 288.015 170.101C289.491 169.356 291.103 169.041 292.851 169.156C294.575 169.269 296.055 169.739 297.29 170.565C298.524 171.392 299.427 172.389 299.997 173.556L300.164 169.96L303.469 170.177L302.554 189.884L299.249 189.667L299.42 185.999C298.719 187.107 297.705 188.003 296.376 188.685C295.072 189.345 293.57 189.619 291.87 189.508C290.122 189.393 288.561 188.858 287.188 187.902C285.815 186.946 284.758 185.662 284.016 184.051C283.274 182.439 282.95 180.638 283.042 178.648ZM299.708 179.778C299.777 178.291 299.538 176.977 298.991 175.835C298.443 174.693 297.668 173.8 296.665 173.157C295.687 172.492 294.587 172.119 293.366 172.039C292.144 171.959 291.017 172.174 289.985 172.683C288.952 173.192 288.111 173.979 287.461 175.042C286.811 176.106 286.452 177.381 286.383 178.867C286.313 180.378 286.551 181.716 287.097 182.882C287.645 184.024 288.407 184.928 289.385 185.593C290.364 186.235 291.465 186.595 292.686 186.675C293.907 186.756 295.034 186.541 296.067 186.032C297.125 185.5 297.978 184.702 298.628 183.639C299.279 182.551 299.639 181.264 299.708 179.778ZM312.856 173.498L312.316 185.114C312.272 186.073 312.444 186.769 312.832 187.204C313.221 187.614 313.919 187.852 314.924 187.918L317.331 188.076L317.203 190.845L314.257 190.652C312.437 190.532 311.091 190.023 310.22 189.124C309.349 188.226 308.958 186.817 309.047 184.899L309.587 173.284L307.036 173.116L307.161 170.419L309.712 170.587L309.942 165.624L313.211 165.839L312.981 170.801L318.118 171.138L317.993 173.835L312.856 173.498ZM323.916 168.308C323.293 168.267 322.776 168.017 322.365 167.557C321.954 167.098 321.763 166.556 321.792 165.933C321.821 165.309 322.061 164.796 322.512 164.393C322.963 163.989 323.5 163.808 324.123 163.849C324.721 163.888 325.214 164.137 325.601 164.595C326.012 165.055 326.204 165.597 326.175 166.22C326.146 166.843 325.906 167.357 325.454 167.76C325.027 168.165 324.514 168.348 323.916 168.308ZM325.348 171.613L324.432 191.319L321.163 191.105L322.079 171.398L325.348 171.613ZM338.574 192.572C336.73 192.451 335.073 191.921 333.604 190.983C332.158 190.047 331.039 188.783 330.249 187.192C329.483 185.579 329.147 183.753 329.242 181.715C329.335 179.702 329.849 177.956 330.782 176.478C331.741 174.978 332.993 173.87 334.54 173.154C336.087 172.413 337.795 172.105 339.663 172.227C341.531 172.35 343.2 172.88 344.67 173.818C346.141 174.732 347.272 175.985 348.063 177.576C348.877 179.168 349.238 180.983 349.143 183.021C349.048 185.059 348.51 186.827 347.527 188.326C346.57 189.802 345.305 190.909 343.734 191.648C342.162 192.386 340.442 192.694 338.574 192.572ZM338.708 189.695C339.881 189.772 340.996 189.569 342.051 189.085C343.107 188.601 343.971 187.828 344.645 186.766C345.343 185.706 345.729 184.384 345.802 182.802C345.876 181.22 345.627 179.857 345.055 178.713C344.484 177.569 343.707 176.701 342.726 176.107C341.746 175.49 340.669 175.143 339.495 175.066C338.298 174.987 337.184 175.191 336.152 175.676C335.146 176.139 334.318 176.902 333.668 177.966C333.018 179.029 332.656 180.352 332.583 181.935C332.508 183.541 332.732 184.914 333.256 186.055C333.803 187.197 334.555 188.076 335.512 188.692C336.469 189.284 337.534 189.618 338.708 189.695ZM363.505 173.755C365.9 173.913 367.806 174.771 369.223 176.331C370.641 177.867 371.286 180.001 371.159 182.734L370.62 194.35L367.387 194.138L367.905 182.99C367.996 181.024 367.574 179.493 366.64 178.398C365.708 177.279 364.391 176.663 362.691 176.552C360.966 176.439 359.564 176.888 358.484 177.899C357.428 178.912 356.853 180.449 356.757 182.511L356.251 193.407L352.982 193.193L353.897 173.486L357.166 173.7L357.036 176.505C357.729 175.541 358.639 174.819 359.767 174.34C360.918 173.862 362.164 173.667 363.505 173.755ZM379.547 190.391L375.074 199.8L372.883 199.656L375.955 190.155L379.547 190.391ZM391.898 185.79C391.991 183.777 392.48 182.041 393.365 180.584C394.25 179.103 395.419 177.99 396.871 177.243C398.347 176.498 399.971 176.184 401.743 176.3C403.276 176.401 404.684 176.854 405.968 177.66C407.252 178.441 408.215 179.43 408.856 180.627L409.341 170.198L412.646 170.415L411.41 197.026L408.105 196.809L408.277 193.105C407.576 194.238 406.573 195.146 405.268 195.83C403.964 196.49 402.462 196.764 400.762 196.652C399.013 196.537 397.441 196.001 396.044 195.044C394.671 194.088 393.614 192.805 392.872 191.193C392.13 189.581 391.805 187.78 391.898 185.79ZM408.564 186.92C408.633 185.434 408.394 184.119 407.847 182.977C407.299 181.835 406.524 180.943 405.521 180.3C404.543 179.634 403.443 179.262 402.222 179.181C401 179.101 399.873 179.316 398.841 179.825C397.808 180.335 396.967 181.121 396.317 182.185C395.667 183.248 395.308 184.523 395.239 186.01C395.168 187.52 395.407 188.858 395.953 190.024C396.5 191.166 397.263 192.07 398.241 192.735C399.22 193.377 400.321 193.738 401.542 193.818C402.763 193.898 403.89 193.683 404.923 193.174C405.98 192.642 406.834 191.844 407.484 190.781C408.135 189.693 408.495 188.406 408.564 186.92ZM435.388 187.959C435.359 188.582 435.293 189.239 435.189 189.929L419.454 188.897C419.484 190.847 420.072 192.412 421.218 193.594C422.389 194.753 423.837 195.389 425.561 195.502C426.974 195.595 428.163 195.348 429.127 194.762C430.116 194.153 430.828 193.31 431.262 192.233L434.783 192.464C434.168 194.323 433.042 195.8 431.406 196.895C429.771 197.966 427.78 198.425 425.433 198.271C423.565 198.148 421.908 197.619 420.462 196.682C419.04 195.747 417.946 194.485 417.179 192.896C416.413 191.282 416.077 189.457 416.172 187.419C416.267 185.381 416.757 183.622 417.642 182.141C418.528 180.66 419.72 179.56 421.219 178.841C422.742 178.099 424.462 177.791 426.378 177.917C428.246 178.039 429.88 178.555 431.279 179.465C432.678 180.374 433.727 181.573 434.426 183.062C435.151 184.528 435.472 186.16 435.388 187.959ZM432.043 187.054C432.101 185.807 431.875 184.722 431.366 183.799C430.857 182.852 430.134 182.119 429.198 181.601C428.286 181.06 427.255 180.752 426.106 180.676C424.453 180.568 423.016 181.003 421.793 181.981C420.595 182.96 419.868 184.379 419.614 186.238L432.043 187.054ZM457.584 180.289L456.669 199.996L453.4 199.781L453.535 196.868C452.866 197.834 451.955 198.568 450.803 199.07C449.675 199.549 448.441 199.744 447.1 199.656C445.567 199.556 444.205 199.154 443.012 198.45C441.821 197.723 440.896 196.7 440.236 195.383C439.601 194.066 439.325 192.497 439.41 190.675L439.946 179.132L443.179 179.344L442.663 190.456C442.573 192.398 442.994 193.928 443.927 195.048C444.861 196.143 446.178 196.746 447.879 196.858C449.627 196.973 451.029 196.524 452.085 195.511C453.141 194.498 453.717 192.961 453.812 190.899L454.315 180.074L457.584 180.289ZM472.462 201.032L468.133 193.389L463.302 200.431L459.889 200.207L466.702 190.843L460.804 180.5L464.505 180.743L468.835 188.35L473.629 181.342L477.042 181.566L470.267 190.896L476.162 201.275L472.462 201.032ZM492.971 186.254C493.669 185.169 494.671 184.297 495.975 183.637C497.303 182.955 498.818 182.67 500.518 182.781C502.267 182.896 503.828 183.419 505.202 184.351C506.6 185.284 507.67 186.545 508.413 188.133C509.157 189.697 509.483 191.485 509.389 193.499C509.297 195.489 508.807 197.236 507.92 198.741C507.034 200.246 505.852 201.383 504.375 202.152C502.922 202.922 501.321 203.25 499.573 203.135C497.897 203.025 496.429 202.556 495.17 201.728C493.937 200.878 493.011 199.867 492.393 198.696L491.79 211.678L488.521 211.464L489.87 182.407L493.139 182.622L492.971 186.254ZM506.048 193.28C506.117 191.794 505.878 190.479 505.33 189.337C504.783 188.195 504.008 187.303 503.005 186.66C502.026 186.018 500.925 185.658 499.704 185.577C498.506 185.499 497.379 185.725 496.321 186.257C495.289 186.767 494.435 187.564 493.76 188.65C493.11 189.714 492.751 190.977 492.683 192.439C492.614 193.926 492.853 195.252 493.399 196.418C493.971 197.562 494.745 198.466 495.723 199.131C496.727 199.774 497.827 200.135 499.024 200.214C500.246 200.294 501.373 200.079 502.405 199.57C503.463 199.038 504.316 198.24 504.966 197.177C505.617 196.089 505.978 194.79 506.048 193.28ZM521.801 204.594C519.957 204.473 518.3 203.943 516.831 203.005C515.385 202.069 514.267 200.805 513.476 199.214C512.71 197.601 512.374 195.775 512.469 193.737C512.562 191.724 513.076 189.978 514.009 188.5C514.968 187 516.22 185.892 517.767 185.175C519.315 184.435 521.022 184.127 522.89 184.249C524.758 184.372 526.427 184.902 527.897 185.84C529.368 186.754 530.499 188.007 531.29 189.598C532.105 191.19 532.465 193.005 532.37 195.043C532.275 197.081 531.737 198.849 530.754 200.348C529.797 201.824 528.533 202.931 526.961 203.67C525.389 204.408 523.669 204.716 521.801 204.594ZM521.935 201.717C523.109 201.794 524.223 201.59 525.278 201.107C526.334 200.623 527.198 199.85 527.872 198.788C528.57 197.728 528.956 196.406 529.029 194.824C529.103 193.242 528.854 191.879 528.282 190.735C527.711 189.591 526.934 188.723 525.953 188.129C524.973 187.512 523.896 187.165 522.723 187.088C521.525 187.009 520.411 187.213 519.379 187.698C518.373 188.161 517.545 188.924 516.895 189.988C516.245 191.051 515.883 192.374 515.81 193.957C515.735 195.563 515.96 196.936 516.483 198.077C517.031 199.219 517.782 200.098 518.739 200.714C519.696 201.305 520.762 201.64 521.935 201.717ZM538.961 182.418C538.338 182.377 537.822 182.127 537.411 181.667C537 181.207 536.808 180.666 536.837 180.042C536.866 179.419 537.106 178.906 537.558 178.502C538.009 178.099 538.546 177.918 539.168 177.959C539.767 177.998 540.26 178.247 540.647 178.705C541.058 179.165 541.249 179.706 541.22 180.33C541.191 180.953 540.951 181.466 540.5 181.87C540.073 182.274 539.56 182.457 538.961 182.418ZM540.393 185.722L539.478 205.429L536.209 205.214L537.124 185.508L540.393 185.722ZM555.573 186.357C557.967 186.515 559.873 187.373 561.29 188.933C562.708 190.469 563.354 192.603 563.227 195.336L562.687 206.952L559.454 206.74L559.972 195.592C560.063 193.626 559.642 192.095 558.708 191C557.775 189.881 556.458 189.265 554.758 189.154C553.034 189.04 551.632 189.49 550.552 190.501C549.496 191.514 548.92 193.051 548.824 195.113L548.318 206.009L545.049 205.794L545.964 186.088L549.233 186.302L549.103 189.107C549.797 188.143 550.707 187.421 551.834 186.942C552.985 186.464 554.231 186.269 555.573 186.357ZM572.805 190.554L572.265 202.17C572.221 203.129 572.392 203.825 572.781 204.259C573.17 204.67 573.867 204.908 574.873 204.974L577.28 205.132L577.152 207.901L574.206 207.708C572.386 207.588 571.04 207.079 570.169 206.18C569.298 205.281 568.907 203.873 568.996 201.955L569.536 190.34L566.985 190.172L567.11 187.475L569.661 187.642L569.891 182.68L573.16 182.894L572.93 187.857L578.067 188.194L577.942 190.891L572.805 190.554ZM588.066 208.942C586.558 208.843 585.216 208.502 584.042 207.92C582.869 207.314 581.957 206.533 581.304 205.576C580.653 204.596 580.32 203.504 580.304 202.3L583.68 202.522C583.73 203.511 584.148 204.344 584.933 205.021C585.743 205.699 586.818 206.082 588.159 206.17C589.404 206.252 590.399 206.041 591.143 205.536C591.887 205.032 592.279 204.36 592.318 203.521C592.358 202.658 592.004 201.998 591.257 201.54C590.51 201.058 589.344 200.561 587.759 200.048C586.316 199.569 585.136 199.106 584.22 198.661C583.329 198.194 582.566 197.555 581.931 196.744C581.321 195.91 581.045 194.858 581.105 193.588C581.151 192.581 581.493 191.677 582.131 190.877C582.769 190.078 583.65 189.474 584.774 189.067C585.899 188.636 587.168 188.467 588.581 188.559C590.76 188.702 592.494 189.369 593.784 190.56C595.074 191.751 595.723 193.308 595.729 195.232L592.46 195.018C592.436 193.982 592.056 193.128 591.318 192.454C590.605 191.782 589.613 191.404 588.344 191.321C587.171 191.244 586.225 191.435 585.507 191.892C584.789 192.35 584.411 192.987 584.373 193.802C584.343 194.449 584.522 195.002 584.909 195.46C585.321 195.896 585.832 196.266 586.443 196.571C587.078 196.853 587.952 197.187 589.063 197.572C590.458 198.049 591.59 198.508 592.458 198.95C593.327 199.367 594.056 199.968 594.644 200.752C595.256 201.538 595.546 202.531 595.515 203.731C595.465 204.81 595.12 205.761 594.481 206.585C593.843 207.409 592.961 208.036 591.836 208.467C590.736 208.876 589.479 209.034 588.066 208.942ZM608.697 200.015C608.791 198.001 609.28 196.266 610.164 194.809C611.05 193.328 612.218 192.214 613.67 191.468C615.146 190.723 616.77 190.409 618.542 190.525C620.075 190.626 621.483 191.079 622.767 191.884C624.052 192.666 625.015 193.655 625.656 194.851L626.14 184.423L629.445 184.639L628.209 211.251L624.904 211.034L625.076 207.33C624.375 208.462 623.372 209.37 622.067 210.054C620.764 210.714 619.261 210.988 617.561 210.877C615.813 210.762 614.24 210.226 612.844 209.269C611.471 208.313 610.413 207.029 609.671 205.417C608.93 203.806 608.605 202.005 608.697 200.015ZM625.364 201.145C625.433 199.658 625.193 198.344 624.646 197.202C624.098 196.06 623.323 195.167 622.32 194.524C621.342 193.859 620.242 193.486 619.021 193.406C617.8 193.326 616.673 193.541 615.64 194.05C614.608 194.559 613.766 195.346 613.116 196.409C612.467 197.473 612.107 198.748 612.038 200.234C611.968 201.745 612.206 203.083 612.752 204.249C613.3 205.391 614.063 206.295 615.041 206.96C616.02 207.601 617.12 207.962 618.341 208.042C619.563 208.122 620.69 207.908 621.722 207.398C622.78 206.867 623.634 206.069 624.284 205.005C624.935 203.918 625.295 202.631 625.364 201.145ZM652.188 202.183C652.159 202.806 652.092 203.463 651.988 204.154L636.254 203.122C636.283 205.071 636.871 206.637 638.017 207.818C639.189 208.977 640.637 209.613 642.361 209.726C643.774 209.819 644.962 209.573 645.926 208.987C646.915 208.378 647.627 207.535 648.062 206.457L651.582 206.688C650.967 208.548 649.842 210.025 648.205 211.12C646.57 212.191 644.579 212.649 642.232 212.495C640.364 212.373 638.707 211.843 637.261 210.907C635.84 209.972 634.745 208.71 633.978 207.12C633.212 205.507 632.877 203.682 632.971 201.644C633.066 199.606 633.556 197.847 634.442 196.366C635.327 194.885 636.519 193.785 638.018 193.065C639.542 192.324 641.262 192.016 643.177 192.141C645.045 192.264 646.679 192.78 648.078 193.689C649.477 194.599 650.526 195.798 651.226 197.287C651.951 198.753 652.271 200.385 652.188 202.183ZM648.843 201.278C648.9 200.032 648.675 198.947 648.165 198.024C647.657 197.076 646.934 196.344 645.997 195.825C645.085 195.285 644.055 194.976 642.905 194.901C641.253 194.793 639.815 195.227 638.593 196.205C637.394 197.185 636.668 198.604 636.413 200.463L648.843 201.278ZM673.055 211.163L679.937 194.878L683.422 195.107L674.783 214.307L670.975 214.057L664.167 193.843L667.688 194.074L673.055 211.163ZM704.097 196.463L703.182 216.17L699.913 215.955L700.048 213.043C699.379 214.009 698.468 214.742 697.316 215.244C696.188 215.723 694.954 215.919 693.613 215.831C692.08 215.73 690.718 215.328 689.525 214.625C688.334 213.897 687.409 212.875 686.749 211.557C686.114 210.241 685.838 208.671 685.923 206.849L686.459 195.306L689.692 195.518L689.176 206.63C689.086 208.572 689.507 210.103 690.44 211.222C691.374 212.317 692.691 212.921 694.392 213.032C696.14 213.147 697.542 212.698 698.598 211.685C699.654 210.672 700.23 209.135 700.325 207.073L700.828 196.249L704.097 196.463ZM727.155 207.102C727.126 207.725 727.06 208.382 726.956 209.073L711.222 208.04C711.251 209.99 711.839 211.556 712.985 212.737C714.156 213.896 715.604 214.532 717.329 214.645C718.741 214.738 719.93 214.491 720.894 213.905C721.883 213.297 722.595 212.454 723.029 211.376L726.55 211.607C725.935 213.467 724.809 214.944 723.173 216.039C721.538 217.11 719.547 217.568 717.2 217.414C715.332 217.292 713.675 216.762 712.229 215.826C710.807 214.891 709.713 213.629 708.946 212.039C708.18 210.426 707.845 208.6 707.939 206.563C708.034 204.525 708.524 202.765 709.409 201.284C710.295 199.804 711.487 198.703 712.986 197.984C714.509 197.242 716.229 196.935 718.145 197.06C720.013 197.183 721.647 197.699 723.046 198.608C724.445 199.518 725.494 200.717 726.194 202.205C726.918 203.672 727.239 205.304 727.155 207.102ZM723.81 206.197C723.868 204.95 723.642 203.866 723.133 202.942C722.624 201.995 721.902 201.262 720.965 200.744C720.053 200.203 719.022 199.895 717.873 199.82C716.22 199.711 714.783 200.146 713.561 201.124C712.362 202.103 711.636 203.523 711.381 205.382L723.81 206.197ZM732.009 218.278C731.387 218.237 730.87 217.987 730.459 217.527C730.048 217.067 729.857 216.525 729.886 215.902C729.915 215.279 730.155 214.765 730.606 214.362C731.057 213.959 731.594 213.778 732.216 213.819C732.815 213.858 733.308 214.107 733.695 214.565C734.106 215.025 734.297 215.566 734.268 216.19C734.239 216.813 733.999 217.326 733.548 217.729C733.121 218.134 732.608 218.317 732.009 218.278ZM255.575 221.289L244.655 220.573L242.384 226.015L238.936 225.788L249.146 201.461L252.917 201.709L260.777 227.221L257.328 226.995L255.575 221.289ZM254.765 218.567L250.827 205.611L245.712 217.973L254.765 218.567ZM254.716 197.895L254.602 200.34L247.141 195.739L247.273 192.898L254.716 197.895ZM281.768 225.569L288.649 209.283L292.134 209.512L283.495 228.712L279.688 228.462L272.879 208.249L276.4 208.48L281.768 225.569ZM303.006 230.317C301.162 230.196 299.505 229.666 298.035 228.728C296.589 227.792 295.471 226.528 294.68 224.937C293.914 223.324 293.579 221.498 293.673 219.46C293.767 217.447 294.28 215.701 295.214 214.223C296.172 212.723 297.425 211.615 298.971 210.899C300.519 210.158 302.227 209.85 304.095 209.972C305.963 210.095 307.632 210.625 309.102 211.563C310.573 212.477 311.703 213.73 312.494 215.321C313.309 216.913 313.669 218.728 313.575 220.766C313.48 222.804 312.941 224.572 311.959 226.071C311.002 227.547 309.737 228.654 308.165 229.393C306.594 230.131 304.874 230.439 303.006 230.317ZM303.14 227.44C304.313 227.517 305.428 227.314 306.483 226.83C307.538 226.346 308.403 225.573 309.077 224.511C309.775 223.451 310.16 222.129 310.234 220.547C310.307 218.965 310.058 217.602 309.487 216.458C308.915 215.314 308.139 214.446 307.158 213.852C306.177 213.235 305.101 212.888 303.927 212.811C302.73 212.732 301.615 212.936 300.584 213.421C299.577 213.884 298.749 214.647 298.099 215.711C297.449 216.774 297.088 218.097 297.014 219.68C296.94 221.286 297.164 222.659 297.688 223.8C298.235 224.942 298.987 225.821 299.943 226.437C300.901 227.029 301.966 227.363 303.14 227.44ZM335.787 212.376L334.872 232.083L331.603 231.869L331.738 228.956C331.069 229.922 330.158 230.656 329.006 231.157C327.878 231.636 326.644 231.832 325.303 231.744C323.77 231.643 322.408 231.241 321.215 230.538C320.024 229.81 319.099 228.788 318.439 227.47C317.804 226.154 317.528 224.585 317.613 222.763L318.149 211.219L321.382 211.431L320.866 222.543C320.776 224.485 321.197 226.016 322.13 227.135C323.064 228.23 324.381 228.834 326.082 228.945C327.83 229.06 329.232 228.611 330.288 227.598C331.344 226.585 331.92 225.048 332.015 222.986L332.518 212.162L335.787 212.376ZM347.345 233.226C345.837 233.127 344.495 232.787 343.321 232.205C342.148 231.599 341.236 230.817 340.583 229.861C339.932 228.88 339.599 227.788 339.583 226.585L342.959 226.806C343.009 227.795 343.427 228.628 344.212 229.305C345.022 229.984 346.097 230.367 347.438 230.455C348.683 230.536 349.678 230.325 350.422 229.821C351.166 229.317 351.558 228.645 351.597 227.806C351.637 226.943 351.283 226.282 350.536 225.824C349.789 225.343 348.623 224.845 347.038 224.332C345.595 223.853 344.415 223.391 343.499 222.946C342.608 222.479 341.845 221.84 341.21 221.028C340.6 220.195 340.325 219.143 340.384 217.872C340.43 216.865 340.773 215.962 341.41 215.162C342.048 214.362 342.929 213.759 344.053 213.351C345.178 212.92 346.447 212.751 347.86 212.844C350.039 212.987 351.773 213.654 353.063 214.844C354.353 216.035 355.002 217.593 355.008 219.517L351.739 219.302C351.715 218.267 351.335 217.412 350.597 216.739C349.884 216.067 348.892 215.689 347.623 215.606C346.45 215.529 345.504 215.719 344.786 216.177C344.068 216.635 343.69 217.271 343.653 218.087C343.622 218.734 343.801 219.287 344.188 219.745C344.6 220.181 345.111 220.551 345.722 220.855C346.357 221.138 347.231 221.471 348.342 221.857C349.737 222.333 350.869 222.792 351.737 223.234C352.606 223.652 353.335 224.253 353.923 225.037C354.535 225.822 354.825 226.815 354.794 228.016C354.744 229.094 354.399 230.046 353.76 230.87C353.122 231.693 352.24 232.321 351.115 232.752C350.015 233.161 348.758 233.319 347.345 233.226ZM367.976 224.3C368.07 222.286 368.559 220.55 369.443 219.093C370.329 217.612 371.497 216.499 372.949 215.752C374.425 215.008 376.049 214.693 377.821 214.81C379.354 214.91 380.762 215.363 382.046 216.169C383.331 216.951 384.294 217.94 384.935 219.136L385.419 208.707L388.724 208.924L387.488 235.535L384.183 235.318L384.355 231.614C383.654 232.747 382.651 233.655 381.346 234.339C380.043 234.999 378.541 235.273 376.84 235.161C375.092 235.047 373.519 234.511 372.123 233.553C370.75 232.597 369.692 231.314 368.95 229.702C368.209 228.09 367.884 226.289 367.976 224.3ZM384.643 225.429C384.712 223.943 384.473 222.628 383.925 221.486C383.378 220.344 382.602 219.452 381.599 218.809C380.621 218.143 379.521 217.771 378.3 217.691C377.079 217.61 375.952 217.825 374.919 218.334C373.887 218.844 373.045 219.63 372.395 220.694C371.746 221.757 371.386 223.032 371.317 224.519C371.247 226.029 371.485 227.367 372.031 228.533C372.579 229.675 373.342 230.579 374.32 231.245C375.299 231.886 376.399 232.247 377.62 232.327C378.842 232.407 379.969 232.192 381.001 231.683C382.059 231.151 382.913 230.353 383.563 229.29C384.214 228.202 384.574 226.915 384.643 225.429ZM411.467 226.468C411.438 227.091 411.371 227.748 411.267 228.438L395.533 227.406C395.562 229.356 396.15 230.921 397.297 232.103C398.468 233.262 399.916 233.898 401.64 234.011C403.053 234.104 404.241 233.857 405.205 233.271C406.194 232.663 406.906 231.82 407.341 230.742L410.861 230.973C410.246 232.832 409.121 234.309 407.484 235.404C405.849 236.475 403.858 236.934 401.511 236.78C399.643 236.657 397.986 236.128 396.541 235.191C395.119 234.256 394.024 232.994 393.257 231.405C392.491 229.792 392.156 227.966 392.25 225.928C392.345 223.89 392.835 222.131 393.721 220.65C394.606 219.169 395.798 218.069 397.297 217.35C398.821 216.608 400.541 216.3 402.457 216.426C404.325 216.548 405.958 217.064 407.357 217.974C408.756 218.883 409.805 220.082 410.505 221.571C411.23 223.037 411.55 224.67 411.467 226.468ZM408.122 225.563C408.18 224.316 407.954 223.231 407.444 222.308C406.936 221.361 406.213 220.628 405.276 220.11C404.364 219.569 403.334 219.261 402.184 219.186C400.532 219.077 399.094 219.512 397.872 220.49C396.673 221.469 395.947 222.888 395.692 224.747L408.122 225.563ZM424.106 227.982C424.199 225.968 424.688 224.233 425.572 222.776C426.458 221.295 427.627 220.182 429.079 219.435C430.554 218.69 432.178 218.376 433.951 218.492C435.483 218.593 436.892 219.046 438.175 219.852C439.46 220.633 440.423 221.622 441.064 222.819L441.549 212.39L444.854 212.607L443.618 239.218L440.313 239.001L440.485 235.297C439.784 236.43 438.781 237.338 437.476 238.021C436.172 238.681 434.67 238.956 432.969 238.844C431.221 238.729 429.649 238.193 428.252 237.236C426.879 236.28 425.822 234.996 425.08 233.385C424.338 231.773 424.013 229.972 424.106 227.982ZM440.772 229.112C440.841 227.625 440.602 226.311 440.054 225.169C439.507 224.027 438.732 223.135 437.729 222.492C436.75 221.826 435.651 221.453 434.429 221.373C433.208 221.293 432.081 221.508 431.049 222.017C430.016 222.527 429.175 223.313 428.525 224.377C427.875 225.44 427.515 226.715 427.446 228.201C427.376 229.712 427.614 231.05 428.161 232.216C428.708 233.358 429.471 234.262 430.449 234.927C431.428 235.569 432.528 235.929 433.75 236.01C434.971 236.09 436.098 235.875 437.131 235.366C438.188 234.834 439.042 234.036 439.692 232.973C440.343 231.885 440.703 230.598 440.772 229.112ZM467.596 230.15C467.567 230.774 467.5 231.431 467.396 232.121L451.662 231.089C451.692 233.039 452.28 234.604 453.426 235.786C454.597 236.945 456.045 237.581 457.769 237.694C459.182 237.786 460.371 237.54 461.335 236.954C462.324 236.345 463.036 235.502 463.47 234.425L466.99 234.656C466.376 236.515 465.25 237.992 463.614 239.087C461.979 240.158 459.988 240.617 457.641 240.463C455.773 240.34 454.116 239.811 452.67 238.874C451.248 237.939 450.154 236.677 449.387 235.088C448.621 233.474 448.285 231.649 448.38 229.611C448.474 227.573 448.965 225.814 449.85 224.333C450.736 222.852 451.928 221.752 453.426 221.033C454.95 220.291 456.67 219.983 458.586 220.109C460.454 220.231 462.087 220.747 463.486 221.657C464.885 222.566 465.935 223.765 466.634 225.254C467.359 226.72 467.679 228.352 467.596 230.15ZM464.251 229.246C464.309 227.999 464.083 226.914 463.573 225.991C463.065 225.044 462.342 224.311 461.405 223.793C460.494 223.252 459.463 222.944 458.314 222.868C456.661 222.76 455.224 223.195 454.001 224.172C452.803 225.152 452.076 226.571 451.822 228.43L464.251 229.246ZM462.206 215.08L454.364 218.677L454.478 216.232L462.338 212.239L462.206 215.08ZM475.432 225.218C476.157 224.087 477.184 223.193 478.511 222.534C479.839 221.876 481.329 221.601 482.982 221.709C484.754 221.826 486.327 222.35 487.701 223.281C489.075 224.213 490.133 225.473 490.876 227.061C491.62 228.625 491.946 230.413 491.852 232.427C491.76 234.417 491.27 236.164 490.384 237.669C489.497 239.174 488.315 240.311 486.838 241.08C485.385 241.85 483.785 242.178 482.036 242.063C480.336 241.952 478.856 241.482 477.598 240.654C476.363 239.828 475.449 238.818 474.856 237.624L474.687 241.257L471.418 241.042L472.654 214.431L475.923 214.645L475.432 225.218ZM488.511 232.208C488.58 230.722 488.341 229.407 487.794 228.265C487.246 227.123 486.471 226.231 485.468 225.588C484.489 224.946 483.389 224.586 482.167 224.505C480.97 224.427 479.842 224.654 478.785 225.185C477.752 225.695 476.898 226.492 476.223 227.578C475.573 228.642 475.214 229.905 475.146 231.367C475.077 232.854 475.316 234.18 475.863 235.346C476.434 236.49 477.209 237.394 478.187 238.059C479.19 238.702 480.29 239.063 481.487 239.142C482.709 239.222 483.836 239.007 484.868 238.498C485.926 237.966 486.78 237.168 487.43 236.105C488.081 235.017 488.441 233.718 488.511 232.208ZM494.934 232.629C495.027 230.616 495.516 228.88 496.401 227.423C497.286 225.942 498.455 224.829 499.907 224.082C501.383 223.337 502.995 223.022 504.743 223.137C506.467 223.25 507.947 223.72 509.182 224.547C510.416 225.373 511.319 226.37 511.889 227.538L512.056 223.942L515.361 224.158L514.446 243.865L511.141 243.648L511.311 239.98C510.611 241.089 509.597 241.984 508.268 242.666C506.964 243.326 505.462 243.6 503.762 243.489C502.014 243.374 500.453 242.839 499.08 241.883C497.707 240.927 496.65 239.644 495.908 238.032C495.166 236.42 494.841 234.619 494.934 232.629ZM511.6 233.759C511.669 232.273 511.43 230.958 510.883 229.816C510.335 228.674 509.56 227.782 508.557 227.139C507.579 226.473 506.479 226.101 505.258 226.021C504.036 225.94 502.909 226.155 501.877 226.664C500.844 227.174 500.003 227.96 499.353 229.024C498.703 230.087 498.344 231.362 498.275 232.849C498.204 234.359 498.443 235.697 498.989 236.863C499.536 238.005 500.299 238.909 501.277 239.574C502.256 240.216 503.357 240.577 504.578 240.657C505.799 240.737 506.926 240.522 507.959 240.013C509.016 239.481 509.87 238.683 510.52 237.62C511.171 236.532 511.531 235.245 511.6 233.759ZM524.747 227.48L524.208 239.095C524.163 240.054 524.335 240.751 524.724 241.185C525.113 241.595 525.81 241.833 526.816 241.899L529.223 242.057L529.094 244.826L526.149 244.633C524.329 244.514 522.983 244.005 522.112 243.106C521.241 242.207 520.85 240.799 520.939 238.881L521.478 227.265L518.928 227.098L519.053 224.401L521.604 224.568L521.834 219.605L525.103 219.82L524.873 224.783L530.01 225.12L529.884 227.817L524.747 227.48ZM537.833 228.338L537.293 239.954C537.249 240.913 537.42 241.609 537.809 242.044C538.198 242.454 538.896 242.692 539.901 242.758L542.308 242.916L542.18 245.685L539.234 245.492C537.414 245.372 536.068 244.863 535.197 243.964C534.326 243.065 533.935 241.657 534.024 239.739L534.564 228.124L532.013 227.956L532.138 225.259L534.689 225.427L534.919 220.464L538.188 220.678L537.958 225.641L543.095 225.978L542.97 228.675L537.833 228.338ZM550.176 229.653C550.803 228.564 551.658 227.742 552.741 227.188C553.847 226.636 555.167 226.409 556.7 226.51L556.543 229.89L555.68 229.834C552.016 229.593 550.092 231.463 549.907 235.443L549.409 246.159L546.14 245.945L547.056 226.238L550.325 226.452L550.176 229.653ZM577.995 237.394C577.966 238.017 577.9 238.674 577.796 239.365L562.062 238.332C562.091 240.282 562.679 241.848 563.825 243.029C564.996 244.188 566.444 244.824 568.169 244.937C569.581 245.03 570.77 244.783 571.734 244.197C572.723 243.589 573.435 242.746 573.869 241.668L577.39 241.899C576.775 243.759 575.649 245.236 574.013 246.331C572.378 247.402 570.387 247.86 568.04 247.706C566.172 247.584 564.515 247.054 563.069 246.118C561.647 245.183 560.553 243.921 559.786 242.331C559.02 240.718 558.685 238.892 558.779 236.855C558.874 234.817 559.364 233.057 560.249 231.576C561.135 230.096 562.327 228.995 563.826 228.276C565.349 227.534 567.069 227.227 568.985 227.352C570.853 227.475 572.487 227.991 573.886 228.9C575.285 229.81 576.334 231.009 577.034 232.497C577.758 233.964 578.079 235.596 577.995 237.394ZM574.65 236.489C574.708 235.242 574.482 234.158 573.973 233.234C573.464 232.287 572.742 231.554 571.805 231.036C570.893 230.495 569.862 230.187 568.713 230.112C567.06 230.003 565.623 230.438 564.401 231.416C563.202 232.395 562.476 233.815 562.221 235.674L574.65 236.489ZM582.849 248.57C582.227 248.529 581.71 248.279 581.299 247.819C580.888 247.359 580.697 246.817 580.726 246.194C580.755 245.571 580.995 245.057 581.446 244.654C581.897 244.251 582.434 244.07 583.056 244.111C583.655 244.15 584.148 244.399 584.535 244.857C584.946 245.317 585.137 245.858 585.108 246.482C585.079 247.105 584.839 247.618 584.388 248.021C583.961 248.426 583.448 248.609 582.849 248.57ZM277.035 243.226C279.765 243.405 282.1 244.075 284.04 245.236C286.005 246.375 287.47 247.926 288.436 249.889C289.426 251.854 289.861 254.119 289.742 256.684C289.623 259.249 288.981 261.444 287.815 263.267C286.674 265.068 285.075 266.406 283.016 267.28C280.983 268.133 278.601 268.47 275.871 268.291L268.076 267.779L269.24 242.714L277.035 243.226ZM275.996 265.593C279.229 265.806 281.736 265.116 283.515 263.526C285.296 261.911 286.258 259.558 286.401 256.465C286.546 253.348 285.797 250.858 284.154 248.995C282.535 247.133 280.121 246.097 276.912 245.887L272.385 245.59L271.47 265.296L275.996 265.593ZM311.928 260.015C311.9 260.639 311.833 261.296 311.729 261.986L295.995 260.954C296.024 262.904 296.612 264.469 297.758 265.651C298.93 266.81 300.377 267.446 302.102 267.559C303.515 267.651 304.703 267.405 305.667 266.819C306.656 266.21 307.368 265.367 307.802 264.29L311.323 264.521C310.708 266.38 309.582 267.857 307.946 268.952C306.311 270.023 304.32 270.482 301.973 270.328C300.105 270.205 298.448 269.676 297.002 268.739C295.58 267.804 294.486 266.542 293.719 264.953C292.953 263.339 292.618 261.514 292.712 259.476C292.807 257.438 293.297 255.679 294.183 254.198C295.068 252.717 296.26 251.617 297.759 250.898C299.283 250.156 301.002 249.848 302.918 249.974C304.786 250.096 306.42 250.612 307.819 251.522C309.218 252.431 310.267 253.63 310.967 255.119C311.691 256.585 312.012 258.217 311.928 260.015ZM308.583 259.111C308.641 257.864 308.415 256.779 307.906 255.856C307.397 254.909 306.675 254.176 305.738 253.658C304.826 253.117 303.796 252.809 302.646 252.733C300.994 252.625 299.556 253.06 298.334 254.037C297.135 255.017 296.409 256.436 296.154 258.295L308.583 259.111ZM306.539 244.945L298.697 248.542L298.811 246.097L306.671 242.104L306.539 244.945ZM314.989 260.938C315.083 258.9 315.573 257.152 316.457 255.696C317.343 254.215 318.523 253.102 319.999 252.357C321.499 251.614 323.183 251.303 325.051 251.426C327.47 251.585 329.43 252.302 330.932 253.579C332.458 254.858 333.424 256.556 333.83 258.675L330.31 258.444C330.03 257.223 329.416 256.233 328.466 255.473C327.541 254.715 326.359 254.289 324.922 254.195C323.054 254.072 321.516 254.621 320.306 255.84C319.097 257.035 318.439 258.807 318.329 261.157C318.219 263.53 318.709 265.402 319.798 266.772C320.888 268.142 322.366 268.888 324.234 269.011C325.671 269.105 326.884 268.848 327.873 268.24C328.862 267.631 329.566 266.716 329.983 265.492L333.503 265.723C332.883 267.703 331.754 269.252 330.116 270.371C328.48 271.466 326.477 271.936 324.106 271.78C322.238 271.657 320.593 271.129 319.171 270.194C317.773 269.26 316.702 268 315.959 266.412C315.216 264.824 314.893 262.999 314.989 260.938ZM346.141 273.226C344.297 273.105 342.641 272.575 341.171 271.637C339.725 270.701 338.607 269.437 337.816 267.846C337.05 266.233 336.714 264.407 336.809 262.369C336.902 260.355 337.416 258.61 338.349 257.132C339.308 255.632 340.56 254.524 342.107 253.807C343.655 253.067 345.362 252.759 347.23 252.881C349.098 253.004 350.767 253.534 352.237 254.472C353.708 255.386 354.839 256.639 355.63 258.23C356.445 259.822 356.805 261.637 356.71 263.675C356.615 265.713 356.077 267.481 355.095 268.98C354.137 270.456 352.873 271.563 351.301 272.302C349.729 273.04 348.009 273.348 346.141 273.226ZM346.275 270.349C347.449 270.426 348.563 270.222 349.618 269.739C350.674 269.255 351.538 268.482 352.212 267.42C352.91 266.36 353.296 265.038 353.369 263.456C353.443 261.874 353.194 260.511 352.622 259.367C352.051 258.223 351.275 257.355 350.293 256.761C349.313 256.144 348.236 255.797 347.063 255.72C345.865 255.641 344.751 255.845 343.719 256.33C342.713 256.793 341.885 257.556 341.235 258.62C340.585 259.683 340.223 261.006 340.15 262.589C340.075 264.195 340.3 265.568 340.823 266.709C341.371 267.851 342.123 268.73 343.079 269.346C344.036 269.937 345.102 270.272 346.275 270.349ZM378.923 255.285L378.007 274.992L374.738 274.777L374.874 271.865C374.204 272.831 373.293 273.564 372.141 274.066C371.014 274.545 369.78 274.741 368.439 274.653C366.906 274.552 365.543 274.15 364.351 273.447C363.16 272.719 362.234 271.697 361.575 270.379C360.939 269.063 360.664 267.493 360.748 265.671L361.285 254.128L364.518 254.34L364.002 265.452C363.911 267.394 364.333 268.925 365.266 270.044C366.2 271.139 367.517 271.743 369.217 271.854C370.965 271.969 372.367 271.52 373.423 270.507C374.479 269.494 375.055 267.957 375.151 265.895L375.654 255.071L378.923 255.285ZM390.995 272.814L397.877 256.529L401.362 256.757L392.723 275.957L388.915 275.708L382.107 255.494L385.628 255.725L390.995 272.814ZM407.699 260.384C408.326 259.294 409.181 258.473 410.263 257.919C411.37 257.366 412.69 257.14 414.222 257.241L414.065 260.621L413.203 260.564C409.539 260.324 407.615 262.194 407.43 266.173L406.932 276.89L403.663 276.675L404.578 256.968L407.847 257.183L407.699 260.384ZM435.518 268.124C435.489 268.748 435.423 269.405 435.319 270.095L419.584 269.063C419.614 271.013 420.202 272.578 421.348 273.76C422.519 274.919 423.967 275.555 425.691 275.668C427.104 275.76 428.293 275.514 429.257 274.928C430.246 274.319 430.958 273.476 431.392 272.399L434.913 272.63C434.298 274.489 433.172 275.966 431.536 277.061C429.901 278.132 427.91 278.591 425.563 278.437C423.695 278.314 422.038 277.785 420.592 276.848C419.17 275.913 418.076 274.651 417.309 273.062C416.543 271.448 416.207 269.623 416.302 267.585C416.397 265.547 416.887 263.788 417.772 262.307C418.658 260.826 419.85 259.726 421.349 259.007C422.872 258.265 424.592 257.957 426.508 258.083C428.376 258.205 430.01 258.721 431.409 259.631C432.808 260.54 433.857 261.739 434.557 263.228C435.281 264.694 435.602 266.326 435.518 268.124ZM432.173 267.22C432.231 265.973 432.005 264.888 431.496 263.965C430.987 263.018 430.264 262.285 429.328 261.767C428.416 261.226 427.385 260.918 426.236 260.842C424.583 260.734 423.146 261.169 421.923 262.146C420.725 263.126 419.998 264.545 419.744 266.404L432.173 267.22ZM441.908 276.479L451.572 277.113L451.446 279.81L438.047 278.931L438.172 276.234L448.394 262.513L438.911 261.89L439.034 259.229L452.29 260.099L452.166 262.76L441.908 276.479ZM469.77 254.32L468.534 280.932L465.265 280.717L466.501 254.106L469.77 254.32ZM492.56 271.867C492.531 272.49 492.464 273.147 492.36 273.838L476.626 272.805C476.655 274.755 477.243 276.321 478.389 277.502C479.561 278.661 481.009 279.297 482.733 279.41C484.146 279.503 485.334 279.256 486.298 278.67C487.287 278.062 487.999 277.219 488.434 276.141L491.954 276.372C491.339 278.232 490.214 279.709 488.577 280.804C486.942 281.875 484.951 282.333 482.604 282.179C480.736 282.057 479.079 281.527 477.633 280.591C476.212 279.656 475.117 278.394 474.35 276.804C473.584 275.191 473.249 273.365 473.343 271.328C473.438 269.29 473.928 267.53 474.814 266.05C475.699 264.569 476.891 263.469 478.39 262.749C479.914 262.008 481.634 261.7 483.549 261.825C485.417 261.948 487.051 262.464 488.45 263.373C489.849 264.283 490.898 265.482 491.598 266.97C492.323 268.437 492.643 270.069 492.56 271.867ZM489.215 270.962C489.272 269.716 489.047 268.631 488.537 267.707C488.028 266.76 487.306 266.028 486.369 265.509C485.457 264.968 484.427 264.66 483.277 264.585C481.625 264.476 480.187 264.911 478.965 265.889C477.766 266.868 477.04 268.288 476.785 270.147L489.215 270.962ZM508.783 260.595C508.16 260.554 507.643 260.304 507.232 259.844C506.845 259.386 506.666 258.845 506.695 258.222C506.724 257.599 506.952 257.084 507.379 256.68C507.831 256.276 508.367 256.095 508.99 256.136C509.613 256.177 510.118 256.426 510.505 256.885C510.916 257.345 511.107 257.886 511.078 258.509C511.049 259.133 510.809 259.646 510.358 260.049C509.931 260.454 509.406 260.636 508.783 260.595ZM509.137 287.888C509.056 289.638 508.553 290.892 507.629 291.649C506.705 292.406 505.393 292.728 503.693 292.617L501.789 292.492L501.917 289.723L503.282 289.812C504.192 289.872 504.835 289.734 505.211 289.398C505.611 289.063 505.831 288.465 505.871 287.602L506.982 263.687L510.251 263.902L509.137 287.888ZM533.324 274.542C533.295 275.165 533.228 275.822 533.124 276.512L517.39 275.48C517.419 277.43 518.007 278.995 519.153 280.177C520.325 281.336 521.772 281.972 523.497 282.085C524.91 282.178 526.098 281.931 527.062 281.345C528.051 280.737 528.763 279.893 529.197 278.816L532.718 279.047C532.103 280.906 530.978 282.383 529.341 283.478C527.706 284.549 525.715 285.008 523.368 284.854C521.5 284.731 519.843 284.202 518.397 283.265C516.975 282.33 515.881 281.068 515.114 279.479C514.348 277.866 514.013 276.04 514.107 274.002C514.202 271.964 514.692 270.205 515.578 268.724C516.463 267.243 517.655 266.143 519.154 265.424C520.678 264.682 522.398 264.374 524.313 264.5C526.181 264.622 527.815 265.138 529.214 266.048C530.613 266.957 531.662 268.156 532.362 269.645C533.086 271.111 533.407 272.744 533.324 274.542ZM529.978 273.637C530.036 272.39 529.811 271.305 529.301 270.382C528.792 269.435 528.07 268.702 527.133 268.184C526.221 267.643 525.191 267.335 524.041 267.259C522.389 267.151 520.951 267.586 519.729 268.564C518.53 269.543 517.804 270.962 517.549 272.821L529.978 273.637ZM555.519 266.872L554.604 286.579L551.335 286.364L551.471 283.451C550.801 284.417 549.89 285.151 548.738 285.653C547.611 286.132 546.377 286.328 545.035 286.24C543.503 286.139 542.14 285.737 540.948 285.033C539.756 284.306 538.831 283.283 538.172 281.966C537.536 280.649 537.261 279.08 537.345 277.258L537.881 265.715L541.114 265.927L540.598 277.039C540.508 278.981 540.93 280.511 541.862 281.631C542.796 282.726 544.114 283.329 545.814 283.441C547.562 283.556 548.964 283.107 550.02 282.094C551.076 281.081 551.652 279.544 551.748 277.482L552.25 266.658L555.519 266.872ZM561.155 287.225C560.533 287.184 560.016 286.934 559.605 286.474C559.194 286.014 559.003 285.473 559.032 284.849C559.061 284.226 559.301 283.713 559.752 283.309C560.203 282.906 560.74 282.725 561.363 282.766C561.961 282.805 562.454 283.054 562.841 283.512C563.252 283.972 563.443 284.514 563.414 285.137C563.385 285.76 563.145 286.273 562.694 286.677C562.267 287.082 561.754 287.264 561.155 287.225Z" fill="white"/>
</g>
<defs>
<clipPath id="clip0_711_2">
<rect width="92.6563" height="50.7106" fill="white" transform="translate(742.476 303.417) rotate(153.586)"/>
</clipPath>
</defs>
</svg>
