<svg width="51" height="67" viewBox="0 0 51 67" fill="none" xmlns="http://www.w3.org/2000/svg">
<g clip-path="url(#clip0_699_469)">
<path d="M25.42 26.1199C29.2694 26.1199 32.39 22.9994 32.39 19.1499C32.39 15.3005 29.2694 12.1799 25.42 12.1799C21.5706 12.1799 18.45 15.3005 18.45 19.1499C18.45 22.9994 21.5706 26.1199 25.42 26.1199Z" stroke="white" stroke-width="4.38" stroke-miterlimit="10"/>
<path d="M11.61 49.6999C11.61 49.6999 -3.09999 54.3299 4.25001 59.7799C11.6 65.2299 37.49 66.5899 45.67 60.3199C53.84 54.0499 38.04 49.6899 38.04 49.6899" stroke="white" stroke-width="4.38" stroke-miterlimit="10"/>
<path d="M40.74 28.4099L24.86 56.4099L10.19 27.6999C5.27001 18.0799 10.04 6.08994 20.39 2.98994C22.12 2.46994 23.95 2.18994 25.85 2.18994C26.22 2.18994 26.6 2.19994 26.97 2.21994C39.75 2.95994 47.06 17.2699 40.74 28.4099Z" stroke="white" stroke-width="4.38" stroke-linecap="round" stroke-linejoin="round"/>
</g>
<defs>
<clipPath id="clip0_699_469">
<rect width="50.2" height="66.66" fill="white"/>
</clipPath>
</defs>
</svg>
