<svg width="24" height="24" viewBox="0 0 24 24" fill="none" xmlns="http://www.w3.org/2000/svg">
<path d="M17.6004 12C17.6004 12.1179 17.5512 12.2309 17.4637 12.3143C17.3762 12.3976 17.2575 12.4444 17.1337 12.4444H6.86706C6.74329 12.4444 6.62459 12.3976 6.53707 12.3143C6.44956 12.2309 6.40039 12.1179 6.40039 12C6.40039 11.8821 6.44956 11.7691 6.53707 11.6857C6.62459 11.6024 6.74329 11.5556 6.86706 11.5556H17.1337C17.2575 11.5556 17.3762 11.6024 17.4637 11.6857C17.5512 11.7691 17.6004 11.8821 17.6004 12ZM6.86706 8.88889H17.1337C17.2575 8.88889 17.3762 8.84206 17.4637 8.75871C17.5512 8.67536 17.6004 8.56232 17.6004 8.44444C17.6004 8.32657 17.5512 8.21352 17.4637 8.13017C17.3762 8.04683 17.2575 8 17.1337 8H6.86706C6.74329 8 6.62459 8.04683 6.53707 8.13017C6.44956 8.21352 6.40039 8.32657 6.40039 8.44444C6.40039 8.56232 6.44956 8.67536 6.53707 8.75871C6.62459 8.84206 6.74329 8.88889 6.86706 8.88889ZM17.1337 15.1111H6.86706C6.74329 15.1111 6.62459 15.1579 6.53707 15.2413C6.44956 15.3246 6.40039 15.4377 6.40039 15.5556C6.40039 15.6734 6.44956 15.7865 6.53707 15.8698C6.62459 15.9532 6.74329 16 6.86706 16H17.1337C17.2575 16 17.3762 15.9532 17.4637 15.8698C17.5512 15.7865 17.6004 15.6734 17.6004 15.5556C17.6004 15.4377 17.5512 15.3246 17.4637 15.2413C17.3762 15.1579 17.2575 15.1111 17.1337 15.1111Z" fill="white"/>
<circle cx="12" cy="12" r="11.5" stroke="white" stroke-linejoin="round"/>
</svg>
