<svg width="28" height="28" viewBox="0 0 28 28" fill="none" xmlns="http://www.w3.org/2000/svg">
<path d="M14 0C6.26792 0 0 6.26792 0 14C0 21.7321 6.26792 28 14 28C21.7321 28 28 21.7321 28 14C28 6.26792 21.7321 0 14 0ZM21.4637 21.2567H6.53625V20.5304H21.4637V21.2567ZM21.4637 7.46958H21.245C21.0467 7.46958 20.8629 7.48417 20.6908 7.51042C20.5187 7.53958 20.3671 7.59792 20.2387 7.6825C20.1104 7.77 20.0083 7.89542 19.9354 8.05875C19.8625 8.22208 19.8246 8.43792 19.8246 8.70917V17.1325C19.8246 17.4037 19.8625 17.6196 19.9354 17.7829C20.0083 17.9462 20.1104 18.0717 20.2387 18.1592C20.3671 18.2467 20.5187 18.305 20.6908 18.3312C20.8629 18.3604 21.0467 18.375 21.245 18.375H21.4637V19.1012H16.8554V18.375H16.9137C17.1004 18.375 17.2667 18.3633 17.4183 18.3371C17.5671 18.3108 17.6954 18.2612 17.7975 18.1854C17.9025 18.1096 17.9842 17.9988 18.0483 17.8558C18.1096 17.7129 18.1475 17.5204 18.1592 17.2842V8.0325L14.1925 19.1042H13.2533L9.23708 8.0675V17.1354C9.23708 17.4067 9.26625 17.6225 9.32167 17.7858C9.37708 17.9492 9.46167 18.0746 9.5725 18.1621C9.68333 18.2496 9.81458 18.3079 9.96917 18.3342C10.1237 18.3633 10.2987 18.3779 10.4883 18.3779H10.5379V19.1042H6.53625V18.3779H6.755C6.9475 18.3779 7.12833 18.3662 7.30042 18.34C7.4725 18.3137 7.62417 18.2612 7.7525 18.1825C7.88083 18.1038 7.98583 17.9871 8.06167 17.8325C8.1375 17.6779 8.17542 17.4737 8.17542 17.22V8.645C8.17542 8.39125 8.1375 8.18708 8.06167 8.0325C7.98583 7.87792 7.88375 7.75833 7.7525 7.67375C7.62417 7.58917 7.4725 7.53375 7.30042 7.5075C7.12833 7.48125 6.9475 7.46958 6.755 7.46958H6.53625V6.74333H10.4854L14.07 16.6483L17.6225 6.74333H21.4608V7.46958H21.4637Z" fill="white"/>
</svg>
