<svg width="44" height="44" viewBox="0 0 44 44" fill="none" xmlns="http://www.w3.org/2000/svg">
<circle cx="24" cy="22" r="20" fill="white"/>
<path d="M22 0C9.84958 0 0 9.84958 0 22C0 34.1504 9.84958 44 22 44C34.1504 44 44 34.1504 44 22C44 9.84958 34.1504 0 22 0ZM33.7287 33.4033H10.2712V32.2621H33.7287V33.4033ZM33.7287 11.7379H33.385C33.0733 11.7379 32.7846 11.7608 32.5142 11.8021C32.2438 11.8479 32.0054 11.9396 31.8037 12.0725C31.6021 12.21 31.4417 12.4071 31.3271 12.6637C31.2125 12.9204 31.1529 13.2596 31.1529 13.6858V26.9225C31.1529 27.3488 31.2125 27.6879 31.3271 27.9446C31.4417 28.2013 31.6021 28.3983 31.8037 28.5358C32.0054 28.6733 32.2438 28.765 32.5142 28.8062C32.7846 28.8521 33.0733 28.875 33.385 28.875H33.7287V30.0162H26.4871V28.875H26.5788C26.8721 28.875 27.1333 28.8567 27.3717 28.8154C27.6054 28.7742 27.8071 28.6962 27.9675 28.5771C28.1325 28.4579 28.2608 28.2838 28.3617 28.0592C28.4579 27.8346 28.5175 27.5321 28.5358 27.1608V12.6225L22.3025 30.0208H20.8267L14.5154 12.6775V26.9271C14.5154 27.3533 14.5612 27.6925 14.6483 27.9492C14.7354 28.2058 14.8683 28.4029 15.0425 28.5404C15.2167 28.6779 15.4229 28.7696 15.6658 28.8108C15.9088 28.8567 16.1838 28.8796 16.4817 28.8796H16.5596V30.0208H10.2712V28.8796H10.615C10.9175 28.8796 11.2017 28.8613 11.4721 28.82C11.7425 28.7788 11.9808 28.6963 12.1825 28.5725C12.3842 28.4488 12.5492 28.2654 12.6683 28.0225C12.7875 27.7796 12.8471 27.4588 12.8471 27.06V13.585C12.8471 13.1862 12.7875 12.8654 12.6683 12.6225C12.5492 12.3796 12.3888 12.1917 12.1825 12.0588C11.9808 11.9258 11.7425 11.8387 11.4721 11.7975C11.2017 11.7562 10.9175 11.7379 10.615 11.7379H10.2712V10.5967H16.4771L22.11 26.1617L27.6925 10.5967H33.7242V11.7379H33.7287Z" fill="#08275F"/>
</svg>
