<svg width="51" height="51" viewBox="0 0 51 51" fill="none" xmlns="http://www.w3.org/2000/svg">
<path d="M1.47896 50.116L1.61622 50.5968L0.654636 50.8713L0.51738 50.3905L0.998172 50.2532L1.47896 50.116ZM18.1264 12.9511L17.8824 12.5146V12.5146L18.1264 12.9511ZM50.7559 3.98154C50.9079 4.21208 50.8442 4.5222 50.6137 4.67421L46.8568 7.15133C46.6263 7.30334 46.3162 7.23968 46.1642 7.00914C46.0122 6.7786 46.0758 6.46849 46.3064 6.31648L49.6458 4.11459L47.4439 0.775174C47.2919 0.544639 47.3555 0.23452 47.5861 0.0825143C47.8166 -0.0694951 48.1267 -0.00583437 48.2787 0.224705L50.7559 3.98154ZM0.998172 50.2532L0.51738 50.3905C-0.155788 48.0325 -0.148706 44.9093 0.402785 41.4791C0.955791 38.0395 2.06286 34.2502 3.62762 30.5393C6.74915 23.1365 11.7334 15.9513 17.8824 12.5146L18.1264 12.9511L18.3703 13.3875C12.5009 16.6679 7.63172 23.6172 4.54905 30.9278C3.01171 34.5737 1.92901 38.286 1.39011 41.6378C0.849692 44.9991 0.86274 47.9574 1.47896 50.116L0.998172 50.2532ZM18.1264 12.9511L17.8824 12.5146C22.9173 9.70067 28.859 7.07092 34.6281 5.36476C40.3835 3.66262 46.0276 2.86143 50.439 3.76699L50.3384 4.25678L50.2379 4.74657C46.0672 3.8904 40.6129 4.63762 34.9117 6.3237C29.224 8.00577 23.3507 10.604 18.3703 13.3875L18.1264 12.9511Z" fill="#EB5D31"/>
</svg>
