<svg width="24" height="24" viewBox="0 0 24 24" fill="none" xmlns="http://www.w3.org/2000/svg">
<path d="M17.4743 16.8649L14.7811 14.1723C15.5617 13.2352 15.951 12.0332 15.8679 10.8163C15.7848 9.59952 15.2358 8.46157 14.3351 7.63921C13.4344 6.81686 12.2513 6.37342 11.032 6.40113C9.81262 6.42884 8.65091 6.92557 7.78849 7.788C6.92606 8.65042 6.42933 9.81213 6.40162 11.0315C6.3739 12.2508 6.81735 13.4339 7.6397 14.3346C8.46206 15.2353 9.6 15.7843 10.8168 15.8674C12.0336 15.9505 13.2356 15.5612 14.1728 14.7806L16.8654 17.4738C16.9054 17.5138 16.9529 17.5455 17.0051 17.5671C17.0573 17.5888 17.1133 17.5999 17.1698 17.5999C17.2264 17.5999 17.2824 17.5888 17.3346 17.5671C17.3868 17.5455 17.4343 17.5138 17.4743 17.4738C17.5143 17.4338 17.546 17.3864 17.5676 17.3341C17.5893 17.2819 17.6004 17.2259 17.6004 17.1694C17.6004 17.1128 17.5893 17.0568 17.5676 17.0046C17.546 16.9524 17.5143 16.9049 17.4743 16.8649ZM7.27288 11.1451C7.27288 10.3792 7.50002 9.63042 7.92556 8.99355C8.3511 8.35668 8.95593 7.86031 9.66358 7.56719C10.3712 7.27407 11.1499 7.19738 11.9011 7.34681C12.6524 7.49624 13.3424 7.86508 13.884 8.40669C14.4256 8.9483 14.7945 9.63836 14.9439 10.3896C15.0934 11.1408 15.0167 11.9195 14.7235 12.6271C14.4304 13.3348 13.934 13.9396 13.2972 14.3652C12.6603 14.7907 11.9116 15.0178 11.1456 15.0178C10.1188 15.0167 9.13447 14.6083 8.40844 13.8823C7.68241 13.1563 7.27402 12.1719 7.27288 11.1451Z" fill="white"/>
<circle cx="12" cy="12" r="11.5" stroke="white" stroke-linejoin="round"/>
</svg>
