<svg width="300" height="80" viewBox="0 0 300 80" fill="none" xmlns="http://www.w3.org/2000/svg">
<path d="M0.5 69.449C0.5 74.9719 4.97715 79.449 10.5 79.449H289.5C295.023 79.449 299.5 74.9719 299.5 69.449V48.1425C299.5 42.6406 295.056 38.1722 289.554 38.1426L215.929 37.7465C210.427 37.7169 205.983 33.2484 205.983 27.7466C205.983 21.9879 205.983 16.2584 205.983 10.5001C205.983 4.95737 201.475 0.471945 195.932 0.500112L113.664 0.918187C108.231 0.945794 103.835 5.30625 103.881 10.7387C103.888 11.5986 103.896 12.459 103.904 13.3189C103.95 18.7569 99.5458 23.1203 94.1076 23.1295C66.2806 23.1769 38.2909 23.0151 10.4632 23.0616C4.95471 23.0708 0.5 27.5426 0.5 33.0511V69.449Z" fill="#E5231A" stroke="#E5231A" stroke-opacity="0.3" stroke-linecap="round" stroke-linejoin="bevel"/>
</svg>
