<svg width="21" height="20" viewBox="0 0 21 20" fill="none" xmlns="http://www.w3.org/2000/svg">
<g filter="url(#filter0_d_73_569)">
<path d="M8.36746 1.03874C8.1702 1.0912 7.99557 1.22372 7.89209 1.3949C7.81124 1.52743 7.80478 1.56608 7.78214 2.10171C7.75627 2.6898 7.72716 2.8527 7.57517 3.19506C7.43612 3.50981 7.3003 3.69203 6.53388 4.5645C5.75129 5.45906 5.57342 5.71583 5.4182 6.17415C5.34382 6.39503 5.34382 6.39503 5.33412 8.64522C5.32765 10.2935 5.33412 10.9368 5.35999 11.0473C5.48611 11.5415 5.92915 11.928 6.62119 12.1379C7.17094 12.3035 7.06746 12.298 9.79035 12.309C11.5851 12.3173 12.358 12.3118 12.5165 12.2869C13.0177 12.2152 13.4899 11.9115 13.713 11.5166C13.8197 11.3261 13.8747 11.1191 14.3533 9.07317C14.7381 7.43039 14.8772 6.78432 14.874 6.64075C14.874 6.28735 14.7252 5.96708 14.4342 5.69926C14.2207 5.50323 13.9652 5.36794 13.6774 5.30168C13.4802 5.25474 13.3217 5.24922 11.8697 5.24922H10.2754V3.74173C10.2754 2.08239 10.2722 2.05478 10.0749 1.7345C9.95205 1.53847 9.60279 1.25133 9.36672 1.15194C9.17592 1.07463 8.80727 0.997323 8.62617 1.00008C8.56473 1.00008 8.44831 1.01941 8.36746 1.03874Z" fill="#E5231A"/>
<path d="M3.03164 5.96978C2.63712 6.025 2.23935 6.3011 2.08736 6.62137L2.01298 6.78151L2.00328 9.05655C1.99358 11.5331 1.99358 11.5166 2.17791 11.7844C2.43338 12.1571 2.9605 12.3697 3.44234 12.2924C3.86598 12.2261 4.18613 12.0191 4.36722 11.6878L4.47071 11.5028V9.12834V6.7539L4.38339 6.59376C4.12792 6.12992 3.60727 5.88972 3.03164 5.96978Z" fill="#E5231A"/>
</g>
<defs>
<filter id="filter0_d_73_569" x="0" y="0" width="20.874" height="19.3126" filterUnits="userSpaceOnUse" color-interpolation-filters="sRGB">
<feFlood flood-opacity="0" result="BackgroundImageFix"/>
<feColorMatrix in="SourceAlpha" type="matrix" values="0 0 0 0 0 0 0 0 0 0 0 0 0 0 0 0 0 0 127 0" result="hardAlpha"/>
<feOffset dx="2" dy="3"/>
<feGaussianBlur stdDeviation="2"/>
<feComposite in2="hardAlpha" operator="out"/>
<feColorMatrix type="matrix" values="0 0 0 0 0 0 0 0 0 0 0 0 0 0 0 0 0 0 0.25 0"/>
<feBlend mode="normal" in2="BackgroundImageFix" result="effect1_dropShadow_73_569"/>
<feBlend mode="normal" in="SourceGraphic" in2="effect1_dropShadow_73_569" result="shape"/>
</filter>
</defs>
</svg>
