<svg xmlns="http://www.w3.org/2000/svg" viewBox="0 0 595.28 841.89" width="595.28" height="841.89"><defs><style>
      .cls-1 {
        fill: #fb0050;
      }
      .cls-2 {
        fill: #fff;
      }
      .cls-3 {
        fill: #7d002a;
      }
      .cls-4 {
        fill: #abcf10;
      }
    </style></defs><g id="Calque_2"><polyline class="cls-2" points="112.65 363.45 113 617.98 109.02 633.93 189.4 635.16 306.75 646.31 389.36 655.99 459.48 659.4 496.67 645.06 494.99 522.34 497.86 360.68 494.99 343.01 461.49 371.02 285.84 362.76 112.11 355.65 112.65 363.45 112.65 363.45"></polyline></g><g id="Calque_1"><g><path class="cls-1" d="M471.2,369.36c2.05-2.38,4.38-4.49,6.87-6.4-.84,4.62-3.76,9.29-8.59,8.86.51-.78,1.01-1.57,1.52-2.22.01-.02.03-.04.04-.06.07-.08.13-.16.2-.24-.01.02-.03.04-.04.06h0Z"></path><path class="cls-3" d="M503.93,330.59c.52,5.89,2.41,13.38-2.3,18.03-7.65,4.71-16.33,8.76-23.55,14.33-2.5,1.92-4.83,4.02-6.87,6.4.01-.02.03-.04.04-.06-.07.08-.13.16-.2.24-.01.02-.03.04-.04.06-.5.65-1,1.44-1.52,2.22-1.87,2.84-3.98,5.85-7.46,4.08-2.31-1.42-2.67-4-2.97-6.55-.13-1.02-.24-2.04-.47-2.97-1.63-10.93-1.95-21.99-3.97-32.89-3.25-14.74-3.76-29.79-4.34-44.83-1.81-27.36-5.46-51.12-19.14-73.32-2.81-4.54-6.02-9.01-9.73-13.44-10.35-11.37-20.03-23.61-31.71-33.65-4.44-3.45-10.01-4.26-15.44-4.75-5.01-.77-10.04-1.11-15.05-.41-2.9.06-4.63-3.15-4.62-5.7-5.14-1.97-12.49-2.76-14.06-8.99-.83-2.29.49-4.72,2.81-5.42,2.71-1.14,5.43.36,7.93,1.32,11.87,4.5,24.77,5.58,36.59,10.29,10.96,3.69,20.88,9.81,30.09,16.58,11.5,7.09,22.32,15.38,31.49,25.35,5.78,6.64,10.4,14.2,15.94,21.02,13.31,13.94,20.86,32.11,24.62,50.85,4.93,20.65,10.17,41.29,13.94,62.19h0Z"></path><path class="cls-1" d="M458.59,366.38c.23.93.34,1.95.47,2.97-8.98-1.95-18.04-2.97-27.32-1.75-15.45-.27-30.91-.3-46.35-.91-18.8-.77-37.25-4.37-55.79-7.23-17.82-1.61-35.75-2.16-53.64-2.46-11.72-.2-23.14-2.96-34.73-4.37-11.93-.96-23.72,2-35.37,4.24-17.61,4.56-35.45,8.24-53.76,7.23-8.23-.09-16.45-.49-24.65-1.09-5.24.05-18.68-8.47-14.76-11.69-2.95-22.41-1.75-51.92,6.29-73.66,14.09-42.49,45.8-74.19,77.52-105.67,41.31-27.95,65.9-19.78,96.99-18.08,12.59,1.42,25.1,3.58,37.26,7.18,11.9,3.49,24.3,4.76,36.38,7.39,28.37,5.35,36.4,25.61,54.78,38.03,3.31,2.67,6.39,5.64,9.22,8.84,13.68,22.2,17.33,45.96,19.14,73.32.57,15.04,1.08,30.09,4.34,44.83,2.03,10.9,2.35,21.96,3.97,32.89h0Z"></path><path class="cls-1" d="M117.47,356.1c-14.83-26.29-.02-56.04,6.07-82.8,9.54-26.51,17.49-69.37,41.93-85.43,3.04-1.89,6.23-3.53,9.54-4.9-1.23,2.6-2.89,5.25-4.2,7.49-7.5,12.14-16.04,23.69-21.74,36.86-6.53,15.8-10.9,32.36-16.44,48.51-4.58,21.68-15.87,43.51-11.04,66.03,1.08,2.97,3.52,5.29,3.89,8.58,2.44,5.47-4.18,12.08-8.01,5.66h0Z"></path><path class="cls-1" d="M131.22,271.62c-7.93-6.09,4.13-28.9,7.03-36.79-1.3,1.32-2.59,2.94-3.82,4.14,3.62-10.1,9.02-19.47,14.17-28.79,2.4-6.54,5.83-12.68,9.72-18.45,6.14-9.29,15.5-15.48,24.25-22.07,8.56-6.31,17.29-12.73,27.26-16.62,7.73-2.97,16.2-5.17,24.52-4.47,4.95,1.1,5.18,9,1.04,11.29-3.77,1.53-7.8,2.54-11.65,3.91-4.38.84-9.98,5.53-13.84,1.44-.29.13-.58.26-.88.39-2.24,1.09-4.45,2.26-6.58,3.55,1.09,7.27-11.8,16.05-16.96,20.37-11.77,11.78-23.65,23.74-32.46,37.96-4.57,12.13-7.5,24.93-12.83,36.81-1.4,3.67-4,10.86-8.96,7.32h0Z"></path><path class="cls-1" d="M131.76,247.48c1.37-19.06,8.52-36.94,20.06-52.12,13.2-15.52,25.3-33.7,42.09-45.45,6.68-2.73,8.45,7.49,4.17,11.02-11.71,12.46-24.59,23.8-35.47,37.04-12.62,14.96-18.63,34.44-30.84,49.51Z"></path><path class="cls-1" d="M123.13,282.77c-.62-10.89-.59-22.17,2.31-32.77,1.53-5.59,3.55-11.02,5.6-16.44,1.99-5.29,4.12-10.51,6.77-15.49.7-1.31,1.47-2.83,2.48-3.93,1.02-1.1,2.23-1.72,3.68-1.98,1.87-.33,3.56.99,3.99,2.76.29,1.16.35,2.31.21,3.5-.19,1.57-.85,2.94-1.55,4.1-1.4,2.36-2.63,4.82-3.77,7.32-4.11,9.46-7.19,19.33-10.88,28.97-1.39,3.66-2.65,7.4-3.92,11.11-1.5,4.34-3.16,8.62-4.9,12.87,0,.01,0,.01-.02.01-.01,0-.02-.02-.02-.03h0Z"></path><path class="cls-1" d="M112.86,333.91c-.62-13.73.42-27.52,3.04-41.01.19-3.58,3.88-8.96,7.59-5.45,3.29,3.58,1.2,8.62.33,12.74-3.09,11.61-6.78,22.57-10.93,33.75-.01,0-.03-.01-.03-.03h0Z"></path><path class="cls-1" d="M277.86,364.37c-18.58.13-36.96-3.16-55.38-4.23-4.63-.34-9.26-.77-13.89-1.19-4.59-.6-11.9-.47-12.49-6.47-.96-5.39,5.6-9.19,9.61-5.46,18.27,1.94,36.41,2.99,54.64,5.09,11.66-1.49,23.84-3.7,35.47-1.24,4.47.68,6.65,5.91,4.53,9.76-1.57,3.04-5.16,3.34-8.2,3.48-4.76.29-9.52.26-14.28.26h0Z"></path><path class="cls-1" d="M395.05,184.78c-16.32-6.53-33.46-9.7-50.54-13.48-10.18-1.51-20.37-2.91-30.55-4.32-3.62-.95-8.97.24-10.8-3.82-15.16-1.77-30.48-1.98-45.73-2.05-6.22-.56-19.03,3.05-17.23-7.34-7.69,1.6-16.24,2.95-22.26,8.38-5.41,5.01-10.32-4.65-6.06-8.72,12.5-11.36,31.28-11.99,47.33-13.1,15.22-.46,30.35,1.3,45.45,2.96,16.36,1.96,32.94,2.77,48.89,7.13,8.46,2.46,37.05-.55,32.06,14.47,3.11,1.03,6.88,1.11,9.23,3.62,3.03,2.88,1.66,10.04-3.03,10.15-1.43.03-2.84-.13-4.25-.35,2.52,2.07,5.32,4.21,7.5,6.48h0Z"></path><path class="cls-4" d="M100.79,675.27c-8.67-1.06-18.69-.34-25.75-6.21-13.44-2-29.89-17.64-16.66-29.99-10.49-15.42-4.04-35.54,6.75-49.04,6.72-8.55,15.89-18.24,27.5-18.4,5.08.29,8.06,4.71,11.56,7.69,3.32-3.13,7.38-2.79,8.62,1.98,2.76,8.59-3.01,16.68-6.75,24.08,5.35,6.89,7.17,15.82,7.79,24.35.24.05.48.11.72.17,4.81,1.15,9.88,3.47,13.51,7.07,5.92.89,12.51,2.48,16.59,7.18,5.98.23,10.26-4.43,15.41-6.86,4.45-2.46,9.12-4.52,13.9-6.23,4.95-2.01,10.23-2.1,15.44-1.41,6.78.94,4.56,11.06,1.59,14.85,4.71.85,8.99,2.99,13.33,4.89,2.81,1.16,3.59,4.38,3.11,7.09-.28,2.89-.95,5.92-3.43,7.72-2.53,2.11-6.24,2.27-9.35,2.56-6.5.96-13.03,1.86-19.56,2.58-24.65,2.98-49.4,6.86-74.3,5.94h0ZM158.77,658.64c-1.89.62-3.79,1.23-5.69,1.82,12.1-1.57,24.24-2.85,36.32-4.59-5.75-1.16-11.65-1.45-17.49-1.57-4.33,1.58-8.76,2.9-13.13,4.33h0ZM80.55,658.15c1.14-.59,2.29-1.18,3.45-1.75.14-.07.29-.14.44-.21-.17-.07-.34-.14-.51-.21-.89.51-1.77,1.05-2.63,1.61-.25.18-.5.37-.74.56h0ZM70.76,655.75c.35-1.85,1.16-3.44,2.27-4.82-2.53-1.8-5.81-1.24-8.31-3.31-.31.26-.62.53-.92.81-.26.27-.52.54-.77.83,1.49,3.2,4.53,5.26,7.73,6.5h0ZM112.25,648.67c-.05.14-.1.27-.15.41,1.96-.37,3.92-.73,5.88-1.09-1.86.02-3.73.1-5.59.25-.05.14-.09.29-.14.43h0ZM89.2,641.29c1.1-.37,2.22-.7,3.34-1.01-.06-.17-.11-.33-.17-.5-.65.03-1.3.06-1.95.1-.4.47-.81.94-1.23,1.4ZM70.27,632.05c1.8-.58,3.64-1.05,5.48-1.47,2.21-.52,4.44-.97,6.69-1.33.21-.19.43-.37.64-.57.63-.61,1.24-1.23,1.83-1.86-.19.03-.38.06-.56.09-3.24.62-5.43-2.92-5.33-5.84-2.88.17-5.27-.63-5-3.98-2.78,4.3-8.25,10.08-3.75,14.97h0ZM101.91,628.28c.84.04,1.69.09,2.53.15-.4-3.69-1.19-7.38-2.53-10.85-.04.16-.08.32-.13.48-.9,3.36-2.16,6.62-3.59,9.78.04.1.08.21.12.31,1.2.02,2.4.07,3.6.13h0ZM76.15,592.85c2.42-1.86,5.14-3.43,7.96-4.46,1.52-.55,3.05-.76,4.57-.66.72-1.6,1.53-3.13,2.49-4.59-5.92,1.3-11.01,5.3-15.02,9.71h0Z"></path><path class="cls-4" d="M391.31,702.4c-6.39-.44-8.28-11.64-1.87-13.4,19.92-3.27,39.97-5.74,59.71-10.06-12.37-8.63-10.51-24.3,1.36-32.36,15.08-9.67,34.41-8.74,50.77-2.99-7.88-8.48-9.29-21.91-3.99-32.08,2.74-5.23,8.41-10.76,14.78-9.66.32-4.53-2.08-11.44,3.09-13.89,2.49-.93,4.64.9,5.53,3.1,1.73,4.34.97,9.16,1.23,13.72,3.17-6.07,7.95-10.87,13.31-14.99,1.65-1.42,4.16-1.13,5.56.48,8.17,6.5,2.59,16.53-.28,24.33,1.68,7.34-2.09,14.39-2.04,21.61,2.42.77,5.23.4,6.95,2.67,3.82,4.91,4.8,11.27,5.62,17.27,7.81-.94,16.73,2.68,16.92,11.59-.32,7.22-7.35,11.74-13.21,14.66-.92,6.93-8.7,9.95-12.33,15.36-4.2,4.27-8.98-1.88-7.43-6.36-9.55,2.66-21.18,8.59-30.45,2.5-7.48,3.59-19.44,5.22-24.12-3.34-28.92,8.12-59.28,10.26-89.1,11.82h0ZM521.44,683.64c1.61-.41,3.22-.86,4.81-1.3-.03,0-.06.02-.09.02,4.63-1.36,9.17-3.06,13.61-4.99-.16-.01-.32-.03-.47-.05-.5-.06-.99-.19-1.46-.38-5.41,2.2-11.61,3.32-16.39,6.69h0ZM467.96,672.71c5.03-9.18,15.03-14.39,23.47-20.09-12.16-3.1-25.91-2.57-36.75,4.27-12.84,9.36,4.31,15.88,13.28,15.82h0ZM555.2,669.16c-.02.11-.03.23-.05.34.72-.42,1.4-.92,2.01-1.5-.44-.1-.88-.18-1.32-.23-.2-.01-.4-.03-.6-.04.04.48.03.96-.03,1.43h0ZM490.19,668.34c5.56-1.91,11.19-4.24,15.35-8.53-.05-.09-.1-.19-.15-.28-.13-.2-.26-.4-.39-.6-4.44,2.33-8.7,5.07-12.81,7.91-.68.49-1.34.98-2,1.49ZM538.68,657.28c1.02-.16,2.04-.3,3.06-.44-.35-2.98-.94-5.93-2.14-8.7-.37-.05-.73-.1-1.1-.17.05,3.1.06,6.2.18,9.3h0ZM525.88,656.39c.28-.21.55-.43.83-.65-.1-.04-.2-.07-.3-.11-.08-.02-.17-.04-.25-.06-.09.27-.18.55-.28.82h0ZM508.06,635.62c1.26-4.21,3.01-8.25,4.65-12.32.02-3.14-.07-6.29-.17-9.43-1.97-1.29-3.99-.24-5.45,1.28-5.56,5.48-4.61,15.33.97,20.47h0ZM527.89,617.49c.25.17.5.33.76.49,1.84-4.23,3.71-8.45,5.16-12.83-.19.22-.38.43-.57.66-1.18,1.54-2.25,3.13-3.27,4.78.13-.22.26-.43.38-.65-1.38,2.31-2.69,4.66-3.94,7.03.52.06,1.03.23,1.48.53h0Z"></path><path class="cls-4" d="M349.66,671.73c-2.59-.49-3.94-3.3-3.94-5.72s1.34-5.35,3.94-5.72c5.12-.88,10.3-1.17,15.49-1.19,8.17-.2,16.34.3,24.51.3,3.91-.64,7.69.08,7.91,4.79,2.75,1.65,5.67,3.93,7.35,6.54-4.48-.46-8.99-.22-13.47-.04-13.91-.03-27.97,2.2-41.8,1.03h0Z"></path><path class="cls-4" d="M250.96,663.13c-2.48-2.5.38-5.78,3.43-5.03,1.06.24,2.31.83,3.09,1.55-.61.69-1.28,1.21-2,1.71.67.79,1.39,1.72,1.71,2.68-2.1.73-4.54.75-6.24-.9Z"></path><path d="M457.33,655.97c-3.02-.14-4.21-3.35-4.01-5.93.55-6.96,1.39-13.89,2.03-20.83,2.77-28.2,2.37-56.03,4.45-83.85,1.64-26.75.85-53.49-1.65-80.15-1.25-23.94.23-48.22-1.63-72.07-2.73-28.54,1.24-55.84-.89-84.07-.68-13.07-4.49-25.67-7.01-38.46-2.84-11.26-4.84-22.86-9.4-33.59-8.17-16.79-22.84-30.45-34.7-44.08-4.6-5.14-9.45-10.05-14.87-14.33-33.28-24.29-54.47-29.53-95.04-28.86-16.47-1.3-32.9-1.15-49.37-.22-8.68.39-17.49-.44-26.06,1.28-18.79,4.85-34.99,16.48-50.62,27.54-11.89,9.07-17.77,23.37-25.23,35.9-20.9,39.91-28.52,86.01-27.48,130.66,1.01,12.32,3.93,24.47,3.82,36.89.24,26.33.71,52.65,1.18,78.97-.18,31.36-4.19,61.67-1.72,92.86,2.99,22.42.84,44.69-2.32,66.95-.82,5.87-1.99,11.69-3.47,17.43-.05,2.09-.85,4.23-2.66,5.4-2.72,2-6.52-.16-6.64-3.5-.35-4.1,1.63-8.34,2.25-12.32,2.53-15.98,4.73-32.13,5.03-48.32-.32-17.27-3.27-34.46-2.29-51.77.43-21.62,2.01-42.96,2.45-64.2-.34-25.7-1.15-51.39-1.15-77.09.27-13.36-2.83-26.41-3.85-39.66-.63-19.35.47-38.94,3.71-58.02,5.9-39.55,20.4-77.67,43.96-110.09,11.22-12.93,26.79-21.18,41.37-29.74,13.52-8.26,29.16-11.32,44.84-10.47,9.9-.05,19.78-.91,29.68-1,12.21-.12,24.37,1.38,36.58,1.34,15.39-.43,30.83,1.61,45.53,6.2,18.46,7.14,35.3,17.08,50.03,30,7.69,7.51,14.65,15.76,21.82,23.75,6.34,6.6,12.4,13.48,17.2,21.31,10.94,15.39,13.35,34.55,17.7,52.48,6.97,25.5,7.79,53.46,6.24,79.29-1.41,26.82,2.78,53.24,1.66,79.87-.33,24.36,2.49,48.71,3.27,72.94.49,26.81-2.08,52.83-2.83,79.22-.17,15.89-1.2,30.06-2.55,45.54-.66,7.11-1.52,14.2-2.08,21.32-.2,2.65-2.4,5.65-5.28,5.51h0Z"></path><path d="M489.89,650.75c-1.32-1.53-1.38-3.44-1.29-5.35.2-4.49.49-8.95,1.28-13.37,2.36-16.37,2.55-33.43,2.19-49.89-2.46-27.94-3.34-55.9-2.36-83.93.07-13.28-.05-26.55.07-39.83-.07-21.59,2.91-42.96,4.95-64.4.81-27.59,1.14-55.42-2.23-82.86-3.15-21.94-11.34-42.62-20.1-62.83-8.87-21.49-15.48-45.92-34.49-60.92-16.59-13.63-38.39-15.64-58.63-19.87-20-4.21-38.8-13.12-59.22-15.46-22.38-2.68-44.95-4.02-67.48-4.06-8.8-.39-45.45,8.61-40.66-7.12.75-2.07,3.08-4.54,5.55-3.73,5.24,2.75,11.01,1.25,16.61.97,6.39-.27,12.75-1.21,19.13-1.55,15.66-.22,31.34.9,46.96,1.88,12.45,1.13,25.03,2.07,37.2,5.05,12.51,3.08,24.57,7.7,37.04,10.97,13.07,3.64,26.67,4.99,39.78,8.43,26.05,6.91,45.03,25.73,54.98,50.42,12.5,32.03,28.75,63.35,32.97,97.86,3.03,28.5,3.07,57.39,1.66,85.99-4.24,32.2-5.24,64.57-4.68,97.01-.97,28.12-.25,56.56,2.19,84.52.67,19.04.36,38.28-2.67,57.12-1.16,4.85.66,10.6-2.56,14.76-1.54,1.9-4.59,2.33-6.18.18h0Z"></path><path d="M457.54,663.2c-1.38-6.73,4.39-8.12,9.4-9.91,6.29-2.41,12.42-5.18,18.49-8.12,6.26-2.89,12.03-6.82,18.34-9.61,2.03-.9,4.19-.21,5.3,1.74,1.34,2.38.77,5.45-.89,7.51-5.29,4.31-12.06,6.59-17.95,10.02-5.33,2.88-10.72,5.65-16.2,8.24-1.08.52-2.32.73-3.48.53-2,.77-4.01,1.51-5.36,2-.59.24-1.2.47-1.8.73,0-.01,0-.02,0-.03-2.42,1.49-5.25-.56-5.83-3.08h0Z"></path><path d="M430.13,665.22c-15.48-.58-30.74-3.9-46.25-4.22-15.95-.4-31.96-.29-47.75-2.91-48.08-8.81-96.92-10.9-145.4-16.42-30.11-4.71-60.51-.26-90.73-2.59-6.25-.75-4.68-11.68,1.28-11.44,10.58.86,21.26.98,31.88.75,31.36-2.5,62.51,2.41,93.64,5.56,28.18,1.98,56.32,4.55,84.31,8.54,15.57,2.11,30.95,5.51,46.67,6.33,12.3.72,24.65.25,36.94,1.29,19.69,1.6,39.59,6.2,59.28,2.17,1.14-2.04,3.46-3.69,5.82-2.63,5.43,2.44,3.81,10.53-1.15,12.61-9.06,3.26-19.02,3.09-28.53,2.95h0Z"></path><path d="M460.66,374.12c-4.51-7.18,5.11-11.81,9.6-15.75,8.39-6.45,17.15-13.09,25.35-19.54,1.03-.76,1.99-1.63,3.01-2.4,6.07-3.61,8.91,6.21,4.42,9.48-8.92,8.82-17.99,17.66-29.59,22.92-3.85,2.13-8.19,10.12-12.78,5.28h0Z"></path><path d="M455.3,372.72c-.88-.04-1.77-.03-2.65-.02-.47,0-.93.01-1.39.01h-14.53c-6.28-.01-12.55-.01-18.83-.05-5.78-.04-11.58-.33-17.34-.73-6.98-.49-13.95-1.05-20.92-1.65-12.31-1.05-24.67-1.55-37.02-1.93-12.8-.4-25.59-.94-38.39-1.26-6.25-.16-12.49-.17-18.76-.06-6.35.1-12.7.3-19.05.4-12.45.19-24.92-.32-37.35-.88-12.45-.55-24.91-.63-37.37-.76-5.87-.06-11.73-.3-17.6-.45-6.55-.17-13.12-.28-19.68-.37-11.5-.16-23.02-.62-34.51-1.2-1.31-.06-2.63-.12-3.93-.16-.33-.01-.67-.01-1,0-.78.01-1.59.03-2.31-.14-2.07-.48-3.23-2.35-3.56-4.34-.4-2.51,1.08-5.41,3.38-6.51,1.19-.58,2.48-.5,3.77-.48,1.27.02,2.55.07,3.82.14,2.71.13,5.43.27,8.15.39,5.77.23,11.55.42,17.33.61,6.03.21,12.05.24,18.08.35,12.89.24,25.76.69,38.65.82,5.75.05,11.51.03,17.26.24,6.42.23,12.85.52,19.28.78,12.42.5,24.89.71,37.32.37,6.2-.17,12.41-.4,18.63-.35,6.19.05,12.38.13,18.58.36,7,.25,14.01.5,21.01.74,5.79.2,11.59.31,17.38.56,6.42.27,12.85.51,19.27.95,6.88.49,13.77,1.05,20.65,1.64,12.11,1.04,24.25,1.53,36.41,1.53h24.15c1.39,0,2.79.01,4.18.02.93.01,2.06.01,2.92.42.77.37,1.32.81,1.81,1.4l.08.07c.04.06.08.11.13.16,1.8,2.12,1.68,5.42.17,7.69-.92,1.37-2.54,2.39-4.13,2.39-.72,0-1.43-.21-2.07-.69h0Z"></path><path d="M104.49,357.63c.85-7.21,9.9-7.42,9.29.42-.85,7.21-9.9,7.42-9.29-.42Z"></path><path d="M503.73,702.69c-15.92-5.7,10.68-50.06,16.08-59.69,16.56-28.3,37.85-53.39,59.31-78.06-7.9,11.7-16.21,23.61-24.26,35.36-14.49,22.06-29,45.88-39.4,69.72-2.83,7.06-6.18,14.14-7.21,21.73,5.3,2.93,1.65,12.79-4.52,10.93h0Z"></path><path d="M520.78,678.86c-3.46-7.35,8.05-20.13,11.49-26.85,13.45-20.59,29.7-39.13,46.39-57.14.03-.03.05.02.04.04-12.85,19.44-25.75,38.84-37.78,58.8-3.83,7.14-8.27,13.95-11.68,21.3-.77,3.57-5.7,8.32-8.46,3.86h0Z"></path><path d="M498.98,641.04c-14.17-8.99,41.11-88,48.98-101.77.02-.03.05.01.04.04-12,27.66-25.56,54.6-37.92,82.1-1.48,3.71-3.08,7.41-4.07,11.29.81,4.09-2.01,11-7.04,8.35h0Z"></path><path d="M501.66,569.06c-5.11-6.61,16.45-31.76,21.01-37.8-3.95,10.18-9.11,20.66-13.43,30.23-1.65,2.88-1.64,7.75-5.57,8.44-.75.15-1.57-.28-2.01-.86h0Z"></path><path d="M532.76,705.02c-12.25-8.03,32.79-65.4,39.62-75.67-9.78,20.39-21.56,40.88-31.17,61.13-2.23,4.98-3.5,10.47-7.12,14.61-.39.23-.96.17-1.33-.07h0Z"></path><path d="M564.17,688.92c-1.94-5.05,2.54-9.5,5.23-13.26,7.86-10.29,16.81-20.28,25.8-29.35-7.66,13.43-16.43,26.34-24.83,39.27-1,2.06-4.2,6.56-6.2,3.34h0Z"></path><path d="M87.35,631.53c-1.84-.43-2.81-2.17-3.08-3.89-.18-1.19-.12-2.24.05-3.37.21-1.53.37-3.06.48-4.59.18-4.09.2-8.17-.03-12.26-.39-4.91-1-9.79-1.88-14.63-.98-4.97-2.3-9.85-3.66-14.1-1.69-5.2-3.53-10.35-5.55-15.43-2.17-5.47-4.67-10.81-7-16-5.43-11.4-10.74-22.86-16.03-34.32-.01-.03.02-.07.04-.04,3.97,5.96,7.91,11.94,11.78,17.97,3.16,4.91,6.33,9.83,9.32,14.85,7.72,12.94,14.71,26.49,18.76,41.08,2,7.19,3.14,14.68,3.59,22.12.23,3.86.15,7.75-.07,11.61-.1,1.71-.31,3.42-.61,5.11-.16.86-.33,1.67-.73,2.46-.35.7-.84,1.28-1.33,1.89-.77.98-2.01,1.64-3.27,1.64-.26,0-.52-.03-.78-.09h0Z"></path><path d="M42.65,513.09c.6,0,.45,1.1-.12,1.1-.6,0-.45-1.1.12-1.1Z"></path><path d="M64.85,628.45c.85-7.21,9.9-7.42,9.29.42-.85,7.21-9.9,7.42-9.29-.42Z"></path><path d="M64.23,637.49c-8.7-4.56-9.2-21.06-11.38-29.82-1.87-9.16-3.5-18.36-5-27.59,5.39,11.23,10.18,23.21,13.99,35.23,1.41,4.08,2.6,8.31,4.93,11.99,1.77,2.4,3.27,5.42,3.14,8.44-1.03,2-3.71,2.35-5.69,1.76h0Z"></path><path d="M62.35,636.99c-2.36-4.71-1.25-10.27-1.46-15.36,0-9.85.05-19.82.64-29.59,0,.05,0,.11-.01.16,1.46-22.21,4.8-29.43-7.03-49.96-.68-1.53-1.72-3.23-2.26-4.7,6.66,8.29,14.93,16.22,16.76,27.15,2.19,17.1.95,34.52,1.3,51.73.04,4.57-.28,9.16.11,13.72,1.26,2.5.49,5.93-1.56,7.78-2.04,1.83-5.05,1.55-6.48-.93h0Z"></path><path d="M52.83,635.6c-4.68-15.81-14.93-29.9-29.78-37.43-7.63-3.98-15.72-7.77-23.05-11.98,6.96,1.5,13.86,3.26,20.77,4.97,19.7,4.04,35.1,19.51,40.58,38.65,2.58,5.37-5.11,12.69-8.53,5.8h0Z"></path><path d="M49.12,638.01c-8.43-8.2-20.54-11-30.92-15.99-5.96-2.64-11.88-5.37-17.74-8.22,6.73.47,13.87,1.53,20.69,2.58,8.73,1.41,41.82,6.46,34.53,20.31-1.36,2.04-4.62,3.47-6.56,1.31h0Z"></path><path d="M18.39,650.74c7.17-3.11,43.64-22.86,46.26-10.67.48,1.52-1.09,2.72-2.31,3.32-1.33.61-2.74.94-4.2.84-13.31,1.08-26.58,5.2-39.75,6.5Z"></path><path d="M67.36,672.96c4.86-6.13,25.07-37.25,33.18-30.15-3.47,5.12-8.1,9.01-12.76,13.02-6.6,5.86-13.5,11.91-20.41,17.13Z"></path><path d="M113,659.37c0-7.96,5.95-20.89,15.52-16.73-7.35,2.97-9.99,11.51-15.5,16.76-.01,0-.03-.01-.03-.03Z"></path><path d="M314.55,686.4c1.77-4.15,6.11-6.55,9.4-9.43,6.9-5.29,14.32-10.54,21.68-14.85-8.1,9.8-17.12,18.79-26.07,27.79-2.89,2.66-6.24.2-5.01-3.5h0Z"></path><path d="M333.74,686.84c-2.1-4,5.04-6.69,7.77-4.28-1.05,2.4-3.45,4.79-6.27,4.46-.47.34-1.14.31-1.5-.18h0Z"></path><path d="M338.55,689.42c-4.11-6.27,17.03-16.23,22.06-16.75-3.33,3.4-6.79,6.65-10.66,9.42-3.12,2.56-7.16,3.36-9.91,5.93.8.41,1.66.72,2.51,1.02-1.03.61-2.75.61-3.99.37h0Z"></path><path d="M351.8,693.26c-.66-3.85,3.1-6.07,6.16-7.32,6.95-3.75,14.42-7.37,21.74-9.94-8.02,6.97-16.54,13.35-25.7,18.69-1.01.57-2.07-.37-2.2-1.43h0Z"></path><path d="M403.77,694.84c-3.32-23.63,26.6-48.22,41.32-64.23-3.54,5.44-7.58,10.97-11.34,16.42-8.45,12.05-17.85,23.85-22.28,38.07-.48,1.78-.87,3.58-1.19,5.4-.43,3.14-2.34,5.41-2,8.37-2.17.64-3.97-2.27-4.51-4.02h0Z"></path><path d="M440.11,694.01c-1.91-16.02,16.42-39.04,25.39-51.96-5.56,14.14-12.43,27.68-17.08,42.21-1.12,4.91-2.83,9.75-4.96,14.21-1.94-.29-2.84-2.83-3.35-4.46h0Z"></path><path d="M488.97,685.42c-1.42-4.18,2.1-8.55,6.01-9.7.15,3.02-1.08,6.32-2.89,8.52.29.31.8.5,1.04.77-.91,1.11-3.58,2.4-4.16.41Z"></path><path d="M505,688.65c-4.58-3.01,2.27-11.67,5.28-13.61-1.13,3.43-2.25,7.05-4.5,9.81-.92,1.02-1.34,2.61-.78,3.8h0Z"></path><path d="M84.66,495.97c-8.63-5.48-13.62-14.45-18.74-22.99-7.29-11.14-15.32-22.17-22.45-33.22,16.88,15.58,37.16,32.49,41.2,56.21Z"></path><path d="M68.1,516.37c-4.94-5.02-9.69-10.68-13.49-16.46,6.08,3.9,20.65,10.61,19.88,18.88-2.45.21-4.59-.62-6.39-2.42h0Z"></path></g></g></svg>