<svg xmlns="http://www.w3.org/2000/svg" viewBox="0 0 595.28 841.89" width="595.28" height="841.89"><defs><style>
      .cls-1 {
        fill: #fb0050;
      }
      .cls-2 {
        fill: #fff;
      }
      .cls-3 {
        fill: #7d002a;
      }
      .cls-4 {
        fill: #abcf10;
      }
    </style></defs><g id="Calque_2"><polygon class="cls-2" points="123.46 428.61 297.64 422.87 425.31 442.31 506.18 454.74 494.22 694.54 469.48 700.34 154.54 694.54 123.46 428.61"></polygon></g><g id="Calque_1"><g><path class="cls-1" d="M509.28,363.18c1.64,22.77,1.17,45.7.68,68.48-2.62,13.79,1.27,27.59-18.61,21.67-24.98-6.1-48.76-4.2-73.78-6.73-16.23-2.5-32.28-6.25-48.64-7.96-18.76-.68-37.31-3.06-55.47-8.02-37.18-7.86-74.7-17.85-112.95-16.75-21.46.61-41.33,10.44-62.87,10.19-.39.47-.82.91-1.27,1.29-2.71,2.31-6.42,1.26-8.93-.96-2.81-.05-5.64.49-8.37-.3-4.99-1.64-8.98-8.27-5.92-13.14,2.61-4.54,8.27-2.88,12.6-3.32,7.37-23.12,8.95-44.38,14.21-67.81,5.19-27.89,13.24-58.96,22.46-85.46,3.46-9.98,6.58-20.14,10.54-29.94,19.92-36.01,59.87-66.84,100.27-75.44,10.45-2.4,20.05-7.22,29.97-11.12,13.68-2.52,27.94-4.03,41.89-4.44,37.37,3.84,70.89,25.25,97.97,50.17,43.93,49.11,62.49,114.89,66.21,179.58h0Z"></path><path class="cls-3" d="M113.92,375.48c-5.06-7.82-3.29-17.75-3.02-26.56.46-18.9,4.89-37.16,10.22-55.16,5.19-23.35,9.25-48.43,17.02-70.92,5.3-16.68,14.86-31.52,25.51-45.23,15.72-31.8,36.38-71.39,74.36-78.73-3.41-9.37,4.49-12.96,12.6-12.09,14.08.08,27.51,4.91,41.57,4.42,3.82-1.6,8.17.6,12.01,1.47,4.44.59,8.86,1.25,13.3,1.8,13.62.44,26.78,3.73,39.68,7.93,15.97,3.83,31.81,8.11,47.3,13.61,4.11-2.79,8.78.58,11.23,4.04,17.75,6.95,33.95,18.67,46.28,33.21,8.43,10.44,13.6,22.9,19.05,35.03,8.3,18.96,20.98,36.99,22.81,58.08.81,7.03.03,14.4,1.64,21.25,2.39,7.54,12.83,27.03,1.27,30.21-11.11.6-14.17-20.69-16.07-29.06-8.27-15.89-17.3-31.36-25.83-47.1-27.37-43.26-69.51-66.1-117.55-79.15-41.31-11.04-71.43-5.55-111.2,7.5-6.43,1.22-10.03,7.06-15.43,10.28-5.82,3.82-12.91,5.18-17.86,10.38-22.19,35.65-37.94,75.23-48.92,115.71-5.62,20.64-11.63,41.18-18.02,61.6-3.03,6.54-2.53,17.46-10.18,20.21,4.6,9.27-5.77,15.77-11.8,7.29h0ZM485.38,230.07c-.29-.71-.59-1.42-.89-2.12-.06.02-.12.04-.19.06.36.69.72,1.37,1.08,2.06h0ZM408.51,149.95c-1.15-.77-2.31-1.55-3.46-2.32-.46-.14-.92-.29-1.37-.44,1.62.91,3.23,1.84,4.84,2.77ZM370.06,133.41c-.49-.28-.98-.55-1.47-.83-.44-.06-.87-.12-1.31-.17.93.33,1.85.67,2.77,1.01h0Z"></path><path class="cls-4" d="M426.35,748.68c-11.87-3.03-11.85-17.22-3.08-23.94-32.41,6.26-64.32,14.92-96.57,21.86-3.9.61-6.86-2.56-7.72-6.11-1-4.16.55-9.13,4.67-10.89,12.21-5.17,24.88-9.05,37.36-13.51-35.67-6.39-72.03-7.67-108.1-10.59,8.07-2.17,17.1-3.33,25.59-4.7,20.65-3.62,105.11-12.62,110.54,13.57,14.8-3.38,29.62-6.72,44.64-9.03,7.95-1.62,16.32-2.62,23.83,1.12,6.88,2.86,6.23,13.33.43,17.06,4.25-1.49,8.54-2.85,12.89-4.01,1.46-.39,2.92-.74,4.39-1.08-5.25-14.46,5.66-28.9,11.16-41.74,9.9-20.62,36.43-59.19,61.42-36.75,15.08-2.03,17.83,17.78,17.66,28.95-.28,4.41-1.04,8.89-1.77,13.17-3.19-1.04-5.56-3.38-7.41-6.1-1.16,1.84-2.48,3.58-3.85,5.3,2.58.27,4.81,2.27,5.79,4.96,3.76,7.49,1.04,15.66-3.53,22.13-10.79,17.53-45.15,43.31-63.72,24.31-13.11,2.79-26.06,6.03-38.54,11.02-8.35,3.08-17.01,6.74-26.07,5.01h0Z"></path><path class="cls-4" d="M198.86,730.79c-7.16-.53-14.23-1.79-21.31-2.94-3.72-.6-7.42-1.24-11.11-1.95-9.24,5.69-20.83,1.6-30.41-1.24-49.08,9.93-100.48-33.96-75.52-84.1,8.11-18.07,26.81-38.39,48.51-32.74,3.77-4.94,9.65-6.82,15.21-8.93,5.78-2.12,8.74,4.88,11.39,8.7,2.53-1.99,6.23-1.72,8.34.78,5.04,4.47,8.15,10.93,6.63,17.76,11.76-1.05,15.61,2.99,14.97,14.7-2.01,12.29-9.9,22.83-14.77,34.17.22.47.42.94.62,1.42,11.63,3.66,19.05,14.48,15.87,26.66,1.66,1.78,3.08,3.79,4.17,6.1,10.89,1.69,21.77,4.23,32.83,4.32,3.09-7.5,11.5-4.42,17.23-2.3,9.34,2.95,18.35,6.87,26.97,11.53-10.77,2.03-22.32,3.18-33.44,2.62-3.27,5.84-10.27,6.02-16.19,5.44h0ZM107.79,706.95c-2.27-1.66-4.06-3.99-5.4-6.6-2.52.73-5.11,1.56-7.66,2.21,3.23,1.44,6.51,2.63,9.9,3.63,1.06.27,2.11.53,3.17.76h0ZM81.84,685.07c.29-.16.57-.31.86-.48,0-.25-.01-.49-.02-.74-.29.4-.57.8-.84,1.22h0ZM69.64,676.4c3.2-5.84,8.06-10.75,13.15-15.05,1.46-1.23,3-2.38,4.61-3.44,3.13-11.5,6.86-22.87,12.11-33.58-20.22,4.7-36.14,32.28-29.87,52.08h0ZM128.62,675.09s0,0,0,0c1.05-.19,2.11-.33,3.18-.43,0,0-.02-.02-.03-.03-.6-.55-1.2-1.07-1.82-1.57-.44.68-.88,1.36-1.33,2.03h0ZM140.61,661.12c.13.13.26.26.39.39,1.39-2.76,2.75-5.53,4.11-8.32,1.35-2.76,2.71-5.52,4.05-8.29-5.79,2.94-8.63,8.18-11.09,13.91.87.73,1.72,1.5,2.54,2.31Z"></path><path d="M489.74,698.34c-4.08-2-4.76-7.15-4.26-11.18.54-10.53,1.45-21.04,2.25-31.55,2.27-44.69,9.45-88.92,12.99-133.51,1.26-18.29.58-36.56-.05-54.86-.55-56.55,1.42-113.61-7.34-169.68-7.5-45.17-22.14-60.67-52.37-92.52-9.01-9.66-16.17-19.17-26-27.45-23.47-18.38-52.4-28.42-82.22-28.43-17.16.72-34.47,1.49-51.42,4.3-19.51,5.6-39.84,10.11-57.73,20.01-27.04,14.4-45.29,39.94-57.39,67.36-6.55,15.48-9.18,32.25-12.74,48.59-5.3,25.42-11.08,50.75-16.56,76.13,0-.01,0-.02,0-.04.03-.18.06-.36.09-.58-3.8,20.68-7.17,41.54-4.31,62.33,17.33,6.54-15.02,47.97-15.16-10.05-.78-37.33,10.36-73.27,17.73-109.45,6.07-25.49,9.03-52.07,19.63-76.23,13.5-29.48,33.44-57,62.4-72.77,9.14-5.57,19.15-9.51,29.38-12.53,21.54-7.35,43.42-12.93,66.3-13.2,20.31-2.33,40.78-.78,60.63,4.08,20.98,5.82,40.9,17.34,56.94,32,13.8,14.79,26.98,30.01,40.48,44.44,38.87,40.18,40.35,100.13,42.45,152.83,2.29,46.93,1.03,93.98,2.05,140.94-1.48,39.02-7.77,77.64-11.5,116.47-1.51,18.35-2.43,36.77-3.94,55.14-.38,7.37.19,21.37-10.33,19.38h0Z"></path><path d="M468.19,711.35c-26.83-3.6-53.87-2.35-80.82-2.01-28.63-1.36-56.96-6.66-85.68-6.98-41.58-.67-83.13,1.33-124.69-.23-9.25-.6-22.9,4.83-29.06-4.22-3.17-8.72-.82-18.6-1.29-27.73,0-8.17-.12-16.31-.47-24.47-2.66-28.23-6.22-56.41-11.19-84.34-9.02-43.18-15.17-86.45-16.73-130.53-.35-6.32-.9-12.63-1.84-18.89-1.16-2.99-.68-6.57,1.12-9.28,2.12-3.19,6.92-5.22,10.01-2.02,5.11,7.3,3.48,17.4,4.75,25.91,1.1,20.73,2.2,39.24,4.62,59.44,9.1,66.41,27.02,132.1,23.66,199.69,19.72-1.57,39.43-.45,59.18,0,18.75-.01,37.47-.85,56.21-.83,38.23-1.44,76.04,4.77,114.03,7.19,25.2-.58,50.41-1.4,75.52,1.47,7.47.32,14.55,1.63,12.73,11.1-.98,4.59-5.33,8.12-10.05,6.71h0Z"></path><path d="M121.66,482.96c-8.71-37.59-11.08-77.82-12.77-116.38.47-44.1,7.41-88.65,20.23-130.85,7.23-20.54,13.5-41.49,22.46-61.35,13.17-25.29,31.7-47.59,50.68-68.72,25-27.86,63.02-31.27,98.01-27.5,28.07,2.19,56.34,4.46,82.74,15.03,39.78,13.2,75.99,38.74,101,72.41,13.53,21.6,18.2,47.02,26.13,70.91,9.4,26.26,10.29,54.09,10.88,81.68,1.53,46.93-1.35,94.77-19.03,138.81-3.83-23.95,2.02-59.99,4.67-87.86.25-44.58,3.25-90.47-12.28-133.07-8.42-28.97-15.59-59.47-40.09-79.46-28.78-29.11-66.52-46.22-105.85-55.56-28.22-4.26-57.15-7.25-85.69-6.37-34.61,1.07-56.68,26.16-75.71,52.07-6.75,8.91-13.6,17.81-19.29,27.46-8.62,15-13.36,31.75-19.11,47.97-15.77,41.9-22.85,86.71-25.57,131.26-.47,25.31,2.15,50.47,4.75,75.62,1.9,15.06,2.9,30.49,6.75,45.17,3.8,8.04-7.61,19.3-12.89,8.75h0Z"></path><path d="M493.61,460.2c-42.22-.47-82.39-14.41-123.35-22.6-31.37-3.73-63.1-.85-94.55-3.61-21.01-1.34-41.95-4.5-62.97-4.77-11.74.77-23.3,3.31-35.06,4.03-14.91.94-29.89.19-44.82.8-9.78,6.64-14.42-9.31-6.94-14.77,2.93-2.61,7.33-2.59,11.01-2.64,13.51-.06,27.01-.1,40.51-.59,13.45-.83,26.64-4.02,40.13-4.2,21.63,1.07,43.19,3.66,64.81,5.25,23.2,1.62,46.54.6,69.77,1.62,20.34.34,40.13,5.01,59.56,10.66,19.27,5.27,39.96,8.84,59.37,11.81,10.35,1.85,21.66.19,31.61,2.96,8.12,6.57.75,18.65-9.1,16.05h0Z"></path><path d="M500.48,724.87c-2.01-2.11-2.56-7.05-2.47-9.27-1.11-17.46,1.57-35,5.28-52.02,7.47-41.92,24.64-80.94,44.58-118.29.03-.06.09-.02.08.03-15.45,41.31-28.09,84.87-33.52,128.44-1.78,14.54-3.13,26.71-2.22,40.67,2.13,7.11-4.96,17.5-11.72,10.44Z"></path><path d="M513.9,715.11c-12.6-7.58,8.72-46.32,12.59-57.71,12.28-27.53,25.32-54.71,38.81-81.68-9.6,30.03-20.58,60.41-31.58,90.22-3.76,11.26-8.12,22.32-11.53,33.54-1.09,5.81-4.59,10.52-7.54,15.28.19.36-.49.44-.76.35h0Z"></path><path d="M461.18,698.19c-3.19-2.99-3.02-8.57-.65-11.98,12.09-30.66.64-64.74-10.36-94.1-2.17-6.22-4.31-12.44-6.45-18.66,3.93,5.86,7.77,12.81,11.56,19.11,16.87,25.99,27.66,57.3,21.69,88.44-1.27,7.15-5.99,23.62-15.79,17.18h0Z"></path><path d="M454.71,705.35c-10.61-24.85-15.47-52.68-21.88-78.74,8.73,15.94,16.59,32.4,23.27,49.31,3.64,10.57,9.52,20.75,9.48,32.17.07,1.27.28,2.44.42,3.58-4.59,1.2-8.88-2.92-11.29-6.32Z"></path><path d="M83.93,703.6c-6.13-6.27-.7-16.02-1.11-23.73,3.08-39.38-15.84-75.4-31.7-110.17-5.41-12.19-11.45-24.54-16.61-36.64,31.8,46.38,71.68,96.92,61.37,156.73-.36,2.97-.38,6.23-1.43,9.07-1.43,4-6.65,8.4-10.53,4.75h0Z"></path><path d="M110.92,707.8c-3.79-10.53-1.1-22.28-2.61-33.27-2.91-29.13-9.57-57.87-16.67-86.23,5.97,9.56,10.19,20.91,14.55,31.53,6.85,17.04,12.99,34.53,15.44,52.81.69,12.21,3.67,25.18.11,37.01-2.87,5.36-8.88,2.8-10.82-1.85h0Z"></path><path d="M73.28,705.07c2.75-2.46,6.2-.85,8.92.58.32.15.47.59.47.92-1.21,5.8-8.59,3.5-9.39-1.5h0Z"></path><path d="M53.35,685.57c.46-4.16,3.5-8.33,7.99-8.33s6.48,5.23,6.05,8.96c-.46,4.16-3.5,8.33-7.99,8.33s-6.48-5.23-6.05-8.96Z"></path><path d="M41.81,654.67c-1.58-1.43-2.99-3-4.22-4.75-1.55-2.21-2.47-4.75-3.28-7.31,0,0,.01,0,.02-.01-.19-1.44-1.41-3.15.72-1.07,3.67,3.36,5.9,8.35,6.78,13.16,0,0-.02,0-.03-.02h0Z"></path><path d="M135.01,747.11c-5.43-2.7-8.6-8.28-11.8-13.2-8.69-14.71-16.24-30.6-23.92-45.61,18.3,17.16,34.54,37.28,46.96,58.91-2.75,2.51-7.88,1.32-11.24-.11h0Z"></path><path d="M209.28,750.25c-3.36-1.36-4.47-5.34-4.53-8.65-13.47-24.32-5.26-53.04.67-78.43,1.66,16.14,1.38,32.6,4.25,48.72.78,4.32,2.54,10.35,4.35,13.84,2.93,5,5.76,10.45,4.76,16.49-.59,4.65-4.58,9.83-9.51,8.02h0Z"></path><path d="M267.21,726.57c-21.41-13.07,7.36-67.79,15.88-84.53-6.21,28.25-12.08,56.37-15.88,84.53Z"></path><path d="M326.6,714.45c-17.83-8.12,13.88-41.41,20.9-50.28,3.69-4.26,7.61-8.98,11.44-12.8-7.84,14.61-16.65,28.75-24.96,42.94-2.61,4.84-4.53,8.73-6.28,13.7,0,2.99,4.19,2.39,6.17,3.55-2.1,1.06-4.7,3-7.27,2.9h0Z"></path><path d="M374.61,744.03c-8.06-20.73,38.85-61.09,53.06-75.06-15.1,23.97-34.3,46.64-45.62,72.72.58.43,1.17.95,1.68,1.4-.19.87-1.18,1.65-1.74,2.31-2.03,2.4-6.09,1.21-7.37-1.37h0Z"></path><path d="M46.73,708.5c-6.93-8.05-7.54-19.43-9.54-29.44-3.23-20.04-5.92-40.53-7.37-60.59,8.6,22.08,15.74,44.64,22.25,67.41,1.1,3.01,1.79,6.28,3.57,8.98,2.92,1.97,4.04,5.71,3.19,9.05-.86,5.47-7.88,9.03-12.09,4.6h0Z"></path><path d="M135.74,636.54c-1.99-1.87-2.2-4.69-2.24-7.22-.09-6.11.38-12.18.93-18.26.61-6.81,1.3-13.64,2.09-20.43,1.79-15.47,4-30.88,6.48-46.25,0-.05.08-.06.08,0,.64,14.82.99,29.65.99,44.49,0,6.63-.06,13.24-.2,19.85-.11,5.29-.33,10.6-.32,15.9,0,3.25.38,6.2-.86,9.3-.53,1.35-1.47,3.12-2.97,3.61-.39.12-.78.18-1.16.18-1.02,0-2-.41-2.8-1.16h0Z"></path><path d="M135.05,531.62c1.28-10.9,14.97-11.22,14.05.64-1.28,10.9-14.97,11.22-14.05-.64Z"></path></g></g></svg>