<svg xmlns="http://www.w3.org/2000/svg" viewBox="0 0 595.28 841.89" width="595.28" height="841.89"><defs><style>
      .cls-1 {
        fill: #fb0050;
      }
      .cls-2 {
        fill: #fff;
      }
      .cls-3 {
        fill: #7d002a;
      }
      .cls-4 {
        fill: #abcf10;
      }
    </style></defs><g id="Calque_2"><polygon class="cls-2" points="113.61 399.99 137.63 407.72 155.57 423.34 222.49 416.34 312.16 420.94 376.65 427.83 523.3 432.46 506.96 584.85 492.24 712.42 200.59 715.51 131.91 714.43 101.02 687.81 101.02 590.61 113.61 399.99"></polygon></g><g id="Calque_1"><g><path class="cls-1" d="M518.82,349.02c4.95,9.17,6.23,19.79,5.63,29.88-.08,1.48-.16,2.97-.25,4.41-.38,6.37-1.31,12.72-1.82,19.08-.12,2.05-.23,4.08-.22,6.13.01,2.44.1,4.86.2,7.29.09,2.23.15,4.46.17,6.68v2.54c.86,1.39,1.34,3.04,1.3,4.68-.03,1.65-.23,3.49-1.03,4.97-.89,1.61-2.43,2.97-4.24,2.97-.44,0-.88-.08-1.35-.25-2.54-.95-3.34-3.61-3.78-6.02-2.48,1.76-5.79,2.12-8.83,1.39-36.79-2.02-73.68.16-110.48-1.22-20.56-.51-40.97-2.99-61.3-6.03-9.87-1.45-19.72-3.27-29.73-3.04-28.86.77-58.59.16-87.1-3.8-14.06-1.58-28.08,2.06-42.17,1.47-2.64,0-5.51-.31-8.13-1.07-.83.35-1.68.45-2.57.25-2.04-.5-3.14-1.93-3.74-3.72-1.71-1.69-2.72-3.96-2.56-6.92.52-1.64,1.03-3.29,1.57-4.94.05-.06.1-.12.15-.18v-.28c4.4-13.69,9.27-27.32,14.93-40.53,4.36-11.41,9.09-22.65,13.71-33.94,3.75-9.8,7.3-19.74,13.49-28.34,15.43-20.93,33.02-41.07,53.86-57.05,5.06-4.17,10.19-8.2,15.54-12,3.22-2.99,10.54-5.13,12.06-10.06,3.22-.86,8.29-1.89,12.76-3.66.21.1.43.23.62.37.77-.13,1.53-.25,2.3-.37,3.82.61,7.7.97,11.52,1.05,7.38-.05,14.65-1.61,21.88-3.02,1.5-.4,3.03-.68,4.57-.88.29.42.52.86.69,1.33,11.4.04,22.84.02,34.2.88-1.24-1.55-1.61-3.78-1.19-5.74-3.28-.42-6.61-1.35-9.49-2.87,3.97-2.65,9.06-5.7,13.96-4.6,1.71.88,2.51,2.06,2.65,3.21.72.06,1.45.15,2.17.27,4.42-3.72,12.02-2.46,17.05-.55,3.86.54,7.82,1.15,10.93,2.03,6.37,1.77,16.58,3.18,15.37,12.03,5.91,2.52,10.99,6.55,16.79,9.27,3.51,1.57,8.72,1.98,8.84,6.9,1.48,1.08,2.94,2.21,4.37,3.34-.65-.84-1.12-1.81-1.45-2.83.16-.13.51-.09.74-.14,3.24-.46,6.66,2.11,8.59,4.55-1.54.82-3.51,1.33-5.19.61,9.08,7.49,17.37,15.8,25.96,23.82-1.68-1.81-3.19-3.79-4.68-5.76-3.23-4.31-6.07-8.92-8.69-13.63-.01-.02,0-.06.03-.04,6.2,3.17,11.88,7.19,16.57,11.61,1.55,1.46,3.16,2.94,3.66,5.09.25,1.1.41,2.28.03,3.3,1.91.79,3.52,2.93,3.92,5.17,1.06,3.58,2.29,7.08,3.62,10.55-.35-2.35-.69-4.7-1.04-7.05,0-.02.02-.05.04-.03,3.74,3.09,6.61,6.8,9.01,10.99,1.23,2.15,2.26,4.42,3.23,6.68.44,1.02.79,2.09,1.14,3.14.46,1.4.69,2.69.61,4.15-.07,1.29-.4,2.32-.93,3.47-.43.92-1.25,1.65-2.17,1.99,1.1,2.59,2.19,5.2,3.22,7.82,3.94,8.88,5.2,18.26,6.13,27.72,1.53,2.43,2.99,4.92,4.36,7.46h0Z"></path><path class="cls-3" d="M416.82,221.58c.15-7.68,9.19-7.67,9.34,0-.15,7.68-9.19,7.67-9.34,0Z"></path><path class="cls-3" d="M418.08,225.18c-5.85-2.16-3.18-13.84,3.37-10.87,5.9,2.2,3.11,13.88-3.37,10.87Z"></path><path class="cls-3" d="M373.51,205.9c.15-7.68,9.19-7.67,9.34,0-.15,7.68-9.19,7.67-9.34,0Z"></path><path class="cls-3" d="M127.39,398.09c.37.19.74.38,1.1.59-.75-1.16-1.42-2.38-1.68-3.7-.07-.4-.12-.81-.14-1.22-.33,1.14-.66,2.29-.98,3.42.57.3,1.14.6,1.7.9h0ZM359.34,207.18c-1.2,2.17-3.17,3.8-5.36,4.95-5.75,2.19-12.09,1.92-18.21,2.73-1.54.2-3.07.49-4.57.88-7.23,1.41-14.49,2.97-21.88,3.02-3.82-.08-7.7-.45-11.52-1.05-.69-.11-1.38-.22-2.07-.35-.28.12-.57.23-.85.35-4.48,1.76-9.54,2.8-12.76,3.66-1.52,4.92-8.84,7.07-12.06,10.06-5.35,3.8-10.47,7.83-15.54,12-20.84,15.98-38.44,36.13-53.86,57.05-6.19,8.6-9.74,18.54-13.49,28.34-4.63,11.29-9.36,22.54-13.71,33.94-5.66,13.22-10.53,26.84-14.93,40.53-.06.16-.11.31-.15.47-.54,1.65-1.05,3.3-1.57,4.94-.62,1.96-1.22,3.9-1.81,5.85-.7,2.85-3.16,6.4-6.49,5.12-1.36-.61-2.43-1.56-3.44-2.6-.88.36-1.88.42-2.81.07-.46-.17-.85-.41-1.2-.7-2.92,1.27-5.59-1.21-8.03-2.53-5.39-3.77-12.8-5.33-16.88-10.64-1.83-3.57.21-7.33,1.03-10.88,1.61-5.69,3.01-11.46,4.72-17.12,4.04-13.12,8.21-26.33,14.96-38.36,2.92-12,8.96-23.2,14.91-33.97,7.03-11.18,13.84-22.76,23.66-31.74,7.28-10.58,16.26-19.98,27.96-25.8,4.41-2.71,8.84-5.4,13.32-8.02-.25-.71-.41-1.53-.43-2.47.1-4.87,3.77-6.65,6.48-5.34,1.18-4.81,6.6-5.2,8.47-1.15-.07-.39-.11-.83-.12-1.29.13-6.71,7.04-7.56,8.89-2.55,1.07-.55,2.15-1.08,3.23-1.62,9.71-3.84,19.35-8.04,29.29-11.22,7.79-2.21,16.19-2.94,23.27-7.16.81-1.11,1.9-1.94,3.27-2.25,2.57-.57,4.61,1.83,5.17,4.08.17.97.17,1.87.03,2.71,12.47-3.6,25.78-4.68,38.53-6.76,3.22-.18,6.48-.96,9.69-.26,2.83.72,5.35,2.57,6.87,5.05h0Z"></path><path class="cls-4" d="M489.72,760.46c-9.01-.34-19.37-3.51-22.82-12.72-13.94,1.02-27.83.37-41.7-.37-14.1-.5-28.71-.69-41.26-7.91-6.67-3.43-1.7-12.56,2.6-15.93,3.07-1.95,6.58-2.6,10.14-3.01,18.4-2.52,37-4.01,55.58-3.06,5.29.33,10.61.78,15.76,2.09,5.82-.22,11.65-.39,17.47-.64,3.07-3.38,6.31-6.58,10.26-8.93.38-1.66.92-3.28,1.47-4.89.54-1.59,1.15-3.14,1.82-4.68-7.23-7.61.16-37.46,12.42-23.12.64-.86,1.34-1.67,2.12-2.41,1.07-1.02,2.35-1.87,3.71-2.36,1.86-4.93,2.89-11.78,8.37-13.92,2.2-.73,4.99-.13,6.47,1.73,5.6-3.68,14.01-.61,16.96,5.12,2.19,4.92,2.73,10.37,2.95,15.7,25.78,7.23,29.81,39.69,7.98,54.11.66,6.89-4,12.3-10.8,13.03-7.38,10.2-22.15,11.25-33.41,8.02-8.41,2.61-17.21,4.57-26.07,4.14h0ZM553.62,726.15c15.72-8.2,14.75-27.75-2.6-33.19-.63,3.42-1.57,6.79-2.78,10.05,4.95,2.79,7.58,8.82,5.18,14.15.07.27.13.54.19.8.59,2.73.46,5.44-.16,8.08.06.04.13.07.19.11h0ZM540.19,717.92c.5-.39.99-.8,1.46-1.23.21-.22.42-.45.62-.67-.07-.09-.14-.19-.21-.28-.07-.08-.13-.15-.2-.23-.54.81-1.1,1.62-1.67,2.41h0ZM538.98,700.14c.53-1.31,1.01-2.64,1.46-3.98.52-1.77.97-3.56,1.35-5.37-3.61-.27-7.27-.19-10.79.68.56,1.09.8,2.39.92,3.55.13,1.25,0,2.47-.28,3.66,2.55.08,4.87,1.35,7.35,1.46h0ZM533.1,676.08c-.16,1.1-.36,2.2-.58,3.3.03,0,.07-.01.1-.02,3.29-.5,6.63-.54,9.94-.2-.33-2.45-.4-5.02-1.33-7.32-2.54-2.33-5.73-1.36-7.66,1.19-.15,1.02-.32,2.04-.47,3.06h0Z"></path><path class="cls-4" d="M108.4,753.48c-13.79-1.76-39.08-4.43-42.41-20.82-1.69-6.23,1.39-12.51,6.48-16.16-.89-1.65-1.55-3.43-2.04-5.24-.08-.03-.15-.06-.22-.1-.16-.1-.31-.21-.45-.33-4.24,7.04-10.38,15.41-19.67,14.08-2.38,3-5.79,4.68-9.36,5.81-3.47,1.42-6.05-2.59-6.02-5.59-.8-6.83,2.59-12.68,6.23-18.15.15-5.62.9-11.22,1.96-16.73-1.29-6.4-.54-13.29,2.36-19.17,1.46-3.16,3.37-6.02,5.67-8.61,4.27-7.98,10.63-17.26,20.15-18.85,20.49-1.18,30.73,31.65,20.64,46.72,5.13,4.3,5.38,11.9,4.56,18.1,9.32-.54,19.17,1.8,26.23,8.18,8.91-1.54,19.57-1.75,26.89,4.32,8.97-7.69,19.04-15.48,31.42-15.48,13.58-.18,28.75,4.36,37.51,15.24,5.47,1.88,10.33,10.26,4.4,14.39-3.24,1.52-4.14,5.47-7.46,6.98-7.17,3.14-15.33,2.66-23,3.5-3.06,4.94-9.17,5.26-14.4,5.36-23.05,1.8-46.41,5.99-69.47,2.54h0ZM91.11,737.18c.05-.63.14-1.27.29-1.9-.94-.5-1.86-1.03-2.78-1.55-2.5-1.43-4.81-3.09-6.92-5.01-.65.77-1.14,1.7-1.43,2.67,2.48,3.53,6.7,5.19,10.83,5.78h0ZM118.7,731.53c.49-.65.38-1.57.32-2.34-.76.19-1.52.38-2.27.59-.12.04-.24.07-.36.11-.04.57-.13,1.14-.26,1.69.86,0,1.72-.02,2.58-.05h0ZM128.35,731.22c2.32-.06,4.63-.12,6.95-.18,1.04-.03,2.07-.05,3.11-.08.73-.78,1.48-1.54,2.25-2.29-4-1.22-8.27-1.53-12.42-1.16.16,1.22.2,2.46.12,3.71h0ZM139.5,730.94c1.65-.04,3.3-.08,4.94-.11-.64-.68-1.44-1.22-2.3-1.59-.89.56-1.77,1.12-2.64,1.7h0ZM157.1,730.78c.12,0,.24,0,.36,0,5.08-3.2,10.89-4.75,16.79-5.62,8.72-1.87,17.46-3.84,26.34-4.8-17.74-9.11-32.34-7.49-48.71,3.19.52.67.99,1.38,1.41,2.13.92,1.64,1.54,3.33,1.85,5.07.65,0,1.3.01,1.95.02h0ZM98.01,725.98c.47-.37.95-.71,1.44-1.03.19-.12.38-.24.57-.35-1.97-.53-4.01-.76-6.04-.64,1.06.59,2.14,1.14,3.23,1.67.27.12.53.23.8.34h0ZM81.48,711.49c.93-.33,1.87-.63,2.83-.9.44-.13.89-.25,1.33-.37,1.7-2.92,2.02-6.59,1.24-9.85-.22-.23-.49-.43-.76-.6-4.63,1.5-6.24,7.43-4.65,11.72h0ZM53.79,688.7c1.83-2,3.85-3.72,6.22-5.15.15-.09.31-.18.46-.28,1.8-5.47,3.1-10.69,4.13-16.32-2.83-.09-5.31,1.59-6.11,4.3-2.03,5.59-5.14,11.4-4.69,17.45h0ZM77.12,662.42c2.02,3.24,2.7,7.04,2.83,10.81.61-.36,1.25-.68,1.94-.96,1.16-.47,2.93-.85,4.23-.58-1.56-6.28-4.8-14.75-11.82-16.25.06.2.12.4.18.6.3,1.03.42,2.16.44,3.28.86.96,1.59,2.03,2.19,3.09h0Z"></path><path d="M488.75,719.85c-1.41-2.31-.73-4.88-.37-7.37.71-5.71,1.52-11.42,2.02-17.16,2.09-25.84,2.67-50.62,6.39-76.01,2.95-24.45,4.98-49.02,9.26-73.3,2.7-16.38,6.58-32.55,8.37-49.06,2.53-23.33,2.11-46.81,2.25-70.24.12-13.06.27-26.21-1.71-39.14-2.1-13.59-4.97-25.63-6.57-39.04-1.79-12.1-3.74-23.01-6.14-34.7-2.95-14.12-5.84-28.73-14.05-40.88-26.25-37.77-75.73-50.6-119.42-52.74-22.12,1.17-44.36,1.6-66.26,5.2-9.31.89-18.46,2.96-26.83,7.26-17.89,7.96-31.49,22.56-45.63,35.67-19.63,21.2-35.61,46.54-47.73,72.66-13.51,28.94-19.64,60.46-25.62,91.64-5.44,29.07-2.44,58.79,1.61,87.84,3.6,38.03-1.89,76.37-7.58,113.95-2.76,17.9-4.79,35.9-7.21,53.84-1.16,7.82-2.18,15.84-1.75,23.63-.62,2.64-2.94,5.2-5.87,4.61-7.34-2.02-2.29-18.9-2.3-24.59,3.61-30.33,8.35-60.5,12.54-90.74,2.45-22.75,4.56-45.67,3.68-68.57-1.76-19.08-5.1-38.01-5.44-57.21-.86-18.97,1.5-37.85,5.41-56.39,4.04-18.52,7.39-37.31,13.52-55.27,7.18-20.96,16.36-41.37,28.19-60.14,13.94-22.08,29.57-42.87,49.82-59.58,9.27-8.47,19.16-16.41,30.69-21.59,8.82-4.45,18.31-7.31,28.16-8.21,22.24-3.67,44.78-4.25,67.26-5.48,51.31,1.35,113.47,19.36,135.65,70.26,12.09,35.27,14.89,73.49,21.85,109.95,2.13,19.57.91,39.26,1.13,58.9.54,31.67-3.11,63.1-9.85,94.02-4.64,25.22-6.82,50.78-9.84,76.24-2.19,16.9-4.04,34.02-4.72,50.99-.8,14.65-1.85,29.29-3.89,43.82-.4,2.85-.61,5.78-2.87,7.83-1.94,1.79-4.73,1.42-6.14-.88h0Z"></path><path d="M169.04,725.24c-9.64-.09-19.14-1.54-28.6-3.21-5.45-.86-14.3-1.97-11.58-9.68.84-2.32,3.64-4.96,6.29-3.57,13.38,3.77,27.59,5.13,41.5,4.81,9.95-.55,19.79-2.13,29.7-3.04,14.49-1.63,28.98.55,43.44,1.32,24.14,1.06,48.31-.58,72.47-.48,25.26-.81,50.41-4.28,75.69-4.16,17.51.31,34.92,2.94,52.46,1.99,15.49-.96,31.04-1.06,46.53-1.31,5.1.62,5.11,8.2,1.32,10.63-4.24,1.99-9.36.77-13.92,1.08-15.3-.11-30.56,1.35-45.85,1.34-15.9-.04-31.67-2.59-47.57-2.19-28.02.87-55.92,4.52-83.99,4.35-16.75-.01-33.49.92-50.24.68-14.38-.23-29.38-2.73-43.63-2.2-14.72.69-29.25,3.8-44.02,3.66h0Z"></path><path d="M109.25,702.27c-1.6-.38-2.59-1.58-3.05-3.02-4.45-9.01-8.03-18.49-9.92-28.39-4.03-26.9-2.3-54.4.63-81.33,2.51-19.62.99-39.66,2.14-59.3,1.32-26.53,4.4-52.88,6.73-79.33.81-13.37.36-26.82,2.51-40.08,6.36-36.16,17.63-71.55,32.01-105.27,14.29-25.63,33.02-49.3,58.24-64.85,15.59-10.99,30.35-23.74,48.34-30.7,29.45-10.55,61.22-9.6,92.09-9.89,27.5.21,58.82-10.92,82.68,7.91,10,8.71,19.25,18.23,30.79,25.04,6.34,4.26,12.91,8.45,18.22,14.01,10.32,11.99,18.64,26.12,26.85,39.44-13.04-9.91-23.87-22.25-36.05-33.08-10.89-8.69-23.47-15.16-33.73-24.66-23.76-27.84-49.17-19.55-81.04-17.29-33.15.83-67.43-1.67-99.1,9.97-17.97,7.58-32.44,20.8-48.48,31.51-21.29,13.53-36.85,33.94-49.5,55.44-5.9,9.88-8.38,21.24-12.54,31.88-8.7,22.72-14.77,46.29-19.3,70.17-2.84,17.88-1.45,36.06-3.79,54.01-2.21,21.98-4.42,44.27-5.56,66.26-.81,13.96-.04,27.89-.75,41.84-.67,13.08-2.44,26.06-3.43,39.11-1.03,18.47-1.57,37.56,1.3,55.74,1.53,8.1,4.54,15.82,7.95,23.3,3.25,3.93,1.93,12.33-4.24,11.56h0Z"></path><path d="M512.54,438.19c-12.39-4.87-26.08,1.39-38.94-1.16-27.89-2.95-55.88-2.53-83.85-3.77-18.49-.1-36.57-4.08-54.91-5.66-28.06-1.09-56.19-.08-84.16-2.85-14.41-.31-28.76-1.19-43.14-2.3-16.59.49-33.3,1.66-49.75,3.78-1.23.3-2.44.64-3.63,1.07-.94,1.07-2.16,1.8-3.74,1.8-4.39-.39-4.86-6.48-2.66-9.46,1.81-2.77,5.09-3.72,8.12-4.5,5.46-1.41,11.13-1.65,16.73-2.03,12.59-.63,25.14-2.6,37.76-2.16,18.89,1.87,37.88,1.57,56.77,3.4,32.58,2.15,65.52-.91,97.78,5.4,24.63,3.04,49.45,2.26,74.19,3.18,15.85.7,31.66,2.83,47.51,2.98,9.24-.15,28.54-4.77,32.76,5.05,1.15,3.96-2.6,8.9-6.84,7.22h0Z"></path><path d="M149.11,427.51c-9.98-4.83-16.2-14.44-24.89-21-8.64-1.36-4.58-16.82,3.75-11.29,2.94-.08,5.23,2.14,7.46,3.77,6.79,5.86,13.13,12.33,19.25,18.88,3.16,3.61-.5,11.69-5.57,9.64h0Z"></path><path d="M123.62,710.39c-6.27-2.44-11.1-7.87-17.46-10.37-7.31.56-6.5-12.34.34-12.2,4.62,1.1,8.73,4.05,12.79,6.46,4.56,3.11,10.2,6.19,10.87,12.27.12.8.2,1.68.06,2.49-.79,1.97-4.82,1.77-6.6,1.36h0Z"></path><path d="M511.37,728.79c-6.08-5.37,1.88-28.72,3.38-36.36,4.09-15.44,9.15-30.77,15.7-45.35,7.43-16.2,17.36-31.04,27.11-45.91.02-.03.05.01.04.04-10.16,20.76-20.27,40.82-26.52,62.91-4.74,17.97-9.88,35.95-12.3,54.42,2.76,4.5-1.83,13.2-7.43,10.26h0Z"></path><path d="M518.71,732.82c-9.65-7.96,3.02-30.5,6.56-40.06,8.39-18.63,19.56-35.8,31.6-52.26,2.57-3.48,5.22-7.38,7.81-10.6-10.14,19.79-20.99,39.48-29.3,60.02-3.36,8.37-6.51,16.83-9.12,25.48-1.65,6.15-2.96,12.69-7.54,17.44,0,0-.01,0-.02,0h0Z"></path><path d="M535.14,733.88c-11.75-5.25-1.21-24.7,3.21-32.38,7.34-13.04,18.11-23.55,29.62-32.92,3.73-3.07,7.74-6.38,11.62-8.95-3.3,3.59-6.48,7.26-9.67,10.94-15.07,17.12-30.33,37.43-33.76,60.16.39,1.1,1.2,2.05,2.09,2.62-1.04.57-1.97.82-3.1.53h0Z"></path><path d="M555.43,736.85c-7.3-5.79,19.48-22.65,24.12-25.89-7.07,8.33-14.16,17.55-22.5,24.77.1.16.3.3.34.48-.53.43-1.24,1.02-1.96.64h0Z"></path><path d="M569.68,751.24c-4.06-3.17-.2-9.2,2.56-12,.53,3.19-.6,6.33-.94,9.48.8.58,1.9.77,2.67,1.24-1.03.75-2.85,1.95-4.28,1.29h0Z"></path><path d="M382.34,743.2s-.01-.03,0-.05c-.24-14.46,8.71-26.62,13.91-39.58,4.56-11.11,7.72-22.79,10.17-34.53.67,14.76-.92,30.4-6.14,44.48-4.35,10.51-7.23,23.89-17.95,29.68h0Z"></path><path d="M188.85,758.99c-3.75-1.61-4.99-5.67-5.84-9.34-1.2-4.62-2.2-9.29-3.17-13.97-4.68-23.96-9.57-48.35-14.01-72.15,10.34,23.66,18.64,48.08,24.25,73.25.89,5.14,2.99,10.1,3.42,15.26.03,2.29-.47,4.43-1.01,6.61-.87.91-2.59.83-3.64.32h0Z"></path><path d="M209.75,741.87c-16.44-21.86-14.57-51.12-11.84-76.88,2.13,15.36,3.29,31.53,8.05,46.55,2.62,9.53,8.55,17.45,12.92,26.07,1.92,5.33-6.08,8.58-9.14,4.25h0Z"></path><path d="M108.64,719.48c-9.12-3.77-12.64-13.81-16.34-22.16-5.12-12.11-9.98-24.33-14.92-36.5-9.67-26.58-23.93-50.47-38.41-74.52,13.36,15.78,26.86,32.37,36.84,50.77,14.4,26.59,25.32,55.2,36.88,82.82-1.22.23-2.8.04-4.05-.42Z"></path><path d="M89.39,719.36c-1.34-2.97-.1-6.6.55-9.59,1.83-8.3,3.74-16.58,5.2-24.96,5.06-28.83,2.1-58.11.67-87.12,3.12,14.88,5.98,30.42,7.84,45.68,1.9,16.01,1.58,32.34-.81,48.27-1.14,8.07-3.09,15.96-4.54,23.96.55,5.11-6.15,9.66-8.91,3.76h0Z"></path><path d="M59.41,712.77c-6.77-1.21-13.57-21.17-16.1-27.51,6.8,7.95,14.03,16.65,19.48,25.68-.07,1.49-2.11,1.94-3.37,1.83Z"></path><path d="M88.57,619.82c.3-2.78,2.34-5.56,5.34-5.56s4.33,3.49,4.04,5.99c-.3,2.78-2.34,5.56-5.34,5.56s-4.33-3.49-4.04-5.99Z"></path><path d="M79.01,622.11c.85-7.28,9.99-7.49,9.38.43-.85,7.28-9.99,7.49-9.38-.43Z"></path><path d="M83.45,628.56c-6.34-1.32-3.64-12.81,2.66-11.36,5.99,1.6,3.36,12.48-2.66,11.36Z"></path><path d="M81.99,623.13c.85-7.28,9.99-7.49,9.38.43-.85,7.28-9.99,7.49-9.38-.43Z"></path><path d="M86.8,600.76c-1.09-3.04-2-6.18-2.51-9.38-.52-3.14-.58-6.36-.51-9.54,0,0,.01,0,.02,0,.09-.44-.12-1.08,0-1.41.37.63.36.61.53.96,2.76,5.99,3.4,12.91,2.49,19.39,0,0-.01,0-.02-.02h0Z"></path><path d="M83.54,751.32c-10.89-40.22-21.3-82.15-43.86-117.8-3.08-5.35-6.44-10.85-9.29-16.18,14.27,13.36,28.02,27.92,35.98,46.02,10.6,25.56,18.92,52.68,24.58,79.69,10.64,4.54-1.27,16.71-7.41,8.26h0Z"></path><path d="M537.22,732.55c-16.49-12.53,11.86-68.48,20.83-82.95.02-.03.05,0,.04.03-6.82,19.25-12.12,38.91-16.67,58.74-1.24,5.52-2.66,11.02-3.68,16.57-.47,2.72-.71,5.74.89,8.13-.29.21-1.09-.37-1.41-.52h0Z"></path><path d="M562.52,711.74c-8.12-8.2,15.98-37.5,21.54-45.43-1.76,4.65-3.94,9.55-5.88,14.27-3.46,8.28-7.4,15.95-10.41,24.25-.71,2.09-1.8,4.02-2.58,6.07-.1.39.21.71.29,1.04-.99.71-2.04.62-2.96-.2h0Z"></path><path d="M146.21,771.17c-8.88-6.08-3.59-39.07-6.22-50.68-.37-3.66-1.1-7.51-1.58-11.02,9.26,15.78,9.43,34.32,13.16,51.72,4.47,3.46.32,13.09-5.36,9.98h0Z"></path><path d="M43.64,767.5c.07-1.85-.3-3.67-.86-5.41-4.94-12.83-12.37-24.55-17.71-37.23-3.89-8.87-7.4-17.9-10.83-26.95,7.35,10.19,14.66,21.69,21.73,32.16,6.97,11.23,16.96,22.34,17.15,36.2.15,6.93-8.94,9.35-9.47,1.24Z"></path><path d="M489.53,730.24c-10.81-16.67,19.35-94.17,25.96-115.8.01-.04.05-.02.05.01-8.09,39.2-19.4,78.45-22.85,118.2-1.21.31-2.54-1.54-3.16-2.41Z"></path><path d="M550.87,726.06c-.81-1.94-.34-4,.49-5.84,3.19-7.52,7.34-14.6,11.86-21.39-1.43,5.72-3.25,11.74-5.19,17.45-1.55,3.56-2.02,7.84-4.9,10.63-.59,1.05-2.03-.16-2.26-.85h0Z"></path></g></g></svg>