<?xml version="1.0" encoding="UTF-8"?>
<svg id="Calque_1" data-name="Calque 1" xmlns="http://www.w3.org/2000/svg" viewBox="0 0 283.5 283.5">
  <defs>
    <style>
      .cls-1 {
        fill: #fff;
      }
    </style>
  </defs>
  <path class="cls-1" d="M251.5,129.6l2-16.6H26.5l-1.9,16.6h22.1l.7,90-18.9,39.4h220.2l-18.9-39.4,4.5-90h17.1ZM64.7,219.6l-2.2-90h12.2l2,90h-12ZM89.5,219.6l-2.2-90h12.2l2,90h-12ZM163.7,219.6h-46.4l-.5-68.7,47.4.5-.5,68.1ZM191.9,219.6h-12l2-90h12.2l-2.2,90ZM216.8,219.6h-12l2-90h12.2l-2.2,90Z"/>
  <polygon class="cls-1" points="256.7 93.6 141.7 24.5 27.5 93.6 27.5 93.6 27.5 93.6 27.5 93.6 27.5 93.6 26.1 102.2 255.1 102.2 256.7 93.6 256.7 93.6"/>
</svg>