<?xml version="1.0" encoding="UTF-8"?>
<svg id="Calque_1" data-name="Calque 1" xmlns="http://www.w3.org/2000/svg" viewBox="0 0 283.5 283.5">
  <defs>
    <style>
      .cls-1 {
        fill: #fff;
      }
    </style>
  </defs>
  <path class="cls-1" d="M256.7,156.3l-66.7-34.8,48.2-53.9-77,22.6.4-46.3-30.3,35.3L58.2,24.5l34.4,82.5-45.6,12.2,36.1,22.6-56.4,48,78.5-17.1,14.8,86.3,35.9-75,39.7,26.2-10.6-43.3,71.6-10.6ZM169.2,169.4l-18-13.6-18.1,33.7-6.2-35.6-26.1,1.6,14.2-18-16.9-11.9,17.7-4.7v-32.2l20.7,23.8,13-15.2,1.8,15.2,23.1-9.2-9.8,23.4,32.9,17.4-29.2,2.5.9,22.7Z"/>
</svg>