<?xml version="1.0" encoding="UTF-8"?>
<svg id="Calque_1" data-name="Calque 1" xmlns="http://www.w3.org/2000/svg" viewBox="0 0 283.5 283.5">
  <defs>
    <style>
      .cls-1 {
        fill: #fff;
      }
    </style>
  </defs>
  <path class="cls-1" d="M45.1,48.2l-.2,10.5,202.6,1-2,155.2-3.4,5.4-4-153.1-193.3-1.9h0c0,0-2.7,153-2.7,153h174.2l25.8,17,13.3-24,3.6-162.1-213.9-1ZM140.2,206.5l-89.9.3,1.1-60.5,90.4.8-1.6,59.4ZM218.1,185.4l-62.7.7.7-9.9,63,.7-1.1,8.5ZM218.1,158.1l-62.7.7.7-9.9,63,.7-1.1,8.5ZM216.3,131.9l-164.5.7,1.9-9.9,165.4.7-2.9,8.5ZM216.3,102.5l-164.5.7,1.9-9.9,165.4.7-2.9,8.5Z"/>
  <path class="cls-1" d="M238.1,67.2l-193.3-1.9h-13c0-.1-5,170-5,170h215.3l-4-168.1ZM156.1,176.2l63,.7-1.1,8.5-62.7.7.7-9.9ZM155.4,158.7l.7-9.9,63,.7-1.1,8.5-62.7.7ZM53.7,93.3l165.4.7-2.9,8.5-164.5.7,1.9-9.9ZM53.7,122.7l165.4.7-2.9,8.5-164.5.7,1.9-9.9ZM51.3,146.3l90.4.8-1.6,59.4-89.9.3,1.1-60.5Z"/>
</svg>