<?xml version="1.0" encoding="UTF-8"?>
<svg id="Calque_1" data-name="Calque 1" xmlns="http://www.w3.org/2000/svg" viewBox="0 0 283.5 283.5">
  <defs>
    <style>
      .cls-1 {
        fill: #fff;
      }
    </style>
  </defs>
  <path class="cls-1" d="M250.1,117.2l-2.1-57.1H37.3l-3.2,57.1h50.9v-10.1l25.8,3-1.2,7.1h70.7l-1.2-7.1,25.8-3v10.1h45.4ZM250.6,129.4l-45.8-.4v16h-20l-2.7-16.2-74.4-.7-2.8,16.9h-20v-17.1l-51.5-.5-6.7,116.9h228.1l-4.3-114.9ZM61.5,206.1l-2.3-12.2h168.9l1.5,10.2-168.2,2ZM227.4,181.2l-168.2-2,1.5-10.2h168.9l-2.3,12.2Z"/>
  <path class="cls-1" d="M209.5,60.2l-13.7-28.8h-104.1l-13.7,28.8-4.3,9h140.1l-4.3-9ZM96,60.2l12.3-16.8h70.9l12.3,16.8h-95.5Z"/>
</svg>