<?xml version="1.0" encoding="UTF-8"?>
<svg id="Calque_1" data-name="Calque 1" xmlns="http://www.w3.org/2000/svg" viewBox="0 0 283.5 283.5">
  <defs>
    <style>
      .cls-1 {
        fill: #fff;
      }
    </style>
  </defs>
  <path class="cls-1" d="M240.5,174.3l16.2-24.2-35.3-76.1-63.9,18.2,2.3-51.1-17.4-16.8-17.3,16.8,1.2,51.1-61.9-18.2-35.3,76.1,16.2,24.2,54.3-24.2h0,0s0,0,0,0l-15.2-53.4,42.5,21.6,2.4,104-69,36.6h162.8l-71.5-38,4.7-101.7,45.2-22.6-15.2,53.5,54.3,24.2ZM78.1,146.2l-28.7,4-3.8-6.2,22.9-55.3,13.6,49.2-4.1,8.2ZM217.4,88.8l22.9,55.3-3.8,6.2-28.7-4-4.1-8.2,13.6-49.2Z"/>
</svg>