<?xml version="1.0" encoding="UTF-8"?>
<svg id="Calque_1" data-name="Calque 1" xmlns="http://www.w3.org/2000/svg" viewBox="0 0 283.5 283.5">
  <defs>
    <style>
      .cls-1 {
        fill: #fff;
      }
    </style>
  </defs>
  <path class="cls-1" d="M170.9,158.3l-2.1-38.1c66.3-18,88.6-99.5,88.6-99.5H26.8s23,83.8,91.4,100.2l-4.8,37.3c-64.7,19-86.6,99-86.6,99h230.7s-21.9-79.8-86.5-98.9ZM209.1,239.7c-5.9-15.2-23-49.6-58.5-54.4v-7.9c-.1,0-.3-5.2-.3-5.2l-.2-9-.2-8.6-.6-31-.3-15v-2.5c0,0-.2-9.2-.2-9.2v-2c32.8-2.9,43.7-26.5,43.7-26.5h-100.8s11.4,24.7,45.9,26.7v1.9c0,0-.4,9.3-.4,9.3v2.4c0,0-.7,15.1-.7,15.1l-1.2,30.9-.3,8.7-.3,8.9-.2,5.3-.3,7.9c-35.9,4.5-53.1,39.1-59.1,54.4h-16.9s16.5-54.4,65.4-65.8l.6-10.7.4-7.5,1.8-33.1.8-14.1.2-3.6c-51.9-9.4-69.2-66.6-69.2-66.6h167.9s-16.9,55.7-67.2,66.2v4c0,0,.4,13.8.4,13.8l.8,33.5.2,7.4.3,10.6c49,11.4,65.5,65.9,65.5,65.9h-16.9Z"/>
</svg>