<?xml version="1.0" encoding="UTF-8"?>
<svg id="Calque_1" data-name="Calque 1" xmlns="http://www.w3.org/2000/svg" viewBox="0 0 283.5 283.5">
  <defs>
    <style>
      .cls-1 {
        fill: #fff;
      }
    </style>
  </defs>
  <polygon class="cls-1" points="41.8 259 77.3 189 94.9 189 68.3 259 41.8 259"/>
  <polygon class="cls-1" points="241.7 259 206.1 189 188.6 189 215.1 259 241.7 259"/>
  <path class="cls-1" d="M24.5,70.7l16,153.3,200.1-3.1,16-155.4-232.1,5.1ZM182,181l-104.3,1.6-8.3-79.9,121-2.7-8.3,81ZM220,154.9l-14.7-1.8,1.8-12h16l-3.2,13.8ZM222.6,134.9l-14.7-1.8,1.8-12h16l-3.1,13.8ZM225.2,115l-14.7-1.8,1.8-12h16l-3.2,13.8Z"/>
  <polygon class="cls-1" points="182.1 72.5 175.4 48.9 194.8 24.5 177.5 24.5 165.4 52.9 182.1 72.5"/>
</svg>