<?xml version="1.0" encoding="UTF-8"?>
<svg id="Calque_1" data-name="Calque 1" xmlns="http://www.w3.org/2000/svg" viewBox="0 0 283.5 283.5">
  <defs>
    <style>
      .cls-1 {
        fill: #fff;
      }
    </style>
  </defs>
  <path class="cls-1" d="M250,95.7H35.3l-8.5,124.9h228.1l-4.9-124.9ZM131.4,192.5l-84.1-2,.8-10.2h84.5l-1.1,12.2ZM48.5,162l-1.1-12.2h84.5l.8,10.2-84.1,2ZM131.4,131.6l-84.1-2,.8-10.2h84.5l-1.1,12.2ZM149.7,120.3l80.8.6-1.4,48.6-80.3.2.9-49.5ZM171.5,191.8l-14.7-1.8,1.8-12h16l-3.2,13.8ZM202.7,178h16l-3.2,13.8-14.7-1.8,1.8-12Z"/>
  <polygon class="cls-1" points="238.5 194 238.5 231.9 218.6 231.9 212.8 197 238.5 194"/>
  <polygon class="cls-1" points="42.4 194 42.4 231.9 62.3 231.9 68.1 197 42.4 194"/>
  <polygon class="cls-1" points="57.6 100.2 73.7 88.7 92.7 88.7 108.1 95.7 57.6 100.2"/>
  <polygon class="cls-1" points="86.2 90.2 197 56.2 199.3 63.7 95.8 94.7 86.2 90.2"/>
</svg>