<svg id="Calque_1" xmlns="http://www.w3.org/2000/svg" viewBox="0 0 767.2 7337.6"><defs><style>
      .cls-1 {
        fill: aqua;
      }
      .cls-2 {
        fill: #e5df00;
      }
      .cls-3 {
        fill: #e63c21;
      }
      .cls-4 {
        fill: #989898;
      }
    </style></defs><circle class="cls-3" cx="174.2" cy="7001.9" r="20.6"></circle><circle class="cls-3" cx="628" cy="6715.7" r="20.6"></circle><circle class="cls-3" cx="252.6" cy="6498.2" r="20.6"></circle><circle class="cls-3" cx="626.9" cy="6198.2" r="20.6"></circle><circle class="cls-3" cx="232" cy="5953.6" r="20.6"></circle><circle class="cls-3" cx="691.4" cy="5508.5" r="20.6"></circle><circle class="cls-3" cx="157.28" cy="5202.75" r="20.6" transform="translate(-5043.51 4990.37) rotate(-85.93)"></circle><circle class="cls-3" cx="565.3" cy="4803" r="20.6"></circle><circle class="cls-3" cx="683.64" cy="4299.99" r="20.6" transform="translate(-164.56 29.41) rotate(-2.2)"></circle><circle class="cls-3" cx="151.1" cy="4002.5" r="20.6"></circle><circle class="cls-3" cx="683.64" cy="3548.29" r="20.6" transform="translate(-135.71 28.86) rotate(-2.2)"></circle><circle class="cls-3" cx="225.7" cy="3087.1" r="20.6"></circle><circle class="cls-3" cx="205.1" cy="2480.7" r="20.6"></circle><circle class="cls-3" cx="519.6" cy="1979.1" r="20.6" transform="translate(-717.82 349.49) rotate(-22.5)"></circle><circle class="cls-3" cx="596.2" cy="1420.8" r="20.6"></circle><circle class="cls-3" cx="489.8" cy="837.9" r="20.6"></circle><circle class="cls-3" cx="350" cy="154.2" r="20.6"></circle><circle class="cls-2" cx="607.5" cy="7163.8" r="20.6"></circle><circle class="cls-2" cx="194.8" cy="6904.8" r="20.6"></circle><circle class="cls-2" cx="525" cy="6827.8" r="20.6" transform="translate(-6316.49 7125.29) rotate(-88.09)"></circle><circle class="cls-2" cx="426.3" cy="6539.4" r="20.6"></circle><circle class="cls-2" cx="315.6" cy="6406.5" r="20.6"></circle><circle class="cls-2" cx="446.9" cy="6177.6" r="20.6"></circle><circle class="cls-2" cx="133.1" cy="6031.1" r="20.6" transform="translate(-61.53 1.67) rotate(-.58)"></circle><circle class="cls-2" cx="608.7" cy="5815.9" r="20.6"></circle><circle class="cls-2" cx="385.2" cy="5565.8" r="20.6"></circle><circle class="cls-2" cx="488.1" cy="5369.3" r="20.6"></circle><circle class="cls-2" cx="252.6" cy="5152.4" r="20.6"></circle><circle class="cls-2" cx="477.7" cy="4892.7" r="20.6"></circle><circle class="cls-2" cx="177.9" cy="4662.3" r="20.6"></circle><circle class="cls-2" cx="595.1" cy="4242.1" r="20.6"></circle><circle class="cls-2" cx="151.1" cy="4242.1" r="20.6"></circle><circle class="cls-2" cx="349.4" cy="3881.2" r="20.6"></circle><circle class="cls-2" cx="470.9" cy="3636.7" r="20.6"></circle><circle class="cls-2" cx="592.9" cy="3424.4" r="20.6"></circle><circle class="cls-2" cx="256.3" cy="3356.7" r="20.6"></circle><circle class="cls-2" cx="328.8" cy="3029.1" r="20.6"></circle><circle class="cls-2" cx="404" cy="2715.1" r="20.6"></circle><circle class="cls-2" cx="634" cy="2898.1" r="20.6"></circle><circle class="cls-2" cx="246.3" cy="2360.5" r="20.6" transform="translate(-2118.35 2563.07) rotate(-88.94)"></circle><circle class="cls-2" cx="370" cy="2148.2" r="20.6"></circle><circle class="cls-2" cx="328.8" cy="1870.6" r="20.6"></circle><circle class="cls-2" cx="477.7" cy="1493.1" r="20.6"></circle><circle class="cls-2" cx="195.3" cy="1645.7" r="20.6"></circle><circle class="cls-2" cx="328.8" cy="1086.3" r="20.6"></circle><circle class="cls-2" cx="211.1" cy="495.6" r="20.6"></circle><circle class="cls-2" cx="531" cy="267.8" r="20.6" transform="translate(181.6 749.05) rotate(-80.78)"></circle><circle class="cls-2" cx="115.6" cy="5389.8" r="20.6"></circle><circle class="cls-4" cx="94.1" cy="6736.3" r="20.6"></circle><circle class="cls-4" cx="94.1" cy="4977.7" r="20.6"></circle><circle class="cls-4" cx="674.7" cy="3175.9" r="20.6"></circle><circle class="cls-4" cx="123.6" cy="1379.7" r="20.6"></circle><circle class="cls-1" cx="118.64" cy="214.96" r="15.61"></circle><circle class="cls-1" cx="616.8" cy="1739.48" r="15.61"></circle><circle class="cls-1" cx="499" cy="2501.3" r="15.61"></circle><circle class="cls-1" cx="198.5" cy="3671.22" r="15.61"></circle><circle class="cls-1" cx="613.4" cy="5223.35" r="15.61"></circle><circle class="cls-1" cx="115.6" cy="5801.2" r="15.61"></circle><circle class="cls-1" cx="115.6" cy="7248.74" r="15.61"></circle></svg>