<svg id="Calque_1" xmlns="http://www.w3.org/2000/svg" viewBox="0 0 767.2 7337.6"><defs><style>
      .cls-1 {
        fill: aqua;
      }
      .cls-2 {
        fill: #e5df00;
      }
      .cls-3 {
        fill: #e63c21;
      }
      .cls-4 {
        fill: #989898;
      }
    </style></defs><circle class="cls-3" cx="142.88" cy="6974.39" r="20.6"></circle><circle class="cls-2" cx="267.59" cy="7179.92" r="20.6"></circle><circle class="cls-4" cx="20.6" cy="6620.76" r="20.6"></circle><circle class="cls-4" cx="608.48" cy="5342.82" r="20.6"></circle><circle class="cls-4" cx="64.08" cy="3114.86" r="20.6"></circle><circle class="cls-4" cx="609.08" cy="1071.5" r="20.6"></circle><circle class="cls-2" cx="389.68" cy="7027.31" r="20.6"></circle><circle class="cls-2" cx="226.39" cy="6860.45" r="20.6"></circle><circle class="cls-2" cx="329.39" cy="6675" r="20.6"></circle><circle class="cls-2" cx="152.73" cy="6505.59" r="20.6"></circle><circle class="cls-2" cx="249.86" cy="6239.57" r="20.6"></circle><circle class="cls-2" cx="519.38" cy="5943.15" r="20.6"></circle><circle class="cls-2" cx="195.86" cy="5723.77" r="20.6"></circle><circle class="cls-2" cx="396.95" cy="5443.59" r="20.6"></circle><circle class="cls-2" cx="208.05" cy="5263.24" r="20.6"></circle><circle class="cls-2" cx="438.15" cy="5035.1" r="20.6" transform="translate(-4608.74 5305.45) rotate(-88.09)"></circle><circle class="cls-2" cx="216.46" cy="4825.03" r="20.6"></circle><circle class="cls-2" cx="416.76" cy="4409.14" r="20.6" transform="translate(-4003.81 4678.94) rotate(-88.09)"></circle><circle class="cls-2" cx="84.68" cy="4133.56" r="20.6"></circle><circle class="cls-2" cx="215.98" cy="3815.34" r="20.6"></circle><circle class="cls-2" cx="437.36" cy="3472" r="20.6" transform="translate(-3047.27 3793.58) rotate(-88.09)"></circle><circle class="cls-2" cx="195.86" cy="3258.29" r="20.6"></circle><circle class="cls-2" cx="478.56" cy="3002.16" r="20.6"></circle><circle class="cls-2" cx="218.48" cy="2733.09" r="20.6"></circle><circle class="cls-2" cx="538.99" cy="2290.62" r="20.6"></circle><circle class="cls-2" cx="416.76" cy="2582.02" r="20.6" transform="translate(-2177.7 2912.62) rotate(-88.09)"></circle><circle class="cls-2" cx="416.76" cy="1934.84" r="20.6" transform="translate(-708.71 306.77) rotate(-22.5)"></circle><circle class="cls-2" cx="154.85" cy="1739.48" r="20.6" transform="translate(-170.65 23.72) rotate(-5.65)"></circle><circle class="cls-2" cx="98.38" cy="1405.18" r="20.6"></circle><circle class="cls-2" cx="476.28" cy="1174.78" r="20.6"></circle><circle class="cls-2" cx="222.75" cy="966.97" r="20.6"></circle><circle class="cls-2" cx="534.47" cy="692.38" r="20.6"></circle><circle class="cls-2" cx="279.49" cy="520.89" r="20.6"></circle><circle class="cls-2" cx="367.06" cy="273.78" r="20.6"></circle><circle class="cls-2" cx="568.08" cy="4804.43" r="20.6"></circle><circle class="cls-3" cx="498.78" cy="6452.49" r="20.6"></circle><circle class="cls-3" cx="118.78" cy="5847.99" r="20.6"></circle><circle class="cls-3" cx="502.68" cy="5484.79" r="20.6"></circle><circle class="cls-3" cx="98.58" cy="4974.59" r="20.6"></circle><circle class="cls-3" cx="506.28" cy="4504.49" r="20.6"></circle><circle class="cls-3" cx="526.88" cy="4080.99" r="20.6"></circle><circle class="cls-3" cx="462.68" cy="3642.69" r="20.6"></circle><circle class="cls-3" cx="323.68" cy="3217.09" r="20.6"></circle><circle class="cls-3" cx="519.08" cy="2646.39" r="20.6"></circle><circle class="cls-3" cx="197.88" cy="2102.69" r="20.6"></circle><circle class="cls-3" cx="547.28" cy="1602.49" r="20.6"></circle><circle class="cls-3" cx="298.18" cy="1332.49" r="20.6"></circle><circle class="cls-3" cx="367.08" cy="957.09" r="20.6"></circle><circle class="cls-3" cx="450.58" cy="417.79" r="20.6"></circle><circle class="cls-3" cx="222.78" cy="84.69" r="20.6"></circle><circle class="cls-1" cx="660.4" cy="169.82" r="15.61"></circle><circle class="cls-1" cx="118.98" cy="671.78" r="15.61"></circle><circle class="cls-1" cx="629.68" cy="1870.6" r="15.61"></circle><circle class="cls-1" cx="177.28" cy="2420.81" r="15.61"></circle><circle class="cls-1" cx="130.38" cy="3636.7" r="15.61"></circle><circle class="cls-1" cx="175.26" cy="4641.7" r="15.61"></circle><circle class="cls-1" cx="135.09" cy="5565.8" r="15.61"></circle><circle class="cls-1" cx="591.99" cy="6860.45" r="15.61"></circle></svg>