<svg id="Calque_1" xmlns="http://www.w3.org/2000/svg" viewBox="0 0 767.2 7337.6"><defs><style>
      .cls-1 {
        fill: aqua;
      }
      .cls-2 {
        fill: #e5df00;
      }
      .cls-3 {
        fill: #e63c21;
      }
      .cls-4 {
        fill: #989898;
      }
    </style></defs><circle class="cls-3" cx="529.89" cy="6895.32" r="20.6"></circle><circle class="cls-3" cx="198.69" cy="6571.82" r="20.6"></circle><circle class="cls-2" cx="219.29" cy="7118.5" r="20.6" transform="translate(-6902.05 7205.99) rotate(-88.94)"></circle><circle class="cls-2" cx="371.17" cy="6845.16" r="20.6"></circle><circle class="cls-2" cx="20.6" cy="6646.82" r="20.6"></circle><circle class="cls-4" cx="20.6" cy="6221.52" r="20.6"></circle><circle class="cls-4" cx="263.59" cy="4450.25" r="20.6"></circle><circle class="cls-4" cx="528.92" cy="2549.32" r="20.6"></circle><circle class="cls-4" cx="94.6" cy="621.62" r="20.6"></circle><circle class="cls-2" cx="178.09" cy="5906.8" r="20.6"></circle><circle class="cls-2" cx="479.85" cy="6378.42" r="20.6" transform="translate(-5911 6645.74) rotate(-88.09)"></circle><circle class="cls-2" cx="550.49" cy="6045.37" r="20.6"></circle><circle class="cls-2" cx="169.83" cy="5405.81" r="20.6"></circle><circle class="cls-2" cx="448.57" cy="5607.65" r="20.6"></circle><circle class="cls-2" cx="509.79" cy="4996.13" r="20.6"></circle><circle class="cls-2" cx="211.03" cy="4758.32" r="20.6"></circle><circle class="cls-2" cx="158.45" cy="3912.38" r="20.6"></circle><circle class="cls-2" cx="423.62" cy="3441.37" r="20.6"></circle><circle class="cls-2" cx="448.57" cy="2911.79" r="20.6"></circle><circle class="cls-2" cx="222.39" cy="2313.64" r="20.6" transform="translate(-2094.97 2493.17) rotate(-88.94)"></circle><circle class="cls-2" cx="306.33" cy="1948.23" r="20.6"></circle><circle class="cls-2" cx="263.59" cy="1448.63" r="20.6"></circle><circle class="cls-2" cx="567.49" cy="1270.47" r="20.6"></circle><circle class="cls-2" cx="185.81" cy="821.97" r="20.6"></circle><circle class="cls-2" cx="321.09" cy="435.13" r="20.6"></circle><circle class="cls-2" cx="567.49" cy="955.34" r="20.6"></circle><circle class="cls-2" cx="475.58" cy="215.92" r="20.6" transform="translate(186.27 650.77) rotate(-80.78)"></circle><circle class="cls-2" cx="570.12" cy="4380.01" r="20.6"></circle><circle class="cls-3" cx="320.49" cy="6221.52" r="20.6"></circle><circle class="cls-3" cx="550.99" cy="5712.32" r="20.6"></circle><circle class="cls-3" cx="270.59" cy="5296.42" r="20.6"></circle><circle class="cls-3" cx="311.79" cy="4682.72" r="20.6"></circle><circle class="cls-3" cx="405.89" cy="4201.02" r="20.6"></circle><circle class="cls-3" cx="270.59" cy="3804.62" r="20.6"></circle><circle class="cls-3" cx="327.69" cy="3234.12" r="20.6"></circle><circle class="cls-3" cx="123.79" cy="2458.62" r="20.6"></circle><circle class="cls-3" cx="414.59" cy="2029.02" r="20.6"></circle><circle class="cls-3" cx="164.89" cy="1582.82" r="20.6"></circle><circle class="cls-3" cx="359.3" cy="1063.57" r="20.6" transform="translate(-748.1 1247.81) rotate(-80.78)"></circle><circle class="cls-3" cx="546.89" cy="580.42" r="20.6"></circle><circle class="cls-3" cx="279.89" cy="149.22" r="20.6"></circle><circle class="cls-1" cx="667.12" cy="199.35" r="15.61"></circle><circle class="cls-1" cx="180.82" cy="1234.25" r="15.61"></circle><circle class="cls-1" cx="627.44" cy="1718.88" r="15.61"></circle><circle class="cls-1" cx="570.12" cy="3965.96" r="15.61"></circle><circle class="cls-1" cx="175.57" cy="3087.1" r="15.61"></circle><circle class="cls-1" cx="198.69" cy="5077.51" r="15.61"></circle><circle class="cls-1" cx="674.06" cy="6772.51" r="15.61"></circle><circle class="cls-1" cx="525.16" cy="7248.74" r="15.61"></circle></svg>