<svg width="130" height="29" viewBox="0 0 130 29" fill="none" xmlns="http://www.w3.org/2000/svg">
<path d="M129.18 14.8807H122.686C122.652 14.4801 122.511 14.1349 122.264 13.8452C122.017 13.5554 121.697 13.3338 121.305 13.1804C120.921 13.0185 120.495 12.9375 120.027 12.9375C119.421 12.9375 118.902 13.0483 118.467 13.2699C118.032 13.4915 117.819 13.8068 117.828 14.2159C117.819 14.5057 117.943 14.7741 118.198 15.0213C118.463 15.2685 118.97 15.4602 119.72 15.5966L123.708 16.3125C125.72 16.679 127.216 17.2969 128.196 18.1662C129.184 19.027 129.683 20.1818 129.691 21.6307C129.683 23.0284 129.265 24.2429 128.439 25.2741C127.62 26.2969 126.5 27.0895 125.076 27.652C123.662 28.206 122.046 28.483 120.231 28.483C117.231 28.483 114.883 27.8693 113.187 26.642C111.5 25.4148 110.558 23.7955 110.362 21.7841H117.367C117.461 22.4062 117.768 22.8878 118.288 23.2287C118.816 23.5611 119.481 23.7273 120.282 23.7273C120.93 23.7273 121.463 23.6165 121.88 23.3949C122.306 23.1733 122.524 22.858 122.532 22.4489C122.524 22.0739 122.336 21.7756 121.97 21.554C121.612 21.3324 121.049 21.1534 120.282 21.017L116.805 20.4034C114.802 20.054 113.302 19.3892 112.305 18.4091C111.308 17.429 110.814 16.1676 110.822 14.625C110.814 13.2614 111.171 12.1065 111.896 11.1605C112.629 10.206 113.673 9.48153 115.028 8.98722C116.392 8.48438 118.007 8.23296 119.873 8.23296C122.711 8.23296 124.948 8.82102 126.585 9.99716C128.23 11.1733 129.095 12.8011 129.18 14.8807Z" fill="black"/>
<path d="M100.579 28.125V8.48864H107.636V28.125H100.579ZM104.107 6.44318C103.153 6.44318 102.335 6.12784 101.653 5.49716C100.971 4.86648 100.63 4.10795 100.63 3.22159C100.63 2.33523 100.971 1.5767 101.653 0.946022C102.335 0.315341 103.153 0 104.107 0C105.07 0 105.889 0.315341 106.562 0.946022C107.244 1.5767 107.585 2.33523 107.585 3.22159C107.585 4.10795 107.244 4.86648 106.562 5.49716C105.889 6.12784 105.07 6.44318 104.107 6.44318Z" fill="black"/>
<path d="M84.9695 28.125V8.48864H91.8217V12.2216H92.0263C92.3842 10.8409 92.951 9.83097 93.7266 9.19176C94.5107 8.55256 95.4269 8.23296 96.4752 8.23296C96.782 8.23296 97.0845 8.25852 97.3828 8.30966C97.6896 8.35227 97.9837 8.41619 98.2649 8.50142V14.5227C97.9155 14.4034 97.4851 14.3139 96.9737 14.2543C96.4624 14.1946 96.0235 14.1648 95.657 14.1648C94.9666 14.1648 94.3445 14.3224 93.7905 14.6378C93.245 14.9446 92.8146 15.3793 92.4993 15.9418C92.184 16.4957 92.0263 17.1477 92.0263 17.8977V28.125H84.9695Z" fill="black"/>
<path d="M71.9298 28.483C69.7991 28.483 67.9753 28.0611 66.4582 27.2173C64.9412 26.3651 63.7778 25.1804 62.9681 23.6634C62.1585 22.1378 61.7537 20.3693 61.7537 18.358C61.7537 16.3466 62.1585 14.5824 62.9681 13.0653C63.7778 11.5398 64.9412 10.3551 66.4582 9.51136C67.9753 8.65909 69.7991 8.23296 71.9298 8.23296C74.0605 8.23296 75.8843 8.65909 77.4014 9.51136C78.9184 10.3551 80.0818 11.5398 80.8914 13.0653C81.7011 14.5824 82.1059 16.3466 82.1059 18.358C82.1059 20.3693 81.7011 22.1378 80.8914 23.6634C80.0818 25.1804 78.9184 26.3651 77.4014 27.2173C75.8843 28.0611 74.0605 28.483 71.9298 28.483ZM71.9809 23.267C72.5775 23.267 73.0931 23.0668 73.5278 22.6662C73.9625 22.2656 74.2991 21.6946 74.5378 20.9531C74.7764 20.2116 74.8957 19.3295 74.8957 18.3068C74.8957 17.2756 74.7764 16.3935 74.5378 15.6605C74.2991 14.919 73.9625 14.348 73.5278 13.9474C73.0931 13.5469 72.5775 13.3466 71.9809 13.3466C71.3502 13.3466 70.8091 13.5469 70.3573 13.9474C69.9056 14.348 69.5605 14.919 69.3218 15.6605C69.0832 16.3935 68.9639 17.2756 68.9639 18.3068C68.9639 19.3295 69.0832 20.2116 69.3218 20.9531C69.5605 21.6946 69.9056 22.2656 70.3573 22.6662C70.8091 23.0668 71.3502 23.267 71.9809 23.267Z" fill="black"/>
<path d="M61.0601 8.48864L54.4635 28.125H46.2816L39.6851 8.48864H47.0998L50.2703 21.4773H50.4748L53.6453 8.48864H61.0601Z" fill="black"/>
<path d="M26.1755 28.4318C24.9227 28.4318 23.8147 28.2273 22.8516 27.8182C21.8971 27.4006 21.1471 26.7699 20.6016 25.9261C20.0562 25.0824 19.7834 24.0085 19.7834 22.7045C19.7834 21.6307 19.9667 20.7145 20.3332 19.956C20.6996 19.1889 21.211 18.5625 21.8673 18.0767C22.5235 17.5909 23.2863 17.2202 24.1556 16.9645C25.0335 16.7088 25.9795 16.5426 26.9937 16.4659C28.0931 16.3807 28.9752 16.2784 29.64 16.1591C30.3133 16.0312 30.7991 15.8565 31.0974 15.6349C31.3957 15.4048 31.5448 15.1023 31.5448 14.7273V14.6761C31.5448 14.1648 31.3488 13.7727 30.9567 13.5C30.5647 13.2273 30.0619 13.0909 29.4482 13.0909C28.7749 13.0909 28.2252 13.2401 27.7991 13.5384C27.3815 13.8281 27.13 14.2756 27.0448 14.8807H20.5505C20.6357 13.6875 21.015 12.5881 21.6883 11.5824C22.3701 10.5682 23.363 9.75852 24.667 9.15341C25.9709 8.53977 27.5988 8.23296 29.5505 8.23296C30.9567 8.23296 32.2181 8.39915 33.3346 8.73154C34.4511 9.0554 35.4014 9.51136 36.1854 10.0994C36.9695 10.679 37.5661 11.3608 37.9752 12.1449C38.3928 12.9205 38.6016 13.7642 38.6016 14.6761V28.125H32.005V25.3636H31.8516C31.4596 26.0966 30.9823 26.6889 30.4198 27.1406C29.8658 27.5923 29.2309 27.9205 28.515 28.125C27.8076 28.3295 27.0278 28.4318 26.1755 28.4318ZM28.4766 23.983C29.0136 23.983 29.5164 23.8722 29.9852 23.6506C30.4624 23.429 30.8502 23.1094 31.1485 22.6918C31.4468 22.2741 31.5959 21.767 31.5959 21.1705V19.5341C31.4084 19.6108 31.2082 19.6832 30.9951 19.7514C30.7905 19.8196 30.569 19.8835 30.3303 19.9432C30.1002 20.0028 29.853 20.0582 29.5888 20.1094C29.3332 20.1605 29.0647 20.2074 28.7834 20.25C28.238 20.3352 27.7905 20.4759 27.4411 20.6719C27.1002 20.8594 26.8445 21.0938 26.6741 21.375C26.5121 21.6477 26.4312 21.9545 26.4312 22.2955C26.4312 22.8409 26.6229 23.2585 27.0065 23.5483C27.39 23.8381 27.88 23.983 28.4766 23.983Z" fill="black"/>
<path d="M0 28.125V1.94318H18.4091V7.67045H7.10796V12.1705H17.2841V17.8977H7.10796V28.125H0Z" fill="black"/>
</svg>
