<?xml version="1.0" encoding="UTF-8"?>
<svg id="Calque_1" data-name="Calque 1" xmlns="http://www.w3.org/2000/svg" viewBox="0 0 485.96 168.74">
  <defs>
    <style>
      .cls-1 {
        fill: #e60029;
      }

      .cls-2 {
        fill: #fff;
      }
    </style>
  </defs>
  <g>
    <path class="cls-2" d="M56.89,21.27c4.19,2.22,7.43,5.34,9.73,9.35,2.3,4.01,3.44,8.64,3.44,13.89s-1.15,9.81-3.44,13.85c-2.3,4.04-5.55,7.17-9.76,9.39-4.21,2.22-9.1,3.33-14.65,3.33h-19.91V17.94h19.91c5.6,0,10.5,1.11,14.68,3.33ZM52.8,55.86c2.72-2.67,4.09-6.46,4.09-11.35s-1.36-8.7-4.09-11.43-6.54-4.09-11.43-4.09h-6.13v30.88h6.13c4.89,0,8.7-1.34,11.43-4.01Z"/>
    <path class="cls-2" d="M90.27,28.31v10.75h17.33v9.99h-17.33v11.66h19.6v10.37h-32.55V17.94h32.55v10.37h-19.6Z"/>
    <path class="cls-2" d="M147.26,61.08h16.95v9.99h-29.9V17.94h12.94v43.14Z"/>
    <path class="cls-2" d="M203.49,61.69h-19.83l-3.18,9.39h-13.55l19.23-53.13h14.99l19.22,53.13h-13.7l-3.18-9.39ZM200.16,51.7l-6.58-19.45-6.51,19.45h13.09Z"/>
    <path class="cls-2" d="M280.47,17.94v10.37h-14.08v42.76h-12.94V28.31h-14.08v-10.37h41.1Z"/>
    <path class="cls-2" d="M299.92,28.31v10.75h17.33v9.99h-17.33v11.66h19.6v10.37h-32.55V17.94h32.55v10.37h-19.6ZM302.87,8.7l-11.73,6.21V5.98l11.73-5.98,11.73,5.98v8.93l-11.73-6.21Z"/>
    <path class="cls-2" d="M366.15,17.94v10.37h-14.08v42.76h-12.94V28.31h-14.08v-10.37h41.1Z"/>
    <path class="cls-2" d="M385.6,28.31v10.75h17.33v9.99h-17.33v11.66h19.6v10.37h-32.55V17.94h32.55v10.37h-19.6Z"/>
  </g>
  <g>
    <path class="cls-2" d="M112.91,158.82h-19.83l-3.18,9.39h-13.55l19.23-53.13h14.99l19.22,53.13h-13.7l-3.18-9.39ZM109.58,148.83l-6.58-19.45-6.51,19.45h13.09Z"/>
    <path class="cls-2" d="M148.33,115.07v31.79c0,3.18.78,5.63,2.35,7.34,1.56,1.72,3.86,2.57,6.89,2.57s5.35-.86,6.96-2.57c1.61-1.71,2.42-4.16,2.42-7.34v-31.79h12.94v31.71c0,4.74-1.01,8.75-3.03,12.03-2.02,3.28-4.73,5.75-8.14,7.42-3.41,1.67-7.2,2.5-11.39,2.5s-7.94-.82-11.24-2.46c-3.31-1.64-5.92-4.11-7.83-7.42-1.92-3.3-2.88-7.33-2.88-12.07v-31.71h12.94Z"/>
    <path class="cls-2" d="M221.52,168.21l-10.82-16.27-9.54,16.27h-14.68l17.03-27.02-17.41-26.11h15.06l10.67,16.05,9.39-16.05h14.68l-16.88,26.79,17.56,26.34h-15.06Z"/>
    <path class="cls-2" d="M297.51,140.62c-1.41,2.55-3.58,4.6-6.51,6.17-2.93,1.56-6.56,2.35-10.9,2.35h-8.02v19.07h-12.94v-53.13h20.97c4.24,0,7.82.73,10.75,2.19,2.93,1.46,5.12,3.48,6.58,6.06,1.46,2.57,2.19,5.53,2.19,8.86,0,3.08-.71,5.89-2.12,8.44ZM284.64,137.1c1.21-1.16,1.82-2.8,1.82-4.92s-.61-3.76-1.82-4.92c-1.21-1.16-3.05-1.74-5.53-1.74h-7.04v13.32h7.04c2.47,0,4.31-.58,5.53-1.74Z"/>
    <path class="cls-2" d="M319.31,115.07v53.13h-12.94v-53.13h12.94Z"/>
    <path class="cls-2" d="M341.64,125.44v10.75h17.33v9.99h-17.33v11.66h19.6v10.37h-32.55v-53.13h32.55v10.37h-19.6Z"/>
    <path class="cls-2" d="M404.23,118.4c4.19,2.22,7.43,5.34,9.73,9.35,2.3,4.01,3.44,8.64,3.44,13.89s-1.15,9.81-3.44,13.85c-2.3,4.04-5.55,7.17-9.76,9.39-4.21,2.22-9.1,3.33-14.65,3.33h-19.91v-53.13h19.91c5.6,0,10.5,1.11,14.68,3.33ZM400.14,152.99c2.72-2.67,4.09-6.46,4.09-11.35s-1.36-8.7-4.09-11.43-6.54-4.09-11.43-4.09h-6.13v30.88h6.13c4.89,0,8.7-1.34,11.43-4.01Z"/>
    <path class="cls-2" d="M433.45,166.84c-3.08-1.26-5.54-3.13-7.38-5.6-1.84-2.47-2.81-5.45-2.91-8.93h13.78c.2,1.97.88,3.47,2.04,4.5,1.16,1.03,2.67,1.55,4.54,1.55s3.43-.44,4.54-1.32c1.11-.88,1.67-2.11,1.67-3.67,0-1.31-.44-2.4-1.32-3.25-.88-.86-1.97-1.56-3.25-2.12-1.29-.55-3.12-1.19-5.49-1.89-3.43-1.06-6.23-2.12-8.4-3.18-2.17-1.06-4.04-2.62-5.6-4.69-1.56-2.07-2.35-4.77-2.35-8.1,0-4.94,1.79-8.82,5.37-11.62,3.58-2.8,8.25-4.2,14-4.2s10.57,1.4,14.15,4.2c3.58,2.8,5.5,6.7,5.75,11.69h-14c-.1-1.71-.73-3.07-1.89-4.05-1.16-.98-2.65-1.48-4.47-1.48-1.56,0-2.83.42-3.78,1.25-.96.83-1.44,2.03-1.44,3.6,0,1.72.81,3.05,2.42,4.01,1.61.96,4.14,1.99,7.57,3.1,3.43,1.16,6.22,2.27,8.36,3.33,2.14,1.06,4,2.6,5.56,4.62,1.56,2.02,2.35,4.62,2.35,7.8s-.77,5.78-2.31,8.25c-1.54,2.47-3.77,4.44-6.7,5.9-2.93,1.46-6.38,2.19-10.37,2.19s-7.37-.63-10.44-1.89Z"/>
  </g>
  <polygon class="cls-1" points="463.72 100.6 463.72 72.79 485.96 72.79 456.28 21.4 426.61 72.79 448.84 72.79 448.84 85.71 22.14 85.47 22.24 116.84 0 116.9 29.83 168.21 59.35 116.72 37.12 116.79 37.07 100.35 463.72 100.6"/>
</svg>