<?xml version="1.0" encoding="UTF-8"?>
<svg id="Calque_1" xmlns="http://www.w3.org/2000/svg" xmlns:xlink="http://www.w3.org/1999/xlink" version="1.1" viewBox="0 0 628.2 193.4">
  <!-- Generator: Adobe Illustrator 30.0.0, SVG Export Plug-In . SVG Version: 2.1.1 Build 123)  -->
  <defs>
    <style>
      .st0, .st1 {
        fill: none;
      }

      .st1 {
        stroke: #fff;
        stroke-miterlimit: 10;
        stroke-width: 4.2px;
      }

      .st2 {
        fill: #fff;
      }

      .st3 {
        clip-path: url(#clippath);
      }
    </style>
    <clipPath id="clippath">
      <rect class="st0" x="23.6" y="-1185.7" width="743.7" height="1519.7"/>
    </clipPath>
  </defs>
  <g>
    <path class="st2" d="M175.7,95.9l-8.4,22.3h-3.4l-8.4-22.3h3.1l7,19.2,7-19.2h3.1Z"/>
    <path class="st2" d="M182,117.3c-1.3-.7-2.4-1.8-3.1-3.2-.8-1.4-1.1-3-1.1-4.8s.4-3.4,1.2-4.8c.8-1.4,1.8-2.4,3.2-3.2,1.3-.7,2.8-1.1,4.5-1.1s3.2.4,4.5,1.1c1.3.7,2.4,1.8,3.2,3.2.8,1.4,1.2,3,1.2,4.8s-.4,3.4-1.2,4.8c-.8,1.4-1.9,2.4-3.2,3.2-1.4.7-2.9,1.1-4.5,1.1s-3.1-.4-4.5-1.1ZM189.4,115.2c.9-.5,1.7-1.2,2.2-2.2s.8-2.2.8-3.6-.3-2.6-.8-3.6-1.3-1.7-2.2-2.2c-.9-.5-1.9-.7-2.9-.7s-2,.2-2.9.7c-.9.5-1.6,1.2-2.1,2.2s-.8,2.2-.8,3.6.3,2.6.8,3.6c.5,1,1.2,1.7,2.1,2.2.9.5,1.8.7,2.9.7s2-.2,2.9-.7Z"/>
    <path class="st2" d="M199.4,97.2c-.4-.4-.6-.9-.6-1.4s.2-1,.6-1.4c.4-.4.9-.6,1.4-.6s1,.2,1.4.6c.4.4.6.9.6,1.4s-.2,1-.6,1.4c-.4.4-.8.6-1.4.6s-1-.2-1.4-.6ZM202.2,100.6v17.5h-2.9v-17.5h2.9Z"/>
    <path class="st2" d="M212.3,101.1c.9-.6,2.1-.8,3.5-.8v3h-.8c-3.3,0-4.9,1.8-4.9,5.3v9.5h-2.9v-17.5h2.9v2.8c.5-1,1.2-1.8,2.2-2.3Z"/>
    <path class="st2" d="M230.6,94.5v23.7h-2.9v-23.7h2.9Z"/>
    <path class="st2" d="M251.5,110.5h-14c.1,1.7.7,3.1,1.8,4,1.1,1,2.4,1.5,3.9,1.5s2.3-.3,3.2-.9c.8-.6,1.4-1.4,1.8-2.4h3.1c-.5,1.7-1.4,3.1-2.8,4.1-1.4,1.1-3.2,1.6-5.2,1.6s-3.2-.4-4.5-1.1c-1.3-.7-2.3-1.8-3.1-3.2-.7-1.4-1.1-3-1.1-4.8s.4-3.4,1.1-4.8c.7-1.4,1.7-2.4,3.1-3.2,1.3-.7,2.8-1.1,4.5-1.1s3.1.4,4.4,1.1c1.3.7,2.3,1.7,3,3,.7,1.3,1,2.7,1,4.3s0,1.1,0,1.8ZM247.8,105.2c-.5-.8-1.2-1.4-2-1.8-.8-.4-1.8-.6-2.8-.6-1.5,0-2.7.5-3.8,1.4-1,.9-1.6,2.2-1.8,3.9h11.1c0-1.1-.2-2.1-.7-2.9Z"/>
    <path class="st2" d="M266.5,117.8c-1.1-.5-1.9-1.1-2.5-1.9-.6-.8-1-1.8-1-2.8h3c0,.9.5,1.6,1.2,2.1.7.6,1.7.8,2.9.8s2-.2,2.6-.7c.6-.5,1-1.1,1-1.9s-.3-1.3-1-1.7c-.7-.4-1.7-.7-3.2-1.1-1.3-.3-2.4-.7-3.2-1-.8-.4-1.5-.9-2.1-1.6-.6-.7-.9-1.6-.9-2.7s.3-1.7.8-2.5,1.3-1.3,2.3-1.8c1-.4,2.1-.7,3.4-.7,1.9,0,3.5.5,4.7,1.5,1.2,1,1.8,2.3,1.9,4h-2.9c0-.9-.4-1.7-1.1-2.2-.7-.6-1.6-.8-2.7-.8s-1.9.2-2.5.7c-.6.4-.9,1-.9,1.8s.2,1.1.6,1.4c.4.4.8.7,1.4.9.6.2,1.3.5,2.4.8,1.3.3,2.3.7,3.1,1,.8.3,1.5.8,2,1.5.6.7.9,1.5.9,2.6,0,1-.3,1.8-.8,2.6-.5.8-1.3,1.4-2.3,1.8-1,.4-2.1.7-3.3.7s-2.5-.2-3.6-.7Z"/>
    <path class="st2" d="M280.7,97.2c-.4-.4-.6-.9-.6-1.4s.2-1,.6-1.4c.4-.4.9-.6,1.4-.6s1,.2,1.4.6c.4.4.6.9.6,1.4s-.2,1-.6,1.4c-.4.4-.8.6-1.4.6s-1-.2-1.4-.6ZM283.6,100.6v17.5h-2.9v-17.5h2.9Z"/>
    <path class="st2" d="M292.1,103v10.3c0,.9.2,1.5.5,1.8.4.4,1,.5,1.9.5h2.1v2.5h-2.6c-1.6,0-2.8-.4-3.6-1.1-.8-.7-1.2-2-1.2-3.7v-10.3h-2.3v-2.4h2.3v-4.4h2.9v4.4h4.6v2.4h-4.6Z"/>
    <path class="st2" d="M316.1,110.5h-14c.1,1.7.7,3.1,1.8,4,1.1,1,2.4,1.5,3.9,1.5s2.3-.3,3.2-.9c.8-.6,1.4-1.4,1.8-2.4h3.1c-.5,1.7-1.4,3.1-2.8,4.1-1.4,1.1-3.2,1.6-5.2,1.6s-3.2-.4-4.5-1.1c-1.3-.7-2.3-1.8-3.1-3.2-.7-1.4-1.1-3-1.1-4.8s.4-3.4,1.1-4.8c.7-1.4,1.7-2.4,3.1-3.2,1.3-.7,2.8-1.1,4.5-1.1s3.1.4,4.4,1.1c1.3.7,2.3,1.7,3,3,.7,1.3,1,2.7,1,4.3s0,1.1,0,1.8ZM312.4,105.2c-.5-.8-1.2-1.4-2-1.8-.8-.4-1.8-.6-2.8-.6-1.5,0-2.7.5-3.8,1.4-1,.9-1.6,2.2-1.8,3.9h11.1c0-1.1-.2-2.1-.7-2.9Z"/>
  </g>
  <g class="st3">
    <path d="M142.7,101.4c0,27.5-22.3,49.8-49.8,49.8s-49.8-22.3-49.8-49.8,22.3-49.8,49.8-49.8,49.8,22.3,49.8,49.8"/>
  </g>
  <path class="st1" d="M95.5,81.5h17.6v17.9M111.5,82.6l-21.8,22.5M87.4,89.3h-14.5v32h33.2v-13.7"/>
</svg>