<svg preserveAspectRatio="none" width="100%" height="100%" overflow="visible" style="display: block;" viewBox="0 0 62 62" fill="none" xmlns="http://www.w3.org/2000/svg">
<g id="Facebook" clip-path="url(#clip0_0_17)">
<path id="Vector" d="M62 31.1899C62 13.9616 48.1198 -0.003875 31 -0.003875C13.8725 0 -0.00775 13.9616 -0.00775 31.1938C-0.00775 46.7596 11.3305 59.6634 26.1485 62.0039V40.207H18.2822V31.1938H26.1562V24.3156C26.1562 16.4998 30.7869 12.183 37.8665 12.183C41.261 12.183 44.8066 12.7914 44.8066 12.7914V20.4639H40.8967C37.0489 20.4639 35.8476 22.8702 35.8476 25.3386V31.1899H44.4424L43.0706 40.2031H35.8437V62C50.6617 59.6595 62 46.7558 62 31.1899Z" fill="var(--fill-0, white)"/>
</g>
<defs>
<clipPath id="clip0_0_17">
<rect width="62" height="62" fill="white"/>
</clipPath>
</defs>
</svg>
