<svg preserveAspectRatio="none" width="100%" height="100%" overflow="visible" style="display: block;" viewBox="0 0 62 62" fill="none" xmlns="http://www.w3.org/2000/svg">
<g id="Instagram" clip-path="url(#clip0_0_396)">
<path id="Vector" d="M31 0C22.5874 0 21.5295 0.03875 18.2241 0.186C14.9188 0.341 12.6674 0.86025 10.695 1.6275C8.62515 2.40376 6.7508 3.62467 5.20413 5.20413C3.62467 6.7508 2.40376 8.62515 1.6275 10.695C0.86025 12.6635 0.337125 14.9187 0.186 18.2125C0.03875 21.5256 0 22.5796 0 31.0039C0 39.4204 0.03875 40.4744 0.186 43.7798C0.341 47.0813 0.86025 49.3326 1.6275 51.305C2.42187 53.3432 3.47975 55.0715 5.20413 56.7959C6.92463 58.5202 8.65288 59.582 10.6911 60.3725C12.6674 61.1397 14.9149 61.6629 18.2164 61.814C21.5256 61.9612 22.5796 62 31 62C39.4204 62 40.4705 61.9612 43.7798 61.814C47.0774 61.659 49.3365 61.1397 51.3089 60.3725C53.3773 59.5957 55.2503 58.3749 56.7959 56.7959C58.5202 55.0715 59.5781 53.3432 60.3725 51.305C61.1359 49.3326 61.659 47.0813 61.814 43.7798C61.9612 40.4744 62 39.4204 62 31C62 22.5796 61.9612 21.5256 61.814 18.2164C61.659 14.9188 61.1359 12.6635 60.3725 10.695C59.5962 8.62515 58.3753 6.7508 56.7959 5.20413C55.2492 3.62467 53.3749 2.40376 51.305 1.6275C49.3287 0.86025 47.0735 0.337125 43.7759 0.186C40.4666 0.03875 39.4165 0 30.9923 0H31ZM28.2216 5.58775H31.0039C39.2809 5.58775 40.2612 5.61488 43.5279 5.766C46.5504 5.90163 48.1934 6.40925 49.2861 6.83163C50.7315 7.3935 51.7661 8.06775 52.8511 9.15275C53.9361 10.2377 54.6065 11.2685 55.1684 12.7178C55.5946 13.8066 56.0984 15.4496 56.234 18.4721C56.3851 21.7388 56.4161 22.7191 56.4161 30.9923C56.4161 39.2654 56.3851 40.2496 56.234 43.5162C56.0984 46.5387 55.5908 48.1779 55.1684 49.2706C54.6679 50.6149 53.8751 51.8312 52.8472 52.8317C51.7622 53.9167 50.7315 54.5871 49.2823 55.149C48.1973 55.5753 46.5542 56.079 43.5279 56.2185C40.2612 56.3658 39.2809 56.4006 31.0039 56.4006C22.7269 56.4006 21.7426 56.3658 18.476 56.2185C15.4535 56.079 13.8144 55.5753 12.7216 55.149C11.3764 54.6501 10.1587 53.8586 9.15662 52.8317C8.12694 51.8305 7.33277 50.6127 6.83163 49.2667C6.40925 48.1779 5.90163 46.5349 5.766 43.5124C5.61875 40.2458 5.58775 39.2654 5.58775 30.9845C5.58775 22.7036 5.61875 21.731 5.766 18.4644C5.9055 15.4419 6.40925 13.7989 6.8355 12.7061C7.39738 11.2608 8.07162 10.2261 9.15662 9.14112C10.2416 8.05612 11.2724 7.38575 12.7216 6.82388C13.8144 6.39763 15.4535 5.89388 18.476 5.75438C21.3358 5.62263 22.444 5.58388 28.2216 5.58V5.58775ZM47.5501 10.7337C47.0616 10.7337 46.5779 10.83 46.1265 11.0169C45.6752 11.2039 45.2651 11.4779 44.9197 11.8233C44.5743 12.1687 44.3002 12.5788 44.1133 13.0302C43.9263 13.4815 43.8301 13.9652 43.8301 14.4538C43.8301 14.9423 43.9263 15.426 44.1133 15.8773C44.3002 16.3287 44.5743 16.7388 44.9197 17.0842C45.2651 17.4296 45.6752 17.7036 46.1265 17.8906C46.5779 18.0775 47.0616 18.1738 47.5501 18.1738C48.5367 18.1738 49.4829 17.7818 50.1806 17.0842C50.8782 16.3866 51.2701 15.4404 51.2701 14.4538C51.2701 13.4671 50.8782 12.5209 50.1806 11.8233C49.4829 11.1257 48.5367 10.7337 47.5501 10.7337ZM31.0039 15.0815C28.8923 15.0486 26.7952 15.436 24.8348 16.2213C22.8744 17.0066 21.0897 18.174 19.5848 19.6556C18.0799 21.1373 16.8848 22.9034 16.069 24.8514C15.2532 26.7993 14.8331 28.8901 14.8331 31.0019C14.8331 33.1138 15.2532 35.2046 16.069 37.1525C16.8848 39.1004 18.0799 40.8666 19.5848 42.3482C21.0897 43.8298 22.8744 44.9973 24.8348 45.7826C26.7952 46.5679 28.8923 46.9553 31.0039 46.9224C35.1832 46.8572 39.1693 45.1512 42.1018 42.1726C45.0342 39.194 46.6779 35.1818 46.6779 31.0019C46.6779 26.8221 45.0342 22.8098 42.1018 19.8313C39.1693 16.8527 35.1832 15.1467 31.0039 15.0815ZM31.0039 20.6654C32.361 20.6654 33.7049 20.9327 34.9588 21.4521C36.2126 21.9714 37.3519 22.7327 38.3116 23.6923C39.2712 24.652 40.0325 25.7913 40.5518 27.0451C41.0712 28.299 41.3385 29.6428 41.3385 31C41.3385 32.3572 41.0712 33.701 40.5518 34.9549C40.0325 36.2087 39.2712 37.348 38.3116 38.3077C37.3519 39.2673 36.2126 40.0286 34.9588 40.5479C33.7049 41.0673 32.361 41.3346 31.0039 41.3346C28.263 41.3346 25.6343 40.2458 23.6962 38.3077C21.7581 36.3696 20.6693 33.7409 20.6693 31C20.6693 28.2591 21.7581 25.6304 23.6962 23.6923C25.6343 21.7542 28.263 20.6654 31.0039 20.6654Z" fill="var(--fill-0, white)"/>
</g>
<defs>
<clipPath id="clip0_0_396">
<rect width="62" height="62" fill="white"/>
</clipPath>
</defs>
</svg>
