<svg id="Calque_1" xmlns="http://www.w3.org/2000/svg" viewBox="0 0 481.51 611.45"><defs><style>
      .cls-1 {
        fill: #010101;
      }
      .cls-2 {
        fill: #faeb52;
      }
      .cls-3 {
        fill: #b1d44b;
      }
      .cls-4 {
        fill: #fff;
      }
    </style></defs><g><path class="cls-3" d="M235.46,134.18c2.44,119.07,155.33,114.55,196.89,50.47,17.22-26.57,15.72-61.85,5.23-90.61-10.33-28.31-28.56-54.79-55.11-70.05-85.74-49.26-148.29,47.82-147.01,110.19Z"></path><path class="cls-3" d="M87.73,153.83C33.82,171.07-4.58,225.36.44,282.29c5.18,58.83,54.12,115.92,117.11,111.61,69.13-4.71,95.61-74.05,83.85-141.72-12.43-71.58-43.93-120.61-113.68-98.33v-.02Z"></path><path class="cls-3" d="M76.25,178.02c67.97,109.6,238.13,95.82,235.93-39.09-.53-32.14-13.59-62.14-34.39-86.29C237.58,5.94,161.39-19.83,107.27,18.73c-51.5,36.69-64.2,105.8-31.02,159.29Z"></path><path class="cls-3" d="M263.11,365.91c4.45,59.19,63.42,95.41,119.42,83.92,54.86-11.26,104.45-69.59,98.49-126.91-12.96-124.51-227.39-82.7-217.91,42.98Z"></path><path d="M74.65,329.7c-6.54,1.14-4.98,12.47,1.57,11.6,20.74-2.74,41.79-2.19,62.3,2.17,10.28,2.19,20.77,5,30.32,9.44,5.03,2.35,10.1,5.73,15.38,8.13,6.65,8.15,13.73,15.95,21.23,23.35,8.15,8.02,16.74,15.54,25.73,22.6,2.65,2.08,5.55,4.73,8.61,7.13,1.01,22.27,2.37,44.51,3.33,66.76.84,19.71,1.51,39.43,1.33,59.15-.11,11.01-.44,22.02-1.14,32.99-.66,10.4-1.05,17.61,5.28,26.46,2.99,4.18,8.27,5.19,12.22,1.58,3.5-3.2,7.59-7.5,8.89-12.2,1.49-5.44,1.14-11.95,1.46-17.57.62-10.99.91-21.98.94-32.99.09-22.07-.82-44.11-2.08-66.12-1.16-20.15-2.6-40.42-3.73-60.73,9.48-3.04,19.05-8.98,26.53-13.16,12.93-7.24,25.04-15.72,36.23-25.43,22.94-19.95,40.62-44.05,53.5-71.55,1.74-3.68-3.25-6.72-5.51-3.22-15.15,23.55-35.07,44.91-57.3,61.94.25-2.38.52-4.68.87-6.7,2.35-13.25,3.56-26.53,5.62-39.8.52-3.38-4.21-4.86-5.23-1.44-3.75,12.77-8.31,25.2-11.81,38.08-1.65,6.06-5.41,14.33-6.4,21.84-6.12,3.98-12.41,7.7-18.83,11.1-5.62,2.97-11.36,5.73-17.2,8.25-.48.2-.98.39-1.46.59-1.92-43.93-1.51-87.89,7.22-131.11,11.58-57.28,35.84-116.68,82.71-153.92,5.1-4.05-1.6-12.5-6.9-8.95-28.47,19.14-52.43,44.3-69.2,74.27-19.69,35.14-30.52,74.32-35.96,114.26-6.24-17.8-13.71-35.34-21.75-52.27-1.46-3.08-2.97-6.12-4.5-9.16,1.19-13.64,1.16-27.14,3.52-40.81,2.44-14.16,7.95-27.67,9.91-41.85.34-2.4-2.63-5.1-4.64-2.7-9.83,11.67-14.55,28.06-17.98,42.7-1.42,6.14-2.7,12.64-3.57,19.26-18.96-32.26-42.13-62.05-68.47-88.58-5.12-5.18-12.91,2.69-7.95,7.95,33.13,35.18,59.9,75.57,80.3,119.35,10.28,22.09,17.84,44.75,24.06,68.27,2.61,9.89,4.86,19.87,6.78,29.9-.23,6.81-.37,13.6-.41,20.36-.05,10.14.11,20.26.39,30.38-7.26-6.12-14.25-12.57-20.9-19.35-15.08-15.38-28.69-32.37-40.33-50.49-23.6-36.72-39.02-78.04-48.25-120.6-1.19-5.53-10.07-4.25-9.82,1.33,2.05,46.38,17.89,90.82,42.47,129.99,1.14,1.81,2.31,3.59,3.49,5.37-8.11-2.47-16.27-4.66-24.68-6.12-22.02-3.82-44.16-3.57-66.16.28l-.02-.02Z"></path></g><g><polygon class="cls-4" points="70.9 608.55 69.91 590.81 73.89 581.58 83.21 580.86 86.83 588.28 87.37 595.61 97.84 594.9 111.24 563.98 124.17 549.75 130.4 549.75 150.04 560.69 144.63 577.61 127.35 571.62 116.53 595.01 146.86 594.31 159.09 608.2 124.38 609.18 82.13 609.65 72.04 610.28 70.9 608.55"></polygon><polygon class="cls-4" points="242.56 554.91 256.8 582.43 264.01 602.31 275.73 605.79 285.45 605.18 287.6 601.71 281.54 597.13 274.11 596.66 267.38 579.89 248.64 538.32 242.56 554.91"></polygon><g><path class="cls-2" d="M257.45,553.63c-2.38-4.9-4.52-9.71-7.87-14.57-.27.35-.38.96-.36,1.68-2.19,5.15-3.84,10.81-4.26,16.9-.09,1.31.44,2.41,1.09,3.8l6.4,14.73c-3.38,7.32-7.27,14.48-11.93,21.31-5.19,7.62-20.01,12.49-28.92,13.14l-8.19.59c-5.2.38-10.2.19-15.42.07l-17.75-.4c-3.84-.09-7.52-1.34-10.98-2.12l-2.18-.98c-5.71-2.56-9.3-7.29-12.52-12.57l-1.13-2.64c-1.44-3.87-1.94-11.05-1.62-14.77.09-.98.36-2.79.61-3.84,1.09-4.58,2.67-8.97,5.18-12.94l1.78-2.82,10.2-10.64c7.58-7.91,12.88-19.55,17.78-29.17.71-1.39,1.21-3.04,1.53-4.37.98-.06,1.86-.45,2.45-.8l13.85-8.07,17.19-9.92c7-4.04,13.63-8.13,19.94-12.83,8.27,2.23,15.06,7.88,18.16,16.18,2.79,7.47,4.3,15.01,4.81,23.08,2.14,10.67,3.62,21.4,2.16,31.95Z"></path><path d="M232.32,482.42c-6.31,4.7-12.93,8.79-19.94,12.83l-17.19,9.92-13.85,8.07c-.59.35-1.47.73-2.45.8l-4.77,1.14c-.42.1-1.46-.98-1.32-1.38s.52-1.69.93-1.99l8.46-6.15c-1.33-7.34-4-15.56,2-21.72,6.49-6.67,9.89-8.45,18.69-10.21,7.31-1.46,16.44.17,20.97,6.51l9.07-4.37c.78-.38,2.3-.25,2.82.28,1.94,1.95-1.41,4.78-3.4,6.27Z"></path><path d="M149.38,558.21l-1.78,2.82c-4.23-2.53-16.71-11.74-21.82-9.62-5,2.08-7.58,6.56-10.84,10.46-4.53,5.43-6.24,12.17-9.35,18.46l-6.85,13.84,13.08-.13c1.36-.01,3.49-.41,4.68-.53.56-4.4,3.25-9.87,5.56-13.67l4.32-7.12c1.21-1.99,3.83-2.44,5.96-1.79l10.08,3.04c-.25,1.05-.53,2.86-.61,3.84l-5.19-1.89c-2.43-.88-4.58-1.63-7.36-2.1l-8.89,14.69-2.84,5.09c3.33,0,6.26-.26,9.56-.36l10.84-.36,5.5-.3,1.13,2.64c-.84.25-2.22.59-3.19.61l-4.48.11-8.77.24c-8.78.24-17.27.28-26.14.02-4.29-.12-9.25-.72-13.19-.19-.6.08-1.79,1.49-2.12,1.08-.29-.36-.87-1.47-.91-1.93l-.52-5.94c-.15-1.68-.2-4.59-1.42-5.75-2.8-2.68-8.06-2.47-10.19.79-1.83,2.81-2.65,9.94-2.48,12.02l.45,5.55.56,8.12,8.04-.97c1.97-.24,4.09-.5,6.08-.51l59.45-.38,11.35-.29,2.18.98c-2.97.54-5.99.42-9.28.64l-7.1.48-53.35.17c-1.9,0-16.08,2.04-18.89-.02-.56-.41-.75-1.87-.86-2.74l-.66-5.48c-.7-5.83-.68-11.25,1.41-16.9s8.19-6.45,12.64-5.21c3.81,1.06,4.54,5.07,4.8,8.36l.54,6.62c2.66-.31,5.78-.52,8.82-.54l6.45-15.51c2.72-6.53,4.87-13.13,9.2-18.7,2.69-3.47,5.31-6.66,8.43-9.57,2.32-2.17,4.95-2.89,8.04-2.25s6.08,1.59,8.81,3.18c3.91,2.28,7.63,4.43,11.13,6.91Z"></path><path d="M257.45,553.63l5.88,13.48c4.15,9.52,8.39,18.89,11.25,28.73,4.99-.29,11.25.8,13.64,5.34.57,1.08-.6,3.43-1.44,4.24-3.22,3.1-22.2.64-24.38-3.79-4.47-9.12-5.52-17.67-9.97-25.45l-6.4-14.73c-.64-1.39-1.18-2.49-1.09-3.8,1.67,1.02,7.07,10.68,8.17,12.93,4.38,8.98,7.64,18.1,10.69,27.55,1.01,3.12,3.53,4.78,6.73,5.33,8.21,1.39,7.12,2.06,14.55.89.67-.11,1.47-1.8,1.61-2.47-4.2-5.54-11.25-2.48-14.68-6.45-2.82-8.85-6.24-16.99-9.97-25.47l-6.46-14.73c-2.19-4.98-3.89-9.9-6.37-14.48-.02-.73.09-1.33.36-1.68,3.36,4.86,5.49,9.67,7.87,14.57Z"></path><path d="M137.08,489.18c-1.76,1.98-13.56,2.33-17.08,2.01-1.31-.12-2.45-3.08-1.66-3.91l8.09-8.46-9.18,1.52c-.47.08-1.57-.49-1.84-.77s.84-1.13,1.24-1.25l19.67-6.16c.61-.19,1.35,1.92,1.08,2.51s-.93,1.65-1.51,2.1l-6.83,5.33c-2.38,1.86-4.25,3.79-6.69,6.08l14.33-1.29c.55,0,.74,1.88.38,2.28Z"></path><path class="cls-1" d="M156.52,473.42l-5.19.36c-1,.07-2.66-1.02-3.17-1.8-.63-.97-.38-3.26.43-4.11l3.6-3.77c-2.84.3-4.8.68-7.77.54,3.5-3.04,7.54-2.91,11.72-3.62.62,1.89.22,3.78-.99,5.07l-3.27,3.5,6.3-.52c.84-.07,1.2,1.94.89,2.83-.26.74-1.64,1.45-2.56,1.52Z"></path><path class="cls-1" d="M175.24,458.59c-3.29,2.27-11.91.71-10.08-2.21l1.57-2.49c-1.16-.12-2.36-.38-3.03-1.37,2.84-1.61,5.69-1.82,8.83-1.28-.66,2.63-2.13,3.47-4.18,5.22l5.6-.34c.37-.02,1,.1,1.33.18s.23,2.09-.05,2.28Z"></path></g></g></svg>