<svg width="100%" height="100%" viewBox="0 0 9442 6200" version="1.1" xmlns="http://www.w3.org/2000/svg" xmlns:xlink="http://www.w3.org/1999/xlink" xml:space="preserve" style="fill-rule:evenodd;clip-rule:evenodd;stroke-linecap:round;stroke-linejoin:round;stroke-miterlimit:1.5;"><path d="M3579.99,446.725l-213.406,274.958l-22.463,348.188l-56.159,292.029l-146.015,224.638l168.478,11.232l213.406,44.928l-56.159,269.565l-258.333,258.333l-89.855,314.493l-11.232,494.203l123.551,120.707l-33.696,373.495l-67.391,482.971l-261.583,123.551l-120.301,775l0,494.203l303.261,404.055l550.362,157.539l359.42,-157.539l67.391,-516.374l89.855,-685.145l303.261,-213.406l298.453,348.188l218.214,-22.463l374.553,-202.174l243.201,56.159l348.188,-44.927l134.783,-471.739l190.942,-449.275l-44.928,-763.768l-269.565,-190.942l-426.812,-190.942l89.855,-471.739l112.319,-584.058l-190.943,-235.87l-187.041,-89.855l-397.016,-146.014l280.797,-432.205l-718.841,0l-146.015,-196.781l-404.348,11.232l-348.188,185.549Z" style="fill:#fff;stroke:#000;stroke-width:1px;"></path><g><path d="M4171.19,2980.149c-105.278,1.336 -204.066,-51.02 -265.826,-136.132c-96.4,-85.349 -135.849,-217.287 -159.199,-340.021c-12.128,-46.108 -30.428,-89.424 -49.338,-132.986c-27.541,-82.281 -27.43,-107.967 -49.166,-178.12c-27.341,-111.264 -10.922,-226.51 -16.986,-339.782c-15.679,-71.458 -14.429,-143.531 -0.64,-215.338c-0.569,-44.706 -3.318,-89.335 -1.988,-134.047c6.13,-82.352 -16.614,-165.101 0.805,-247.305c21.626,-129.855 74.013,-272.333 208.053,-320.595c45.672,-189.224 224.771,-368.104 429.529,-287.479c58.993,21.096 107.556,58.825 161.82,88.473c67.644,33.666 125.537,81.597 196.664,107.959c66.53,28.405 105.587,95.515 171.947,122.953c95.199,30.073 159.262,115.012 254.054,143.298c225.396,91.065 406.609,303.728 446.218,545.293c21.8,191.559 -52.157,376.821 -113.054,554.75c-51.57,140.525 -166.399,249.771 -288.828,330.885c-94.393,51.496 -192.966,95.504 -292.752,135.457c-103.617,27.302 -194.514,76.326 -281.651,138.038c-105.124,74.377 -212.225,173.422 -349.661,164.699Z" style="fill:#f8eb1c;fill-rule:nonzero;"></path><path d="M4922.289,533.655c18.714,71.938 -123.016,114.062 -169.03,149.41c-165.475,104.437 -327.63,213.904 -488.075,325.786c-159.606,93.402 -320.386,184.893 -476.973,283.327c-67.948,43.599 -139.752,81.362 -203.205,131.535c-59.798,39.876 -116.712,120.534 -196.598,100.848c-118.121,-52.353 58.054,-179.695 118.656,-203.474c12.677,-7.512 25.119,-8.619 31.19,-20.189c-3.89,-34.108 -18.781,-66.17 -24.55,-100.043c-21.9,-96.152 -18.915,-194.686 -5.064,-291.777c6.976,-74.521 38.702,-145.319 89.68,-200.153c117.65,-126.035 285.171,-188.884 446.353,-239.359c124.425,-40.95 273.031,-29.145 377.635,54.264c47.423,35.08 92.966,75.392 108.528,134.586c108.26,-65.398 216.99,-137.638 340.811,-168.795c23.678,0.268 42.022,24.147 50.642,44.035Z" style="fill-rule:nonzero;"></path><path d="M3809.239,2944.916c20.861,28.776 32.397,67.948 29.346,103.296c-8.821,44.874 -77.741,78.412 -113.526,44.438c-30.15,37.697 -79.182,59.966 -127.242,48.697c-139.684,-17.004 -159.237,-156.454 -100.043,-263.07c3.89,-8.787 8.216,-17.272 12.878,-25.456c-9.794,-10.262 -20.324,-19.821 -31.694,-28.272c-35.114,27.3 -84.112,38.568 -124.324,15.427c-65.432,-24.851 -86.595,-93.503 -90.25,-157.627c-8.217,-48.093 3.32,-95.851 22.537,-139.55c-4.461,-0.068 -8.854,-1.745 -12.678,-5.501c-79.115,-114.297 74.219,-201.26 91.96,-139.718c45.78,-62.548 102.089,-118.153 157.863,-171.076c35.516,-31.257 67.679,-65.868 99.774,-100.579c8.418,-10.766 25.791,-13.114 34.377,-1.241c21.431,31.056 -17.037,55.371 -34.745,76.701c-35.919,40.212 -77.506,74.689 -116.04,112.285c-86.561,86.795 -165.912,185.933 -195.76,307.172c-0.1,45.88 -0.839,100.009 27.4,138.343c23.577,21.699 59.529,42.559 91.122,30.05c-2.717,-5.568 -3.756,-11.872 -2.751,-18.278c-36.69,-38.804 -74.655,-85.589 -64.526,-141.429c4.595,-64.325 72.542,-121.138 134.721,-87.567c52.621,-62.582 116.578,-117.684 182.345,-165.24c36.691,-5.869 33.739,46.751 7.412,59.127c-42.794,36.556 -87.03,71.871 -126.974,111.547c-4.796,4.092 -9.256,9.256 -13.616,14.824c6.909,4.695 11.269,13.818 9.558,27.735c23.945,34.812 45.544,71.167 66.773,107.69c4.259,4.896 8.15,11.369 11.034,18.412c31.424,-27.132 138.947,-151.757 158.835,-104.939c9.223,16.97 1.375,41.151 -17.071,47.758c-22.806,16.199 -43.062,35.583 -63.99,54.063c-53.795,56.544 -122.312,101.854 -161.451,170.539c-53.694,86.158 -56.243,187.743 66.203,200.187c26.16,6.808 93.805,-18.58 71.502,-51.883c-27.333,3.354 -42.928,-26.529 -56.209,-45.779c-17.574,-27.702 -41.453,-58.423 -29.949,-93.068c14.589,-55.673 72.072,-46.618 109.635,-19.787c5.568,-19.351 28.91,-39.172 42.928,-51.178c20.056,-13.315 37.696,-40.648 63.588,-39.474c20.391,5.098 20.223,31.392 10.195,45.98c-7.579,10.498 -19.553,16.635 -29.245,24.986c-14.656,8.116 -33.034,33.873 -50.541,46.114c21.733,13.28 44.269,25.555 60.636,45.343Z" style="fill-rule:nonzero;"></path><path d="M3459.823,4833.688c-31.327,-5.332 -19.677,-47.42 -23.945,-70.229c-1.417,-29.913 -3.569,-59.626 -7.781,-89.277c-8.704,-80.147 0.317,-160.779 -2.379,-241.17c-1.855,-65.163 -3.437,-130.377 0.736,-195.491c3.968,-66.039 -4.33,-131.689 -6.174,-197.638c0.976,-85.711 3.924,-171.327 -7.072,-256.63c-4.759,-63.254 6.078,-126.012 8.895,-189.082c2.271,-95.897 1.447,-191.861 4.758,-287.723c1.629,-130.584 -1.134,-261.134 3.949,-391.689c4.65,-35.706 -10.539,-94.162 13.922,-120.799c21.423,-19.374 46.011,9.748 35.645,32.328c-0.952,66.136 -1.094,132.302 -3.821,198.421c32.872,-4.069 27.196,38.401 27.942,59.919c0.096,44.167 4.711,88.036 9.998,131.87c11.889,93.495 -18.059,186.231 -18.838,279.858c-1.156,104.754 -4.963,209.553 -1.488,314.262c-0.154,93.572 15.32,186.168 14.421,279.704c-0.085,131.821 7.427,263.532 4.859,395.309c-0.644,85.842 -6.958,171.347 -18.507,256.4c-7.785,29.979 5.369,85.216 -35.12,91.655Z" style="fill-rule:nonzero;"></path><path d="M3473.591,2979.713c-5.982,-47.877 -33.514,-197.165 27.304,-213.064c27.714,-1.894 31.332,37.836 13.836,52.852c-5.135,55.232 -16.938,110.031 -41.067,160.277c-0.038,0 -0.068,-0.027 -0.073,-0.065Z" style="fill-rule:nonzero;"></path><path d="M3440.263,4944.525c-66.25,-8.091 -90.095,-125.099 -24.481,-150.618c19.274,-5.975 37.133,3.65 54.371,11.075c16.283,-0.373 30.994,9.952 37.995,24.31c20.084,44.289 -15.603,117.594 -67.885,115.233Z" style="fill-rule:nonzero;"></path><path d="M3435.518,4860.777c-22.203,-25.129 19.291,-84.974 44.267,-49.331c16.048,23.734 -18.952,74.398 -44.267,49.331Z" style="fill-rule:nonzero;"></path><path d="M3902.977,4836.476c-0.369,-112.251 -10.732,-224.77 -23.007,-336.35c-20.257,-119.763 -40.413,-244.255 -98.936,-352.146c-66.304,-101.251 -146.359,-209.778 -260.119,-258.576c-65.734,9.558 -121.44,42.828 -175.469,81.731c-60.3,36.523 -113.357,82.067 -153.469,140.456c-68.786,108.83 -123.688,227.319 -167.856,348.189c-25.857,107.623 -61.474,212.898 -85.857,320.688c-15.729,112.72 -29.614,226.547 -14.857,340.173c19.486,153.032 70.128,299.995 148.271,432.837c72.81,99.372 223.361,121.138 337.791,139.651c140.859,13.851 245.127,-100.713 309.989,-212.36c56.612,-96.287 81.798,-204.982 117.282,-309.755c33.034,-109.165 51.044,-221.751 66.237,-334.538Zm39.172,-193.714c5.6,86.125 19.418,176.71 -0.671,261.493c-16.266,126.068 -45.243,250.192 -88.305,369.821c-56.209,208.403 -193.814,488.677 -444.777,478.952c-126.47,-16.936 -305.864,-48.495 -378.607,-164.167c-47.188,-86.527 -93.638,-174.262 -115.705,-271.052c-59.764,-187.342 -54.297,-387.495 -16.501,-578.659c27.065,-93.939 53.359,-188.08 77.607,-282.823c56.913,-159.807 159.74,-410.904 302.879,-504.575c67.512,-42.089 175.638,-134.62 256.899,-120.937c90.183,31.927 158.03,110.238 218.565,181.372c84.515,99.539 128.383,222.757 152.228,349.597c20.827,92.296 32.23,186.504 36.389,280.979Z" style="fill-rule:nonzero;"></path><path d="M4669.381,2792.218c-29.714,23.107 -64.728,42.727 -79.954,51.178c-29.949,16.668 -63.487,24.65 -94.006,39.91c-19.016,6.707 -38.468,16.936 -58.356,23.611c-32.733,48.864 -88.339,101.485 -104.671,123.419c-38.099,43.062 -74.32,87.667 -109.367,133.178c-55.27,76.5 -110.004,153.402 -164.167,230.672c-49.904,81.53 -143.574,159.673 -131.635,263.036c10.665,74.118 63.722,136.163 139.316,147.733c42.995,14.69 226.882,0.738 148.404,84.415c-52.923,28.238 -107.12,59.026 -140.959,109.635c103.699,115.739 244.725,-41.621 351.073,-80.021c-58.222,-53.359 -100.781,-121.541 -153.536,-179.595c-32.398,-34.141 -67.579,-65.6 -101.519,-98.098c-8.35,-8.686 -13.28,-24.415 -11.134,-36.857c-28.508,-31.291 47.12,-98.165 59.563,-129.321c105.208,-161.518 230.068,-309.755 325.617,-477.376c42.56,-68.015 87.534,-134.687 125.331,-205.519Zm119.998,1253.639c41.251,-37.629 97.628,-54.029 142.837,-85.353c-55.505,-181.606 -110.171,-363.615 -154.575,-548.308c-39.34,-184.356 -63.185,-371.664 -86.092,-558.805c-9.726,17.305 -19.754,34.41 -30.117,51.313c-52.621,82.536 -104.034,165.709 -154.743,249.419c-62.515,87.802 -129.49,179.561 -190.729,267.028c-38.065,50.374 -70.06,104.671 -106.214,156.387c-3.22,4.293 -6.439,9.591 -9.927,14.723c15.293,9.022 26.897,26.227 40.815,36.791c68.048,59.294 120.937,132.406 177.683,201.964c19.117,28.876 67.209,51.178 73.247,85.756c12.811,4.728 18.278,19.686 25.589,30.418c22.169,46.316 60.368,128.718 15.428,168.092c62.883,12.342 126.504,13.347 189.287,23.04c7.747,1.039 24.281,1.811 44.873,2.917c-5.869,-34.007 1.543,-71.435 22.639,-95.381Zm394.671,-19.955c6.641,-3.086 12.678,-4.896 18.178,-5.634c-20.424,-50.843 -37.193,-103.062 -49.535,-156.219c-47.288,-194.082 -22.873,-388.702 1.375,-584.092c10.464,-87.969 38.702,-172.049 75.427,-252.404c-85.957,-104.37 -172.585,-208.001 -270.717,-301.571c-3.857,-2.851 -7.579,-6.942 -10.732,-11.705c3.22,253.813 56.512,503.602 106.952,751.546c27.132,130.361 56.745,260.186 88.807,389.44c10.262,56.008 32.062,119.495 25.489,177.75c4.796,-2.583 9.726,-4.963 14.756,-7.11Zm462.552,-462.552c0.537,-6.942 -0.301,-13.885 -1.811,-20.659c-1.476,2.683 -2.683,6.406 -2.783,9.156c0.1,-0.638 0.167,-1.275 0.268,-1.912c-0.067,1.308 -0.167,2.616 -0.268,3.924c0.033,0.671 0.067,1.308 0.1,1.946c1.677,2.415 3.119,4.896 4.494,7.546Zm395.812,-95.616c-0.47,-208.303 -0.872,-542.673 -215.48,-648.284c-98.835,-41.185 -213.199,-58.523 -318.172,-33.002c-104.001,55.706 -167.621,131.804 -215.546,237.145c10.229,11.638 20.659,23.141 31.29,34.443c70.128,87.098 143.81,171.345 212.059,259.951c10.598,18.043 77.271,113.391 92.497,166.783c83.677,-21.8 100.781,182.747 -5.936,155.045c-37.629,-11.235 -58.691,-59.463 -35.416,-92.832c-39.44,-50.843 -57.45,-113.693 -88.707,-169.232c-50.742,-75.828 -105.342,-149.645 -162.457,-220.947c-22.571,-26.729 -44.873,-53.694 -67.142,-80.691c-30.351,69.322 -54.029,141.563 -63.755,216.888c-12.912,145.018 -43.934,292.248 -23.006,437.467c12.677,174.764 82.804,337.925 174.831,485.156c53.157,66.404 157.93,141.73 244.96,142.099c188.75,-32.196 292.315,-214.842 341.011,-384.476c53.795,-164.234 87.065,-333.097 98.97,-505.514Zm44.873,-197.537c21.599,227.654 -10.262,459.466 -79.786,676.824c-50.005,206.089 -172.216,448.333 -408.523,468.321c-100.713,-9.491 -198.811,-80.256 -266.289,-152.564c-14.555,-21.396 -28.607,-43.297 -41.989,-65.633c-0.671,7.714 -2.516,15.394 -5.836,23.074c-50.944,77.438 -172.686,80.156 -255.323,104.638c-50.105,2.549 -158.465,90.786 -188.851,52.151c-14.522,-27.4 -18.311,-73.883 -9.759,-116.174c-10.43,-0.604 -20.827,-1.442 -31.257,-2.482c-81.463,-11.57 -158.935,-42.828 -238.922,-61.676c-13.851,-0.335 -27.702,-0.838 -41.587,-1.576c-17.674,10.33 -34.175,-8.887 -32.464,-26.461c-10.397,-4.125 -15.797,-12.912 -17.104,-22.537c-56.176,23.778 -112.888,46.315 -168.393,71.603c-57.35,20.559 -115.269,87.735 -179.226,59.798c-33.135,-20.76 -71.838,-109.501 -80.826,-148.472c-3.656,-23.308 7.915,-45.075 26.663,-56.678c-85.42,-61.542 -27.836,-136.264 63.017,-197.906c-76.566,-6.607 -163.395,-22.873 -208.604,-91.86c-41.285,-63.621 -63.454,-148.069 -29.178,-219.404c26.026,-74.387 81.094,-132.944 124.694,-197.303c64.896,-91.759 128.55,-184.491 196.933,-273.701c40.647,-56.679 91.691,-105.577 136.8,-158.768c-6.976,2.549 -14.086,4.159 -21.532,3.958c-19.216,-1.409 -24.382,-24.047 -19.049,-39.441c28.34,-57.047 116.946,-84.18 170.137,-116.644c49.971,-31.392 98.501,-72.14 161.215,-72.241c3.488,-18.882 22.169,-32.397 37.597,-30.15c4.192,-5.635 10.027,-9.793 16.97,-10.732c28.071,-0.202 26.763,34.276 28.742,60.334c18.512,6.674 19.653,35.516 6.774,49.301c26.629,212.294 50.576,425.627 97.227,634.601c44.672,178.42 96.756,354.896 151.087,530.566c12.107,88.976 -111.68,98.534 -161.618,146.292c-9.089,26.227 -6.272,44.237 3.487,55.639c28.206,2.414 56.646,5.97 77.607,11.705c7.412,-1.912 14.757,-4.361 21.766,-7.312c65.096,-29.748 127.51,-65.365 193.009,-93.906c21.062,-86.93 -29.111,-198.342 -44.135,-286.244c-70.462,-319.648 -149.813,-640.637 -168.326,-968.368c-2.347,-50.441 -6.607,-101.184 -1.207,-151.557c1.308,-9.793 6.741,-20.659 15.461,-25.757c-6.439,-36.523 56.578,-47.858 81.53,-66.036c36.69,-25.723 146.459,-75.593 129.791,11.94c-28.91,46.852 -89.043,62.346 -137.17,87.198c12.509,15.561 26.596,31.727 37.227,44.371c80.96,87.466 149.881,184.725 225.642,276.317c10.531,-20.861 21.531,-41.486 32.8,-61.81c50.474,-86.595 134.285,-167.42 233.155,-192.171c122.781,-16.937 254.685,4.192 362.274,66.974c151.087,106.247 192.104,306.535 205.351,479.959Z" style="fill-rule:nonzero;"></path><path d="M4742.231,4501.574c-57.722,3.032 -109.963,-26.185 -134.826,-78.708c-23.514,-41.536 -49.17,-82.055 -68.123,-125.969c-62.559,-167.509 15.588,-364.847 134.462,-488.207c43.804,-45.071 103.394,-67.632 157.357,-97.597c19.749,-7.871 40.282,-31.854 62.619,-19.99c34.443,40.426 -38.197,66.257 -65.636,82.338c-45.25,24.422 -94.311,44.079 -130.259,82.162c-88.571,94.098 -144.174,230.139 -127.603,360.123c13.25,68.424 56.041,126.282 89.752,185.921c37.71,60.725 120.04,38.577 179.207,32.346c119.649,-9.157 217.73,-77.816 302.984,-157.251c71.986,-62.14 140.184,-128.582 210.586,-192.503c134.963,-126.168 292.921,-240.804 381.998,-406.287c25.581,-54.648 22.385,-118.104 -12.519,-167.97c-75.598,-90.191 -233.804,-44.311 -330.111,-13.395c-83.762,28.519 -166.721,59.432 -248.378,93.542c-23.547,7.25 -42.569,21.816 -63.623,32.425c-14.724,2.414 -25.187,-11.202 -24.722,-24.958c-2.079,-53.061 160.217,-88.625 204.885,-112.683c91.045,-31.983 181.798,-71.928 278.497,-82.299c67.992,-3.837 144.97,-7.634 199.913,39.574c97.813,90.996 68.381,242.494 -8.411,337.324c-122.07,161.85 -285.848,284.963 -431.968,423.675c-181.583,166.936 -290.928,295.478 -556.084,298.385Z" style="fill-rule:nonzero;"></path><path d="M6335.163,2203.399c-15.088,-45.634 125.185,-102.371 156.696,-141.522c105.247,-82.567 197.205,-180.921 280.666,-285.209c-218.158,-46.77 -181.596,-312.459 20.034,-351.782c143.297,-10.142 150.438,201.335 86.92,289.323c335.952,-64.859 549.976,-360.682 805.615,-561.91c100.832,-76.412 88.758,-67.836 14.994,21.397c-111.716,146.235 -252.461,265.971 -393.197,383.201c-133.852,113.452 -293.309,206.88 -471.174,222.55c-89.08,117.953 -189.915,228.15 -304.955,321.232c-47.355,38.814 -96.559,75.21 -148.006,108.428c-11.802,18.16 -42.447,18.405 -47.594,-5.709Zm480.206,-483.248c51.003,-60.796 92.523,-194.695 1.036,-235.73c-182.364,13.25 -198.588,229.254 -1.036,235.73Z" style="fill-rule:nonzero;"></path><path d="M5601.95,4207.671c-75.678,-10.904 -137.285,-59.882 -182.914,-118.956c-54.413,-66.31 -79.641,-149.62 -95.752,-232.482c-14.961,-67.178 -29.421,-133.982 -32.701,-202.736c-5.079,-108.8 -3.11,-218.147 6.137,-326.658c8.269,-49.948 34.167,-232.496 79.487,-250.123c7.311,-2.381 13.046,4.863 13.985,11.302c1.14,7.445 -2.382,15.192 -9.625,17.875c-3.057,2.168 -4.513,6.068 -6.585,9.116c-23.208,49.332 -33.458,103.726 -44.258,156.796c-17.851,96.778 -16.963,195.497 -17.572,293.556c-0.875,80.392 7.265,162.35 25.189,240.397c19.831,99.392 42.933,203.87 114.448,279.749c42.753,49.2 97.319,86.289 157.271,111.101c14.136,6.462 28.343,12.892 42.86,18.211c-16.136,-0.403 -33.634,-3.866 -49.969,-7.147Z" style="fill-rule:nonzero;"></path><path d="M3322.459,5587.616c-90.013,-8.678 -177.386,-32.067 -232.488,-109.463c-44.944,-64.642 -64.512,-144.402 -77.599,-221.081c-35.657,-211.379 -19.561,-335.866 35.342,-541.099c14.031,-46.966 81.295,-334.507 119.766,-331.453c14.043,-0.77 4.442,27.087 -0.404,33.196c-29.545,59.838 -45.486,125.126 -64.924,188.668c-37.16,139.44 -79.686,279.45 -85.484,424.523c-1.1,59.408 5.378,118.503 13.541,177.268c10.006,82.277 27.835,166.504 70.215,238.568c61.383,95.206 177.436,117.52 278.812,146.344c-18.335,-0.768 -38.039,-3.276 -56.778,-5.47Z" style="fill-rule:nonzero;"></path></g></svg>