<svg width="100%" height="100%" viewBox="0 0 9442 6200" version="1.1" xmlns="http://www.w3.org/2000/svg" xmlns:xlink="http://www.w3.org/1999/xlink" xml:space="preserve" style="fill-rule:evenodd;clip-rule:evenodd;stroke-linecap:round;stroke-linejoin:round;stroke-miterlimit:1.5;"><clipPath id="_clip1"><rect x="1700.58" y="402.505" width="4773.738" height="5394.991"></rect></clipPath><g clip-path="url(#_clip1)"><path d="M5681.629,590.482l203.342,261.991l21.404,331.768l53.511,278.257l139.129,214.044l-160.533,10.702l-203.342,42.809l53.511,256.853l246.15,246.15l85.618,299.662l10.702,470.897l-117.725,115.015l32.107,355.882l64.213,460.195l249.247,117.725l114.628,738.452l0,470.897l-288.96,385.001l-524.408,150.11l-342.47,-150.11l-64.213,-492.023l-85.618,-652.835l-288.96,-203.342l-284.379,331.768l-207.923,-21.404l-356.89,-192.64l-231.732,53.511l-331.768,-42.808l-128.427,-449.493l-181.938,-428.088l42.809,-727.75l256.853,-181.938l406.684,-181.938l-85.618,-449.493l-107.022,-556.515l181.938,-224.747l178.22,-85.618l378.293,-139.128l-267.555,-411.823l684.942,0l139.129,-187.501l385.28,10.702l331.768,176.799Z" style="fill:#fff;stroke:#000;stroke-width:0.95px;"></path><g><path d="M5118.309,3004.434c100.313,1.273 194.443,-48.614 253.29,-129.712c91.854,-81.324 129.443,-207.04 151.691,-323.986c11.556,-43.934 28.993,-85.207 47.011,-126.715c26.242,-78.401 26.136,-102.875 46.847,-169.72c26.052,-106.017 10.407,-215.828 16.185,-323.759c14.94,-68.088 13.749,-136.762 0.61,-205.183c0.542,-42.598 3.162,-85.122 1.894,-127.726c-5.841,-78.468 15.831,-157.315 -0.767,-235.643c-20.606,-123.731 -70.523,-259.49 -198.242,-305.476c-43.518,-180.301 -214.171,-350.745 -409.273,-273.922c-56.211,20.101 -102.484,56.051 -154.189,84.301c-64.454,32.078 -119.617,77.749 -187.39,102.868c-63.393,27.065 -100.608,91.011 -163.838,117.155c-90.71,28.655 -151.751,109.588 -242.073,136.54c-214.767,86.771 -387.434,289.405 -425.175,519.578c-20.772,182.525 49.697,359.051 107.723,528.589c49.138,133.898 158.552,237.992 275.207,315.281c89.942,49.068 183.866,91 278.946,129.069c98.731,26.014 185.341,72.727 268.369,131.528c100.167,70.87 202.217,165.244 333.172,156.932l0.001,0Z" style="fill:#f8eb1c;fill-rule:nonzero;"></path><path d="M4402.63,673.312c-17.831,68.546 117.215,108.683 161.059,142.364c157.672,99.512 312.18,203.817 465.058,310.423c152.079,88.997 305.277,176.174 454.48,269.966c64.744,41.543 133.162,77.525 193.622,125.332c56.978,37.996 111.208,114.85 187.327,96.092c112.551,-49.884 -55.316,-171.221 -113.06,-193.879c-12.079,-7.158 -23.934,-8.213 -29.719,-19.237c3.707,-32.5 17.895,-63.05 23.392,-95.325c20.867,-91.618 18.023,-185.505 4.825,-278.017c-6.647,-71.007 -36.877,-138.466 -85.451,-190.714c-112.102,-120.091 -271.723,-179.977 -425.304,-228.071c-118.557,-39.019 -260.155,-27.771 -359.826,51.705c-45.187,33.426 -88.582,71.837 -103.41,128.239c-103.155,-62.314 -206.757,-131.147 -324.739,-160.835c-22.561,0.255 -40.04,23.008 -48.254,41.958l-0,-0.001Z" style="fill-rule:nonzero;"></path><path d="M5463.191,2970.862c-19.877,27.419 -30.869,64.744 -27.962,98.425c8.405,42.758 74.075,74.714 108.172,42.342c28.728,35.919 75.448,57.138 121.242,46.401c133.097,-16.202 151.728,-149.076 95.325,-250.664c-3.707,-8.373 -7.829,-16.457 -12.271,-24.256c9.332,-9.778 19.366,-18.886 30.199,-26.939c33.458,26.013 80.145,36.749 118.461,14.699c62.346,-23.679 82.511,-89.094 85.994,-150.194c7.83,-45.825 -3.163,-91.331 -21.474,-132.969c4.251,-0.065 8.436,-1.663 12.08,-5.242c75.384,-108.907 -70.719,-191.769 -87.623,-133.129c-43.621,-59.598 -97.275,-112.581 -150.418,-163.008c-33.841,-29.783 -64.487,-62.762 -95.069,-95.836c-8.021,-10.258 -24.575,-12.496 -32.756,-1.182c-20.42,29.591 16.234,52.76 33.106,73.084c34.225,38.316 73.851,71.167 110.568,106.99c82.479,82.702 158.088,177.165 186.528,292.686c0.095,43.716 0.799,95.293 -26.108,131.819c-22.465,20.676 -56.722,40.552 -86.825,28.633c2.589,-5.305 3.579,-11.312 2.621,-17.416c34.96,-36.974 71.134,-81.553 61.483,-134.759c-4.378,-61.292 -69.121,-115.425 -128.368,-83.438c-50.139,-59.631 -111.08,-112.134 -173.746,-157.448c-34.961,-5.592 -32.148,44.546 -7.062,56.339c40.776,34.832 82.926,68.482 120.986,106.287c4.57,3.899 8.82,8.82 12.974,14.125c-6.583,4.474 -10.738,13.166 -9.107,26.427c-22.816,33.17 -43.396,67.811 -63.624,102.612c-4.058,4.665 -7.766,10.833 -10.514,17.544c-29.942,-25.853 -132.395,-144.6 -151.345,-99.99c-8.788,16.17 -1.31,39.21 16.266,45.506c21.731,15.435 41.031,33.905 60.972,51.513c51.258,53.877 116.544,97.051 153.837,162.497c51.162,82.095 53.591,178.889 -63.081,190.747c-24.926,6.487 -89.381,-17.704 -68.13,-49.436c26.044,3.196 40.904,-25.278 53.558,-43.62c16.745,-26.396 39.498,-55.668 28.537,-88.679c-13.901,-53.048 -68.673,-44.42 -104.465,-18.854c-5.305,-18.438 -27.547,-37.325 -40.904,-48.765c-19.11,-12.687 -35.918,-38.731 -60.589,-37.612c-19.429,4.858 -19.269,29.912 -9.714,43.812c7.222,10.003 18.631,15.851 27.866,23.808c13.965,7.733 31.476,32.276 48.158,43.939c-20.708,12.654 -42.181,24.35 -57.777,43.205l-0.003,-0.002Z" style="fill-rule:nonzero;"></path><path d="M5796.129,4770.563c29.85,-5.081 18.749,-45.184 22.816,-66.917c1.35,-28.502 3.401,-56.814 7.414,-85.067c8.294,-76.367 -0.302,-153.197 2.267,-229.797c1.768,-62.09 3.275,-124.229 -0.701,-186.272c-3.781,-62.925 4.126,-125.479 5.883,-188.318c-0.93,-81.669 -3.739,-163.248 6.738,-244.528c4.535,-60.271 -5.791,-120.07 -8.476,-180.165c-2.164,-91.375 -1.379,-182.813 -4.534,-274.155c-1.552,-124.426 1.081,-248.819 -3.763,-373.218c-4.431,-34.022 10.042,-89.721 -13.265,-115.102c-20.413,-18.46 -43.841,9.288 -33.964,30.803c0.907,63.017 1.042,126.063 3.641,189.064c-31.322,-3.877 -25.913,36.59 -26.624,57.093c-0.091,42.084 -4.489,83.884 -9.527,125.651c-11.328,89.086 17.207,177.449 17.95,266.66c1.101,99.814 4.729,199.671 1.418,299.442c0.147,89.159 -14.598,177.389 -13.741,266.514c0.081,125.605 -7.077,251.104 -4.63,376.667c0.614,81.794 6.63,163.267 17.634,244.309c7.418,28.565 -5.116,81.197 33.464,87.333l0,0.002Z" style="fill-rule:nonzero;"></path><path d="M5783.01,3004.019c5.7,-45.619 31.934,-187.867 -26.016,-203.016c-26.407,-1.805 -29.854,36.052 -13.184,50.36c4.893,52.627 16.139,104.842 39.13,152.719c0.036,0 0.065,-0.026 0.07,-0.062Z" style="fill-rule:nonzero;"></path><path d="M5814.766,4876.173c63.126,-7.709 85.846,-119.2 23.327,-143.515c-18.365,-5.693 -35.382,3.478 -51.807,10.553c-15.515,-0.355 -29.532,9.483 -36.203,23.164c-19.137,42.2 14.867,112.048 64.684,109.799Z" style="fill-rule:nonzero;"></path><path d="M5819.288,4796.375c21.156,-23.944 -18.381,-80.967 -42.179,-47.005c-15.291,22.615 18.058,70.89 42.179,47.005Z" style="fill-rule:nonzero;"></path><path d="M5373.872,4773.22c0.352,-106.957 10.226,-214.17 21.922,-320.488c19.302,-114.115 38.507,-232.736 94.27,-335.539c63.177,-96.476 139.457,-199.885 247.852,-246.382c62.634,9.107 115.713,40.808 167.194,77.877c57.456,34.801 108.011,78.197 146.232,133.832c65.542,103.698 117.855,216.599 159.94,331.769c24.638,102.548 58.575,202.858 81.808,305.565c14.987,107.404 28.217,215.863 14.156,324.131c-18.567,145.815 -66.821,285.848 -141.279,412.425c-69.376,94.686 -212.828,115.425 -321.861,133.065c-134.216,13.198 -233.567,-95.964 -295.37,-202.345c-53.942,-91.746 -77.941,-195.315 -111.751,-295.148c-31.476,-104.017 -48.637,-211.294 -63.113,-318.762Zm-37.325,-184.579c-5.336,82.064 -18.502,168.377 0.639,249.161c15.499,120.123 43.109,238.393 84.141,352.381c53.558,198.575 184.674,465.632 423.802,456.366c120.506,-16.137 291.44,-46.208 360.753,-156.425c44.963,-82.447 89.222,-166.044 110.249,-258.27c56.946,-178.507 51.736,-369.221 15.723,-551.371c-25.789,-89.509 -50.843,-179.21 -73.947,-269.486c-54.229,-152.271 -152.207,-391.527 -288.596,-480.78c-64.328,-40.104 -167.355,-128.272 -244.784,-115.234c-85.93,30.421 -150.578,105.039 -208.258,172.819c-80.529,94.845 -122.329,212.252 -145.049,333.111c-19.845,87.943 -30.71,177.709 -34.673,267.729l0.001,-0.001Z" style="fill-rule:nonzero;"></path><path d="M4643.611,2825.365c28.313,22.017 61.676,40.712 76.184,48.765c28.537,15.882 60.493,23.488 89.573,38.028c18.119,6.391 36.654,16.137 55.604,22.498c31.189,46.56 84.173,96.699 99.735,117.599c36.302,41.031 70.815,83.533 104.209,126.898c52.664,72.892 104.816,146.168 156.425,219.794c47.551,77.685 136.803,152.143 125.427,250.632c-10.162,70.623 -60.717,129.742 -132.746,140.766c-40.967,13.997 -216.183,0.703 -141.406,80.434c50.427,26.906 102.068,56.242 134.312,104.465c-98.809,110.281 -233.184,-39.658 -334.517,-76.247c55.476,-50.843 96.028,-115.809 146.296,-171.126c30.87,-32.531 64.392,-62.506 96.732,-93.472c7.956,-8.276 12.654,-23.264 10.609,-35.119c27.164,-29.815 -44.898,-93.536 -56.754,-123.222c-100.247,-153.901 -219.218,-295.148 -310.262,-454.864c-40.553,-64.808 -83.406,-128.335 -119.421,-195.827Zm-114.339,1194.52c-39.306,-35.854 -93.024,-51.481 -136.101,-81.328c52.887,-173.042 104.976,-346.468 147.286,-522.451c37.485,-175.662 60.205,-354.137 82.032,-532.453c9.267,16.489 18.822,32.787 28.697,48.893c50.139,78.644 99.128,157.894 147.446,237.657c59.567,83.661 123.383,171.093 181.735,254.435c36.27,47.998 66.756,99.735 101.205,149.012c3.068,4.091 6.135,9.139 9.459,14.029c-14.572,8.597 -25.629,24.99 -38.89,35.056c-64.839,56.498 -115.234,126.162 -169.304,192.44c-18.215,27.514 -64.04,48.765 -69.793,81.712c-12.207,4.505 -17.416,18.758 -24.382,28.984c-21.124,44.132 -57.521,122.648 -14.7,160.165c-59.918,11.76 -120.538,12.718 -180.361,21.953c-7.382,0.99 -23.136,1.726 -42.757,2.779c5.592,-32.403 -1.47,-68.066 -21.571,-90.883l0.001,-0.001Zm-376.059,-19.014c-6.328,-2.94 -12.08,-4.665 -17.321,-5.368c19.461,-48.445 35.439,-98.202 47.199,-148.852c45.058,-184.929 21.794,-370.372 -1.31,-556.547c-9.971,-83.821 -36.877,-163.935 -71.87,-240.501c81.903,-99.448 164.446,-198.192 257.95,-287.349c3.675,-2.717 7.222,-6.615 10.226,-11.153c-3.068,241.844 -53.847,479.853 -101.908,716.104c-25.853,124.213 -54.069,247.916 -84.619,371.075c-9.778,53.367 -30.55,113.86 -24.287,169.368c-4.57,-2.461 -9.267,-4.729 -14.06,-6.775l0,-0.001Zm-440.739,-440.739c-0.512,-6.615 0.287,-13.23 1.726,-19.685c1.406,2.556 2.556,6.104 2.652,8.724c-0.095,-0.608 -0.159,-1.215 -0.255,-1.822c0.064,1.246 0.159,2.493 0.255,3.739c-0.031,0.639 -0.064,1.246 -0.095,1.854c-1.598,2.301 -2.972,4.665 -4.282,7.19l0,-0.001Zm-377.146,-91.107c0.448,-198.48 0.831,-517.082 205.318,-617.712c94.174,-39.243 203.145,-55.763 303.168,-31.446c99.097,53.079 159.716,125.588 205.381,225.962c-9.747,11.089 -19.685,22.05 -29.814,32.819c-66.821,82.991 -137.028,163.265 -202.059,247.692c-10.098,17.192 -73.627,108.044 -88.135,158.918c-79.731,-20.772 -96.028,174.129 5.656,147.733c35.854,-10.705 55.923,-56.659 33.746,-88.454c37.58,-48.445 54.741,-108.331 84.524,-161.251c48.349,-72.252 100.374,-142.588 154.796,-210.528c21.507,-25.469 42.757,-51.162 63.976,-76.886c28.92,66.053 51.481,134.887 60.748,206.66c12.303,138.179 41.862,278.466 21.921,416.837c-12.079,166.522 -78.899,321.989 -166.586,462.277c-50.65,63.273 -150.482,135.046 -233.408,135.398c-179.849,-30.678 -278.53,-204.71 -324.93,-366.345c-51.258,-156.489 -82.959,-317.389 -94.303,-481.675l0.001,0.001Zm-42.757,-188.222c-20.58,216.918 9.778,437.798 76.023,644.906c47.647,196.37 164.095,427.19 389.258,446.236c95.964,-9.043 189.435,-76.471 253.731,-145.369c13.869,-20.387 27.258,-41.255 40.009,-62.538c0.639,7.35 2.397,14.668 5.561,21.986c48.542,73.786 164.542,76.376 243.282,99.703c47.742,2.429 150.992,86.505 179.945,49.692c13.837,-26.108 17.447,-70.399 9.299,-110.695c9.938,-0.576 19.845,-1.374 29.783,-2.365c77.621,-11.024 151.44,-40.808 227.655,-58.767c13.198,-0.319 26.396,-0.798 39.626,-1.502c16.841,9.843 32.563,-8.468 30.933,-25.213c9.907,-3.93 15.052,-12.303 16.297,-21.474c53.527,22.657 107.564,44.131 160.452,68.226c54.645,19.589 109.833,83.598 170.774,56.978c31.572,-19.781 68.45,-104.337 77.014,-141.47c3.484,-22.209 -7.542,-42.949 -25.406,-54.005c81.392,-58.64 26.523,-129.838 -60.045,-188.573c72.955,-6.295 155.69,-21.794 198.767,-87.528c39.338,-60.621 60.462,-141.086 27.802,-209.057c-24.799,-70.879 -77.27,-126.675 -118.814,-187.999c-61.836,-87.432 -122.488,-175.791 -187.646,-260.794c-38.73,-54.006 -87.367,-100.598 -130.349,-151.281c6.647,2.429 13.422,3.963 20.517,3.771c18.31,-1.343 23.232,-22.913 18.151,-37.581c-27.004,-54.357 -111.431,-80.21 -162.114,-111.143c-47.614,-29.912 -93.856,-68.738 -153.612,-68.834c-3.324,-17.992 -21.124,-30.869 -35.824,-28.728c-3.994,-5.369 -9.554,-9.331 -16.17,-10.226c-26.747,-0.192 -25.501,32.66 -27.387,57.489c-17.639,6.359 -18.726,33.841 -6.455,46.976c-25.373,202.283 -48.191,405.555 -92.642,604.674c-42.565,170.006 -92.193,338.16 -143.962,505.545c-11.536,84.78 106.413,93.887 153.996,139.393c8.66,24.99 5.976,42.151 -3.323,53.015c-26.876,2.3 -53.975,5.688 -73.947,11.153c-7.062,-1.822 -14.061,-4.155 -20.74,-6.967c-62.026,-28.345 -121.497,-62.283 -183.907,-89.478c-20.069,-82.831 27.738,-188.989 42.054,-272.745c67.139,-304.574 142.748,-610.426 160.388,-922.702c2.236,-48.062 6.295,-96.412 1.15,-144.41c-1.246,-9.331 -6.423,-19.685 -14.732,-24.542c6.135,-34.801 -53.91,-45.601 -77.685,-62.922c-34.96,-24.51 -139.552,-72.028 -123.67,11.377c27.547,44.643 84.844,59.406 130.701,83.086c-11.919,14.827 -25.342,30.231 -35.471,42.279c-77.142,83.341 -142.813,176.014 -215.001,263.286c-10.034,-19.877 -20.516,-39.53 -31.253,-58.895c-48.094,-82.511 -127.952,-159.525 -222.16,-183.109c-116.991,-16.138 -242.675,3.994 -345.19,63.816c-143.962,101.237 -183.045,292.079 -195.667,457.325l0.002,-0Z" style="fill-rule:nonzero;"></path><path d="M4574.197,4454.111c55,2.889 104.777,-24.95 128.468,-74.996c22.405,-39.577 46.851,-78.185 64.91,-120.029c59.609,-159.61 -14.853,-347.641 -128.121,-465.184c-41.738,-42.946 -98.518,-64.443 -149.936,-92.995c-18.818,-7.5 -38.382,-30.352 -59.666,-19.047c-32.819,38.52 36.396,63.132 62.541,78.455c43.116,23.27 89.863,42 124.116,78.287c84.394,89.661 137.375,219.286 121.585,343.14c-12.625,65.197 -53.398,120.327 -85.519,177.153c-35.932,57.861 -114.379,36.758 -170.756,30.821c-114.007,-8.725 -207.462,-74.146 -288.696,-149.835c-68.591,-59.21 -133.573,-122.518 -200.655,-183.425c-128.598,-120.218 -279.107,-229.448 -363.984,-387.127c-24.375,-52.071 -21.329,-112.534 11.929,-160.049c72.033,-85.938 222.778,-42.221 314.544,-12.763c79.812,27.174 158.859,56.629 236.665,89.131c22.437,6.908 40.562,20.787 60.623,30.896c14.03,2.3 23.999,-10.674 23.556,-23.781c1.981,-50.559 -152.661,-84.446 -195.223,-107.369c-86.751,-30.475 -173.225,-68.536 -265.364,-78.418c-64.786,-3.656 -138.133,-7.274 -190.485,37.708c-93.2,86.705 -65.156,231.058 8.014,321.416c116.313,154.217 272.368,271.525 411.597,403.695c173.02,159.064 277.208,281.544 529.86,284.314l-0.003,0.002Z" style="fill-rule:nonzero;"></path><path d="M3056.385,2264.315c14.376,-43.482 -119.282,-97.543 -149.307,-134.848c-100.284,-78.673 -187.905,-172.389 -267.43,-271.759c207.87,-44.564 173.032,-297.724 -19.089,-335.193c-136.539,-9.664 -143.344,191.84 -82.821,275.679c-320.109,-61.8 -524.04,-343.673 -767.624,-535.411c-96.077,-72.809 -84.572,-64.637 -14.287,20.388c106.448,139.339 240.555,253.428 374.655,365.13c127.54,108.102 279.477,197.124 448.954,212.055c84.879,112.391 180.959,217.391 290.574,306.083c45.122,36.984 92.005,71.663 141.026,103.315c11.245,17.304 40.445,17.537 45.35,-5.44l-0.001,0.001Zm-457.56,-460.459c-48.598,-57.929 -88.16,-185.514 -0.987,-224.613c173.764,12.625 189.223,218.443 0.987,224.613Z" style="fill-rule:nonzero;"></path><path d="M3755.021,4174.068c72.109,-10.39 130.811,-57.058 174.288,-113.346c51.847,-63.183 75.885,-142.564 91.237,-221.519c14.255,-64.01 28.034,-127.664 31.159,-193.175c4.839,-103.669 2.963,-207.86 -5.848,-311.253c-7.879,-47.593 -32.556,-221.532 -75.739,-238.328c-6.966,-2.269 -12.431,4.634 -13.325,10.769c-1.086,7.094 2.27,14.476 9.171,17.032c2.913,2.066 4.3,5.782 6.274,8.686c22.114,47.006 31.88,98.834 42.171,149.402c17.009,92.214 16.163,186.278 16.743,279.712c0.834,76.601 -6.922,154.694 -24.001,229.06c-18.896,94.705 -40.908,194.256 -109.051,266.557c-40.737,46.88 -92.73,82.22 -149.854,105.862c-13.469,6.157 -27.006,12.284 -40.839,17.352c15.375,-0.384 32.048,-3.684 47.613,-6.81l0.001,-0.001Z" style="fill-rule:nonzero;"></path><path d="M5927.015,5488.937c85.768,-8.269 169.021,-30.555 221.524,-104.301c42.825,-61.594 61.47,-137.592 73.94,-210.655c33.975,-201.411 18.639,-320.027 -33.675,-515.582c-13.369,-44.751 -77.461,-318.732 -114.118,-315.822c-13.381,-0.734 -4.233,25.81 0.385,31.631c28.152,57.016 43.341,119.225 61.862,179.771c35.408,132.864 75.928,266.272 81.453,404.503c1.048,56.606 -5.124,112.915 -12.902,168.908c-9.534,78.397 -26.522,158.652 -66.904,227.318c-58.488,90.716 -169.068,111.978 -265.664,139.443c17.47,-0.732 36.245,-3.122 54.1,-5.212l-0.001,-0.001Z" style="fill-rule:nonzero;"></path></g></g></svg>