<svg width="100%" height="100%" viewBox="0 0 9442 6200" version="1.1" xmlns="http://www.w3.org/2000/svg" xmlns:xlink="http://www.w3.org/1999/xlink" xml:space="preserve" style="fill-rule:evenodd;clip-rule:evenodd;stroke-miterlimit:10;"><clipPath id="_clip1"><rect x="3353.799" y="314.55" width="2734.069" height="5570.901"></rect></clipPath><g clip-path="url(#_clip1)"><path d="M4844.359,314.969l919.279,466.281l163.723,997.435l160.087,375.961l-58.303,330.102l58.303,813.44l-582.886,1323.902l-518.152,220.208l0,1042.735l-742.973,-165.68l-501.234,-980.657l216.572,-1539.635l-604.557,-1148.295l783.659,-1224.494l706.482,-511.301Z" style="fill:#fff;fill-rule:nonzero;stroke:#575756;stroke-width:0.7px;"></path><path d="M5882.62,2565.001c-43.762,-111.572 -76.758,-217.831 -106.538,-337.791l-70.746,51.172c-18.455,13.282 -42.783,23.768 -63.336,35.513c-60.26,34.534 -118.423,61.798 -181.898,90.879c-53.409,24.468 -140.933,105.28 -171.972,157.99c-19.574,33.416 -35.093,75.919 -51.172,110.593c-10.067,10.067 -35.932,22.65 -51.452,29.361c-60.26,-18.316 -97.171,-74.94 -94.235,-133.383c3.775,-74.801 44.042,-119.401 101.365,-156.312c43.622,-28.103 85.986,-56.345 132.264,-81.652c45.719,-25.027 139.814,-89.062 176.306,-125.274l56.625,-56.205c34.534,-34.394 70.466,-67.53 99.967,-106.259l77.877,-102.484l-14.96,-128.769c-12.164,-105.14 -45.16,-198.816 -91.019,-293.051c-70.187,-144.009 -55.227,-198.816 -187.91,-338.77c-76.898,-81.232 -175.327,-133.662 -284.382,-163.443c-83.889,-22.93 -164.282,-47.956 -251.386,-57.324c-95.773,-10.346 -190.847,-11.605 -286.479,-1.538c-94.654,9.927 -183.856,42.364 -265.507,89.761c-111.013,64.594 -198.117,231.532 -248.31,347.858l-113.529,257.258c-4.614,1.818 -15.1,10.626 -18.036,18.735l-15.24,41.245c-12.304,33.555 -25.167,66.132 -36.911,102.764l-26.844,83.749l27.124,16.778c33.975,41.525 61.938,85.287 97.59,124.435c43.762,48.096 85.986,96.751 134.781,139.115c25.027,21.671 146.945,110.593 174.348,122.058c56.765,23.908 100.666,57.464 148.483,90.6c41.245,28.662 77.737,51.312 76.898,113.25c-0.419,28.802 9.647,69.907 -5.593,99.268c-9.647,18.595 -36.352,48.096 -53.968,55.786c-49.634,21.671 -85.007,-20.133 -100.247,-61.658c-31.039,-84.308 -87.803,-139.255 -158.13,-199.235c-25.866,-22.091 -67.67,-33.555 -98.569,-47.677c-26.984,-6.012 -46.838,-17.477 -70.187,-30.899c-98.989,-57.044 -186.792,-120.24 -270.401,-205.108c-54.248,169.315 -74.801,343.244 -31.878,514.097c54.667,217.831 213.776,458.032 417.066,557.999c7.55,-15.799 13.003,-27.404 17.197,-34.255c10.766,-17.756 191.126,-6.991 235.168,15.939l-2.796,97.73l185.673,16.498c186.093,16.638 379.176,79.415 578.831,72.843l-15.799,-149.601c61.658,-14.401 125.833,-4.194 186.233,11.325c4.055,21.671 -1.398,38.449 -0.14,61.798c-4.474,0.699 -13.282,6.851 -13.562,11.744c-0.28,6.571 5.872,22.23 9.647,22.93l-0.28,19.574l6.012,6.711c158.969,-11.744 306.193,-57.044 429.51,-166.938c43.203,-38.449 62.637,-92.417 86.265,-143.449c62.777,-136.319 52.151,-328.983 -1.678,-466.56l-0.14,0.28Z" style="fill:#f6e82a;fill-rule:nonzero;"></path><g><path d="M4809.266,4971.904l3.076,220.487c1.398,99.268 -4.334,197.558 -21.671,295.987c-9.787,55.506 -63.895,223.283 -126.812,230.554c-55.506,6.431 -92.417,-111.991 -103.323,-158.689c-35.233,-151.559 -43.622,-301.719 -41.665,-458.871c0,-1.398 -1.119,-2.656 -2.517,-2.656l-210.141,-13.282c-1.258,0 -2.237,0.559 -2.656,1.678c-6.711,19.574 -19.993,49.634 -37.191,48.236l-197.558,-16.498c-75.22,-6.292 -70.746,-109.195 -54.947,-163.443c0.28,-1.119 1.258,-1.818 2.377,-1.957l61.798,-5.173c2.097,-0.14 3.076,-2.656 1.818,-4.334c-84.168,-102.764 -15.24,-221.046 7.69,-340.168c18.875,-98.429 16.638,-197.558 20.553,-296.966l3.775,-96.052l2.796,-335.415c0.699,-83.469 9.228,-219.508 19.015,-302.418l14.121,-119.821c9.368,-79.694 17.756,-153.936 21.252,-234.049c0.839,-19.854 8.948,-44.181 14.681,-64.175c0.419,-1.678 -0.699,-3.216 -2.377,-3.356l-51.591,-3.356c32.437,-22.65 172.81,-19.854 216.572,-17.057c53.409,3.356 101.505,19.854 145.267,45.719l-38.589,6.431c-1.258,0.14 -2.097,1.258 -2.237,2.377c-19.155,220.767 -58.582,426.993 -66.691,656.009c-4.334,120.52 -9.787,233.77 -19.015,353.311l-18.875,243.836c-6.431,82.63 -7.83,165.4 -5.732,248.17c2.097,88.922 -5.173,198.536 -65.992,267.045c-1.119,1.258 -0.839,3.216 0.699,4.055c10.626,5.872 29.78,18.875 30.899,28.522l7.69,66.971c0.14,1.398 1.258,2.377 2.656,2.377l202.451,5.732c1.398,0 2.656,-1.119 2.796,-2.517c16.498,-233.49 59.98,-465.162 74.801,-699.071l7.969,-125.553l0,-0.28l28.103,-167.637c7.969,-47.677 36.492,-88.642 74.661,-115.347c0.699,-0.419 1.119,-1.258 1.119,-2.097l2.517,-131.425c1.678,-88.223 7.131,-176.446 16.498,-264.249l18.735,-175.886c0.14,-1.538 -0.839,-2.796 -2.237,-2.936c-66.272,-7.69 -247.611,-25.446 -276.273,-102.764c-0.699,-1.818 0.839,-3.775 2.796,-3.635c54.108,1.119 104.861,2.237 156.452,6.711l136.599,11.744c1.538,0 2.796,-0.979 2.936,-2.517c7.969,-86.126 10.206,-167.358 13.842,-254.602l5.593,-134.222c3.635,-88.363 11.325,-170.154 6.012,-263.83c0,-1.398 -1.258,-2.656 -2.796,-2.656l-241.739,0c-0.699,0.14 -1.538,0.559 -1.957,1.119c-34.674,39.428 -65.853,54.947 -107.657,38.029c-14.261,-5.732 -26.565,-22.79 -38.729,-44.321c-0.419,-0.839 -1.258,-1.398 -2.237,-1.398l-203.01,-8.249c-0.839,0 -1.678,-0.419 -2.097,-0.979c-12.164,-15.24 -10.906,-43.063 -4.474,-61.099c0.419,-0.979 1.258,-1.678 2.377,-1.818l163.723,-14.541c2.097,-0.14 3.216,-2.656 1.818,-4.334c-49.354,-62.078 -95.633,-120.8 -165.82,-150.44c-132.264,-55.786 -253.623,-124.994 -359.463,-223.983c-20.413,-19.015 -46.139,-42.084 -46.838,-73.123c-1.678,-67.111 26.844,-133.942 76.478,-177.145c25.866,-22.51 63.056,-4.894 81.232,19.015c68.369,89.761 138.696,171.692 223.983,246.912c104.861,92.557 223.563,148.343 338.351,231.672c43.902,31.878 65.853,77.877 67.53,134.222c0,1.398 1.258,2.656 2.656,2.517c172.81,-3.915 340.448,5.872 511.441,17.057c1.398,0 2.656,-0.979 2.796,-2.377c4.754,-50.753 23.209,-87.664 59.421,-115.207c118.842,-90.739 236.286,-139.395 352.192,-243.696c81.372,-73.123 148.762,-150.86 213.776,-237.824c18.595,-24.887 56.904,-45.579 84.168,-21.951c50.193,43.342 79.554,111.712 76.339,179.382c-3.076,62.497 -184.835,179.941 -238.943,214.475c-43.622,27.823 -86.265,47.537 -135.061,65.853c-87.803,32.996 -154.495,100.526 -207.205,179.801c-1.119,1.678 0,3.915 1.957,4.194l90.04,11.884c16.498,3.076 16.218,57.883 -1.398,62.217c-39.567,9.647 -79.415,0.419 -122.058,-3.635c-1.258,0 -2.237,0.559 -2.796,1.678c-14.121,36.631 -49.494,60.959 -88.782,49.774c-28.522,-8.249 -49.914,-32.577 -67.67,-57.743c-0.419,-0.699 -1.258,-1.119 -2.097,-1.119l-225.101,-12.863c-1.398,0 -2.656,0.979 -2.796,2.377l-31.878,251.806c-18.595,146.945 -6.012,257.398 -21.811,408.677c-0.14,1.398 0.839,2.796 2.237,2.936c90.6,14.401 176.585,24.048 265.507,33.276c6.991,0.699 19.714,5.033 20.693,10.206c0.979,5.173 -8.389,18.316 -14.261,20.693c-95.633,38.169 -177.005,23.209 -276.273,20.133c-1.398,0 -2.656,0.979 -2.796,2.377c-13.702,92.138 -23.908,176.166 -27.124,267.744l-10.206,296.406c0,0.699 0.28,1.398 0.699,1.957l25.027,26.984c0,0 0.28,0.419 0.419,0.559c28.242,53.129 36.492,112.411 34.115,172.81l-2.936,75.5l-7.69,181.898c0,1.538 1.119,2.796 2.656,2.796l235.587,0.839c2.377,0 4.614,-2.377 6.571,-5.872c7.83,-13.842 21.392,-23.349 37.33,-24.048l80.673,-3.635c2.796,0 3.635,-4.055 0.979,-5.173c-65.853,-26.844 -100.806,-84.168 -100.666,-154.774c0.699,-258.097 65.153,-414.969 76.199,-644.124l7.83,-161.066l0.979,-201.333c0,-1.538 -1.258,-2.656 -2.796,-2.656c-24.468,0.28 -42.923,0 -66.272,-2.097c111.712,-39.428 255.021,-35.653 353.87,18.595c3.775,2.097 9.787,12.443 9.507,15.939c-0.28,3.495 -12.863,10.906 -16.358,9.927l-57.324,-17.057c-1.678,-0.419 -3.216,0.559 -3.356,2.237c-4.894,56.066 -19.294,117.584 -17.756,176.306c3.356,129.468 9.787,253.623 22.091,382.112c10.626,111.572 20.972,216.712 22.51,327.725c1.258,86.545 9.927,192.944 -53.409,256.419c-1.398,1.398 -0.979,3.915 1.119,4.474c15.519,4.194 32.996,9.507 46.139,15.38c1.119,0.419 1.678,1.538 1.538,2.796l-11.605,107.098c-1.818,16.918 -40.546,11.045 -54.248,10.766c-81.931,-1.957 -159.948,1.678 -242.019,-8.808c-16.218,-2.097 -25.306,-37.33 -29.081,-55.926c-0.28,-1.258 -1.258,-1.957 -2.517,-2.097l-252.225,-6.991c-1.398,0 -2.656,0.979 -2.796,2.517c-17.477,174.768 -10.766,346.18 -8.249,524.024l-0.699,0.419Zm-287.598,-2348.041c35.233,-53.409 35.233,-129.748 -5.872,-178.683c-29.081,-34.534 -69.907,-57.603 -108.915,-80.393c-96.332,-56.485 -186.792,-115.626 -267.744,-191.965l-122.338,-126.812c-49.494,-51.312 -88.922,-137.997 -131.425,-129.328c-51.452,10.626 -86.964,122.198 -84.727,166.519c0,0.559 0.14,0.979 0.419,1.398c47.956,73.403 109.754,125.973 184.415,167.777c57.184,32.017 111.432,62.217 170.713,90.46c213.077,101.226 220.767,229.575 282.984,298.504c21.392,23.629 63.895,10.346 82.351,-17.617l0.14,0.14Zm760.31,-65.293c52.57,-74.94 122.757,-142.191 206.646,-174.348c53.409,-20.413 98.429,-39.288 145.407,-71.165c68.229,-46.279 131.705,-93.396 191.126,-151.699c63.755,-62.497 13.842,-153.656 -35.233,-205.527c-15.659,-16.498 -39.567,-11.605 -52.43,4.334l-84.168,103.602c-83.329,102.624 -178.822,192.245 -291.513,263.27c-67.39,42.504 -135.48,77.177 -197.837,124.575c-35.792,27.264 -61.099,62.217 -64.734,101.785c-6.571,71.026 56.765,142.331 99.548,132.684c47.677,-10.766 51.172,-81.652 83.19,-127.371l0,-0.14Zm-1034.626,2383.554c33.276,-5.173 48.655,-52.011 55.926,-75.22c42.504,-137.018 9.647,-227.338 19.155,-353.171l25.446,-335.694l15.38,-302.838c8.668,-169.735 27.543,-334.995 49.354,-503.052c8.948,-68.789 22.37,-131.845 17.617,-201.193c0,-1.119 -0.839,-2.237 -1.957,-2.517c-75.919,-22.37 -149.461,-21.392 -224.122,-16.498c-0.979,0 -1.957,0.699 -2.377,1.538c-24.468,51.452 -20.832,99.548 -24.887,152.537l-7.55,98.709l-22.37,242.438l-12.024,249.149l-3.216,355.128c-0.979,117.724 6.292,234.608 -22.79,347.998l-47.956,186.372c-10.906,42.364 -8.529,116.885 37.191,141.772c37.89,20.693 104.301,21.252 149.042,14.121l0.14,0.419Zm1128.441,-635.875c13.562,-48.935 16.638,-104.861 13.842,-156.872l-11.605,-213.357l-28.242,-335.275c-10.766,-126.812 -11.045,-248.031 14.96,-373.863c0.28,-1.398 -0.559,-2.796 -1.957,-3.216c-59.561,-17.756 -118.003,-20.693 -176.725,-15.1c-1.538,0.14 -2.656,1.678 -2.377,3.216c14.401,88.782 13.981,168.476 10.206,254.462l-4.754,108.216c-9.088,208.603 -78.156,435.941 -77.597,643.565c0.14,61.658 34.814,113.25 97.031,126.672c59.701,12.863 148.623,28.382 167.218,-38.449Z" style="fill-rule:nonzero;"></path><path d="M5443.324,1053.328c-66.132,27.543 -384.769,-18.176 -487.113,-26.844l-372.465,-31.738c-115.067,-9.787 -224.682,-17.477 -343.244,-35.932c33.835,-20.413 69.488,-16.638 105.7,-16.218l162.464,1.818c5.313,-84.867 28.522,-170.014 81.092,-239.642c31.738,-41.944 80.952,-65.014 126.951,-85.706c107.517,-48.236 245.654,-33.835 341.287,30.48c43.342,29.221 85.846,59.421 116.885,102.764c31.039,43.342 75.779,185.254 71.585,241.319c67.67,10.766 131.286,20.413 197.138,35.233c6.711,1.538 5.732,21.811 -0.28,24.328l0,0.14Z" style="fill-rule:nonzero;"></path></g></g></svg>