<svg width="100%" height="100%" viewBox="0 0 9442 6200" version="1.1" xmlns="http://www.w3.org/2000/svg" xmlns:xlink="http://www.w3.org/1999/xlink" xml:space="preserve" style="fill-rule:evenodd;clip-rule:evenodd;stroke-linecap:round;stroke-linejoin:round;stroke-miterlimit:1.5;"><path d="M6460.266,2288.795l-350.996,-965.239l329.059,-197.436l-394.872,-431.959l-855.554,-401.657l-636.181,401.657l-438.745,475.833l153.562,350.996l-285.185,767.805l-175.497,811.205l285.184,395.345l-1228.487,285.185l-372.934,745.867l526.495,979.443l636.18,270.982l482.621,21.937l585.918,-292.919l335.447,-343.262l570.369,-87.749l460.682,431.011l789.743,227.107l654.213,-636.18l332.964,-789.742l-614.244,-680.055l281.28,-789.742l-1071.022,-548.432Z" style="fill:#fff;stroke:#000;stroke-width:1px;"></path><g><path d="M4470.981,3438.621c-196.094,-1.051 -314.325,-164.008 -411.841,-312.838c-131.654,-236.759 -54.901,-528.475 50.181,-760.652c32.328,-66.443 76.541,-128.423 133.888,-175.221c22.704,-26.13 37.168,-58.254 57.069,-86.592c33.14,-51.618 70.863,-99.878 107.844,-148.7c35.34,-54.182 56.273,-115.664 89.563,-170.991c59.258,-88.306 91.765,-189.316 129.527,-287.779c14.316,-53.266 36.912,-103.382 55.33,-155.368c21.493,-108.732 62.993,-217.263 155.875,-284.696c54.544,-40.377 113.11,-78.98 178.311,-99.167c152.337,-149.378 332.5,-110.378 487.88,11.62c29.903,24.236 55.922,52.295 77.572,83.258c53.008,24.607 95.022,65.117 131.575,109.801c24.734,31.858 42.998,65.884 70.678,95.103c16.455,31.201 44.312,45.397 75.059,59.876c62.014,33.517 118.392,77.215 169.24,125.879c57.783,51.81 85.066,126.252 123.616,191.542c92.677,132.108 137.989,290.644 165.228,448.047c10.449,67.183 6.24,139.073 5.35,207.075c0.165,117.24 -39.422,231.026 -43.478,348.045c-1.377,163.49 23.131,339.1 -60.259,487.635c-35.144,69.042 -93.418,126.343 -162.166,161.115c-57.47,39.338 -119.931,71.134 -189.08,83.042c-113.126,36.043 -232.589,31.804 -345.203,-4.742c-41.664,-13.062 -84.909,-11.165 -127.882,-8.238c-85.3,7.83 -170.158,4.802 -254.225,23.87c-73.632,9.65 -147.266,15.261 -219.735,31.135c-92.833,0.979 -181.807,16.023 -273.902,25.349c-58.777,-3.583 -117.416,2.499 -176.014,2.593Z" style="fill:#f8eb1c;fill-rule:nonzero;"></path><path d="M6883.312,2830.667c-50.156,-182.054 -321.597,-274.203 -490.516,-302.589c-30.723,-4.029 -61.644,-7.731 -91.498,-8.251c-12.174,0.247 -19.573,-10.249 -19.746,-21.966c-0.231,-23.971 20.355,-31.198 41.008,-27.036c208.089,16.527 428.598,89.057 563.568,256.181c18.671,28.445 44.455,68.151 28.916,102.485c-6.649,12.056 -24.707,14.196 -31.732,1.175Z" style="fill-rule:nonzero;"></path><path d="M6902.882,3081.2c-66.982,1.682 -108.992,-59.971 -162.642,-90.403c-136.036,-88.543 -306.881,-59.424 -460.934,-70.709c-29.481,4.384 -35.679,-40.62 -9.38,-49.11c124.805,3.769 253.557,-2.428 376.561,23.37c86.121,20.139 150.943,81.028 222.113,128.728c105.264,43.346 94.579,-63.526 55.263,-124.983c-52.832,-54.454 -123.427,-92.844 -189.686,-129.345c-90.501,-33.853 -185.652,-53.616 -276.57,-86.408c-53.307,-17.599 -108.154,-29.713 -163.071,-41.083c-8.498,1.588 -16.237,-4.689 -19.157,-12.326c-11.032,-56.022 45.92,-32.788 77.24,-26.499c104.353,22.243 203.859,62.265 307.062,89.157c80.629,18.795 151.956,59.022 218.519,107.299c53.102,31.028 98.524,75.771 109.083,138.816c15.856,61.555 -4.578,153.104 -84.403,143.497Z" style="fill-rule:nonzero;"></path><path d="M6686.181,4672.166c-77.033,-27 -52.494,-118.896 5.821,-151.517c29.456,-143.385 21.88,-291.224 31.441,-436.508c18.736,-115.077 20.462,-230.481 24.32,-346.219c17.091,-231.551 28.093,-463.61 34.704,-695.632c-18.847,-26.853 24.969,-64.156 38.023,-25.968c110.465,-51.213 31.804,268.127 35.75,319.467c-11.685,129.325 -18.382,259.289 -36.518,387.975c-27.528,177.265 -61.774,354.682 -59.41,534.787c2.807,73.208 -1.305,147.423 11.665,219.776c5.757,28.019 16.713,55.71 15.583,84.652c-3.407,50.944 -41.759,121.698 -101.379,109.187Zm19.465,-47.811c48.629,-14.781 44.271,-76.453 30.049,-115.213c-8.555,69.163 -39.365,40.268 -58.438,94.594c5.328,10.335 16.017,20.991 28.39,20.619Zm133.886,-1530.448c-0.068,-1.789 -0.157,-3.579 -0.266,-5.37c-0.083,-0.982 -0.171,-1.964 -0.262,-2.945c0.008,2.729 0.035,5.454 0.078,8.179c0.151,0.043 0.301,0.088 0.45,0.135Z" style="fill-rule:nonzero;"></path><path d="M6674.742,4650.932c-33.876,-13.521 -13.664,-50.721 -2.546,-73.612c11.209,-22.72 30.537,-112.167 65.096,-66.325c31.83,-9.216 41.866,50.034 14.334,60.155c-9.181,34.88 -31.338,92.548 -76.884,79.783Z" style="fill-rule:nonzero;"></path><path d="M7449.817,4666.999c7.524,-61.263 20.112,-124.095 11.518,-185.751c-31.023,-124.416 -108.94,-229.754 -200.977,-316.3c-73.851,-68.93 -138.822,-146.989 -217.951,-210.321c-41.65,-31.808 -87.117,-58.303 -133.403,-82.944c-15.654,-8.345 -31.416,-16.51 -47.178,-24.569c-9.735,9.2 -21.217,1.64 -31.558,-2.425c-0.285,-0.107 -0.535,-0.215 -0.82,-0.321c-24.713,-8.095 -49.959,-14.014 -75.492,-17.723c-37.371,-5.492 -75.42,-6.276 -113.254,-2.247c-89.755,13.444 -173.02,54.309 -255.144,88.793c-57.876,23.821 -109.011,57.804 -158.828,94.07c-22.358,16.225 -44.432,32.949 -66.755,49.388c-162.144,117.676 -202.189,329.102 -238.063,514.283c-2.247,9.52 -4.279,19.042 -6.062,28.528c-30.132,158.756 3.174,309.061 105.161,423.065c28.171,31.523 61.62,60.229 100.382,85.619c3.708,2.318 7.346,4.707 10.983,7.168c0.071,0.036 0.142,0.107 0.214,0.142c36.766,25.033 68.895,56.2 103.627,83.765c16.332,12.98 33.234,25.14 51.457,35.481c81.232,39.475 169.205,72.853 259.031,87.901c19.72,3.317 39.511,5.741 59.373,7.168c22.252,1.355 43.79,1.676 64.829,0.927c97.208,-3.317 183.112,-28.67 274.935,-73.422c113.326,-39.226 201.334,-118.497 280.355,-205.97c97.6,-111.544 198.695,-233.927 223.621,-384.304Zm-34.768,-393.004c80.448,120.351 106.194,218.986 79.949,362.408c-15.334,166.637 -117.819,304.854 -223.051,428.379c-75.812,79.593 -150.055,165.817 -252.719,211.14c-148.7,70.178 -262.169,116.25 -430.768,103.057c-69.964,-3.673 -136.327,-28.599 -202.902,-48.283c-88.115,-26.601 -165.318,-75.063 -231.751,-138.145c-70.071,-50.031 -140.606,-101.273 -193.311,-169.81c-6.99,-9.058 -13.622,-18.401 -19.934,-28.1c-64.829,-102.058 -84.157,-224.798 -72.425,-343.829c2.995,-30.525 8.059,-60.836 14.906,-90.469c21.075,-106.551 40.652,-215.42 85.084,-315.123c39.761,-98.206 103.128,-185.038 191.884,-244.268c126.2,-101.987 275.15,-170.846 430.305,-216.168c1.177,-0.357 2.389,-0.677 3.566,-1.034c15.761,-4.244 31.701,-7.06 47.712,-8.808c59.088,-6.454 119.425,1.356 178.548,2.853c118.355,40.011 227.83,111.793 318.512,197.484c91.431,99.882 201.976,184.574 276.397,298.72Z" style="fill-rule:nonzero;"></path><path d="M7470.143,4653.27c27.458,-135.114 -4.957,-229.969 -82.444,-339.979c-45.253,-72.817 -90.433,-145.99 -148.594,-209.393c-53.632,-62.048 -101.772,-133.794 -176.194,-172.521c-41.579,-5.278 -73.815,-29.776 -107.941,-50.566c-10.27,-4.885 -27.493,-7.025 -45.966,-9.129c-33.626,-3.78 -71.355,-7.382 -78.736,-26.994c-0.498,-1.32 -0.855,-2.71 -1.069,-4.173c-24.784,-8.344 -49.959,-12.659 -75.242,-13.871c-39.439,-1.961 -79.2,3.53 -118.39,12.659c-144.706,17.902 -262.026,79.2 -383.911,153.658c-8.415,4.6 -16.724,9.342 -24.925,14.299c-161.645,97.065 -282.495,260.35 -310.488,448.775c-8.915,47.962 -5.849,95.675 -0.393,143.423c1.64,14.299 3.495,28.634 5.277,42.934c4.993,50.387 5.956,101.024 13.194,151.197c11.34,58.446 33.698,113.54 60.514,166.459c11.482,18.4 17.937,41.151 26.174,62.475c8.844,22.893 19.756,44.112 41.187,56.342c23.714,11.34 47.392,23.215 70.178,36.444c0.071,0.036 0.143,0.107 0.215,0.142c33.413,19.399 64.9,41.793 91.966,69.858c3.994,4.492 7.845,9.164 11.66,13.907c27.137,33.627 51.564,70.713 97.422,79.949c70.427,16.939 140.82,37.585 213.066,43.433c13.159,1.07 26.389,1.64 39.69,1.605c30.204,2.211 58.125,4.636 84.513,6.49c110.367,7.917 194.238,5.956 308.634,-65.043c65.899,-43.825 136.79,-81.125 197.054,-132.831c51.742,-53.026 100.739,-108.94 149.129,-165.104c31.844,-40.723 49.352,-81.375 70.749,-126.698c29.276,-59.016 64.044,-122.348 73.673,-187.748Zm-7.739,-328.317c61.655,85.725 78.594,195.807 63.938,298.862c-7.988,84.728 -42.042,162.858 -81.91,237.03c-21.574,45.893 -41.936,92.536 -72.139,133.616c-40.26,55.272 -90.79,102.165 -134.687,154.513c-45.501,52.633 -105.552,88.578 -163.891,125.058c-97.387,63.795 -205.542,130.621 -326.463,123.561c-115.858,-7.417 -233.678,-5.314 -346.29,-36.48c-49.389,-12.339 -103.128,-18.686 -145.205,-49.496c-44.361,-38.869 -71.64,-94.747 -125.308,-123.988c-126.663,-72.604 -121.35,-48.783 -169.954,-164.89c-4.029,-9.628 -8.416,-20.184 -13.301,-31.88c-48.497,-89.969 -72.247,-189.994 -73.887,-292.016c-1.64,-16.011 -3.423,-32.022 -5.171,-48.033c-8.986,-83.943 -16.332,-168.135 7.31,-250.937c35.481,-159.291 120.173,-279.143 241.237,-385.765c74.849,-60.158 162.322,-101.487 241.986,-149.699c72.46,-38.94 150.412,-66.291 231.645,-79.627c2.425,-0.393 4.849,-0.785 7.275,-1.141c14.584,-2.71 29.241,-5.777 44.004,-8.701c52.384,-10.413 105.695,-19.363 158.257,-7.097c49.068,11.661 97.993,23.892 147.096,35.517c28.314,7.881 50.102,28.813 77.31,39.725c83.052,31.558 151.233,86.26 205.15,156.403c90.361,99.241 165.068,209.999 232.999,325.465Z" style="fill-rule:nonzero;"></path><path d="M3670.473,4643.036c-0.464,-2.069 -1.07,-4.207 -2.175,-6.027c-2.175,1.712 -3.887,3.994 -5.313,6.348c1.07,0.249 2.175,0.214 3.245,0.249c1.426,-0.142 2.853,-0.321 4.243,-0.571Zm607.639,-439.825c30.453,-7.631 61.049,-14.763 91.681,-21.503c-58.518,-60.371 -117.178,-120.529 -179.083,-177.263c-55.701,72.353 -106.194,148.522 -157.437,224.334c-12.267,17.865 -24.534,35.731 -36.766,53.596c92.252,-31.702 185.68,-59.73 281.604,-79.164Zm87.687,880.47c19.149,-25.96 36.194,-53.097 51.492,-81.125c-61.655,8.736 -123.988,9.877 -186.571,-1.39c-208.822,-39.832 -898.015,-9.699 -777.344,-361.018c46.893,-154.977 155.547,-217.987 300.111,-268.517c52.384,-19.684 104.768,-39.582 157.366,-58.803c77.453,-116.571 156.902,-231.787 240.382,-343.722c-1.997,-1.747 -4.029,-3.495 -6.027,-5.242c-92.073,-66.577 -206.647,-94.285 -317.798,-108.405c0,-0.036 0.071,-0.108 0.071,-0.108c-151.66,-34.019 -300.575,11.304 -433.263,87.259c-32.664,29.883 -65.222,57.234 -83.052,52.705c-35.659,24.747 -69.75,51.135 -101.987,78.059c-74.35,66.79 -156.332,129.551 -206.967,217.523c-68.11,130.799 -131.085,273.224 -113.79,424.028c3.78,165.71 48.854,287.987 181.294,393.397c150.768,142.068 307.279,320.008 528.546,331.563c278.68,15.369 599.58,-132.725 767.537,-356.204Zm168.099,-393.04c28.92,-115.822 25.033,-249.26 -16.724,-359.769c-32.735,-31.773 -64.794,-64.223 -96.673,-96.923c-125.557,26.567 -250.437,55.879 -372.786,94.89c-36.765,10.662 -72.638,23.821 -108.298,37.55c-45.715,67.575 -90.86,135.471 -135.221,203.866c-25.033,32.237 -71.89,144.529 -116.393,131.192c-23.784,9.521 -55.522,6.99 -69.572,-17.366c-37.478,-53.596 47.963,-157.544 93.143,-86.795c1.712,-0.036 3.423,0.036 5.206,0.107c2.71,0.107 5.384,0.749 7.917,1.783c42.934,-66.719 85.975,-133.509 129.48,-200.014c-0.108,0.071 -0.25,0.107 -0.357,0.142c-162.501,59.516 -321.043,97.993 -361.873,290.911c-15.405,166.28 269.907,185.108 388.012,209.214c156.616,14.299 312.841,38.62 469.743,46.893c34.269,-1.569 68.038,-5.956 101.416,-12.303c34.554,-78.344 59.409,-161.36 82.979,-243.377Zm179.118,166.031l0,-0.036c-39.832,-76.775 -14.906,-210.106 -29.454,-288.236c-12.731,-134.9 18.293,-266.02 43.576,-397.604c-62.333,13.266 -124.844,25.818 -187.391,38.513c11.161,23.499 20.147,48.211 26.317,74.279c34.447,69.75 50.28,109.154 38.369,190.707c13.658,72.96 11.162,148.13 -17.687,217.31c-22.252,76.775 -44.146,154.121 -73.851,228.399c58.695,-15.226 116.356,-35.089 173.626,-54.88c8.665,-4.101 16.26,-4.243 22.358,-1.818c1.284,-2.247 2.639,-4.458 4.136,-6.633Zm35.161,63.475c-0.036,-0.464 -0.071,-0.892 -0.107,-1.356c0,-0.036 0,-0.071 -0.036,-0.142c0,0.535 0.036,0.999 0.142,1.498Zm-0.677,-871.949c14.014,-94.64 -14.585,-187.426 -13.8,-282.031c-7.204,-68.823 -9.521,-139.073 -28.35,-206.005c-1.07,0 -2.175,0 -3.245,-0.036c-47.82,2.069 -95.96,11.91 -144.064,19.042c-99.526,95.069 -184.468,205.47 -272.404,311.415c3.103,2.888 6.134,5.812 9.129,8.808c38.227,39.795 65.756,88.543 104.304,128.196c39.974,38.406 78.095,79.628 108.619,125.486c24.356,-4.849 48.747,-9.664 73.139,-14.549c31.059,-1.891 109.047,-31.167 158.221,-33.342c3.138,-18.971 6.026,-37.941 8.451,-56.984Zm347.966,752.988c113.647,-24.177 192.383,-72.425 31.523,-119.246c-107.941,-49.852 -195.522,-179.689 -202.475,-298.649c-2.675,-70.642 10.769,-140.535 15.904,-210.82c5.599,-97.03 -12.374,-193.809 -5.35,-290.768c12.552,-107.479 -12.801,-215.741 -16.154,-322.22c-52.526,1.034 -105.089,1.569 -157.651,1.319c10.306,46.144 15.725,95.604 16.189,110.438c7.81,96.423 16.047,192.49 25.746,288.629c2.782,150.127 -50.065,293.763 -64.935,442.107c-8.309,68.61 -5.135,137.718 0.036,206.469c7.345,70.571 -4.672,143.352 19.862,211.39c26.567,76.775 273.83,-5.812 337.305,-18.65Zm213.921,-160.254c1.819,-4.742 2.71,-9.913 3.103,-15.226c-87.901,-16.725 -186.642,-63.082 -161.93,-160.576c0.927,-1.747 1.89,-3.352 2.924,-4.849c-3.423,-11.91 -4.207,-25.14 -1.605,-39.654c22.359,-50.387 55.701,-95.247 92.074,-137.788c-6.918,-12.481 -2.532,-26.531 -3.352,-40.01c-6.633,-61.193 -76.525,-79.307 -127.055,-91.717c-38.227,-12.267 -86.154,-5.492 -120.101,-26.174c-0.179,72.496 -13.658,144.064 -17.367,216.453c-9.129,102.557 57.626,190.494 128.767,256.999c52.384,41.293 148.914,36.836 165.889,114.324c0.214,2.069 0.392,4.065 0.499,6.062c16.51,-20.469 30.524,-45.644 38.155,-77.845Zm246.978,-728.739c41.33,-79.378 82.838,-190.743 4.779,-261.028c-38.298,-39.832 -73.317,-84.335 -110.973,-125.558c-5.812,4.601 -13.836,8.737 -22.893,12.339c-45.537,8.594 -93.143,5.67 -139.535,9.236c-105.018,3.816 -209.964,8.273 -314.945,11.019c3.316,34.66 3.031,72.068 4.92,84.727c13.052,85.405 14.157,171.308 7.917,257.462c-2.247,60.301 4.742,120.458 6.882,180.723c2.675,-3.423 5.991,-6.312 9.842,-8.345c103.52,3.317 277.646,26.282 289.556,156.189c11.161,-12.266 22.287,-24.427 33.163,-36.587c87.687,-83.978 168.313,-175.944 231.288,-280.177Zm347.824,-230.825c47.498,49.746 38.869,112.079 -0.428,163.678c-37.05,56.735 -68.109,117.57 -109.154,171.594c-65.792,74.386 -130.585,150.269 -200.335,221.018c47.141,5.599 104.197,2.319 138.573,40.581c40.83,49.709 27.707,115.822 -13.087,158.721c8.879,8.558 12.979,23.821 4.564,38.869c-93.143,169.169 -174.911,154.584 -349.607,157.223c-3.958,-0.178 -8.059,-0.427 -12.267,-0.713c-12.017,77.988 -60.621,151.019 -125.557,194.809c-8.308,4.742 -17.83,13.514 -27.707,20.254c-0.892,11.875 -9.058,25.497 -19.649,30.739c19.507,143.387 -316.193,129.052 -409.585,131.298c-49.282,-2.674 -78.951,-41.151 -83.515,-83.657c-69.786,24.569 -141.568,48.995 -214.599,65.043c-146.204,310.452 -496.381,499.02 -831.474,514.318c-232.358,12.588 -416.611,-147.345 -569.911,-302.678c-89.898,-82.481 -186,-166.958 -218.451,-289.592c-42.649,-183.148 -40.01,-378.384 47.249,-548.444c48.318,-132.512 144.064,-235.603 251.97,-323.041c13.658,-12.48 27.637,-24.641 41.901,-36.408c65.898,-65.793 138.252,-124.809 217.987,-173.591l0.036,-0.036c16.439,-20.397 50.387,-31.202 72.353,-42.15c51.814,-23.927 109.404,-8.273 162.429,-23.464c91.503,-20.86 185.822,-41.329 279.928,-27.778c109.297,13.836 219.913,51.242 308.634,118.033c74.814,-90.932 147.631,-184.289 228.649,-269.266c-24.106,0.142 -48.212,-1.962 -72.175,-7.667c-60.479,-16.475 -102.521,-132.724 -22.787,-150.982c70.142,-26.888 144.279,-33.2 219.592,-38.905c67.718,-6.276 134.151,-21.752 201.549,-30.096c104.447,-13.658 208.572,-29.313 312.948,-43.184c31.915,-0.82 91.467,-29.134 113.611,-2.211c9.664,2.389 19.434,8.416 29.169,10.448c82.552,24.82 159.934,70.321 216.668,135.792c68.074,94.712 204.472,174.733 184.93,306.209c-24.034,186.357 -160.29,332.561 -288.236,460.079c-58.482,64.651 -128.446,132.368 -165.032,209.322c54.238,72.46 160.075,33.769 235.852,28.064c86.76,-18.935 200.835,-17.437 262.062,-89.291c13.337,-23.071 -2.782,-56.021 -28.67,-61.584c-45.038,-16.903 -102.664,1.177 -141.426,-29.383c-24.89,-27.957 0.393,-64.936 23.714,-84.585c94.177,-99.989 196.52,-196.948 264.38,-317.477c21.931,-37.728 48.712,-73.102 66.79,-112.898c-1.106,-22.465 -21.395,-39.903 -34.482,-56.913c-59.979,-70.071 -141.141,-108.298 -192.811,-182.648c-22.038,-33.947 -39.796,-70.427 -62.226,-104.161c-9.308,-11.447 -7.239,-29.17 0.214,-40.902c5.099,-8.88 16.082,-14.264 25.817,-12.909c1.926,-4.421 4.564,-9.271 8.023,-14.62c24.606,-15.904 59.124,-1.855 87.474,-6.597c37.514,4.458 105.837,-9.2 128.981,24.998c6.847,16.903 -0.999,35.659 -14.121,47.106c-19.648,13.693 -67.075,64.758 -106.8,92.287c50.922,54.666 102.058,81.304 178.048,167.35Z" style="fill-rule:nonzero;"></path><path d="M6116.862,1060.461c57.377,17.223 -3.174,104.019 -26.174,130.371c-15.761,15.797 -38.441,15.369 -59.087,17.724c-117,12.444 -237.422,11.197 -354.67,6.668c-109.511,-0.571 -218.879,7.632 -328.318,10.128c-188.924,6.74 -376.708,30.239 -565.275,42.827c-80.59,4.671 -160.576,37.621 -241.059,28.741c-30.774,-12.444 -39.868,-50.672 -60.906,-74.135c-19.292,-28.172 -62.227,-73.067 -26.602,-104.233c18.365,-8.594 40.545,-1.64 60.301,-3.602c67.503,-1.854 135.113,-10.662 201.797,-20.576c23.464,-172.77 116.572,-348.679 303.143,-378.919c133.901,-26.423 272.261,-26.352 407.517,-10.199c98.777,12.054 183.683,72.532 256.428,136.933c209.608,181.508 84.193,258.033 353.494,221.518c26.245,-2.71 53.168,-8.558 79.414,-3.245Z" style="fill-rule:nonzero;"></path><path d="M1959.559,3699.531c-144.817,-53.452 71.907,-67.91 116.802,-75.812c171.1,-32.009 328.373,-96.686 472.403,-191.517c-181.995,-61.909 -142.828,-272.483 47.06,-273.879c150.52,-10.973 204.497,141.999 93.426,238.142c110.135,9.478 221.996,15.863 331.217,28.057c-130.568,16.672 -262.921,37.007 -394.759,25.94c-193.202,139.304 -426.515,238.652 -666.15,249.071Zm655.279,-314.151c34.366,-29.567 81.619,-63.141 83.915,-111.97c-79.583,-142.021 -393.523,34.444 -83.915,111.97Z" style="fill-rule:nonzero;"></path><path d="M3010.87,4933.014c-33.118,-55.321 -20.125,-169.096 -14.973,-233.571c13.356,-106.626 47.268,-211.992 108.87,-300.788c40.386,-58.761 79.394,-119.405 133.365,-166.853c51.793,-45.565 103.968,-98.949 174.161,-112.755c-47.731,47.031 -103.042,87 -153.013,132.049c-48.544,42.208 -85.76,94.556 -121.493,147.594c-23.278,33.419 -45.332,67.828 -62.299,104.911c-51.278,118.794 -71.029,252.363 -54.936,380.786c2.069,10.578 6.073,20.538 10.505,30.297c5.868,12.385 -8.104,31.705 -20.187,18.33Z" style="fill-rule:nonzero;"></path><path d="M4066.622,5321.184c26.47,-26.938 47.541,-58.451 73.171,-86.155c56.271,-54.492 113.803,-110.788 159.938,-174.123c84.641,-116.747 145.376,-338.428 135.217,-482.012c-3.196,-36.759 -10.48,-73.049 -22,-108.1c-3.572,-15.233 -19.413,-35.24 -3.64,-48.018c6.347,-4.243 14.763,-0.855 17.188,6.276c11.065,29.826 20.844,60.084 26.498,91.432c30.952,150.265 -25.823,359.97 -93.964,495.669c-43.901,83.013 -109.696,152.767 -177.229,217.166c-34.773,32.899 -70.142,70.628 -115.181,87.864Z" style="fill-rule:nonzero;"></path><path d="M6030.873,4768.808c-29.368,-12.316 -32.313,-61.279 -36.727,-89.079c-7.573,-72.75 3.766,-145.633 18.65,-216.739c9.404,-48.22 21.049,-96.967 45.857,-139.893c51.773,-85.902 132.59,-149.104 210.107,-210.677c-0.103,0.089 -0.207,0.176 -0.231,0.2c-0.035,0.027 -0.069,0.055 -0.136,0.11c26.765,-19.434 53.356,-40.258 81.814,-57.508c55.747,-33.625 122.697,-44.742 185.358,-55.272c-49.677,23.349 -101.55,42.491 -149.812,68.555c-53.354,30.771 -102.305,69.115 -150.223,107.052c-77.243,66.379 -159.621,134.726 -185.094,236.97c-20.996,96.911 -56.004,230.945 -14.209,324.193c12.405,-4.985 19.596,12.396 14.155,21.817c-3.03,7.408 -11.562,12.521 -19.508,10.272Z" style="fill-rule:nonzero;"></path><path d="M6801.096,5260.607c47.465,-19.832 88.192,-47.562 129.8,-76.597c44.426,-29.354 89.94,-57.602 129.23,-93.821c70.598,-65.07 121.612,-147.269 166.419,-231.341c-0.012,0.024 -0.026,0.047 -0.039,0.071c-0.096,0.178 -0.195,0.357 -0.491,0.873c38.684,-68.287 70.201,-141.446 72.607,-220.59c2.132,-57.055 8.639,-114.568 -3.461,-170.452c-8.748,-13.962 9.063,-36.916 21.073,-19.15c6.99,14.157 8.309,30.239 9.626,45.75c6.521,150.844 -2.079,253.637 -81.081,385.5c-58.512,111.669 -132.759,218.777 -239.354,289.251c-61.35,42.171 -128.76,85.175 -204.33,90.503Z" style="fill-rule:nonzero;"></path></g></svg>