<svg width="100%" height="100%" viewBox="0 0 9442 6200" version="1.1" xmlns="http://www.w3.org/2000/svg" xmlns:xlink="http://www.w3.org/1999/xlink" xml:space="preserve" style="fill-rule:evenodd;clip-rule:evenodd;stroke-linecap:round;stroke-linejoin:round;stroke-miterlimit:1.5;"><path d="M3501.366,216.249l-235.869,214.422l-67.392,392.1l-393.116,235.869l-11.232,381.884l262.558,314.493l0,393.116l-318.717,696.377l318.717,370.652l411.355,269.565l0,224.638l-411.355,202.174l-251.326,572.826l251.326,831.159l287.805,453.805l505.435,163.949l673.913,-163.949l0,-577.356l550.362,-325.724l67.391,-336.957l370.652,67.391l595.29,22.464l741.304,-584.058l-134.782,-471.739l-328.334,-1010.87l-345.579,-370.652l345.579,-426.811l-244.492,-325.725l-370.652,-247.102l-460.507,-146.014l-336.957,-78.623l-67.391,-258.333l-184.519,-426.812l-298.453,33.696l-460.507,-89.855l-460.507,0Z" style="fill:#fff;stroke:#000;stroke-width:1px;"></path><g><path d="M3476.677,3244.753c-238.125,-37.104 -378.578,-304.73 -367.748,-529.495c9.176,-102.717 19.138,-206.026 40.285,-306.952c21.012,-69.369 35.173,-139.845 42.38,-212.004c7.2,-57.276 23.018,-113.555 18.441,-171.672c-9.473,-69.761 -21.705,-139.089 -29.142,-209.175c-22.351,-82.695 -44.497,-169.646 -28.013,-255.724c22.291,-101.847 33.839,-209.595 86.077,-301.596c46.974,-72.028 99.842,-144.208 175.017,-188.263c71.276,-29.801 134.909,-69.022 178.228,-133.989c51.482,-64.076 132.323,-86.034 190.046,-141.946c138.057,-115.971 344.487,-108.98 500.494,-34.614c179.59,65.892 365.365,164.015 461.29,336.969c98.521,129.489 151.731,287.676 176.74,447.086c26.683,143.565 -7.767,291.451 -68.926,421.659c0.287,93.388 -6.792,188.073 4.827,280.834c18.74,95.102 39.571,190.657 33.948,288.208c-8.474,370.052 -117.524,587.561 -520.636,590.789c-109.935,9.112 -220.579,26.015 -330.431,7.17c-70.793,-22.845 -134.264,17.761 -200.056,38.122c-115.251,44.344 -237.108,92.397 -362.821,74.594Zm690.242,-1441.868c9.733,-37.885 14.397,-76.93 18.78,-115.708c-3.1,12.396 -5.954,24.857 -8.604,37.366c-4.32,26.024 -7.557,52.151 -10.176,78.342Z" style="fill:#f8eb1c;fill-rule:nonzero;"></path><path d="M3058.04,1264.253c-6.406,-25.623 5.267,-57.251 31.105,-67.168c53.002,-20.388 106.434,-39.605 159.189,-60.732c72.619,-29.103 145.577,-57.466 218.535,-85.645c142.712,-55.065 284.871,-111.485 427.429,-166.888c144.222,-56.02 288.135,-112.778 431.802,-170.183c45.271,-18.078 90.142,-37.172 135.599,-54.757c37.048,-14.351 74.99,-27.255 111.022,-44.07c-1.496,0.725 -2.993,1.432 -4.503,2.148c-1.771,1.165 -3.515,2.357 -5.168,3.456c-0.562,0.512 -1.125,1.023 -1.688,1.534c4.356,-3.508 9.097,-5.904 14.105,-8.285c0.244,-0.11 0.488,-0.22 0.732,-0.328c0.06,-0.035 0.122,-0.07 0.182,-0.106l0.076,-0.043c11.03,-6.313 25.587,-6.099 36.73,-0.409c12.38,6.313 20.634,18.724 23.929,31.967c6.463,25.795 -5.666,57.512 -31.105,67.168c-0.053,0.016 -0.105,0.033 -0.156,0.049c-1.273,0.483 -2.58,0.91 -7.512,2.692c-23.56,7.175 -46.596,17.153 -69.416,26.3c-27.809,11.118 -55.681,21.989 -83.614,32.799c-71.387,27.594 -142.897,54.972 -214.315,82.535c-73.819,28.487 -147.208,57.991 -220.875,86.816c-71.725,28.056 -143.421,56.266 -214.992,84.753c-71.11,28.303 -142.497,55.927 -213.669,84.106c-70.987,28.148 -141.973,56.327 -213.114,84.076c-51.677,20.203 -103.57,40.066 -155.032,60.916c-33.076,13.427 -65.812,28.025 -99.135,40.837c-4.782,1.839 -9.521,2.685 -14.102,2.686c-19.973,0.002 -37.005,-16.083 -42.041,-36.224Z" style="fill-rule:nonzero;"></path><path d="M3385.321,1165.914c-36.322,-30.652 -31.055,-100.71 -44.928,-145.025c-15.662,-98.283 -17.077,-200.594 5.392,-297.743c19.475,-63.838 56.739,-122.726 110.808,-162.635c53.666,-44.742 111.06,-84.665 176.74,-109.707c77.82,-17.745 159.21,-18.115 238.892,-20.073c17.153,-0.658 33.837,4.206 49.396,11.152c44.338,13.591 91.739,20.463 128.336,51.855c28.963,25.403 58.759,50.14 86.627,76.658c44.316,52.13 79.325,110.351 108.866,171.597c33.378,61.796 -55.177,123.866 -83.272,46.571c-32.976,-64.921 -68.772,-131.389 -129.074,-175.479c-34.151,-40.074 -78.769,-57.708 -129.281,-67.117c-65.207,-26.21 -138.063,0.148 -206.356,-2.651c-90.885,11.634 -165.991,76.275 -230.145,137.562c-34.856,43.326 -46.486,98.514 -45.931,152.952c-12.009,82.504 7.331,165.141 23.37,245.774c40.066,38.268 -7.532,121.484 -59.439,86.311Zm-9.533,-71.042c1.955,-3.732 4.283,-7.267 6.929,-10.483c-2.925,2.968 -5.58,6.522 -6.929,10.483Z" style="fill-rule:nonzero;"></path><path d="M3443.707,1115.17c-36.629,-11.628 -36.983,-65.324 -36.545,-94.356c-3.832,-42.127 -9.644,-84.268 -6.877,-126.642c9.346,-102.19 18.204,-211.002 82.101,-295.743c50.718,-55.67 114.967,-112.503 189.71,-101.801c30.281,-16.013 63.706,-54.88 94.453,-17.829c0,-0.001 0.015,0.019 0.015,0.019c6.758,-3.199 12.998,-5.606 20.775,-5.915c16.366,-0.646 29.168,9.096 37.361,22.468c39.151,-14.142 92.47,-41.795 130.258,-13.206c41.596,-3.716 61.666,42.398 60.167,78.05c23.366,1.901 41.687,16.634 55.052,35.199c7.036,9.77 11.911,20.639 15.199,32.025c38.375,-17.848 61.692,23.999 63.981,56.999c11.749,27.186 22.851,56.929 15.706,86.857c-7.331,23.131 -14.715,51.846 -39.153,61.928c-19.578,16.652 -43.583,28.874 -66.634,38.782c-27.493,7.857 -64.703,29.658 -92.104,16.554c-39.851,34.358 -109.492,135.24 -164.662,75.048c-32.559,31.582 -79.72,73.848 -126.764,45.505c-24.373,27.674 -58.371,79.473 -100.769,56.537c-19.956,27.849 -55.37,59.742 -91.237,39.895c-11.03,9.879 -25.924,13.692 -40.033,9.629Z" style="fill-rule:nonzero;"></path><path d="M3788.071,3374.985c-44.187,-33.751 -118.529,-167.983 -35.995,-194.889c58.993,-48.421 142.419,-57.964 214.5,-77.539c75.85,-19.939 151.259,-41.709 227.243,-61.401c67.558,-28.764 140.638,-40.473 207.145,-71.525c56.078,-20.773 114.375,-52.789 175.021,-51.242c8.814,-2.638 17.901,-4.048 26.914,-3.14c3.323,0.333 6.441,1.082 9.349,2.184c39.636,-20.498 83.094,15.39 74.42,58.209c-6.164,34.949 -34.379,61.445 -60.793,82.971c-109.901,82.615 -249.554,107.398 -375.723,156.598c-107.924,37.816 -210.786,88.111 -313.328,138.368c-45.625,21.31 -101.307,57.836 -148.754,21.407Z" style="fill-rule:nonzero;"></path><path d="M3716.72,4898.565c-9.671,-1.294 -14.813,-11.703 -14.568,-20.603c1.956,-46.959 4.544,-93.957 7.826,-140.865c22.684,-238.903 60.702,-475.887 104,-711.807c29.941,-215.673 85.085,-426.609 144.897,-635.647c8.498,-32.094 15.682,-64.568 21.893,-97.158c8.695,-28.958 6.734,-103.637 48.325,-99.668c29.321,-4.082 17.676,50.955 22.549,69.81c20.092,-37.63 28.861,-81.063 50.9,-117.262c11.392,-13.134 30.029,-0.955 28.523,14.903c-18.735,93.471 -48.851,185.123 -67.105,279.051c-51.656,209.907 -130.712,412.624 -171.579,625.55c-37.373,187.145 -88.383,372.742 -117.363,561.081c-10.996,65.847 -21.144,131.801 -29.962,197.965c-7.388,23.084 2.651,71.835 -28.337,74.648Zm77.532,-554.213c0.397,-1.844 0.799,-3.69 1.199,-5.534c-0.101,-0.129 -0.201,-0.26 -0.3,-0.393c-0.3,1.975 -0.601,3.952 -0.899,5.926Z" style="fill-rule:nonzero;"></path><path d="M4429.716,4780.82c-104.736,-70.441 -122.514,-153.705 -146.872,-269.01c-19.79,-65.824 -29.105,-134.338 -39.666,-201.411c-42.051,-215.501 -83.644,-431.819 -118.477,-648.457c-8.16,-51.814 -3.969,-104.744 -10.405,-156.757c-12.009,-79.765 -28.415,-158.761 -38.993,-238.767c-2.102,-10.752 -5.52,-21.162 -6.958,-31.995c-3.412,-19.328 23.349,-37.708 32.704,-13.554c7.141,23.105 10.814,47.071 14.415,70.956c6.887,63.122 21.284,124.925 31.288,187.553c9.93,66.154 3.772,133.652 16.34,199.553c30.415,175.607 59.9,350.21 96.037,524.541c22.174,101.126 30.009,204.1 59.536,303.161c20.39,101.353 35.534,164.17 120.409,231.868c29.44,3.202 54.45,-21.612 80.472,-32.486c18.426,-9.414 33.809,-17.171 50.383,-25.691c39.303,-18.789 72.338,-47.614 105.451,-75.383c47.225,-41.039 95.543,-76.183 127.269,-129.575c-71.118,-50.145 -167.176,-45.496 -250.488,-40.701c-118.138,0.617 -132.146,-142.433 -158.233,-229.592c-23.504,-91.549 -45.193,-183.447 -64.114,-276.063c-35.307,-158.183 -86.986,-312.428 -98.463,-475.194c-10.446,-93.834 -34.687,-185.609 -39.701,-280.101c1.39,-24.462 -20.993,-78.852 16.086,-79.055c24.866,10.774 16.727,106.033 24.255,134.34c19.993,118.851 36.866,238.189 52.615,357.735c25.614,140.071 73.288,275.15 97.188,415.788c20.952,94.881 45.593,189.041 71.303,282.758c9.37,30.96 19.808,63.627 44.347,86.112c54.087,43.181 137.267,1.579 202.416,22.466c130.284,20.754 192.556,67.244 74.717,174.646c-73.856,69.37 -151.168,137.546 -244.932,178.03c-31.36,14.698 -63.289,42.766 -99.926,34.284Z" style="fill-rule:nonzero;"></path><path d="M4763.339,2940.759c219.027,-133.351 158.481,29.134 114.195,173.632c-52.016,182.071 -117.274,360.138 -175.48,540.208c-30.058,78.47 -70.217,147.363 -83.059,230.452c-17.062,92.668 -21.742,188.908 -21.804,282.9c0,15.8 0.123,31.505 0.338,47.15c-21.064,-25.284 -29.78,-55.681 -32.583,-87.771c-4.373,-49.06 4.989,-102.153 5.021,-147.24c0.338,-3.295 0.677,-6.621 1.047,-9.916c2.802,-26.054 6.436,-52.078 11.148,-77.885c6.868,-37.541 16.015,-74.651 28.303,-110.746c26.146,-68.338 60.269,-132.364 80.533,-202.365c63.411,-215.116 155.032,-423.241 194.852,-644.023c-41.145,8.13 -91.128,18.631 -115.981,55.28c-3.141,9.301 -13.92,16.599 -23.374,11.518c-23.437,-17.03 0.493,-48.043 16.846,-61.193Z" style="fill-rule:nonzero;"></path><path d="M5148.268,2677.539c100.12,54.264 56.605,194.082 28.117,279.111c-46.627,167.042 -125.682,321.335 -180.592,485.266c-36.248,97.441 -110.284,181.855 -113.518,289.829c-11.025,65.259 25.222,73.697 81.304,76.222c118.753,-1.294 154.846,80.965 138.74,187.275c-2.433,7.391 -5.451,14.351 -8.992,20.911c-16.261,30.334 -43.177,52.724 -72.28,73.081c-19.464,13.612 -39.913,26.331 -58.792,39.851c-7.576,5.482 -14.936,11.056 -21.835,16.907c-80.811,55.435 -210.219,131.225 -308.862,128.577c-12.626,-4.774 -23.035,-11.086 -31.567,-18.755c-33.322,-29.596 -38.218,-78.562 -35.047,-128.485c2.402,-38.835 9.671,-78.255 12.196,-109.636c8.315,49.275 10.009,100.828 20.049,150.258c0.831,4.157 1.755,8.284 2.71,12.411c6.375,28.456 21.065,45.703 41.452,50.938c13.582,3.48 29.688,1.633 47.612,-5.79c69.262,-23.251 137.077,-50.568 197.869,-90.943c23.159,-17.308 47.735,-33.261 71.941,-49.614c13.273,-8.962 26.455,-18.077 39.205,-27.563c22.882,-17.03 44.44,-35.386 63.041,-56.789c0.646,-0.708 1.263,-1.417 1.879,-2.155c13.642,-22.112 7.237,-49.121 4.558,-73.358c-0.924,-57.282 -59.653,-73.82 -107.512,-74.005c-147.424,3.541 -120.847,-125.374 -91.189,-225.217c28.61,-81.489 84.352,-150.905 107.604,-234.795c60.085,-164.855 136.091,-324.321 182.164,-494.105c19.217,-58.914 39.666,-167.104 -41.884,-184.041c-83.09,-21.466 -166.796,-15.706 -251.425,-11.641c-24.7,24.022 -63.226,-7.915 -36.925,-33.877c26.824,-16.846 62.579,-6.867 92.914,-10.655c76.192,-8.53 153.553,-1.325 227.065,20.788Z" style="fill-rule:nonzero;"></path><path d="M4208.072,4857.462c4.281,-62.548 4.989,-125.22 2.464,-187.83c-2.895,-57.559 -8.685,-114.78 -17.677,-171.693c-8.5,-50.353 -19.525,-100.182 -33.63,-149.303c-11.179,-37.418 -24.052,-74.281 -39.112,-110.314c-0.985,-2.401 -2.003,-4.804 -3.019,-7.206c-8.715,-19.802 -18.077,-39.297 -28.21,-58.422c-5.851,-11.025 -11.918,-21.927 -18.262,-32.675c-14.782,-24.329 -30.92,-47.704 -48.659,-69.94c-14.875,-17.954 -30.704,-34.985 -47.858,-50.845c-14.566,-12.997 -29.872,-25.13 -46.133,-35.971c-11.333,-7.238 -23.005,-13.92 -35.109,-19.802c-3.48,-1.694 -7.021,-3.265 -10.563,-4.805c-3.973,-1.632 -7.945,-3.141 -11.949,-4.588c-2.402,-0.893 -4.835,-1.725 -7.238,-2.557c-5.79,0.339 -11.703,-1.416 -16.291,-5.05c-2.926,-0.863 -5.913,-1.663 -8.869,-2.433c-15.522,-3.264 -30.951,-5.389 -46.78,-6.436c-14.905,-0.184 -29.534,0.462 -44.347,2.156c-0.154,0.031 -0.339,0.031 -0.493,0.061c-15.768,2.587 -31.166,6.19 -46.472,10.871c-15.244,5.328 -29.996,11.579 -44.471,18.694c-16.876,9.054 -32.953,19.032 -48.597,30.058c-16.538,12.411 -32.183,25.684 -47.304,39.789c-17.431,17.123 -33.754,35.047 -49.367,53.864c-0.801,0.985 -1.571,1.94 -2.372,2.895c-19.464,24.452 -37.111,50.198 -53.587,76.714c-19.802,32.983 -37.726,66.952 -53.863,101.845c-19.556,43.208 -36.279,87.525 -50.938,132.642c-16.661,53.155 -30.242,107.08 -41.144,161.714c-0.061,0.339 -0.123,0.647 -0.185,0.955c-11.518,59.9 -19.309,120.416 -24.175,181.147c-4.496,63.226 -5.543,126.514 -3.233,189.893c2.864,58.606 8.684,116.812 17.708,174.803c8.592,50.938 19.679,101.353 32.398,145.977c12.627,42.9 27.594,84.938 45.21,126.021c13.858,30.828 29.103,60.855 46.38,89.927c11.672,18.909 24.114,37.202 37.51,54.91c2.772,3.727 5.636,7.422 8.531,11.087c14.936,18.139 30.827,35.262 47.95,51.307c15.244,13.55 31.135,26.054 48.043,37.387c15.151,9.485 30.735,17.77 47.057,25.037c14.967,5.944 30.058,10.81 45.672,14.598c2.802,0.554 5.605,1.078 8.407,1.57c11.21,1.91 22.481,3.234 33.877,3.973c14.782,0.339 29.349,-0.338 44.07,-1.971c15.183,-2.372 30.058,-5.697 44.84,-10.07c15.86,-5.297 31.166,-11.611 46.165,-18.94c17.061,-9.023 33.322,-19.093 49.151,-30.15c16.816,-12.503 32.768,-25.93 48.105,-40.252c18.663,-18.232 36.248,-37.48 52.601,-57.805c0.215,-0.277 0.431,-0.554 0.646,-0.832c18.509,-23.62 35.539,-48.258 51.4,-73.696c19.987,-33.014 37.973,-67.106 54.203,-102.122c19.71,-43.609 36.74,-88.326 51.492,-133.874c16.846,-53.401 30.427,-107.697 41.329,-162.607c1.724,-9.147 3.388,-18.293 4.958,-27.471c5.081,-29.318 9.362,-58.76 12.842,-88.294c2.679,-22.759 4.897,-45.58 6.621,-68.431c0.093,-1.17 0.185,-2.341 0.278,-3.511Zm42.376,-405.224c24.576,135.075 30.397,273.414 20.387,410.275c-0.8,10.625 -1.693,21.25 -2.71,31.875c-0.031,0.339 -0.061,0.677 -0.092,1.016c-2.31,24.699 -5.144,49.336 -8.501,73.912c-0.616,4.465 -1.231,8.931 -1.878,13.366c-16.63,114.872 -44.995,227.989 -87.556,336.147c-35.232,89.588 -81.211,176.312 -141.296,251.856c-47.827,59.438 -103.939,112.132 -172.062,147.517c-37.234,19.309 -77.454,31.628 -119.122,36.402c-10.07,1.139 -20.172,1.693 -30.273,1.693c-17.431,0 -34.801,-1.632 -51.985,-4.681c-12.103,-2.126 -24.083,-4.927 -35.909,-8.346c-37.356,-10.779 -72.187,-29.904 -103.693,-52.386c-31.166,-22.204 -58.729,-49.306 -83.614,-78.285c-4.558,-5.328 -9.054,-10.748 -13.427,-16.23c-44.563,-55.989 -78.655,-119.954 -106.311,-185.797c-30.304,-72.219 -52.231,-148.411 -67.168,-225.249c-9.855,-50.66 -17.277,-101.722 -22.112,-153.029c-0.031,-0.031 -0.031,-0.061 -0.031,-0.092c-2.772,-28.918 -4.681,-57.898 -5.79,-86.971c-5.02,-131.503 4.989,-262.974 29.842,-392.167c23.529,-120.323 60.269,-239.106 115.242,-348.897c13.766,-27.532 28.702,-54.51 44.871,-80.811c9.516,-15.46 19.525,-30.612 30.027,-45.425c5.02,-7.052 10.193,-14.012 15.46,-20.942c2.464,-3.233 4.958,-6.467 7.514,-9.639c1.355,-1.694 2.68,-3.388 4.035,-5.05c5.235,-8.008 12.442,-15.214 18.447,-22.235c50.569,-59.223 113.517,-109.298 186.012,-138.617c23.067,-9.331 47.366,-15.429 71.911,-19.248c26.332,-4.126 52.817,-3.85 79.24,-1.262c7.391,0.739 14.813,1.847 22.174,3.325c9.671,1.848 19.279,4.312 28.702,7.176c0.863,0.184 1.694,0.37 2.557,0.616c0.061,0 0.154,0.031 0.215,0.061c0.061,0.031 0.092,0.031 0.154,0.061c0.985,0.278 1.94,0.617 2.834,1.048c0.339,0.092 0.646,0.215 0.985,0.338c5.851,1.91 11.641,4.003 17.308,6.191c0.554,0.215 1.109,0.431 1.664,0.646c2.278,0.893 4.558,1.787 6.805,2.741c3.326,1.354 6.622,2.74 9.917,4.249c3.202,1.448 6.343,2.956 9.485,4.496c0.154,0.093 0.307,0.155 0.462,0.247c1.971,0.955 3.88,1.94 5.821,2.956c1.632,0.893 3.264,1.755 4.897,2.648c0.246,0.124 0.493,0.247 0.739,0.401c7.33,4.003 14.505,8.315 21.558,12.811c51.369,32.737 94.115,77.085 130.209,125.867c22.081,29.811 41.545,61.624 58.76,94.639c11.149,21.403 21.373,43.3 30.766,65.505c5.112,12.041 9.947,24.175 14.566,36.34c26.886,70.864 46.38,144.406 59.962,218.935Z" style="fill-rule:nonzero;"></path><path d="M5291.874,3612.099c20.356,-198.27 60.393,-396.417 127.561,-584.185c-117.675,170.153 -131.811,383.513 -127.561,584.185Zm958.428,34.677c40.837,-110.407 78.224,-226.665 49.921,-344.894c-32.644,-108.867 -70.525,-218.503 -123.834,-318.963c-93.283,-96.918 -214.746,-157.803 -338.396,-206.184c-8.099,0.924 -16.014,2.371 -23.775,4.249c-21.742,5.236 -42.253,13.952 -61.84,24.699c-41.576,22.729 -79.179,54.664 -116.597,82.474c-63.072,47.735 -129.131,96.979 -160.297,172.462c-43.855,114.071 -65.844,235.78 -93.961,354.471c-22.39,133.997 -35.047,269.319 -35.817,405.225c-4.465,99.997 24.637,200.61 71.295,288.627c79.024,126.175 137.816,261.558 311.726,251.087c141.142,-24.514 231.807,-148.441 315.606,-253.889c132.766,-143.791 146.655,-282.623 205.969,-459.366Zm74.467,-494.813c129.193,345.294 40.282,656.896 -158.173,952.823c-58.175,91.498 -139.356,163.654 -221.244,233.379c-70.494,65.074 -156.509,124.542 -256.199,123.926c-99.012,-10.902 -208.895,-48.382 -270.642,-130.579c-79.795,-118.444 -121.309,-263.775 -133.782,-405.194c-22.789,-97.503 -49.613,-195.375 -55.557,-295.65c-0.801,-114.534 -3.48,-230.668 19.864,-343.231c50.322,-288.997 229.929,-483.911 494.751,-569.988c20.388,-6.652 41.299,-12.657 62.671,-17.954c10.133,-2.556 20.388,-4.927 30.736,-7.176c82.042,-15.151 162.915,28.765 228.42,74.19c131.995,88.356 218.935,233.778 259.155,385.453Z" style="fill-rule:nonzero;"></path><path d="M4238.006,4910.648c9.824,-139.017 1.663,-280.344 -15.46,-416.588c-6.129,-97.318 -30.458,-192.296 -71.695,-279.297c-10.101,-21.343 -21.25,-42.223 -33.415,-62.548c-30.766,-51.585 -67.999,-99.535 -111.331,-142.497c-38.927,-31.629 -86.262,-46.873 -135.752,-55.65c-40.898,-7.33 -83.275,-10.194 -123.526,-14.32c-6.19,-0.617 -12.319,-1.294 -18.385,-2.002c-116.566,25.222 -207.294,108.066 -294.171,184.873c-27.132,24.791 -50.938,52.201 -71.88,81.55c-63.996,89.65 -101.537,197.5 -127.345,304.365c-28.487,91.59 -42.9,186.228 -36.618,282.161c-2.679,80.872 6.068,162.453 24.668,241.509c0,0.031 0,0.061 0.031,0.092c12.719,54.202 30.119,107.203 51.616,158.05c43.023,90.912 66.983,189.801 127.376,271.35c17.4,24.175 36.709,48.105 57.713,70.833c57.313,62.056 127.283,115.365 205.661,140.988c41.791,13.643 85.985,19.402 131.903,14.413c58.883,-2.74 105.017,-37.756 143.914,-79.178c47.488,-45.487 93.899,-93.16 126.944,-150.474c91.528,-140.218 140.311,-298.02 161.253,-461.183c3.664,-28.672 6.498,-57.497 8.5,-86.446Zm61.717,-291.523c2.895,76.192 5.359,152.938 3.727,229.437c-0.216,9.824 -0.462,19.618 -0.832,29.442c-1.016,28.24 -2.648,56.45 -5.112,84.568c-1.232,14.351 -2.68,28.703 -4.404,43.024c-5.05,42.808 -12.226,85.399 -22.204,127.591c-45.887,186.597 -125.528,372.887 -264.637,508.917c-79.825,87.433 -155.524,138.525 -279.235,125.097c-24.545,-3.141 -48.474,-8.407 -71.664,-15.583c-90.851,-27.933 -170.984,-84.63 -236.643,-155.247c-47.212,-50.784 -86.908,-108.744 -117.736,-168.459c-51.523,-125.713 -109.174,-244.434 -139.879,-375.722c-33.107,-122.848 -27.718,-253.057 -24.268,-379.201c11.057,-107.666 44.224,-212.313 76.069,-315.36c47.766,-143.944 137.508,-270.612 259.71,-360.847c65.32,-52.385 132.888,-106.834 215.855,-127.036c37.449,-10.748 74.743,-22.882 113.116,-29.904c18.448,-5.913 36.463,6.682 40.498,24.421c0.524,2.187 0.801,4.466 0.863,6.776c18.016,1.971 35.848,5.328 53.556,9.362c21.927,4.989 43.67,11.026 65.351,16.784c86.816,29.041 158.326,120.94 211.389,214.161c12.595,22.174 24.175,44.409 34.677,65.905c10.779,22.111 20.418,43.423 28.857,63.01c41.821,121.124 52.723,251.857 62.948,378.863Z" style="fill-rule:nonzero;"></path><path d="M4586.626,3893.213c22.851,12.503 21.989,47.119 6.191,65.012c-6.129,6.682 -13.643,10.039 -21.805,11.949c-16.784,3.911 -36.309,1.725 -52.17,9.701c-48.72,9.516 -83.983,47.581 -128.977,63.103c-31.198,-0.646 -38.434,-41.914 -22.666,-63.503c19.432,-20.603 48.874,-31.69 71.541,-48.874c40.559,-16.969 98.92,-46.011 143.421,-38.311c1.509,0.278 2.987,0.585 4.465,0.924Z" style="fill-rule:nonzero;"></path><path d="M5021.047,4089.235c8.007,46.657 9.085,93.684 4.22,140.095c-13.89,132.088 -75.946,259.341 -164.086,359.892c-22.205,25.345 -46.042,48.997 -71.203,70.586c-117.305,107.111 -256.876,183.58 -398.326,255.398c-3.357,1.694 -6.714,3.418 -10.102,5.113c-27.994,14.166 -56.081,28.179 -84.044,42.253c-11.179,5.606 -22.328,11.241 -33.476,16.877c-2.126,1.078 -4.25,2.155 -6.375,3.233c-9.393,4.774 -18.786,9.578 -28.148,14.413c-0.278,0.124 -0.523,0.278 -0.801,0.401c-12.781,6.344 -26.269,13.12 -40.375,20.203c-147.178,73.943 -360.353,179.792 -508.301,132.057c-98.981,-37.233 -148.01,-157.803 -147.856,-257.4c9.331,-88.603 36.649,-177.637 83.182,-253.95c54.079,-91.405 127.129,-167.935 205.631,-238.645c80.318,-86.262 173.571,-157.095 267.901,-227.065c4.589,-3.388 9.178,-6.805 13.766,-10.193c4.958,-3.296 9.886,-6.745 14.782,-10.286c9.27,-6.714 18.448,-13.766 27.717,-20.757c9.208,-6.929 18.54,-13.797 28.087,-20.11c15.953,-10.564 32.614,-19.679 50.722,-25.253c41.914,-2.433 42.808,64.919 9.27,78.347c-8.623,3.88 -17.03,8.191 -25.315,12.811c-10.902,6.067 -21.527,12.688 -31.998,19.71c-8.469,5.697 -16.815,11.671 -25.069,17.8c-10.348,7.637 -20.572,15.552 -30.735,23.56c-25.623,20.172 -50.938,40.836 -77.177,59.13c-113.887,83.952 -212.652,186.998 -310.062,289.182c-79.61,101.445 -177.359,265.284 -116.998,394.661c45.733,132.211 185.521,111.392 292.601,75.145c102.091,-32.368 197.715,-78.932 292.693,-127.037c12.288,-6.252 24.545,-12.472 36.833,-18.755c9.793,-4.958 19.587,-9.947 29.38,-14.936c0.216,-0.061 0.431,-0.185 0.647,-0.308c11.518,-5.821 23.036,-11.641 34.585,-17.4c10.286,-5.144 20.572,-10.225 30.889,-15.275c150.627,-76.407 317.607,-165.287 442.211,-285.641c87.894,-84.876 154.723,-185.427 179.884,-308.277c6.683,-32.521 10.44,-66.583 10.902,-102.337c-0.892,-12.535 -2.402,-24.976 -4.249,-37.387c-1.263,-8.746 -2.711,-17.493 -4.25,-26.208c-1.139,-6.436 -0.739,-12.473 0.77,-17.924c5.143,-18.847 23.621,-30.766 39.204,-27.563c10.225,2.064 19.217,10.625 22.39,27.933c0.246,1.294 0.462,2.617 0.677,3.911Z" style="fill-rule:nonzero;"></path><path d="M5097.638,4026.317c43.054,-5.759 60.978,45.271 46.288,79.302c-13.52,55.527 -66.521,84.322 -108.374,117.274c-3.418,2.186 -6.837,4.312 -10.286,6.436c-22.697,14.012 -46.041,27.009 -69.662,39.481c-51.031,26.917 -103.539,51.338 -154.57,78.07c-60.577,29.903 -130.301,64.519 -199.071,44.254c-34.801,-9.793 -57.005,-48.658 -47.889,-83.582c5.79,-18.54 22.82,-35.786 45.918,-51.739c12.319,-8.562 26.393,-16.723 41.36,-24.514c60.762,-31.751 136.707,-57.744 174.587,-78.625c55.588,-30.796 109.852,-63.964 162.731,-99.196c20.665,-12.626 54.757,-47.026 82.351,-52.878c12.873,-2.741 24.329,0.739 32.305,15.552c1.57,2.926 3.018,6.313 4.312,10.163Z" style="fill-rule:nonzero;"></path><path d="M4392.267,4916.222c-0.215,-0.339 -0.401,-0.677 -0.616,-1.016c-1.971,-3.326 -3.48,-7.083 -4.373,-11.057c-2.218,-9.67 -1.139,-21.034 3.141,-30.643c-23.282,18.755 -54.664,32.429 -69.816,59.007c6.159,1.139 12.38,0.37 18.539,-0.154c9.116,-1.694 17.986,-3.85 26.855,-6.498c5.204,-1.756 10.409,-3.604 15.552,-5.544c3.604,-1.324 7.145,-2.71 10.717,-4.096Zm481.817,-302.733c4.527,59.53 -53.371,103.631 -88.418,145.392c-83.12,75.853 -385.114,283.669 -492.257,246.837c-0.092,-0.031 -0.215,-0.093 -0.307,-0.124c-13.243,-5.359 -22.852,-14.752 -29.072,-26.146c-1.756,-3.233 -3.265,-6.621 -4.496,-10.132c-5.667,-16.015 -5.851,-34.492 -1.171,-51.031c2.31,-7.822 5.359,-15.337 9.024,-22.574c0.246,-0.462 0.462,-0.892 0.739,-1.324c8.654,-16.63 20.818,-31.844 35.324,-45.826c58.576,-56.635 155.493,-93.684 218.01,-125.806c69.447,-29.011 171.97,-129.285 254.259,-145.669c15.06,-2.987 29.473,-3.173 42.869,0.401c15.676,-3.696 31.69,1.231 42.592,11.733c6.529,6.313 11.24,14.598 12.904,24.268Z" style="fill-rule:nonzero;"></path><path d="M5906.301,3396.861c3.172,35.817 22.789,73.019 12.134,108.466c-0.247,0.74 -0.523,1.478 -0.832,2.187c-6.929,16.445 -27.994,28.21 -43.609,15.46c-3.942,-4.404 -7.298,-10.009 -10.224,-16.507c-17.123,-38.034 -18.94,-106.557 -27.348,-142.681c-9.763,-92.853 -21.865,-185.089 -43.608,-276.032c-17.462,-93.53 -30.366,-187.614 -40.436,-282.069c-3.142,-29.38 -5.975,-58.791 -8.593,-88.233c-11.395,-127.191 -18.571,-254.844 -25.715,-382.281c-9.916,-125.312 -27.655,-251.517 -25.161,-376.768c0.031,0 0.061,0 0.123,0.031c0.216,-2.125 0.554,-4.189 0.985,-6.129c6.683,-29.072 37.387,-36.094 52.847,-19.124c5.636,6.159 9.239,15.521 8.9,28.179c-0.616,107.142 12.35,213.884 22.081,320.472c9.086,139.233 16.446,278.681 28.61,417.667c2.372,27.193 4.927,54.356 7.761,81.488c8.407,81.673 18.94,163.162 32.922,244.25c27.717,122.818 43.67,246.898 59.161,371.625Z" style="fill-rule:nonzero;"></path><path d="M5858.538,3622.104c-53.71,-41.14 -21.113,-148.439 52.663,-112.458c90.936,-34.986 28.833,173.019 -52.663,112.458Z" style="fill-rule:nonzero;"></path><path d="M5839.619,1783.425c-138.948,-52.105 -269.143,-125.873 -404.489,-186.912c-15.639,-6.546 -31.208,-12.606 -47.488,-17.426c-13.444,-1.123 -25.478,-7.338 -31.686,-19.526c-9.886,-16.876 -4.281,-42.499 10.44,-54.728c19.434,-15.965 44.705,1.4 65.567,6.345c106.147,43.878 206.565,100.479 311.664,146.685c37.022,20.015 76.889,33.502 115.147,50.54c32.5,17.417 19.775,78.777 -19.156,75.022Z" style="fill-rule:nonzero;"></path><path d="M5931.092,1925.018c-15.694,-3.997 -35.636,-11.165 -36.802,-30.057c-1.924,-16.38 18.872,-23.933 22.007,-5.228c0,0 0.001,0.002 0.001,0.002c17.133,11.828 41.901,9.663 59.212,-0.521c15.155,-16.118 25.37,-37.879 23.866,-60.316c-3.023,-25.953 -1.4,-54.255 -15.621,-77.175c-5.441,-10.196 -11.822,-25.943 -25.881,-23.767c-28.257,11.839 -52.216,26.51 -78.736,39.35c-33.803,14.557 -70.862,15.372 -106.865,19.96c-83.096,8.087 -166.156,19.879 -248.069,33.196c-75.349,7.5 -148.903,21.147 -223.154,34.892c-43.539,8.417 -88.003,7.481 -131.845,13.252c-61.289,12.64 -123.962,14.918 -186.124,19.928c-32.152,5.625 -64.748,9.744 -96.495,17.205c-15.373,2.378 -16.512,-23.982 -2.834,-27.038c67.745,-16.219 137.195,-20.539 206.4,-26.118c36.465,-2.095 71.898,-11.981 108.282,-14.659c25.057,-1.835 50.268,-2.548 75.199,-5.87c67.044,-10.949 134.185,-23.944 201.356,-33.766c66.032,-5.546 130.184,-19.334 195.498,-27.562c42.004,-3.71 83.888,-8.844 125.774,-13.614c23.569,-2.159 46.992,-5.074 69.489,-12.846c23.717,-10.142 46.379,-23.512 69.281,-34.731c23.374,-15.134 47.314,-11.44 60.914,14.196c16.063,23.786 22.039,51.333 23.654,79.639c1.71,17.2 3.608,34.734 -0.46,51.771c-7.103,24.488 -19.741,52.394 -43.918,63.718c-14.004,4.511 -29.336,7.662 -44.132,6.158Z" style="fill-rule:nonzero;"></path><path d="M4828.379,2081.168c-3.941,-21.97 24.562,-20.915 38.772,-26.826c53.803,-13.673 110.226,-14.194 164.98,-23.034c84.352,-11.826 169.246,-19.378 253.719,-30.461c46.824,-7.05 93.251,-16.593 140.08,-23.801c80.005,-16.034 161.583,-19.871 239.512,-43.36c62.645,-19.922 123.47,-45.287 186.161,-64.925c35.54,-7.52 71.403,-15.396 107.635,-18.417c28.773,1.261 85.593,2.77 94.176,35.789c2.155,8.777 1.417,19.618 -5.79,25.871c-16.737,14.262 -52.137,-10.893 -52.415,-30.676c-34.753,-8.496 -69.558,0.81 -103.849,6.927c-102.079,19.209 -194.348,74.456 -297.651,89.994c-101.565,14.684 -200.353,31.571 -301.078,49.072c-107.013,13.728 -214.494,24.581 -321.418,39.097c-32.537,4.871 -65.976,4.809 -97.78,13.921c-9.767,3.009 -19.655,5.537 -29.056,8.527c-6.553,3.822 -14.499,0.01 -16,-7.696Z" style="fill-rule:nonzero;"></path><path d="M4928.603,1624.135c-3.605,-27.791 39.533,-22.935 57.223,-27.514c43.82,-5.921 86.438,-17.977 129.562,-27.487c49.103,-11.797 102.825,-14.416 146.705,-41.358c8.734,-4.43 9.759,-19.104 21.413,-17.618c39.2,4.882 84.329,32.955 120.047,5.173c15.282,-14.511 0.086,-39.753 -7.201,-55.164c-27.211,-51.751 -90.544,-27.181 -113.83,14.298c-19.194,13.128 -43.497,18.97 -66.399,22.172c-29.583,4.618 -59.114,9.972 -88.48,15.769c-49.906,9.404 -99.937,13.318 -149.426,23.959c-19.846,4.176 -39.931,7.641 -59.5,12.905c-6.822,1.763 -12.37,-4.458 -12.872,-10.932c-1.877,-16.012 15.488,-18.013 27.285,-20.234c20.394,-4.297 40.793,-8.785 61.317,-12.505c56.013,-10.042 112.815,-15.323 168.49,-27.501c35.387,-7.283 72.332,-8.138 105.284,-24.226c15.431,-25.933 44.303,-44.555 73.767,-50.116c39.731,-7.997 70.585,26.586 82.873,60.791c19.746,45.521 -1.068,84.368 -50.813,90.484c-30.199,1.712 -59.246,-11.271 -88.584,-16.5c-39.881,45.223 -134.239,46.527 -190.99,62.999c-47.805,12.915 -96.643,20.726 -145.299,28.229c-3.549,0.976 -6.82,3.67 -10.479,3.828c-4.885,0 -9.022,-4.766 -10.095,-9.452Z" style="fill-rule:nonzero;"></path><path d="M6101.793,3893.207c24.813,-59.221 53.159,-117.278 73.297,-178.283c29.203,-100.298 45.826,-209.033 38.493,-313.112c-5.203,-60.588 -21.326,-119.535 -37.049,-178.067c-17.574,-57.396 -35.653,-115.537 -68.415,-166.25c-20.394,-31.05 -46.523,-58.517 -78.756,-77.32c-11.46,-6.344 -32.847,-14.239 -22.95,-30.707c10.849,-11.702 25.013,2.284 35.786,7.361c35.354,21.28 64.02,52.23 85.954,86.939c33.508,52.865 51.994,113.09 70.001,172.524c19.109,69.895 37.295,140.03 39.331,212.652c1.327,93.365 -11.118,188.008 -38.345,277.356c-23.64,66.426 -61.134,126.865 -97.277,187.061c-0.05,0 -0.096,-0.087 -0.071,-0.155Z" style="fill-rule:nonzero;"></path><path d="M3883.952,5500.7c28.159,-64.106 82.506,-110.593 124.06,-164.871c123.188,-174.597 126.86,-375.488 103.804,-579.552c-3.743,-39.239 -8.901,-77.548 -12.845,-116.629c0.255,-14.654 -10.51,-42.946 7.979,-48.597c12.269,0.158 11.515,15.761 11.938,24.615c3.055,33.449 7.483,66.791 11.209,100.186c13.681,130.987 25.894,265.297 -1.526,395.298c-21.626,93.556 -58.341,186.42 -119.307,261.435c-40.852,43.684 -90.041,79.343 -125.241,128.269c-0.05,0 -0.096,-0.087 -0.071,-0.154Z" style="fill-rule:nonzero;"></path></g></svg>