<svg width="100%" height="100%" viewBox="0 0 9442 6200" version="1.1" xmlns="http://www.w3.org/2000/svg" xmlns:xlink="http://www.w3.org/1999/xlink" xml:space="preserve" style="fill-rule:evenodd;clip-rule:evenodd;stroke-linecap:round;stroke-linejoin:round;stroke-miterlimit:1.5;"><path d="M4423.207,182.554l-393.943,168.478l-67.391,224.638l-348.189,179.71l0,213.406l-168.478,265.771l-104.419,408.142l-277.465,215.62l168.478,623.762l108.986,617.919l329.057,283.64l22.464,381.884l-11.232,606.521l179.71,325.725l384.058,56.159l0,932.246l475.989,348.188l352.997,-203.369l-22.464,-189.747l-33.695,-303.261l370.652,11.232l265.105,-202.174l-152.787,-471.739l-56.159,-370.652l-22.463,-449.275l56.159,-516.667l175.25,-238.713l251.561,-143.171l-56.159,-808.696l123.551,-415.58l-318.953,-269.565l-164.018,-11.232l-235.869,-617.754l67.391,-292.029l-258.334,-89.855l-146.014,-123.551l-493.376,-146.014Z" style="fill:#fff;stroke:#000;stroke-width:1px;"></path><g><path d="M4341.747,2405.426c-68.766,0.371 -112.074,-65.961 -133.026,-124.098c-46.439,-127.267 -20.723,-266.684 13.429,-393.813c-14.941,-62.275 -14.005,-126.86 -11.91,-190.47c-0.482,-78.752 9.933,-153.737 89.971,-189.217c3.771,-1.767 9.11,-6.589 12.354,-1.663c1.223,2.08 0.538,5.039 -1.639,6.214c-3.058,1.664 -6.165,3.278 -9.196,4.967c-70.743,30.579 -83.57,103.034 -83.075,172.36c-2.274,61.036 -3.951,122.772 7.973,182.897c21.861,-70.493 50.596,-140.891 97.385,-198.699c26.229,-30.367 58.908,-58.807 99.611,-65.804c42.409,-9.051 97.794,4.097 113.164,49.243c12.096,34.883 6.483,72.789 3.3,108.784c-9.331,80.425 -47.161,157.228 -107.928,211.158c-38.816,38.973 -103.32,45.702 -148.852,14.532c-31.019,-21.012 -47.152,-56.649 -57.673,-91.442c-26.933,104.071 -48.441,214.405 -27.651,321.241c16.232,89.415 81.45,217.288 190.561,167.397c69.071,-35.412 106.9,-107.514 142.515,-173.024c79.503,-156.057 98.525,-335.005 87.349,-507.875c-8.107,-91.077 -16.308,-186.392 -57.406,-269.22c-9.887,-16.749 -31.716,-20.703 -49.125,-15.448c-10.45,3.803 -17.682,13.432 -23.796,22.101c-14.702,22.246 -28.509,45.697 -41.097,68.543c8.137,-18.528 16.831,-36.687 27.47,-53.94c8.15,-14.044 15.938,-29.537 30.162,-38.358c12.263,-6.808 27.796,-5.973 40.804,-1.712c19.087,7.659 26.998,29.034 33.561,46.968c27.784,77.257 38.365,158.994 44.497,240.489c12.827,185.93 -10.5,379.841 -104.501,543.63c-39.7,66.375 -90.811,151.966 -177.231,154.257Zm14.849,-401.549c54.834,-3.682 93.271,-51.284 122.457,-92.836c25.41,-36 41.185,-77.584 49.416,-120.562c6.589,-44.786 19.731,-112.713 -9.625,-150.378c-36.239,-39.16 -101.815,-32.464 -142.679,-4.2c-80.754,58.916 -117.419,158.494 -146.44,250.401c15.06,65.689 53.457,121.841 127.385,117.548c-0.001,0.001 -0.514,0.025 -0.514,0.026Z" style="fill:#f8eb1c;fill-rule:nonzero;"></path><path d="M4383.556,2478.419c-21.566,-2.01 -30.505,-16.896 -31.889,-37.121c-63.294,-8.312 -99.21,-71.426 -107.744,-129.686c-7.02,-41.419 -1.858,-83.593 3.032,-124.954c14.335,-115.911 47.796,-228.928 87.649,-338.437c34.813,-88.315 71.404,-178.917 134.152,-251.472c36.207,-38.83 90.811,-56.7 113.728,5.454c26.985,88.583 22.99,183.15 23.434,274.812c-3.442,138.363 -26.413,616.29 -222.363,601.405Zm19.472,-4.645c135.708,-19.639 170.154,-286.975 184.411,-398.552c-14.58,128.7 -68.237,363.604 -229.967,366.487c1.85,29.631 19.897,32.857 45.589,32.058c0,0 -0.034,0.006 -0.033,0.007Zm-35.154,-36.89c97.989,-8.854 149.404,-109.189 178.228,-192.197c50.391,-161.082 55.348,-336.144 25.385,-501.622c-12.627,-43.805 -15.469,-116.617 -59.675,-139.512c-36.708,-21.725 -60.226,22.922 -77.081,48.774c-33.491,47.905 -52.455,103.429 -69.352,158.834c-6.179,18.649 -11.883,37.45 -17.981,56.141c7.154,-33.171 16.503,-67.19 26.71,-99.994c-56.545,130.198 -99.894,267.461 -120.645,408.098c-5.733,47.141 -13.048,95.856 -3.57,142.835c9.257,53.623 43.475,110.173 101.293,118.352c-12.957,-110.04 -3.806,-221.436 16.344,-330.074c16.209,-79.513 38.579,-157.646 57.463,-236.551c9.68,-37.951 19.737,-75.795 24.389,-114.728c2.343,-15.573 5.129,-31.026 9.247,-46.234c3.208,-10.977 3.117,-25.401 13.748,-32.169c9.909,-2.398 20.64,-0.054 30.823,-0.463c2.471,0.049 4.55,2.03 4.55,4.574c0,2.447 -2.079,4.624 -4.55,4.55c-9.033,0.044 -18.326,-1.01 -27.213,-0.332c-5.724,6.48 -6.024,15.811 -8.209,23.816c-7.79,28.002 -10.675,56.988 -15.729,85.521c-7.84,38.19 -18.888,75.735 -28.011,113.652c-15.658,64.273 -34.142,128.179 -47.815,192.821c-21.697,110.557 -31.842,223.913 -19.251,336.052c3.637,0.132 7.252,0.076 10.901,-0.143Zm136.721,-841.042c48.665,16.293 53.779,75.47 65.144,118.203c25.413,105.743 29.53,216.081 21.425,324.257c10,-107.858 13.147,-216.718 6.264,-324.845c-5.757,-77.139 -21.196,-208.693 -121.658,-116.312c8.786,-5.235 19.493,-4.672 28.825,-1.303Z" style="fill:#f8eb1c;fill-rule:nonzero;"></path><path d="M4431.243,2449.147c-68.589,-44.371 -92.32,-126.78 -141.963,-188.199c-69.656,-133.425 -40.004,-293.716 -26.412,-437.339c12.664,-70.067 15.413,-141.874 12.037,-213.01c-10.939,-56.663 -20.151,-115.364 -1.787,-171.806c21.843,-72.42 68.743,-137.438 136.716,-172.334c212.809,-122.764 443.26,134.683 297.188,332.44c-6.247,70.6 -22.087,139.822 -37.776,208.77c51.159,169.791 123.553,512.51 -36.189,638.312c-61.227,49.264 -152.765,48.218 -212.138,-3.816c0,0 10.326,6.981 10.323,6.983Z" style="fill:#f8eb1c;fill-rule:nonzero;"></path><path d="M4105.72,1916.051c-85.928,-296.11 -141.578,-761.28 154.98,-956.206c58.911,-36.767 131.644,-65.315 199.341,-34.884c83.048,33.334 125.074,136.603 88.709,218.429c-84.228,162.472 -160.955,8.106 -324.374,349.475c-61.944,132.182 -114.173,276.591 -118.656,423.186Z" style="fill:#f8eb1c;fill-rule:nonzero;"></path><path d="M3977.832,1611.791c0.736,-192.73 -22.505,-406.994 95.795,-572.762c58.219,-76.455 148.784,-123.163 242.569,-138.308c131.786,-21.266 289.992,1.097 278.286,170.105c-64.898,244.733 -273.617,44.818 -391.186,150.602c-109.957,105.594 -163.406,254.798 -225.464,390.363Z" style="fill:#f8eb1c;fill-rule:nonzero;"></path><path d="M4066.641,2752.275c-25.983,-6.34 -34.594,-33.432 -39.018,-56.825c-7.42,-29.327 -15.369,-58.517 -20.722,-88.333c-43.966,-245.54 -8.435,-498.928 56.412,-737.59c28.865,-98.895 62.672,-196.563 105.043,-290.539c17.978,-40.992 37.88,-81.538 68.151,-114.95c4.913,-6.008 13.954,1.627 15.096,7.389c-9.906,94.064 -21.024,188.537 -29,283.112c14.278,-25.49 26.763,-56.288 54.463,-69.753c18.621,-6.947 42.295,-6.429 58.292,6.361c35.097,30.312 35.407,79.037 41,121.504c1.426,12.817 0.038,24.75 5.626,36.342c5.014,3.159 12.193,7.566 8.391,14.392c-4.247,7.167 -10.835,0.031 -15.338,-2.96c-2.891,-2.197 -4.034,-5.954 -5.455,-9.149c-11.344,-43.993 -1.918,-94.276 -28.224,-133.797c-12.065,-23.344 -43.389,-29.848 -65.432,-17.037c-28.01,21.206 -39.663,56.785 -56.486,86.446c-19.272,206.907 -55.887,412.323 -63.366,620.271c-2.516,46.658 -3.714,93.408 -7.093,140.022c-0.123,2.031 -1.468,4.134 -3.231,5.09c-16.152,4.974 -12.364,-39.02 -15.92,-48.486c-31.455,-195.965 -31.917,-381.947 26.538,-573.3c15.284,-50.46 30.106,-101.412 52.556,-149.257c10.186,-100.927 17.872,-202.288 31.716,-302.761c-22.166,24.951 -37.607,53.474 -51.462,83.383c-18.16,38.866 -34.992,78.337 -50.401,118.384c-94.897,249.847 -152.082,517.663 -138.209,785.585c4.428,75.854 15.87,149.548 36.326,222.191c4.595,20.609 9.225,47.79 33.783,52.181c17.126,0.129 30.011,-29.273 39.94,-41.266c8.418,-13.386 14.599,-27.988 22.096,-41.883c1.517,-2.813 5.064,-3.938 7.706,-1.933c2.74,2.08 3.229,6.165 1.639,9.1c-8.708,16.121 -15.729,33.171 -26.443,48.169c-12.462,15.89 -24.764,44.602 -48.974,39.894Zm56.775,-395.457c3.868,47.781 10.391,95.33 16.98,142.814c3.935,-100.098 9.471,-200.111 19.323,-299.813c13.039,-126.784 33.221,-252.764 45.356,-379.647c-64.99,170.619 -99.126,354.491 -81.659,536.646Z" style="fill:#f8eb1c;fill-rule:nonzero;"></path><path d="M4077.359,2851.767c-74.076,-41.52 -108.564,-124.296 -126.932,-203.482c-117.014,-91.612 -130.727,-305.66 -150.84,-444.966c-24.19,-261.514 0.108,-537.141 123.732,-772.643c59.435,-112.857 220.018,-225.818 335.704,-122.399c156.519,-5.589 233.118,185.736 179.209,315.201c20.782,73.816 11.421,154.8 -29.661,219.274c-3.061,84.436 -8.038,168.886 -7.501,253.375c-0.942,112.661 -1.226,225.333 -0.463,337.997c-1.025,109.073 3.359,226.559 -47.144,326.35c-46.906,98.885 -179.783,150.065 -276.103,91.295Z" style="fill:#f8eb1c;fill-rule:nonzero;"></path><path d="M3742.659,2614.416c-61.367,-84.63 -68.027,-192.26 -87.171,-291.781c-21.185,-32.187 -44.284,-62.32 -68.043,-92.498c-42.348,-64.87 -70.919,-138.534 -91.589,-212.92c-18.423,-82.562 -10.3,-167.964 -13.158,-251.914c0,-48.314 0.416,-96.774 11.812,-144.036c16.042,-58.02 40.937,-113.396 50.717,-173.289c16.987,-94.096 65.559,-177.269 121.357,-253.429c81.248,-126.244 180.717,-240.393 298.387,-333.99c71.847,-49.188 134.227,-113.122 213.411,-151.028c52.79,-24.585 106.46,-48.215 160.643,-69.691c97.208,-37.726 203.381,32.096 236.553,124.756c43.308,107.33 9.586,251.507 -96.04,309.203c-57.653,30.754 -102.415,46.515 -155.071,74.894c-57.742,45.549 -116.831,89.722 -173.741,136.272c-79.369,68.504 -139.06,154.721 -194.631,242.811c-25.955,33.896 -26.738,77.678 -38.115,117.441c-8.517,33.114 -19.475,65.382 -30.632,97.628c3.699,56.186 -7.962,116.427 7.979,170.291c131.357,131.699 121.492,185.367 156.939,354.426c196.205,211.596 -87.195,611.035 -309.608,346.854Z" style="fill:#f8eb1c;fill-rule:nonzero;"></path><path d="M4065.473,3283.729c-95.722,-6.659 -192.971,-28.722 -281.534,-65.913c-90.739,-25.234 -170.897,-75.451 -236.835,-142.128c-77.656,-59.107 -131.001,-143.365 -171.397,-231.065c-43.335,-102.309 -38.784,-216.972 -26.307,-325.14c0.168,-118.629 24.74,-235.139 59.724,-347.991c15.981,-63.195 54.722,-116.298 68.789,-180.092c15.947,-52.501 30.408,-105.155 59.794,-152.102c16.734,-48.094 43.395,-90.549 81.696,-125.613c73.133,-110.029 238.439,-106.489 309.731,3.789c-11.91,-251.629 65.556,-497.914 153.906,-730.493c85.376,-285.232 273.968,-354.611 552.896,-316.452c72.785,11.355 149.909,7.648 216.299,43.786c64.738,34.519 114.437,93.021 158.129,150.809c36.543,56.017 64.842,115.958 105.865,169.309c46.125,84.642 110.83,156.982 151.762,244.673c55.953,87.23 86.235,187.46 95.598,290.248c11.506,68.495 24.768,138.519 63.863,197.323c30.674,33.544 60.632,66.972 81.937,107.572c15.066,29.014 28.032,59.077 44.478,87.354c47.091,85.978 68.23,185.587 76.412,282.493c2.027,49.967 -4.163,99.294 -13.047,148.326c-0.954,45.444 -4.595,87.436 -13.638,131.818c-14.945,74.997 -42.664,146.67 -69.716,217.962c-35.219,86.725 -94.993,161.247 -154.947,232.169c-67.153,64.628 -152.811,104.498 -241.468,129.678c-111.557,41.003 -226.832,70.862 -341.764,100.054c-62.855,3.414 -125.472,14.252 -188.19,17.17c-86.454,-2.301 -173.983,-18.165 -258.641,7.8c-25.331,6.818 -50.852,12.749 -76.958,15.53c-65.901,26.804 -134.697,44.933 -206.44,39.127Zm-85.227,-1226.795c-6.461,177.471 10.048,354.96 3.675,532.489c10.079,-12.121 20.72,-23.799 32.481,-34.264c22.069,-19.639 42.835,-35.679 67.072,-51.599c30.681,-79.507 114.359,-141.018 201.688,-124.398c2.369,-213.388 84.208,-418.563 164.01,-613.523c63.557,-154.227 168.525,-295.566 200.441,-460.991c-83.151,29.93 -85.803,130.383 -115.712,201.442c-16.703,53.234 -52.589,148.613 -68.248,179.116c-42.697,94.584 -98.467,195.212 -193.863,244.639c-103.032,57.232 -234.975,20.676 -296.238,-79.125c0.565,8.023 0.779,16.027 0.646,23.985c6.13,22.962 8.956,46.648 8.834,70.459c0.18,-0.031 0.368,-0.064 0.548,-0.095c-1.167,37.613 -5.522,74.314 -5.335,111.867Z" style="fill:#f8eb1c;fill-rule:nonzero;"></path><path d="M5136.787,690.284c15.656,0.367 20.132,16.634 10.764,28.083c-4.305,5.871 -11.155,9.467 -17.614,12.426c-64.482,22.212 -134.641,19.741 -201.961,24.634c-128.99,7.266 -258.053,14.678 -387.093,20.794c-45.035,0.244 -90.144,-1.443 -135.081,1.834c-114.826,7.192 -228.894,22.824 -343.549,31.459c-78.794,8.512 -158.125,16.683 -237.432,16.952c-12.867,-0.661 -31.948,-2.079 -25.49,-20.157c8.073,-14.848 29.086,-16.879 43.837,-21.698c50.221,-11.081 101.274,-19.081 152.425,-24.56c26.884,-1.125 53.988,-1.712 80.359,-7.534c-8.586,-89.043 30.382,-171.775 69.767,-249.051c36.914,-92.419 118.202,-146.334 212.04,-170.209c119.939,-31.899 247.119,-8.904 361.236,34.419c56.753,17.857 91.269,70.965 103.891,126.789c21.894,67.1 19.252,138.873 5.333,207.318c67.834,-1.174 135.521,-5.675 203.355,-6.874c35.055,-1.321 70.109,-8.66 105.213,-4.624Z" style="fill-rule:nonzero;"></path><path d="M5586.023,2049.08c-17.082,-7.829 -7.138,-27.786 1.528,-38.363c15.263,-27.898 28.131,-57.813 35.436,-88.821c3.674,-44.607 7.969,-100.279 -25.984,-134.638c-53.66,-40.469 -128.999,-63.468 -194.623,-41.768c-23.519,15.455 -37.577,-17.25 -16.483,-29.127c84.761,-36.206 245.879,4.84 261.987,107.613c12.664,61.721 3.404,125.289 -25.46,181.197c-9.023,14.067 -16.176,45.812 -36.401,43.908Z" style="fill-rule:nonzero;"></path><path d="M3400.054,2178.247c-33.748,-44.662 -37.384,-109.031 -28.57,-163.166c9.834,-63.523 14.518,-136.566 65.757,-181.998c89.807,-93.314 90.268,1.386 58.52,-7.299c-46.479,27.601 -80.326,71.866 -86.39,126.435c-7.479,51.112 -23.156,104.592 -8.504,155.682c3.777,18.904 15.07,35.863 18.417,54.395c0.195,10.158 -9.285,20.767 -19.23,15.952Z" style="fill-rule:nonzero;"></path><path d="M4941.406,5127.171c1.174,-0.122 2.373,-0.22 3.547,-0.343c-2.642,0.172 -5.284,0.343 -7.926,0.465c1.468,-0.049 2.911,-0.098 4.379,-0.122Zm446.39,-69.498c7.265,29.942 -10.764,44.155 -37.574,51.249c-77.864,27.178 -160.156,34.712 -241.933,39.433c-115.095,9.809 -230.729,17.882 -345.8,26.102c0.832,107.732 12.304,215.073 24.267,322.39c4.794,51.004 -4.183,101.665 -10.25,152.18c-8.219,69.792 -19.154,187.651 -113.138,181.756c-59.713,-11.204 -90.658,-73.24 -117.126,-121.994c-53.89,-111.867 -50.515,-238.557 -59.957,-359.499c-23.312,-164.412 -19.325,-330.12 -21.869,-495.657c1.786,-106.485 -2.617,-212.7 -5.92,-318.647c-0.465,-29.526 0.44,-58.979 2.153,-88.407c-52.398,2.569 -104.797,6.703 -157.269,6.165c-18.151,0.489 -32.658,-0.979 -44.081,-3.67c2.496,3.303 4.746,9.149 6.336,18.249c-0.293,17.197 1.125,46.87 -21.796,48.851c-30.602,1.957 -61.327,1.517 -91.93,3.449c-70.354,3.694 -140.292,16.121 -210.817,15.9c-98.681,-1.81 -101.445,-21.087 -116.172,-111.377c-2.837,-16.17 -20.402,-29.428 -14.065,-46.528c6.898,-17.368 29.33,-10.397 44.008,-12.158c22.139,-0.049 44.301,-0.196 66.44,0.147c-71.553,-76.542 -66.978,-227.891 -56.949,-329.263c4.086,-68.397 0.758,-138.75 -1.859,-206.903c-5.406,-80.97 1.615,-162.063 4.648,-243.058c1.614,-100.711 5.553,-202.035 14.629,-302.208c2.055,-15.68 0.978,-32.535 7.388,-47.212c8.488,-16.047 28.474,-6.801 25.465,10.372c-8.513,39.556 -7.314,81.362 -11.669,121.431c-7.706,128.134 -9.418,256.635 -14.678,384.891c0.269,82.365 7.437,161.598 5.431,243.62c-4.697,118.129 -36.791,326.499 96.015,373.002c19.153,3.009 38.259,6.629 57.462,8.464l0.049,0c133.1,-9.174 148.585,-111.769 132.904,-227.623c-9.687,-71.43 -15.461,-143.349 -27.765,-214.437c-33.93,-180.899 -51.518,-364.367 -54.967,-548.324c1.492,-43.934 -3.449,-88.578 0.929,-132.145c3.376,-11.718 20.622,-14.09 24.438,-1.052c2.789,8.708 1.101,18.053 1.688,27.08c-0.294,181.364 8.953,363.389 37.476,542.649c20.573,110.741 35.03,222.387 46.968,334.327c11.204,85.007 0.269,162.895 -49.071,209.569c31.19,-6.433 62.208,-11.302 78.476,4.82c5.039,4.354 9.051,10.396 11.766,17.197c1.761,0.073 3.474,-0.074 5.064,-0.71c28.963,-13.088 62.281,-11.106 93.348,-14.653c39.262,-1.688 79.014,-9.394 118.227,-5.797c5.113,-54.355 11.498,-108.662 15.754,-163.042c9.908,-83.294 -3.327,-235.842 74.292,-285.745c5.773,-2.911 11.889,-4.819 18.127,-5.7c-5.309,-48.484 -2.324,-98.73 -8.953,-147.166c-8.244,-94.84 -4.648,-186.452 -10.275,-280.779c-2.568,-31.018 -5.797,-61.987 -9.662,-92.835c-0.563,-7.681 -3.082,-16.806 -2.667,-24.952c-6.654,-0.073 -13.283,-0.098 -19.937,-0.098c-18.641,0.049 -37.28,0.856 -55.872,1.663c-12.231,0.514 -24.486,0.758 -36.718,0.758c-25.465,0 -50.906,-1.052 -76.249,-2.789c-21.087,-1.443 -42.222,-2.569 -63.162,-5.553c-25.098,-3.596 -48.68,-14.629 -66.146,-33.244c-8.317,-8.904 -14.531,-20.108 -17.662,-31.924c-1.614,-6.091 -2.764,-12.745 -2.104,-19.081c-15.901,-23.801 40.754,-42.051 57.584,-53.352c74.512,-49.732 163.457,-43.127 247.682,-28.523c46.331,5.553 90.78,28.279 138.115,23.044c47.334,-6.189 92.835,-23.802 135.325,-45.108c21.6,-8.097 93.275,-66.122 102.522,-26.639c0.318,2.862 0.196,5.308 -0.318,7.461c1.541,9.247 2.569,18.689 2.177,28.083c-0.195,4.843 -0.734,9.711 -1.908,14.433c-1.077,4.427 -2.691,8.733 -4.158,13.038c-2.691,7.877 -5.676,15.631 -8.856,23.312c-3.327,7.951 -6.996,15.779 -11.547,23.092c-4.501,7.266 -9.54,14.14 -14.726,20.916c-5.724,7.485 -11.644,14.775 -17.76,21.943c-6.214,7.339 -13.748,13.821 -21.527,19.448c-7.289,5.284 -15.46,8.879 -23.679,12.451c-15.852,6.825 -31.801,13.406 -47.848,19.741c-16.635,6.58 -34.052,11.791 -51.861,13.919c-17.27,2.055 -34.59,3.23 -51.958,4.061c-18.591,0.929 -37.036,0.44 -53.573,-0.269c-2.568,-0.073 -5.113,-0.171 -7.681,-0.22c1.296,8.635 1.296,18.371 2.74,24.217c8.611,66.66 13.16,133.736 12.255,200.983c1.223,64.434 3.18,124.024 8.537,186.795c3.865,42.907 5.749,85.105 6.507,127.425c0.611,2.495 0.709,5.381 0.342,8.341c9.932,3.474 18.861,9.858 25.294,19.081c88.652,-1.419 99.758,260.328 106.803,328.065c10.25,101.152 21.625,202.353 25.735,304.018c4.476,81.386 -8.635,162.43 -5.676,243.743c3.498,86.622 15.24,172.778 11.18,259.668c-0.44,7.094 -0.856,14.164 -1.174,21.258c88.334,-0.685 178.6,6.654 265.441,-12.207c8.831,-23.826 1.663,-52.447 13.234,-74.39c1.59,-1.688 3.278,-3.131 5.064,-4.354c-81.656,-60.887 -58.514,-254.36 -62.673,-340.737c-10.568,-175.224 -10.275,-350.766 -23.386,-525.94c-11.644,-165.928 -33.514,-331.197 -38.92,-497.516c-6.042,-157.807 -0.758,-316.616 8.244,-474.056c6.043,-20.573 31.826,-13.919 26.346,8.635c-3.009,44.057 -3.89,88.285 -5.627,132.44c0.367,82.854 -6.115,165.659 -4.231,248.513c7.852,295.236 51.909,588.369 57.12,883.801c-2.031,117.933 13.038,235.279 7.559,353.285c2.397,56.679 8.072,118.3 34.932,168.913c35.006,37.647 95.55,26.492 146.847,23.826c27.031,-5.406 53.622,-12.965 79.845,-22.457c1.028,-0.098 2.129,-0.244 3.303,-0.391c36.277,-26.81 58.832,-72.873 64.287,-117.712c2.446,-35.716 -9.467,-70.256 -18.738,-104.259c-31.997,-110.423 -67.247,-219.623 -106.411,-327.698c-28.278,-89.043 -30.945,-183.321 -33.342,-275.96c-5.48,-104.014 16.023,-207.074 12.084,-311.064c-11.424,-154.773 -15.68,-309.987 -25.368,-464.687c-8.293,-80.726 -26.933,-160.987 -21.013,-242.447c0.367,-8.806 0.123,-19.252 7.902,-25.172c9.198,-7.192 19.741,2.079 20.059,12.451c-6.58,84.346 11.669,167.322 20.793,250.862c8.904,163.433 16.855,327.233 25.735,490.813c-5.994,169.964 -29.012,342.473 8.171,510.701c24.095,93.226 64.825,181.291 88.921,274.687c17.515,64.63 44.986,127.938 49.292,195.357c-0.44,43.298 -15.02,88.921 -41.293,124.954c21.111,-2.202 40.07,0.367 43.274,18.738c8.88,28.254 13.308,57.755 16.317,87.159Z" style="fill-rule:nonzero;"></path></g></svg>