<svg width="16" height="16" viewBox="0 0 16 16" fill="none" xmlns="http://www.w3.org/2000/svg">
<path d="M15.4854 7.5625C15.8608 13.8558 8.65391 17.7875 3.54492 14.0361C-1.01044 10.6909 -0.316481 3.67846 4.70703 1.25879L4.94922 1.14648L5.1748 1.05176C9.92553 -0.865724 15.1798 2.44123 15.4854 7.5625ZM12.7822 7.49121C13.0839 6.99852 12.9898 6.43887 12.6396 6.09082C12.2644 5.71788 11.649 5.64317 11.1445 6.04102L11.1221 6.05859L11.1025 6.07812L7.99805 9.15234C7.54369 8.66379 7.05314 8.19618 6.57227 7.74219C5.99314 7.19545 5.42952 6.66774 4.92676 6.11621L4.90527 6.0918L4.88086 6.07129C4.37919 5.64746 3.74794 5.70828 3.3584 6.07422C2.96544 6.4436 2.87138 7.07275 3.27637 7.59766L3.29883 7.62598L3.32422 7.65137C4.6566 8.9397 5.99597 10.4097 7.42285 11.6748L7.46973 11.7158L7.52539 11.7451C8.04573 12.0135 8.51811 11.7594 8.7793 11.5293L8.79102 11.5186L8.80176 11.5078L12.667 7.64648L12.6943 7.61914L12.7168 7.58887L12.7822 7.49121Z" stroke="white"/>
</svg>
