<svg width="208" height="228" viewBox="0 0 208 228" fill="none" xmlns="http://www.w3.org/2000/svg">
<g clip-path="url(#clip0_41_25)">
<path d="M0 46.7622C2.7096 22.8183 25.0258 1.68855 49.0621 0L162.34 0.182546L206.303 44.4424L207.071 47.4772C204.712 90.4211 210.047 136.438 207.056 179.024C205.511 201.052 183.393 228.008 160.217 228.008H0V46.7622ZM159.836 47.1425V8.00921L158.694 6.86829H47.5703C30.4754 6.86829 6.85012 31.2382 6.85012 48.2834V221.162H159.455C176.322 221.162 200.176 197.347 200.176 180.508V48.2834L199.034 47.1425H159.836Z" fill="black"/>
<path d="M101.229 72.9805V89.6986C117.951 78.0309 128.051 95.9737 122.769 111.581C119.512 121.211 107.349 123.424 100.849 115.537L100.476 119.34H92.8571V72.9805H101.229ZM112.41 95.2511C103.193 86.7323 96.4344 109.193 105.751 112.152C115.333 115.194 117.457 99.9212 112.41 95.2511Z" fill="black"/>
<path d="M159.075 105.656H137.002C137.177 111.247 142.422 115.567 147.62 112.076C148.914 111.209 149.355 109.086 150.436 108.775C151.015 108.607 156.122 109.87 157.21 110.197C157.888 110.395 158.763 109.824 158.299 111.338C154.341 124.268 129.056 123.934 127.846 105.306C126.111 78.7306 161.48 79.7954 159.075 105.656ZM149.941 99.5788C149.196 90.7482 138.281 91.06 137.002 99.5788H149.941Z" fill="black"/>
<path d="M76.1124 100.34C76.9268 96.2475 73.3191 92.7334 69.2547 93.8287C67.4965 94.3003 64.6879 97.0841 64.3226 97.1145C63.8735 97.145 57.6095 93.5777 57.8759 92.4064C62.5644 85.8347 73.3647 83.8571 80.1768 88.3067C89.0667 94.1101 82.7798 110.752 86.7681 119.332L78.0989 119.393L76.493 116.32C68.1663 123.736 54.2072 121.005 56.3688 107.611C56.8788 104.47 62.3361 100.347 65.0761 100.347H76.1124V100.34ZM76.1124 106.417C72.8624 106.28 63.2875 105.352 64.9924 110.988C66.5679 116.191 77.7488 112.677 76.1124 106.417Z" fill="black"/>
<path d="M56.3232 153.529H34.2506C34.4713 158.488 38.452 162.527 43.6048 160.975C45.1423 160.511 45.9719 158.29 47.1973 157.72C49.1686 156.815 56.1329 157.446 55.25 160.428C53.7582 165.486 45.7055 168.772 40.7886 168.65C17.8179 168.095 20.4666 128.307 46.4362 134.894C54.2757 136.879 56.9853 146.356 56.3079 153.537L56.3232 153.529ZM47.9508 148.212C46.0708 138.963 36.062 138.948 34.2506 148.212H47.9508Z" fill="black"/>
<path d="M104.076 134.711C116.726 132.589 125.319 139.359 124.878 152.388C124.459 164.748 114.306 170.642 102.729 167.608C89.1124 164.033 89.4549 137.161 104.076 134.711ZM104.487 159.385C116.117 169.304 121.384 137.83 106.337 142.287C100.895 143.9 100.75 156.191 104.487 159.385Z" fill="black"/>
<path d="M38.0562 72.9805V110.973H54.0398L53.2787 119.332H28.1616V72.9805H38.0562Z" fill="black"/>
<path d="M89.8127 144.409L81.935 145.984C81.0902 145.862 80.702 140.88 74.2248 142.15C66.7734 143.61 67.3899 162.329 76.9116 160.815C79.88 160.344 81.2881 157.02 82.6657 156.746C84.2564 156.434 87.8413 158.298 89.8127 158.092C88.4731 166.9 79.7506 168.946 71.911 167.98C56.1025 166.041 55.9274 136.347 72.6874 134.529C80.3671 133.692 88.2295 136.126 89.8203 144.402L89.8127 144.409Z" fill="black"/>
<path d="M165.164 72.9805H174.305L175.089 118.191C175.234 119.781 174.982 119.187 173.94 119.347C171.672 119.689 168.779 119.081 166.397 119.385C166.062 119.294 165.164 116.89 165.164 116.677V72.9805Z" fill="black"/>
<path d="M132.999 156.731C140.039 156.062 141.698 166.391 135.701 167.806C125.471 170.209 125.722 157.431 132.999 156.731Z" fill="black"/>
</g>
<defs>
<clipPath id="clip0_41_25">
<rect width="208" height="228" fill="white"/>
</clipPath>
</defs>
</svg>
