<svg width="1272" height="677" viewBox="0 0 1272 677" fill="none" xmlns="http://www.w3.org/2000/svg">
<path d="M223.836 45.0691L181.606 2.84778C178.139 -0.619071 172.612 -0.963988 168.747 2.05182L3.7532 130.546C1.51567 132.289 0.153688 134.907 0.0121839 137.737C-0.12932 140.567 0.967337 143.308 3.0103 145.263L67.9519 207.251C69.8356 209.046 72.25 209.939 74.6645 209.939C77.2292 209.939 79.7851 208.94 81.6866 206.95L223.978 58.6889C227.613 54.8948 227.551 48.7924 223.836 45.0691ZM222.695 57.4595L80.4131 205.729C77.3796 208.887 72.3385 208.993 69.1723 205.977L4.23078 143.98C2.55926 142.389 1.66601 140.142 1.78099 137.825C1.89596 135.517 3.0103 133.368 4.84101 131.944L169.835 3.44033C171.276 2.31714 173.01 1.76881 174.726 1.76881C176.777 1.76881 178.812 2.55593 180.359 4.09479L222.589 46.3249C225.623 49.3673 225.676 54.3641 222.695 57.4595Z" fill="#DADADA"/>
<path d="M730.899 494.734C729.245 491.515 726.123 489.551 722.524 489.445L628.45 451.982C625.69 450.823 622.489 451.018 619.889 452.495L588.873 470.13C585.388 472.102 583.496 475.949 584.044 479.911L587.988 508.601C588.139 509.698 588.059 510.786 587.767 511.847L570.088 574.622C569.266 577.523 569.823 580.583 571.6 583.015C573.387 585.438 576.137 586.888 579.153 586.986L665.214 589.63C665.312 589.63 665.418 589.639 665.515 589.639C668.681 589.639 671.644 588.109 673.475 585.5L730.2 504.763C732.314 501.756 732.57 498.006 730.899 494.734ZM728.75 503.746L672.024 584.483C670.476 586.685 667.921 587.95 665.267 587.861L579.206 585.217C576.739 585.137 574.492 583.952 573.033 581.962C571.574 579.981 571.123 577.478 571.786 575.099L589.465 512.325C589.828 511.033 589.925 509.698 589.74 508.362L585.795 479.672C585.344 476.427 586.901 473.287 589.74 471.669L620.764 454.034C621.976 453.344 623.338 452.999 624.709 452.999C625.752 452.999 626.796 453.202 627.778 453.609L722.019 491.152L722.17 491.214H722.338C725.336 491.249 727.954 492.868 729.325 495.547C730.695 498.218 730.483 501.287 728.75 503.746Z" fill="#DADADA"/>
<path d="M361.255 127.778L216.31 96.6296C213.038 95.9309 209.686 96.9303 207.333 99.3182C204.981 101.706 204.035 105.084 204.795 108.348L221.687 181.01C222.722 185.485 226.658 188.537 231.133 188.537C231.575 188.537 232.017 188.501 232.468 188.448L360.521 171.043C365.314 170.389 368.94 166.25 368.94 161.403V137.285C368.94 132.731 365.703 128.733 361.255 127.778ZM367.171 161.403C367.171 165.365 364.208 168.761 360.282 169.292L232.229 186.688C228.135 187.245 224.34 184.627 223.403 180.603L206.52 107.941C205.892 105.279 206.67 102.52 208.598 100.565C210.11 99.0175 212.145 98.1773 214.249 98.1773C214.815 98.1773 215.381 98.2392 215.939 98.363L360.883 129.503C364.527 130.29 367.171 133.562 367.171 137.285V161.403Z" fill="#DADADA"/>
<path d="M852.575 512.493C853.813 509.132 853.123 505.382 850.762 502.693L828.183 477.002C827.466 476.188 826.936 475.259 826.6 474.242L813.511 434.621C811.936 429.854 806.869 427.042 801.987 428.218L783.211 432.755C780.752 433.348 778.656 434.842 777.294 436.965L712.857 537.716C712.76 537.866 712.662 538.016 712.547 538.158L679.878 582.298C676.703 586.579 677.516 592.496 681.717 595.768L737.797 639.422C738.584 640.032 739.451 640.518 740.38 640.863L835.868 676.381C836.991 676.797 838.15 677 839.291 677C841.21 677 843.094 676.425 844.748 675.293C847.392 673.489 848.94 670.615 848.993 667.413L849.753 619.682C849.798 616.41 848.223 613.35 845.517 611.501L827.042 598.846C824.026 596.776 822.806 592.938 824.07 589.515L852.575 512.493ZM826.043 600.305L844.518 612.961C846.729 614.473 848.02 616.976 847.985 619.655L847.224 667.387C847.18 670.004 845.915 672.357 843.748 673.834C841.59 675.311 838.937 675.638 836.487 674.718L740.999 639.201C740.238 638.918 739.53 638.52 738.885 638.024L682.805 594.37C679.365 591.691 678.701 586.853 681.293 583.351L713.971 539.21C714.104 539.033 714.228 538.857 714.352 538.662L778.789 437.92C779.895 436.178 781.619 434.957 783.627 434.471L802.403 429.943C803.022 429.792 803.632 429.722 804.242 429.722C807.603 429.722 810.742 431.879 811.83 435.178L824.919 474.799C825.335 476.046 825.981 477.178 826.847 478.169L849.426 503.861C851.363 506.063 851.929 509.132 850.912 511.874L822.416 588.896C820.869 593.088 822.355 597.775 826.043 600.305Z" fill="#DADADA"/>
<path d="M589.067 251.868L529.583 124.364C527.363 119.606 521.835 117.475 516.989 119.509L488.299 131.59C484.301 133.27 481.878 137.462 482.426 141.769L497.93 264.71C498.54 269.583 502.767 273.218 507.587 273.218C507.915 273.218 508.251 273.2 508.578 273.174L581.249 265.656C584.415 265.329 587.139 263.551 588.714 260.783C590.288 258.006 590.412 254.76 589.067 251.868ZM587.175 259.908C585.883 262.181 583.664 263.631 581.064 263.896L508.401 271.414C504.129 271.856 500.22 268.743 499.681 264.489L484.177 141.548C483.735 138.028 485.716 134.597 488.989 133.217L517.679 121.136C518.696 120.712 519.748 120.508 520.783 120.508C523.781 120.508 526.629 122.215 527.982 125.107L587.467 252.62C588.563 254.982 588.457 257.635 587.175 259.908Z" fill="#DADADA"/>
<path d="M381.746 274.27L370.965 182.399C370.665 179.772 369.338 177.437 367.242 175.819C365.137 174.209 362.546 173.528 359.928 173.9L286.77 184.389C282.012 185.07 278.501 189.058 278.422 193.861L276.971 282.991C276.927 285.75 278.059 288.403 280.084 290.278C281.888 291.958 284.259 292.878 286.708 292.878C287 292.878 287.292 292.861 287.584 292.834L372.955 285.095C375.591 284.857 377.961 283.592 379.632 281.531C381.304 279.48 382.047 276.897 381.746 274.27ZM378.262 280.417C376.891 282.097 374.954 283.132 372.796 283.327L287.425 291.074C285.178 291.286 282.941 290.517 281.287 288.987C279.633 287.448 278.705 285.272 278.74 283.017L280.19 193.887C280.252 189.96 283.127 186.697 287.018 186.14L360.176 175.651C360.565 175.598 360.945 175.571 361.325 175.571C363.068 175.571 364.748 176.137 366.163 177.225C367.879 178.543 368.958 180.453 369.214 182.602L379.986 274.474C380.234 276.632 379.624 278.737 378.262 280.417Z" fill="#DADADA"/>
<path d="M1029.69 225.478L1024.94 209.329C1024.27 207.038 1022.8 205.084 1020.77 203.819L1010.64 197.487C1007.98 195.824 1006.54 192.737 1006.98 189.633L1011.76 155.637C1012.02 153.753 1011.73 151.843 1010.92 150.118L1003.16 133.73C1001.58 130.396 998.182 128.212 994.503 128.158L883.847 126.611H883.706C878.815 126.611 874.685 130.237 874.057 135.101L862.834 222.666C862.179 227.742 865.602 232.482 870.625 233.455L995.494 257.67C996.122 257.785 996.75 257.847 997.369 257.847C999.686 257.847 1001.92 257.025 1003.71 255.477L1026.72 235.587C1029.61 233.093 1030.76 229.131 1029.69 225.478ZM1025.56 234.242L1002.55 254.141C1000.69 255.742 998.244 256.397 995.839 255.928L870.961 231.722C866.858 230.917 864.054 227.043 864.585 222.887L875.817 135.322C876.321 131.342 879.708 128.38 883.706 128.38H883.821L994.477 129.927C997.493 129.972 1000.27 131.758 1001.56 134.482L1009.32 150.879C1009.98 152.285 1010.22 153.85 1010.01 155.389L1005.23 189.386C1004.69 193.188 1006.45 196.956 1009.71 198.99L1019.83 205.322C1021.49 206.357 1022.7 207.958 1023.26 209.824L1028 225.982C1028.88 228.962 1027.92 232.208 1025.56 234.242Z" fill="#DADADA"/>
<path d="M607.711 101.759L534.854 93.1097C531.298 92.694 527.929 94.171 525.824 97.0718C523.728 99.9726 523.374 103.643 524.886 106.88L564.101 191.013C565.746 194.55 569.266 196.638 572.927 196.638C574.298 196.638 575.695 196.346 577.013 195.727L606.49 182.027C609.709 180.524 611.858 177.402 612.097 173.855L616.272 112.08C616.625 106.906 612.867 102.369 607.711 101.759ZM614.512 111.956L610.337 173.741C610.134 176.632 608.383 179.197 605.747 180.418L576.27 194.126C572.29 195.974 567.55 194.241 565.701 190.27L526.496 106.137C525.258 103.484 525.541 100.477 527.257 98.1066C528.787 96.0017 531.13 94.8077 533.668 94.8077C533.996 94.8077 534.314 94.8343 534.641 94.8696L607.507 103.519C611.717 104.014 614.795 107.72 614.512 111.956Z" fill="#DADADA"/>
<path d="M494.684 264.551L483.859 172.237C483.24 166.966 478.606 163.207 473.326 163.676L382.507 171.795C379.862 172.034 377.483 173.298 375.812 175.368C374.14 177.429 373.389 180.02 373.716 182.655L384.903 274.775C385.505 279.718 389.653 283.327 394.543 283.327C394.826 283.327 395.118 283.318 395.41 283.291L485.867 275.376C488.511 275.146 490.89 273.881 492.562 271.821C494.242 269.769 494.994 267.186 494.684 264.551ZM491.191 270.706C489.82 272.395 487.874 273.421 485.716 273.616L395.26 281.531C390.962 281.894 387.185 278.843 386.663 274.553L375.467 182.443C375.21 180.285 375.812 178.163 377.183 176.473C378.553 174.784 380.499 173.749 382.666 173.555L473.485 165.436C477.81 165.056 481.595 168.133 482.099 172.44L492.924 264.754C493.181 266.912 492.562 269.026 491.191 270.706Z" fill="#DADADA"/>
<path d="M870.616 124.833L860.242 86.4678C859.146 82.4349 855.608 79.5518 851.443 79.2953L779.452 74.9175C775.853 74.7053 772.43 76.4829 770.555 79.5783L731.536 143.706C730.97 144.644 730.563 145.652 730.342 146.722L725.672 168.452C724.832 172.361 726.521 176.456 729.873 178.64L826.122 241.388C827.723 242.441 829.571 242.971 831.429 242.971C832.711 242.971 834.002 242.715 835.223 242.202L853.786 234.348C857.005 232.978 859.261 229.971 859.659 226.495L870.891 128.477C871.032 127.256 870.935 126.027 870.616 124.833ZM869.131 128.273L857.899 226.292C857.572 229.139 855.732 231.598 853.096 232.712L834.533 240.575C832.092 241.609 829.306 241.362 827.086 239.911L730.837 177.163C728.095 175.377 726.716 172.025 727.396 168.823L732.066 147.093C732.252 146.218 732.588 145.395 733.048 144.626L772.068 80.4981C773.518 78.1014 776.092 76.6687 778.86 76.6687C779.019 76.6687 779.187 76.6775 779.346 76.6863L851.336 81.0641C854.75 81.2675 857.642 83.6289 858.535 86.9277L868.91 125.293C869.175 126.266 869.246 127.274 869.131 128.273Z" fill="#DADADA"/>
<path d="M1271.11 232.668L1255.46 192.065C1254.46 189.465 1252.39 187.422 1249.78 186.449C1247.18 185.477 1244.27 185.662 1241.81 186.971L1197.91 210.328C1196.78 210.93 1195.51 211.257 1194.23 211.266L1157.22 211.522C1156.71 211.522 1156.2 211.566 1155.69 211.655L1037.33 231.439C1035.56 231.731 1033.9 232.509 1032.55 233.694L1006.19 256.618C1003.01 259.377 1001.98 263.834 1003.59 267.717L1027.34 324.398C1028.19 326.415 1028.15 328.723 1027.26 330.722L1018.97 349.232C1017.61 352.275 1017.89 355.75 1019.72 358.536L1053.35 409.911C1054.84 412.193 1057.15 413.705 1059.83 414.174C1060.39 414.271 1060.96 414.315 1061.52 414.315C1063.62 414.315 1065.64 413.643 1067.36 412.343L1111.81 378.709L1258.78 267.293C1260.2 266.205 1261.31 264.745 1261.96 263.074L1271.09 239.699C1271.98 237.435 1271.98 234.932 1271.11 232.668ZM1269.45 239.062L1260.31 262.437C1259.78 263.799 1258.88 264.993 1257.71 265.877L1110.74 377.294L1066.29 410.937C1064.51 412.281 1062.33 412.812 1060.13 412.432C1057.93 412.051 1056.05 410.813 1054.83 408.947L1021.19 357.572C1019.7 355.29 1019.48 352.443 1020.59 349.957L1028.88 331.447C1029.97 329.006 1030 326.185 1028.97 323.717L1005.23 267.036C1003.9 263.861 1004.75 260.208 1007.34 257.953L1033.71 235.03C1034.82 234.066 1036.17 233.429 1037.62 233.181L1155.98 213.397C1156.39 213.326 1156.82 213.291 1157.23 213.291L1194.24 213.035C1195.8 213.035 1197.36 212.628 1198.74 211.894L1242.64 188.537C1243.81 187.918 1245.09 187.599 1246.38 187.599C1247.32 187.599 1248.26 187.767 1249.17 188.103C1251.3 188.899 1252.99 190.571 1253.81 192.702L1269.45 233.296C1270.17 235.162 1270.16 237.205 1269.45 239.062Z" fill="#DADADA"/>
<path d="M1027.8 382.901L1013.24 360.791C1011.59 358.297 1011.47 355.131 1012.93 352.531L1023.9 332.871C1025.37 330.235 1025.54 327.122 1024.36 324.345L999.942 266.505C998.687 263.534 996.051 261.385 992.894 260.748L865.399 235.109C863.55 234.738 861.64 234.914 859.889 235.604L834.232 245.784C832.932 246.297 831.738 247.102 830.783 248.11L754.061 328.396C751.833 330.73 750.904 333.994 751.576 337.151C752.248 340.3 754.424 342.909 757.404 344.129L786.979 356.228C789.101 357.094 790.746 358.828 791.489 360.995L830.827 474.852L854.096 500.925C854.98 501.924 855.617 503.144 855.909 504.445L857.713 512.289C858.403 515.296 860.419 517.737 863.232 518.993C864.505 519.568 865.858 519.851 867.203 519.851C868.821 519.851 870.431 519.435 871.908 518.621L998.465 448.506L1024.67 432.808C1027.59 431.057 1029.4 427.855 1029.4 424.459V388.252C1029.4 386.35 1028.84 384.493 1027.8 382.901ZM1027.63 424.459C1027.63 427.236 1026.15 429.854 1023.77 431.287L997.59 446.976L871.05 517.074C868.848 518.294 866.256 518.409 863.948 517.383C861.649 516.357 860.004 514.35 859.438 511.891L857.633 504.047C857.271 502.455 856.501 500.969 855.414 499.748L832.384 473.942L793.161 360.411C792.25 357.775 790.242 355.644 787.651 354.592L758.076 342.484C755.6 341.476 753.867 339.398 753.31 336.78C752.752 334.162 753.486 331.553 755.335 329.625L832.057 249.33C832.844 248.508 833.817 247.844 834.878 247.429L860.543 237.249C861.976 236.683 863.532 236.542 865.045 236.851L992.549 262.481C995.131 263.003 997.289 264.763 998.315 267.195L1022.73 325.035C1023.7 327.308 1023.56 329.846 1022.35 332.004L1011.39 351.673C1009.61 354.848 1009.75 358.722 1011.76 361.764L1026.32 383.874C1027.18 385.183 1027.63 386.695 1027.63 388.252V424.459Z" fill="#DADADA"/>
<path d="M629.219 342.307L598.477 275.049C596.771 271.325 592.879 269.052 588.802 269.406L286.832 295.054C284.161 295.275 281.765 296.548 280.084 298.636C278.404 300.723 277.67 303.341 278.015 305.994L297.772 458.42C298.391 463.214 302.504 466.858 307.333 466.902L581.488 469.263H581.568C583.292 469.263 584.99 468.803 586.485 467.936L616.095 450.62C618.783 449.046 620.57 446.251 620.862 443.147L630.059 347.278C630.219 345.58 629.927 343.864 629.219 342.307ZM628.299 347.11L619.102 442.979C618.863 445.517 617.404 447.808 615.201 449.09L585.592 466.406C584.354 467.132 582.93 467.53 581.506 467.494L307.35 465.133C303.397 465.098 300.036 462.117 299.523 458.199L279.766 305.773C279.483 303.597 280.084 301.457 281.464 299.75C282.835 298.043 284.798 296.999 286.983 296.814L588.952 271.166C589.182 271.148 589.403 271.14 589.625 271.14C592.711 271.14 595.568 272.944 596.868 275.783L627.61 343.041C628.193 344.315 628.432 345.721 628.299 347.11Z" fill="#DADADA"/>
<path d="M823.982 246.571C823.628 243.67 822.01 241.096 819.542 239.531L700.13 163.526C698.264 162.341 696.036 161.819 693.842 162.058L649.596 166.904C648.632 167.01 647.694 167.258 646.81 167.647L577.287 197.593C574.846 198.645 572.989 200.591 572.043 203.067C571.096 205.544 571.194 208.232 572.317 210.638L629.52 333.525C631.112 336.957 634.561 339.15 638.337 339.15H638.559L738.319 336.912C740.91 336.851 743.325 335.789 745.12 333.914L821.338 254.469C823.363 252.355 824.327 249.481 823.982 246.571ZM820.064 253.248L743.846 332.694C742.378 334.224 740.397 335.091 738.284 335.144L638.514 337.381C635.366 337.443 632.456 335.648 631.121 332.782L573.918 209.886C573.007 207.923 572.927 205.72 573.697 203.695C574.466 201.67 575.996 200.078 577.986 199.22L647.509 169.265C648.234 168.956 649.003 168.753 649.79 168.664L694.037 163.818C694.32 163.791 694.612 163.773 694.895 163.773C696.407 163.773 697.902 164.207 699.175 165.02L818.596 241.017C820.612 242.308 821.939 244.404 822.222 246.783C822.505 249.162 821.727 251.515 820.064 253.248Z" fill="#DADADA"/>
<path d="M807.656 414.147L790.711 364.692C789.835 362.136 787.925 360.048 785.457 358.952L744.802 340.883C743.466 340.282 741.98 339.999 740.521 340.043L641.327 343.36C636.409 343.528 632.385 347.348 631.961 352.248L625.92 421.771C625.903 422.054 625.885 422.328 625.885 422.611V440.458C625.885 444.394 628.238 447.914 631.872 449.435L716.908 484.908C717.783 485.28 718.703 485.51 719.64 485.607L735.321 487.252C735.666 487.287 736.011 487.305 736.356 487.305C739.645 487.305 742.714 485.642 744.519 482.821L775.738 434.144C776.905 432.322 778.798 431.039 780.92 430.632L800.315 426.847C803.075 426.317 805.471 424.61 806.878 422.169C808.284 419.737 808.567 416.809 807.656 414.147ZM805.348 421.284C804.198 423.274 802.235 424.672 799.979 425.114L780.576 428.89C777.984 429.403 775.676 430.969 774.252 433.188L743.033 481.866C741.397 484.413 738.522 485.801 735.507 485.492L719.826 483.847C719.057 483.767 718.305 483.582 717.589 483.281L632.553 447.799C629.573 446.561 627.654 443.677 627.654 440.458V422.611C627.654 422.381 627.663 422.151 627.68 421.921L633.721 352.398C634.066 348.392 637.365 345.27 641.38 345.129L740.583 341.812H740.839C741.954 341.812 743.068 342.042 744.076 342.493L784.741 360.57C786.758 361.463 788.323 363.17 789.039 365.258L805.984 414.722C806.736 416.898 806.497 419.294 805.348 421.284Z" fill="#DADADA"/>
<path d="M398.391 475.357C396.622 472.668 393.641 471.023 390.422 470.97L326.666 469.865H326.506C321.554 469.865 317.318 473.676 316.822 478.62L312.621 520.293C312.338 523.061 313.258 525.829 315.151 527.872C316.99 529.862 319.59 531.003 322.297 531.003C322.359 531.003 322.429 531.003 322.491 530.994L374.149 529.951C378.014 529.871 381.463 527.51 382.94 523.937L399.248 484.413C400.478 481.432 400.159 478.045 398.391 475.357ZM397.612 483.732L381.304 523.256C380.101 526.183 377.271 528.12 374.105 528.182L322.456 529.226C320.192 529.287 317.99 528.341 316.451 526.67C314.903 524.998 314.151 522.734 314.381 520.47L318.582 478.797C318.989 474.755 322.456 471.633 326.506 471.633H326.639L390.396 472.739C393.066 472.783 395.446 474.092 396.914 476.33C398.382 478.567 398.638 481.264 397.612 483.732Z" fill="#DADADA"/>
<path d="M504.713 544.004L472.344 476.577C470.752 473.269 467.489 471.156 463.81 471.058L414.973 469.873C410.905 469.767 407.173 472.261 405.687 476.055L378.288 545.967C376.581 550.327 378.226 555.298 382.206 557.774L419.307 580.866C420.872 581.838 422.641 582.334 424.436 582.334C425.497 582.334 426.559 582.166 427.585 581.812L499.08 557.42C501.715 556.518 503.838 554.537 504.908 551.972C505.987 549.408 505.916 546.507 504.713 544.004ZM503.281 551.291C502.405 553.387 500.663 555.006 498.514 555.74L427.019 580.14C424.746 580.91 422.278 580.627 420.235 579.362L383.144 556.27C379.889 554.245 378.536 550.177 379.942 546.613L407.332 476.701C408.526 473.659 411.489 471.642 414.743 471.642H414.938L463.765 472.827C466.772 472.907 469.452 474.631 470.752 477.347L503.112 544.764C504.103 546.816 504.156 549.195 503.281 551.291Z" fill="#DADADA"/>
<path d="M585.556 503.481L582.293 479.602C581.63 474.808 577.491 471.2 572.653 471.2H488.759C485.398 471.2 482.329 472.889 480.534 475.728C478.738 478.576 478.535 482.078 479.977 485.112L503.112 533.656C504.766 537.123 508.277 539.193 511.93 539.193C513.089 539.193 514.265 538.989 515.397 538.547L579.419 513.872C583.646 512.245 586.175 507.973 585.556 503.481ZM578.782 512.227L514.76 536.902C510.904 538.388 506.491 536.628 504.713 532.896L481.577 484.351C480.392 481.866 480.56 479 482.028 476.674C483.496 474.348 486.017 472.969 488.759 472.969H572.653C576.606 472.969 580.002 475.923 580.533 479.841L583.805 503.719C584.309 507.398 582.24 510.892 578.782 512.227Z" fill="#DADADA"/>
</svg>
