<svg width="28" height="28" viewBox="0 0 28 28" fill="none" xmlns="http://www.w3.org/2000/svg">
<path d="M27.8058 7.16189C27.7703 8.94689 27.0506 10.5617 25.8914 11.7786L15.8594 1.6704C17.1605 0.597979 18.8559 -0.0348383 20.6985 0.00149988C24.7002 0.0812665 27.8829 3.287 27.8058 7.16189Z" fill="#FFD400"/>
<path d="M16.8065 5.53552C16.086 4.81319 15.1279 4.41525 14.1077 4.41347C13.0876 4.4117 12.1287 4.80788 11.4063 5.52844L2.67188 14.2407L10.2843 21.8717C11.0101 22.6003 11.9771 23.0018 13.0052 23.0026C14.0342 23.0035 15.0011 22.6047 15.7297 21.8779L24.4411 13.1887L16.8065 5.53463V5.53552ZM12.0507 17.2355C11.4568 17.793 10.5236 17.7637 9.96609 17.169C9.40861 16.5752 9.43786 15.642 10.0326 15.0845C10.6264 14.527 11.5596 14.5562 12.1171 15.1509C12.6746 15.7448 12.6454 16.678 12.0507 17.2355ZM15.1917 11.9878C14.6342 11.3939 14.6635 10.4607 15.2573 9.90319C15.8511 9.34571 16.7844 9.37496 17.3418 9.96966C17.8993 10.5635 17.8701 11.4967 17.2763 12.0542C16.6824 12.6117 15.7492 12.5825 15.1917 11.9878Z" fill="#FFD400"/>
<path d="M7.16187 27.7833C8.94687 27.7479 10.5617 27.0282 11.7786 25.8689L1.67038 15.8369C0.597963 17.138 -0.0348535 18.8335 0.00148462 20.6761C0.0812513 24.6777 3.28699 27.8604 7.16187 27.7833Z" fill="#FFD400"/>
</svg>
