<svg width="19" height="22" viewBox="0 0 19 22" fill="none" xmlns="http://www.w3.org/2000/svg">
<path d="M1.18164 3.30438H4.33855C4.59921 3.30438 4.84473 3.40575 5.0297 3.59071C5.214 3.77502 5.31603 4.02054 5.31603 4.28186V7.04778H2.16768C1.90439 7.04778 1.65689 6.94509 1.47061 6.75947C1.28433 6.57319 1.1823 6.32569 1.1823 6.06306V3.30504L1.18164 3.30438Z" fill="white"/>
<path d="M6.41939 3.63085L8.54089 2.7791C8.71598 2.70867 8.85355 2.57439 8.92793 2.40061C9.00231 2.22684 9.00429 2.03463 8.93386 1.85888L8.18741 1.52588e-05L6.07118 0.849802C5.89412 0.920891 5.75589 1.05649 5.68085 1.23158C5.60581 1.40667 5.60383 1.60085 5.67492 1.77791L6.41939 3.63151V3.63085Z" fill="white"/>
<path d="M6.42969 9.63002H16.0281C16.8219 9.63002 17.5677 9.93873 18.1292 10.5002C18.6907 11.061 18.9994 11.8075 18.9994 12.6013V21.0129H9.42598C8.62557 21.0129 7.8732 20.7009 7.30712 20.1355C6.74103 19.5694 6.42969 18.817 6.42969 18.0173V9.63068V9.63002Z" fill="white"/>
<path d="M8.96094 9.6458V4.86766H6.42803V9.6458H8.96094Z" fill="white"/>
<path d="M0 12.7349H6.98456C7.56183 12.7349 8.10488 12.96 8.51364 13.3681C8.92241 13.7763 9.14686 14.3193 9.14686 14.8972V21.0182H2.18074C1.5982 21.0182 1.05055 20.7911 0.639148 20.3797C0.227092 19.9676 0.000657876 19.4206 0.000657876 18.8381V12.7356L0 12.7349Z" fill="white"/>
<path d="M5.5293 12.7468V9.52077H3.68623V12.7468H5.5293Z" fill="white"/>
</svg>
