<svg width="20" height="29" viewBox="0 0 20 29" fill="none" xmlns="http://www.w3.org/2000/svg">
<path d="M12.0492 22.5199V26.8663C12.0492 27.2253 11.9092 27.5638 11.6548 27.8173C11.4005 28.0717 11.0628 28.2117 10.7038 28.2117H6.89453V23.8768C6.89453 23.5143 7.03545 23.174 7.29159 22.917C7.54773 22.6608 7.88895 22.5199 8.25056 22.5199H12.0483H12.0492Z" fill="#FFD400"/>
<path d="M9.63315 1.52588e-05C4.31272 1.52588e-05 0 4.31273 0 9.63316C0 14.9536 4.31272 19.2663 9.63315 19.2663C14.9536 19.2663 19.2663 14.9536 19.2663 9.63316C19.2663 4.31273 14.9536 1.52588e-05 9.63315 1.52588e-05ZM12.3922 8.02277C12.1476 8.12469 11.8773 8.12469 11.6326 8.02277C11.388 7.92173 11.1966 7.73117 11.0947 7.48656L9.87777 4.55823L12.4507 3.48936C12.6935 3.38832 12.9612 3.38832 13.204 3.48936C13.4469 3.58951 13.6366 3.77829 13.7376 4.02114L14.9571 6.95655L12.3922 8.02188V8.02277Z" fill="#FFD400"/>
<path d="M12.0482 19.955H6.80664V21.7878H12.0482V19.955Z" fill="#FFD400"/>
</svg>
