<svg width="15" height="18" viewBox="0 0 15 18" fill="none" xmlns="http://www.w3.org/2000/svg">
<g clip-path="url(#clip0_337_1415)">
<path d="M15 7.40283C15 3.31483 11.6424 0 7.4994 0C3.35642 0 0 3.31483 0 7.40283C0 9.43229 0.826795 11.2692 2.16456 12.6067H2.14835L7.4976 18.0006L12.8487 12.6067H12.8354C14.1744 11.2698 15 9.43229 15 7.40283ZM7.43936 12.4474C4.5903 12.4474 2.28044 10.1679 2.28044 7.35621C2.28044 4.5445 4.59091 2.26499 7.43936 2.26499C10.2878 2.26499 12.5983 4.5445 12.5983 7.35621C12.5983 10.1679 10.2884 12.4474 7.43936 12.4474Z" fill="white"/>
</g>
<defs>
<clipPath id="clip0_337_1415">
<rect width="15" height="18" fill="white"/>
</clipPath>
</defs>
</svg>
