<svg width="24" height="28" viewBox="0 0 24 28" fill="none" xmlns="http://www.w3.org/2000/svg">
<g clip-path="url(#clip0_447_1315)">
<path d="M23.9797 11.3091H13.4783C12.6101 11.3091 11.794 11.0022 11.1802 10.4448C10.5665 9.88747 10.2285 9.14629 10.2285 8.35789V0H20.7021C21.5776 0 22.4012 0.309458 23.0205 0.871878C23.6398 1.4343 23.9806 2.18138 23.9806 2.97653V11.3091H23.9797Z" fill="#FFD400"/>
<path d="M4.15759 14.0715C6.41493 14.0715 8.24487 12.4096 8.24487 10.3597C8.24487 8.30969 6.41493 6.64786 4.15759 6.64786C1.90025 6.64786 0.0703125 8.30969 0.0703125 10.3597C0.0703125 12.4096 1.90025 14.0715 4.15759 14.0715Z" fill="#FFD400"/>
<path d="M12.0013 14.1322C14.2587 14.1322 16.0886 12.4704 16.0886 10.4204C16.0886 8.37042 14.2587 6.70859 12.0013 6.70859C9.744 6.70859 7.91406 8.37042 7.91406 10.4204C7.91406 12.4704 9.744 14.1322 12.0013 14.1322Z" fill="#FFD400"/>
<path d="M1.41016 27.4052L1.41016 10.444H0.0238988L0.0238988 27.4052H1.41016Z" fill="#FFD400"/>
<path d="M19.9135 14.1718C22.1708 14.1718 24.0007 12.51 24.0007 10.46C24.0007 8.41003 22.1708 6.7482 19.9135 6.7482C17.6561 6.7482 15.8262 8.41003 15.8262 10.46C15.8262 12.51 17.6561 14.1718 19.9135 14.1718Z" fill="#FFD400"/>
<path d="M23.9629 27.3706V10.4094H22.5766V27.3706H23.9629Z" fill="#FFD400"/>
<path d="M0 11.3521H10.5014C11.3695 11.3521 12.1857 11.0452 12.7994 10.4878C13.4132 9.93047 13.7512 9.18929 13.7512 8.40089V0.0429993H3.27762C2.40204 0.0429993 1.57846 0.352457 0.959146 0.914878C0.340761 1.47646 0 2.22438 0 3.01953V11.3521Z" fill="#FFD400"/>
<path d="M0.637396 27.3799L22.7637 27.3799V26.1209L0.637396 26.1209V27.3799Z" fill="#FFD400"/>
<path d="M15.2715 18.5607V26.5114H16.6577V18.5607H15.2715Z" fill="#FFD400"/>
<path d="M7.85938 18.4874L7.85938 26.438H9.24563V18.4874H7.85938Z" fill="#FFD400"/>
<path d="M16.6682 18.3541H7.86133V19.613H16.6682V18.3541Z" fill="#FFD400"/>
</g>
<defs>
<clipPath id="clip0_447_1315">
<rect width="24" height="27.406" fill="white"/>
</clipPath>
</defs>
</svg>
