<svg width="21" height="23" viewBox="0 0 21 23" fill="none" xmlns="http://www.w3.org/2000/svg">
<path d="M18.1553 17.6472C19.9868 15.7566 20.9299 13.325 21 10.8482L0 10.8438C0.228483 13.3199 1.3271 15.7515 3.27906 17.6428C7.51877 21.7497 14.1791 21.7511 18.1553 17.6465V17.6472Z" fill="#FFD400"/>
<path d="M3.54297 4.0032H8.13964C8.51996 4.0032 8.87692 4.15139 9.14555 4.42002C9.41418 4.68865 9.56237 5.04634 9.56237 5.42593V9.45395H4.9781C4.59487 9.45395 4.23426 9.30503 3.96344 9.03348C3.69261 8.76266 3.54297 8.40205 3.54297 8.01881V4.00247V4.0032Z" fill="#FFD400"/>
<path d="M11.0059 9.53571H15.6025C15.9828 9.53571 16.3398 9.38752 16.6084 9.11889C16.8771 8.85026 17.0253 8.49257 17.0253 8.11298V4.08496H12.441C12.0578 4.08496 11.6971 4.23388 11.4263 4.50543C11.1555 4.77625 11.0059 5.13686 11.0059 5.5201V9.53643V9.53571Z" fill="#FFD400"/>
<path d="M10.2738 4.02656L12.6265 3.08196C12.8207 3.00386 12.9732 2.85494 13.0557 2.66223C13.1382 2.46951 13.1404 2.25636 13.0623 2.06146L12.2345 0L9.8876 0.942399C9.69124 1.02124 9.53794 1.17161 9.45472 1.36579C9.37151 1.55996 9.36932 1.7753 9.44816 1.97167L10.2738 4.02729V4.02656Z" fill="#FFD400"/>
<path d="M17.705 21.6292H3.02148V22.7191H17.705V21.6292Z" fill="#FFD400"/>
</svg>
