<svg width="20" height="22" viewBox="0 0 20 22" fill="none" xmlns="http://www.w3.org/2000/svg">
<path d="M5.26421 0C3.85807 0 2.53631 0.545694 1.54171 1.5358C0.547792 2.52659 0 3.84328 0 5.24403V16.8579C0 19.698 2.31083 22 5.16185 22H14.7794C16.1737 22 17.4851 21.4591 18.4707 20.4766C19.457 19.4948 20 18.1884 20 16.7994V0H5.26421ZM1.88131 7.02649C1.88131 6.66477 2.02241 6.3244 2.2797 6.06878L4.97026 3.38854L8.05022 6.45669C8.30475 6.71024 8.44515 7.04785 8.44515 7.40614C8.44515 7.76511 8.30475 8.10204 8.05022 8.35559L5.35136 11.0441L2.2797 7.98422C2.0231 7.72859 1.88131 7.38822 1.88131 7.02649ZM3.73011 15.5874C3.58902 15.4455 3.51224 15.2581 3.51293 15.0583C3.51362 14.8584 3.59247 14.6717 3.73496 14.5312L5.43644 12.8507L6.91866 14.3396C7.05837 14.4802 7.13515 14.6662 7.13446 14.8646C7.13376 15.0624 7.05561 15.2484 6.91451 15.3876L5.20888 17.0722L3.7315 15.5874H3.73011ZM9.90939 19.4424C9.83123 19.6243 9.68668 19.7649 9.5027 19.8386C9.31872 19.9123 9.11606 19.9102 8.93346 19.8324L6.7243 18.8926L7.54876 16.9696C7.62761 16.7863 7.77286 16.6443 7.95892 16.5699C8.14497 16.4955 8.34832 16.4976 8.53299 16.5761L10.7366 17.5132L9.91008 19.4417L9.90939 19.4424ZM11.2484 15.1285C10.9939 15.3821 10.655 15.522 10.2953 15.522C9.93498 15.522 9.59676 15.3821 9.34223 15.1285L6.26228 12.0604L8.95283 9.38014C9.20943 9.12452 9.55111 8.98328 9.91423 8.98328C10.2774 8.98328 10.619 9.12383 10.8756 9.38014L13.9473 12.44L11.2484 15.1285ZM17.925 3.37614C17.2922 3.37614 16.7796 2.86489 16.7796 2.23514C16.7796 1.60539 17.2928 1.09414 17.925 1.09414C18.5572 1.09414 19.0704 1.60539 19.0704 2.23514C19.0704 2.86489 18.5572 3.37614 17.925 3.37614Z" fill="white"/>
</svg>
