<svg width="17" height="18" viewBox="0 0 17 18" fill="none" xmlns="http://www.w3.org/2000/svg">
<path d="M8.13233 9.01938V15.877C8.13233 16.4439 7.91155 16.977 7.51044 17.3781C7.10933 17.7792 6.5762 18 6.00936 18H0V11.1603C0 10.5884 0.222465 10.0508 0.626946 9.64633C1.03143 9.24184 1.56905 9.01938 2.14038 9.01938H8.13233Z" fill="#FFD400"/>
<path d="M16.2735 0.00842285V6.86607C16.2735 7.43291 16.0527 7.96604 15.6516 8.36715C15.2505 8.76826 14.7174 8.98904 14.1505 8.98904H8.14062V2.14937C8.14062 1.57747 8.36309 1.03985 8.76757 0.635369C9.17205 0.23145 9.70968 0.00842285 10.2816 0.00842285H16.2735Z" fill="#FFD400"/>
<path d="M9.28906 10.1648V16.1169C9.28906 16.609 9.48063 17.0719 9.82893 17.4197C10.1767 17.768 10.6396 17.9595 11.1317 17.9595H16.3478V12.0232C16.3478 11.5266 16.1546 11.0603 15.8035 10.7092C15.4524 10.3581 14.9861 10.1648 14.49 10.1648H9.28962H9.28906Z" fill="#FFD400"/>
<path d="M0.0683594 0V5.95206C0.0683594 6.44418 0.259926 6.90709 0.60823 7.25483C0.955972 7.60313 1.41888 7.7947 1.911 7.7947H7.12712V1.85837C7.12712 1.36175 6.93387 0.895477 6.58276 0.544365C6.23165 0.193252 5.76481 0 5.26876 0H0.0683594Z" fill="#FFD400"/>
</svg>
